# Blender 4.1.1
# www.blender.org
mtllib 150x92mm.mtl
o 150x92mm
v 1.828163 0.000015 -0.575338
v 1.863977 0.000015 -0.000284
v 0.000096 -0.000000 -0.000282
v 1.722097 0.000015 -1.128292
v 1.825908 0.009817 0.574056
v 1.719974 0.009816 1.126331
v 1.722098 0.000015 1.127725
v 1.828163 0.000015 0.574770
v -1.827970 0.000014 0.574771
v -1.863784 0.000015 -0.000282
v -1.721904 0.000014 1.127725
v 1.007703 0.127601 2.404839
v 1.282535 0.127601 2.045105
v 0.000096 0.127609 -0.000282
v 0.694148 0.127601 2.672145
v -1.778697 0.127601 -0.564604
v -1.813545 0.127601 -0.000282
v -1.675490 0.127601 -1.107239
v -1.778697 0.127601 0.564039
v -1.675490 0.127601 1.106674
v 1.778890 0.127602 0.564038
v 1.813739 0.127602 -0.000284
v 1.675683 0.127602 1.106672
v -1.507891 0.127601 1.606768
v -1.282342 0.127601 2.045106
v 1.778890 0.127602 -0.564606
v 1.675683 0.127602 -1.107241
v 0.353920 0.127602 -2.837319
v 0.000096 0.127602 -2.892900
v 0.694147 0.127602 -2.672712
v -1.007509 0.127601 2.404840
v -0.693954 0.127601 2.672145
v 1.508084 0.127602 -1.607335
v 1.282535 0.127602 -2.045673
v -0.353727 0.127602 -2.837319
v -0.693954 0.127602 -2.672712
v -0.353727 0.127601 2.836752
v 0.000097 0.127601 2.892333
v 1.007702 0.127602 -2.405407
v -1.007509 0.127601 -2.405406
v -1.282342 0.127601 -2.045672
v 0.353921 0.127601 2.836752
v 1.549857 0.000015 1.637330
v 1.318059 0.000015 2.084003
v -1.827970 0.000015 -0.575336
v -1.721904 0.000015 -1.128291
v 1.035613 0.000015 2.450579
v 0.713373 0.000015 2.722969
v -1.549664 0.000015 -1.637897
v -1.317866 0.000015 -2.084570
v 0.363722 0.000015 2.890707
v 0.000097 0.000015 2.947344
v -1.035420 0.000015 -2.451145
v -0.713180 0.000015 -2.723536
v 1.035613 0.000015 -2.451146
v 1.318059 0.000015 -2.084571
v 0.713373 0.000015 -2.723536
v -0.363528 0.000014 2.890707
v -0.713179 0.000014 2.722969
v -0.363529 0.000015 -2.891273
v 0.000096 0.000015 -2.947911
v 1.549856 0.000015 -1.637898
v 0.363721 0.000015 -2.891273
v -1.549663 0.000014 1.637331
v -1.317865 0.000014 2.084004
v 1.508085 0.127601 1.606767
v -1.507892 0.127601 -1.607334
v -1.035419 0.000014 2.450579
v -1.719779 0.009816 1.126335
v -1.825714 0.009816 0.574062
v 1.034335 0.009817 -2.448122
v 1.316432 0.009817 -2.082000
v 1.861677 0.009817 -0.000287
v -1.547750 0.009816 1.635312
v 0.712492 0.009817 -2.720176
v 1.825907 0.009817 -0.574632
v -1.316239 0.009816 2.081434
v 0.363272 0.009817 -2.887707
v 1.719972 0.009817 -1.126904
v -1.034141 0.009816 2.447556
v 0.000096 0.009817 -2.944273
v 1.547943 0.009817 -1.635882
v -0.712298 0.009816 2.719609
v -0.363081 0.009817 -2.887706
v 1.287676 0.120115 -2.053873
v 1.514129 0.120115 -1.613782
v -0.363078 0.009816 2.887140
v -0.712300 0.009816 -2.720175
v 0.000098 0.009816 2.943707
v -1.034143 0.009816 -2.448120
v 0.363274 0.009816 2.887139
v -1.316241 0.009816 -2.081998
v 0.712494 0.009816 2.719608
v -1.547752 0.009816 -1.635875
v 1.034337 0.009816 2.447553
v -1.719780 0.009816 -1.126899
v 1.316434 0.009816 2.081430
v -1.825714 0.009816 -0.574626
v 1.547945 0.009816 1.635307
v -1.861484 0.009816 -0.000282
v 1.682402 0.120114 1.111107
v 1.514131 0.120114 1.613208
v -1.785828 0.120114 0.566302
v -1.820816 0.120114 -0.000282
v -1.785828 0.120114 -0.566865
v 1.287678 0.120114 2.053303
v -1.682208 0.120114 -1.111677
v 1.011743 0.120114 2.414479
v -1.513938 0.120114 -1.613777
v 0.696931 0.120114 2.682859
v -1.287484 0.120114 -2.053871
v 0.355341 0.120114 2.848126
v -1.011549 0.120114 -2.415047
v 0.000098 0.120114 2.903930
v -0.696737 0.120114 -2.683425
v -0.355144 0.120114 2.848126
v -0.355147 0.120114 -2.848693
v -0.696735 0.120114 2.682860
v 0.000096 0.120115 -2.904497
v -1.011547 0.120114 2.414483
v 1.682399 0.120115 -1.111682
v 0.355338 0.120115 -2.848693
v -1.287482 0.120114 2.053307
v 1.786021 0.120115 -0.566872
v 0.696929 0.120115 -2.683426
v -1.513937 0.120114 1.613213
v 1.821010 0.120115 -0.000287
v 1.011741 0.120115 -2.415049
v -1.682207 0.120114 1.111113
v 1.786021 0.120114 0.566297
v 1.781519 0.009840 0.854309
v 1.735644 0.127620 0.839398
v 1.742602 0.120096 0.842762
v 1.783719 -0.000009 0.855367
v 1.805005 0.127620 0.283242
v 1.852714 0.009840 0.288274
v 1.855002 -0.000009 0.288634
v 1.812242 0.120096 0.284376
v 1.855002 -0.000008 -0.289202
v 1.852713 0.009840 -0.288849
v 1.805005 0.127620 -0.283810
v 1.812241 0.120096 -0.284950
v 1.783719 -0.000008 -0.855935
v 1.742601 0.120096 -0.843336
v 1.735644 0.127620 -0.839966
v 1.781517 0.009840 -0.854883
v 1.605997 0.120097 -1.369324
v 1.599586 0.127620 -1.363854
v 1.641863 0.009841 -1.388075
v 1.643892 -0.000008 -1.389786
v 1.402060 0.127620 -1.835340
v 1.407680 0.120097 -1.842698
v 1.440895 -0.000008 -1.870239
v 1.439117 0.009841 -1.867934
v 0.858469 0.120097 -2.561571
v 0.855041 0.127620 -2.551344
v 0.878724 -0.000008 -2.599859
v 0.877639 0.009841 -2.596651
v 1.155271 0.120097 -2.245271
v 1.182529 -0.000008 -2.278831
v 1.181070 0.009841 -2.276019
v 1.150659 0.127620 -2.236307
v 0.541152 -0.000008 -2.820987
v 0.528679 0.120096 -2.779443
v 0.540484 0.009840 -2.817508
v 0.526569 0.127620 -2.768346
v 0.182562 0.009840 -2.930098
v 0.178576 0.120096 -2.890512
v 0.177865 0.127620 -2.878971
v 0.182789 -0.000008 -2.933717
v -0.177672 0.127620 -2.878971
v -0.182371 0.009840 -2.930097
v -0.178385 0.120096 -2.890512
v -0.182596 -0.000009 -2.933717
v -0.540960 -0.000009 -2.820987
v -0.526376 0.127620 -2.768345
v -0.540293 0.009840 -2.817506
v -0.528488 0.120096 -2.779442
v -0.878531 -0.000009 -2.599858
v -0.858277 0.120096 -2.561570
v -0.854848 0.127620 -2.551342
v -0.877448 0.009840 -2.596651
v -1.182337 -0.000009 -2.278830
v -1.180879 0.009840 -2.276017
v -1.155079 0.120096 -2.245269
v -1.150466 0.127619 -2.236306
v -1.440703 -0.000009 -1.870238
v -1.401868 0.127619 -1.835339
v -1.407489 0.120096 -1.842695
v -1.438926 0.009840 -1.867929
v -1.643699 -0.000009 -1.389784
v -1.599393 0.127619 -1.363853
v -1.605806 0.120096 -1.369319
v -1.641671 0.009840 -1.388070
v -1.783526 -0.000009 -0.855934
v -1.742409 0.120096 -0.843331
v -1.735451 0.127619 -0.839965
v -1.781325 0.009840 -0.854877
v -1.812048 0.120096 -0.284944
v -1.854809 -0.000009 -0.289200
v -1.852520 0.009840 -0.288843
v -1.804812 0.127619 -0.283809
v -1.854809 -0.000009 0.288635
v -1.804812 0.127619 0.283244
v -1.852520 0.009840 0.288280
v -1.812048 0.120096 0.284381
v -1.783525 -0.000009 0.855368
v -1.781325 0.009840 0.854314
v -1.735451 0.127619 0.839399
v -1.742408 0.120096 0.842768
v -1.641670 0.009840 1.387507
v -1.605805 0.120096 1.368755
v -1.643699 -0.000009 1.389219
v -1.599393 0.127619 1.363288
v -1.438924 0.009840 1.867366
v -1.407488 0.120096 1.842131
v -1.401868 0.127619 1.834773
v -1.440702 -0.000009 1.869673
v -1.150465 0.127619 2.235740
v -1.182336 -0.000009 2.278264
v -1.180877 0.009840 2.275453
v -1.155077 0.120096 2.244705
v -0.858275 0.120096 2.561006
v -0.854848 0.127619 2.550777
v -0.878530 -0.000009 2.599291
v -0.877445 0.009840 2.596085
v -0.540959 -0.000009 2.820420
v -0.540290 0.009840 2.816940
v -0.526376 0.127619 2.767779
v -0.528485 0.120096 2.778876
v -0.177671 0.127619 2.878404
v -0.178383 0.120096 2.889945
v -0.182369 0.009840 2.929531
v -0.182595 -0.000009 2.933150
v 0.182565 0.009840 2.929531
v 0.177865 0.127619 2.878404
v 0.182789 -0.000009 2.933150
v 0.178578 0.120096 2.889945
v 0.528681 0.120096 2.778875
v 0.526569 0.127619 2.767778
v 0.540486 0.009840 2.816939
v 0.541153 -0.000009 2.820420
v 0.877641 0.009840 2.596083
v 0.878724 -0.000009 2.599291
v 0.855042 0.127619 2.550777
v 0.858471 0.120096 2.561003
v 1.155273 0.120096 2.244702
v 1.181072 0.009840 2.275450
v 1.150659 0.127619 2.235739
v 1.182530 -0.000009 2.278263
v 1.402061 0.127619 1.834772
v 1.439119 0.009840 1.867362
v 1.407683 0.120096 1.842128
v 1.440896 -0.000009 1.869671
v 1.605999 0.120096 1.368751
v 1.641865 0.009840 1.387501
v 1.643893 -0.000009 1.389219
v 1.599586 0.127620 1.363286
vn 0.9233 -0.3662 -0.1161
vn 0.9298 -0.3634 -0.0579
vn 0.9320 -0.3624 -0.0000
vn -0.0000 -1.0000 -0.0000
vn 0.9409 0.2871 0.1796
vn 0.9264 0.2888 0.2415
vn 0.8957 -0.3777 0.2346
vn 0.9120 -0.3710 0.1749
vn -0.9233 -0.3662 0.1161
vn -0.9298 -0.3634 0.0579
vn -0.9320 -0.3624 -0.0000
vn 0.2552 0.9368 0.2394
vn 0.2896 0.9312 0.2213
vn 0.3208 0.9255 0.2012
vn -0.0000 1.0000 -0.0000
vn -0.4327 0.8999 -0.0540
vn -0.4383 0.8984 -0.0271
vn -0.4402 0.8979 -0.0000
vn -0.4327 0.8999 0.0540
vn -0.4234 0.9024 0.0805
vn -0.4102 0.9057 0.1065
vn 0.4328 0.8999 0.0540
vn 0.4383 0.8984 0.0271
vn 0.4402 0.8979 -0.0000
vn -0.3728 0.9147 0.1562
vn -0.3486 0.9199 0.1794
vn -0.3209 0.9255 0.2012
vn 0.4327 0.8999 -0.0540
vn 0.4234 0.9024 -0.0805
vn 0.4103 0.9057 -0.1065
vn 0.0912 0.9534 -0.2875
vn 0.0459 0.9552 -0.2922
vn -0.0000 0.9559 -0.2938
vn -0.2552 0.9368 0.2394
vn -0.2177 0.9420 0.2554
vn -0.1776 0.9467 0.2688
vn 0.3728 0.9147 -0.1562
vn 0.3486 0.9199 -0.1794
vn 0.3209 0.9255 -0.2012
vn -0.0912 0.9534 -0.2875
vn -0.1353 0.9505 -0.2796
vn -0.1776 0.9467 -0.2689
vn -0.0912 0.9534 0.2875
vn -0.0459 0.9553 0.2922
vn -0.0000 0.9559 0.2938
vn 0.2552 0.9368 -0.2394
vn 0.2177 0.9420 -0.2554
vn 0.1776 0.9467 -0.2689
vn -0.2552 0.9368 -0.2394
vn -0.2896 0.9312 -0.2213
vn -0.3208 0.9255 -0.2012
vn 0.0912 0.9534 0.2874
vn 0.1353 0.9505 0.2796
vn 0.1776 0.9467 0.2689
vn 0.9233 -0.3662 0.1161
vn 0.8455 -0.3969 0.3572
vn 0.8099 -0.4094 0.4202
vn 0.7657 -0.4236 0.4841
vn -0.9233 -0.3662 -0.1161
vn -0.9120 -0.3710 -0.1749
vn -0.8957 -0.3777 -0.2346
vn 0.6464 -0.4562 0.6116
vn 0.5687 -0.4735 0.6726
vn 0.4776 -0.4903 0.7290
vn -0.8455 -0.3969 -0.3572
vn -0.8099 -0.4094 -0.4202
vn -0.7657 -0.4236 -0.4841
vn 0.2568 -0.5177 0.8161
vn 0.1309 -0.5257 0.8405
vn -0.0000 -0.5284 0.8490
vn -0.6464 -0.4562 -0.6116
vn -0.5687 -0.4735 -0.6726
vn -0.4776 -0.4903 -0.7290
vn 0.6464 -0.4562 -0.6116
vn 0.7117 -0.4394 -0.5482
vn 0.7657 -0.4236 -0.4840
vn -0.2568 -0.5177 0.8161
vn -0.3733 -0.5055 0.7779
vn -0.4777 -0.4903 0.7290
vn -0.2568 -0.5177 -0.8161
vn -0.1309 -0.5257 -0.8405
vn -0.0000 -0.5284 -0.8490
vn 0.8455 -0.3969 -0.3571
vn 0.8738 -0.3863 -0.2953
vn 0.8957 -0.3777 -0.2345
vn 0.2568 -0.5177 -0.8161
vn 0.3733 -0.5055 -0.7779
vn 0.4776 -0.4903 -0.7290
vn -0.8455 -0.3969 0.3572
vn -0.8738 -0.3863 0.2953
vn -0.8957 -0.3777 0.2345
vn 0.3729 0.9146 0.1562
vn 0.3934 0.9099 0.1318
vn 0.4103 0.9057 0.1066
vn -0.3728 0.9147 -0.1562
vn -0.3934 0.9099 -0.1318
vn -0.4102 0.9057 -0.1065
vn -0.6464 -0.4562 0.6116
vn -0.7116 -0.4394 0.5482
vn -0.7657 -0.4236 0.4840
vn -0.9409 0.2870 0.1796
vn -0.9509 0.2858 0.1190
vn -0.9120 -0.3710 0.1749
vn 0.7552 0.3074 -0.5789
vn 0.8069 0.3021 -0.5076
vn 0.9566 0.2852 0.0593
vn 0.9509 0.2859 0.1190
vn 0.9298 -0.3634 0.0579
vn -0.9068 0.2911 0.3050
vn -0.9264 0.2888 0.2415
vn 0.6135 0.3199 -0.7220
vn 0.6914 0.3133 -0.6509
vn 0.5687 -0.4735 -0.6726
vn 0.9566 0.2852 -0.0593
vn 0.9586 0.2849 -0.0000
vn -0.8482 0.2977 0.4380
vn -0.8811 0.2941 0.3704
vn -0.8099 -0.4094 0.4202
vn 0.4096 0.3331 -0.8493
vn 0.5198 0.3266 -0.7894
vn 0.9409 0.2871 -0.1796
vn 0.9509 0.2859 -0.1190
vn 0.9120 -0.3710 -0.1749
vn -0.7552 0.3074 0.5789
vn -0.8069 0.3021 0.5076
vn 0.1454 0.3422 -0.9283
vn 0.2837 0.3385 -0.8972
vn 0.1310 -0.5257 -0.8405
vn 0.9068 0.2911 -0.3050
vn 0.9264 0.2888 -0.2415
vn -0.6135 0.3198 0.7220
vn -0.6914 0.3133 0.6510
vn -0.5687 -0.4735 0.6726
vn -0.1454 0.3422 -0.9283
vn -0.0000 0.3435 -0.9391
vn 0.7507 0.5339 -0.3891
vn 0.7831 0.5268 -0.3304
vn -0.4096 0.3331 0.8493
vn -0.5198 0.3266 0.7894
vn -0.4096 0.3331 -0.8493
vn -0.2837 0.3385 -0.8972
vn -0.3733 -0.5055 -0.7779
vn -0.1454 0.3422 0.9283
vn -0.2837 0.3385 0.8972
vn -0.1310 -0.5257 0.8405
vn -0.6135 0.3198 -0.7220
vn -0.5198 0.3266 -0.7894
vn 0.1454 0.3422 0.9283
vn -0.0000 0.3435 0.9392
vn -0.7552 0.3074 -0.5789
vn -0.6914 0.3133 -0.6509
vn -0.7117 -0.4393 -0.5482
vn 0.4096 0.3331 0.8493
vn 0.2837 0.3385 0.8972
vn 0.3733 -0.5055 0.7779
vn -0.8482 0.2977 -0.4380
vn -0.8069 0.3022 -0.5076
vn 0.6135 0.3199 0.7220
vn 0.5198 0.3266 0.7894
vn -0.9068 0.2911 -0.3050
vn -0.8811 0.2941 -0.3704
vn -0.8738 -0.3863 -0.2953
vn 0.7552 0.3074 0.5789
vn 0.6914 0.3133 0.6509
vn 0.7116 -0.4394 0.5482
vn -0.9409 0.2871 -0.1796
vn -0.9264 0.2888 -0.2415
vn 0.8483 0.2977 0.4380
vn 0.8069 0.3022 0.5076
vn -0.9566 0.2852 -0.0593
vn -0.9509 0.2858 -0.1190
vn -0.9298 -0.3634 -0.0579
vn 0.8088 0.5209 0.2730
vn 0.7831 0.5268 0.3304
vn -0.8591 0.5090 0.0534
vn -0.4383 0.8984 0.0271
vn -0.8610 0.5086 -0.0000
vn -0.9566 0.2852 0.0593
vn -0.9585 0.2849 -0.0000
vn 0.9068 0.2911 0.3050
vn 0.8811 0.2941 0.3704
vn -0.8532 0.5105 -0.1072
vn -0.8591 0.5090 -0.0534
vn 0.3486 0.9199 0.1794
vn 0.7104 0.5423 0.4486
vn 0.7507 0.5339 0.3891
vn -0.4233 0.9024 -0.0805
vn -0.8285 0.5164 -0.2167
vn -0.8431 0.5129 -0.1615
vn 0.6007 0.5628 0.5678
vn 0.6608 0.5520 0.5086
vn -0.7831 0.5268 -0.3304
vn -0.8088 0.5209 -0.2730
vn 0.2177 0.9420 0.2554
vn 0.4445 0.5856 0.6779
vn 0.5289 0.5742 0.6250
vn -0.3486 0.9199 -0.1794
vn -0.7104 0.5423 -0.4486
vn -0.7507 0.5339 -0.3891
vn 0.2392 0.6048 0.7596
vn 0.3476 0.5961 0.7238
vn -0.6007 0.5628 -0.5678
vn -0.6608 0.5520 -0.5086
vn 0.0459 0.9553 0.2922
vn -0.0000 0.6125 0.7905
vn 0.1220 0.6105 0.7826
vn -0.2177 0.9420 -0.2554
vn -0.4445 0.5856 -0.6779
vn -0.5289 0.5742 -0.6250
vn -0.2392 0.6048 0.7596
vn -0.1220 0.6105 0.7826
vn -0.2392 0.6048 -0.7596
vn -0.3476 0.5961 -0.7238
vn -0.1353 0.9505 0.2796
vn -0.4445 0.5856 0.6779
vn -0.3475 0.5961 0.7238
vn 0.8483 0.2977 -0.4380
vn 0.8811 0.2940 -0.3704
vn -0.0459 0.9552 -0.2922
vn -0.0000 0.6125 -0.7905
vn -0.1220 0.6105 -0.7826
vn -0.6007 0.5628 0.5678
vn -0.5289 0.5742 0.6250
vn 0.3934 0.9099 -0.1318
vn 0.8285 0.5163 -0.2167
vn 0.8088 0.5209 -0.2730
vn 0.2392 0.6048 -0.7596
vn 0.1220 0.6105 -0.7826
vn -0.2896 0.9312 0.2213
vn -0.7104 0.5423 0.4486
vn -0.6608 0.5520 0.5086
vn 0.8532 0.5105 -0.1072
vn 0.8431 0.5129 -0.1615
vn 0.1353 0.9505 -0.2796
vn 0.4445 0.5856 -0.6779
vn 0.3476 0.5961 -0.7238
vn -0.7831 0.5268 0.3304
vn -0.7507 0.5339 0.3891
vn 0.4383 0.8984 -0.0271
vn 0.8610 0.5086 -0.0000
vn 0.8591 0.5090 -0.0534
vn 0.6007 0.5628 -0.5678
vn 0.5289 0.5742 -0.6250
vn -0.3934 0.9099 0.1318
vn -0.8285 0.5163 0.2167
vn -0.8088 0.5210 0.2730
vn 0.8532 0.5104 0.1072
vn 0.8591 0.5090 0.0534
vn 0.2896 0.9312 -0.2213
vn 0.7104 0.5423 -0.4486
vn 0.6608 0.5520 -0.5086
vn -0.8532 0.5105 0.1072
vn -0.8431 0.5129 0.1615
vn 0.4234 0.9024 0.0805
vn 0.8285 0.5163 0.2167
vn 0.8432 0.5128 0.1615
vn 0.8098 -0.4094 -0.4202
vn 0.8738 -0.3863 0.2953
vt 0.500004 0.500001
vt 0.500004 0.500000
vt 0.500002 0.500000
vt 0.499996 0.499999
vt 0.499996 0.499998
vt 0.500001 0.499999
vt 0.500001 0.500000
vt 0.499997 0.499996
vt 0.499997 0.499997
vt 0.499996 0.499997
vt 0.499998 0.500000
vt 0.499999 0.500001
vt 0.499999 0.500000
vt 0.499999 0.499999
vt 0.499996 0.500000
vt 0.499999 0.499998
vt 0.499999 0.499997
vt 0.499996 0.500001
vt 0.499997 0.500004
vt 0.499998 0.499996
vt 0.499996 0.500002
vt 0.499996 0.500003
vt 0.499998 0.500004
vt 0.499997 0.500003
vt 0.499999 0.500003
vt 0.500004 0.499999
vt 0.500004 0.499997
vt 0.500001 0.500001
vt 0.500001 0.500002
vt 0.500003 0.499996
vt 0.500001 0.500003
vt 0.500002 0.499996
vt 0.500002 0.500004
vt 0.500004 0.500003
vt 0.500003 0.500004
vt 0.500004 0.500002
vt 0.500001 0.499998
vt 0.499999 0.500002
vt 0.500001 0.499997
s 1
usemtl None.016
f 1/1/1 139/2/2 2/2/3 3/3/4
f 131/4/5 6/5/6 7/5/7 134/4/8
f 9/6/9 203/7/10 10/7/11 3/3/4
f 12/8/12 249/9/13 13/10/14 14/11/15
f 16/12/16 202/12/17 17/13/18 14/11/15
f 19/14/19 209/14/20 20/14/21 14/11/15
f 21/4/22 135/4/23 22/15/24 14/11/15
f 24/16/25 217/16/26 25/17/27 14/11/15
f 26/18/28 145/18/29 27/18/30 14/11/15
f 28/19/31 169/19/32 29/19/33 14/11/15
f 31/17/34 224/20/35 32/20/36 14/11/15
f 33/21/37 151/21/38 34/22/39 14/11/15
f 35/23/40 176/23/41 36/23/42 14/11/15
f 37/20/43 231/20/44 38/20/45 14/11/15
f 39/24/46 156/19/47 30/19/48 14/11/15
f 40/23/49 186/25/50 41/25/51 14/11/15
f 42/8/52 240/8/53 15/8/54 14/11/15
f 8/26/55 134/4/8 7/5/7 3/3/4
f 43/27/56 254/27/57 44/27/58 3/3/4
f 45/28/59 195/28/60 46/29/61 3/3/4
f 47/30/62 244/30/63 48/30/64 3/3/4
f 49/31/65 187/31/66 50/31/67 3/3/4
f 51/30/68 237/30/69 52/32/70 3/3/4
f 53/33/71 179/33/72 54/33/73 3/3/4
f 55/34/74 160/34/75 56/34/76 3/3/4
f 58/32/77 227/32/78 59/32/79 3/3/4
f 60/33/80 174/33/81 61/35/82 3/3/4
f 62/36/83 150/36/84 4/1/85 3/3/4
f 63/35/86 163/35/87 57/35/88 3/3/4
f 64/37/89 213/37/90 11/6/91 3/3/4
f 66/5/92 258/5/93 23/5/94 14/11/15
f 67/38/95 192/38/96 18/38/97 14/11/15
f 68/39/98 220/39/99 65/39/100 3/3/4
f 208/14/101 70/14/102 9/6/9 207/14/103
f 161/22/104 72/22/105 56/34/76 160/34/75
f 136/4/106 5/4/107 8/26/55 137/4/108
f 211/16/109 69/14/110 11/6/91 213/37/90
f 158/19/111 71/24/112 55/34/74 157/19/113
f 140/15/114 73/15/115 2/2/3 139/2/2
f 215/17/116 74/16/117 64/37/89 218/17/118
f 165/19/119 75/19/120 57/35/88 163/35/87
f 146/18/121 76/18/122 1/1/1 143/18/123
f 221/17/124 77/17/125 65/39/100 220/39/99
f 167/19/126 78/19/127 63/35/86 170/19/128
f 149/21/129 79/18/130 4/1/85 150/36/84
f 226/20/131 80/17/132 68/39/98 225/20/133
f 172/23/134 81/19/135 61/35/82 174/33/81
f 152/21/136 151/21/38 33/21/37 86/21/137
f 228/20/138 83/20/139 59/32/79 227/32/78
f 177/23/140 84/23/141 60/33/80 175/23/142
f 233/20/143 87/20/144 58/32/77 234/20/145
f 182/23/146 88/23/147 54/33/73 179/33/72
f 235/8/148 89/20/149 52/32/70 237/30/69
f 184/25/150 90/23/151 53/33/71 183/25/152
f 241/8/153 91/8/154 51/30/68 242/8/155
f 190/25/156 92/25/157 50/31/67 187/31/66
f 243/8/158 93/8/159 48/30/64 244/30/63
f 194/38/160 94/25/161 49/31/65 191/38/162
f 248/9/163 95/8/164 47/30/62 250/9/165
f 198/12/166 96/38/167 46/29/61 195/28/60
f 252/10/168 97/10/169 44/27/58 254/27/57
f 201/12/170 98/12/171 45/28/59 200/12/172
f 255/5/173 258/5/93 66/5/92 102/5/174
f 206/13/175 204/13/176 17/13/18 104/13/177
f 205/13/178 206/13/175 104/13/177 100/13/179
f 256/5/180 255/5/173 102/5/174 99/10/181
f 202/12/17 16/12/16 105/12/182 199/12/183
f 251/10/184 13/10/14 106/10/185 253/10/186
f 197/12/187 18/38/97 107/38/188 196/12/189
f 249/9/13 12/8/12 108/8/190 247/9/191
f 192/38/96 67/38/95 109/38/192 193/38/193
f 245/8/194 15/8/54 110/8/195 246/8/196
f 188/25/197 41/25/51 111/25/198 189/25/199
f 240/8/53 42/8/52 112/8/200 239/8/201
f 186/25/50 40/23/49 113/23/202 185/25/203
f 236/8/204 38/20/45 114/20/205 238/8/206
f 181/23/207 36/23/42 115/23/208 180/23/209
f 231/20/44 37/20/43 116/20/210 232/20/211
f 176/23/41 35/23/40 117/23/212 178/23/213
f 229/20/214 32/20/36 118/20/215 230/20/216
f 154/22/217 152/21/136 86/21/137 82/21/218
f 171/23/219 29/19/33 119/19/220 173/23/221
f 224/20/35 31/17/34 120/17/222 223/20/223
f 148/21/224 27/18/30 121/18/225 147/21/226
f 169/19/32 28/19/31 122/19/227 168/19/228
f 219/17/229 25/17/27 123/17/230 222/17/231
f 145/18/29 26/18/28 124/18/232 144/18/233
f 166/19/234 30/19/48 125/19/235 164/19/236
f 217/16/26 24/16/25 126/16/237 216/16/238
f 141/15/239 22/15/24 127/15/240 142/15/241
f 156/19/47 39/24/46 128/24/242 155/19/243
f 214/16/244 20/14/21 129/14/245 212/16/246
f 135/4/23 21/4/22 130/4/247 138/4/248
f 162/22/249 34/22/39 85/22/250 159/22/251
f 209/14/20 19/14/19 103/14/252 210/14/253
f 132/4/254 23/5/94 101/5/255 133/4/256
f 153/22/257 154/22/217 82/21/218 62/36/83
f 257/5/258 256/5/180 99/10/181 43/27/56
f 203/7/10 205/13/178 100/13/179 10/7/11
f 199/12/183 105/12/182 98/12/171 201/12/170
f 253/10/186 106/10/185 97/10/169 252/10/168
f 196/12/189 107/38/188 96/38/167 198/12/166
f 247/9/191 108/8/190 95/8/164 248/9/163
f 193/38/193 109/38/192 94/25/161 194/38/160
f 246/8/196 110/8/195 93/8/159 243/8/158
f 189/25/199 111/25/198 92/25/157 190/25/156
f 239/8/201 112/8/200 91/8/154 241/8/153
f 185/25/203 113/23/202 90/23/151 184/25/150
f 238/8/206 114/20/205 89/20/149 235/8/148
f 180/23/209 115/23/208 88/23/147 182/23/146
f 232/20/211 116/20/210 87/20/144 233/20/143
f 178/23/213 117/23/212 84/23/141 177/23/140
f 230/20/216 118/20/215 83/20/139 228/20/138
f 173/23/221 119/19/220 81/19/135 172/23/134
f 223/20/223 120/17/222 80/17/132 226/20/131
f 147/21/226 121/18/225 79/18/130 149/21/129
f 168/19/228 122/19/227 78/19/127 167/19/126
f 222/17/231 123/17/230 77/17/125 221/17/124
f 144/18/233 124/18/232 76/18/122 146/18/121
f 164/19/236 125/19/235 75/19/120 165/19/119
f 216/16/238 126/16/237 74/16/117 215/17/116
f 142/15/241 127/15/240 73/15/115 140/15/114
f 155/19/243 128/24/242 71/24/112 158/19/111
f 212/16/246 129/14/245 69/14/110 211/16/109
f 138/4/248 130/4/247 5/4/107 136/4/106
f 159/22/251 85/22/250 72/22/105 161/22/104
f 210/14/253 103/14/252 70/14/102 208/14/101
f 133/4/256 101/5/255 6/5/6 131/4/5
f 27/18/30 148/21/224 33/21/37 14/11/15
f 56/34/76 153/22/257 62/36/83 3/3/4
f 57/35/88 157/19/113 55/34/74 3/3/4
f 34/22/39 162/22/249 39/24/46 14/11/15
f 30/19/48 166/19/234 28/19/31 14/11/15
f 61/35/82 170/19/128 63/35/86 3/3/4
f 50/31/67 183/25/152 53/33/71 3/3/4
f 36/23/42 181/23/207 40/23/49 14/11/15
f 41/25/51 188/25/197 67/38/95 14/11/15
f 46/29/61 191/38/162 49/31/65 3/3/4
f 18/38/97 197/12/187 16/12/16 14/11/15
f 10/7/11 200/12/172 45/28/59 3/3/4
f 17/13/18 204/13/176 19/14/19 14/11/15
f 11/6/91 207/14/103 9/6/9 3/3/4
f 20/14/21 214/16/244 24/16/25 14/11/15
f 65/39/100 218/17/118 64/37/89 3/3/4
f 25/17/27 219/17/229 31/17/34 14/11/15
f 59/32/79 225/20/133 68/39/98 3/3/4
f 32/20/36 229/20/214 37/20/43 14/11/15
f 52/32/70 234/20/145 58/32/77 3/3/4
f 38/20/45 236/8/204 42/8/52 14/11/15
f 48/30/64 242/8/155 51/30/68 3/3/4
f 15/8/54 245/8/194 12/8/12 14/11/15
f 44/27/58 250/9/165 47/30/62 3/3/4
f 13/10/14 251/10/184 66/5/92 14/11/15
f 7/5/7 257/5/258 43/27/56 3/3/4
f 23/5/94 132/4/254 21/4/22 14/11/15
f 2/2/3 137/4/108 8/26/55 3/3/4
f 22/15/24 141/15/239 26/18/28 14/11/15
f 4/1/85 143/18/123 1/1/1 3/3/4
f 54/33/73 175/23/142 60/33/80 3/3/4
f 29/19/33 171/23/219 35/23/40 14/11/15
f 130/4/247 133/4/256 131/4/5 5/4/107
f 21/4/22 132/4/254 133/4/256 130/4/247
f 5/4/107 131/4/5 134/4/8 8/26/55
f 127/15/240 138/4/248 136/4/106 73/15/115
f 22/15/24 135/4/23 138/4/248 127/15/240
f 73/15/115 136/4/106 137/4/108 2/2/3
f 124/18/232 142/15/241 140/15/114 76/18/122
f 26/18/28 141/15/239 142/15/241 124/18/232
f 76/18/122 140/15/114 139/2/2 1/1/1
f 121/18/225 144/18/233 146/18/121 79/18/130
f 27/18/30 145/18/29 144/18/233 121/18/225
f 79/18/130 146/18/121 143/18/123 4/1/85
f 86/21/137 147/21/226 149/21/129 82/21/218
f 33/21/37 148/21/224 147/21/226 86/21/137
f 82/21/218 149/21/129 150/36/84 62/36/83
f 56/34/76 72/22/105 154/22/217 153/22/257
f 72/22/105 85/22/250 152/21/136 154/22/217
f 85/22/250 34/22/39 151/21/38 152/21/136
f 125/19/235 155/19/243 158/19/111 75/19/120
f 30/19/48 156/19/47 155/19/243 125/19/235
f 75/19/120 158/19/111 157/19/113 57/35/88
f 128/24/242 159/22/251 161/22/104 71/24/112
f 39/24/46 162/22/249 159/22/251 128/24/242
f 71/24/112 161/22/104 160/34/75 55/34/74
f 122/19/227 164/19/236 165/19/119 78/19/127
f 28/19/31 166/19/234 164/19/236 122/19/227
f 78/19/127 165/19/119 163/35/87 63/35/86
f 119/19/220 168/19/228 167/19/126 81/19/135
f 29/19/33 169/19/32 168/19/228 119/19/220
f 81/19/135 167/19/126 170/19/128 61/35/82
f 117/23/212 173/23/221 172/23/134 84/23/141
f 35/23/40 171/23/219 173/23/221 117/23/212
f 84/23/141 172/23/134 174/33/81 60/33/80
f 115/23/208 178/23/213 177/23/140 88/23/147
f 36/23/42 176/23/41 178/23/213 115/23/208
f 88/23/147 177/23/140 175/23/142 54/33/73
f 113/23/202 180/23/209 182/23/146 90/23/151
f 40/23/49 181/23/207 180/23/209 113/23/202
f 90/23/151 182/23/146 179/33/72 53/33/71
f 111/25/198 185/25/203 184/25/150 92/25/157
f 41/25/51 186/25/50 185/25/203 111/25/198
f 92/25/157 184/25/150 183/25/152 50/31/67
f 109/38/192 189/25/199 190/25/156 94/25/161
f 67/38/95 188/25/197 189/25/199 109/38/192
f 94/25/161 190/25/156 187/31/66 49/31/65
f 107/38/188 193/38/193 194/38/160 96/38/167
f 18/38/97 192/38/96 193/38/193 107/38/188
f 96/38/167 194/38/160 191/38/162 46/29/61
f 105/12/182 196/12/189 198/12/166 98/12/171
f 16/12/16 197/12/187 196/12/189 105/12/182
f 98/12/171 198/12/166 195/28/60 45/28/59
f 104/13/177 199/12/183 201/12/170 100/13/179
f 17/13/18 202/12/17 199/12/183 104/13/177
f 100/13/179 201/12/170 200/12/172 10/7/11
f 9/6/9 70/14/102 205/13/178 203/7/10
f 70/14/102 103/14/252 206/13/175 205/13/178
f 103/14/252 19/14/19 204/13/176 206/13/175
f 129/14/245 210/14/253 208/14/101 69/14/110
f 20/14/21 209/14/20 210/14/253 129/14/245
f 69/14/110 208/14/101 207/14/103 11/6/91
f 126/16/237 212/16/246 211/16/109 74/16/117
f 24/16/25 214/16/244 212/16/246 126/16/237
f 74/16/117 211/16/109 213/37/90 64/37/89
f 123/17/230 216/16/238 215/17/116 77/17/125
f 25/17/27 217/16/26 216/16/238 123/17/230
f 77/17/125 215/17/116 218/17/118 65/39/100
f 120/17/222 222/17/231 221/17/124 80/17/132
f 31/17/34 219/17/229 222/17/231 120/17/222
f 80/17/132 221/17/124 220/39/99 68/39/98
f 118/20/215 223/20/223 226/20/131 83/20/139
f 32/20/36 224/20/35 223/20/223 118/20/215
f 83/20/139 226/20/131 225/20/133 59/32/79
f 116/20/210 230/20/216 228/20/138 87/20/144
f 37/20/43 229/20/214 230/20/216 116/20/210
f 87/20/144 228/20/138 227/32/78 58/32/77
f 114/20/205 232/20/211 233/20/143 89/20/149
f 38/20/45 231/20/44 232/20/211 114/20/205
f 89/20/149 233/20/143 234/20/145 52/32/70
f 112/8/200 238/8/206 235/8/148 91/8/154
f 42/8/52 236/8/204 238/8/206 112/8/200
f 91/8/154 235/8/148 237/30/69 51/30/68
f 110/8/195 239/8/201 241/8/153 93/8/159
f 15/8/54 240/8/53 239/8/201 110/8/195
f 93/8/159 241/8/153 242/8/155 48/30/64
f 108/8/190 246/8/196 243/8/158 95/8/164
f 12/8/12 245/8/194 246/8/196 108/8/190
f 95/8/164 243/8/158 244/30/63 47/30/62
f 106/10/185 247/9/191 248/9/163 97/10/169
f 13/10/14 249/9/13 247/9/191 106/10/185
f 97/10/169 248/9/163 250/9/165 44/27/58
f 102/5/174 253/10/186 252/10/168 99/10/181
f 66/5/92 251/10/184 253/10/186 102/5/174
f 99/10/181 252/10/168 254/27/57 43/27/56
f 7/5/7 6/5/6 256/5/180 257/5/258
f 6/5/6 101/5/255 255/5/173 256/5/180
f 101/5/255 23/5/94 258/5/93 255/5/173
