# Blender v2.83.1 OBJ File: ''
# www.blender.org
mtllib c.mtl
o a.002
v 0.309198 0.571294 -0.464136
v 0.315230 0.624068 -0.489244
v 0.313904 0.600483 -0.406660
v 0.325216 0.489183 -0.472224
v 0.317148 0.459886 -0.522131
v 0.330776 0.505384 -0.613774
v 0.031856 0.715310 -0.488957
v 0.163474 0.508153 -0.597084
v 0.144304 0.405545 -0.570182
v 0.116200 0.461603 -0.575171
v 0.319930 0.435758 -0.589787
v 0.271936 0.700266 -0.445936
v 0.207542 0.712821 -0.485156
v 0.223868 0.748004 -0.465497
v 0.189714 0.548411 -0.620035
v 0.249768 0.518673 -0.626235
v 0.019544 0.565707 -0.547774
v -0.041600 0.592720 -0.506707
v 0.000168 0.620592 -0.511919
v -0.024940 0.656062 -0.467436
v 0.242338 0.467445 -0.599102
v 0.142320 0.751085 -0.473615
v 0.047384 0.379277 -0.535235
v 0.054562 0.529563 -0.578880
v 0.133916 0.524416 -0.580281
v 0.039380 0.609143 -0.543784
v 0.028414 0.644715 -0.546656
v 0.147144 0.604354 -0.591700
v 0.353662 0.508694 -0.425525
v 0.275182 0.609444 -0.537075
v 0.249694 0.650846 -0.530195
v 0.175136 0.757763 -0.456542
v 0.068026 0.463713 -0.572761
v 0.318268 0.438565 -0.460502
v 0.290584 0.680491 -0.426513
v 0.159234 0.669608 -0.566754
v 0.168186 0.732010 -0.496392
v 0.347146 0.561452 -0.528670
v 0.295186 0.568128 -0.532504
v 0.206224 0.604485 -0.592874
v 0.095236 0.670347 -0.563983
v 0.264026 0.559090 -0.628581
v 0.257274 0.548617 -0.581210
v 0.280750 0.579698 -0.579521
v 0.171030 0.577425 -0.573370
v 0.142368 0.563247 -0.573257
v 0.345064 0.572666 -0.431017
v 0.337172 0.551612 -0.486973
v 0.316060 0.575672 -0.630514
v 0.035198 0.501499 -0.535533
v -0.016142 0.480080 -0.515846
v 0.248710 0.588906 -0.563641
v 0.110868 0.546518 -0.601721
v 0.271024 0.677501 -0.491725
vt 0.948576 0.275490
vt 0.955976 0.272951
vt 0.952669 0.282512
vt 0.937122 0.275893
vt 0.932991 0.269483
vt 0.939374 0.259736
vt 0.768061 0.873686
vt 0.762144 0.869378
vt 0.763661 0.866482
vt 0.929594 0.261812
vt 0.950087 0.824547
vt 0.958664 0.826287
vt 0.956629 0.831228
vt 0.672825 0.137868
vt 0.668673 0.145256
vt 0.667159 0.133014
vt 0.675185 0.112478
vt 0.678952 0.102124
vt 0.682878 0.107349
vt 0.551907 0.426024
vt 0.551907 0.425318
vt 0.551201 0.425318
vt 0.670124 0.119026
vt 0.669428 0.128261
vt 0.681292 0.114428
vt 0.686291 0.113385
vt 0.680660 0.130678
vt 0.671608 0.946716
vt 0.669537 0.941674
vt 0.675338 0.937987
vt 0.757050 0.855400
vt 0.760703 0.860704
vt 0.963792 0.278292
vt 0.677923 0.925692
vt 0.686659 0.926116
vt 0.982931 0.782447
vt 0.989810 0.784529
vt 0.983766 0.788894
vt 0.668799 0.932638
vt 0.689806 0.130031
vt 0.680688 0.137546
vt 0.689907 0.122460
vt 0.696164 0.109125
vt 0.716477 0.211789
vt 0.717950 0.213792
vt 0.714689 0.217898
vt 0.676876 0.131945
vt 0.674880 0.128652
vt 0.947284 0.270887
vt 0.948854 0.282116
vt 0.945885 0.275006
vt 0.068562 0.639780
vt 0.068535 0.645041
vt 0.062063 0.649610
vt 0.675630 0.772561
vt 0.678920 0.758086
vt 0.684375 0.764815
vt 0.682829 0.771492
vt 0.973993 0.266324
vt 0.964088 0.268253
vt 0.971605 0.259002
vt 0.742222 0.661099
vt 0.739161 0.653713
vt 0.751250 0.658973
vt 0.941059 0.252046
vt 0.674347 0.147066
vt 0.072595 0.638468
vt 0.715995 0.224505
vt 0.719415 0.219931
vt 0.666165 0.113317
vt 0.670471 0.065711
vt 0.678726 0.075607
vt 0.665993 0.068654
vt 0.933878 0.254727
vt 0.687830 0.100879
vt 0.764820 0.853878
vt 0.672531 0.127339
vt 0.727085 0.210570
vt 0.685672 0.770697
vt 0.974514 0.260766
vt 0.977143 0.790146
vt 0.659160 0.705328
vt 0.667567 0.710683
vt 0.665181 0.711594
vt 0.683985 0.931520
vt 0.949672 0.821383
vt 0.963335 0.269187
vt 0.984699 0.793622
vt 0.939922 0.283508
vt 0.966508 0.274567
vt 0.973043 0.268530
vt 0.754986 0.649948
vt 0.761698 0.846368
vt 0.701149 0.120568
vt 0.343731 0.518746
vt 0.350772 0.513650
vt 0.351299 0.516786
vt 0.676427 0.067520
vt 0.698495 0.125369
vt 0.689296 0.922228
vt 0.730286 0.217304
vt 0.678498 0.140048
vt 0.700695 0.129251
vt 0.695794 0.128975
vt 0.702060 0.122954
vt 0.939406 0.248884
vt 0.679081 0.940512
vt 0.666631 0.938284
vt 0.666839 0.153503
vt 0.992755 0.789911
vt 0.949200 0.256544
vn 0.6964 0.6798 -0.2300
vn 0.8839 0.2858 -0.3702
vn 0.8810 0.4068 -0.2418
vn 0.9653 -0.2302 -0.1232
vn 0.9800 -0.1976 0.0219
vn 0.7800 -0.2306 -0.5818
vn -0.2498 -0.1269 -0.9599
vn -0.1764 -0.1928 -0.9652
vn -0.1585 -0.2431 -0.9570
vn 0.9124 -0.0947 -0.3983
vn 0.6776 0.6218 -0.3927
vn 0.3697 0.6765 -0.6369
vn -0.0118 0.2868 -0.9579
vn -0.2621 0.4199 -0.8689
vn -0.0811 -0.2885 -0.9540
vn -0.4556 0.2114 -0.8647
vn -0.4808 0.3215 -0.8158
vn -0.6171 0.3130 -0.7220
vn -0.1932 -0.3338 -0.9227
vn -0.4087 -0.0917 -0.9081
vn -0.2291 -0.2828 -0.9314
vn -0.4614 -0.0626 -0.8850
vn -0.5734 0.1472 -0.8060
vn -0.1525 -0.1018 -0.9831
vn 0.5740 0.5259 -0.6277
vn 0.4928 0.5531 -0.6717
vn -0.2767 0.0682 -0.9585
vn -0.4839 -0.2213 -0.8467
vn 0.7507 0.5078 -0.4225
vn 0.1212 0.6027 -0.7887
vn 0.3475 0.7791 -0.5218
vn 0.8068 0.5905 0.0193
vn 0.7326 0.6392 -0.2340
vn 0.2942 0.0021 -0.9557
vn -0.1968 0.5553 -0.8080
vn -0.3339 0.6505 -0.6821
vn -0.2989 0.5522 -0.7783
vn -0.2485 0.8166 -0.5209
vn -0.0538 0.9500 -0.3076
vn 0.0746 0.0641 -0.9952
vn -0.2004 0.4159 -0.8871
vn 0.3383 0.8780 -0.3387
vn 0.8433 -0.5132 0.1595
vn 0.9765 -0.0864 -0.1973
vn 0.8383 -0.2652 -0.4764
vn 0.3631 0.7240 -0.5866
vn -0.6362 -0.1842 -0.7492
vn -0.2767 -0.0465 -0.9598
vn 0.1889 0.3266 -0.9261
vn -0.5839 0.4249 -0.6917
vn -0.2556 0.1955 -0.9468
vn 0.7432 0.2944 -0.6008
vn 0.0977 0.3533 -0.9304
vn 0.6046 0.6445 -0.4681
usemtl a.001
s 1
f 1/1/1 2/2/2 3/3/3
f 4/4/4 5/5/5 6/6/6
f 8/7/7 9/8/8 10/9/9
f 5/5/5 11/10/10 6/6/6
f 12/11/11 13/12/12 14/13/13
f 15/14/14 16/15/15 8/16/7
f 17/17/16 18/18/17 19/19/18
f 8/20/7 21/21/19 9/22/8
f 24/23/20 25/24/21 8/16/7
f 26/25/22 27/26/23 28/27/24
f 2/28/2 30/29/25 31/30/26
f 23/31/27 33/32/28 10/9/9
f 2/2/2 35/33/29 3/3/3
f 36/34/30 37/35/31 31/30/26
f 38/36/32 39/37/33 1/38/1
f 40/39/34 36/34/30 31/30/26
f 36/40/30 40/41/34 28/27/24
f 8/16/7 25/24/21 15/14/14
f 36/40/30 28/27/24 41/42/35
f 7/43/36 41/42/35 27/26/23
f 42/44/37 43/45/38 44/46/39
f 45/47/40 28/27/24 40/41/34
f 26/25/22 46/48/41 17/17/16
f 38/49/32 47/50/42 48/51/43
f 34/52/44 4/53/4 29/54/45
f 38/55/32 49/56/46 44/57/39
f 44/57/39 39/58/33 38/55/32
f 49/59/46 6/60/6 42/61/37
f 50/62/47 51/63/48 17/64/16
f 16/65/15 6/6/6 11/10/10
f 42/66/37 16/15/15 15/14/14
f 4/4/4 6/6/6 38/49/32
f 4/53/4 34/52/44 5/67/5
f 30/68/25 44/46/39 52/69/49
f 17/17/16 24/23/20 50/70/47
f 10/71/9 24/72/20 8/73/7
f 26/25/22 28/27/24 46/48/41
f 16/65/15 11/10/10 21/74/19
f 20/75/50 7/43/36 19/19/18
f 27/26/23 41/42/35 28/27/24
f 33/32/28 23/31/27 50/76/47
f 19/19/18 27/26/23 26/25/22
f 25/24/21 53/77/51 15/14/14
f 46/48/41 45/47/40 15/14/14
f 42/44/37 15/78/14 43/45/38
f 39/58/33 44/57/39 30/79/25
f 44/80/39 49/59/46 42/61/37
f 38/36/32 1/38/1 47/81/42
f 13/82/12 22/83/52 32/84/53
f 31/30/26 37/35/31 13/85/12
f 54/86/54 13/12/12 12/11/11
f 54/87/54 35/33/29 2/2/2
f 1/38/1 39/37/33 2/88/2
f 47/50/42 1/1/1 3/3/3
f 4/4/4 48/51/43 29/89/45
f 18/18/17 20/75/50 19/19/18
f 53/77/51 25/24/21 24/23/20
f 12/90/11 14/91/13 35/33/29
f 12/90/11 35/33/29 54/87/54
f 18/92/17 17/64/16 51/63/48
f 7/43/36 27/26/23 19/19/18
f 19/19/18 26/25/22 17/17/16
f 23/31/27 51/93/48 50/76/47
f 17/17/16 53/77/51 24/23/20
f 17/17/16 46/48/41 53/77/51
f 22/94/52 41/42/35 7/43/36
f 33/95/28 50/96/47 24/97/20
f 10/71/9 33/98/28 24/72/20
f 36/40/30 41/42/35 22/94/52
f 22/94/52 37/99/31 36/40/30
f 13/85/12 37/35/31 22/100/52
f 15/14/14 53/77/51 46/48/41
f 28/27/24 45/47/40 46/48/41
f 43/45/38 15/78/14 45/101/40
f 52/102/49 45/47/40 40/41/34
f 14/103/13 13/104/12 32/105/53
f 45/101/40 52/69/49 43/45/38
f 16/65/15 21/74/19 8/106/7
f 31/30/26 13/85/12 54/107/54
f 52/108/49 40/39/34 31/30/26
f 52/69/49 44/46/39 43/45/38
f 30/29/25 52/108/49 31/30/26
f 54/107/54 2/28/2 31/30/26
f 42/66/37 6/109/6 16/15/15
f 30/110/25 2/88/2 39/37/33
f 49/111/46 38/49/32 6/6/6
f 38/49/32 48/51/43 4/4/4
