# Blender v2.93.1 OBJ File: 'telemon photoscan.blend'
# www.blender.org
o Caestus_L_a.001
v -1.433702 2.940686 -0.155315
v -1.466883 2.927032 -0.034839
v -1.535629 3.009666 -0.100773
v -1.386021 2.893502 -0.101501
v -2.222449 2.598989 0.040656
v -2.238081 2.651812 0.067522
v -2.203390 2.531816 0.030459
v -1.538619 2.970060 0.019249
v -1.405176 2.899629 -0.098612
v -1.972369 2.672106 -0.157990
v -2.021948 2.692081 -0.242050
v -1.947240 2.658486 -0.152376
v -1.125628 2.632481 0.195797
v -1.123121 2.718085 0.278773
v -1.143779 2.689137 0.368311
v -1.114694 2.804140 0.307732
v -1.108680 2.885749 0.333355
v -1.121117 2.843607 0.419315
v -2.138223 2.735372 0.103629
v -2.085944 2.798887 0.131132
v -2.142808 2.813757 0.106358
v -1.423090 2.411566 -0.046393
v -1.380670 2.461398 -0.059039
v -1.429718 2.404638 -0.017118
v -1.976933 2.195838 0.013825
v -1.999559 2.243297 0.030549
v -1.975843 2.195985 0.017920
v -1.610655 2.856724 -0.254099
v -1.669668 2.900733 -0.221792
v -1.624914 2.948915 -0.174136
v -1.838572 2.233164 -0.202705
v -1.695541 2.186824 -0.231871
v -1.821354 2.190150 -0.225906
v -1.213355 2.622879 0.231725
v -1.182751 2.626758 0.287382
v -1.284601 2.532810 0.240960
v -1.084880 3.196348 0.426221
v -1.071735 3.137339 0.433974
v -1.101212 3.112896 0.345758
v -1.439291 3.203927 0.458352
v -1.442029 3.098501 0.511992
v -1.400388 3.108072 0.410240
v -2.101722 2.203067 -0.012747
v -2.136910 2.306914 0.007488
v -2.080400 2.278464 -0.001785
v -1.140515 2.752800 0.485450
v -1.144922 2.845707 0.582689
v -2.257087 2.369403 -0.243169
v -2.203247 2.458524 -0.206882
v -2.182576 2.476315 -0.246207
v -1.439055 2.383003 -0.041608
v -1.433495 2.398469 -0.031100
v -1.443079 2.384326 -0.015407
v -1.603523 2.183789 0.018380
v -1.590663 2.181360 -0.074441
v -1.601489 2.213009 0.052027
v -1.976697 2.160104 0.151196
v -1.978777 2.161633 0.133708
v -1.933459 2.286946 0.140758
v -1.737726 2.072109 -0.089267
v -1.779586 2.108882 -0.084446
v -1.789963 2.130857 -0.222560
v -2.070265 2.367003 -0.108758
v -2.092966 2.312762 -0.136996
v -2.040137 2.399882 -0.150209
v -1.580158 2.230093 0.022230
v -1.619942 2.154871 -0.054289
v -1.609507 2.220330 -0.007186
v -1.825874 2.148297 -0.077452
v -1.831790 2.166968 -0.140391
v -1.853649 2.474365 -0.030381
v -1.763028 2.503866 -0.121226
v -1.792709 2.403214 -0.142218
v -1.999113 2.196769 0.002475
v -2.048209 2.243760 0.004176
v -1.948019 2.137830 0.083812
v -1.947958 2.141300 0.066737
v -1.961914 2.141215 0.066113
v -1.951904 2.143803 0.049578
v -1.720507 3.104321 0.334002
v -1.720261 3.165817 0.255749
v -1.771696 3.018218 0.272503
v -1.841137 2.788136 0.466416
v -1.889387 2.788249 0.433903
v -1.779785 2.700793 0.504628
v -2.029315 2.975841 0.024116
v -2.002783 2.917367 -0.011345
v -2.036848 2.866874 -0.056500
v -1.383559 2.982549 0.586231
v -1.389903 3.059076 0.609432
v -1.367996 3.084445 0.666517
v -2.222449 2.598989 0.040656
v -2.203390 2.531816 0.030459
v -2.128612 2.524734 0.093011
v -1.369797 2.493145 0.272379
v -1.434604 2.461081 0.318981
v -1.381943 2.458164 0.266022
v -1.148195 2.907712 0.582594
v -1.092584 2.960693 0.547307
v -1.274098 2.991262 0.582074
v -1.481556 2.470665 0.316283
v -1.574923 2.453581 0.344683
v -1.472273 2.391870 0.297141
v -2.082743 2.351502 0.301536
v -2.017319 2.376645 0.335955
v -2.054930 2.418689 0.291399
v -1.825020 2.229154 -0.048602
v -1.807517 2.152054 -0.064613
v -1.823609 2.146595 -0.020047
v -1.633145 2.973237 0.423328
v -1.669651 3.006542 0.466345
v -1.728528 2.963105 0.344624
v -1.357539 2.633004 0.538772
v -1.442396 2.636528 0.506872
v -1.423527 2.590963 0.488346
v -1.431562 2.993665 0.727776
v -1.542580 2.935863 0.736986
v -2.205192 2.377446 -0.007718
v -2.203047 2.352006 0.019655
v -1.840128 2.679455 0.469194
v -1.784130 2.636133 0.489434
v -1.437372 2.894958 0.596013
v -1.470732 2.874548 0.600948
v -2.013692 2.169878 -0.038828
v -2.069342 2.202791 0.029501
v -2.026242 2.183645 -0.023684
v -1.445704 3.125968 0.568553
v -1.428908 3.220176 0.541545
v -1.387580 3.237134 0.590078
v -1.070550 3.021738 0.346373
v -1.089583 3.012913 0.434523
v -1.051581 2.980344 0.380125
v -1.135458 2.748294 0.248937
v -1.134418 2.729983 0.262871
v -1.194168 2.704638 0.205006
v -1.053429 2.929920 0.337205
v -1.091285 2.929965 0.384087
v -1.868215 2.428402 0.420317
v -1.885007 2.360218 0.306903
v -1.674258 2.335768 0.331237
v -1.461848 2.393348 -0.054563
v -1.435059 2.412076 -0.057558
v -1.443764 2.395138 -0.043223
v -1.978230 2.157623 0.083997
v -1.958398 2.135247 0.093783
v -1.660550 2.440661 0.435839
v -1.699103 2.492144 0.468727
v -1.804814 2.425488 0.421566
v -1.600872 2.560923 -0.277329
v -1.667901 2.554631 -0.241822
v -1.683757 2.586051 -0.234119
v -1.292660 2.587574 0.140900
v -1.336729 2.543241 0.021662
v -1.314982 2.613949 0.022202
v -2.168325 2.325365 -0.297358
v -2.090717 2.384856 -0.288545
v -2.155819 2.231230 -0.175615
v -1.327913 3.154757 0.753369
v -1.332272 3.129665 0.710101
v -1.279432 3.287919 0.686665
v -1.735839 2.471570 0.444139
v -1.827933 2.534318 0.458426
v -1.473586 2.349972 0.080796
v -1.464222 2.359396 0.059390
v -1.454050 2.371412 0.042020
v -1.475529 2.352461 0.034246
v -1.197492 2.663622 0.223259
v -1.962798 2.132437 0.115106
v -1.978470 2.159367 0.109035
v -1.588242 2.281028 -0.014498
v -1.512038 2.317755 0.138705
v -1.565202 2.364322 -0.182712
v -1.552766 2.431926 -0.158814
v -1.527639 2.352466 -0.020747
v -2.049584 2.451455 -0.254596
v -1.704720 2.102360 -0.082688
v -1.699474 2.095545 -0.047761
v -1.617301 2.250657 -0.206735
v -1.190064 2.833852 0.112079
v -1.183698 2.764609 0.204964
v -1.237406 2.775489 0.091484
v -1.270166 2.629043 0.210829
v -1.431785 2.399183 0.013537
v -1.978938 2.152826 0.146654
v -1.970687 2.146636 0.135955
v -1.965929 2.153340 0.142884
v -1.385455 2.584949 0.459752
v -2.098542 2.894859 0.135078
v -2.124907 2.903213 0.091590
v -1.865310 3.019524 0.009947
v -1.899211 2.957350 -0.089721
v -1.955173 2.917365 -0.080190
v -1.593846 3.087599 0.620858
v -1.664026 3.009213 0.533843
v -1.644514 3.024755 0.586640
v -1.491484 3.092681 0.733727
v -1.481085 3.183133 0.675684
v -1.577574 2.392570 0.362273
v -2.233962 2.349337 -0.104855
v -2.272749 2.280811 -0.143023
v -2.166659 2.297705 -0.095488
v -2.078360 2.704118 0.403437
v -1.999665 2.671003 0.392292
v -1.996738 2.783937 0.415868
v -1.862571 3.036583 0.156472
v -1.950087 2.965452 0.043665
v -1.904952 3.008729 0.189522
v -2.002388 2.849909 -0.124917
v -1.913440 2.750363 -0.248270
v -2.021948 2.692081 -0.242050
v -1.497426 3.247027 0.487823
v -1.564234 2.861354 0.484862
v -1.633525 2.854619 0.436612
v -1.623602 2.794437 0.447973
v -1.579517 2.784462 -0.260225
v -1.574442 2.878719 -0.212331
v -1.461147 2.880706 -0.180504
v -2.100295 2.159015 0.174362
v -2.128141 2.222299 0.108733
v -2.069327 2.091851 0.041326
v -1.976928 2.880674 0.296026
v -2.012850 2.855638 0.233516
v -2.069037 2.777875 0.228812
v -1.125390 3.076394 0.531242
v -2.246728 2.636467 0.256829
v -2.282831 2.576839 0.169707
v -2.320257 2.528748 0.193596
v -1.511885 2.339610 0.018662
v -1.684592 2.974890 -0.160448
v -1.407001 2.582278 -0.173973
v -1.384909 2.572664 -0.154176
v -1.479024 2.448684 -0.173047
v -2.156581 2.858261 0.036231
v -2.105800 2.799950 -0.059209
v -2.155825 2.829828 -0.034049
v -1.463366 2.709364 0.538814
v -1.278377 2.752182 0.639764
v -1.334226 2.793940 -0.045333
v -1.260931 2.803344 0.058804
v -1.274419 2.722577 0.102744
v -1.735877 2.651564 -0.223150
v -1.802126 2.609586 -0.235315
v -1.890994 2.953336 0.303958
v -1.823783 3.029503 0.244313
v -1.564658 2.462683 -0.149115
v -1.510288 2.520626 -0.228802
v -1.669661 3.139034 0.301745
v -1.629877 3.128382 0.380424
v -1.692455 3.221780 0.229054
v -2.303727 2.645499 0.043766
v -2.238081 2.651812 0.067522
v -2.280727 2.503585 0.153335
v -2.223713 2.438071 0.173349
v -2.307202 2.482311 0.263719
v -1.393559 2.676348 -0.191576
v -1.519235 2.733236 -0.251786
v -1.751254 2.910805 0.375713
v -1.732983 2.748265 0.474976
v -1.665254 2.733492 0.464935
v -1.734186 3.033520 0.386008
v -1.655007 2.187773 -0.013448
v -2.103662 2.161724 -0.024023
v -2.184288 2.272550 0.053892
v -2.185001 2.721416 -0.057624
v -2.223534 2.745076 -0.048498
v -1.366960 3.288234 0.673810
v -1.452865 2.806090 0.572403
v -1.400221 2.858450 0.639500
v -1.279020 2.902454 -0.091425
v -1.366359 2.985482 -0.084548
v -1.327781 2.979427 -0.091558
v -1.967775 2.108333 0.115983
v -1.989218 2.095894 0.130348
v -2.010998 2.108305 0.042128
v -2.067587 2.823436 0.161135
v -2.218957 2.316477 0.086576
v -1.693659 3.152870 0.396193
v -1.465250 3.018369 0.794346
v -1.803164 3.014295 -0.085452
v -1.756741 3.044522 -0.032254
v -2.068858 2.599796 0.347073
v -2.133565 2.555939 0.317998
v -2.128809 2.494802 0.375994
v -1.583729 2.933805 0.457035
v -1.647602 2.889925 0.451954
v -2.113395 2.902650 0.000693
v -2.067032 2.948859 0.081627
v -2.156487 2.488254 -0.076017
v -2.248208 2.437812 -0.102816
v -2.197100 2.494436 -0.028810
v -1.624765 2.227684 -0.129038
v -2.103885 2.485259 -0.255362
v -2.154655 2.567860 -0.222394
v -1.533554 3.153997 0.079327
v -1.478717 3.120605 0.022915
v -1.544466 3.101192 0.089091
v -1.980212 2.138973 0.142314
v -2.008132 2.240166 0.193505
v -2.083372 2.243884 0.233152
v -1.455613 2.831927 0.549170
v -1.974868 2.190659 -0.012058
v -1.974288 2.182715 0.004572
v -1.972049 2.172611 -0.009204
v -1.975942 2.172970 0.022154
v -1.608763 3.181882 0.388119
v -1.658115 3.162419 0.421434
v -2.180260 2.560215 0.318914
v -1.834569 2.244143 -0.173574
v -1.558740 2.913066 0.510226
v -2.082645 2.306118 -0.078058
v -2.158521 2.459831 0.135115
v -1.899681 2.521608 -0.193133
v -2.137057 2.357588 0.234270
v -1.971101 2.109936 0.112990
v -1.975362 2.112092 0.097831
v -1.956547 2.125130 0.094746
v -1.851741 2.739768 -0.260929
v -1.802510 2.694798 -0.203093
v -1.947240 2.658487 -0.152376
v -1.649871 2.484136 -0.137031
v -1.715374 2.428221 -0.143298
v -1.726978 2.480155 -0.099250
v -2.210994 2.508384 -0.237309
v -2.170537 2.535455 -0.139458
v -1.630799 3.229300 0.365805
v -1.856178 2.380533 -0.026782
v -1.812717 2.362381 -0.137172
v -1.810322 2.290262 -0.062555
v -1.589986 2.339737 0.329732
v -1.595375 2.257539 0.111960
v -2.158603 2.487721 0.066542
v -2.036877 2.332325 0.275918
v -2.073212 2.665606 -0.176811
v -2.142085 2.721569 -0.173952
v -1.372904 3.200294 0.765268
v -1.669557 2.799472 0.397727
v -1.635958 2.679748 0.440711
v -1.549104 2.919697 0.647130
v -1.718548 2.602420 0.499611
v -1.504598 3.264105 0.529965
v -1.463436 3.266562 0.608008
v -2.089556 2.653351 -0.138215
v -1.614138 2.379869 -0.191256
v -1.999615 2.240719 0.138365
v -1.834279 2.581954 -0.208080
v -1.741567 2.559474 -0.245202
v -1.964074 2.146065 0.043438
v -1.478780 2.576850 0.463674
v -1.546320 2.625912 0.464496
v -1.467511 2.556838 0.437404
v -1.450438 2.376101 0.011711
v -1.445458 2.384740 0.026344
v -1.223145 3.042469 -0.016268
v -1.170185 3.018438 0.024271
v -1.150656 2.988389 0.106098
v -2.027385 2.296979 0.044578
v -1.089193 3.075771 0.435421
v -1.782968 2.307667 -0.105023
v -1.988135 2.096055 0.147856
v -2.071871 2.075256 0.134674
v -1.204339 2.858709 0.025943
v -1.125298 2.932306 0.203027
v -1.638186 2.787572 0.409318
v -1.544215 2.710063 0.488949
v -1.563960 2.737949 0.482765
v -1.353419 2.421494 0.208414
v -1.350925 2.452366 0.167500
v -1.618683 2.185607 -0.118568
v -1.927593 2.139040 0.080128
v -1.521693 2.366487 -0.041938
v -1.496396 2.365055 -0.029452
v -1.518197 2.381477 -0.065221
v -1.538619 2.970061 0.019249
v -1.703810 3.119882 0.129683
v -1.658683 3.090725 0.105682
v -1.535629 3.009666 -0.100773
v -1.620563 3.069256 -0.024125
v -1.098906 2.775656 0.292676
v -1.530358 2.598480 -0.250698
v -1.945178 2.404772 -0.028730
v -1.490366 2.351151 0.002480
v -1.510028 2.350650 -0.005726
v -1.428747 2.389105 -0.031275
v -1.081768 2.862703 0.215956
v -1.335365 2.733539 -0.077831
v -1.334176 2.624370 0.000537
v -1.391715 2.716398 -0.166499
v -1.989072 2.123685 0.034290
v -1.986449 2.133299 0.012038
v -1.966117 2.148458 0.021527
v -1.987474 2.142467 -0.004867
v -1.493047 2.383328 -0.057908
v -1.460326 2.362215 0.019873
v -1.702654 2.641083 -0.299888
v -1.437268 3.130573 0.378332
v -1.491355 3.199278 0.288713
v -1.482659 3.239710 0.443318
v -2.133116 2.302294 -0.187337
v -1.824311 2.517364 -0.150378
v -1.958171 2.422209 0.397522
v -1.990434 2.403943 0.387284
v -2.256552 2.438683 0.249341
v -2.224634 2.412030 0.206266
v -2.196402 2.426219 0.237765
v -1.135982 2.724455 0.469156
v -1.237491 2.619509 0.408200
v -2.330592 2.615336 0.007332
v -1.694887 2.272432 0.159322
v -1.768324 2.213388 0.012639
v -1.336639 2.800725 -0.087635
v -2.141779 2.454920 0.240608
v -1.078861 2.825710 0.269342
v -1.237836 2.613624 0.381336
v -1.973711 2.129682 0.048254
v -1.983987 2.114442 0.074645
v -1.959600 2.134963 0.060223
v -1.476201 2.380837 -0.045041
v -1.082867 2.983078 0.229295
v -2.017313 2.191601 -0.019274
v -2.170738 2.565359 -0.133581
v -2.230570 2.600317 -0.103849
v -2.120883 2.621854 -0.118939
v -2.082702 2.788279 -0.156349
v -2.118457 2.707345 0.205132
v -2.209795 2.664737 0.072657
v -1.591750 3.017302 -0.112484
v -1.769233 2.766933 -0.281928
v -1.816323 2.838670 -0.234279
v -1.376682 3.070045 0.566684
v -1.259911 3.111385 0.532740
v -1.103344 2.761810 0.290455
v -1.083756 2.759587 0.280828
v -1.078363 2.773971 0.282345
v -2.259800 2.753474 0.020040
v -1.716814 2.786937 -0.278863
v -1.870537 2.625381 -0.192711
v -1.920844 2.578443 -0.218768
v -2.004350 2.485714 0.406743
v -1.953721 2.592315 0.430084
v -1.926008 2.624004 0.452056
v -1.906141 2.480232 0.425894
v -1.579824 3.130571 0.553693
v -1.543978 3.254636 0.376594
v -1.543109 3.188262 0.426890
v -1.363375 3.028759 -0.050407
v -1.390579 3.102962 0.812093
v -1.954593 2.769639 0.345593
v -1.988779 2.788959 0.356634
v -2.073644 2.560065 -0.230903
v -1.986334 2.508388 -0.267058
v -1.432661 2.998572 -0.021866
v -1.420594 3.090877 -0.015474
v -1.750296 3.095570 0.201659
v -2.297168 2.709768 -0.072505
v -1.806710 2.267913 0.015937
v -1.974636 2.950639 0.164168
v -1.707392 3.119870 0.194428
v -1.641361 3.146263 0.161686
v -1.678178 3.088054 0.173441
v -1.857372 2.857106 0.419756
v -2.029951 2.524894 0.412870
v -1.664088 2.306173 -0.213214
v -1.909437 2.835160 0.400326
v -2.160806 2.484023 0.288143
v -2.139288 2.747519 0.329934
v -2.081570 2.778008 0.378954
v -2.101007 2.793461 0.305153
v -1.342877 2.488029 0.001174
v -1.612569 2.735901 -0.281013
v -1.663906 2.224911 -0.216099
v -1.260674 3.056885 0.541648
v -1.104338 2.742795 0.286070
v -1.088560 2.745940 0.279240
v -1.110122 2.746750 0.267259
v -1.976827 2.123338 0.136814
v -1.977729 2.110898 0.137747
v -1.963765 2.104383 0.132822
v -1.984251 2.096307 0.139714
v -2.071343 2.810275 0.343508
v -1.430135 3.202475 0.307412
v -2.024067 2.157855 -0.053090
v -2.053688 2.144859 -0.059487
v -2.045439 2.871213 0.154232
v -1.980136 2.932518 0.117342
v -1.209883 2.760740 0.623487
v -1.683453 2.880057 0.351834
v -1.729231 3.105695 0.068695
v -1.664349 3.082191 -0.012084
v -1.479099 2.923707 -0.173450
v -1.652698 3.067861 0.536747
v -1.561134 3.136602 0.486809
v -2.335002 2.641006 -0.060987
v -2.224775 2.685576 -0.110598
v -2.270287 2.582643 -0.100083
v -1.432685 2.940391 -0.127002
v -1.350603 2.830818 -0.144041
v -1.371271 2.538527 -0.102004
v -2.199940 2.388647 0.088963
v -1.342614 3.099208 0.503664
v -1.308562 3.303139 0.711198
v -2.140226 2.729119 0.250023
v -1.223045 2.960727 -0.049558
v -1.591412 2.636761 -0.284154
v -2.149888 2.417001 0.116526
v -1.498432 2.338849 0.048415
v -2.184508 2.697911 -0.106156
v -2.181092 2.690298 0.267540
v -2.135826 2.696929 0.366706
v -2.170595 2.355973 0.167390
v -1.251231 3.011374 -0.047192
v -1.581995 3.084692 0.093456
v -2.019142 2.200531 -0.008157
v -2.004793 2.204226 -0.008480
v -1.981230 2.193141 -0.037997
v -1.337652 2.825356 -0.064638
v -1.598768 2.923493 0.710444
v -1.627304 2.977818 0.644793
v -1.926424 2.534874 -0.245273
v -1.675814 3.033796 0.442549
v -1.972369 2.672107 -0.157990
v -1.964147 2.719095 0.392293
v -1.405176 2.899629 -0.098612
v -1.606797 3.184331 0.168679
v -1.557962 3.223109 0.206116
v -1.536181 3.228382 0.138111
v -2.183856 2.378822 0.025432
v -1.766689 2.129421 -0.072049
v -1.757118 2.070689 -0.050508
v -2.257446 2.309422 -0.261138
v -2.241704 2.367954 -0.303567
v -1.433702 2.940687 -0.155315
v -1.438868 2.927135 -0.088472
v -1.386021 2.893502 -0.101501
v -2.209860 2.410010 -0.143451
v -2.026887 2.126967 -0.020985
v -2.031607 2.135561 -0.037420
v -2.013791 2.144114 -0.037252
v -2.040468 2.141433 -0.049022
v -1.452044 2.373101 -0.017040
v -1.471452 2.367201 -0.023834
v -1.802223 2.924644 -0.179547
v -1.551614 2.488661 0.392333
v -2.208586 2.576883 0.147504
v -1.895360 2.707333 0.439195
v -1.342838 3.100738 0.760266
v -2.173648 2.385090 0.217505
v -2.270361 2.499915 0.316875
v -2.229622 2.550585 0.326799
v -1.097678 2.790452 0.287783
v -1.079375 2.800899 0.277901
v -1.081053 2.804235 0.279838
v -2.253325 2.403394 -0.050196
v -1.792408 2.340374 -0.175641
v -1.100278 3.069421 0.476923
v -1.961862 2.141171 0.134681
v -1.555537 3.286036 0.313537
v -1.974845 2.193129 -0.024497
v -1.749269 2.121238 -0.218426
v -1.118765 2.740575 0.290943
v -1.121892 2.728034 0.288353
v -1.225010 2.671355 0.558603
v -1.084495 3.047059 0.503294
v -1.607099 2.547252 0.471252
v -1.145987 2.730247 0.404784
v -1.991102 2.182775 -0.046960
v -1.299202 2.938210 0.612295
v -2.171317 2.294652 0.232469
v -2.189539 2.270394 0.226494
v -1.289086 3.115325 0.448802
v -2.084529 2.681603 0.375775
v -1.222195 3.205554 0.406033
v -1.141980 3.110403 0.450815
v -1.324255 3.043880 -0.051093
v -1.112233 2.765588 0.269151
v -1.098271 2.757897 0.270487
v -1.899373 2.290123 0.110600
v -2.199124 2.612246 0.168655
v -1.076104 3.108751 0.286186
v -2.236413 2.621061 0.294971
v -1.385052 2.746108 -0.159686
v -1.585413 2.608232 0.478706
v -1.623893 2.940629 0.408383
v -1.264474 3.068160 -0.044231
v -1.268393 2.691040 0.598807
v -1.426649 2.405569 -0.052257
v -2.031792 2.108943 0.011429
v -2.005788 2.126379 -0.002141
v -1.087231 2.807146 0.283242
v -1.346687 3.162704 0.338284
v -1.450151 2.366770 -0.026798
v -1.992780 2.171401 -0.020296
v -2.002310 2.142565 -0.024513
v -1.580403 2.617913 0.441469
v -1.638964 3.255152 0.233945
v -1.326585 3.191057 0.359215
v -1.425817 2.939388 -0.031400
v -1.466883 2.927032 -0.034839
v -1.539713 2.555712 -0.273558
v -1.097092 2.788396 0.290028
v -1.094212 2.787202 0.286496
v -1.656045 2.622616 0.504126
v -1.951594 2.117386 0.117001
v -1.950212 2.111676 0.125071
v -1.378353 2.484110 0.298046
v -1.930590 2.834775 -0.188546
v -2.018484 2.157504 -0.052956
v -2.005621 2.159264 -0.033876
v -2.002793 2.173325 -0.043411
v -1.763491 2.402697 -0.165304
v -1.087988 2.775065 0.278271
v -1.237836 2.613624 0.381336
v -1.369797 2.493145 0.272379
v -1.378353 2.484110 0.298046
v -1.831790 2.166968 -0.140391
v -1.825874 2.148297 -0.077452
v -1.807517 2.152054 -0.064613
v -1.782968 2.307667 -0.105023
v -1.834569 2.244143 -0.173574
v -1.810322 2.290262 -0.062555
v -1.951904 2.143803 0.049578
v -1.964074 2.146065 0.043438
v -1.961914 2.141215 0.066113
v -1.978230 2.157623 0.083997
v -1.978777 2.161633 0.133708
v -1.978470 2.159367 0.109035
v -1.823609 2.146595 -0.020047
v -1.999113 2.196769 0.002475
v -2.004793 2.204226 -0.008480
v -2.019142 2.200531 -0.008157
v -1.976697 2.160104 0.151196
v -1.961862 2.141171 0.134681
v -1.962798 2.132437 0.115106
v -1.385455 2.584949 0.459752
v -2.069342 2.202791 0.029501
v -1.966117 2.148458 0.021527
v -1.097678 2.790452 0.287783
v -1.094212 2.787202 0.286496
v -1.078861 2.825710 0.269342
v -1.665254 2.733492 0.464935
v -1.580403 2.617913 0.441469
v -1.635958 2.679748 0.440711
v -1.381943 2.458164 0.266022
v -1.087988 2.775065 0.278271
v -1.433702 2.940687 -0.155315
v -1.466883 2.927032 -0.034839
v -1.535629 3.009666 -0.100773
v -1.386021 2.893502 -0.101501
v -2.222449 2.598989 0.040656
v -2.238081 2.651812 0.067522
v -2.203390 2.531816 0.030459
v -1.538619 2.970061 0.019249
v -1.405176 2.899629 -0.098612
v -1.972369 2.672107 -0.157990
v -2.021948 2.692081 -0.242050
v -1.947240 2.658487 -0.152376
v -1.237836 2.613624 0.381336
v -1.369797 2.493145 0.272379
v -1.378353 2.484110 0.298046
v -1.831790 2.166968 -0.140391
v -1.825874 2.148297 -0.077452
v -1.807517 2.152054 -0.064613
v -1.782968 2.307667 -0.105023
v -1.834569 2.244143 -0.173574
v -1.810322 2.290262 -0.062555
v -1.951904 2.143803 0.049578
v -1.964074 2.146065 0.043438
v -1.961914 2.141215 0.066113
v -1.978230 2.157623 0.083997
v -1.978777 2.161633 0.133708
v -1.978470 2.159367 0.109035
v -1.823609 2.146595 -0.020047
v -1.999113 2.196769 0.002475
v -2.004793 2.204226 -0.008480
v -2.019142 2.200531 -0.008157
v -1.976697 2.160104 0.151196
v -1.961862 2.141171 0.134681
v -1.962798 2.132437 0.115106
v -1.385455 2.584949 0.459752
v -2.069342 2.202791 0.029501
v -1.966117 2.148458 0.021527
v -1.097678 2.790452 0.287783
v -1.094212 2.787202 0.286496
v -1.078861 2.825710 0.269342
v -1.665254 2.733492 0.464935
v -1.580403 2.617913 0.441469
v -1.635958 2.679748 0.440711
v -1.381943 2.458164 0.266022
v -1.087988 2.775065 0.278271
vt 0.764027 0.162464
vt 0.764027 0.163175
vt 0.764737 0.163175
vt 0.757635 0.167791
vt 0.757635 0.168501
vt 0.758345 0.168501
vt 0.758345 0.146484
vt 0.758345 0.145774
vt 0.757635 0.145774
vt 0.751243 0.148260
vt 0.751243 0.148970
vt 0.751953 0.148970
vt 0.013983 0.669962
vt 0.005040 0.665221
vt 0.000437 0.658755
vt 0.737393 0.164240
vt 0.737393 0.164950
vt 0.738104 0.164950
vt 0.768999 0.169567
vt 0.768999 0.168857
vt 0.768288 0.168857
vt 0.968624 0.083182
vt 0.966952 0.091429
vt 0.959547 0.086875
vt 0.028228 0.602312
vt 0.034411 0.609358
vt 0.027915 0.610792
vt 0.891483 0.829481
vt 0.896510 0.833403
vt 0.890938 0.829594
vt 0.870455 0.775838
vt 0.875474 0.774056
vt 0.870493 0.776061
vt 0.936954 0.805027
vt 0.941743 0.799978
vt 0.946892 0.805785
vt 0.771833 0.984044
vt 0.766959 0.999577
vt 0.767139 0.986451
vt 0.768999 0.157138
vt 0.768999 0.156428
vt 0.768288 0.156428
vt 0.596473 0.248779
vt 0.597641 0.242845
vt 0.597745 0.245596
vt 0.910796 0.149989
vt 0.899611 0.154114
vt 0.902458 0.143440
vt 0.544709 0.620133
vt 0.547696 0.631382
vt 0.545305 0.628620
vt 0.953254 0.077401
vt 0.945295 0.086618
vt 0.676943 0.234004
vt 0.675598 0.244215
vt 0.670919 0.246063
vt 0.974097 0.042437
vt 0.973652 0.043938
vt 0.971845 0.042478
vt 0.972837 0.044495
vt 0.768999 0.150036
vt 0.768999 0.149325
vt 0.768288 0.149325
vt 0.768288 0.148260
vt 0.768288 0.148970
vt 0.768999 0.148970
vt 0.101362 0.947087
vt 0.102862 0.950794
vt 0.088341 0.952783
vt 0.768999 0.146484
vt 0.768999 0.145774
vt 0.768288 0.145774
vt 0.234015 0.637874
vt 0.242114 0.629818
vt 0.238187 0.636925
vt 0.530717 0.685411
vt 0.544739 0.687925
vt 0.540282 0.689566
vt 0.898709 0.786864
vt 0.901145 0.793398
vt 0.890655 0.789849
vt 0.797015 0.938648
vt 0.799522 0.938384
vt 0.804505 0.943128
vt 0.973538 0.434798
vt 0.974831 0.435218
vt 0.973971 0.435254
vt 0.975871 0.435553
vt 0.961626 0.182192
vt 0.968464 0.187785
vt 0.952254 0.190621
vt 0.926423 0.182289
vt 0.926318 0.188587
vt 0.917085 0.174385
vt 0.962283 0.363458
vt 0.958057 0.360719
vt 0.959601 0.355148
vt 0.928887 0.100966
vt 0.926558 0.108727
vt 0.923539 0.111145
vt 0.767933 0.157138
vt 0.767933 0.156428
vt 0.767223 0.156428
vt 0.767933 0.155362
vt 0.767933 0.154652
vt 0.767223 0.154652
vt 0.944999 0.092986
vt 0.951406 0.098449
vt 0.936492 0.101726
vt 0.943905 0.050002
vt 0.935575 0.048390
vt 0.946093 0.042079
vt 0.878320 0.213348
vt 0.881270 0.205519
vt 0.885820 0.211847
vt 0.767223 0.148260
vt 0.767223 0.148970
vt 0.767933 0.148970
vt 0.947549 0.168507
vt 0.950895 0.168488
vt 0.946271 0.181898
vt 0.513404 0.310041
vt 0.513706 0.319532
vt 0.509010 0.317828
vt 0.914669 0.101764
vt 0.906690 0.095982
vt 0.547720 0.638672
vt 0.550639 0.635935
vt 0.914597 0.181852
vt 0.910090 0.175733
vt 0.924675 0.092073
vt 0.922110 0.090028
vt 0.867520 0.770706
vt 0.871418 0.767102
vt 0.869052 0.769884
vt 0.875444 0.768483
vt 0.871243 0.762693
vt 0.766868 0.166016
vt 0.766868 0.165305
vt 0.766158 0.165305
vt 0.295314 0.174361
vt 0.294058 0.179258
vt 0.290889 0.173599
vt 0.927309 0.865973
vt 0.925486 0.866429
vt 0.922691 0.858982
vt 0.970323 0.095853
vt 0.964158 0.095774
vt 0.887358 0.187279
vt 0.880345 0.196583
vt 0.878768 0.177498
vt 0.889612 0.825376
vt 0.891492 0.827983
vt 0.889832 0.827492
vt 0.300525 0.173838
vt 0.298869 0.176141
vt 0.297975 0.175020
vt 0.766868 0.157138
vt 0.766868 0.156428
vt 0.766158 0.156428
vt 0.889739 0.169115
vt 0.894977 0.170011
vt 0.887379 0.181956
vt 0.906023 0.805375
vt 0.905648 0.799608
vt 0.908976 0.798226
vt 0.573780 0.026669
vt 0.569087 0.015026
vt 0.576215 0.016673
vt 0.766868 0.153587
vt 0.766868 0.152876
vt 0.766158 0.152876
vt 0.794389 0.010303
vt 0.797533 0.009745
vt 0.802611 0.022797
vt 0.892652 0.174745
vt 0.898923 0.181402
vt 0.962568 0.038715
vt 0.964803 0.039726
vt 0.966781 0.040979
vt 0.965969 0.039157
vt 0.766158 0.150036
vt 0.766158 0.150746
vt 0.766868 0.150746
vt 0.970212 0.434168
vt 0.969618 0.436926
vt 0.967723 0.437046
vt 0.766158 0.148260
vt 0.766158 0.148970
vt 0.766868 0.148970
vt 0.886041 0.811548
vt 0.893172 0.813447
vt 0.885676 0.819691
vt 0.797961 0.526443
vt 0.789115 0.521559
vt 0.802744 0.522516
vt 0.971535 0.436859
vt 0.976640 0.440954
vt 0.191381 0.144353
vt 0.196188 0.149493
vt 0.190714 0.147837
vt 0.872243 0.811869
vt 0.874186 0.805659
vt 0.935608 0.857018
vt 0.928856 0.860033
vt 0.929547 0.851737
vt 0.915037 0.851534
vt 0.970385 0.043831
vt 0.967075 0.100889
vt 0.960270 0.104122
vt 0.124613 0.039656
vt 0.124043 0.038469
vt 0.124682 0.038274
vt 0.939093 0.060848
vt 0.934776 0.065401
vt 0.934347 0.061439
vt 0.765092 0.164240
vt 0.765092 0.164950
vt 0.765803 0.164950
vt 0.033490 0.619709
vt 0.028242 0.620628
vt 0.945940 0.367223
vt 0.945703 0.356212
vt 0.951214 0.355382
vt 0.959609 0.151350
vt 0.951029 0.163219
vt 0.952660 0.157867
vt 0.938512 0.436609
vt 0.931887 0.451064
vt 0.929739 0.445923
vt 0.934133 0.042161
vt 0.535909 0.696370
vt 0.963680 0.333126
vt 0.956223 0.338895
vt 0.958441 0.326778
vt 0.916361 0.206320
vt 0.913171 0.200508
vt 0.925411 0.198763
vt 0.950360 0.381894
vt 0.954948 0.367864
vt 0.955361 0.383809
vt 0.937278 0.769355
vt 0.926301 0.774769
vt 0.920422 0.764079
vt 0.925986 0.426849
vt 0.920621 0.434298
vt 0.918937 0.425616
vt 0.935554 0.158338
vt 0.934665 0.167428
vt 0.928159 0.165724
vt 0.929360 0.807995
vt 0.939375 0.809815
vt 0.939574 0.822083
vt 0.765803 0.155362
vt 0.765803 0.154652
vt 0.765092 0.154652
vt 0.964695 0.391907
vt 0.966095 0.384566
vt 0.970812 0.382237
vt 0.950288 0.110410
vt 0.443722 0.774877
vt 0.439832 0.767841
vt 0.444587 0.762553
vt 0.765803 0.150036
vt 0.765803 0.149325
vt 0.765092 0.149325
vt 0.884549 0.822323
vt 0.878430 0.813797
vt 0.949714 0.800168
vt 0.908493 0.827700
vt 0.907562 0.830452
vt 0.894722 0.820473
vt 0.974220 0.360585
vt 0.965750 0.352692
vt 0.971723 0.353640
vt 0.919402 0.146060
vt 0.911666 0.137375
vt 0.924556 0.123896
vt 0.930979 0.838447
vt 0.932314 0.848532
vt 0.924179 0.848317
vt 0.868390 0.691133
vt 0.861446 0.695894
vt 0.863508 0.687059
vt 0.944644 0.198154
vt 0.953339 0.196916
vt 0.896434 0.812517
vt 0.901948 0.815821
vt 0.919860 0.381901
vt 0.927149 0.384174
vt 0.912833 0.387321
vt 0.702636 0.206779
vt 0.696956 0.199118
vt 0.704823 0.199731
vt 0.438426 0.759790
vt 0.435575 0.753009
vt 0.448975 0.757890
vt 0.918172 0.828586
vt 0.923982 0.814299
vt 0.940420 0.181491
vt 0.922563 0.172711
vt 0.921311 0.167844
vt 0.953769 0.179533
vt 0.489677 0.029295
vt 0.490881 0.037548
vt 0.489890 0.038235
vt 0.682996 0.217834
vt 0.682284 0.213264
vt 0.694488 0.225339
vt 0.263259 0.126953
vt 0.265658 0.115279
vt 0.269884 0.117796
vt 0.919074 0.449696
vt 0.929801 0.142936
vt 0.935497 0.133919
vt 0.941980 0.842792
vt 0.950737 0.834190
vt 0.950036 0.837885
vt 0.764027 0.164240
vt 0.764027 0.164950
vt 0.764737 0.164950
vt 0.038001 0.612012
vt 0.699677 0.230124
vt 0.694419 0.220453
vt 0.697356 0.214093
vt 0.930503 0.383008
vt 0.907202 0.104149
vt 0.954221 0.790360
vt 0.957494 0.796470
vt 0.951695 0.331295
vt 0.905234 0.209355
vt 0.900235 0.216736
vt 0.893367 0.212156
vt 0.764027 0.155362
vt 0.764027 0.156072
vt 0.764737 0.156072
vt 0.943393 0.162012
vt 0.938382 0.167540
vt 0.567219 0.770773
vt 0.574183 0.765764
vt 0.572504 0.775273
vt 0.698149 0.941770
vt 0.691910 0.942354
vt 0.698677 0.935664
vt 0.247959 0.633407
vt 0.899013 0.755518
vt 0.898251 0.747920
vt 0.907820 0.751388
vt 0.699902 0.035297
vt 0.696273 0.043754
vt 0.694225 0.033704
vt 0.856607 0.215682
vt 0.867145 0.214566
vt 0.866929 0.218044
vt 0.932655 0.144856
vt 0.978975 0.440548
vt 0.977767 0.439686
vt 0.978967 0.438733
vt 0.976344 0.438646
vt 0.927491 0.390393
vt 0.932266 0.386225
vt 0.900457 0.220581
vt 0.537876 0.697739
vt 0.544345 0.688498
vt 0.941103 0.156152
vt 0.764737 0.148260
vt 0.764737 0.147550
vt 0.764027 0.147550
vt 0.923813 0.088157
vt 0.427594 0.755480
vt 0.895429 0.760974
vt 0.902808 0.777716
vt 0.890646 0.764902
vt 0.878967 0.222612
vt 0.862237 0.779189
vt 0.862370 0.778344
vt 0.863656 0.780123
vt 0.595255 0.784616
vt 0.591754 0.780159
vt 0.608067 0.776370
vt 0.898851 0.804298
vt 0.893121 0.797562
vt 0.898754 0.797612
vt 0.673796 0.249497
vt 0.678321 0.253112
vt 0.670603 0.256333
vt 0.540707 0.683866
vt 0.954418 0.315366
vt 0.949380 0.313536
vt 0.947126 0.308739
vt 0.762962 0.160689
vt 0.762962 0.161399
vt 0.763672 0.161399
vt 0.935882 0.036987
vt 0.952262 0.029617
vt 0.694070 0.253383
vt 0.688997 0.249046
vt 0.693424 0.248947
vt 0.000517 0.742609
vt 0.002305 0.733442
vt 0.009106 0.738888
vt 0.918055 0.760821
vt 0.923955 0.754024
vt 0.921877 0.458326
vt 0.259057 0.967862
vt 0.253838 0.960180
vt 0.253174 0.960983
vt 0.937047 0.142438
vt 0.941472 0.145577
vt 0.906718 0.169565
vt 0.928152 0.430886
vt 0.926499 0.439996
vt 0.667878 0.267574
vt 0.672151 0.266342
vt 0.673374 0.273436
vt 0.887683 0.806400
vt 0.763672 0.150036
vt 0.763672 0.149325
vt 0.762962 0.149325
vt 0.922948 0.046942
vt 0.763672 0.146484
vt 0.763672 0.145774
vt 0.762962 0.145774
vt 0.908896 0.783844
vt 0.906240 0.792111
vt 0.761896 0.169567
vt 0.761896 0.170277
vt 0.762607 0.170277
vt 0.975541 0.435842
vt 0.879031 0.765115
vt 0.507488 0.324043
vt 0.512508 0.331180
vt 0.505527 0.323322
vt 0.969313 0.041562
vt 0.968523 0.042361
vt 0.956746 0.850391
vt 0.954343 0.856766
vt 0.951515 0.860831
vt 0.880498 0.783682
vt 0.875850 0.777064
vt 0.881121 0.771684
vt 0.300596 0.179349
vt 0.539014 0.710858
vt 0.539287 0.705238
vt 0.544666 0.703445
vt 0.761896 0.157138
vt 0.761896 0.157848
vt 0.762607 0.157848
vt 0.937835 0.853363
vt 0.946066 0.865842
vt 0.927472 0.169654
vt 0.919263 0.156204
vt 0.922208 0.158294
vt 0.925061 0.780602
vt 0.872912 0.684542
vt 0.762607 0.151811
vt 0.762607 0.151101
vt 0.761896 0.151101
vt 0.960743 0.045127
vt 0.963992 0.048404
vt 0.867536 0.797111
vt 0.872288 0.807033
vt 0.859751 0.800298
vt 0.867986 0.807927
vt 0.975145 0.434873
vt 0.762607 0.146484
vt 0.762607 0.145774
vt 0.761896 0.145774
vt 0.805740 0.941122
vt 0.886997 0.819718
vt 0.886880 0.822586
vt 0.888411 0.819442
vt 0.010944 0.672675
vt 0.025039 0.693602
vt 0.021064 0.689262
vt 0.013983 0.669962
vt 0.020665 0.680230
vt 0.962160 0.071292
vt 0.970881 0.080295
vt 0.909968 0.813206
vt 0.891677 0.777794
vt 0.885614 0.824043
vt 0.885547 0.821856
vt 0.016211 0.667661
vt 0.018034 0.668241
vt 0.017542 0.669901
vt 0.938887 0.870519
vt 0.924569 0.837471
vt 0.913624 0.839650
vt 0.922454 0.829444
vt 0.863182 0.775209
vt 0.864026 0.774846
vt 0.865610 0.777131
vt 0.864865 0.774270
vt 0.888604 0.822159
vt 0.968056 0.040157
vt 0.867043 0.699649
vt 0.226156 0.078292
vt 0.229276 0.089531
vt 0.217840 0.087475
vt 0.881800 0.760018
vt 0.880489 0.754573
vt 0.902481 0.786456
vt 0.010670 0.751671
vt 0.007143 0.749700
vt 0.003498 0.747016
vt 0.968341 0.734913
vt 0.956181 0.719617
vt 0.972894 0.739230
vt 0.887073 0.231677
vt 0.884523 0.231979
vt 0.886090 0.227430
vt 0.954857 0.074546
vt 0.952893 0.064237
vt 0.702098 0.261863
vt 0.034265 0.737931
vt 0.024179 0.732388
vt 0.035484 0.730189
vt 0.931501 0.837088
vt 0.889498 0.222709
vt 0.973959 0.085446
vt 0.283149 0.177917
vt 0.280553 0.181603
vt 0.286035 0.162062
vt 0.863860 0.777124
vt 0.862479 0.776842
vt 0.864454 0.778859
vt 0.888393 0.824192
vt 0.955658 0.035337
vt 0.760831 0.148260
vt 0.760831 0.148970
vt 0.761541 0.148970
vt 0.761541 0.148260
vt 0.761541 0.147550
vt 0.760831 0.147550
vt 0.760831 0.146484
vt 0.760831 0.147195
vt 0.761541 0.147195
vt 0.042136 0.732592
vt 0.869883 0.770895
vt 0.960111 0.027194
vt 0.956467 0.025415
vt 0.043766 0.736924
vt 0.678785 0.256409
vt 0.685709 0.260122
vt 0.676072 0.262861
vt 0.960376 0.343813
vt 0.708752 0.180380
vt 0.714856 0.189238
vt 0.706909 0.197085
vt 0.954194 0.810798
vt 0.760476 0.166016
vt 0.760476 0.165305
vt 0.759766 0.165305
vt 0.925427 0.341151
vt 0.933999 0.340654
vt 0.932089 0.344415
vt 0.264181 0.553037
vt 0.253919 0.557527
vt 0.251800 0.553455
vt 0.759766 0.164240
vt 0.759766 0.164950
vt 0.760476 0.164950
vt 0.578137 0.774407
vt 0.977196 0.350061
vt 0.982952 0.355698
vt 0.929712 0.793658
vt 0.914403 0.794502
vt 0.927684 0.788301
vt 0.913529 0.780640
vt 0.908602 0.774871
vt 0.589461 0.747851
vt 0.589361 0.739106
vt 0.592734 0.741226
vt 0.904694 0.193902
vt 0.908202 0.190093
vt 0.954389 0.048688
vt 0.962702 0.056125
vt 0.949180 0.391827
vt 0.892915 0.199602
vt 0.892763 0.190094
vt 0.935364 0.430494
vt 0.927216 0.414280
vt 0.928195 0.419165
vt 0.955355 0.835397
vt 0.933276 0.218403
vt 0.934354 0.206271
vt 0.944974 0.205487
vt 0.836558 0.405431
vt 0.833159 0.417347
vt 0.833125 0.407346
vt 0.906853 0.759238
vt 0.901177 0.766946
vt 0.297908 0.989428
vt 0.305170 0.994763
vt 0.300838 0.996830
vt 0.952409 0.829198
vt 0.961987 0.830582
vt 0.941086 0.390002
vt 0.983382 0.345396
vt 0.760476 0.160689
vt 0.760476 0.159979
vt 0.759766 0.159979
vt 0.960990 0.379030
vt 0.887527 0.763080
vt 0.881439 0.762726
vt 0.023650 0.696948
vt 0.017997 0.696920
vt 0.021186 0.692708
vt 0.933997 0.187043
vt 0.897024 0.201354
vt 0.879986 0.800782
vt 0.931437 0.192696
vt 0.892372 0.221004
vt 0.980571 0.389975
vt 0.976672 0.396653
vt 0.976453 0.388798
vt 0.760476 0.155362
vt 0.760476 0.154652
vt 0.759766 0.154652
vt 0.960881 0.193959
vt 0.924249 0.804094
vt 0.872761 0.783579
vt 0.871534 0.800721
vt 0.849312 0.389455
vt 0.846671 0.382455
vt 0.862942 0.391565
vt 0.233787 0.041159
vt 0.233549 0.033809
vt 0.241012 0.031404
vt 0.759766 0.151811
vt 0.759766 0.152521
vt 0.760476 0.152521
vt 0.760476 0.151811
vt 0.760476 0.151101
vt 0.759766 0.151101
vt 0.759766 0.150036
vt 0.759766 0.150746
vt 0.760476 0.150746
vt 0.270389 0.399878
vt 0.269147 0.399990
vt 0.268476 0.398701
vt 0.267704 0.400543
vt 0.959951 0.774895
vt 0.965907 0.771058
vt 0.964377 0.778034
vt 0.974861 0.393534
vt 0.378200 0.537020
vt 0.368413 0.539871
vt 0.363471 0.537191
vt 0.866210 0.769272
vt 0.864881 0.766146
vt 0.967568 0.367958
vt 0.967000 0.375732
vt 0.959929 0.374193
vt 0.932051 0.077079
vt 0.937884 0.077885
vt 0.873138 0.111149
vt 0.863987 0.122840
vt 0.874928 0.103870
vt 0.877367 0.685357
vt 0.937452 0.177568
vt 0.966939 0.397357
vt 0.912861 0.421781
vt 0.915700 0.417503
vt 0.759411 0.169567
vt 0.759411 0.168857
vt 0.758700 0.168857
vt 0.029195 0.689482
vt 0.024788 0.682498
vt 0.034500 0.679101
vt 0.759411 0.162464
vt 0.759411 0.161754
vt 0.758700 0.161754
vt 0.758700 0.160689
vt 0.758700 0.161399
vt 0.759411 0.161399
vt 0.944099 0.820467
vt 0.941588 0.426341
vt 0.967956 0.170955
vt 0.965371 0.158327
vt 0.978444 0.164928
vt 0.759411 0.158913
vt 0.759411 0.158203
vt 0.758700 0.158203
vt 0.668317 0.258220
vt 0.658811 0.262434
vt 0.663020 0.251922
vt 0.659183 0.253672
vt 0.682837 0.668669
vt 0.688960 0.674570
vt 0.677562 0.679341
vt 0.904265 0.833211
vt 0.252474 0.122053
vt 0.258161 0.114786
vt 0.698373 0.238085
vt 0.693260 0.233723
vt 0.896239 0.146736
vt 0.759411 0.151811
vt 0.759411 0.151101
vt 0.758700 0.151101
vt 0.521330 0.330657
vt 0.553913 0.627362
vt 0.790299 0.015672
vt 0.798672 0.024403
vt 0.797659 0.026568
vt 0.987863 0.379284
vt 0.978039 0.382045
vt 0.974323 0.378271
vt 0.931465 0.424435
vt 0.948134 0.849528
vt 0.913875 0.806140
vt 0.289668 0.993300
vt 0.293195 0.991621
vt 0.962291 0.032480
vt 0.963393 0.037791
vt 0.684708 0.269450
vt 0.681942 0.270979
vt 0.914827 0.224463
vt 0.915425 0.213702
vt 0.921056 0.216662
vt 0.884619 0.824461
vt 0.878891 0.230093
vt 0.882609 0.238069
vt 0.874682 0.239714
vt 0.957440 0.162165
vt 0.924491 0.208429
vt 0.953435 0.846757
vt 0.663858 0.683428
vt 0.661961 0.679519
vt 0.668303 0.684652
vt 0.758345 0.164240
vt 0.758345 0.163530
vt 0.757635 0.163530
vt 0.687203 0.242261
vt 0.870874 0.771026
vt 0.871228 0.772443
vt 0.869868 0.773957
vt 0.532807 0.691662
vt 0.934401 0.834188
vt 0.934159 0.837595
vt 0.941492 0.145092
vt 0.947469 0.152223
vt 0.903952 0.773565
vt 0.953888 0.170725
vt 0.966845 0.175650
vt 0.039373 0.743682
vt 0.757635 0.153587
vt 0.757635 0.154297
vt 0.758345 0.154297
vt 0.918579 0.197630
vt 0.934409 0.384331
vt 0.934928 0.377436
vt 0.905340 0.839945
vt 0.899532 0.838786
vt 0.930598 0.113063
vt 0.930741 0.109947
vt 0.937852 0.113053
vt 0.911584 0.786306
vt 0.941810 0.829909
vt 0.012211 0.603984
vt 0.000460 0.591691
vt 0.010342 0.591958
vt 0.703259 0.022914
vt 0.707668 0.023715
vt 0.708079 0.030589
vt 0.692219 0.236767
vt 0.757635 0.146484
vt 0.757635 0.147195
vt 0.758345 0.147195
vt 0.665861 0.229319
vt 0.675582 0.227323
vt 0.671016 0.233604
vt 0.953939 0.349443
vt 0.756570 0.169567
vt 0.756570 0.170277
vt 0.757280 0.170277
vt 0.957060 0.395506
vt 0.681082 0.239190
vt 0.863236 0.769900
vt 0.864025 0.768966
vt 0.864876 0.770742
vt 0.864572 0.767757
vt 0.576907 0.748303
vt 0.577215 0.740756
vt 0.946825 0.048908
vt 0.756570 0.157138
vt 0.756570 0.157848
vt 0.757280 0.157848
vt 0.757280 0.157138
vt 0.757280 0.156428
vt 0.756570 0.156428
vt 0.933052 0.350312
vt 0.286435 0.985578
vt 0.935407 0.058252
vt 0.933406 0.051701
vt 0.912625 0.842143
vt 0.310558 0.986890
vt 0.756570 0.151811
vt 0.756570 0.152521
vt 0.757280 0.152521
vt 0.982243 0.382445
vt 0.858090 0.215294
vt 0.546885 0.696835
vt 0.917467 0.188589
vt 0.756570 0.146484
vt 0.756570 0.147195
vt 0.757280 0.147195
vt 0.960285 0.134877
vt 0.951354 0.870760
vt 0.943003 0.138601
vt 0.952149 0.128261
vt 0.917875 0.112541
vt 0.922456 0.115627
vt 0.222523 0.214883
vt 0.228858 0.205549
vt 0.227314 0.217403
vt 0.289741 0.980126
vt 0.889929 0.105659
vt 0.875070 0.098845
vt 0.881288 0.091570
vt 0.893409 0.228186
vt 0.899120 0.224146
vt 0.876605 0.211306
vt 0.866923 0.762184
vt 0.756214 0.157138
vt 0.756214 0.156428
vt 0.755504 0.156428
vt 0.755504 0.155362
vt 0.755504 0.156072
vt 0.756214 0.156072
vt 0.755504 0.151811
vt 0.755504 0.152521
vt 0.756214 0.152521
vt 0.691705 0.238738
vt 0.841708 0.552236
vt 0.839952 0.544128
vt 0.844911 0.543526
vt 0.755504 0.150036
vt 0.755504 0.150746
vt 0.756214 0.150746
vt 0.756214 0.150036
vt 0.756214 0.149325
vt 0.755504 0.149325
vt 0.534484 0.708370
vt 0.960144 0.110561
vt 0.956196 0.109812
vt 0.755504 0.146484
vt 0.755504 0.147195
vt 0.756214 0.147195
vt 0.016883 0.745810
vt 0.881825 0.226885
vt 0.953153 0.328307
vt 0.754439 0.166016
vt 0.754439 0.166726
vt 0.755149 0.166726
vt 0.890548 0.830201
vt 0.754439 0.160689
vt 0.754439 0.161399
vt 0.755149 0.161399
vt 0.958019 0.267991
vt 0.954057 0.260202
vt 0.955302 0.256745
vt 0.869760 0.775318
vt 0.869938 0.774972
vt 0.856641 0.796819
vt 0.860909 0.792094
vt 0.754439 0.157138
vt 0.754439 0.157848
vt 0.755149 0.157848
vt 0.755149 0.157138
vt 0.755149 0.156428
vt 0.754439 0.156428
vt 0.865211 0.809549
vt 0.762019 0.754919
vt 0.766744 0.748547
vt 0.769750 0.761753
vt 0.886290 0.196328
vt 0.942032 0.068979
vt 0.955247 0.107428
vt 0.755149 0.150036
vt 0.755149 0.149325
vt 0.754439 0.149325
vt 0.754439 0.146484
vt 0.754439 0.147195
vt 0.755149 0.147195
vt 0.318511 0.994820
vt 0.923589 0.057467
vt 0.753374 0.166016
vt 0.753374 0.166726
vt 0.754084 0.166726
vt 0.753374 0.162464
vt 0.753374 0.163175
vt 0.754084 0.163175
vt 0.910643 0.112684
vt 0.754084 0.160689
vt 0.754084 0.159979
vt 0.753374 0.159979
vt 0.754084 0.158913
vt 0.754084 0.158203
vt 0.753374 0.158203
vt 0.754084 0.157138
vt 0.754084 0.156428
vt 0.753374 0.156428
vt 0.753374 0.151811
vt 0.753374 0.152521
vt 0.754084 0.152521
vt 0.959147 0.075373
vt 0.964756 0.038023
vt 0.754084 0.151811
vt 0.754084 0.151101
vt 0.753374 0.151101
vt 0.861689 0.773253
vt 0.843367 0.416376
vt 0.842564 0.417262
vt 0.839131 0.416193
vt 0.930225 0.036804
vt 0.923063 0.422846
vt 0.543123 0.735238
vt 0.533470 0.737068
vt 0.535668 0.732733
vt 0.381265 0.542488
vt 0.304635 0.979005
vt 0.299721 0.971741
vt 0.302022 0.966984
vt 0.932542 0.096242
vt 0.871938 0.225503
vt 0.869222 0.227408
vt 0.372203 0.361158
vt 0.361923 0.347647
vt 0.360074 0.342571
vt 0.953381 0.816748
vt 0.961362 0.806258
vt 0.913970 0.208756
vt 0.968982 0.375664
vt 0.920501 0.343089
vt 0.381492 0.353283
vt 0.369373 0.346635
vt 0.377507 0.340317
vt 0.956878 0.839312
vt 0.802746 0.527328
vt 0.801978 0.528777
vt 0.800955 0.527535
vt 0.013673 0.687248
vt 0.010069 0.688090
vt 0.703145 0.948310
vt 0.752308 0.151811
vt 0.752308 0.152521
vt 0.753018 0.152521
vt 0.917262 0.774100
vt 0.988180 0.369546
vt 0.980269 0.372069
vt 0.245803 0.027763
vt 0.661850 0.671312
vt 0.678081 0.682522
vt 0.670109 0.671368
vt 0.886792 0.740355
vt 0.888395 0.755889
vt 0.882294 0.747876
vt 0.751953 0.169567
vt 0.751953 0.168857
vt 0.751243 0.168857
vt 0.944559 0.787841
vt 0.599059 0.772737
vt 0.227399 0.028454
vt 0.836453 0.399838
vt 0.844896 0.407192
vt 0.751243 0.162464
vt 0.751243 0.163175
vt 0.751953 0.163175
vt 0.975421 0.172757
vt 0.893195 0.143394
vt 0.897592 0.138880
vt 0.751953 0.162464
vt 0.751953 0.161754
vt 0.751243 0.161754
vt 0.751953 0.160689
vt 0.751953 0.159979
vt 0.751243 0.159979
vt 0.973201 0.367092
vt 0.971865 0.372211
vt 0.960860 0.404231
vt 0.906901 0.227063
vt 0.484318 0.144332
vt 0.483232 0.141781
vt 0.487291 0.135931
vt 0.706466 0.947692
vt 0.698452 0.189304
vt 0.925566 0.830298
vt 0.363690 0.343292
vt 0.934044 0.366452
vt 0.883956 0.788953
vt 0.928011 0.065333
vt 0.924360 0.063571
vt 0.944098 0.168765
vt 0.371574 0.339149
vt 0.366216 0.340801
vt 0.969723 0.076756
vt 0.970771 0.078897
vt 0.751243 0.146484
vt 0.751243 0.147195
vt 0.751953 0.147195
vt 0.959358 0.845506
vt 0.700391 0.211448
vt 0.901409 0.162373
vt 0.738892 0.910794
vt 0.738266 0.906955
vt 0.741046 0.907983
vt 0.935985 0.070940
vt 0.750888 0.160689
vt 0.750888 0.159979
vt 0.750178 0.159979
vt 0.005602 0.588677
vt 0.003283 0.585829
vt 0.750888 0.155362
vt 0.750888 0.154652
vt 0.750178 0.154652
vt 0.550487 0.701459
vt 0.547347 0.695746
vt 0.857899 0.223443
vt 0.974875 0.343881
vt 0.890835 0.828968
vt 0.302006 0.984361
vt 0.310149 0.982585
vt 0.861595 0.770327
vt 0.863258 0.772527
vt 0.872577 0.191193
vt 0.749112 0.169567
vt 0.749112 0.170277
vt 0.749822 0.170277
vt 0.749112 0.167791
vt 0.749112 0.168501
vt 0.749822 0.168501
vt 0.009283 0.735687
vt 0.009965 0.735390
vt 0.010890 0.737612
vt 0.005018 0.725358
vt 0.918557 0.859113
vt 0.371151 0.529620
vt 0.975484 0.045289
vt 0.749112 0.157138
vt 0.749112 0.157848
vt 0.749822 0.157848
vt 0.749822 0.157138
vt 0.749822 0.156428
vt 0.749112 0.156428
vt 0.749112 0.155362
vt 0.749112 0.156072
vt 0.749822 0.156072
vt 0.687275 0.667870
vt 0.696276 0.668945
vt 0.867757 0.773307
vt 0.864777 0.772243
vt 0.255742 0.968442
vt 0.986819 0.345332
vt 0.749822 0.146484
vt 0.749822 0.145774
vt 0.749112 0.145774
vt 0.691295 0.236347
vt 0.578103 0.033238
vt 0.587347 0.025355
vt 0.749822 0.144709
vt 0.749822 0.143999
vt 0.749112 0.143999
vt 0.748757 0.164240
vt 0.748757 0.163530
vt 0.748047 0.163530
vt 0.748047 0.160689
vt 0.748047 0.161399
vt 0.748757 0.161399
vt 0.023031 0.724127
vt 0.295164 0.983626
vt 0.292352 0.980038
vt 0.969735 0.062061
vt 0.968061 0.065155
vt 0.748047 0.155362
vt 0.748047 0.156072
vt 0.748757 0.156072
vt 0.977063 0.436180
vt 0.689079 0.258036
vt 0.919332 0.118087
vt 0.748047 0.144709
vt 0.748047 0.145419
vt 0.748757 0.145419
vt 0.305353 0.999621
vt 0.746982 0.164240
vt 0.746982 0.164950
vt 0.747692 0.164950
vt 0.563435 0.013115
vt 0.747692 0.158913
vt 0.747692 0.158203
vt 0.746982 0.158203
vt 0.915372 0.055712
vt 0.906665 0.063687
vt 0.915607 0.052733
vt 0.747692 0.153587
vt 0.747692 0.152876
vt 0.746982 0.152876
vt 0.858242 0.214481
vt 0.858868 0.214802
vt 0.285823 0.172226
vt 0.746626 0.164240
vt 0.746626 0.163530
vt 0.745916 0.163530
vt 0.974082 0.445676
vt 0.723230 0.179634
vt 0.696267 0.920773
vt 0.686965 0.925924
vt 0.684462 0.918798
vt 0.680240 0.926678
vt 0.708641 0.005996
vt 0.710997 0.015495
vt 0.707261 0.011825
vt 0.746626 0.153587
vt 0.746626 0.152876
vt 0.745916 0.152876
vt 0.293461 0.300724
vt 0.290434 0.300022
vt 0.288759 0.295375
vt 0.936764 0.359682
vt 0.370364 0.528376
vt 0.969505 0.402941
vt 0.959933 0.810311
vt 0.684799 0.678592
vt 0.000851 0.666047
vt 0.000437 0.658755
vt 0.005040 0.665221
vt 0.929149 0.868808
vt 0.927199 0.868968
vt 0.935296 0.872154
vt 0.744851 0.148260
vt 0.744851 0.148970
vt 0.745561 0.148970
vt 0.905411 0.811639
vt 0.744851 0.146484
vt 0.744851 0.147195
vt 0.745561 0.147195
vt 0.550090 0.009162
vt 0.560320 0.024238
vt 0.039288 0.617317
vt 0.973033 0.083224
vt 0.973300 0.082886
vt 0.742365 0.167791
vt 0.742365 0.167081
vt 0.741655 0.167081
vt 0.741655 0.166016
vt 0.741655 0.166726
vt 0.742365 0.166726
vt 0.742365 0.166016
vt 0.742365 0.165305
vt 0.741655 0.165305
vt 0.972352 0.083520
vt 0.971191 0.081601
vt 0.741655 0.164240
vt 0.741655 0.164950
vt 0.742365 0.164950
vt 0.969728 0.075491
vt 0.931425 0.871048
vt 0.970393 0.074510
vt 0.849615 0.395168
vt 0.357564 0.527393
vt 0.364327 0.519527
vt 0.923041 0.396725
vt 0.932250 0.397017
vt 0.926636 0.407679
vt 0.908087 0.160155
vt 0.909203 0.164144
vt 0.865283 0.779326
vt 0.882421 0.677671
vt 0.881641 0.680605
vt 0.875066 0.676485
vt 0.295186 0.974585
vt 0.741655 0.158913
vt 0.741655 0.159624
vt 0.742365 0.159624
vt 0.911745 0.146538
vt 0.511679 0.335156
vt 0.919343 0.055596
vt 0.229582 0.518600
vt 0.235231 0.505352
vt 0.234119 0.508576
vt 0.299990 0.164660
vt 0.300573 0.167811
vt 0.299381 0.165175
vt 0.733457 0.672072
vt 0.732873 0.668921
vt 0.735002 0.672731
vt 0.736361 0.672997
vt 0.742365 0.158913
vt 0.742365 0.158203
vt 0.741655 0.158203
vt 0.741655 0.157138
vt 0.741655 0.157848
vt 0.742365 0.157848
vt 0.742365 0.157138
vt 0.742365 0.156428
vt 0.741655 0.156428
vt 0.741655 0.155362
vt 0.741655 0.156072
vt 0.742365 0.156072
vt 0.298661 0.166634
vt 0.017491 0.592883
vt 0.020197 0.594407
vt 0.734417 0.669526
vt 0.735200 0.670962
vt 0.741300 0.169567
vt 0.741300 0.168857
vt 0.740589 0.168857
vt 0.740589 0.153587
vt 0.740589 0.154297
vt 0.741300 0.154297
vt 0.259039 0.547927
vt 0.367104 0.361137
vt 0.915345 0.122770
vt 0.918143 0.125950
vt 0.925167 0.214345
vt 0.740589 0.144709
vt 0.740589 0.145419
vt 0.741300 0.145419
vt 0.248675 0.961316
vt 0.529662 0.342098
vt 0.978454 0.182780
vt 0.928653 0.173063
vt 0.842118 0.412266
vt 0.739524 0.169567
vt 0.739524 0.170277
vt 0.740234 0.170277
vt 0.487051 0.032990
vt 0.583544 0.736206
vt 0.739524 0.167791
vt 0.739524 0.168501
vt 0.740234 0.168501
vt 0.740234 0.167791
vt 0.740234 0.167081
vt 0.739524 0.167081
vt 0.018014 0.725437
vt 0.017225 0.734235
vt 0.739524 0.166016
vt 0.739524 0.166726
vt 0.740234 0.166726
vt 0.271934 0.400536
vt 0.267654 0.401413
vt 0.740234 0.166016
vt 0.740234 0.165305
vt 0.739524 0.165305
vt 0.021811 0.615777
vt 0.686015 0.224743
vt 0.783584 0.124826
vt 0.780725 0.122708
vt 0.783711 0.120745
vt 0.786307 0.131835
vt 0.257429 0.123715
vt 0.299793 0.176296
vt 0.685972 0.232637
vt 0.760910 0.989593
vt 0.315588 0.970306
vt 0.317153 0.974156
vt 0.987877 0.383326
vt 0.314570 0.984875
vt 0.537957 0.635142
vt 0.564537 0.762463
vt 0.264338 0.112542
vt 0.702994 0.926244
vt 0.693422 0.009516
vt 0.696136 0.013325
vt 0.890963 0.847988
vt 0.885389 0.850219
vt 0.889135 0.843584
vt 0.944757 0.345379
vt 0.946230 0.829628
vt 0.972911 0.350346
vt 0.971163 0.345570
vt 0.739169 0.146484
vt 0.739169 0.145774
vt 0.738459 0.145774
vt 0.579156 0.767900
vt 0.268321 0.651254
vt 0.268657 0.656312
vt 0.263977 0.665952
vt 0.222855 0.098792
vt 0.738459 0.144709
vt 0.738459 0.145419
vt 0.739169 0.145419
vt 0.295667 0.293551
vt 0.293733 0.299638
vt 0.930863 0.760449
vt 0.658835 0.270381
vt 0.661630 0.268768
vt 0.739169 0.144709
vt 0.739169 0.143999
vt 0.738459 0.143999
vt 0.732025 0.669883
vt 0.731544 0.670895
vt 0.737393 0.169567
vt 0.737393 0.170277
vt 0.738104 0.170277
vt 0.738104 0.169567
vt 0.738104 0.168857
vt 0.737393 0.168857
vt 0.969854 0.431776
vt 0.972172 0.433510
vt 0.970733 0.432254
vt 0.971927 0.432617
vt 0.737393 0.167791
vt 0.737393 0.168501
vt 0.738104 0.168501
vt 0.866166 0.769832
vt 0.866444 0.771649
vt 0.867829 0.771661
vt 0.842364 0.413456
vt 0.841673 0.414841
vt 0.738104 0.167791
vt 0.738104 0.167081
vt 0.737393 0.167081
vt 0.599085 0.942806
vt 0.597820 0.941621
vt 0.600346 0.939756
vt 0.737393 0.166016
vt 0.737393 0.166726
vt 0.738104 0.166726
vt 0.966531 0.436812
vt 0.738104 0.166016
vt 0.738104 0.165305
vt 0.737393 0.165305
vt 0.940549 0.339989
vt 0.865140 0.678543
vt 0.886487 0.787989
vt 0.890428 0.792134
vt 0.699049 0.020837
vt 0.926453 0.391377
vt 0.737393 0.162464
vt 0.737393 0.163175
vt 0.738104 0.163175
vt 0.759986 0.993671
vt 0.001461 0.671918
vt 0.737393 0.158913
vt 0.737393 0.159624
vt 0.738104 0.159624
vt 0.888578 0.828007
vt 0.554731 0.007471
vt 0.738104 0.155362
vt 0.738104 0.154652
vt 0.737393 0.154652
vt 0.924319 0.867959
vt 0.738104 0.151811
vt 0.738104 0.151101
vt 0.737393 0.151101
vt 0.737393 0.150036
vt 0.737393 0.150746
vt 0.738104 0.150746
vt 0.971066 0.076972
vt 0.738104 0.150036
vt 0.738104 0.149325
vt 0.737393 0.149325
vt 0.738104 0.148260
vt 0.738104 0.147550
vt 0.737393 0.147550
vt 0.737393 0.146484
vt 0.737393 0.147195
vt 0.738104 0.147195
vt 0.765803 0.144709
vt 0.765803 0.143999
vt 0.765092 0.143999
vt 0.540282 0.689566
vt 0.544739 0.687925
vt 0.544345 0.688498
vt 0.539287 0.705238
vt 0.537876 0.697739
vt 0.544666 0.703445
vt 0.975871 0.435553
vt 0.975541 0.435842
vt 0.973971 0.435254
vt 0.971535 0.436859
vt 0.967723 0.437046
vt 0.969618 0.436926
vt 0.758345 0.166016
vt 0.758345 0.165305
vt 0.757635 0.165305
vt 0.757635 0.160689
vt 0.757635 0.161399
vt 0.758345 0.161399
vt 0.966531 0.436812
vt 0.968775 0.434951
vt 0.970212 0.434168
vt 0.750178 0.166016
vt 0.750178 0.166726
vt 0.750888 0.166726
vt 0.799522 0.938384
vt 0.801808 0.938379
vt 0.805740 0.941122
vt 0.977063 0.436180
vt 0.965816 0.454689
vt 0.966153 0.454355
vt 0.968454 0.458316
vt 0.253838 0.960180
vt 0.248675 0.961316
vt 0.253174 0.960983
vt 0.741300 0.144709
vt 0.741300 0.143999
vt 0.740589 0.143999
vt 0.737393 0.148260
vt 0.737393 0.148970
vt 0.738104 0.148970
vt 0.764027 0.162464
vt 0.764027 0.163175
vt 0.764737 0.163175
vt 0.757635 0.167791
vt 0.757635 0.168501
vt 0.758345 0.168501
vt 0.758345 0.146484
vt 0.758345 0.145774
vt 0.757635 0.145774
vt 0.751243 0.148260
vt 0.751243 0.148970
vt 0.751953 0.148970
vt 0.013983 0.669962
vt 0.005040 0.665221
vt 0.000437 0.658755
vt 0.737393 0.164240
vt 0.737393 0.164950
vt 0.738104 0.164950
vt 0.765803 0.144709
vt 0.765803 0.143999
vt 0.765092 0.143999
vt 0.540282 0.689566
vt 0.544739 0.687925
vt 0.544345 0.688498
vt 0.539287 0.705238
vt 0.537876 0.697739
vt 0.544666 0.703445
vt 0.975871 0.435553
vt 0.975541 0.435842
vt 0.973971 0.435254
vt 0.971535 0.436859
vt 0.967723 0.437046
vt 0.969618 0.436926
vt 0.758345 0.166016
vt 0.758345 0.165305
vt 0.757635 0.165305
vt 0.757635 0.160689
vt 0.757635 0.161399
vt 0.758345 0.161399
vt 0.966531 0.436812
vt 0.968775 0.434951
vt 0.970212 0.434168
vt 0.750178 0.166016
vt 0.750178 0.166726
vt 0.750888 0.166726
vt 0.799522 0.938384
vt 0.801808 0.938379
vt 0.805740 0.941122
vt 0.977063 0.436180
vt 0.965816 0.454689
vt 0.966153 0.454355
vt 0.968454 0.458316
vt 0.253838 0.960180
vt 0.248675 0.961316
vt 0.253174 0.960983
vt 0.741300 0.144709
vt 0.741300 0.143999
vt 0.740589 0.143999
vt 0.737393 0.148260
vt 0.737393 0.148970
vt 0.738104 0.148970
s 1
f 1/1 2/2 3/3
f 4/4 2/5 1/6
f 5/7 6/8 7/9
f 8/10 2/11 4/12
f 3/13 2/14 9/15
f 10/16 11/17 12/18
f 13/19 14/20 15/21
f 16/22 17/23 18/24
f 19/25 20/26 21/27
f 22/28 23/29 24/30
f 25/31 26/32 27/33
f 28/34 29/35 30/36
f 31/37 32/38 33/39
f 34/40 35/41 36/42
f 37/43 38/44 39/45
f 40/46 41/47 42/48
f 43/49 44/50 45/51
f 46/52 18/24 47/53
f 48/54 49/55 50/56
f 51/57 52/58 53/59
f 53/59 52/58 24/60
f 54/61 55/62 56/63
f 57/64 58/65 59/66
f 60/67 61/68 62/69
f 63/70 64/71 65/72
f 66/73 67/74 68/75
f 62/76 69/77 70/78
f 71/79 72/80 73/81
f 25/82 74/83 75/84
f 76/85 77/86 78/87
f 78/87 77/86 79/88
f 80/89 81/90 82/91
f 83/92 84/93 85/94
f 86/95 87/96 88/97
f 89/98 90/99 91/100
f 92/101 93/102 94/103
f 95/104 96/105 97/106
f 98/107 99/108 100/109
f 101/110 102/111 103/112
f 104/113 105/114 106/115
f 107/116 108/117 109/118
f 110/119 111/120 112/121
f 113/122 114/123 115/124
f 116/125 117/126 89/98
f 118/127 44/50 119/128
f 85/94 120/129 121/130
f 122/131 89/98 123/132
f 123/132 89/98 117/126
f 124/133 125/134 126/135
f 75/136 125/134 43/137
f 127/138 128/139 129/140
f 130/141 131/142 132/143
f 133/144 134/145 135/146
f 16/22 18/24 46/52
f 17/23 136/147 137/148
f 138/149 139/150 140/151
f 141/152 142/153 143/154
f 144/155 145/156 78/157
f 78/158 145/159 76/160
f 146/161 147/162 148/163
f 149/164 150/165 151/166
f 152/167 153/168 154/169
f 155/170 156/171 157/172
f 158/173 159/174 160/175
f 161/176 121/130 162/177
f 163/178 164/179 165/180
f 165/180 164/179 166/181
f 34/182 167/183 13/184
f 168/185 169/186 58/187
f 170/188 171/189 68/190
f 172/191 173/192 174/193
f 65/194 64/195 175/196
f 58/187 144/197 27/198
f 176/199 67/200 177/201
f 172/191 68/202 178/203
f 179/204 180/205 181/206
f 181/206 180/205 182/207
f 53/59 24/60 183/208
f 132/209 131/210 137/148
f 184/211 185/212 186/213
f 187/214 113/215 115/216
f 67/217 55/218 177/219
f 21/27 188/220 189/221
f 190/222 191/223 192/224
f 193/225 194/226 195/227
f 193/228 196/229 197/230
f 198/231 103/112 102/111
f 31/232 62/76 70/78
f 199/233 200/234 201/235
f 202/236 203/237 204/238
f 205/239 206/240 207/241
f 208/242 209/243 210/244
f 211/245 128/246 40/247
f 212/248 213/249 214/250
f 215/251 216/252 217/253
f 218/254 219/255 220/256
f 221/257 222/258 223/259
f 99/108 224/260 100/109
f 225/261 226/262 227/263
f 182/264 34/265 152/266
f 228/267 170/268 174/193
f 30/36 29/35 229/269
f 230/270 231/271 232/272
f 233/273 234/274 235/275
f 236/276 113/277 237/278
f 238/279 239/280 240/281
f 241/282 151/283 242/284
f 243/285 112/121 244/286
f 245/287 246/288 173/192
f 247/289 248/290 249/291
f 240/281 239/280 181/206
f 250/292 93/293 251/294
f 252/295 253/296 254/297
f 255/298 256/299 215/251
f 257/300 258/301 259/302
f 82/91 260/303 80/89
f 177/304 54/305 261/306
f 43/307 262/308 263/309
f 235/310 264/311 265/312
f 196/229 266/313 197/230
f 267/314 236/276 268/315
f 269/316 270/317 271/318
f 272/319 273/320 274/321
f 188/220 20/26 275/322
f 276/323 263/309 219/324
f 219/324 218/325 276/323
f 247/289 277/326 248/290
f 278/327 117/126 116/125
f 279/328 280/329 229/269
f 200/234 157/330 201/235
f 281/331 282/332 283/333
f 101/334 96/335 95/336
f 284/337 285/338 213/249
f 86/339 286/340 287/341
f 288/342 289/343 290/344
f 291/345 68/75 67/74
f 292/346 50/347 293/348
f 294/349 295/350 296/351
f 297/352 298/353 299/354
f 300/355 212/248 267/314
f 301/356 302/357 303/358
f 303/358 302/357 304/359
f 305/360 248/290 306/361
f 281/331 307/362 282/332
f 308/363 70/78 108/364
f 213/249 212/248 309/365
f 157/366 310/367 201/368
f 260/303 112/121 111/120
f 100/109 122/131 268/369
f 253/296 252/295 311/370
f 175/371 312/372 65/373
f 106/115 313/374 104/113
f 314/375 315/376 316/377
f 317/378 318/379 319/380
f 320/381 321/382 322/383
f 323/384 324/385 293/386
f 49/55 323/384 50/56
f 62/76 61/387 69/77
f 325/388 305/389 306/390
f 326/391 327/392 328/393
f 103/112 329/394 330/395
f 93/396 290/397 331/398
f 332/399 298/400 59/401
f 210/244 333/402 334/403
f 266/313 196/229 335/404
f 336/405 259/406 337/407
f 300/355 123/408 338/409
f 339/410 121/130 147/162
f 340/411 341/412 211/245
f 333/413 342/414 334/415
f 343/416 321/382 245/287
f 344/417 59/418 58/419
f 329/394 198/231 146/420
f 14/421 13/422 167/423
f 345/424 346/425 72/80
f 94/426 251/427 92/428
f 78/87 347/429 144/197
f 75/136 43/137 45/430
f 348/431 349/432 350/433
f 351/434 352/435 165/180
f 353/436 354/437 355/438
f 59/439 344/440 356/441
f 357/442 131/142 130/141
f 327/443 358/444 328/445
f 359/446 360/447 220/448
f 190/222 192/224 87/96
f 179/204 361/449 362/450
f 363/451 364/452 365/453
f 317/454 210/244 209/243
f 242/284 318/455 241/282
f 171/456 66/457 68/458
f 366/459 163/178 367/460
f 32/461 291/462 176/463
f 176/463 291/462 368/464
f 322/383 73/81 72/80
f 369/465 76/85 168/185
f 168/466 76/467 145/468
f 174/193 170/268 172/191
f 125/469 75/84 74/83
f 136/147 132/209 137/148
f 140/151 148/163 138/149
f 174/193 370/470 371/471
f 371/471 370/470 372/472
f 373/473 374/474 375/475
f 373/473 376/476 377/477
f 16/22 15/478 378/479
f 256/299 255/298 379/480
f 65/373 380/481 45/430
f 381/482 382/483 371/471
f 371/471 382/483 174/193
f 383/484 143/485 142/486
f 179/204 384/487 180/205
f 180/205 384/487 133/144
f 385/488 386/489 387/490
f 388/491 389/492 390/493
f 390/493 389/492 391/494
f 232/272 142/153 392/495
f 392/495 142/153 141/152
f 166/181 393/496 165/180
f 165/180 393/496 351/434
f 151/283 241/282 394/497
f 395/498 396/499 397/500
f 175/371 64/501 398/502
f 72/80 71/79 399/503
f 27/198 144/197 304/359
f 400/504 401/505 105/506
f 187/507 97/508 113/509
f 402/510 403/511 404/512
f 15/478 405/513 406/514
f 290/397 93/396 407/515
f 194/226 284/337 309/365
f 408/516 409/517 261/518
f 410/519 240/281 385/488
f 404/512 411/520 402/510
f 17/23 412/521 136/147
f 187/522 350/523 413/524
f 388/491 414/525 415/526
f 415/526 414/525 416/527
f 372/472 392/495 371/471
f 371/471 392/495 417/528
f 366/459 171/529 163/178
f 201/530 310/531 44/532
f 44/533 310/534 45/535
f 384/536 418/537 136/538
f 261/518 56/539 408/516
f 419/540 126/135 125/134
f 66/541 330/395 56/542
f 56/539 330/543 408/516
f 420/544 421/545 422/546
f 234/274 88/97 423/547
f 424/548 19/549 425/550
f 229/269 426/551 30/36
f 296/552 295/553 373/554
f 427/555 317/556 428/557
f 429/558 100/559 430/560
f 431/561 432/562 433/563
f 189/564 287/341 286/340
f 233/273 265/565 434/566
f 435/567 394/568 427/569
f 436/570 345/424 437/571
f 438/572 401/573 400/574
f 439/575 440/576 203/237
f 406/514 97/577 36/578
f 205/239 207/241 244/579
f 439/575 438/580 441/581
f 341/412 340/411 442/582
f 443/583 444/584 211/245
f 271/318 270/317 445/585
f 196/586 446/587 335/588
f 447/589 221/590 448/591
f 449/592 333/402 450/593
f 311/594 94/595 331/596
f 445/585 451/597 452/598
f 205/239 244/579 453/599
f 265/565 454/600 434/566
f 455/601 326/602 328/603
f 456/604 207/241 206/240
f 64/501 63/605 310/606
f 457/607 458/608 459/609
f 84/93 83/92 460/610
f 203/237 461/611 439/575
f 321/382 343/416 462/612
f 243/285 463/613 460/610
f 411/520 106/115 464/614
f 465/615 466/616 467/617
f 468/618 152/619 36/620
f 453/621 82/91 81/90
f 469/622 394/568 435/567
f 343/416 172/191 462/612
f 173/192 343/416 245/287
f 292/346 449/592 450/593
f 31/623 470/624 32/461
f 471/625 100/626 224/627
f 29/35 28/34 435/567
f 249/628 81/629 247/630
f 431/631 472/632 473/633
f 473/634 472/635 474/636
f 333/402 449/592 293/348
f 127/637 90/638 41/639
f 252/295 254/297 227/263
f 475/640 476/641 477/642
f 477/642 476/641 478/643
f 113/215 97/577 406/514
f 123/644 117/645 338/646
f 467/617 466/616 479/647
f 216/252 30/36 426/551
f 480/648 395/649 42/650
f 124/133 481/651 482/652
f 287/653 483/654 484/655
f 268/369 237/656 485/657
f 173/192 172/191 343/416
f 206/240 87/96 86/95
f 336/658 257/659 259/660
f 318/455 317/661 394/497
f 356/441 45/430 380/481
f 459/609 458/608 375/475
f 486/662 363/451 213/249
f 479/647 448/663 221/257
f 40/247 42/664 395/665
f 409/666 408/667 455/668
f 137/148 131/210 18/24
f 487/669 488/670 280/671
f 267/314 268/315 123/408
f 295/672 452/673 373/674
f 373/675 452/676 451/677
f 426/551 489/678 216/252
f 180/205 133/144 135/146
f 490/679 193/228 442/582
f 120/129 440/576 121/130
f 306/680 491/681 443/682
f 326/683 71/684 73/685
f 492/686 493/687 494/688
f 494/688 493/687 421/689
f 217/690 495/691 496/692
f 277/326 306/361 248/290
f 497/693 231/271 386/489
f 232/272 22/28 142/153
f 423/694 334/695 264/311
f 498/696 119/697 276/323
f 42/48 41/47 499/698
f 40/699 128/700 41/701
f 364/702 349/432 114/123
f 43/49 263/703 44/50
f 335/704 500/705 266/706
f 225/707 501/708 424/709
f 491/710 490/679 442/582
f 269/316 502/711 361/449
f 194/226 111/120 284/337
f 394/568 503/712 149/164
f 374/474 457/607 459/609
f 498/713 504/714 331/596
f 171/529 170/715 505/716
f 493/717 506/718 422/546
f 507/719 508/720 465/721
f 505/722 170/268 228/267
f 509/723 498/724 276/725
f 206/240 287/653 484/655
f 193/225 490/726 194/226
f 204/238 466/727 202/236
f 502/711 269/316 510/728
f 296/729 511/730 294/731
f 256/299 503/712 469/622
f 136/732 412/733 384/734
f 257/300 83/92 258/301
f 323/384 49/55 289/735
f 119/697 263/309 276/323
f 387/490 255/298 215/251
f 440/576 162/177 121/130
f 512/736 513/737 514/738
f 33/739 62/76 31/232
f 410/519 496/740 515/741
f 516/742 193/225 517/743
f 437/571 518/744 333/402
f 291/462 32/461 470/624
f 519/745 306/680 277/746
f 219/324 263/309 262/308
f 330/543 140/747 408/516
f 119/128 44/50 263/703
f 520/748 319/749 333/750
f 204/238 203/237 521/751
f 453/599 374/752 487/753
f 348/431 114/123 349/432
f 153/754 468/755 497/693
f 41/756 429/757 499/758
f 242/759 346/425 345/424
f 269/316 515/741 522/760
f 434/761 492/762 250/763
f 523/764 524/765 525/766
f 526/767 119/697 498/696
f 527/768 528/769 177/770
f 155/771 529/772 530/773
f 208/774 88/97 192/224
f 411/520 313/374 106/115
f 531/775 532/776 533/777
f 310/606 63/605 65/373
f 479/647 223/259 467/617
f 243/778 244/579 207/241
f 442/582 197/230 341/412
f 23/29 497/693 468/755
f 289/735 49/55 534/779
f 535/780 536/781 537/782
f 537/782 536/781 538/783
f 72/80 346/425 320/381
f 320/381 346/425 150/165
f 312/372 71/79 65/373
f 27/198 304/359 302/357
f 245/287 320/381 246/288
f 284/337 111/120 110/119
f 464/614 106/115 283/333
f 283/784 106/785 401/573
f 101/110 103/112 96/786
f 539/787 540/788 417/789
f 417/790 540/791 371/792
f 541/793 192/224 191/223
f 504/714 498/713 509/794
f 350/795 542/796 101/110
f 386/489 154/797 153/754
f 26/32 25/31 75/136
f 94/595 311/594 543/798
f 218/799 220/800 360/801
f 45/430 310/606 65/373
f 225/707 507/802 501/708
f 355/438 362/450 361/449
f 298/353 297/352 184/803
f 107/804 328/445 308/363
f 521/751 544/805 84/93
f 44/806 199/807 201/808
f 491/710 211/245 444/584
f 148/163 140/151 146/161
f 379/480 149/164 503/712
f 193/225 516/742 196/809
f 418/810 384/487 362/450
f 269/316 522/760 270/317
f 356/441 380/481 59/439
f 346/425 242/759 151/166
f 131/210 99/108 18/24
f 88/97 87/96 192/224
f 516/742 117/811 278/812
f 17/23 16/22 412/521
f 545/813 91/100 159/814
f 360/815 297/816 218/817
f 504/714 509/794 546/818
f 219/819 262/820 220/821
f 547/822 464/614 548/823
f 299/354 298/353 332/824
f 262/825 125/134 482/652
f 549/826 550/827 433/828
f 433/829 550/830 551/831
f 60/832 528/833 61/834
f 552/835 289/735 534/779
f 39/836 357/837 130/838
f 90/99 89/98 429/757
f 105/114 104/113 332/824
f 69/839 527/840 109/841
f 532/842 531/843 376/844
f 553/845 358/444 327/443
f 121/130 161/176 147/162
f 131/210 357/846 554/847
f 255/298 231/271 230/270
f 165/180 352/435 163/178
f 240/281 386/489 385/488
f 105/506 332/399 59/401
f 382/483 381/482 228/267
f 228/848 381/849 166/850
f 59/401 408/516 139/851
f 404/512 403/511 546/852
f 305/389 325/388 249/853
f 394/497 241/282 318/455
f 186/854 555/855 57/856
f 23/29 183/857 24/30
f 274/858 273/859 359/860
f 524/861 556/862 396/863
f 302/357 301/356 27/198
f 27/33 301/864 557/865
f 176/463 60/866 558/867
f 559/868 560/869 474/870
f 474/871 560/872 14/873
f 176/463 368/464 67/874
f 312/372 175/371 518/744
f 150/165 149/164 320/381
f 157/875 200/876 529/877
f 139/150 138/149 400/878
f 405/513 561/879 406/514
f 562/880 99/108 131/210
f 101/881 95/882 350/883
f 239/280 238/279 269/316
f 39/884 38/885 357/886
f 175/371 450/593 518/744
f 94/595 543/798 251/887
f 104/113 299/354 332/824
f 563/888 542/796 350/795
f 26/889 344/890 58/891
f 392/495 141/152 417/528
f 130/892 136/893 418/894
f 116/125 545/813 446/895
f 66/896 56/897 55/898
f 13/899 406/900 35/901
f 529/902 155/903 157/904
f 361/449 179/204 181/206
f 105/506 59/401 139/851
f 35/905 406/906 36/907
f 405/513 564/908 46/52
f 166/181 505/716 228/909
f 39/910 130/911 418/912
f 392/495 372/472 173/192
f 274/913 388/491 415/526
f 414/525 388/491 390/493
f 16/22 46/52 564/908
f 512/736 419/540 125/134
f 126/914 419/915 565/916
f 367/460 36/578 97/577
f 329/394 140/917 330/395
f 440/576 120/129 544/805
f 443/583 211/245 397/918
f 326/919 73/920 327/921
f 480/648 396/922 395/649
f 227/923 254/924 547/925
f 485/657 47/53 566/926
f 80/89 260/303 277/746
f 216/252 489/678 217/253
f 567/927 568/928 104/113
f 293/386 50/56 323/384
f 108/364 107/804 308/363
f 569/929 224/930 562/931
f 489/678 426/551 376/932
f 280/329 488/933 229/269
f 508/720 570/934 465/721
f 483/654 275/935 222/258
f 435/936 428/557 541/793
f 571/937 572/938 37/939
f 452/598 573/940 445/585
f 574/941 575/942 474/943
f 373/473 511/944 296/945
f 333/413 293/386 422/546
f 288/342 324/946 289/343
f 59/947 576/948 408/949
f 437/571 319/950 436/570
f 266/706 500/705 160/175
f 438/580 400/878 441/581
f 226/951 225/707 577/952
f 202/236 466/727 465/721
f 237/278 268/315 236/276
f 81/629 277/953 247/630
f 486/662 112/121 257/300
f 215/251 469/622 435/567
f 224/260 99/108 562/880
f 341/412 197/230 266/313
f 294/731 375/954 525/955
f 525/955 375/954 458/956
f 530/957 156/958 155/959
f 516/960 338/961 117/962
f 279/328 229/269 541/963
f 319/380 318/379 436/964
f 459/609 375/475 374/474
f 453/965 81/629 249/628
f 207/241 456/604 243/778
f 290/397 421/545 420/544
f 521/966 84/967 447/589
f 418/968 578/969 39/970
f 566/926 100/109 268/369
f 443/682 325/971 306/680
f 375/954 294/731 511/730
f 499/698 430/972 569/973
f 71/974 326/975 380/976
f 91/977 129/978 159/979
f 260/303 519/745 277/746
f 189/980 188/981 287/653
f 221/257 463/982 243/778
f 579/983 307/362 508/720
f 373/984 532/985 376/986
f 526/767 498/696 331/398
f 438/572 283/784 401/573
f 420/987 324/946 288/342
f 338/409 309/365 300/355
f 197/230 442/582 193/228
f 465/615 501/708 507/802
f 425/550 251/294 577/988
f 188/220 21/27 20/26
f 580/989 385/488 387/490
f 427/569 394/568 317/454
f 562/931 554/990 569/929
f 292/346 293/348 449/592
f 217/253 387/490 215/251
f 280/991 190/222 487/753
f 553/992 462/612 470/624
f 541/963 29/35 435/567
f 349/993 581/994 350/795
f 582/995 486/662 285/338
f 38/996 554/990 357/997
f 559/998 431/999 378/479
f 378/1000 431/1001 433/1002
f 339/410 85/94 121/130
f 583/1003 510/728 271/318
f 426/551 229/269 488/933
f 82/91 244/286 112/121
f 487/753 205/239 453/599
f 93/293 250/292 407/1004
f 47/53 485/657 46/52
f 493/717 422/546 421/545
f 405/513 46/52 561/879
f 147/162 146/161 563/1005
f 261/1006 54/1007 56/1008
f 113/215 406/514 584/1009
f 342/414 333/413 422/546
f 45/430 26/32 75/136
f 278/812 196/809 516/742
f 441/581 161/176 162/177
f 576/1010 326/1011 455/1012
f 569/973 42/48 499/698
f 256/299 469/622 215/251
f 407/1013 492/762 494/1014
f 31/232 308/363 553/845
f 59/1015 380/1016 576/1017
f 321/382 73/81 322/383
f 328/445 107/804 455/1018
f 455/1018 107/804 409/1019
f 218/1020 568/928 276/725
f 470/624 31/623 553/992
f 306/680 519/745 491/681
f 380/481 65/373 71/79
f 454/600 265/565 493/1021
f 22/28 585/1022 142/153
f 483/654 287/653 188/981
f 252/1023 226/1024 543/798
f 586/1025 535/780 587/1026
f 587/1026 535/780 537/782
f 405/513 15/478 564/908
f 139/150 408/1027 140/151
f 342/414 506/718 334/415
f 91/1028 127/1029 129/1030
f 365/453 212/248 214/250
f 231/271 23/29 22/28
f 367/1031 468/1032 36/1033
f 588/1034 551/1035 412/1036
f 298/400 57/1037 59/401
f 135/146 167/1038 182/207
f 367/460 97/577 366/459
f 291/462 470/624 178/203
f 89/98 91/100 116/125
f 589/1039 480/648 42/650
f 90/99 429/757 41/756
f 146/420 542/796 563/888
f 52/58 51/57 22/1040
f 51/1041 53/1042 590/1043
f 51/1044 383/1045 142/1046
f 143/1047 383/1048 539/1049
f 194/226 490/726 111/120
f 111/120 490/726 491/681
f 495/691 489/1050 376/1051
f 320/381 322/383 72/80
f 591/1052 391/494 592/1053
f 592/1053 391/494 587/1026
f 497/693 23/29 231/271
f 336/405 337/407 363/1054
f 492/1055 434/566 454/600
f 137/148 18/24 17/23
f 485/657 584/1009 561/879
f 177/1056 528/1057 60/1058
f 577/988 424/548 425/550
f 18/24 99/108 47/53
f 552/835 534/779 118/1059
f 358/444 553/845 308/363
f 182/1060 152/167 240/1061
f 35/1062 34/1063 13/1064
f 496/740 410/519 580/989
f 267/314 123/408 300/355
f 408/1065 576/1066 455/1067
f 195/227 194/226 517/743
f 517/743 194/226 309/365
f 517/1068 338/1069 516/1070
f 198/231 542/796 146/420
f 542/796 198/231 102/111
f 183/857 23/29 468/755
f 409/517 527/1071 261/518
f 253/1072 546/818 403/1073
f 152/1074 34/1075 36/578
f 317/454 319/950 210/244
f 532/1076 373/1077 533/1078
f 330/395 66/541 171/529
f 345/424 72/80 399/503
f 330/395 366/459 103/112
f 304/359 144/197 390/1079
f 170/268 68/202 172/191
f 494/1080 290/397 407/515
f 374/474 373/473 377/477
f 158/1081 545/813 159/814
f 95/1082 413/1083 350/1084
f 269/316 361/449 239/280
f 156/958 175/371 398/502
f 124/133 482/652 125/134
f 94/595 93/1085 331/596
f 576/1086 380/1087 326/1088
f 153/168 152/167 468/1089
f 591/1090 303/1091 390/1092
f 390/1079 303/358 304/359
f 174/193 382/483 228/267
f 362/450 384/487 179/204
f 150/165 346/425 151/166
f 366/459 97/577 103/112
f 348/431 350/433 115/124
f 182/207 240/281 181/206
f 232/272 392/495 173/192
f 593/1093 259/1094 581/1095
f 16/22 564/908 15/478
f 64/1096 310/1097 157/1098
f 415/526 416/527 316/377
f 386/489 153/754 497/693
f 163/178 171/529 505/716
f 388/491 274/913 587/1026
f 587/1026 274/913 586/1025
f 502/711 353/436 361/449
f 419/540 512/736 514/738
f 174/193 372/472 370/470
f 390/1079 144/197 347/429
f 545/813 116/125 91/100
f 330/395 171/529 366/459
f 184/803 186/1099 57/1100
f 136/1101 130/141 132/143
f 539/1102 417/1103 141/1104
f 399/503 71/79 312/372
f 27/198 26/1105 58/187
f 19/549 424/548 275/1106
f 546/818 311/594 504/714
f 275/322 20/26 19/25
f 456/604 222/258 221/257
f 311/594 546/818 253/1072
f 484/655 456/604 206/240
f 266/1107 129/1108 341/1109
f 128/246 211/245 341/412
f 341/1109 129/1108 128/1110
f 325/1111 594/1112 249/1113
f 352/435 351/434 183/208
f 220/1114 586/1115 274/1116
f 538/1117 586/1118 220/1119
f 190/222 280/991 279/1120
f 205/239 487/753 190/222
f 589/1039 42/650 595/1121
f 466/616 204/1122 448/663
f 442/582 340/411 491/710
f 538/783 482/652 537/782
f 26/32 356/441 344/440
f 356/441 26/32 45/430
f 30/36 216/252 28/34
f 426/551 377/1123 376/932
f 373/473 375/475 511/944
f 522/1124 495/691 376/1051
f 596/1125 522/1126 597/1127
f 505/716 166/181 163/178
f 255/298 386/489 231/271
f 133/144 574/1128 474/1129
f 384/487 412/1130 133/144
f 64/1131 157/1132 398/1133
f 518/744 437/571 312/372
f 437/571 345/424 399/503
f 172/191 178/203 462/612
f 246/288 320/381 598/1134
f 246/288 598/1134 379/480
f 291/462 178/203 68/202
f 55/1135 67/1136 66/1137
f 255/298 387/490 386/489
f 522/1124 496/692 495/691
f 410/519 385/488 580/989
f 496/740 522/760 515/741
f 163/178 166/181 164/179
f 238/279 240/281 410/519
f 163/1138 468/1089 367/1139
f 188/220 275/322 483/1140
f 275/935 424/709 223/259
f 307/362 548/823 464/614
f 508/720 507/719 579/983
f 544/805 203/237 440/576
f 81/90 80/89 277/746
f 187/214 115/216 350/795
f 38/996 572/938 554/990
f 37/939 572/938 38/996
f 183/208 163/178 352/435
f 558/867 32/461 176/463
f 98/107 47/53 99/108
f 412/521 551/1141 550/1142
f 550/1143 549/1144 412/1145
f 551/1146 588/1147 433/1148
f 433/1149 588/1150 599/1151
f 588/1152 16/22 599/1153
f 433/1154 599/1155 378/1156
f 16/22 588/1152 412/521
f 560/1157 559/998 15/478
f 133/144 412/1130 600/1158
f 14/1159 560/1157 15/478
f 131/210 554/847 562/880
f 554/990 572/938 569/929
f 47/53 98/107 566/926
f 98/107 100/109 566/926
f 430/1160 471/625 224/627
f 572/938 571/937 569/929
f 569/1161 571/1162 42/650
f 42/650 571/1162 595/1121
f 584/1009 485/657 237/656
f 268/369 485/657 566/926
f 430/1160 100/626 471/625
f 100/109 429/757 89/98
f 158/1081 446/895 545/813
f 524/1163 594/1164 556/1165
f 581/994 563/888 350/795
f 329/394 146/420 140/917
f 581/1166 601/1167 563/1005
f 601/1167 339/410 563/1005
f 79/1168 416/527 390/493
f 415/526 316/377 315/376
f 390/493 416/527 414/525
f 448/1169 204/1170 521/1171
f 568/928 218/1020 299/354
f 464/614 402/510 411/520
f 547/822 402/510 464/614
f 547/925 254/924 402/1172
f 15/1173 406/1174 13/1175
f 406/514 561/879 584/1009
f 89/98 122/131 100/109
f 268/369 122/131 123/132
f 236/276 114/1176 113/277
f 593/1177 349/432 364/702
f 593/1093 581/1095 349/1178
f 147/162 563/1005 339/410
f 581/1166 259/302 601/1167
f 363/451 486/662 257/300
f 161/176 148/163 147/162
f 85/94 339/410 601/1167
f 60/1179 62/1180 558/1181
f 447/589 448/591 521/966
f 602/1182 475/1183 603/1184
f 475/1185 602/1186 297/1187
f 184/1188 297/1187 602/1186
f 555/1189 186/1190 602/1191
f 602/1192 186/1193 185/1194
f 185/1195 184/1196 602/1197
f 359/1198 273/1199 477/1200
f 298/353 184/803 57/1100
f 475/1183 477/1201 603/1184
f 206/240 86/95 287/653
f 104/113 568/928 299/354
f 404/512 546/852 313/374
f 19/25 21/27 434/761
f 548/823 579/983 547/822
f 251/1202 425/1203 250/763
f 250/763 425/1203 434/761
f 602/1186 168/1204 555/1205
f 129/1206 160/1207 159/1208
f 398/1209 157/1210 156/1211
f 397/918 556/1165 443/583
f 40/247 397/918 211/245
f 395/665 397/918 40/247
f 430/560 499/1212 429/558
f 569/929 430/1213 224/930
f 561/879 46/52 485/657
f 378/479 15/478 559/998
f 599/1153 16/22 378/479
f 160/175 500/705 158/173
f 335/1214 446/895 158/1081
f 500/705 335/704 158/173
f 584/1215 237/278 113/277
f 446/587 196/586 278/1216
f 364/452 236/276 267/314
f 114/123 348/431 115/124
f 364/452 267/314 212/248
f 195/227 517/743 193/225
f 236/276 364/452 114/1176
f 212/248 365/453 364/452
f 212/248 300/355 309/365
f 187/1217 604/1218 97/1219
f 309/365 284/337 213/249
f 365/453 214/250 363/451
f 97/577 96/786 103/112
f 542/796 102/111 101/110
f 593/1220 363/1054 337/407
f 364/702 363/1221 593/1177
f 363/451 214/250 213/249
f 285/338 284/337 582/995
f 444/584 443/583 491/710
f 519/745 111/120 491/681
f 103/112 198/231 329/394
f 594/1164 443/583 556/1165
f 582/995 284/337 110/119
f 443/682 594/1222 325/971
f 259/302 258/301 601/1167
f 486/662 213/249 285/338
f 85/94 601/1167 258/301
f 258/301 83/92 85/94
f 257/300 336/1223 363/451
f 111/120 519/745 260/303
f 112/121 486/662 582/995
f 112/121 582/995 110/119
f 249/291 248/290 305/360
f 120/129 85/94 544/805
f 460/610 83/92 257/300
f 161/176 138/149 148/163
f 138/149 161/176 441/581
f 260/303 82/91 112/121
f 544/805 85/94 84/93
f 440/576 441/581 162/177
f 112/121 243/285 257/300
f 460/610 257/300 243/285
f 138/149 441/581 400/878
f 441/581 440/576 439/575
f 460/610 463/613 84/93
f 84/967 463/1224 447/589
f 221/590 447/589 463/1224
f 453/621 244/286 82/91
f 54/1225 177/1226 55/1227
f 438/580 439/575 461/611
f 544/805 521/751 203/237
f 283/333 438/580 461/611
f 203/237 281/331 461/611
f 243/778 456/604 221/257
f 177/304 261/306 527/1228
f 570/934 203/237 202/236
f 281/331 203/237 570/934
f 466/616 448/663 479/647
f 401/573 106/785 105/1229
f 283/333 461/611 281/331
f 202/236 465/721 570/934
f 61/1230 527/1231 69/1232
f 528/1233 527/1234 61/1235
f 527/1071 409/517 109/1236
f 109/1236 409/517 107/1237
f 281/331 570/934 508/720
f 281/331 508/720 307/362
f 222/258 456/604 483/654
f 478/1238 359/1239 477/1240
f 475/640 297/1241 478/643
f 476/641 475/640 478/643
f 283/333 282/332 464/614
f 297/1241 359/1242 478/643
f 360/1243 359/1244 297/1245
f 282/332 307/362 464/614
f 275/935 223/259 222/258
f 297/352 299/354 218/1020
f 313/374 411/520 404/512
f 307/362 579/983 548/823
f 568/928 567/927 276/725
f 567/927 313/374 509/723
f 313/374 546/852 509/723
f 509/723 276/725 567/927
f 189/221 233/1246 21/27
f 425/1203 19/25 434/761
f 49/55 48/54 200/1247
f 529/772 200/1247 48/54
f 446/895 278/327 116/125
f 340/411 211/245 491/710
f 311/594 252/1023 543/798
f 483/654 456/604 484/655
f 118/1248 119/1249 526/1250
f 552/1251 118/1248 526/1250
f 264/311 235/310 234/1252
f 145/156 144/155 168/1253
f 199/1254 534/779 200/1247
f 264/311 234/1252 423/694
f 534/779 49/55 200/1247
f 32/38 62/1255 33/39
f 579/1256 225/1257 227/923
f 227/923 547/925 579/1256
f 579/1258 507/802 225/707
f 577/1259 543/798 226/1024
f 501/708 465/615 467/617
f 567/927 104/113 313/374
f 424/709 577/952 225/707
f 501/708 467/617 223/259
f 543/798 577/1259 251/887
f 424/709 501/708 223/259
f 221/257 223/259 479/647
f 492/762 407/1013 250/763
f 504/714 311/594 331/596
f 21/27 233/1246 434/761
f 309/365 338/409 517/743
f 331/398 552/835 526/767
f 552/835 331/398 290/397
f 552/835 290/397 289/735
f 118/127 199/1260 44/50
f 199/1254 118/1059 534/779
f 494/1080 421/545 290/397
f 290/344 420/987 288/342
f 286/340 86/339 88/1261
f 334/695 506/1262 264/311
f 289/735 324/385 323/384
f 324/385 420/544 293/386
f 420/544 422/546 293/386
f 266/1107 160/1263 129/1108
f 530/773 529/772 48/54
f 50/56 530/773 48/54
f 206/240 205/239 190/222
f 190/222 87/96 206/240
f 453/1264 523/764 457/1265
f 457/1266 374/1267 453/1268
f 192/224 605/1269 208/774
f 426/551 488/933 377/1123
f 173/192 372/472 174/193
f 270/317 596/1270 451/597
f 226/262 252/295 227/263
f 254/924 253/1072 402/1172
f 403/1073 402/1172 253/1072
f 493/1021 492/1055 454/600
f 265/565 264/1271 506/1272
f 506/1272 493/1021 265/565
f 265/565 233/273 235/275
f 127/1273 41/1274 128/1275
f 233/1276 189/564 286/340
f 342/414 422/546 506/718
f 234/274 233/273 88/97
f 156/958 530/957 50/347
f 233/1277 286/1278 88/1279
f 556/1280 397/500 396/499
f 359/1281 220/1282 274/1283
f 262/825 43/137 125/134
f 262/1284 482/1285 220/1119
f 220/1119 482/1285 538/1117
f 334/403 423/1286 210/244
f 50/347 292/346 156/958
f 587/1026 391/494 389/492
f 389/492 388/491 587/1026
f 536/781 535/780 538/783
f 535/780 586/1025 538/783
f 333/413 210/1287 520/1288
f 156/958 292/346 175/371
f 272/1289 477/1290 273/1291
f 272/1292 602/1186 477/1293
f 272/1294 168/1295 602/1296
f 272/1297 314/1298 316/1299
f 168/185 272/1300 316/1301
f 315/1302 272/1300 415/1303
f 272/1304 274/1305 415/1306
f 606/1307 482/652 481/651
f 606/1307 607/1308 537/782
f 606/1307 537/782 482/652
f 606/1307 481/651 608/1309
f 400/878 105/114 139/150
f 606/1307 608/1309 607/1308
f 565/916 481/1310 124/1311
f 481/1312 565/1313 608/1314
f 124/1311 126/914 565/916
f 514/1315 565/1316 419/1317
f 557/865 514/738 513/737
f 513/1318 74/1319 557/1320
f 169/186 168/185 144/197
f 58/187 57/1321 168/185
f 607/1308 592/1053 537/782
f 557/1322 74/1323 25/1324
f 557/865 25/31 27/33
f 423/547 88/97 208/774
f 607/1308 608/1309 591/1052
f 607/1308 591/1052 592/1053
f 391/494 591/1052 390/493
f 450/593 175/371 292/346
f 210/244 423/1286 208/242
f 333/402 319/950 437/571
f 518/744 450/593 333/402
f 208/774 605/1269 209/1325
f 190/222 279/1120 191/223
f 192/224 428/557 605/1269
f 317/556 209/1325 605/1269
f 312/372 437/571 399/503
f 345/424 436/570 242/759
f 242/284 436/1326 318/455
f 31/232 70/78 308/363
f 428/557 192/224 541/793
f 317/556 605/1269 428/557
f 191/223 279/1120 541/793
f 327/1327 73/81 553/992
f 249/1113 594/1112 453/1264
f 73/81 609/1328 553/992
f 457/1265 523/764 458/1329
f 427/555 428/557 435/936
f 321/382 609/1328 73/81
f 594/1164 523/1330 453/599
f 60/1331 176/1332 177/1333
f 62/1255 32/38 558/1334
f 488/670 487/669 374/474
f 541/963 229/269 29/35
f 594/1164 524/1163 523/1330
f 374/474 377/477 488/670
f 462/612 553/992 609/1328
f 458/1329 523/764 525/766
f 609/1328 321/382 462/612
f 368/464 291/462 67/874
f 320/381 245/287 321/382
f 178/203 470/624 462/612
f 394/568 469/622 503/712
f 151/166 394/568 149/164
f 28/34 215/251 435/567
f 149/164 598/1134 320/381
f 28/34 216/252 215/251
f 149/164 379/480 598/1134
f 597/1127 373/473 596/1125
f 373/473 451/1335 596/1125
f 256/299 379/480 503/712
f 539/1336 141/1337 143/1338
f 232/272 246/288 230/270
f 351/434 53/59 183/208
f 22/1040 24/60 52/58
f 217/690 489/1050 495/691
f 246/288 379/480 230/270
f 451/597 445/585 270/317
f 51/1339 142/153 585/1022
f 585/1022 22/28 51/1339
f 232/272 231/271 22/28
f 230/270 379/480 255/298
f 596/1270 270/317 522/760
f 387/490 217/253 580/989
f 163/1138 183/1340 468/1089
f 217/253 496/740 580/989
f 386/489 240/281 154/797
f 154/169 240/1061 152/167
f 410/519 515/741 238/279
f 271/318 445/585 573/940
f 271/318 573/940 583/1003
f 515/741 269/316 238/279
f 167/1341 34/1342 182/1343
f 269/316 271/318 510/728
f 182/207 180/205 135/146
f 135/146 134/145 167/1038
f 510/728 583/1003 353/436
f 502/711 510/728 353/436
f 239/280 361/449 181/206
f 14/1344 167/1038 134/145
f 361/449 353/436 355/438
f 133/144 600/1158 574/1128
f 474/1129 14/1344 134/145
f 134/145 133/144 474/1129
f 559/1345 474/1346 472/1347
f 432/1348 431/1349 473/1350
f 472/1351 431/999 559/998
f 610/1352 574/1353 600/1354
f 575/1355 574/1356 610/1357
f 433/1358 610/1359 549/1360
f 232/272 173/192 246/288
f 611/1361 612/1362 613/1363
f 614/1364 615/1365 616/1366
f 617/1367 618/1368 619/1369
f 620/1370 621/1371 622/1372
f 623/1373 624/1374 625/1375
f 615/1376 626/1377 616/1378
f 627/1379 628/1380 629/1381
f 630/1382 631/1383 632/1384
f 613/1385 633/1386 611/1387
f 627/1388 629/1389 634/1390
f 621/1371 620/1370 635/1391
f 636/1392 637/1393 638/1394
f 639/1395 640/1396 641/1397
f 613/1398 612/1399 642/1400
f 636/1401 643/1402 637/1403
f 644/1404 645/1405 646/1406
f 647/1407 645/1408 644/1409
f 648/1410 649/1411 650/1412
f 651/1413 645/1414 647/1415
f 646/1416 645/1417 652/1418
f 653/1419 654/1420 655/1421
f 656/1422 657/1423 658/1424
f 659/1425 660/1426 661/1427
f 662/1428 663/1429 664/1430
f 665/1431 666/1432 667/1433
f 668/1434 669/1435 670/1436
f 660/1437 671/1438 661/1439
f 672/1440 673/1441 674/1442
f 675/1443 676/1444 677/1445
f 658/1446 678/1447 656/1448
f 672/1449 674/1450 679/1451
f 666/1432 665/1431 680/1452
f 681/1453 682/1454 683/1455
f 684/1456 685/1457 686/1458
f 658/1459 657/1460 687/1461
f 681/1462 688/1463 682/1464
