# Blender 4.1.1
# www.blender.org
mtllib 160mm.mtl
o 160mm
v 3.074096 0.000015 -0.612006
v 3.134344 0.000015 -0.000302
v -0.001149 -0.000000 -0.000300
v 2.895668 0.000015 -1.200203
v 3.070302 0.009817 0.610644
v 2.892096 0.009816 1.198117
v 2.895669 0.000015 1.199600
v 3.074096 0.000015 0.611403
v -3.076393 0.000014 0.611404
v -3.136641 0.000015 -0.000300
v -2.897965 0.000014 1.199600
v 1.708696 0.127601 2.558660
v 2.175069 0.127601 2.175916
v -0.001149 0.127609 -0.000300
v 1.176613 0.127601 2.843064
v -3.019650 0.127601 -0.600717
v -3.078786 0.127601 -0.000300
v -2.844514 0.127601 -1.178061
v -3.019650 0.127601 0.600117
v -2.844514 0.127601 1.177461
v 3.017353 0.127602 0.600116
v 3.076488 0.127602 -0.000302
v 2.842217 0.127602 1.177459
v -2.560109 0.127601 1.709543
v -2.177366 0.127601 2.175917
v 3.017352 0.127602 -0.600719
v 2.842216 0.127602 -1.178063
v 0.599268 0.127602 -3.018802
v -0.001149 0.127602 -3.077938
v 1.176612 0.127602 -2.843666
v -1.710992 0.127601 2.558661
v -1.178909 0.127601 2.843064
v 2.557812 0.127602 -1.710145
v 2.175068 0.127602 -2.176519
v -0.601566 0.127602 -3.018802
v -1.178910 0.127602 -2.843666
v -0.601565 0.127601 3.018200
v -0.001148 0.127601 3.077336
v 1.708694 0.127602 -2.559263
v -1.710992 0.127601 -2.559262
v -2.177366 0.127601 -2.176518
v 0.599269 0.127601 3.018200
v 2.605918 0.000015 1.741685
v 2.215980 0.000015 2.216826
v -3.076393 0.000015 -0.612004
v -2.897966 0.000015 -1.200201
v 1.740838 0.000015 2.606765
v 1.198753 0.000015 2.896516
v -2.608216 0.000015 -1.742287
v -2.218277 0.000015 -2.217428
v 0.610556 0.000015 3.074944
v -0.001148 0.000015 3.135191
v -1.743135 0.000015 -2.607367
v -1.201050 0.000015 -2.897118
v 1.740837 0.000015 -2.607368
v 2.215979 0.000015 -2.217429
v 1.198752 0.000015 -2.897118
v -0.612852 0.000014 3.074944
v -1.201049 0.000014 2.896516
v -0.612854 0.000015 -3.075546
v -0.001149 0.000015 -3.135793
v 2.605917 0.000015 -1.742288
v 0.610555 0.000015 -3.075546
v -2.608215 0.000014 1.741686
v -2.218276 0.000014 2.216827
v 2.557813 0.127601 1.709542
v -2.560111 0.127601 -1.710144
v -1.743134 0.000014 2.606766
v -2.894391 0.009816 1.198122
v -3.072598 0.009816 0.610650
v 1.738688 0.009817 -2.604151
v 2.213243 0.009817 -2.214694
v 3.130475 0.009817 -0.000305
v -2.604997 0.009816 1.739538
v 1.197271 0.009817 -2.893544
v 3.070301 0.009817 -0.611255
v -2.215539 0.009816 2.214093
v 0.609799 0.009817 -3.071752
v 2.892093 0.009817 -1.198726
v -1.740983 0.009816 2.603550
v -0.001150 0.009817 -3.131924
v 2.602698 0.009817 -1.740143
v -1.199567 0.009816 2.892942
v -0.612100 0.009817 -3.071751
v 2.179864 0.120115 -2.181315
v 2.563449 0.120115 -1.713917
v -0.612096 0.009816 3.071150
v -1.199571 0.009816 -2.893543
v -0.001146 0.009816 3.131322
v -1.740987 0.009816 -2.604149
v 0.609803 0.009816 3.071149
v -2.215543 0.009816 -2.214692
v 1.197274 0.009816 2.892941
v -2.605000 0.009816 -1.740136
v 1.738691 0.009816 2.603547
v -2.894392 0.009816 -1.198721
v 2.213246 0.009816 2.214089
v -3.072599 0.009816 -0.611249
v 2.602703 0.009816 1.739533
v -3.132772 0.009816 -0.000299
v 2.848484 0.120114 1.180051
v 2.563453 0.120114 1.713307
v -3.026301 0.120114 0.601441
v -3.085567 0.120114 -0.000299
v -3.026301 0.120114 -0.602039
v 2.179867 0.120114 2.180710
v -2.850780 0.120114 -1.180656
v 1.712465 0.120114 2.564297
v -2.565750 0.120114 -1.713911
v 1.179209 0.120114 2.849329
v -2.182163 0.120114 -2.181313
v 0.600594 0.120114 3.024851
v -1.714761 0.120114 -2.564900
v -0.001147 0.120114 3.084118
v -1.181506 0.120114 -2.849931
v -0.602886 0.120114 3.024851
v -0.602891 0.120114 -3.025453
v -1.181502 0.120114 2.849331
v -0.001150 0.120115 -3.084720
v -1.714758 0.120114 2.564301
v 2.848480 0.120115 -1.180661
v 0.600590 0.120115 -3.025453
v -2.182160 0.120114 2.180714
v 3.024003 0.120115 -0.602046
v 1.179206 0.120115 -2.849932
v -2.565748 0.120114 1.713312
v 3.083270 0.120115 -0.000305
v 1.712461 0.120115 -2.564902
v -2.850779 0.120114 1.180057
v 3.024004 0.120114 0.601435
v 2.995630 0.009840 0.908758
v 2.943967 0.127620 0.893089
v 2.950457 0.120096 0.895055
v 2.999331 -0.000009 0.909884
v 3.061668 0.127620 0.301359
v 3.115396 0.009840 0.306647
v 3.119246 -0.000009 0.307030
v 3.068418 0.120096 0.302021
v 3.119245 -0.000008 -0.307634
v 3.115395 0.009840 -0.307258
v 3.061668 0.127620 -0.301963
v 3.068417 0.120096 -0.302631
v 2.999330 -0.000008 -0.910487
v 2.950454 0.120096 -0.895665
v 2.943966 0.127620 -0.893692
v 2.995627 0.009840 -0.909368
v 2.719063 0.120097 -1.454290
v 2.713084 0.127620 -1.451090
v 2.760694 0.009841 -1.476543
v 2.764108 -0.000008 -1.478363
v 2.377896 0.127620 -1.952733
v 2.383137 0.120097 -1.957037
v 2.422619 -0.000008 -1.989437
v 2.419627 0.009841 -1.986985
v 1.452836 0.120097 -2.720516
v 1.449639 0.127620 -2.714535
v 1.476912 -0.000008 -2.765559
v 1.475088 0.009841 -2.762147
v 1.955585 0.120097 -2.384589
v 1.987986 -0.000008 -2.424070
v 1.985531 0.009841 -2.421079
v 1.951283 0.127620 -2.379347
v 0.909036 -0.000008 -3.000780
v 0.894210 0.120096 -2.951906
v 0.907912 0.009840 -2.997079
v 0.892241 0.127620 -2.945417
v 0.305802 0.009840 -3.116845
v 0.301175 0.120096 -3.069867
v 0.300512 0.127620 -3.063118
v 0.306183 -0.000008 -3.120695
v -0.302810 0.127620 -3.063118
v -0.308103 0.009840 -3.116844
v -0.303476 0.120096 -3.069867
v -0.308481 -0.000009 -3.120695
v -0.911335 -0.000009 -3.000780
v -0.894540 0.127620 -2.945416
v -0.910213 0.009840 -2.997077
v -0.896510 0.120096 -2.951905
v -1.479210 -0.000009 -2.765558
v -1.455135 0.120096 -2.720515
v -1.451937 0.127620 -2.714533
v -1.477388 0.009840 -2.762146
v -1.990285 -0.000009 -2.424069
v -1.987831 0.009840 -2.421077
v -1.957884 0.120096 -2.384587
v -1.953581 0.127619 -2.379346
v -2.424918 -0.000009 -1.989436
v -2.380194 0.127619 -1.952732
v -2.385437 0.120096 -1.957034
v -2.421928 0.009840 -1.986980
v -2.766406 -0.000009 -1.478361
v -2.715382 0.127619 -1.451088
v -2.721364 0.120096 -1.454285
v -2.762995 0.009840 -1.476537
v -3.001628 -0.000009 -0.910486
v -2.952754 0.120096 -0.895659
v -2.946264 0.127619 -0.893691
v -2.997926 0.009840 -0.909362
v -3.070715 0.120096 -0.302625
v -3.121543 -0.000009 -0.307632
v -3.117693 0.009840 -0.307252
v -3.063966 0.127619 -0.301961
v -3.121543 -0.000009 0.307032
v -3.063966 0.127619 0.301361
v -3.117692 0.009840 0.306654
v -3.070714 0.120096 0.302027
v -3.001627 -0.000009 0.909885
v -2.997925 0.009840 0.908764
v -2.946264 0.127619 0.893090
v -2.952752 0.120096 0.895061
v -2.762993 0.009840 1.475939
v -2.721362 0.120096 1.453686
v -2.766406 -0.000009 1.477760
v -2.715381 0.127619 1.450488
v -2.421925 0.009840 1.986382
v -2.385435 0.120096 1.956435
v -2.380194 0.127619 1.952131
v -2.424917 -0.000009 1.988835
v -1.953580 0.127619 2.378745
v -1.990283 -0.000009 2.423468
v -1.987828 0.009840 2.420478
v -1.957881 0.120096 2.383988
v -1.455132 0.120096 2.719915
v -1.451936 0.127619 2.713933
v -1.479209 -0.000009 2.764956
v -1.477384 0.009840 2.761545
v -0.911333 -0.000009 3.000178
v -0.910209 0.009840 2.996476
v -0.894539 0.127619 2.944815
v -0.896506 0.120096 2.951304
v -0.302809 0.127619 3.062515
v -0.303472 0.120096 3.069265
v -0.308099 0.009840 3.116243
v -0.308480 -0.000009 3.120093
v 0.305807 0.009840 3.116243
v 0.300513 0.127619 3.062515
v 0.306184 -0.000009 3.120093
v 0.301179 0.120096 3.069265
v 0.894213 0.120096 2.951303
v 0.892242 0.127619 2.944814
v 0.907916 0.009840 2.996475
v 0.909037 -0.000009 3.000178
v 1.475091 0.009840 2.761543
v 1.476913 -0.000009 2.764956
v 1.449640 0.127619 2.713933
v 1.452839 0.120096 2.719912
v 1.955588 0.120096 2.383985
v 1.985535 0.009840 2.420475
v 1.951284 0.127619 2.378744
v 1.987987 -0.000009 2.423467
v 2.377897 0.127619 1.952130
v 2.419631 0.009840 1.986377
v 2.383141 0.120096 1.956431
v 2.422620 -0.000009 1.988834
v 2.719067 0.120096 1.453681
v 2.760698 0.009840 1.475933
v 2.764109 -0.000009 1.477760
v 2.713084 0.127620 1.450486
vn 0.8301 -0.5515 -0.0817
vn -0.0000 -1.0000 -0.0000
vn 0.8186 -0.5508 -0.1628
vn 0.8545 0.3802 0.3539
vn 0.7982 -0.5515 0.2422
vn 0.8854 0.3795 0.2686
vn -0.8302 -0.5515 0.0817
vn -0.8186 -0.5508 0.1629
vn 0.2643 0.9091 0.3221
vn -0.0000 1.0000 -0.0000
vn 0.2312 0.9093 0.3460
vn -0.4149 0.9089 -0.0408
vn -0.4082 0.9093 -0.0812
vn -0.3987 0.9091 0.1210
vn -0.4079 0.9094 0.0811
vn 0.4147 0.9091 0.0408
vn 0.4082 0.9093 0.0812
vn -0.3223 0.9089 0.2645
vn -0.3462 0.9092 0.2313
vn 0.3986 0.9091 -0.1209
vn 0.4081 0.9093 -0.0812
vn 0.0408 0.9091 -0.4146
vn 0.0812 0.9093 -0.4082
vn -0.1965 0.9089 0.3677
vn -0.2313 0.9092 0.3461
vn 0.3221 0.9091 -0.2643
vn 0.3458 0.9094 -0.2310
vn -0.1211 0.9089 -0.3990
vn -0.0811 0.9094 -0.4079
vn -0.0408 0.9089 0.4149
vn -0.0812 0.9094 0.4079
vn 0.1963 0.9091 -0.3673
vn 0.2313 0.9092 -0.3462
vn -0.2643 0.9091 -0.3221
vn -0.2310 0.9094 -0.3458
vn 0.1209 0.9091 0.3986
vn 0.0812 0.9092 0.4083
vn 0.8184 -0.5511 0.1628
vn 0.6448 -0.5515 0.5292
vn 0.6940 -0.5508 0.4637
vn -0.7982 -0.5515 -0.2422
vn -0.8186 -0.5508 -0.1628
vn 0.3933 -0.5511 0.7359
vn 0.4635 -0.5513 0.6937
vn -0.6448 -0.5515 -0.5292
vn -0.6940 -0.5508 -0.4637
vn 0.0817 -0.5515 0.8301
vn 0.1628 -0.5511 0.8184
vn -0.3933 -0.5512 -0.7358
vn -0.4637 -0.5508 -0.6940
vn 0.5292 -0.5515 -0.6448
vn 0.4636 -0.5511 -0.6938
vn -0.2422 -0.5515 0.7982
vn -0.1628 -0.5508 0.8186
vn -0.0817 -0.5515 -0.8302
vn -0.1629 -0.5508 -0.8186
vn 0.7358 -0.5512 -0.3933
vn 0.6937 -0.5512 -0.4635
vn 0.2422 -0.5512 -0.7984
vn 0.1628 -0.5508 -0.8186
vn -0.7359 -0.5511 0.3933
vn -0.6938 -0.5512 0.4635
vn 0.3677 0.9089 0.1965
vn 0.3458 0.9094 0.2311
vn -0.3672 0.9092 -0.1963
vn -0.3461 0.9092 -0.2313
vn -0.5293 -0.5512 0.6450
vn -0.4636 -0.5512 0.6938
vn -0.9071 0.3802 0.1805
vn -0.7982 -0.5516 0.2421
vn -0.8854 0.3794 0.2686
vn 0.6540 0.3802 -0.6540
vn 0.5869 0.3798 -0.7151
vn 0.9073 0.3799 0.1805
vn 0.8303 -0.5512 0.0818
vn 0.9207 0.3795 0.0907
vn -0.8545 0.3801 0.3540
vn -0.8160 0.3795 0.4361
vn 0.5139 0.3798 -0.7692
vn 0.3932 -0.5515 -0.7357
vn 0.4361 0.3795 -0.8159
vn 0.9249 0.3802 -0.0000
vn 0.9208 0.3795 -0.0907
vn -0.7691 0.3799 0.5139
vn -0.6450 -0.5511 0.5294
vn -0.7152 0.3795 0.5869
vn 0.3539 0.3802 -0.8545
vn 0.2686 0.3795 -0.8854
vn 0.9073 0.3797 -0.1805
vn 0.7984 -0.5512 -0.2422
vn 0.8852 0.3799 -0.2685
vn -0.6540 0.3802 0.6540
vn -0.5870 0.3795 0.7152
vn 0.1805 0.3798 -0.9073
vn 0.0818 -0.5515 -0.8302
vn 0.0907 0.3795 -0.9207
vn 0.8545 0.3801 -0.3540
vn 0.8160 0.3795 -0.4361
vn -0.5138 0.3802 0.7690
vn -0.3933 -0.5512 0.7358
vn -0.4362 0.3795 0.8160
vn -0.0000 0.3802 -0.9249
vn -0.0907 0.3795 -0.9207
vn 0.7013 0.5372 -0.4686
vn 0.6522 0.5368 -0.5352
vn -0.3539 0.3802 0.8545
vn -0.2686 0.3795 0.8854
vn -0.1805 0.3802 -0.9071
vn -0.2421 -0.5515 -0.7983
vn -0.2686 0.3795 -0.8854
vn -0.1804 0.3802 0.9072
vn -0.0818 -0.5515 0.8301
vn -0.0907 0.3795 0.9207
vn -0.3540 0.3799 -0.8546
vn -0.4361 0.3799 -0.8158
vn -0.0000 0.3799 0.9250
vn 0.0907 0.3799 0.9206
vn -0.5139 0.3802 -0.7690
vn -0.5292 -0.5515 -0.6448
vn -0.5869 0.3795 -0.7152
vn 0.1805 0.3802 0.9071
vn 0.2421 -0.5515 0.7983
vn 0.2686 0.3795 0.8854
vn -0.6541 0.3797 -0.6542
vn -0.7152 0.3795 -0.5869
vn 0.3540 0.3796 0.8547
vn 0.4361 0.3795 0.8160
vn -0.7690 0.3802 -0.5138
vn -0.7357 -0.5515 -0.3932
vn -0.8160 0.3794 -0.4362
vn 0.5139 0.3799 0.7691
vn 0.5292 -0.5515 0.6448
vn 0.5869 0.3798 0.7151
vn -0.8545 0.3801 -0.3540
vn -0.8852 0.3798 -0.2685
vn 0.6541 0.3799 0.6541
vn 0.7151 0.3799 0.5868
vn -0.9073 0.3799 -0.1805
vn -0.8301 -0.5515 -0.0818
vn -0.9208 0.3795 -0.0907
vn 0.7012 0.5375 0.4685
vn 0.7442 0.5365 0.3978
vn -0.4150 0.9089 0.0409
vn -0.8433 0.5375 -0.0000
vn -0.8396 0.5368 0.0827
vn -0.9207 0.3795 0.0907
vn -0.9249 0.3802 -0.0000
vn 0.8160 0.3795 0.4361
vn 0.7692 0.3797 0.5140
vn -0.8271 0.5375 -0.1645
vn -0.8398 0.5366 -0.0827
vn 0.3221 0.9091 0.2643
vn 0.5965 0.5371 0.5965
vn 0.6523 0.5366 0.5353
vn -0.3987 0.9091 -0.1209
vn -0.7792 0.5372 -0.3228
vn -0.8075 0.5366 -0.2449
vn 0.4685 0.5375 0.7012
vn 0.5354 0.5366 0.6523
vn -0.7440 0.5369 -0.3977
vn 0.1966 0.9089 0.3677
vn 0.3228 0.5371 0.7793
vn 0.3978 0.5365 0.7442
vn -0.3221 0.9091 -0.2643
vn -0.5963 0.5375 -0.5963
vn -0.6523 0.5366 -0.5353
vn 0.1645 0.5375 0.8271
vn 0.2450 0.5366 0.8075
vn -0.4685 0.5375 -0.7012
vn -0.5352 0.5368 -0.6522
vn 0.0408 0.9091 0.4146
vn -0.0000 0.5371 0.8435
vn 0.0827 0.5370 0.8395
vn -0.1963 0.9091 -0.3673
vn -0.3228 0.5370 -0.7794
vn -0.3977 0.5370 -0.7440
vn -0.1645 0.5375 0.8271
vn -0.0827 0.5369 0.8396
vn -0.1646 0.5370 -0.8273
vn -0.2450 0.5365 -0.8075
vn -0.1209 0.9091 0.3986
vn -0.3227 0.5375 0.7791
vn -0.2449 0.5368 0.8074
vn 0.7692 0.3797 -0.5140
vn 0.7152 0.3795 -0.5869
vn -0.0409 0.9089 -0.4149
vn -0.0000 0.5375 -0.8433
vn -0.0827 0.5365 -0.8398
vn -0.4686 0.5372 0.7013
vn -0.3978 0.5366 0.7442
vn 0.3677 0.9089 -0.1966
vn 0.7791 0.5375 -0.3227
vn 0.7440 0.5370 -0.3977
vn 0.1646 0.5372 -0.8273
vn 0.0827 0.5365 -0.8398
vn -0.2645 0.9089 0.3223
vn -0.5963 0.5375 0.5963
vn -0.5352 0.5368 0.6522
vn 0.8272 0.5372 -0.1645
vn 0.8075 0.5365 -0.2450
vn 0.1593 0.9093 -0.3845
vn 0.2450 0.5365 -0.8075
vn 0.1209 0.9091 -0.3986
vn -0.7011 0.5375 0.4685
vn -0.6521 0.5370 0.5352
vn 0.4145 0.9091 -0.0408
vn 0.8433 0.5375 -0.0000
vn 0.8396 0.5369 -0.0827
vn 0.4685 0.5375 -0.7012
vn 0.3977 0.5370 -0.7440
vn -0.3677 0.9089 0.1966
vn -0.7793 0.5372 0.3228
vn -0.7442 0.5366 0.3978
vn 0.8271 0.5374 0.1645
vn 0.8398 0.5365 0.0827
vn 0.2941 0.9094 -0.2941
vn 0.5353 0.5365 -0.6523
vn 0.2641 0.9092 -0.3219
vn -0.8271 0.5375 0.1645
vn -0.8075 0.5365 0.2450
vn 0.3986 0.9091 0.1209
vn 0.7793 0.5372 0.3228
vn 0.8076 0.5365 0.2449
vn 0.6448 -0.5515 -0.5292
vn 0.7359 -0.5511 0.3934
vn -0.8344 -0.5512 -0.0000
vn 0.5963 0.5375 -0.5963
vn 0.3842 0.9094 -0.1591
vn 0.5902 -0.5508 -0.5902
vn 0.3193 -0.5511 -0.7709
vn -0.0000 -0.5511 -0.8344
vn -0.5900 -0.5512 -0.5900
vn -0.1591 0.9094 -0.3843
vn -0.2940 0.9094 -0.2941
vn -0.7708 -0.5512 -0.3193
vn -0.3845 0.9093 -0.1593
vn -0.4159 0.9094 -0.0000
vn -0.7709 -0.5511 0.3193
vn -0.3846 0.9092 0.1593
vn -0.5900 -0.5512 0.5900
vn -0.2941 0.9094 0.2941
vn -0.3194 -0.5508 0.7711
vn -0.1593 0.9092 0.3847
vn -0.0000 -0.5508 0.8346
vn -0.0000 0.9093 0.4161
vn 0.3194 -0.5508 0.7711
vn 0.1591 0.9094 0.3842
vn 0.5900 -0.5512 0.5900
vn 0.2944 0.9092 0.2944
vn 0.7709 -0.5512 0.3193
vn 0.3845 0.9093 0.1593
vn 0.8346 -0.5508 -0.0000
vn 0.4163 0.9092 -0.0000
vn 0.7711 -0.5508 -0.3194
vn -0.3193 -0.5512 -0.7709
vn -0.0000 0.9092 -0.4163
vn 0.3227 0.5375 -0.7791
vn -0.7012 0.5375 -0.4685
vt 0.500004 0.500000
vt 0.500002 0.500000
vt 0.500004 0.500001
vt 0.499996 0.499998
vt 0.499996 0.499999
vt 0.500001 0.500000
vt 0.500001 0.499999
vt 0.499997 0.499997
vt 0.499998 0.500000
vt 0.499997 0.499996
vt 0.499999 0.500001
vt 0.499999 0.499999
vt 0.499999 0.499998
vt 0.499996 0.500001
vt 0.499997 0.500004
vt 0.499998 0.499996
vt 0.499999 0.499997
vt 0.499996 0.500002
vt 0.499998 0.500004
vt 0.499997 0.500003
vt 0.499999 0.500003
vt 0.500004 0.499999
vt 0.500004 0.499997
vt 0.500001 0.500001
vt 0.500003 0.499996
vt 0.500001 0.500003
vt 0.500002 0.500004
vt 0.500004 0.500003
vt 0.500002 0.499996
vt 0.500004 0.500002
vt 0.500003 0.500004
vt 0.500001 0.499998
vt 0.499999 0.500002
vt 0.500001 0.499997
vt 0.499996 0.500003
vt 0.499996 0.500000
vt 0.499996 0.499997
vt 0.499999 0.500000
vt 0.500001 0.500002
s 1
usemtl None.010
f 139/1/1 3/2/2 1/3/3
f 6/4/4 134/5/5 131/5/6
f 203/6/7 3/2/2 9/7/8
f 249/8/9 14/9/10 12/10/11
f 202/11/12 14/9/10 16/11/13
f 209/12/14 14/9/10 19/12/15
f 135/5/16 14/9/10 21/5/17
f 217/13/18 14/9/10 24/13/19
f 145/14/20 14/9/10 26/14/21
f 169/15/22 14/9/10 28/15/23
f 224/16/24 14/9/10 31/17/25
f 151/18/26 14/9/10 33/18/27
f 176/19/28 14/9/10 35/19/29
f 231/16/30 14/9/10 37/16/31
f 156/15/32 14/9/10 39/20/33
f 186/21/34 14/9/10 40/19/35
f 240/10/36 14/9/10 42/10/37
f 134/5/5 3/2/2 8/22/38
f 254/23/39 3/2/2 43/23/40
f 195/24/41 3/2/2 45/24/42
f 244/25/43 3/2/2 47/25/44
f 187/26/45 3/2/2 49/26/46
f 237/25/47 3/2/2 51/25/48
f 179/27/49 3/2/2 53/27/50
f 160/28/51 3/2/2 55/28/52
f 227/29/53 3/2/2 58/29/54
f 174/27/55 3/2/2 60/27/56
f 150/30/57 3/2/2 62/30/58
f 163/31/59 3/2/2 63/31/60
f 213/32/61 3/2/2 64/32/62
f 258/4/63 14/9/10 66/4/64
f 192/33/65 14/9/10 67/33/66
f 220/34/67 3/2/2 68/34/68
f 70/12/69 207/12/70 208/12/71
f 72/35/72 160/28/51 161/35/73
f 5/5/74 137/5/75 136/5/76
f 69/12/77 213/32/61 211/13/78
f 71/20/79 157/15/80 158/15/81
f 73/36/82 139/1/1 140/36/83
f 74/13/84 218/17/85 215/17/86
f 75/15/87 163/31/59 165/15/88
f 76/14/89 143/14/90 146/14/91
f 77/17/92 220/34/67 221/17/93
f 78/15/94 170/15/95 167/15/96
f 79/14/97 150/30/57 149/18/98
f 80/17/99 225/16/100 226/16/101
f 81/15/102 174/27/55 172/19/103
f 151/18/26 86/18/104 152/18/105
f 83/16/106 227/29/53 228/16/107
f 84/19/108 175/19/109 177/19/110
f 87/16/111 234/16/112 233/16/113
f 88/19/114 179/27/49 182/19/115
f 89/16/116 237/25/47 235/10/117
f 90/19/118 183/21/119 184/21/120
f 91/10/121 242/10/122 241/10/123
f 92/21/124 187/26/45 190/21/125
f 93/10/126 244/25/43 243/10/127
f 94/21/128 191/33/129 194/33/130
f 95/10/131 250/8/132 248/8/133
f 96/33/134 195/24/41 198/11/135
f 97/37/136 254/23/39 252/37/137
f 98/11/138 200/11/139 201/11/140
f 258/4/63 102/4/141 255/4/142
f 204/38/143 104/38/144 206/38/145
f 205/38/146 104/38/144 100/38/147
f 256/4/148 102/4/141 99/37/149
f 202/11/12 105/11/150 199/11/151
f 251/37/152 106/37/153 253/37/154
f 197/11/155 107/33/156 196/11/157
f 249/8/9 108/10/158 247/8/159
f 67/33/66 193/33/160 192/33/65
f 245/10/161 110/10/162 246/10/163
f 188/21/164 111/21/165 189/21/166
f 240/10/36 112/10/167 239/10/168
f 186/21/34 113/19/169 185/21/170
f 236/10/171 114/16/172 238/10/173
f 181/19/174 115/19/175 180/19/176
f 231/16/30 116/16/177 232/16/178
f 176/19/28 117/19/179 178/19/180
f 229/16/181 118/16/182 230/16/183
f 152/18/105 82/18/184 154/35/185
f 171/19/186 119/15/187 173/19/188
f 224/16/24 120/17/189 223/16/190
f 148/18/191 121/14/192 147/18/193
f 169/15/22 122/15/194 168/15/195
f 219/17/196 123/17/197 222/17/198
f 145/14/20 124/14/199 144/14/200
f 30/15/201 164/15/202 166/15/203
f 217/13/18 126/13/204 216/13/205
f 141/36/206 127/36/207 142/36/208
f 156/15/32 128/20/209 155/15/210
f 214/13/211 129/12/212 212/13/213
f 135/5/16 130/5/214 138/5/215
f 34/35/216 159/35/217 162/35/218
f 209/12/14 103/12/219 210/12/220
f 132/5/221 101/4/222 133/5/223
f 153/35/224 82/18/184 62/30/58
f 257/4/225 99/37/149 43/23/40
f 203/6/7 100/38/147 10/6/226
f 105/11/150 201/11/140 199/11/151
f 106/37/153 252/37/137 253/37/154
f 107/33/156 198/11/135 196/11/157
f 108/10/158 248/8/133 247/8/159
f 193/33/160 94/21/128 194/33/130
f 110/10/162 243/10/127 246/10/163
f 111/21/165 190/21/125 189/21/166
f 112/10/167 241/10/123 239/10/168
f 113/19/169 184/21/120 185/21/170
f 238/10/173 89/16/116 235/10/117
f 115/19/175 182/19/115 180/19/176
f 116/16/177 233/16/113 232/16/178
f 117/19/179 177/19/110 178/19/180
f 118/16/182 228/16/107 230/16/183
f 119/15/187 172/19/103 173/19/188
f 120/17/189 226/16/101 223/16/190
f 121/14/192 149/18/98 147/18/193
f 122/15/194 167/15/96 168/15/195
f 123/17/197 221/17/93 222/17/198
f 124/14/199 146/14/91 144/14/200
f 164/15/202 75/15/87 165/15/88
f 126/13/204 215/17/86 216/13/205
f 127/36/207 140/36/83 142/36/208
f 128/20/209 158/15/81 155/15/210
f 129/12/212 211/13/78 212/13/213
f 138/5/215 5/5/74 136/5/76
f 85/35/227 161/35/73 159/35/217
f 103/12/219 208/12/71 210/12/220
f 101/4/222 131/5/6 133/5/223
f 148/18/191 14/9/10 27/14/228
f 153/35/224 3/2/2 56/28/229
f 157/15/80 3/2/2 57/31/230
f 162/35/218 14/9/10 34/35/216
f 166/15/203 14/9/10 30/15/201
f 170/15/95 3/2/2 61/31/231
f 183/21/119 3/2/2 50/26/232
f 181/19/174 14/9/10 36/19/233
f 188/21/164 14/9/10 41/21/234
f 191/33/129 3/2/2 46/39/235
f 197/11/155 14/9/10 18/33/236
f 200/11/139 3/2/2 10/6/226
f 204/38/143 14/9/10 17/38/237
f 207/12/70 3/2/2 11/7/238
f 214/13/211 14/9/10 20/12/239
f 218/17/85 3/2/2 65/34/240
f 219/17/196 14/9/10 25/17/241
f 225/16/100 3/2/2 59/29/242
f 229/16/181 14/9/10 32/16/243
f 234/16/112 3/2/2 52/29/244
f 236/10/171 14/9/10 38/16/245
f 242/10/122 3/2/2 48/25/246
f 245/10/161 14/9/10 15/10/247
f 250/8/132 3/2/2 44/23/248
f 251/37/152 14/9/10 13/37/249
f 257/4/225 3/2/2 7/4/250
f 132/5/221 14/9/10 23/4/251
f 137/5/75 3/2/2 2/1/252
f 141/36/206 14/9/10 22/36/253
f 143/14/90 3/2/2 4/3/254
f 175/19/109 3/2/2 54/27/255
f 171/19/186 14/9/10 29/15/256
f 130/5/214 131/5/6 5/5/74
f 21/5/17 133/5/223 130/5/214
f 131/5/6 8/22/38 5/5/74
f 127/36/207 136/5/76 73/36/82
f 22/36/253 138/5/215 127/36/207
f 136/5/76 2/1/252 73/36/82
f 124/14/199 140/36/83 76/14/89
f 26/14/21 142/36/208 124/14/199
f 140/36/83 1/3/3 76/14/89
f 121/14/192 146/14/91 79/14/97
f 27/14/228 144/14/200 121/14/192
f 146/14/91 4/3/254 79/14/97
f 86/18/104 149/18/98 82/18/184
f 33/18/27 147/18/193 86/18/104
f 149/18/98 62/30/58 82/18/184
f 56/28/229 154/35/185 153/35/224
f 85/35/227 154/35/185 72/35/72
f 34/35/216 152/18/105 85/35/227
f 125/15/257 158/15/81 75/15/87
f 30/15/201 155/15/210 125/15/257
f 158/15/81 57/31/230 75/15/87
f 128/20/209 161/35/73 71/20/79
f 39/20/33 159/35/217 128/20/209
f 71/20/79 160/28/51 55/28/52
f 122/15/194 165/15/88 78/15/94
f 28/15/23 164/15/202 122/15/194
f 165/15/88 63/31/60 78/15/94
f 119/15/187 167/15/96 81/15/102
f 29/15/256 168/15/195 119/15/187
f 167/15/96 61/31/231 81/15/102
f 117/19/179 172/19/103 84/19/108
f 35/19/29 173/19/188 117/19/179
f 172/19/103 60/27/56 84/19/108
f 115/19/175 177/19/110 88/19/114
f 36/19/233 178/19/180 115/19/175
f 177/19/110 54/27/255 88/19/114
f 113/19/169 182/19/115 90/19/118
f 40/19/35 180/19/176 113/19/169
f 182/19/115 53/27/50 90/19/118
f 111/21/165 184/21/120 92/21/124
f 41/21/234 185/21/170 111/21/165
f 184/21/120 50/26/232 92/21/124
f 109/33/258 190/21/125 94/21/128
f 67/33/66 189/21/166 109/33/258
f 190/21/125 49/26/46 94/21/128
f 107/33/156 194/33/130 96/33/134
f 18/33/236 193/33/160 107/33/156
f 96/33/134 191/33/129 46/39/235
f 105/11/150 198/11/135 98/11/138
f 16/11/13 196/11/157 105/11/150
f 198/11/135 45/24/42 98/11/138
f 104/38/144 201/11/140 100/38/147
f 17/38/237 199/11/151 104/38/144
f 201/11/140 10/6/226 100/38/147
f 9/7/8 205/38/146 203/6/7
f 103/12/219 205/38/146 70/12/69
f 19/12/15 206/38/145 103/12/219
f 129/12/212 208/12/71 69/12/77
f 20/12/239 210/12/220 129/12/212
f 208/12/71 11/7/238 69/12/77
f 126/13/204 211/13/78 74/13/84
f 24/13/19 212/13/213 126/13/204
f 211/13/78 64/32/62 74/13/84
f 123/17/197 215/17/86 77/17/92
f 25/17/241 216/13/205 123/17/197
f 215/17/86 65/34/240 77/17/92
f 120/17/189 221/17/93 80/17/99
f 31/17/25 222/17/198 120/17/189
f 221/17/93 68/34/68 80/17/99
f 118/16/182 226/16/101 83/16/106
f 32/16/243 223/16/190 118/16/182
f 226/16/101 59/29/242 83/16/106
f 116/16/177 228/16/107 87/16/111
f 37/16/31 230/16/183 116/16/177
f 228/16/107 58/29/54 87/16/111
f 114/16/172 233/16/113 89/16/116
f 38/16/245 232/16/178 114/16/172
f 233/16/113 52/29/244 89/16/116
f 112/10/167 235/10/117 91/10/121
f 42/10/37 238/10/173 112/10/167
f 235/10/117 51/25/48 91/10/121
f 110/10/162 241/10/123 93/10/126
f 15/10/247 239/10/168 110/10/162
f 241/10/123 48/25/246 93/10/126
f 108/10/158 243/10/127 95/10/131
f 12/10/11 246/10/163 108/10/158
f 243/10/127 47/25/44 95/10/131
f 106/37/153 248/8/133 97/37/136
f 13/37/249 247/8/159 106/37/153
f 248/8/133 44/23/248 97/37/136
f 102/4/141 252/37/137 99/37/149
f 66/4/64 253/37/154 102/4/141
f 252/37/137 43/23/40 99/37/149
f 7/4/250 256/4/148 257/4/225
f 101/4/222 256/4/148 6/4/4
f 23/4/251 255/4/142 101/4/222
f 139/1/1 2/1/252 3/2/2
f 6/4/4 7/4/250 134/5/5
f 203/6/7 10/6/226 3/2/2
f 249/8/9 13/37/249 14/9/10
f 202/11/12 17/38/237 14/9/10
f 209/12/14 20/12/239 14/9/10
f 135/5/16 22/36/253 14/9/10
f 217/13/18 25/17/241 14/9/10
f 145/14/20 27/14/228 14/9/10
f 169/15/22 29/15/256 14/9/10
f 224/16/24 32/16/243 14/9/10
f 151/18/26 34/35/216 14/9/10
f 176/19/28 36/19/233 14/9/10
f 231/16/30 38/16/245 14/9/10
f 156/15/32 30/15/201 14/9/10
f 186/21/34 41/21/234 14/9/10
f 240/10/36 15/10/247 14/9/10
f 134/5/5 7/4/250 3/2/2
f 254/23/39 44/23/248 3/2/2
f 195/24/41 46/39/235 3/2/2
f 244/25/43 48/25/246 3/2/2
f 187/26/45 50/26/232 3/2/2
f 237/25/47 52/29/244 3/2/2
f 179/27/49 54/27/255 3/2/2
f 160/28/51 56/28/229 3/2/2
f 227/29/53 59/29/242 3/2/2
f 174/27/55 61/31/231 3/2/2
f 150/30/57 4/3/254 3/2/2
f 163/31/59 57/31/230 3/2/2
f 213/32/61 11/7/238 3/2/2
f 258/4/63 23/4/251 14/9/10
f 192/33/65 18/33/236 14/9/10
f 220/34/67 65/34/240 3/2/2
f 70/12/69 9/7/8 207/12/70
f 72/35/72 56/28/229 160/28/51
f 5/5/74 8/22/38 137/5/75
f 69/12/77 11/7/238 213/32/61
f 71/20/79 55/28/52 157/15/80
f 73/36/82 2/1/252 139/1/1
f 74/13/84 64/32/62 218/17/85
f 75/15/87 57/31/230 163/31/59
f 76/14/89 1/3/3 143/14/90
f 77/17/92 65/34/240 220/34/67
f 78/15/94 63/31/60 170/15/95
f 79/14/97 4/3/254 150/30/57
f 80/17/99 68/34/68 225/16/100
f 81/15/102 61/31/231 174/27/55
f 151/18/26 33/18/27 86/18/104
f 83/16/106 59/29/242 227/29/53
f 84/19/108 60/27/56 175/19/109
f 87/16/111 58/29/54 234/16/112
f 88/19/114 54/27/255 179/27/49
f 89/16/116 52/29/244 237/25/47
f 90/19/118 53/27/50 183/21/119
f 91/10/121 51/25/48 242/10/122
f 92/21/124 50/26/232 187/26/45
f 93/10/126 48/25/246 244/25/43
f 94/21/128 49/26/46 191/33/129
f 95/10/131 47/25/44 250/8/132
f 96/33/134 46/39/235 195/24/41
f 97/37/136 44/23/248 254/23/39
f 98/11/138 45/24/42 200/11/139
f 258/4/63 66/4/64 102/4/141
f 204/38/143 17/38/237 104/38/144
f 205/38/146 206/38/145 104/38/144
f 256/4/148 255/4/142 102/4/141
f 202/11/12 16/11/13 105/11/150
f 251/37/152 13/37/249 106/37/153
f 197/11/155 18/33/236 107/33/156
f 249/8/9 12/10/11 108/10/158
f 67/33/66 109/33/258 193/33/160
f 245/10/161 15/10/247 110/10/162
f 188/21/164 41/21/234 111/21/165
f 240/10/36 42/10/37 112/10/167
f 186/21/34 40/19/35 113/19/169
f 236/10/171 38/16/245 114/16/172
f 181/19/174 36/19/233 115/19/175
f 231/16/30 37/16/31 116/16/177
f 176/19/28 35/19/29 117/19/179
f 229/16/181 32/16/243 118/16/182
f 152/18/105 86/18/104 82/18/184
f 171/19/186 29/15/256 119/15/187
f 224/16/24 31/17/25 120/17/189
f 148/18/191 27/14/228 121/14/192
f 169/15/22 28/15/23 122/15/194
f 219/17/196 25/17/241 123/17/197
f 145/14/20 26/14/21 124/14/199
f 30/15/201 125/15/257 164/15/202
f 217/13/18 24/13/19 126/13/204
f 141/36/206 22/36/253 127/36/207
f 156/15/32 39/20/33 128/20/209
f 214/13/211 20/12/239 129/12/212
f 135/5/16 21/5/17 130/5/214
f 34/35/216 85/35/227 159/35/217
f 209/12/14 19/12/15 103/12/219
f 132/5/221 23/4/251 101/4/222
f 153/35/224 154/35/185 82/18/184
f 257/4/225 256/4/148 99/37/149
f 203/6/7 205/38/146 100/38/147
f 105/11/150 98/11/138 201/11/140
f 106/37/153 97/37/136 252/37/137
f 107/33/156 96/33/134 198/11/135
f 108/10/158 95/10/131 248/8/133
f 193/33/160 109/33/258 94/21/128
f 110/10/162 93/10/126 243/10/127
f 111/21/165 92/21/124 190/21/125
f 112/10/167 91/10/121 241/10/123
f 113/19/169 90/19/118 184/21/120
f 238/10/173 114/16/172 89/16/116
f 115/19/175 88/19/114 182/19/115
f 116/16/177 87/16/111 233/16/113
f 117/19/179 84/19/108 177/19/110
f 118/16/182 83/16/106 228/16/107
f 119/15/187 81/15/102 172/19/103
f 120/17/189 80/17/99 226/16/101
f 121/14/192 79/14/97 149/18/98
f 122/15/194 78/15/94 167/15/96
f 123/17/197 77/17/92 221/17/93
f 124/14/199 76/14/89 146/14/91
f 164/15/202 125/15/257 75/15/87
f 126/13/204 74/13/84 215/17/86
f 127/36/207 73/36/82 140/36/83
f 128/20/209 71/20/79 158/15/81
f 129/12/212 69/12/77 211/13/78
f 138/5/215 130/5/214 5/5/74
f 85/35/227 72/35/72 161/35/73
f 103/12/219 70/12/69 208/12/71
f 101/4/222 6/4/4 131/5/6
f 148/18/191 33/18/27 14/9/10
f 153/35/224 62/30/58 3/2/2
f 157/15/80 55/28/52 3/2/2
f 162/35/218 39/20/33 14/9/10
f 166/15/203 28/15/23 14/9/10
f 170/15/95 63/31/60 3/2/2
f 183/21/119 53/27/50 3/2/2
f 181/19/174 40/19/35 14/9/10
f 188/21/164 67/33/66 14/9/10
f 191/33/129 49/26/46 3/2/2
f 197/11/155 16/11/13 14/9/10
f 200/11/139 45/24/42 3/2/2
f 204/38/143 19/12/15 14/9/10
f 207/12/70 9/7/8 3/2/2
f 214/13/211 24/13/19 14/9/10
f 218/17/85 64/32/62 3/2/2
f 219/17/196 31/17/25 14/9/10
f 225/16/100 68/34/68 3/2/2
f 229/16/181 37/16/31 14/9/10
f 234/16/112 58/29/54 3/2/2
f 236/10/171 42/10/37 14/9/10
f 242/10/122 51/25/48 3/2/2
f 245/10/161 12/10/11 14/9/10
f 250/8/132 47/25/44 3/2/2
f 251/37/152 66/4/64 14/9/10
f 257/4/225 43/23/40 3/2/2
f 132/5/221 21/5/17 14/9/10
f 137/5/75 8/22/38 3/2/2
f 141/36/206 26/14/21 14/9/10
f 143/14/90 1/3/3 3/2/2
f 175/19/109 60/27/56 3/2/2
f 171/19/186 35/19/29 14/9/10
f 130/5/214 133/5/223 131/5/6
f 21/5/17 132/5/221 133/5/223
f 131/5/6 134/5/5 8/22/38
f 127/36/207 138/5/215 136/5/76
f 22/36/253 135/5/16 138/5/215
f 136/5/76 137/5/75 2/1/252
f 124/14/199 142/36/208 140/36/83
f 26/14/21 141/36/206 142/36/208
f 140/36/83 139/1/1 1/3/3
f 121/14/192 144/14/200 146/14/91
f 27/14/228 145/14/20 144/14/200
f 146/14/91 143/14/90 4/3/254
f 86/18/104 147/18/193 149/18/98
f 33/18/27 148/18/191 147/18/193
f 149/18/98 150/30/57 62/30/58
f 56/28/229 72/35/72 154/35/185
f 85/35/227 152/18/105 154/35/185
f 34/35/216 151/18/26 152/18/105
f 125/15/257 155/15/210 158/15/81
f 30/15/201 156/15/32 155/15/210
f 158/15/81 157/15/80 57/31/230
f 128/20/209 159/35/217 161/35/73
f 39/20/33 162/35/218 159/35/217
f 71/20/79 161/35/73 160/28/51
f 122/15/194 164/15/202 165/15/88
f 28/15/23 166/15/203 164/15/202
f 165/15/88 163/31/59 63/31/60
f 119/15/187 168/15/195 167/15/96
f 29/15/256 169/15/22 168/15/195
f 167/15/96 170/15/95 61/31/231
f 117/19/179 173/19/188 172/19/103
f 35/19/29 171/19/186 173/19/188
f 172/19/103 174/27/55 60/27/56
f 115/19/175 178/19/180 177/19/110
f 36/19/233 176/19/28 178/19/180
f 177/19/110 175/19/109 54/27/255
f 113/19/169 180/19/176 182/19/115
f 40/19/35 181/19/174 180/19/176
f 182/19/115 179/27/49 53/27/50
f 111/21/165 185/21/170 184/21/120
f 41/21/234 186/21/34 185/21/170
f 184/21/120 183/21/119 50/26/232
f 109/33/258 189/21/166 190/21/125
f 67/33/66 188/21/164 189/21/166
f 190/21/125 187/26/45 49/26/46
f 107/33/156 193/33/160 194/33/130
f 18/33/236 192/33/65 193/33/160
f 96/33/134 194/33/130 191/33/129
f 105/11/150 196/11/157 198/11/135
f 16/11/13 197/11/155 196/11/157
f 198/11/135 195/24/41 45/24/42
f 104/38/144 199/11/151 201/11/140
f 17/38/237 202/11/12 199/11/151
f 201/11/140 200/11/139 10/6/226
f 9/7/8 70/12/69 205/38/146
f 103/12/219 206/38/145 205/38/146
f 19/12/15 204/38/143 206/38/145
f 129/12/212 210/12/220 208/12/71
f 20/12/239 209/12/14 210/12/220
f 208/12/71 207/12/70 11/7/238
f 126/13/204 212/13/213 211/13/78
f 24/13/19 214/13/211 212/13/213
f 211/13/78 213/32/61 64/32/62
f 123/17/197 216/13/205 215/17/86
f 25/17/241 217/13/18 216/13/205
f 215/17/86 218/17/85 65/34/240
f 120/17/189 222/17/198 221/17/93
f 31/17/25 219/17/196 222/17/198
f 221/17/93 220/34/67 68/34/68
f 118/16/182 223/16/190 226/16/101
f 32/16/243 224/16/24 223/16/190
f 226/16/101 225/16/100 59/29/242
f 116/16/177 230/16/183 228/16/107
f 37/16/31 229/16/181 230/16/183
f 228/16/107 227/29/53 58/29/54
f 114/16/172 232/16/178 233/16/113
f 38/16/245 231/16/30 232/16/178
f 233/16/113 234/16/112 52/29/244
f 112/10/167 238/10/173 235/10/117
f 42/10/37 236/10/171 238/10/173
f 235/10/117 237/25/47 51/25/48
f 110/10/162 239/10/168 241/10/123
f 15/10/247 240/10/36 239/10/168
f 241/10/123 242/10/122 48/25/246
f 108/10/158 246/10/163 243/10/127
f 12/10/11 245/10/161 246/10/163
f 243/10/127 244/25/43 47/25/44
f 106/37/153 247/8/159 248/8/133
f 13/37/249 249/8/9 247/8/159
f 248/8/133 250/8/132 44/23/248
f 102/4/141 253/37/154 252/37/137
f 66/4/64 251/37/152 253/37/154
f 252/37/137 254/23/39 43/23/40
f 7/4/250 6/4/4 256/4/148
f 101/4/222 255/4/142 256/4/148
f 23/4/251 258/4/63 255/4/142
