# Blender 4.1.1
# www.blender.org
mtllib 75x42mm.mtl
o 75x42mm
v 0.814787 0.000015 -0.287557
v 0.830749 0.000015 -0.000140
v 0.000041 -0.000000 -0.000139
v 0.767515 0.000015 -0.563930
v 0.813782 0.009817 0.286922
v 0.766569 0.009816 0.562954
v 0.767515 0.000015 0.563651
v 0.814787 0.000015 0.287278
v -0.814704 0.000014 0.287279
v -0.830666 0.000015 -0.000139
v -0.767432 0.000014 0.563651
v 0.432160 0.127601 1.178337
v 0.550024 0.127601 1.002072
v 0.000041 0.127609 -0.000139
v 0.297690 0.127601 1.309313
v -0.762806 0.127601 -0.276648
v -0.777751 0.127601 -0.000139
v -0.718545 0.127601 -0.542532
v -0.762806 0.127601 0.276371
v -0.718545 0.127601 0.542254
v 0.762889 0.127602 0.276370
v 0.777834 0.127602 -0.000140
v 0.718628 0.127602 0.542253
v -0.646669 0.127601 0.787294
v -0.549941 0.127601 1.002073
v 0.762888 0.127602 -0.276649
v 0.718628 0.127602 -0.542533
v 0.151781 0.127602 -1.390247
v 0.000041 0.127602 -1.417480
v 0.297690 0.127602 -1.309592
v -0.432076 0.127601 1.178337
v -0.297606 0.127601 1.309313
v 0.646752 0.127602 -0.787572
v 0.550023 0.127602 -1.002351
v -0.151698 0.127602 -1.390247
v -0.297607 0.127602 -1.309592
v -0.151698 0.127601 1.389968
v 0.000042 0.127601 1.417202
v 0.432160 0.127602 -1.178616
v -0.432077 0.127601 -1.178615
v -0.549941 0.127601 -1.002351
v 0.151781 0.127601 1.389968
v 0.690750 0.000015 0.818357
v 0.587441 0.000015 1.041609
v -0.814704 0.000015 -0.287556
v -0.767432 0.000015 -0.563929
v 0.461558 0.000015 1.224827
v 0.317940 0.000015 1.360970
v -0.690667 0.000015 -0.818635
v -0.587358 0.000015 -1.041887
v 0.162105 0.000015 1.444807
v 0.000042 0.000015 1.473115
v -0.461475 0.000015 -1.225105
v -0.317857 0.000015 -1.361249
v 0.461558 0.000015 -1.225105
v 0.587440 0.000015 -1.041887
v 0.317939 0.000015 -1.361249
v -0.162021 0.000014 1.444807
v -0.317856 0.000014 1.360970
v -0.162022 0.000015 -1.445085
v 0.000041 0.000015 -1.473393
v 0.690749 0.000015 -0.818636
v 0.162104 0.000015 -1.445085
v -0.690667 0.000014 0.818358
v -0.587357 0.000014 1.041609
v 0.646752 0.127601 0.787293
v -0.646669 0.127601 -0.787571
v -0.461475 0.000014 1.224827
v -0.766485 0.009816 0.562957
v -0.813699 0.009816 0.286925
v 0.460989 0.009817 -1.223594
v 0.586716 0.009817 -1.040602
v 0.829724 0.009817 -0.000141
v -0.689814 0.009816 0.817348
v 0.317547 0.009817 -1.359569
v 0.813782 0.009817 -0.287204
v -0.586632 0.009816 1.040324
v 0.161904 0.009817 -1.443303
v 0.766568 0.009817 -0.563236
v -0.460905 0.009816 1.223316
v 0.000041 0.009817 -1.471575
v 0.689897 0.009817 -0.817628
v -0.317464 0.009816 1.359291
v -0.161822 0.009817 -1.443302
v 0.553043 0.120115 -1.007854
v 0.650302 0.120115 -0.791898
v -0.161821 0.009816 1.443025
v -0.317465 0.009816 -1.359569
v 0.000042 0.009816 1.471297
v -0.460906 0.009816 -1.223593
v 0.161905 0.009816 1.443024
v -0.586633 0.009816 -1.040601
v 0.317548 0.009816 1.359291
v -0.689815 0.009816 -0.817625
v 0.460989 0.009816 1.223315
v -0.766486 0.009816 -0.563233
v 0.586716 0.009816 1.040323
v -0.813699 0.009816 -0.287201
v 0.689898 0.009816 0.817346
v -0.829641 0.009816 -0.000138
v 0.722574 0.120114 0.545231
v 0.650303 0.120114 0.791616
v -0.766994 0.120114 0.277890
v -0.782022 0.120114 -0.000138
v -0.766994 0.120114 -0.278166
v 0.553044 0.120114 1.007575
v -0.722491 0.120114 -0.545510
v 0.434533 0.120114 1.184807
v -0.650220 0.120114 -0.791895
v 0.299325 0.120114 1.316503
v -0.552961 0.120114 -1.007853
v 0.152615 0.120114 1.397602
v -0.434450 0.120114 -1.185086
v 0.000042 0.120114 1.424985
v -0.299241 0.120114 -1.316782
v -0.152531 0.120114 1.397602
v -0.152532 0.120114 -1.397880
v -0.299240 0.120114 1.316504
v 0.000041 0.120115 -1.425263
v -0.434449 0.120114 1.184809
v 0.722573 0.120115 -0.545512
v 0.152614 0.120115 -1.397880
v -0.552960 0.120114 1.007577
v 0.767077 0.120115 -0.278169
v 0.299324 0.120115 -1.316782
v -0.650220 0.120114 0.791618
v 0.782105 0.120115 -0.000141
v 0.434532 0.120115 -1.185087
v -0.722490 0.120114 0.545233
v 0.767078 0.120114 0.277887
v 0.793999 0.009840 0.426995
v 0.744342 0.127620 0.411293
v 0.748429 0.120096 0.413551
v 0.794979 -0.000009 0.427524
v 0.774088 0.127620 0.138784
v 0.825729 0.009840 0.144085
v 0.826749 -0.000009 0.144265
v 0.778339 0.120096 0.139546
v 0.826749 -0.000008 -0.144544
v 0.825729 0.009840 -0.144367
v 0.774088 0.127620 -0.139063
v 0.778339 0.120096 -0.139828
v 0.794979 -0.000008 -0.427803
v 0.748429 0.120096 -0.413833
v 0.744342 0.127620 -0.411572
v 0.793998 0.009840 -0.427277
v 0.689759 0.120097 -0.671940
v 0.685993 0.127620 -0.668270
v 0.731756 0.009841 -0.693772
v 0.732660 -0.000008 -0.694627
v 0.601283 0.127620 -0.899291
v 0.604584 0.120097 -0.904229
v 0.642187 -0.000008 -0.934762
v 0.641394 0.009841 -0.933610
v 0.368703 0.120097 -1.256987
v 0.366690 0.127620 -1.250123
v 0.391634 -0.000008 -1.299434
v 0.391151 0.009841 -1.297830
v 0.496177 0.120097 -1.101775
v 0.527037 -0.000008 -1.138980
v 0.526386 0.009841 -1.137575
v 0.493467 0.127620 -1.095759
v 0.241183 -0.000008 -1.409956
v 0.227062 0.120096 -1.363898
v 0.240885 0.009840 -1.408216
v 0.225822 0.127620 -1.356451
v 0.081364 0.009840 -1.464490
v 0.076697 0.120096 -1.418401
v 0.076278 0.127620 -1.410656
v 0.081465 -0.000008 -1.466299
v -0.076196 0.127620 -1.410655
v -0.081282 0.009840 -1.464490
v -0.076614 0.120096 -1.418401
v -0.081382 -0.000009 -1.466299
v -0.241100 -0.000009 -1.409956
v -0.225740 0.127620 -1.356450
v -0.240803 0.009840 -1.408216
v -0.226980 0.120096 -1.363898
v -0.391552 -0.000009 -1.299433
v -0.368621 0.120096 -1.256986
v -0.366607 0.127620 -1.250122
v -0.391069 0.009840 -1.297830
v -0.526954 -0.000009 -1.138980
v -0.526304 0.009840 -1.137574
v -0.496094 0.120096 -1.101774
v -0.493385 0.127619 -1.095759
v -0.642104 -0.000009 -0.934761
v -0.601200 0.127619 -0.899290
v -0.604502 0.120096 -0.904228
v -0.641312 0.009840 -0.933607
v -0.732577 -0.000009 -0.694626
v -0.685910 0.127619 -0.668269
v -0.689677 0.120096 -0.671938
v -0.731674 0.009840 -0.693769
v -0.794896 -0.000009 -0.427802
v -0.748346 0.120096 -0.413830
v -0.744259 0.127619 -0.411571
v -0.793916 0.009840 -0.427274
v -0.778256 0.120096 -0.139825
v -0.826666 -0.000009 -0.144543
v -0.825646 0.009840 -0.144364
v -0.774005 0.127619 -0.139062
v -0.826666 -0.000009 0.144266
v -0.774005 0.127619 0.138785
v -0.825646 0.009840 0.144088
v -0.778255 0.120096 0.139548
v -0.794896 -0.000009 0.427524
v -0.793915 0.009840 0.426998
v -0.744259 0.127619 0.411294
v -0.748346 0.120096 0.413554
v -0.731673 0.009840 0.693493
v -0.689676 0.120096 0.671661
v -0.732577 -0.000009 0.694348
v -0.685910 0.127619 0.667991
v -0.641312 0.009840 0.933331
v -0.604501 0.120096 0.903951
v -0.601200 0.127619 0.899013
v -0.642104 -0.000009 0.934484
v -0.493384 0.127619 1.095481
v -0.526954 -0.000009 1.138702
v -0.526303 0.009840 1.137297
v -0.496093 0.120096 1.101497
v -0.368620 0.120096 1.256709
v -0.366607 0.127619 1.249845
v -0.391551 -0.000009 1.299155
v -0.391068 0.009840 1.297552
v -0.241100 -0.000009 1.409677
v -0.240802 0.009840 1.407938
v -0.225740 0.127619 1.356172
v -0.226979 0.120096 1.363620
v -0.076195 0.127619 1.410377
v -0.076613 0.120096 1.418123
v -0.081281 0.009840 1.464212
v -0.081382 -0.000009 1.466021
v 0.081365 0.009840 1.464212
v 0.076279 0.127619 1.410377
v 0.081465 -0.000009 1.466021
v 0.076698 0.120096 1.418123
v 0.227063 0.120096 1.363619
v 0.225823 0.127619 1.356172
v 0.240886 0.009840 1.407937
v 0.241183 -0.000009 1.409677
v 0.391152 0.009840 1.297551
v 0.391635 -0.000009 1.299155
v 0.366690 0.127619 1.249845
v 0.368704 0.120096 1.256708
v 0.496178 0.120096 1.101496
v 0.526387 0.009840 1.137296
v 0.493468 0.127619 1.095480
v 0.527037 -0.000009 1.138702
v 0.601283 0.127619 0.899012
v 0.641395 0.009840 0.933329
v 0.604585 0.120096 0.903949
v 0.642187 -0.000009 0.934483
v 0.689760 0.120096 0.671658
v 0.731757 0.009840 0.693490
v 0.732660 -0.000009 0.694348
v 0.685993 0.127620 0.667991
vn 0.9802 -0.1648 -0.1098
vn 0.9851 -0.1630 -0.0547
vn 0.9867 -0.1624 -0.0000
vn -0.0000 -1.0000 -0.0000
vn 0.9629 0.2149 0.1633
vn 0.9510 0.2171 0.2202
vn 0.9593 -0.1719 0.2239
vn 0.9717 -0.1677 0.1661
vn -0.9802 -0.1648 0.1099
vn -0.9851 -0.1630 0.0547
vn -0.9867 -0.1624 -0.0000
vn 0.4081 0.8492 0.3352
vn 0.4580 0.8346 0.3062
vn 0.5016 0.8201 0.2753
vn -0.0000 1.0000 -0.0000
vn -0.6453 0.7606 -0.0704
vn -0.6520 0.7574 -0.0352
vn -0.6542 0.7563 -0.0000
vn -0.6453 0.7606 0.0704
vn -0.6341 0.7660 0.1056
vn -0.6181 0.7734 0.1405
vn 0.6454 0.7606 0.0705
vn 0.6520 0.7574 0.0352
vn 0.6542 0.7563 -0.0000
vn -0.5710 0.7938 0.2094
vn -0.5392 0.8064 0.2428
vn -0.5016 0.8201 0.2753
vn 0.6454 0.7606 -0.0704
vn 0.6341 0.7660 -0.1056
vn 0.6181 0.7734 -0.1405
vn 0.1512 0.8961 -0.4173
vn 0.0764 0.9015 -0.4259
vn -0.0000 0.9034 -0.4289
vn -0.4081 0.8492 0.3352
vn -0.3520 0.8634 0.3614
vn -0.2901 0.8764 0.3844
vn 0.5710 0.7938 -0.2094
vn 0.5392 0.8064 -0.2428
vn 0.5016 0.8201 -0.2753
vn -0.1512 0.8961 -0.4173
vn -0.2229 0.8875 -0.4032
vn -0.2901 0.8764 -0.3844
vn -0.1512 0.8961 0.4172
vn -0.0764 0.9015 0.4259
vn -0.0000 0.9034 0.4288
vn 0.4081 0.8492 -0.3352
vn 0.3521 0.8634 -0.3614
vn 0.2901 0.8764 -0.3844
vn -0.4081 0.8492 -0.3352
vn -0.4580 0.8345 -0.3062
vn -0.5016 0.8201 -0.2753
vn 0.1512 0.8961 0.4172
vn 0.2229 0.8876 0.4032
vn 0.2901 0.8764 0.3844
vn 0.9802 -0.1648 0.1099
vn 0.9198 -0.1843 0.3463
vn 0.8907 -0.1927 0.4118
vn 0.8532 -0.2025 0.4807
vn -0.9802 -0.1648 -0.1099
vn -0.9717 -0.1677 -0.1661
vn -0.9593 -0.1719 -0.2239
vn 0.7446 -0.2266 0.6279
vn 0.6681 -0.2404 0.7042
vn 0.5728 -0.2546 0.7792
vn -0.9198 -0.1843 -0.3463
vn -0.8907 -0.1927 -0.4118
vn -0.8532 -0.2025 -0.4807
vn 0.3196 -0.2798 0.9053
vn 0.1649 -0.2877 0.9434
vn -0.0000 -0.2905 0.9569
vn -0.7446 -0.2266 -0.6279
vn -0.6681 -0.2404 -0.7042
vn -0.5728 -0.2546 -0.7792
vn 0.7446 -0.2266 -0.6279
vn 0.8053 -0.2139 -0.5529
vn 0.8532 -0.2025 -0.4807
vn -0.3196 -0.2798 0.9053
vn -0.4567 -0.2682 0.8482
vn -0.5728 -0.2546 0.7791
vn -0.3196 -0.2798 -0.9053
vn -0.1649 -0.2877 -0.9434
vn -0.0000 -0.2905 -0.9569
vn 0.9198 -0.1843 -0.3463
vn 0.9423 -0.1774 -0.2838
vn 0.9593 -0.1719 -0.2239
vn 0.3196 -0.2798 -0.9053
vn 0.4567 -0.2682 -0.8482
vn 0.5728 -0.2546 -0.7792
vn -0.9198 -0.1843 0.3463
vn -0.9423 -0.1774 0.2838
vn -0.9593 -0.1719 0.2239
vn 0.5710 0.7938 0.2094
vn 0.5972 0.7827 0.1752
vn 0.6182 0.7734 0.1405
vn -0.5710 0.7938 -0.2094
vn -0.5972 0.7828 -0.1752
vn -0.6181 0.7734 -0.1405
vn -0.7446 -0.2266 0.6279
vn -0.8053 -0.2139 0.5529
vn -0.8532 -0.2025 0.4807
vn -0.9629 0.2149 0.1633
vn -0.9710 0.2134 0.1080
vn -0.9717 -0.1677 0.1661
vn 0.8034 0.2375 -0.5461
vn 0.8494 0.2320 -0.4740
vn 0.9757 0.2125 0.0537
vn 0.9710 0.2134 0.1080
vn 0.9851 -0.1630 0.0547
vn -0.9347 0.2198 0.2792
vn -0.9510 0.2171 0.2202
vn 0.6702 0.2504 -0.6987
vn 0.7447 0.2437 -0.6214
vn 0.6681 -0.2404 -0.7042
vn 0.9757 0.2125 -0.0537
vn 0.9772 0.2122 -0.0000
vn -0.8853 0.2273 0.4057
vn -0.9132 0.2232 0.3408
vn -0.8907 -0.1927 0.4118
vn 0.4614 0.2646 -0.8468
vn 0.5766 0.2576 -0.7754
vn 0.9629 0.2149 -0.1633
vn 0.9710 0.2134 -0.1080
vn 0.9717 -0.1677 -0.1661
vn -0.8034 0.2375 0.5461
vn -0.8494 0.2320 0.4740
vn 0.1675 0.2750 -0.9467
vn 0.3239 0.2707 -0.9065
vn 0.1649 -0.2877 -0.9434
vn 0.9347 0.2199 -0.2792
vn 0.9510 0.2171 -0.2202
vn -0.6701 0.2504 0.6987
vn -0.7447 0.2437 0.6214
vn -0.6681 -0.2404 0.7042
vn -0.1676 0.2750 -0.9467
vn -0.0000 0.2765 -0.9610
vn 0.8077 0.4587 -0.3703
vn 0.8351 0.4535 -0.3115
vn -0.4614 0.2646 0.8468
vn -0.5766 0.2576 0.7754
vn -0.4614 0.2646 -0.8468
vn -0.3239 0.2707 -0.9065
vn -0.4567 -0.2682 -0.8482
vn -0.1675 0.2750 0.9467
vn -0.3239 0.2707 0.9065
vn -0.1649 -0.2877 0.9434
vn -0.6702 0.2504 -0.6987
vn -0.5766 0.2576 -0.7754
vn 0.1676 0.2750 0.9467
vn -0.0000 0.2765 0.9610
vn -0.8034 0.2375 -0.5461
vn -0.7447 0.2437 -0.6214
vn -0.8053 -0.2139 -0.5529
vn 0.4614 0.2646 0.8468
vn 0.3239 0.2707 0.9065
vn 0.4567 -0.2682 0.8482
vn -0.8853 0.2273 -0.4057
vn -0.8494 0.2320 -0.4740
vn 0.6702 0.2504 0.6987
vn 0.5766 0.2576 0.7754
vn -0.9347 0.2198 -0.2792
vn -0.9132 0.2232 -0.3408
vn -0.9423 -0.1774 -0.2838
vn 0.8034 0.2375 0.5461
vn 0.7447 0.2436 0.6214
vn 0.8053 -0.2139 0.5529
vn -0.9629 0.2150 -0.1633
vn -0.9510 0.2171 -0.2202
vn 0.8853 0.2273 0.4056
vn 0.8494 0.2321 0.4740
vn -0.9757 0.2125 -0.0537
vn -0.9710 0.2134 -0.1080
vn -0.9851 -0.1630 -0.0547
vn 0.8561 0.4492 0.2554
vn 0.8351 0.4534 0.3115
vn -0.8962 0.4409 0.0492
vn -0.6520 0.7574 0.0352
vn -0.8977 0.4406 -0.0000
vn -0.9757 0.2125 0.0537
vn -0.9772 0.2122 -0.0000
vn 0.9347 0.2199 0.2792
vn 0.9132 0.2233 0.3408
vn -0.8916 0.4419 -0.0989
vn -0.8962 0.4409 -0.0492
vn 0.5392 0.8064 0.2428
vn 0.7727 0.4653 0.4319
vn 0.8077 0.4587 0.3703
vn -0.6341 0.7660 -0.1056
vn -0.8721 0.4460 -0.2015
vn -0.8837 0.4436 -0.1495
vn 0.6715 0.4825 0.5624
vn 0.7280 0.4732 0.4961
vn -0.8351 0.4535 -0.3115
vn -0.8561 0.4493 -0.2554
vn 0.3521 0.8634 0.3615
vn 0.5133 0.5044 0.6943
vn 0.6007 0.4931 0.6293
vn -0.5392 0.8064 -0.2428
vn -0.7727 0.4653 -0.4319
vn -0.8077 0.4587 -0.3703
vn 0.2844 0.5255 0.8019
vn 0.4077 0.5157 0.7535
vn -0.6715 0.4825 -0.5624
vn -0.7280 0.4732 -0.4961
vn 0.0764 0.9015 0.4259
vn -0.0000 0.5347 0.8451
vn 0.1464 0.5322 0.8338
vn -0.3521 0.8634 -0.3615
vn -0.5133 0.5044 -0.6943
vn -0.6007 0.4930 -0.6293
vn -0.2844 0.5255 0.8019
vn -0.1464 0.5322 0.8338
vn -0.2844 0.5255 -0.8019
vn -0.4077 0.5157 -0.7535
vn -0.2229 0.8876 0.4032
vn -0.5133 0.5044 0.6943
vn -0.4077 0.5157 0.7535
vn 0.8853 0.2273 -0.4057
vn 0.9132 0.2232 -0.3408
vn -0.0764 0.9015 -0.4259
vn -0.0000 0.5347 -0.8451
vn -0.1464 0.5322 -0.8338
vn -0.6715 0.4825 0.5624
vn -0.6007 0.4931 0.6293
vn 0.5972 0.7828 -0.1752
vn 0.8721 0.4460 -0.2015
vn 0.8561 0.4492 -0.2554
vn 0.2844 0.5255 -0.8019
vn 0.1464 0.5322 -0.8338
vn -0.4580 0.8345 0.3062
vn -0.7727 0.4653 0.4319
vn -0.7280 0.4732 0.4961
vn 0.8916 0.4419 -0.0989
vn 0.8837 0.4436 -0.1495
vn 0.2229 0.8876 -0.4032
vn 0.5133 0.5044 -0.6943
vn 0.4077 0.5157 -0.7535
vn -0.8351 0.4535 0.3115
vn -0.8077 0.4587 0.3703
vn 0.6520 0.7574 -0.0352
vn 0.8977 0.4406 -0.0000
vn 0.8962 0.4409 -0.0492
vn 0.6715 0.4825 -0.5624
vn 0.6007 0.4931 -0.6293
vn -0.5971 0.7828 0.1752
vn -0.8721 0.4460 0.2015
vn -0.8561 0.4493 0.2554
vn 0.8916 0.4419 0.0989
vn 0.8962 0.4409 0.0492
vn 0.4580 0.8345 -0.3062
vn 0.7727 0.4653 -0.4319
vn 0.7280 0.4732 -0.4961
vn -0.8916 0.4419 0.0989
vn -0.8837 0.4436 0.1495
vn 0.6341 0.7660 0.1056
vn 0.8721 0.4460 0.2015
vn 0.8837 0.4436 0.1495
vn 0.8907 -0.1927 -0.4118
vn 0.9423 -0.1774 0.2838
vt 0.500004 0.500001
vt 0.500004 0.500000
vt 0.500002 0.500000
vt 0.499996 0.499999
vt 0.499996 0.499998
vt 0.500001 0.499999
vt 0.500001 0.500000
vt 0.499997 0.499996
vt 0.499997 0.499997
vt 0.499996 0.499997
vt 0.499998 0.500000
vt 0.499999 0.500001
vt 0.499999 0.500000
vt 0.499999 0.499999
vt 0.499996 0.500000
vt 0.499999 0.499998
vt 0.499999 0.499997
vt 0.499996 0.500001
vt 0.499997 0.500004
vt 0.499998 0.499996
vt 0.499996 0.500002
vt 0.499996 0.500003
vt 0.499998 0.500004
vt 0.499997 0.500003
vt 0.499999 0.500003
vt 0.500004 0.499999
vt 0.500004 0.499997
vt 0.500001 0.500001
vt 0.500001 0.500002
vt 0.500003 0.499996
vt 0.500001 0.500003
vt 0.500002 0.499996
vt 0.500002 0.500004
vt 0.500004 0.500003
vt 0.500003 0.500004
vt 0.500004 0.500002
vt 0.500001 0.499998
vt 0.499999 0.500002
vt 0.500001 0.499997
s 1
usemtl None.012
f 1/1/1 139/2/2 2/2/3 3/3/4
f 131/4/5 6/5/6 7/5/7 134/4/8
f 9/6/9 203/7/10 10/7/11 3/3/4
f 12/8/12 249/9/13 13/10/14 14/11/15
f 16/12/16 202/12/17 17/13/18 14/11/15
f 19/14/19 209/14/20 20/14/21 14/11/15
f 21/4/22 135/4/23 22/15/24 14/11/15
f 24/16/25 217/16/26 25/17/27 14/11/15
f 26/18/28 145/18/29 27/18/30 14/11/15
f 28/19/31 169/19/32 29/19/33 14/11/15
f 31/17/34 224/20/35 32/20/36 14/11/15
f 33/21/37 151/21/38 34/22/39 14/11/15
f 35/23/40 176/23/41 36/23/42 14/11/15
f 37/20/43 231/20/44 38/20/45 14/11/15
f 39/24/46 156/19/47 30/19/48 14/11/15
f 40/23/49 186/25/50 41/25/51 14/11/15
f 42/8/52 240/8/53 15/8/54 14/11/15
f 8/26/55 134/4/8 7/5/7 3/3/4
f 43/27/56 254/27/57 44/27/58 3/3/4
f 45/28/59 195/28/60 46/29/61 3/3/4
f 47/30/62 244/30/63 48/30/64 3/3/4
f 49/31/65 187/31/66 50/31/67 3/3/4
f 51/30/68 237/30/69 52/32/70 3/3/4
f 53/33/71 179/33/72 54/33/73 3/3/4
f 55/34/74 160/34/75 56/34/76 3/3/4
f 58/32/77 227/32/78 59/32/79 3/3/4
f 60/33/80 174/33/81 61/35/82 3/3/4
f 62/36/83 150/36/84 4/1/85 3/3/4
f 63/35/86 163/35/87 57/35/88 3/3/4
f 64/37/89 213/37/90 11/6/91 3/3/4
f 66/5/92 258/5/93 23/5/94 14/11/15
f 67/38/95 192/38/96 18/38/97 14/11/15
f 68/39/98 220/39/99 65/39/100 3/3/4
f 208/14/101 70/14/102 9/6/9 207/14/103
f 161/22/104 72/22/105 56/34/76 160/34/75
f 136/4/106 5/4/107 8/26/55 137/4/108
f 211/16/109 69/14/110 11/6/91 213/37/90
f 158/19/111 71/24/112 55/34/74 157/19/113
f 140/15/114 73/15/115 2/2/3 139/2/2
f 215/17/116 74/16/117 64/37/89 218/17/118
f 165/19/119 75/19/120 57/35/88 163/35/87
f 146/18/121 76/18/122 1/1/1 143/18/123
f 221/17/124 77/17/125 65/39/100 220/39/99
f 167/19/126 78/19/127 63/35/86 170/19/128
f 149/21/129 79/18/130 4/1/85 150/36/84
f 226/20/131 80/17/132 68/39/98 225/20/133
f 172/23/134 81/19/135 61/35/82 174/33/81
f 152/21/136 151/21/38 33/21/37 86/21/137
f 228/20/138 83/20/139 59/32/79 227/32/78
f 177/23/140 84/23/141 60/33/80 175/23/142
f 233/20/143 87/20/144 58/32/77 234/20/145
f 182/23/146 88/23/147 54/33/73 179/33/72
f 235/8/148 89/20/149 52/32/70 237/30/69
f 184/25/150 90/23/151 53/33/71 183/25/152
f 241/8/153 91/8/154 51/30/68 242/8/155
f 190/25/156 92/25/157 50/31/67 187/31/66
f 243/8/158 93/8/159 48/30/64 244/30/63
f 194/38/160 94/25/161 49/31/65 191/38/162
f 248/9/163 95/8/164 47/30/62 250/9/165
f 198/12/166 96/38/167 46/29/61 195/28/60
f 252/10/168 97/10/169 44/27/58 254/27/57
f 201/12/170 98/12/171 45/28/59 200/12/172
f 255/5/173 258/5/93 66/5/92 102/5/174
f 206/13/175 204/13/176 17/13/18 104/13/177
f 205/13/178 206/13/175 104/13/177 100/13/179
f 256/5/180 255/5/173 102/5/174 99/10/181
f 202/12/17 16/12/16 105/12/182 199/12/183
f 251/10/184 13/10/14 106/10/185 253/10/186
f 197/12/187 18/38/97 107/38/188 196/12/189
f 249/9/13 12/8/12 108/8/190 247/9/191
f 192/38/96 67/38/95 109/38/192 193/38/193
f 245/8/194 15/8/54 110/8/195 246/8/196
f 188/25/197 41/25/51 111/25/198 189/25/199
f 240/8/53 42/8/52 112/8/200 239/8/201
f 186/25/50 40/23/49 113/23/202 185/25/203
f 236/8/204 38/20/45 114/20/205 238/8/206
f 181/23/207 36/23/42 115/23/208 180/23/209
f 231/20/44 37/20/43 116/20/210 232/20/211
f 176/23/41 35/23/40 117/23/212 178/23/213
f 229/20/214 32/20/36 118/20/215 230/20/216
f 154/22/217 152/21/136 86/21/137 82/21/218
f 171/23/219 29/19/33 119/19/220 173/23/221
f 224/20/35 31/17/34 120/17/222 223/20/223
f 148/21/224 27/18/30 121/18/225 147/21/226
f 169/19/32 28/19/31 122/19/227 168/19/228
f 219/17/229 25/17/27 123/17/230 222/17/231
f 145/18/29 26/18/28 124/18/232 144/18/233
f 166/19/234 30/19/48 125/19/235 164/19/236
f 217/16/26 24/16/25 126/16/237 216/16/238
f 141/15/239 22/15/24 127/15/240 142/15/241
f 156/19/47 39/24/46 128/24/242 155/19/243
f 214/16/244 20/14/21 129/14/245 212/16/246
f 135/4/23 21/4/22 130/4/247 138/4/248
f 162/22/249 34/22/39 85/22/250 159/22/251
f 209/14/20 19/14/19 103/14/252 210/14/253
f 132/4/254 23/5/94 101/5/255 133/4/256
f 153/22/257 154/22/217 82/21/218 62/36/83
f 257/5/258 256/5/180 99/10/181 43/27/56
f 203/7/10 205/13/178 100/13/179 10/7/11
f 199/12/183 105/12/182 98/12/171 201/12/170
f 253/10/186 106/10/185 97/10/169 252/10/168
f 196/12/189 107/38/188 96/38/167 198/12/166
f 247/9/191 108/8/190 95/8/164 248/9/163
f 193/38/193 109/38/192 94/25/161 194/38/160
f 246/8/196 110/8/195 93/8/159 243/8/158
f 189/25/199 111/25/198 92/25/157 190/25/156
f 239/8/201 112/8/200 91/8/154 241/8/153
f 185/25/203 113/23/202 90/23/151 184/25/150
f 238/8/206 114/20/205 89/20/149 235/8/148
f 180/23/209 115/23/208 88/23/147 182/23/146
f 232/20/211 116/20/210 87/20/144 233/20/143
f 178/23/213 117/23/212 84/23/141 177/23/140
f 230/20/216 118/20/215 83/20/139 228/20/138
f 173/23/221 119/19/220 81/19/135 172/23/134
f 223/20/223 120/17/222 80/17/132 226/20/131
f 147/21/226 121/18/225 79/18/130 149/21/129
f 168/19/228 122/19/227 78/19/127 167/19/126
f 222/17/231 123/17/230 77/17/125 221/17/124
f 144/18/233 124/18/232 76/18/122 146/18/121
f 164/19/236 125/19/235 75/19/120 165/19/119
f 216/16/238 126/16/237 74/16/117 215/17/116
f 142/15/241 127/15/240 73/15/115 140/15/114
f 155/19/243 128/24/242 71/24/112 158/19/111
f 212/16/246 129/14/245 69/14/110 211/16/109
f 138/4/248 130/4/247 5/4/107 136/4/106
f 159/22/251 85/22/250 72/22/105 161/22/104
f 210/14/253 103/14/252 70/14/102 208/14/101
f 133/4/256 101/5/255 6/5/6 131/4/5
f 27/18/30 148/21/224 33/21/37 14/11/15
f 56/34/76 153/22/257 62/36/83 3/3/4
f 57/35/88 157/19/113 55/34/74 3/3/4
f 34/22/39 162/22/249 39/24/46 14/11/15
f 30/19/48 166/19/234 28/19/31 14/11/15
f 61/35/82 170/19/128 63/35/86 3/3/4
f 50/31/67 183/25/152 53/33/71 3/3/4
f 36/23/42 181/23/207 40/23/49 14/11/15
f 41/25/51 188/25/197 67/38/95 14/11/15
f 46/29/61 191/38/162 49/31/65 3/3/4
f 18/38/97 197/12/187 16/12/16 14/11/15
f 10/7/11 200/12/172 45/28/59 3/3/4
f 17/13/18 204/13/176 19/14/19 14/11/15
f 11/6/91 207/14/103 9/6/9 3/3/4
f 20/14/21 214/16/244 24/16/25 14/11/15
f 65/39/100 218/17/118 64/37/89 3/3/4
f 25/17/27 219/17/229 31/17/34 14/11/15
f 59/32/79 225/20/133 68/39/98 3/3/4
f 32/20/36 229/20/214 37/20/43 14/11/15
f 52/32/70 234/20/145 58/32/77 3/3/4
f 38/20/45 236/8/204 42/8/52 14/11/15
f 48/30/64 242/8/155 51/30/68 3/3/4
f 15/8/54 245/8/194 12/8/12 14/11/15
f 44/27/58 250/9/165 47/30/62 3/3/4
f 13/10/14 251/10/184 66/5/92 14/11/15
f 7/5/7 257/5/258 43/27/56 3/3/4
f 23/5/94 132/4/254 21/4/22 14/11/15
f 2/2/3 137/4/108 8/26/55 3/3/4
f 22/15/24 141/15/239 26/18/28 14/11/15
f 4/1/85 143/18/123 1/1/1 3/3/4
f 54/33/73 175/23/142 60/33/80 3/3/4
f 29/19/33 171/23/219 35/23/40 14/11/15
f 130/4/247 133/4/256 131/4/5 5/4/107
f 21/4/22 132/4/254 133/4/256 130/4/247
f 5/4/107 131/4/5 134/4/8 8/26/55
f 127/15/240 138/4/248 136/4/106 73/15/115
f 22/15/24 135/4/23 138/4/248 127/15/240
f 73/15/115 136/4/106 137/4/108 2/2/3
f 124/18/232 142/15/241 140/15/114 76/18/122
f 26/18/28 141/15/239 142/15/241 124/18/232
f 76/18/122 140/15/114 139/2/2 1/1/1
f 121/18/225 144/18/233 146/18/121 79/18/130
f 27/18/30 145/18/29 144/18/233 121/18/225
f 79/18/130 146/18/121 143/18/123 4/1/85
f 86/21/137 147/21/226 149/21/129 82/21/218
f 33/21/37 148/21/224 147/21/226 86/21/137
f 82/21/218 149/21/129 150/36/84 62/36/83
f 56/34/76 72/22/105 154/22/217 153/22/257
f 72/22/105 85/22/250 152/21/136 154/22/217
f 85/22/250 34/22/39 151/21/38 152/21/136
f 125/19/235 155/19/243 158/19/111 75/19/120
f 30/19/48 156/19/47 155/19/243 125/19/235
f 75/19/120 158/19/111 157/19/113 57/35/88
f 128/24/242 159/22/251 161/22/104 71/24/112
f 39/24/46 162/22/249 159/22/251 128/24/242
f 71/24/112 161/22/104 160/34/75 55/34/74
f 122/19/227 164/19/236 165/19/119 78/19/127
f 28/19/31 166/19/234 164/19/236 122/19/227
f 78/19/127 165/19/119 163/35/87 63/35/86
f 119/19/220 168/19/228 167/19/126 81/19/135
f 29/19/33 169/19/32 168/19/228 119/19/220
f 81/19/135 167/19/126 170/19/128 61/35/82
f 117/23/212 173/23/221 172/23/134 84/23/141
f 35/23/40 171/23/219 173/23/221 117/23/212
f 84/23/141 172/23/134 174/33/81 60/33/80
f 115/23/208 178/23/213 177/23/140 88/23/147
f 36/23/42 176/23/41 178/23/213 115/23/208
f 88/23/147 177/23/140 175/23/142 54/33/73
f 113/23/202 180/23/209 182/23/146 90/23/151
f 40/23/49 181/23/207 180/23/209 113/23/202
f 90/23/151 182/23/146 179/33/72 53/33/71
f 111/25/198 185/25/203 184/25/150 92/25/157
f 41/25/51 186/25/50 185/25/203 111/25/198
f 92/25/157 184/25/150 183/25/152 50/31/67
f 109/38/192 189/25/199 190/25/156 94/25/161
f 67/38/95 188/25/197 189/25/199 109/38/192
f 94/25/161 190/25/156 187/31/66 49/31/65
f 107/38/188 193/38/193 194/38/160 96/38/167
f 18/38/97 192/38/96 193/38/193 107/38/188
f 96/38/167 194/38/160 191/38/162 46/29/61
f 105/12/182 196/12/189 198/12/166 98/12/171
f 16/12/16 197/12/187 196/12/189 105/12/182
f 98/12/171 198/12/166 195/28/60 45/28/59
f 104/13/177 199/12/183 201/12/170 100/13/179
f 17/13/18 202/12/17 199/12/183 104/13/177
f 100/13/179 201/12/170 200/12/172 10/7/11
f 9/6/9 70/14/102 205/13/178 203/7/10
f 70/14/102 103/14/252 206/13/175 205/13/178
f 103/14/252 19/14/19 204/13/176 206/13/175
f 129/14/245 210/14/253 208/14/101 69/14/110
f 20/14/21 209/14/20 210/14/253 129/14/245
f 69/14/110 208/14/101 207/14/103 11/6/91
f 126/16/237 212/16/246 211/16/109 74/16/117
f 24/16/25 214/16/244 212/16/246 126/16/237
f 74/16/117 211/16/109 213/37/90 64/37/89
f 123/17/230 216/16/238 215/17/116 77/17/125
f 25/17/27 217/16/26 216/16/238 123/17/230
f 77/17/125 215/17/116 218/17/118 65/39/100
f 120/17/222 222/17/231 221/17/124 80/17/132
f 31/17/34 219/17/229 222/17/231 120/17/222
f 80/17/132 221/17/124 220/39/99 68/39/98
f 118/20/215 223/20/223 226/20/131 83/20/139
f 32/20/36 224/20/35 223/20/223 118/20/215
f 83/20/139 226/20/131 225/20/133 59/32/79
f 116/20/210 230/20/216 228/20/138 87/20/144
f 37/20/43 229/20/214 230/20/216 116/20/210
f 87/20/144 228/20/138 227/32/78 58/32/77
f 114/20/205 232/20/211 233/20/143 89/20/149
f 38/20/45 231/20/44 232/20/211 114/20/205
f 89/20/149 233/20/143 234/20/145 52/32/70
f 112/8/200 238/8/206 235/8/148 91/8/154
f 42/8/52 236/8/204 238/8/206 112/8/200
f 91/8/154 235/8/148 237/30/69 51/30/68
f 110/8/195 239/8/201 241/8/153 93/8/159
f 15/8/54 240/8/53 239/8/201 110/8/195
f 93/8/159 241/8/153 242/8/155 48/30/64
f 108/8/190 246/8/196 243/8/158 95/8/164
f 12/8/12 245/8/194 246/8/196 108/8/190
f 95/8/164 243/8/158 244/30/63 47/30/62
f 106/10/185 247/9/191 248/9/163 97/10/169
f 13/10/14 249/9/13 247/9/191 106/10/185
f 97/10/169 248/9/163 250/9/165 44/27/58
f 102/5/174 253/10/186 252/10/168 99/10/181
f 66/5/92 251/10/184 253/10/186 102/5/174
f 99/10/181 252/10/168 254/27/57 43/27/56
f 7/5/7 6/5/6 256/5/180 257/5/258
f 6/5/6 101/5/255 255/5/173 256/5/180
f 101/5/255 23/5/94 258/5/93 255/5/173
