# Blender v2.93.1 OBJ File: 'telemon photoscan.blend'
# www.blender.org
o Caestus_R_a.001_a.010
v 1.003473 3.006572 -0.223089
v 1.124878 3.062701 -0.207839
v 1.074954 2.985029 -0.121954
v 0.972770 2.962460 -0.155952
v 1.768906 2.579229 -0.316756
v 1.740313 2.514780 -0.319606
v 1.798575 2.629126 -0.297095
v 1.165283 3.018445 -0.096520
v 0.992271 2.966493 -0.159978
v 1.474711 2.684919 -0.414864
v 1.451806 2.673720 -0.400779
v 1.493663 2.702942 -0.510985
v 0.805922 2.718112 0.213883
v 0.889225 2.766006 0.369020
v 0.841867 2.800300 0.292449
v 0.853484 2.885597 0.322523
v 0.902722 2.919921 0.424734
v 0.865698 2.966358 0.348625
v 1.727323 2.720966 -0.228203
v 1.741056 2.798318 -0.227260
v 1.695171 2.788372 -0.184085
v 0.974185 2.477503 -0.117383
v 0.989828 2.468825 -0.092304
v 0.935699 2.531835 -0.114318
v 1.487255 2.204448 -0.255608
v 1.487687 2.204547 -0.251392
v 1.519308 2.248687 -0.247902
v 1.124542 2.908885 -0.377750
v 1.175753 2.996030 -0.307896
v 1.195529 2.945402 -0.368238
v 1.286904 2.263880 -0.409716
v 1.258104 2.223757 -0.425387
v 1.138565 2.233468 -0.386766
v 0.899076 2.698277 0.216696
v 0.958830 2.601146 0.200308
v 0.890454 2.703121 0.279557
v 0.909712 3.273997 0.443932
v 0.887745 3.192448 0.362861
v 0.893778 3.216377 0.455810
v 1.251609 3.244273 0.349485
v 1.188187 3.154777 0.318110
v 1.261445 3.137146 0.398742
v 1.594900 2.199960 -0.324333
v 1.587072 2.276661 -0.306579
v 1.645994 2.298844 -0.317753
v 0.934016 2.825155 0.479836
v 0.982171 2.913355 0.569326
v 1.677076 2.358309 -0.594654
v 1.618277 2.472280 -0.571317
v 1.649319 2.450992 -0.541763
v 0.987613 2.447303 -0.118513
v 1.000655 2.447210 -0.095397
v 0.987788 2.462843 -0.106721
v 1.140005 2.230259 -0.120139
v 1.153038 2.258228 -0.087923
v 1.095351 2.232692 -0.202523
v 1.531138 2.163707 -0.126914
v 1.501024 2.294593 -0.121494
v 1.527132 2.165683 -0.144017
v 1.215180 2.109703 -0.268077
v 1.223619 2.167878 -0.411225
v 1.259817 2.141819 -0.278272
v 1.549888 2.369789 -0.403170
v 1.510940 2.407117 -0.431391
v 1.555264 2.314638 -0.437584
v 1.124632 2.278516 -0.108325
v 1.140613 2.266950 -0.146177
v 1.126763 2.202615 -0.193944
v 1.295169 2.196387 -0.348993
v 1.309620 2.176027 -0.287988
v 1.387319 2.495547 -0.253678
v 1.283812 2.435279 -0.336971
v 1.274450 2.537554 -0.306889
v 1.555425 2.245207 -0.289687
v 1.504035 2.203550 -0.274028
v 1.478492 2.147052 -0.179925
v 1.485609 2.149678 -0.201377
v 1.472848 2.151159 -0.195889
v 1.470799 2.153900 -0.213341
v 1.459086 3.121412 0.134254
v 1.475896 3.032959 0.058689
v 1.438202 3.185554 0.061076
v 1.583274 2.789779 0.215838
v 1.530036 2.707732 0.273171
v 1.616836 2.786228 0.168445
v 1.624301 2.974119 -0.264380
v 1.591321 2.868107 -0.342502
v 1.580873 2.920041 -0.288257
v 1.220367 3.024992 0.488793
v 1.244991 3.124803 0.569428
v 1.242685 3.099536 0.508284
v 1.768906 2.579230 -0.316756
v 1.691796 2.512956 -0.234767
v 1.740313 2.514781 -0.319606
v 1.044789 2.551855 0.199788
v 1.050074 2.516089 0.189569
v 1.117900 2.511614 0.220648
v 0.991917 2.974664 0.568087
v 1.117987 3.044940 0.523362
v 0.933588 3.034332 0.554590
v 1.161698 2.516472 0.201624
v 1.137815 2.439817 0.186965
v 1.256658 2.488912 0.195407
v 1.703132 2.337456 -0.023421
v 1.681001 2.407460 -0.023140
v 1.656993 2.367788 0.031790
v 1.327683 2.255392 -0.260678
v 1.327378 2.172376 -0.233448
v 1.297427 2.181138 -0.269518
v 1.394745 2.996575 0.248580
v 1.454927 2.979810 0.141379
v 1.447364 3.024332 0.276027
v 1.141617 2.681970 0.453502
v 1.180853 2.635393 0.383106
v 1.209833 2.678062 0.393820
v 1.315691 3.025761 0.604445
v 1.415955 2.956662 0.574059
v 1.711892 2.362597 -0.355982
v 1.716694 2.336482 -0.329600
v 1.521752 2.643593 0.257419
v 1.571503 2.681738 0.218794
v 1.264356 2.932074 0.479042
v 1.294912 2.908205 0.471941
v 1.500257 2.176912 -0.317820
v 1.518722 2.188744 -0.308052
v 1.579491 2.201366 -0.273402
v 1.287605 3.161918 0.450406
v 1.253098 3.277515 0.490982
v 1.272768 3.258308 0.431021
v 0.849525 3.104922 0.374212
v 0.839164 3.064414 0.412477
v 0.897070 3.090852 0.450052
v 0.846208 2.830215 0.260181
v 0.880764 2.782524 0.198422
v 0.848119 2.811586 0.273591
v 0.872031 3.010145 0.402235
v 0.820417 3.015738 0.371643
v 1.553310 2.431180 0.163164
v 1.331620 2.362210 0.147915
v 1.521919 2.366018 0.051082
v 1.005426 2.455765 -0.138651
v 0.992751 2.458949 -0.121679
v 0.981480 2.477219 -0.132041
v 1.508824 2.163648 -0.190366
v 1.491354 2.143048 -0.174236
v 1.366789 2.463886 0.250664
v 1.494422 2.434681 0.186611
v 1.419748 2.509889 0.267908
v 1.075201 2.616714 -0.396061
v 1.170164 2.631619 -0.384730
v 1.149305 2.602290 -0.386370
v 0.937326 2.658584 0.103797
v 0.919506 2.687064 -0.015177
v 0.931878 2.614583 -0.023322
v 1.570756 2.325623 -0.614200
v 1.591418 2.228672 -0.495825
v 1.508064 2.392316 -0.578679
v 1.245657 3.195461 0.664826
v 1.191696 3.335309 0.619409
v 1.231876 3.171726 0.622784
v 1.443116 2.486641 0.231980
v 1.540632 2.539110 0.212997
v 1.058920 2.406286 -0.016047
v 1.029522 2.431065 -0.045486
v 1.043751 2.417424 -0.032798
v 1.044739 2.410340 -0.060311
v 0.885779 2.740716 0.214344
v 1.502592 2.138993 -0.155819
v 1.517982 2.164402 -0.167009
v 1.124858 2.329730 -0.145551
v 1.111436 2.368141 0.024659
v 1.053704 2.421293 -0.294944
v 1.074030 2.407145 -0.130108
v 1.057818 2.488848 -0.268200
v 1.488871 2.461408 -0.532441
v 1.190045 2.142879 -0.250320
v 1.196622 2.135304 -0.215777
v 1.081459 2.303919 -0.335741
v 0.858517 2.914937 0.112863
v 0.889047 2.852892 0.076946
v 0.877517 2.843207 0.202062
v 0.945320 2.699427 0.177170
v 1.001866 2.462023 -0.064330
v 1.530847 2.156417 -0.131954
v 1.517478 2.158394 -0.130913
v 1.518758 2.151512 -0.139072
v 1.134778 2.634376 0.369712
v 1.728951 2.889628 -0.234796
v 1.718696 2.882344 -0.184818
v 1.471456 3.034758 -0.220018
v 1.512515 2.927506 -0.335984
v 1.461443 2.973308 -0.325243
v 1.439584 3.106720 0.447324
v 1.467964 3.040403 0.397483
v 1.465994 3.024983 0.341197
v 1.364161 3.211061 0.538274
v 1.384291 3.117873 0.588962
v 1.258646 2.427322 0.210944
v 1.701686 2.335435 -0.457034
v 1.636713 2.290595 -0.424615
v 1.717013 2.264827 -0.506396
v 1.772936 2.684545 0.073522
v 1.709980 2.771715 0.113840
v 1.692205 2.660051 0.090739
v 1.521940 3.046405 -0.081874
v 1.569903 3.013145 -0.065823
v 1.556265 2.971101 -0.218239
v 1.533510 2.857356 -0.394449
v 1.493663 2.702942 -0.510985
v 1.396830 2.772148 -0.478682
v 1.320689 3.280084 0.356650
v 1.339953 2.890013 0.330404
v 1.375057 2.818863 0.275006
v 1.386858 2.878113 0.260883
v 1.085575 2.840450 -0.372544
v 1.013705 2.945117 -0.256315
v 1.107816 2.932838 -0.325921
v 1.654145 2.149175 -0.148653
v 1.571560 2.090633 -0.262326
v 1.664009 2.211757 -0.219883
v 1.660187 2.874466 0.008599
v 1.711273 2.765476 -0.086693
v 1.669067 2.848311 -0.062546
v 0.971072 3.146626 0.528023
v 1.871081 2.605770 -0.122897
v 1.905731 2.493625 -0.207934
v 1.867775 2.546149 -0.217150
v 1.071737 2.394463 -0.087676
v 1.238898 3.015263 -0.316050
v 0.933186 2.653709 -0.231175
v 0.986035 2.513547 -0.255614
v 0.918496 2.645643 -0.204878
v 1.734212 2.843834 -0.297754
v 1.705873 2.818327 -0.363288
v 1.647282 2.794672 -0.369266
v 1.248417 2.747118 0.416357
v 1.116158 2.804638 0.575870
v 0.933371 2.866610 -0.085166
v 0.921682 2.796099 0.074482
v 0.902551 2.879437 0.038084
v 1.229617 2.691026 -0.392774
v 1.282468 2.643026 -0.427441
v 1.590870 2.955133 0.046221
v 1.515754 3.039958 0.013995
v 1.075614 2.517845 -0.263298
v 1.003469 2.584013 -0.318800
v 1.404266 3.162318 0.121919
v 1.409075 3.245031 0.045854
v 1.393564 3.152773 0.209560
v 1.850689 2.617083 -0.342403
v 1.798575 2.629126 -0.297095
v 1.852144 2.474166 -0.231738
v 1.913031 2.446114 -0.137696
v 1.798959 2.414072 -0.192968
v 0.924742 2.749262 -0.242933
v 1.026855 2.795333 -0.343462
v 1.481258 2.924322 0.162501
v 1.413128 2.753397 0.276251
v 1.481275 2.760813 0.261854
v 1.482294 3.047653 0.178136
v 1.177237 2.230198 -0.168028
v 1.702566 2.258096 -0.290955
v 1.588278 2.159095 -0.335572
v 1.754639 2.727745 -0.400606
v 1.713020 2.708491 -0.395610
v 1.268703 3.327215 0.576620
v 1.260879 2.843058 0.451494
v 1.241006 2.897900 0.532810
v 0.877675 2.981854 -0.108922
v 0.931369 3.053419 -0.126180
v 0.970380 3.055248 -0.133172
v 1.504913 2.114492 -0.156746
v 1.519341 2.112889 -0.241080
v 1.528537 2.099399 -0.150832
v 1.691231 2.813498 -0.149545
v 1.751019 2.296991 -0.272537
v 1.461093 3.170030 0.201913
v 1.372980 3.044354 0.654934
v 1.379727 3.039518 -0.287497
v 1.358385 3.072256 -0.221380
v 1.733076 2.583956 0.024090
v 1.787574 2.472385 0.030102
v 1.778381 2.534889 -0.025867
v 1.356245 2.961114 0.297501
v 1.409152 2.911195 0.270301
v 1.676563 2.941269 -0.223788
v 1.686426 2.893707 -0.315852
v 1.654738 2.480307 -0.402812
v 1.709697 2.480522 -0.372885
v 1.725265 2.421861 -0.460130
v 1.113049 2.277358 -0.265621
v 1.542813 2.489520 -0.552238
v 1.610550 2.565213 -0.539212
v 1.201527 3.199517 -0.038494
v 1.209359 3.145543 -0.033186
v 1.127159 3.174049 -0.072040
v 1.529013 2.142682 -0.136465
v 1.668145 2.233019 -0.087666
v 1.583867 2.238486 -0.098348
v 1.258126 2.869349 0.428777
v 1.475730 2.200496 -0.279115
v 1.472144 2.182733 -0.275453
v 1.480136 2.192024 -0.263343
v 1.486759 2.181497 -0.247463
v 1.382410 3.207810 0.224183
v 1.437866 3.182173 0.238034
v 1.822625 2.534357 -0.041417
v 1.294546 2.274090 -0.381036
v 1.349316 2.941010 0.356080
v 1.565523 2.306833 -0.378777
v 1.727292 2.443789 -0.205858
v 1.378443 2.544040 -0.422227
v 1.730847 2.340550 -0.105483
v 1.507138 2.115863 -0.160718
v 1.488869 2.133142 -0.172684
v 1.506042 2.118151 -0.176407
v 1.333834 2.768371 -0.468855
v 1.451806 2.673720 -0.400779
v 1.303334 2.726466 -0.397408
v 1.161472 2.530046 -0.281926
v 1.246000 2.516808 -0.273647
v 1.214175 2.468043 -0.310809
v 1.651316 2.500931 -0.572972
v 1.650781 2.528222 -0.467145
v 1.400274 3.253558 0.195549
v 1.380741 2.401875 -0.251197
v 1.315765 2.318166 -0.268576
v 1.299762 2.392461 -0.339277
v 1.173117 2.300829 -0.029663
v 1.253094 2.374781 0.176117
v 1.706445 2.474124 -0.270086
v 1.649413 2.324032 -0.031290
v 1.632462 2.717443 -0.489442
v 1.561287 2.668923 -0.467918
v 1.296631 3.235700 0.660158
v 1.400823 2.821114 0.211817
v 1.371565 2.703872 0.263866
v 1.388886 2.943358 0.487640
v 1.460608 2.616359 0.289991
v 1.343939 3.294724 0.393585
v 1.333156 3.298373 0.481115
v 1.588648 2.653605 -0.437526
v 1.097952 2.432099 -0.320138
v 1.556740 2.242004 -0.146979
v 1.318905 2.611249 -0.413240
v 1.217211 2.599745 -0.415419
v 1.480227 2.155146 -0.223365
v 1.222127 2.616687 0.340593
v 1.200290 2.598941 0.319957
v 1.290601 2.658561 0.317630
v 1.016083 2.437250 -0.072593
v 1.017497 2.445786 -0.057143
v 0.867129 3.123853 -0.018923
v 0.836531 3.072794 0.121110
v 0.829389 3.103803 0.037639
v 1.555936 2.298688 -0.244544
v 0.903846 3.153343 0.451030
v 1.277363 2.339868 -0.298725
v 1.533662 2.099001 -0.134059
v 1.604732 2.070315 -0.175824
v 0.840697 3.015923 0.220768
v 0.844415 2.941482 0.027203
v 1.374382 2.812031 0.233692
v 1.325566 2.767446 0.328536
v 1.306321 2.741495 0.341264
v 0.999422 2.484733 0.145657
v 0.986163 2.517237 0.108228
v 1.106477 2.235750 -0.253682
v 1.458326 2.150472 -0.176197
v 1.043278 2.423168 -0.127280
v 1.062616 2.422496 -0.147858
v 1.052858 2.438641 -0.168428
v 1.165283 3.018445 -0.096520
v 1.320320 3.122893 -0.057785
v 1.373869 3.146373 -0.051171
v 1.237170 3.110378 -0.165920
v 1.124878 3.062701 -0.207839
v 0.830438 2.859462 0.313974
v 1.022954 2.660202 -0.346352
v 1.465525 2.416997 -0.284292
v 1.047310 2.408741 -0.095265
v 1.062688 2.406557 -0.109857
v 0.982292 2.454023 -0.105217
v 0.797143 2.950664 0.248168
v 0.916521 2.807690 -0.115993
v 0.936134 2.788306 -0.218807
v 0.930933 2.696297 -0.042204
v 1.497867 2.130705 -0.240713
v 1.474734 2.158153 -0.244597
v 1.488697 2.141378 -0.260625
v 1.484742 2.151034 -0.276813
v 1.032207 2.442760 -0.152745
v 1.026628 2.422130 -0.068427
v 1.170755 2.686914 -0.452945
v 1.213810 3.174613 0.275279
v 1.290606 3.276010 0.320171
v 1.240306 3.240832 0.172368
v 1.573910 2.302070 -0.498822
v 1.322769 2.545853 -0.355715
v 1.628397 2.416747 0.110215
v 1.652865 2.395699 0.089294
v 1.856131 2.408442 -0.133360
v 1.794752 2.402609 -0.123063
v 1.808485 2.386835 -0.162473
v 0.982814 2.685741 0.373438
v 0.921027 2.798061 0.466174
v 1.859691 2.585758 -0.385953
v 1.283893 2.303710 -0.020286
v 1.294595 2.243147 -0.183420
v 0.921578 2.874723 -0.125619
v 1.748025 2.436585 -0.101208
v 0.809067 2.912148 0.299172
v 0.973113 2.680880 0.348165
v 1.506226 2.120494 -0.201145
v 1.489098 2.137696 -0.222243
v 1.480720 2.143923 -0.206079
v 1.020751 2.441505 -0.134779
v 0.815896 3.069706 0.260271
v 1.512816 2.197392 -0.300786
v 1.656268 2.557704 -0.461713
v 1.621117 2.618374 -0.430488
v 1.726135 2.585239 -0.454900
v 1.590586 2.789124 -0.452096
v 1.741338 2.691242 -0.126228
v 1.775447 2.644655 -0.282349
v 1.173849 3.065032 -0.238521
v 1.252659 2.804566 -0.459524
v 1.320919 2.869273 -0.431460
v 1.216640 3.113415 0.472910
v 1.100593 3.167678 0.482157
v 0.832289 2.845331 0.310336
v 0.807527 2.860269 0.311520
v 0.810455 2.845480 0.308205
v 1.813244 2.729790 -0.349181
v 1.207115 2.829663 -0.438236
v 1.362734 2.650147 -0.411591
v 1.395357 2.599366 -0.453663
v 1.681493 2.474830 0.102622
v 1.654101 2.585057 0.142265
v 1.639424 2.618537 0.172572
v 1.596184 2.478633 0.155060
v 1.407740 3.153427 0.389368
v 1.325990 3.287159 0.236157
v 1.335541 3.219347 0.283550
v 0.984227 3.097271 -0.100159
v 1.318868 3.135360 0.697787
v 1.644656 2.764468 0.062854
v 1.682427 2.779776 0.061179
v 1.531334 2.566025 -0.518713
v 1.431834 2.524910 -0.521886
v 1.056427 3.151871 -0.087559
v 1.055403 3.059129 -0.097783
v 1.439634 3.114733 -0.000118
v 1.810951 2.686075 -0.448956
v 1.337393 2.293321 -0.193820
v 1.619595 2.949281 -0.114045
v 1.399816 3.143528 0.008187
v 1.361842 3.115670 -0.001196
v 1.329791 3.177726 0.000734
v 1.589575 2.858472 0.166449
v 1.711715 2.510942 0.099363
v 1.128769 2.354597 -0.358246
v 1.628862 2.832104 0.129963
v 1.785497 2.461768 -0.063390
v 1.808680 2.724298 -0.016703
v 1.769385 2.774806 -0.026453
v 1.775396 2.758605 0.049472
v 0.924448 2.559854 -0.044665
v 1.103802 2.789608 -0.403620
v 1.118767 2.273945 -0.360884
v 1.098498 3.113082 0.490232
v 0.812889 2.831486 0.305031
v 0.829618 2.826494 0.305880
v 0.828860 2.830556 0.286237
v 1.522244 2.127694 -0.140425
v 1.506634 2.110332 -0.139572
v 1.522058 2.115200 -0.139868
v 1.527230 2.099957 -0.140318
v 1.757000 2.793073 0.019880
v 1.190207 3.249519 0.211387
v 1.527548 2.148763 -0.351216
v 1.503626 2.164449 -0.334818
v 1.606389 2.932495 -0.159818
v 1.673396 2.863507 -0.148226
v 1.047654 2.820730 0.584698
v 1.406476 2.901560 0.163968
v 1.374685 3.132013 -0.117202
v 1.283532 3.118326 -0.170033
v 1.037546 2.985769 -0.256018
v 1.462834 3.084325 0.347897
v 1.367637 3.163874 0.333315
v 1.842720 2.613434 -0.451466
v 1.762495 2.563487 -0.465329
v 1.727642 2.670840 -0.459183
v 0.918140 2.905372 -0.183335
v 1.012384 3.005301 -0.196223
v 0.920320 2.611103 -0.151241
v 1.741990 2.370577 -0.263620
v 1.166088 3.148274 0.425878
v 1.229029 3.346543 0.632143
v 1.779642 2.708961 -0.091848
v 0.846531 3.043876 -0.050056
v 1.072249 2.693326 -0.399127
v 1.708113 2.402801 -0.220228
v 1.069526 2.393939 -0.055093
v 1.693056 2.687026 -0.440875
v 1.819580 2.665547 -0.089807
v 1.812809 2.672956 0.018941
v 1.738525 2.338088 -0.179883
v 0.879090 3.091268 -0.057744
v 1.244021 3.125158 -0.042285
v 1.519371 2.205659 -0.291020
v 1.472861 2.203306 -0.305636
v 1.506304 2.210804 -0.286280
v 0.933229 2.898229 -0.104444
v 1.457636 2.939667 0.529467
v 1.467162 2.993273 0.457976
v 1.386561 2.556499 -0.480438
v 1.447746 3.051706 0.251583
v 1.474711 2.684919 -0.414864
v 1.664371 2.711469 0.103219
v 0.992271 2.966494 -0.159978
v 1.304198 3.218817 0.019426
v 1.232582 3.270952 0.015619
v 1.276035 3.260902 0.071634
v 1.703763 2.364869 -0.317449
v 1.254374 2.163074 -0.262133
v 1.246613 2.104841 -0.238603
v 1.641505 2.360737 -0.645795
v 1.664621 2.299333 -0.611603
v 1.003473 3.006572 -0.223089
v 0.972770 2.962460 -0.155952
v 1.030157 2.990026 -0.162323
v 1.672362 2.399673 -0.484700
v 1.514110 2.132233 -0.305752
v 1.498102 2.151230 -0.316380
v 1.513696 2.140923 -0.322797
v 1.518528 2.146302 -0.336772
v 1.007209 2.435202 -0.100075
v 1.022258 2.427623 -0.113255
v 1.336249 2.954083 -0.375263
v 1.255418 2.524336 0.248208
v 1.790925 2.554587 -0.211850
v 1.615457 2.704980 0.171300
v 1.256091 3.139981 0.666040
v 1.762032 2.364809 -0.134036
v 1.899221 2.465332 -0.074984
v 1.870274 2.519465 -0.051378
v 0.829192 2.874481 0.309825
v 0.809841 2.887104 0.307004
v 0.812441 2.890177 0.308228
v 1.744669 2.385118 -0.412664
v 1.265034 2.374116 -0.368157
v 0.927970 3.144320 0.485992
v 1.509507 2.147025 -0.137164
v 1.318132 3.319605 0.173059
v 1.471632 2.203428 -0.290754
v 1.186144 2.162295 -0.393056
v 0.844506 2.822635 0.305374
v 0.845149 2.809950 0.301850
v 1.029363 2.732811 0.518635
v 0.920064 3.122688 0.516227
v 1.340986 2.573930 0.302600
v 0.908483 2.805257 0.402391
v 1.477792 2.192341 -0.317497
v 1.146146 2.988496 0.542835
v 1.755270 2.274573 -0.119207
v 1.767508 2.248833 -0.131203
v 1.098855 3.171831 0.393321
v 1.766570 2.662591 0.045456
v 1.031460 3.269958 0.376782
v 0.962113 3.181816 0.446896
v 0.949221 3.116305 -0.087055
v 0.833531 2.848996 0.287267
v 0.820168 2.842719 0.293423
v 1.459111 2.302367 -0.137753
v 1.793347 2.589896 -0.188723
v 0.843120 3.193153 0.315910
v 1.873130 2.590048 -0.083563
v 0.935539 2.818256 -0.210087
v 1.330028 2.636468 0.317199
v 1.377373 2.965671 0.237838
v 0.898616 3.146257 -0.059625
v 1.085920 2.746434 0.541034
v 0.974799 2.471403 -0.124124
v 1.528040 2.112580 -0.277128
v 1.500991 2.133075 -0.280695
v 0.819695 2.892312 0.309244
v 1.119008 3.217289 0.269612
v 1.001351 2.429473 -0.108546
v 1.487432 2.179845 -0.293122
v 1.491698 2.150372 -0.300418
v 1.313410 2.648023 0.284096
v 1.364623 3.283458 0.069227
v 1.110688 3.246721 0.296272
v 1.039276 3.001354 -0.104304
v 1.074954 2.985029 -0.121954
v 1.019032 2.617607 -0.371041
v 0.829208 2.872412 0.312132
v 0.825164 2.871653 0.309838
v 1.406207 2.642618 0.316179
v 1.491192 2.125098 -0.150108
v 1.492104 2.119255 -0.142067
v 1.060737 2.541024 0.220813
v 1.442819 2.852039 -0.428792
v 1.498438 2.164663 -0.332732
v 1.493322 2.166992 -0.310348
v 1.488887 2.181622 -0.318281
v 1.248499 2.438617 -0.348318
v 0.815180 2.860534 0.304324
v 0.973113 2.680880 0.348165
v 1.060737 2.541024 0.220813
v 1.044789 2.551855 0.199788
v 1.295169 2.196387 -0.348993
v 1.297427 2.181138 -0.269518
v 1.309620 2.176027 -0.287988
v 1.277363 2.339868 -0.298725
v 1.315765 2.318166 -0.268576
v 1.294546 2.274090 -0.381036
v 1.470799 2.153900 -0.213341
v 1.485609 2.149678 -0.201377
v 1.480227 2.155146 -0.223365
v 1.508824 2.163648 -0.190366
v 1.517982 2.164402 -0.167009
v 1.527132 2.165683 -0.144017
v 1.327378 2.172376 -0.233448
v 1.504035 2.203550 -0.274028
v 1.519371 2.205659 -0.291020
v 1.506304 2.210804 -0.286280
v 1.531138 2.163707 -0.126914
v 1.502592 2.138993 -0.155819
v 1.509507 2.147025 -0.137164
v 1.134778 2.634376 0.369712
v 1.579491 2.201366 -0.273402
v 1.474734 2.158153 -0.244597
v 0.829192 2.874481 0.309825
v 0.809067 2.912148 0.299172
v 0.825164 2.871653 0.309838
v 1.413128 2.753397 0.276251
v 1.371565 2.703872 0.263866
v 1.313410 2.648023 0.284096
v 1.050074 2.516089 0.189569
v 0.815180 2.860534 0.304324
v 1.003473 3.006572 -0.223089
v 1.124878 3.062701 -0.207839
v 1.074954 2.985029 -0.121954
v 0.972770 2.962460 -0.155952
v 1.768906 2.579230 -0.316756
v 1.740313 2.514781 -0.319606
v 1.798575 2.629126 -0.297095
v 1.165283 3.018445 -0.096520
v 0.992271 2.966494 -0.159978
v 1.474711 2.684919 -0.414864
v 1.451806 2.673720 -0.400779
v 1.493663 2.702942 -0.510985
v 0.973113 2.680880 0.348165
v 1.060737 2.541024 0.220813
v 1.044789 2.551855 0.199788
v 1.295169 2.196387 -0.348993
v 1.297427 2.181138 -0.269518
v 1.309620 2.176027 -0.287988
v 1.277363 2.339868 -0.298725
v 1.315765 2.318166 -0.268576
v 1.294546 2.274090 -0.381036
v 1.470799 2.153900 -0.213341
v 1.485609 2.149678 -0.201377
v 1.480227 2.155146 -0.223365
v 1.508824 2.163648 -0.190366
v 1.517982 2.164402 -0.167009
v 1.527132 2.165683 -0.144017
v 1.327378 2.172376 -0.233448
v 1.504035 2.203550 -0.274028
v 1.519371 2.205659 -0.291020
v 1.506304 2.210804 -0.286280
v 1.531138 2.163707 -0.126914
v 1.502592 2.138993 -0.155819
v 1.509507 2.147025 -0.137164
v 1.134778 2.634376 0.369712
v 1.579491 2.201366 -0.273402
v 1.474734 2.158153 -0.244597
v 0.829192 2.874481 0.309825
v 0.809067 2.912148 0.299172
v 0.825164 2.871653 0.309838
v 1.413128 2.753397 0.276251
v 1.371565 2.703872 0.263866
v 1.313410 2.648023 0.284096
v 1.050074 2.516089 0.189569
v 0.815180 2.860534 0.304324
vt 0.764027 0.162464
vt 0.764737 0.163175
vt 0.764027 0.163175
vt 0.757635 0.167791
vt 0.758345 0.168501
vt 0.757635 0.168501
vt 0.758345 0.146484
vt 0.757635 0.145774
vt 0.758345 0.145774
vt 0.751243 0.148260
vt 0.751953 0.148970
vt 0.751243 0.148970
vt 0.013983 0.669962
vt 0.000437 0.658755
vt 0.005040 0.665221
vt 0.737393 0.164240
vt 0.738104 0.164950
vt 0.737393 0.164950
vt 0.768999 0.169567
vt 0.768288 0.168857
vt 0.768999 0.168857
vt 0.968624 0.083182
vt 0.959547 0.086875
vt 0.966952 0.091429
vt 0.028228 0.602312
vt 0.027915 0.610792
vt 0.034411 0.609358
vt 0.891483 0.829481
vt 0.890938 0.829594
vt 0.896510 0.833403
vt 0.870455 0.775838
vt 0.870493 0.776061
vt 0.875474 0.774056
vt 0.936954 0.805027
vt 0.946892 0.805785
vt 0.941743 0.799978
vt 0.771833 0.984044
vt 0.767139 0.986451
vt 0.766959 0.999577
vt 0.768999 0.157138
vt 0.768288 0.156428
vt 0.768999 0.156428
vt 0.596473 0.248779
vt 0.597745 0.245596
vt 0.597641 0.242845
vt 0.910796 0.149989
vt 0.902458 0.143440
vt 0.899611 0.154114
vt 0.544709 0.620133
vt 0.545305 0.628620
vt 0.547696 0.631382
vt 0.953254 0.077401
vt 0.945295 0.086618
vt 0.676943 0.234004
vt 0.670919 0.246063
vt 0.675598 0.244215
vt 0.974097 0.042437
vt 0.971845 0.042478
vt 0.973652 0.043938
vt 0.972837 0.044495
vt 0.768999 0.150036
vt 0.768288 0.149325
vt 0.768999 0.149325
vt 0.768288 0.148260
vt 0.768999 0.148970
vt 0.768288 0.148970
vt 0.101362 0.947087
vt 0.088341 0.952783
vt 0.102862 0.950794
vt 0.768999 0.146484
vt 0.768288 0.145774
vt 0.768999 0.145774
vt 0.234015 0.637874
vt 0.238187 0.636925
vt 0.242114 0.629818
vt 0.530717 0.685411
vt 0.540282 0.689566
vt 0.544739 0.687925
vt 0.898709 0.786864
vt 0.890655 0.789849
vt 0.901145 0.793398
vt 0.797015 0.938648
vt 0.804505 0.943128
vt 0.799522 0.938384
vt 0.973538 0.434798
vt 0.973971 0.435254
vt 0.974831 0.435218
vt 0.975871 0.435553
vt 0.961626 0.182192
vt 0.952254 0.190621
vt 0.968464 0.187785
vt 0.926423 0.182289
vt 0.917085 0.174385
vt 0.926318 0.188587
vt 0.962283 0.363458
vt 0.959601 0.355148
vt 0.958057 0.360719
vt 0.928887 0.100966
vt 0.923539 0.111145
vt 0.926558 0.108727
vt 0.767933 0.157138
vt 0.767223 0.156428
vt 0.767933 0.156428
vt 0.767933 0.155362
vt 0.767223 0.154652
vt 0.767933 0.154652
vt 0.944999 0.092986
vt 0.936492 0.101726
vt 0.951406 0.098449
vt 0.943905 0.050002
vt 0.946093 0.042079
vt 0.935575 0.048390
vt 0.878320 0.213348
vt 0.885820 0.211847
vt 0.881270 0.205519
vt 0.767223 0.148260
vt 0.767933 0.148970
vt 0.767223 0.148970
vt 0.947549 0.168507
vt 0.946271 0.181898
vt 0.950895 0.168488
vt 0.513404 0.310041
vt 0.509010 0.317828
vt 0.513706 0.319532
vt 0.914669 0.101764
vt 0.906690 0.095982
vt 0.547720 0.638672
vt 0.550639 0.635935
vt 0.910090 0.175733
vt 0.914597 0.181852
vt 0.924675 0.092073
vt 0.922110 0.090028
vt 0.867520 0.770706
vt 0.869052 0.769884
vt 0.871418 0.767102
vt 0.875444 0.768483
vt 0.871243 0.762693
vt 0.766868 0.166016
vt 0.766158 0.165305
vt 0.766868 0.165305
vt 0.295314 0.174361
vt 0.290889 0.173599
vt 0.294058 0.179258
vt 0.927309 0.865973
vt 0.922691 0.858982
vt 0.925486 0.866429
vt 0.964158 0.095774
vt 0.970323 0.095853
vt 0.887358 0.187279
vt 0.878768 0.177498
vt 0.880345 0.196583
vt 0.889612 0.825376
vt 0.889832 0.827492
vt 0.891492 0.827983
vt 0.300525 0.173838
vt 0.297975 0.175020
vt 0.298869 0.176141
vt 0.766868 0.157138
vt 0.766158 0.156428
vt 0.766868 0.156428
vt 0.889739 0.169115
vt 0.887379 0.181956
vt 0.894977 0.170011
vt 0.906023 0.805375
vt 0.908976 0.798226
vt 0.905648 0.799608
vt 0.573780 0.026669
vt 0.576215 0.016673
vt 0.569087 0.015026
vt 0.766868 0.153587
vt 0.766158 0.152876
vt 0.766868 0.152876
vt 0.794389 0.010303
vt 0.802611 0.022797
vt 0.797533 0.009745
vt 0.892652 0.174745
vt 0.898923 0.181402
vt 0.962568 0.038715
vt 0.966781 0.040979
vt 0.964803 0.039726
vt 0.965969 0.039157
vt 0.766158 0.150036
vt 0.766868 0.150746
vt 0.766158 0.150746
vt 0.970212 0.434168
vt 0.967723 0.437046
vt 0.969618 0.436926
vt 0.766158 0.148260
vt 0.766868 0.148970
vt 0.766158 0.148970
vt 0.886041 0.811548
vt 0.885676 0.819691
vt 0.893172 0.813447
vt 0.797961 0.526443
vt 0.802744 0.522516
vt 0.789115 0.521559
vt 0.976640 0.440954
vt 0.971535 0.436859
vt 0.191381 0.144353
vt 0.190714 0.147837
vt 0.196188 0.149493
vt 0.874186 0.805659
vt 0.872243 0.811869
vt 0.935608 0.857018
vt 0.929547 0.851737
vt 0.928856 0.860033
vt 0.915037 0.851534
vt 0.970385 0.043831
vt 0.967075 0.100889
vt 0.960270 0.104122
vt 0.124613 0.039656
vt 0.124682 0.038274
vt 0.124043 0.038469
vt 0.939093 0.060848
vt 0.934347 0.061439
vt 0.934776 0.065401
vt 0.765092 0.164240
vt 0.765803 0.164950
vt 0.765092 0.164950
vt 0.028242 0.620628
vt 0.033490 0.619709
vt 0.945940 0.367223
vt 0.951214 0.355382
vt 0.945703 0.356212
vt 0.959609 0.151350
vt 0.952660 0.157867
vt 0.951029 0.163219
vt 0.938512 0.436609
vt 0.929739 0.445923
vt 0.931887 0.451064
vt 0.934133 0.042161
vt 0.535909 0.696370
vt 0.963680 0.333126
vt 0.958441 0.326778
vt 0.956223 0.338895
vt 0.916361 0.206320
vt 0.925411 0.198763
vt 0.913171 0.200508
vt 0.950360 0.381894
vt 0.955361 0.383809
vt 0.954948 0.367864
vt 0.937278 0.769355
vt 0.920422 0.764079
vt 0.926301 0.774769
vt 0.925986 0.426849
vt 0.918937 0.425616
vt 0.920621 0.434298
vt 0.935554 0.158338
vt 0.928159 0.165724
vt 0.934665 0.167428
vt 0.929360 0.807995
vt 0.939574 0.822083
vt 0.939375 0.809815
vt 0.765803 0.155362
vt 0.765092 0.154652
vt 0.765803 0.154652
vt 0.964695 0.391907
vt 0.970812 0.382237
vt 0.966095 0.384566
vt 0.950288 0.110410
vt 0.443722 0.774877
vt 0.444587 0.762553
vt 0.439832 0.767841
vt 0.765803 0.150036
vt 0.765092 0.149325
vt 0.765803 0.149325
vt 0.884549 0.822323
vt 0.878430 0.813797
vt 0.949714 0.800168
vt 0.908493 0.827700
vt 0.894722 0.820473
vt 0.907562 0.830452
vt 0.974220 0.360585
vt 0.971723 0.353640
vt 0.965750 0.352692
vt 0.919402 0.146060
vt 0.924556 0.123896
vt 0.911666 0.137375
vt 0.930979 0.838447
vt 0.924179 0.848317
vt 0.932314 0.848532
vt 0.868390 0.691133
vt 0.863508 0.687059
vt 0.861446 0.695894
vt 0.944644 0.198154
vt 0.953339 0.196916
vt 0.896434 0.812517
vt 0.901948 0.815821
vt 0.919860 0.381901
vt 0.912833 0.387321
vt 0.927149 0.384174
vt 0.702636 0.206779
vt 0.704823 0.199731
vt 0.696956 0.199118
vt 0.438426 0.759790
vt 0.448975 0.757890
vt 0.435575 0.753009
vt 0.918172 0.828586
vt 0.923982 0.814299
vt 0.940420 0.181491
vt 0.921311 0.167844
vt 0.922563 0.172711
vt 0.953769 0.179533
vt 0.489677 0.029295
vt 0.489890 0.038235
vt 0.490881 0.037548
vt 0.682996 0.217834
vt 0.694488 0.225339
vt 0.682284 0.213264
vt 0.263259 0.126953
vt 0.269884 0.117796
vt 0.265658 0.115279
vt 0.919074 0.449696
vt 0.929801 0.142936
vt 0.935497 0.133919
vt 0.941980 0.842792
vt 0.950036 0.837885
vt 0.950737 0.834190
vt 0.764027 0.164240
vt 0.764737 0.164950
vt 0.764027 0.164950
vt 0.038001 0.612012
vt 0.699677 0.230124
vt 0.694419 0.220453
vt 0.697356 0.214093
vt 0.930503 0.383008
vt 0.907202 0.104149
vt 0.954221 0.790360
vt 0.957494 0.796470
vt 0.951695 0.331295
vt 0.905234 0.209355
vt 0.893367 0.212156
vt 0.900235 0.216736
vt 0.764027 0.155362
vt 0.764737 0.156072
vt 0.764027 0.156072
vt 0.943393 0.162012
vt 0.938382 0.167540
vt 0.567219 0.770773
vt 0.572504 0.775273
vt 0.574183 0.765764
vt 0.698149 0.941770
vt 0.698677 0.935664
vt 0.691910 0.942354
vt 0.247959 0.633407
vt 0.899013 0.755518
vt 0.907820 0.751388
vt 0.898251 0.747920
vt 0.699902 0.035297
vt 0.694225 0.033704
vt 0.696273 0.043754
vt 0.856607 0.215682
vt 0.866929 0.218044
vt 0.867145 0.214566
vt 0.932655 0.144856
vt 0.978975 0.440548
vt 0.978967 0.438733
vt 0.977767 0.439686
vt 0.976344 0.438646
vt 0.927491 0.390393
vt 0.932266 0.386225
vt 0.900457 0.220581
vt 0.537876 0.697739
vt 0.544345 0.688498
vt 0.941103 0.156152
vt 0.764737 0.148260
vt 0.764027 0.147550
vt 0.764737 0.147550
vt 0.923813 0.088157
vt 0.427594 0.755480
vt 0.895429 0.760974
vt 0.890646 0.764902
vt 0.902808 0.777716
vt 0.878967 0.222612
vt 0.862237 0.779189
vt 0.863656 0.780123
vt 0.862370 0.778344
vt 0.595255 0.784616
vt 0.608067 0.776370
vt 0.591754 0.780159
vt 0.898851 0.804298
vt 0.898754 0.797612
vt 0.893121 0.797562
vt 0.673796 0.249497
vt 0.670603 0.256333
vt 0.678321 0.253112
vt 0.540707 0.683866
vt 0.954418 0.315366
vt 0.947126 0.308739
vt 0.949380 0.313536
vt 0.762962 0.160689
vt 0.763672 0.161399
vt 0.762962 0.161399
vt 0.952262 0.029617
vt 0.935882 0.036987
vt 0.694070 0.253383
vt 0.693424 0.248947
vt 0.688997 0.249046
vt 0.000517 0.742609
vt 0.009106 0.738888
vt 0.002305 0.733442
vt 0.923955 0.754024
vt 0.918055 0.760821
vt 0.921877 0.458326
vt 0.259057 0.967862
vt 0.253174 0.960983
vt 0.253838 0.960180
vt 0.941472 0.145577
vt 0.937047 0.142438
vt 0.906718 0.169565
vt 0.928152 0.430886
vt 0.926499 0.439996
vt 0.667878 0.267574
vt 0.673374 0.273436
vt 0.672151 0.266342
vt 0.887683 0.806400
vt 0.763672 0.150036
vt 0.762962 0.149325
vt 0.763672 0.149325
vt 0.922948 0.046942
vt 0.763672 0.146484
vt 0.762962 0.145774
vt 0.763672 0.145774
vt 0.908896 0.783844
vt 0.906240 0.792111
vt 0.761896 0.169567
vt 0.762607 0.170277
vt 0.761896 0.170277
vt 0.975541 0.435842
vt 0.879031 0.765115
vt 0.507488 0.324043
vt 0.505527 0.323322
vt 0.512508 0.331180
vt 0.969313 0.041562
vt 0.968523 0.042361
vt 0.956746 0.850391
vt 0.951515 0.860831
vt 0.954343 0.856766
vt 0.880498 0.783682
vt 0.881121 0.771684
vt 0.875850 0.777064
vt 0.300596 0.179349
vt 0.539014 0.710858
vt 0.544666 0.703445
vt 0.539287 0.705238
vt 0.761896 0.157138
vt 0.762607 0.157848
vt 0.761896 0.157848
vt 0.946066 0.865842
vt 0.937835 0.853363
vt 0.927472 0.169654
vt 0.922208 0.158294
vt 0.919263 0.156204
vt 0.925061 0.780602
vt 0.872912 0.684542
vt 0.762607 0.151811
vt 0.761896 0.151101
vt 0.762607 0.151101
vt 0.960743 0.045127
vt 0.963992 0.048404
vt 0.867536 0.797111
vt 0.859751 0.800298
vt 0.872288 0.807033
vt 0.867986 0.807927
vt 0.975145 0.434873
vt 0.762607 0.146484
vt 0.761896 0.145774
vt 0.762607 0.145774
vt 0.805740 0.941122
vt 0.886880 0.822586
vt 0.886997 0.819718
vt 0.888411 0.819442
vt 0.010944 0.672675
vt 0.021064 0.689262
vt 0.025039 0.693602
vt 0.020665 0.680230
vt 0.013983 0.669962
vt 0.970881 0.080295
vt 0.962160 0.071292
vt 0.909968 0.813206
vt 0.891677 0.777794
vt 0.885614 0.824043
vt 0.885547 0.821856
vt 0.016211 0.667661
vt 0.017542 0.669901
vt 0.018034 0.668241
vt 0.938887 0.870519
vt 0.924569 0.837471
vt 0.922454 0.829444
vt 0.913624 0.839650
vt 0.863182 0.775209
vt 0.865610 0.777131
vt 0.864026 0.774846
vt 0.864865 0.774270
vt 0.888604 0.822159
vt 0.968056 0.040157
vt 0.867043 0.699649
vt 0.226156 0.078292
vt 0.217840 0.087475
vt 0.229276 0.089531
vt 0.880489 0.754573
vt 0.881800 0.760018
vt 0.902481 0.786456
vt 0.010670 0.751671
vt 0.003498 0.747016
vt 0.007143 0.749700
vt 0.968341 0.734913
vt 0.972894 0.739230
vt 0.956181 0.719617
vt 0.887073 0.231677
vt 0.886090 0.227430
vt 0.884523 0.231979
vt 0.952893 0.064237
vt 0.954857 0.074546
vt 0.702098 0.261863
vt 0.034265 0.737931
vt 0.035484 0.730189
vt 0.024179 0.732388
vt 0.931501 0.837088
vt 0.889498 0.222709
vt 0.973959 0.085446
vt 0.283149 0.177917
vt 0.286035 0.162062
vt 0.280553 0.181603
vt 0.862479 0.776842
vt 0.863860 0.777124
vt 0.864454 0.778859
vt 0.888393 0.824192
vt 0.955658 0.035337
vt 0.760831 0.148260
vt 0.761541 0.148970
vt 0.760831 0.148970
vt 0.761541 0.148260
vt 0.760831 0.147550
vt 0.761541 0.147550
vt 0.760831 0.146484
vt 0.761541 0.147195
vt 0.760831 0.147195
vt 0.042136 0.732592
vt 0.869883 0.770895
vt 0.960111 0.027194
vt 0.956467 0.025415
vt 0.043766 0.736924
vt 0.678785 0.256409
vt 0.676072 0.262861
vt 0.685709 0.260122
vt 0.960376 0.343813
vt 0.708752 0.180380
vt 0.706909 0.197085
vt 0.714856 0.189238
vt 0.954194 0.810798
vt 0.760476 0.166016
vt 0.759766 0.165305
vt 0.760476 0.165305
vt 0.925427 0.341151
vt 0.932089 0.344415
vt 0.933999 0.340654
vt 0.264181 0.553037
vt 0.251800 0.553455
vt 0.253919 0.557527
vt 0.759766 0.164240
vt 0.760476 0.164950
vt 0.759766 0.164950
vt 0.578137 0.774407
vt 0.982952 0.355698
vt 0.977196 0.350061
vt 0.929712 0.793658
vt 0.927684 0.788301
vt 0.914403 0.794502
vt 0.913529 0.780640
vt 0.908602 0.774871
vt 0.589461 0.747851
vt 0.592734 0.741226
vt 0.589361 0.739106
vt 0.904694 0.193902
vt 0.908202 0.190093
vt 0.962702 0.056125
vt 0.954389 0.048688
vt 0.949180 0.391827
vt 0.892763 0.190094
vt 0.892915 0.199602
vt 0.935364 0.430494
vt 0.927216 0.414280
vt 0.928195 0.419165
vt 0.955355 0.835397
vt 0.933276 0.218403
vt 0.944974 0.205487
vt 0.934354 0.206271
vt 0.836558 0.405431
vt 0.833125 0.407346
vt 0.833159 0.417347
vt 0.906853 0.759238
vt 0.901177 0.766946
vt 0.297908 0.989428
vt 0.300838 0.996830
vt 0.305170 0.994763
vt 0.961987 0.830582
vt 0.952409 0.829198
vt 0.941086 0.390002
vt 0.983382 0.345396
vt 0.760476 0.160689
vt 0.759766 0.159979
vt 0.760476 0.159979
vt 0.960990 0.379030
vt 0.881439 0.762726
vt 0.887527 0.763080
vt 0.023650 0.696948
vt 0.021186 0.692708
vt 0.017997 0.696920
vt 0.933997 0.187043
vt 0.897024 0.201354
vt 0.879986 0.800782
vt 0.931437 0.192696
vt 0.892372 0.221004
vt 0.980571 0.389975
vt 0.976453 0.388798
vt 0.976672 0.396653
vt 0.760476 0.155362
vt 0.759766 0.154652
vt 0.760476 0.154652
vt 0.960881 0.193959
vt 0.924249 0.804094
vt 0.872761 0.783579
vt 0.871534 0.800721
vt 0.849312 0.389455
vt 0.862942 0.391565
vt 0.846671 0.382455
vt 0.233787 0.041159
vt 0.241012 0.031404
vt 0.233549 0.033809
vt 0.759766 0.151811
vt 0.760476 0.152521
vt 0.759766 0.152521
vt 0.760476 0.151811
vt 0.759766 0.151101
vt 0.760476 0.151101
vt 0.759766 0.150036
vt 0.760476 0.150746
vt 0.759766 0.150746
vt 0.270389 0.399878
vt 0.268476 0.398701
vt 0.269147 0.399990
vt 0.267704 0.400543
vt 0.959951 0.774895
vt 0.964377 0.778034
vt 0.965907 0.771058
vt 0.974861 0.393534
vt 0.378200 0.537020
vt 0.363471 0.537191
vt 0.368413 0.539871
vt 0.864881 0.766146
vt 0.866210 0.769272
vt 0.967568 0.367958
vt 0.959929 0.374193
vt 0.967000 0.375732
vt 0.937884 0.077885
vt 0.932051 0.077079
vt 0.873138 0.111149
vt 0.874928 0.103870
vt 0.863987 0.122840
vt 0.877367 0.685357
vt 0.937452 0.177568
vt 0.966939 0.397357
vt 0.915700 0.417503
vt 0.912861 0.421781
vt 0.759411 0.169567
vt 0.758700 0.168857
vt 0.759411 0.168857
vt 0.029195 0.689482
vt 0.034500 0.679101
vt 0.024788 0.682498
vt 0.759411 0.162464
vt 0.758700 0.161754
vt 0.759411 0.161754
vt 0.758700 0.160689
vt 0.759411 0.161399
vt 0.758700 0.161399
vt 0.944099 0.820467
vt 0.941588 0.426341
vt 0.967956 0.170955
vt 0.978444 0.164928
vt 0.965371 0.158327
vt 0.759411 0.158913
vt 0.758700 0.158203
vt 0.759411 0.158203
vt 0.668317 0.258220
vt 0.663020 0.251922
vt 0.658811 0.262434
vt 0.659183 0.253672
vt 0.682837 0.668669
vt 0.677562 0.679341
vt 0.688960 0.674570
vt 0.904265 0.833211
vt 0.252474 0.122053
vt 0.258161 0.114786
vt 0.698373 0.238085
vt 0.693260 0.233723
vt 0.896239 0.146736
vt 0.759411 0.151811
vt 0.758700 0.151101
vt 0.759411 0.151101
vt 0.521330 0.330657
vt 0.553913 0.627362
vt 0.790299 0.015672
vt 0.797659 0.026568
vt 0.798672 0.024403
vt 0.987863 0.379284
vt 0.974323 0.378271
vt 0.978039 0.382045
vt 0.931465 0.424435
vt 0.948134 0.849528
vt 0.913875 0.806140
vt 0.289668 0.993300
vt 0.293195 0.991621
vt 0.963393 0.037791
vt 0.962291 0.032480
vt 0.684708 0.269450
vt 0.681942 0.270979
vt 0.914827 0.224463
vt 0.921056 0.216662
vt 0.915425 0.213702
vt 0.884619 0.824461
vt 0.878891 0.230093
vt 0.874682 0.239714
vt 0.882609 0.238069
vt 0.957440 0.162165
vt 0.924491 0.208429
vt 0.953435 0.846757
vt 0.663858 0.683428
vt 0.668303 0.684652
vt 0.661961 0.679519
vt 0.758345 0.164240
vt 0.757635 0.163530
vt 0.758345 0.163530
vt 0.687203 0.242261
vt 0.870874 0.771026
vt 0.869868 0.773957
vt 0.871228 0.772443
vt 0.532807 0.691662
vt 0.934159 0.837595
vt 0.934401 0.834188
vt 0.941492 0.145092
vt 0.947469 0.152223
vt 0.903952 0.773565
vt 0.953888 0.170725
vt 0.966845 0.175650
vt 0.039373 0.743682
vt 0.757635 0.153587
vt 0.758345 0.154297
vt 0.757635 0.154297
vt 0.918579 0.197630
vt 0.934928 0.377436
vt 0.934409 0.384331
vt 0.905340 0.839945
vt 0.899532 0.838786
vt 0.930598 0.113063
vt 0.937852 0.113053
vt 0.930741 0.109947
vt 0.911584 0.786306
vt 0.941810 0.829909
vt 0.012211 0.603984
vt 0.010342 0.591958
vt 0.000460 0.591691
vt 0.703259 0.022914
vt 0.708079 0.030589
vt 0.707668 0.023715
vt 0.692219 0.236767
vt 0.757635 0.146484
vt 0.758345 0.147195
vt 0.757635 0.147195
vt 0.665861 0.229319
vt 0.671016 0.233604
vt 0.675582 0.227323
vt 0.953939 0.349443
vt 0.756570 0.169567
vt 0.757280 0.170277
vt 0.756570 0.170277
vt 0.957060 0.395506
vt 0.681082 0.239190
vt 0.863236 0.769900
vt 0.864876 0.770742
vt 0.864025 0.768966
vt 0.864572 0.767757
vt 0.576907 0.748303
vt 0.577215 0.740756
vt 0.946825 0.048908
vt 0.756570 0.157138
vt 0.757280 0.157848
vt 0.756570 0.157848
vt 0.757280 0.157138
vt 0.756570 0.156428
vt 0.757280 0.156428
vt 0.933052 0.350312
vt 0.286435 0.985578
vt 0.935407 0.058252
vt 0.933406 0.051701
vt 0.912625 0.842143
vt 0.310558 0.986890
vt 0.756570 0.151811
vt 0.757280 0.152521
vt 0.756570 0.152521
vt 0.982243 0.382445
vt 0.858090 0.215294
vt 0.546885 0.696835
vt 0.917467 0.188589
vt 0.756570 0.146484
vt 0.757280 0.147195
vt 0.756570 0.147195
vt 0.960285 0.134877
vt 0.951354 0.870760
vt 0.952149 0.128261
vt 0.943003 0.138601
vt 0.917875 0.112541
vt 0.922456 0.115627
vt 0.222523 0.214883
vt 0.227314 0.217403
vt 0.228858 0.205549
vt 0.289741 0.980126
vt 0.889929 0.105659
vt 0.881288 0.091570
vt 0.875070 0.098845
vt 0.893409 0.228186
vt 0.899120 0.224146
vt 0.876605 0.211306
vt 0.866923 0.762184
vt 0.756214 0.157138
vt 0.755504 0.156428
vt 0.756214 0.156428
vt 0.755504 0.155362
vt 0.756214 0.156072
vt 0.755504 0.156072
vt 0.755504 0.151811
vt 0.756214 0.152521
vt 0.755504 0.152521
vt 0.691705 0.238738
vt 0.841708 0.552236
vt 0.844911 0.543526
vt 0.839952 0.544128
vt 0.755504 0.150036
vt 0.756214 0.150746
vt 0.755504 0.150746
vt 0.756214 0.150036
vt 0.755504 0.149325
vt 0.756214 0.149325
vt 0.534484 0.708370
vt 0.956196 0.109812
vt 0.960144 0.110561
vt 0.755504 0.146484
vt 0.756214 0.147195
vt 0.755504 0.147195
vt 0.016883 0.745810
vt 0.881825 0.226885
vt 0.953153 0.328307
vt 0.754439 0.166016
vt 0.755149 0.166726
vt 0.754439 0.166726
vt 0.890548 0.830201
vt 0.754439 0.160689
vt 0.755149 0.161399
vt 0.754439 0.161399
vt 0.958019 0.267991
vt 0.955302 0.256745
vt 0.954057 0.260202
vt 0.869938 0.774972
vt 0.869760 0.775318
vt 0.860909 0.792094
vt 0.856641 0.796819
vt 0.754439 0.157138
vt 0.755149 0.157848
vt 0.754439 0.157848
vt 0.755149 0.157138
vt 0.754439 0.156428
vt 0.755149 0.156428
vt 0.865211 0.809549
vt 0.762019 0.754919
vt 0.769750 0.761753
vt 0.766744 0.748547
vt 0.886290 0.196328
vt 0.942032 0.068979
vt 0.955247 0.107428
vt 0.755149 0.150036
vt 0.754439 0.149325
vt 0.755149 0.149325
vt 0.754439 0.146484
vt 0.755149 0.147195
vt 0.754439 0.147195
vt 0.318511 0.994820
vt 0.923589 0.057467
vt 0.753374 0.166016
vt 0.754084 0.166726
vt 0.753374 0.166726
vt 0.753374 0.162464
vt 0.754084 0.163175
vt 0.753374 0.163175
vt 0.910643 0.112684
vt 0.754084 0.160689
vt 0.753374 0.159979
vt 0.754084 0.159979
vt 0.754084 0.158913
vt 0.753374 0.158203
vt 0.754084 0.158203
vt 0.754084 0.157138
vt 0.753374 0.156428
vt 0.754084 0.156428
vt 0.753374 0.151811
vt 0.754084 0.152521
vt 0.753374 0.152521
vt 0.959147 0.075373
vt 0.964756 0.038023
vt 0.754084 0.151811
vt 0.753374 0.151101
vt 0.754084 0.151101
vt 0.861689 0.773253
vt 0.843367 0.416376
vt 0.839131 0.416193
vt 0.842564 0.417262
vt 0.930225 0.036804
vt 0.923063 0.422846
vt 0.543123 0.735238
vt 0.535668 0.732733
vt 0.533470 0.737068
vt 0.381265 0.542488
vt 0.304635 0.979005
vt 0.302022 0.966984
vt 0.299721 0.971741
vt 0.932542 0.096242
vt 0.871938 0.225503
vt 0.869222 0.227408
vt 0.372203 0.361158
vt 0.360074 0.342571
vt 0.361923 0.347647
vt 0.953381 0.816748
vt 0.961362 0.806258
vt 0.913970 0.208756
vt 0.968982 0.375664
vt 0.920501 0.343089
vt 0.381492 0.353283
vt 0.377507 0.340317
vt 0.369373 0.346635
vt 0.956878 0.839312
vt 0.802746 0.527328
vt 0.800955 0.527535
vt 0.801978 0.528777
vt 0.010069 0.688090
vt 0.013673 0.687248
vt 0.703145 0.948310
vt 0.752308 0.151811
vt 0.753018 0.152521
vt 0.752308 0.152521
vt 0.917262 0.774100
vt 0.988180 0.369546
vt 0.980269 0.372069
vt 0.245803 0.027763
vt 0.678081 0.682522
vt 0.661850 0.671312
vt 0.670109 0.671368
vt 0.886792 0.740355
vt 0.882294 0.747876
vt 0.888395 0.755889
vt 0.751953 0.169567
vt 0.751243 0.168857
vt 0.751953 0.168857
vt 0.944559 0.787841
vt 0.599059 0.772737
vt 0.227399 0.028454
vt 0.836453 0.399838
vt 0.844896 0.407192
vt 0.751243 0.162464
vt 0.751953 0.163175
vt 0.751243 0.163175
vt 0.975421 0.172757
vt 0.897592 0.138880
vt 0.893195 0.143394
vt 0.751953 0.162464
vt 0.751243 0.161754
vt 0.751953 0.161754
vt 0.751953 0.160689
vt 0.751243 0.159979
vt 0.751953 0.159979
vt 0.973201 0.367092
vt 0.971865 0.372211
vt 0.960860 0.404231
vt 0.906901 0.227063
vt 0.484318 0.144332
vt 0.487291 0.135931
vt 0.483232 0.141781
vt 0.706466 0.947692
vt 0.698452 0.189304
vt 0.925566 0.830298
vt 0.363690 0.343292
vt 0.934044 0.366452
vt 0.883956 0.788953
vt 0.928011 0.065333
vt 0.924360 0.063571
vt 0.944098 0.168765
vt 0.371574 0.339149
vt 0.366216 0.340801
vt 0.969723 0.076756
vt 0.970771 0.078897
vt 0.751243 0.146484
vt 0.751953 0.147195
vt 0.751243 0.147195
vt 0.959358 0.845506
vt 0.700391 0.211448
vt 0.901409 0.162373
vt 0.738892 0.910794
vt 0.741046 0.907983
vt 0.738266 0.906955
vt 0.935985 0.070940
vt 0.750888 0.160689
vt 0.750178 0.159979
vt 0.750888 0.159979
vt 0.005602 0.588677
vt 0.003283 0.585829
vt 0.750888 0.155362
vt 0.750178 0.154652
vt 0.750888 0.154652
vt 0.550487 0.701459
vt 0.547347 0.695746
vt 0.857899 0.223443
vt 0.974875 0.343881
vt 0.890835 0.828968
vt 0.302006 0.984361
vt 0.310149 0.982585
vt 0.861595 0.770327
vt 0.863258 0.772527
vt 0.872577 0.191193
vt 0.749112 0.169567
vt 0.749822 0.170277
vt 0.749112 0.170277
vt 0.749112 0.167791
vt 0.749822 0.168501
vt 0.749112 0.168501
vt 0.009283 0.735687
vt 0.010890 0.737612
vt 0.009965 0.735390
vt 0.005018 0.725358
vt 0.918557 0.859113
vt 0.371151 0.529620
vt 0.975484 0.045289
vt 0.749112 0.157138
vt 0.749822 0.157848
vt 0.749112 0.157848
vt 0.749822 0.157138
vt 0.749112 0.156428
vt 0.749822 0.156428
vt 0.749112 0.155362
vt 0.749822 0.156072
vt 0.749112 0.156072
vt 0.696276 0.668945
vt 0.687275 0.667870
vt 0.867757 0.773307
vt 0.864777 0.772243
vt 0.255742 0.968442
vt 0.986819 0.345332
vt 0.749822 0.146484
vt 0.749112 0.145774
vt 0.749822 0.145774
vt 0.691295 0.236347
vt 0.578103 0.033238
vt 0.587347 0.025355
vt 0.749822 0.144709
vt 0.749112 0.143999
vt 0.749822 0.143999
vt 0.748757 0.164240
vt 0.748047 0.163530
vt 0.748757 0.163530
vt 0.748047 0.160689
vt 0.748757 0.161399
vt 0.748047 0.161399
vt 0.023031 0.724127
vt 0.295164 0.983626
vt 0.292352 0.980038
vt 0.969735 0.062061
vt 0.968061 0.065155
vt 0.748047 0.155362
vt 0.748757 0.156072
vt 0.748047 0.156072
vt 0.977063 0.436180
vt 0.689079 0.258036
vt 0.919332 0.118087
vt 0.748047 0.144709
vt 0.748757 0.145419
vt 0.748047 0.145419
vt 0.305353 0.999621
vt 0.746982 0.164240
vt 0.747692 0.164950
vt 0.746982 0.164950
vt 0.563435 0.013115
vt 0.747692 0.158913
vt 0.746982 0.158203
vt 0.747692 0.158203
vt 0.915372 0.055712
vt 0.915607 0.052733
vt 0.906665 0.063687
vt 0.747692 0.153587
vt 0.746982 0.152876
vt 0.747692 0.152876
vt 0.858868 0.214802
vt 0.858242 0.214481
vt 0.285823 0.172226
vt 0.746626 0.164240
vt 0.745916 0.163530
vt 0.746626 0.163530
vt 0.974082 0.445676
vt 0.723230 0.179634
vt 0.696267 0.920773
vt 0.684462 0.918798
vt 0.686965 0.925924
vt 0.680240 0.926678
vt 0.708641 0.005996
vt 0.707261 0.011825
vt 0.710997 0.015495
vt 0.746626 0.153587
vt 0.745916 0.152876
vt 0.746626 0.152876
vt 0.293461 0.300724
vt 0.288759 0.295375
vt 0.290434 0.300022
vt 0.936764 0.359682
vt 0.370364 0.528376
vt 0.969505 0.402941
vt 0.959933 0.810311
vt 0.684799 0.678592
vt 0.000851 0.666047
vt 0.005040 0.665221
vt 0.000437 0.658755
vt 0.927199 0.868968
vt 0.929149 0.868808
vt 0.935296 0.872154
vt 0.744851 0.148260
vt 0.745561 0.148970
vt 0.744851 0.148970
vt 0.905411 0.811639
vt 0.744851 0.146484
vt 0.745561 0.147195
vt 0.744851 0.147195
vt 0.550090 0.009162
vt 0.560320 0.024238
vt 0.039288 0.617317
vt 0.973300 0.082886
vt 0.973033 0.083224
vt 0.742365 0.167791
vt 0.741655 0.167081
vt 0.742365 0.167081
vt 0.741655 0.166016
vt 0.742365 0.166726
vt 0.741655 0.166726
vt 0.742365 0.166016
vt 0.741655 0.165305
vt 0.742365 0.165305
vt 0.972352 0.083520
vt 0.971191 0.081601
vt 0.741655 0.164240
vt 0.742365 0.164950
vt 0.741655 0.164950
vt 0.969728 0.075491
vt 0.931425 0.871048
vt 0.970393 0.074510
vt 0.849615 0.395168
vt 0.357564 0.527393
vt 0.364327 0.519527
vt 0.923041 0.396725
vt 0.926636 0.407679
vt 0.932250 0.397017
vt 0.908087 0.160155
vt 0.909203 0.164144
vt 0.865283 0.779326
vt 0.882421 0.677671
vt 0.875066 0.676485
vt 0.881641 0.680605
vt 0.295186 0.974585
vt 0.741655 0.158913
vt 0.742365 0.159624
vt 0.741655 0.159624
vt 0.911745 0.146538
vt 0.511679 0.335156
vt 0.919343 0.055596
vt 0.229582 0.518600
vt 0.234119 0.508576
vt 0.235231 0.505352
vt 0.299990 0.164660
vt 0.299381 0.165175
vt 0.300573 0.167811
vt 0.733457 0.672072
vt 0.735002 0.672731
vt 0.732873 0.668921
vt 0.736361 0.672997
vt 0.742365 0.158913
vt 0.741655 0.158203
vt 0.742365 0.158203
vt 0.741655 0.157138
vt 0.742365 0.157848
vt 0.741655 0.157848
vt 0.742365 0.157138
vt 0.741655 0.156428
vt 0.742365 0.156428
vt 0.741655 0.155362
vt 0.742365 0.156072
vt 0.741655 0.156072
vt 0.298661 0.166634
vt 0.017491 0.592883
vt 0.020197 0.594407
vt 0.735200 0.670962
vt 0.734417 0.669526
vt 0.741300 0.169567
vt 0.740589 0.168857
vt 0.741300 0.168857
vt 0.740589 0.153587
vt 0.741300 0.154297
vt 0.740589 0.154297
vt 0.259039 0.547927
vt 0.367104 0.361137
vt 0.915345 0.122770
vt 0.918143 0.125950
vt 0.925167 0.214345
vt 0.740589 0.144709
vt 0.741300 0.145419
vt 0.740589 0.145419
vt 0.248675 0.961316
vt 0.529662 0.342098
vt 0.978454 0.182780
vt 0.928653 0.173063
vt 0.842118 0.412266
vt 0.739524 0.169567
vt 0.740234 0.170277
vt 0.739524 0.170277
vt 0.487051 0.032990
vt 0.583544 0.736206
vt 0.739524 0.167791
vt 0.740234 0.168501
vt 0.739524 0.168501
vt 0.740234 0.167791
vt 0.739524 0.167081
vt 0.740234 0.167081
vt 0.018014 0.725437
vt 0.017225 0.734235
vt 0.739524 0.166016
vt 0.740234 0.166726
vt 0.739524 0.166726
vt 0.271934 0.400536
vt 0.267654 0.401413
vt 0.740234 0.166016
vt 0.739524 0.165305
vt 0.740234 0.165305
vt 0.021811 0.615777
vt 0.686015 0.224743
vt 0.783584 0.124826
vt 0.783711 0.120745
vt 0.780725 0.122708
vt 0.786307 0.131835
vt 0.257429 0.123715
vt 0.299793 0.176296
vt 0.685972 0.232637
vt 0.760910 0.989593
vt 0.315588 0.970306
vt 0.317153 0.974156
vt 0.987877 0.383326
vt 0.314570 0.984875
vt 0.537957 0.635142
vt 0.564537 0.762463
vt 0.264338 0.112542
vt 0.702994 0.926244
vt 0.693422 0.009516
vt 0.696136 0.013325
vt 0.890963 0.847988
vt 0.889135 0.843584
vt 0.885389 0.850219
vt 0.944757 0.345379
vt 0.946230 0.829628
vt 0.971163 0.345570
vt 0.972911 0.350346
vt 0.739169 0.146484
vt 0.738459 0.145774
vt 0.739169 0.145774
vt 0.579156 0.767900
vt 0.268321 0.651254
vt 0.263977 0.665952
vt 0.268657 0.656312
vt 0.222855 0.098792
vt 0.738459 0.144709
vt 0.739169 0.145419
vt 0.738459 0.145419
vt 0.295667 0.293551
vt 0.293733 0.299638
vt 0.930863 0.760449
vt 0.661630 0.268768
vt 0.658835 0.270381
vt 0.739169 0.144709
vt 0.738459 0.143999
vt 0.739169 0.143999
vt 0.732025 0.669883
vt 0.731544 0.670895
vt 0.737393 0.169567
vt 0.738104 0.170277
vt 0.737393 0.170277
vt 0.738104 0.169567
vt 0.737393 0.168857
vt 0.738104 0.168857
vt 0.972172 0.433510
vt 0.969854 0.431776
vt 0.970733 0.432254
vt 0.971927 0.432617
vt 0.737393 0.167791
vt 0.738104 0.168501
vt 0.737393 0.168501
vt 0.866166 0.769832
vt 0.866444 0.771649
vt 0.867829 0.771661
vt 0.841673 0.414841
vt 0.842364 0.413456
vt 0.738104 0.167791
vt 0.737393 0.167081
vt 0.738104 0.167081
vt 0.599085 0.942806
vt 0.600346 0.939756
vt 0.597820 0.941621
vt 0.737393 0.166016
vt 0.738104 0.166726
vt 0.737393 0.166726
vt 0.966531 0.436812
vt 0.738104 0.166016
vt 0.737393 0.165305
vt 0.738104 0.165305
vt 0.940549 0.339989
vt 0.865140 0.678543
vt 0.886487 0.787989
vt 0.890428 0.792134
vt 0.699049 0.020837
vt 0.926453 0.391377
vt 0.737393 0.162464
vt 0.738104 0.163175
vt 0.737393 0.163175
vt 0.759986 0.993671
vt 0.001461 0.671918
vt 0.737393 0.158913
vt 0.738104 0.159624
vt 0.737393 0.159624
vt 0.888578 0.828007
vt 0.554731 0.007471
vt 0.738104 0.155362
vt 0.737393 0.154652
vt 0.738104 0.154652
vt 0.924319 0.867959
vt 0.738104 0.151811
vt 0.737393 0.151101
vt 0.738104 0.151101
vt 0.737393 0.150036
vt 0.738104 0.150746
vt 0.737393 0.150746
vt 0.971066 0.076972
vt 0.738104 0.150036
vt 0.737393 0.149325
vt 0.738104 0.149325
vt 0.738104 0.148260
vt 0.737393 0.147550
vt 0.738104 0.147550
vt 0.737393 0.146484
vt 0.738104 0.147195
vt 0.737393 0.147195
vt 0.765803 0.144709
vt 0.765092 0.143999
vt 0.765803 0.143999
vt 0.540282 0.689566
vt 0.544345 0.688498
vt 0.544739 0.687925
vt 0.539287 0.705238
vt 0.544666 0.703445
vt 0.537876 0.697739
vt 0.975871 0.435553
vt 0.973971 0.435254
vt 0.975541 0.435842
vt 0.971535 0.436859
vt 0.969618 0.436926
vt 0.967723 0.437046
vt 0.758345 0.166016
vt 0.757635 0.165305
vt 0.758345 0.165305
vt 0.757635 0.160689
vt 0.758345 0.161399
vt 0.757635 0.161399
vt 0.966531 0.436812
vt 0.970212 0.434168
vt 0.968775 0.434951
vt 0.750178 0.166016
vt 0.750888 0.166726
vt 0.750178 0.166726
vt 0.799522 0.938384
vt 0.805740 0.941122
vt 0.801808 0.938379
vt 0.977063 0.436180
vt 0.965816 0.454689
vt 0.968454 0.458316
vt 0.966153 0.454355
vt 0.253838 0.960180
vt 0.253174 0.960983
vt 0.248675 0.961316
vt 0.741300 0.144709
vt 0.740589 0.143999
vt 0.741300 0.143999
vt 0.737393 0.148260
vt 0.738104 0.148970
vt 0.737393 0.148970
vt 0.764027 0.162464
vt 0.764737 0.163175
vt 0.764027 0.163175
vt 0.757635 0.167791
vt 0.758345 0.168501
vt 0.757635 0.168501
vt 0.758345 0.146484
vt 0.757635 0.145774
vt 0.758345 0.145774
vt 0.751243 0.148260
vt 0.751953 0.148970
vt 0.751243 0.148970
vt 0.013983 0.669962
vt 0.000437 0.658755
vt 0.005040 0.665221
vt 0.737393 0.164240
vt 0.738104 0.164950
vt 0.737393 0.164950
vt 0.765803 0.144709
vt 0.765092 0.143999
vt 0.765803 0.143999
vt 0.540282 0.689566
vt 0.544345 0.688498
vt 0.544739 0.687925
vt 0.539287 0.705238
vt 0.544666 0.703445
vt 0.537876 0.697739
vt 0.975871 0.435553
vt 0.973971 0.435254
vt 0.975541 0.435842
vt 0.971535 0.436859
vt 0.969618 0.436926
vt 0.967723 0.437046
vt 0.758345 0.166016
vt 0.757635 0.165305
vt 0.758345 0.165305
vt 0.757635 0.160689
vt 0.758345 0.161399
vt 0.757635 0.161399
vt 0.966531 0.436812
vt 0.970212 0.434168
vt 0.968775 0.434951
vt 0.750178 0.166016
vt 0.750888 0.166726
vt 0.750178 0.166726
vt 0.799522 0.938384
vt 0.805740 0.941122
vt 0.801808 0.938379
vt 0.977063 0.436180
vt 0.965816 0.454689
vt 0.968454 0.458316
vt 0.966153 0.454355
vt 0.253838 0.960180
vt 0.253174 0.960983
vt 0.248675 0.961316
vt 0.741300 0.144709
vt 0.740589 0.143999
vt 0.741300 0.143999
vt 0.737393 0.148260
vt 0.738104 0.148970
vt 0.737393 0.148970
s 1
f 1/1 2/2 3/3
f 4/4 1/5 3/6
f 5/7 6/8 7/9
f 8/10 4/11 3/12
f 2/13 9/14 3/15
f 10/16 11/17 12/18
f 13/19 14/20 15/21
f 16/22 17/23 18/24
f 19/25 20/26 21/27
f 22/28 23/29 24/30
f 25/31 26/32 27/33
f 28/34 29/35 30/36
f 31/37 32/38 33/39
f 34/40 35/41 36/42
f 37/43 38/44 39/45
f 40/46 41/47 42/48
f 43/49 44/50 45/51
f 46/52 47/53 17/23
f 48/54 49/55 50/56
f 51/57 52/58 53/59
f 52/58 23/60 53/59
f 54/61 55/62 56/63
f 57/64 58/65 59/66
f 60/67 61/68 62/69
f 63/70 64/71 65/72
f 66/73 67/74 68/75
f 61/76 69/77 70/78
f 71/79 72/80 73/81
f 25/82 74/83 75/84
f 76/85 77/86 78/87
f 77/86 79/88 78/87
f 80/89 81/90 82/91
f 83/92 84/93 85/94
f 86/95 87/96 88/97
f 89/98 90/99 91/100
f 92/101 93/102 94/103
f 95/104 96/105 97/106
f 98/107 99/108 100/109
f 101/110 102/111 103/112
f 104/113 105/114 106/115
f 107/116 108/117 109/118
f 110/119 111/120 112/121
f 113/122 114/123 115/124
f 116/125 89/98 117/126
f 118/127 119/128 45/51
f 84/93 120/129 121/130
f 122/131 123/132 89/98
f 123/132 117/126 89/98
f 124/133 125/134 126/135
f 74/136 43/137 126/135
f 127/138 128/139 129/140
f 130/141 131/142 132/143
f 133/144 134/145 135/146
f 16/22 46/52 17/23
f 18/24 136/147 137/148
f 138/149 139/150 140/151
f 141/152 142/153 143/154
f 144/155 77/156 145/157
f 77/158 76/159 145/160
f 146/161 147/162 148/163
f 149/164 150/165 151/166
f 152/167 153/168 154/169
f 155/170 156/171 157/172
f 158/173 159/174 160/175
f 161/176 162/177 120/129
f 163/178 164/179 165/180
f 164/179 166/181 165/180
f 34/182 13/183 167/184
f 168/185 59/186 169/187
f 170/188 67/189 171/190
f 172/191 173/192 174/193
f 64/194 175/195 65/196
f 59/186 26/197 144/198
f 176/199 177/200 68/201
f 172/191 178/202 67/203
f 179/204 180/205 181/206
f 180/205 182/207 181/206
f 52/58 183/208 23/60
f 131/209 136/147 132/210
f 184/211 185/212 186/213
f 187/214 114/215 113/216
f 68/217 177/218 56/219
f 20/26 188/220 189/221
f 190/222 191/223 192/224
f 193/225 194/226 195/227
f 193/228 196/229 197/230
f 198/231 103/112 102/111
f 31/232 69/77 61/76
f 199/233 200/234 201/235
f 202/236 203/237 204/238
f 205/239 206/240 207/241
f 208/242 209/243 210/244
f 211/245 40/246 129/247
f 212/248 213/249 214/250
f 215/251 216/252 217/253
f 218/254 219/255 220/256
f 221/257 222/258 223/259
f 100/109 99/108 224/260
f 225/261 226/262 227/263
f 182/264 152/265 34/266
f 228/267 173/192 170/268
f 29/35 229/269 30/36
f 230/270 231/271 232/272
f 233/273 234/274 235/275
f 236/276 237/277 113/278
f 238/279 239/280 240/281
f 241/282 242/283 150/284
f 243/285 244/286 111/120
f 245/287 174/193 246/288
f 247/289 248/290 249/291
f 239/280 180/205 240/281
f 250/292 251/293 94/294
f 252/295 253/296 254/297
f 255/298 215/251 256/299
f 257/300 258/301 259/302
f 81/90 80/89 260/303
f 177/304 261/305 54/306
f 43/307 262/308 263/309
f 234/310 264/311 265/312
f 197/230 196/229 266/313
f 267/314 268/315 236/276
f 269/316 270/317 271/318
f 272/319 273/320 274/321
f 189/221 275/322 21/27
f 276/323 220/324 262/308
f 220/324 276/323 218/325
f 247/289 249/291 277/326
f 278/327 116/125 117/126
f 279/328 229/269 280/329
f 201/235 200/234 156/330
f 281/331 282/332 283/333
f 101/334 95/335 97/336
f 284/337 214/250 285/338
f 86/339 286/340 287/341
f 288/342 289/343 290/344
f 291/345 68/75 67/74
f 292/346 293/347 49/348
f 294/349 295/350 296/351
f 297/352 298/353 299/354
f 300/355 267/314 212/248
f 301/356 302/357 303/358
f 302/357 304/359 303/358
f 305/360 306/361 249/291
f 281/331 283/333 307/362
f 308/363 109/364 69/77
f 214/250 309/365 212/248
f 156/366 200/367 310/368
f 260/303 112/121 111/120
f 99/108 268/369 122/131
f 254/297 311/370 252/295
f 175/371 64/372 312/373
f 105/114 104/113 313/374
f 314/375 315/376 316/377
f 317/378 318/379 319/380
f 320/381 321/382 322/383
f 323/384 293/385 324/386
f 50/56 49/55 323/384
f 61/76 70/78 62/387
f 325/388 306/389 305/390
f 326/391 327/392 328/393
f 102/111 329/394 330/395
f 94/396 331/397 289/398
f 332/399 58/400 299/401
f 209/243 333/402 334/403
f 266/313 335/404 197/230
f 336/405 337/406 258/407
f 300/355 338/408 123/409
f 339/410 148/163 120/129
f 340/411 211/245 341/412
f 334/413 333/414 342/415
f 343/416 245/287 322/383
f 344/417 59/418 58/419
f 330/395 146/420 198/231
f 15/421 167/422 13/423
f 345/424 73/81 346/425
f 93/426 92/427 251/428
f 77/86 144/198 347/429
f 74/136 44/430 43/137
f 348/431 349/432 350/433
f 351/434 164/179 352/435
f 353/436 354/437 355/438
f 58/439 356/440 344/441
f 357/442 130/141 132/143
f 328/443 327/444 358/445
f 359/446 219/447 360/448
f 190/222 88/97 191/223
f 179/204 361/449 362/450
f 363/451 364/452 365/453
f 317/454 210/244 209/243
f 242/283 241/282 319/455
f 171/456 67/457 66/458
f 366/459 367/460 163/178
f 33/461 176/462 291/463
f 176/462 368/464 291/463
f 321/382 73/81 72/80
f 369/465 168/185 76/85
f 168/466 145/467 76/468
f 173/192 172/191 170/268
f 126/469 75/84 74/83
f 137/148 136/147 131/209
f 139/150 138/149 147/162
f 173/192 370/470 371/471
f 370/470 372/472 371/471
f 373/473 374/474 375/475
f 373/473 376/476 377/477
f 16/22 378/478 14/479
f 256/299 379/480 255/298
f 64/372 44/430 380/481
f 381/482 370/470 382/483
f 370/470 173/192 382/483
f 383/484 143/485 142/486
f 179/204 181/206 384/487
f 181/206 133/144 384/487
f 385/488 386/489 387/490
f 388/491 389/492 390/493
f 389/492 391/494 390/493
f 231/271 392/495 143/154
f 392/495 141/152 143/154
f 166/181 164/179 393/496
f 164/179 351/434 393/496
f 150/284 394/497 241/282
f 395/498 396/499 397/500
f 175/371 398/501 65/502
f 73/81 399/503 71/79
f 26/197 304/359 144/198
f 400/504 106/505 401/506
f 187/507 113/508 96/509
f 402/510 403/511 404/512
f 14/479 405/513 406/514
f 289/398 407/515 94/396
f 195/227 309/365 284/337
f 408/516 261/517 409/518
f 410/519 385/488 239/280
f 403/511 402/510 411/520
f 18/24 137/148 412/521
f 187/522 413/523 349/524
f 388/491 414/525 415/526
f 414/525 416/527 415/526
f 372/472 370/470 392/495
f 370/470 417/528 392/495
f 366/459 163/178 171/529
f 200/530 45/531 310/532
f 45/533 44/534 310/535
f 384/536 137/537 418/538
f 261/517 408/516 55/539
f 419/540 126/135 125/134
f 66/541 55/542 329/394
f 55/539 408/516 329/543
f 420/544 421/545 422/546
f 235/275 423/547 87/96
f 424/548 425/549 19/550
f 229/269 29/35 426/551
f 295/552 373/553 296/554
f 427/555 428/556 317/557
f 429/558 430/559 99/560
f 431/561 432/562 433/563
f 188/564 287/341 286/340
f 233/273 434/565 264/566
f 435/567 427/568 394/569
f 436/570 437/571 345/424
f 438/572 400/573 401/574
f 439/575 204/238 440/576
f 405/513 35/577 96/578
f 205/239 244/579 206/240
f 439/575 441/580 438/581
f 341/412 442/582 340/411
f 443/583 211/245 444/584
f 270/317 445/585 271/318
f 197/586 335/587 446/588
f 447/589 448/590 221/591
f 449/592 450/593 334/403
f 311/594 331/595 93/596
f 445/585 451/597 452/598
f 205/239 453/599 244/579
f 264/566 434/565 454/600
f 455/601 327/602 326/603
f 456/604 207/241 206/240
f 65/502 310/605 63/606
f 457/607 458/608 459/609
f 85/94 460/610 83/92
f 204/238 439/575 461/611
f 322/383 462/612 343/416
f 243/285 460/610 463/613
f 411/520 464/614 105/114
f 465/615 466/616 467/617
f 468/618 35/619 152/620
f 453/621 82/91 81/90
f 469/622 435/567 394/569
f 343/416 462/612 172/191
f 174/193 245/287 343/416
f 292/346 450/593 449/592
f 31/623 33/461 470/624
f 471/625 224/626 99/627
f 30/36 435/567 28/34
f 248/628 247/629 82/630
f 431/631 472/632 473/633
f 472/634 474/635 473/636
f 334/403 293/347 449/592
f 127/637 42/638 91/639
f 252/295 226/262 253/296
f 475/640 476/641 477/642
f 476/641 478/643 477/642
f 113/216 405/513 96/578
f 123/644 338/645 117/646
f 466/616 479/647 467/617
f 217/253 426/551 29/35
f 480/648 41/649 395/650
f 124/133 481/651 482/652
f 286/653 483/654 484/655
f 268/369 485/656 237/657
f 174/193 343/416 172/191
f 207/241 86/95 88/97
f 336/658 258/659 257/660
f 319/455 394/497 317/661
f 356/440 380/481 44/430
f 458/608 374/474 459/609
f 486/662 214/250 363/451
f 479/647 221/257 448/663
f 40/246 395/664 41/665
f 409/666 455/667 408/668
f 136/147 17/23 132/210
f 487/669 280/670 488/671
f 267/314 123/409 268/315
f 296/672 373/673 451/674
f 373/675 452/676 451/677
f 426/551 217/253 489/678
f 181/206 134/145 133/144
f 490/679 442/582 193/228
f 121/130 120/129 440/576
f 306/680 443/681 491/682
f 326/683 72/684 71/685
f 492/686 493/687 494/688
f 493/687 422/689 494/688
f 216/690 495/691 496/692
f 277/326 249/291 306/361
f 497/693 387/490 232/272
f 231/271 143/154 22/28
f 423/694 265/312 333/695
f 498/696 276/323 119/697
f 41/47 499/698 42/48
f 40/699 42/700 129/701
f 365/702 115/124 350/433
f 43/49 45/51 262/703
f 335/704 266/705 500/706
f 225/707 424/708 501/709
f 491/710 442/582 490/679
f 269/316 362/450 502/711
f 195/227 284/337 112/121
f 394/569 149/164 503/712
f 375/475 458/608 457/607
f 498/713 331/595 504/714
f 171/529 505/715 170/716
f 494/717 421/545 506/718
f 507/719 465/720 508/721
f 505/722 228/267 170/268
f 509/723 276/724 498/725
f 207/241 483/654 286/653
f 193/225 195/227 490/726
f 203/237 202/236 467/727
f 502/711 510/728 269/316
f 295/729 294/730 511/731
f 256/299 469/622 503/712
f 137/732 384/733 412/734
f 257/300 259/302 83/92
f 323/384 290/735 50/56
f 119/697 276/323 262/308
f 386/489 215/251 255/298
f 440/576 120/129 162/177
f 512/736 513/737 514/738
f 32/739 31/232 61/76
f 410/519 515/740 495/741
f 516/742 517/743 193/225
f 437/571 334/403 518/744
f 291/463 470/624 33/461
f 519/745 277/746 306/680
f 220/324 263/309 262/308
f 329/543 408/516 139/747
f 119/128 262/703 45/51
f 520/748 334/749 318/750
f 203/237 521/751 204/238
f 453/599 487/752 375/753
f 348/431 350/433 115/124
f 154/754 497/693 468/755
f 42/756 499/757 429/758
f 242/759 345/424 346/425
f 269/316 522/760 515/740
f 434/761 250/762 492/763
f 523/764 524/765 525/766
f 526/767 498/696 119/697
f 527/768 177/769 528/770
f 155/771 529/772 530/773
f 208/774 191/223 87/96
f 411/520 105/114 313/374
f 531/775 532/776 533/777
f 310/605 64/372 63/606
f 479/647 466/616 222/258
f 243/778 206/240 244/579
f 442/582 341/412 196/229
f 24/30 468/755 497/693
f 290/735 534/779 50/56
f 535/780 536/781 537/782
f 536/781 538/783 537/782
f 73/81 320/381 346/425
f 320/381 151/166 346/425
f 312/373 64/372 71/79
f 26/197 303/358 304/359
f 245/287 246/288 320/381
f 284/337 110/119 112/121
f 464/614 282/332 105/114
f 282/784 401/574 105/785
f 101/110 97/786 102/111
f 539/787 417/788 540/789
f 417/790 370/791 540/792
f 541/793 192/224 191/223
f 504/714 509/794 498/713
f 349/795 101/110 542/796
f 387/490 154/754 153/797
f 27/33 74/136 25/31
f 93/596 543/798 311/594
f 218/799 360/800 219/801
f 44/430 64/372 310/605
f 225/707 501/709 507/802
f 354/437 362/450 361/449
f 299/354 184/803 297/352
f 107/804 308/363 327/444
f 521/751 85/94 544/805
f 45/806 200/807 199/808
f 491/710 444/584 211/245
f 147/162 146/161 139/150
f 379/480 503/712 149/164
f 193/225 197/809 516/742
f 418/810 361/449 384/487
f 269/316 271/318 522/760
f 356/440 58/439 380/481
f 346/425 150/165 242/759
f 132/210 17/23 100/109
f 87/96 191/223 88/97
f 516/742 278/811 117/812
f 18/24 412/521 16/22
f 545/813 160/814 90/99
f 360/815 218/816 297/817
f 504/714 546/818 509/794
f 220/819 219/820 263/821
f 547/822 548/823 464/614
f 298/353 332/824 299/354
f 263/825 481/651 126/135
f 549/826 432/827 550/828
f 432/829 551/830 550/831
f 60/832 62/833 528/834
f 552/835 534/779 290/735
f 38/836 130/837 357/838
f 91/100 429/758 89/98
f 106/115 332/824 104/113
f 70/839 108/840 527/841
f 533/842 377/843 531/844
f 553/845 328/443 358/445
f 120/129 148/163 161/176
f 132/210 554/846 357/847
f 255/298 230/270 232/272
f 164/179 163/178 352/435
f 239/280 385/488 387/490
f 106/505 58/400 332/399
f 382/483 228/267 381/482
f 228/848 166/849 381/850
f 58/400 140/851 408/516
f 403/511 546/852 404/512
f 305/390 248/853 325/388
f 394/497 319/455 241/282
f 185/854 57/855 555/856
f 24/30 23/29 183/857
f 273/858 359/859 274/860
f 525/861 397/862 556/863
f 303/358 26/197 301/356
f 26/32 557/864 301/865
f 176/462 558/866 60/867
f 559/868 474/869 560/870
f 474/871 15/872 560/873
f 176/462 68/874 368/464
f 312/373 518/744 175/371
f 151/166 320/381 149/164
f 156/875 530/876 201/877
f 140/151 400/878 138/149
f 406/514 405/513 561/879
f 562/880 132/210 100/109
f 101/881 349/882 95/883
f 240/281 269/316 238/279
f 38/884 357/885 39/886
f 175/371 518/744 450/593
f 93/596 251/887 543/798
f 104/113 332/824 298/353
f 563/888 349/795 542/796
f 27/889 59/890 344/891
f 392/495 417/528 141/152
f 130/892 418/893 137/894
f 116/125 446/895 545/813
f 66/896 56/897 55/898
f 13/899 36/900 405/901
f 530/902 156/903 155/904
f 362/450 180/205 179/204
f 106/505 140/851 58/400
f 36/905 35/906 405/907
f 406/514 46/52 564/908
f 166/181 228/909 505/715
f 38/910 418/911 130/912
f 392/495 174/193 372/472
f 273/913 414/525 388/491
f 415/526 389/492 388/491
f 16/22 564/908 46/52
f 512/736 126/135 419/540
f 125/914 565/915 419/916
f 367/460 96/578 35/577
f 330/395 329/394 139/917
f 440/576 544/805 121/130
f 443/583 396/918 211/245
f 326/919 328/920 72/921
f 480/648 395/650 397/922
f 226/923 547/924 253/925
f 485/656 566/926 47/53
f 80/89 277/746 260/303
f 217/253 216/252 489/678
f 567/927 104/113 568/928
f 293/385 323/384 49/55
f 109/364 308/363 107/804
f 569/929 562/930 224/931
f 489/678 377/932 426/551
f 280/329 229/269 488/933
f 508/721 465/720 570/934
f 484/655 223/259 275/935
f 435/936 541/793 428/556
f 571/937 37/938 572/939
f 451/597 445/585 573/940
f 574/941 474/942 575/943
f 373/473 295/944 511/945
f 334/413 421/545 293/385
f 288/342 290/344 324/946
f 58/947 408/948 576/949
f 437/571 436/570 318/950
f 266/705 159/174 500/706
f 438/581 441/580 400/878
f 227/951 577/952 225/707
f 202/236 465/720 467/727
f 237/277 236/276 268/315
f 82/630 247/629 277/953
f 486/662 257/300 111/120
f 215/251 435/567 469/622
f 224/260 562/880 100/109
f 341/412 266/313 196/229
f 294/730 524/954 374/955
f 524/954 459/956 374/955
f 529/957 155/958 157/959
f 516/960 117/961 338/962
f 279/328 541/963 229/269
f 318/379 436/964 319/380
f 458/608 375/475 374/474
f 453/965 248/628 82/630
f 206/240 243/778 456/604
f 289/398 420/544 422/546
f 521/966 447/589 85/967
f 418/968 38/969 578/970
f 566/926 268/369 99/108
f 443/681 306/680 325/971
f 374/955 511/731 294/730
f 499/698 569/972 430/973
f 71/974 380/975 326/976
f 90/977 160/978 128/979
f 260/303 277/746 519/745
f 188/980 286/653 189/981
f 221/257 243/778 463/982
f 579/983 508/721 307/362
f 373/984 377/985 533/986
f 526/767 331/397 498/696
f 438/572 401/574 282/784
f 420/987 288/342 324/946
f 338/408 300/355 309/365
f 196/229 193/228 442/582
f 465/615 507/802 501/709
f 425/549 577/988 251/293
f 189/221 21/27 20/26
f 580/989 386/489 385/488
f 427/568 317/454 394/569
f 562/930 569/929 554/990
f 292/346 449/592 293/347
f 216/252 215/251 386/489
f 280/991 487/752 190/222
f 553/992 470/624 462/612
f 541/963 435/567 30/36
f 350/993 349/795 581/994
f 582/995 285/338 486/662
f 39/996 357/997 554/990
f 559/998 378/478 431/999
f 378/1000 432/1001 431/1002
f 339/410 120/129 84/93
f 583/1003 270/317 510/728
f 426/551 488/933 229/269
f 81/90 111/120 244/286
f 487/752 453/599 205/239
f 94/294 407/1004 250/292
f 47/53 46/52 485/656
f 494/717 422/546 421/545
f 406/514 561/879 46/52
f 148/163 563/1005 146/161
f 261/1006 55/1007 54/1008
f 113/216 584/1009 405/513
f 342/415 421/545 334/413
f 44/430 74/136 27/33
f 278/811 516/742 197/809
f 441/580 162/177 161/176
f 576/1010 455/1011 326/1012
f 569/972 499/698 41/47
f 256/299 215/251 469/622
f 407/1013 493/1014 492/763
f 31/232 553/845 308/363
f 58/1015 576/1016 380/1017
f 322/383 321/382 72/80
f 327/444 455/1018 107/804
f 455/1018 409/1019 107/804
f 218/1020 276/724 568/928
f 470/624 553/992 31/623
f 306/680 491/682 519/745
f 380/481 71/79 64/372
f 454/600 494/1021 264/566
f 22/28 143/154 585/1022
f 484/655 189/981 286/653
f 252/1023 543/798 227/1024
f 586/1025 587/1026 535/780
f 587/1026 536/781 535/780
f 406/514 564/908 14/479
f 140/151 139/150 408/1027
f 342/415 333/414 506/718
f 90/1028 128/1029 127/1030
f 364/452 213/249 212/248
f 232/272 22/28 24/30
f 367/1031 35/1032 468/1033
f 588/1034 412/1035 551/1036
f 299/401 58/400 57/1037
f 134/145 182/207 167/1038
f 367/460 366/459 96/578
f 291/463 178/202 470/624
f 89/98 116/125 90/99
f 589/1039 41/649 480/648
f 91/100 42/756 429/758
f 146/420 563/888 542/796
f 53/59 22/1040 51/57
f 51/1041 590/1042 52/1043
f 51/1044 143/1045 383/1046
f 142/1047 539/1048 383/1049
f 195/227 112/121 490/726
f 112/121 491/682 490/726
f 496/692 377/1050 489/1051
f 320/381 73/81 321/382
f 591/1052 592/1053 391/494
f 592/1053 587/1026 391/494
f 497/693 232/272 24/30
f 336/405 363/1054 337/406
f 492/1055 454/600 434/565
f 136/147 18/24 17/23
f 485/656 561/879 584/1009
f 177/1056 60/1057 528/1058
f 577/988 425/549 424/548
f 17/23 47/53 100/109
f 552/835 118/1059 534/779
f 358/445 308/363 553/845
f 182/1060 239/1061 152/167
f 36/1062 13/1063 34/1064
f 495/741 580/989 410/519
f 267/314 300/355 123/409
f 408/1065 455/1066 576/1067
f 194/226 517/743 195/227
f 517/743 309/365 195/227
f 517/1068 516/1069 338/1070
f 198/231 146/420 542/796
f 542/796 103/112 198/231
f 183/857 468/755 24/30
f 409/518 261/517 527/1071
f 254/1072 404/1073 546/818
f 152/1074 35/577 34/1075
f 317/454 209/243 318/950
f 533/1076 532/1077 373/1078
f 329/394 171/529 66/541
f 345/424 399/503 73/81
f 329/394 102/111 366/459
f 304/359 389/1079 144/198
f 170/268 172/191 67/203
f 493/1080 407/515 289/398
f 375/475 376/476 373/473
f 158/1081 160/814 545/813
f 95/1082 349/1083 413/1084
f 269/316 240/281 362/450
f 157/959 398/501 175/371
f 124/133 126/135 481/651
f 93/596 331/595 94/1085
f 576/1086 326/1087 380/1088
f 154/169 468/1089 152/167
f 591/1090 389/1091 302/1092
f 389/1079 304/359 302/357
f 173/192 228/267 382/483
f 361/449 179/204 384/487
f 151/166 150/165 346/425
f 366/459 102/111 96/578
f 348/431 114/123 349/432
f 182/207 180/205 239/280
f 231/271 174/193 392/495
f 593/1093 581/1094 258/1095
f 16/22 14/479 564/908
f 65/1096 156/1097 310/1098
f 414/525 315/376 416/527
f 387/490 497/693 154/754
f 163/178 505/715 171/529
f 388/491 587/1026 273/913
f 587/1026 586/1025 273/913
f 502/711 362/450 353/436
f 419/540 513/737 512/736
f 173/192 371/471 372/472
f 389/1079 347/429 144/198
f 545/813 90/99 116/125
f 329/394 366/459 171/529
f 184/803 57/1099 185/1100
f 137/1101 131/142 130/141
f 539/1102 141/1103 417/1104
f 399/503 312/373 71/79
f 26/197 59/186 27/1105
f 19/550 275/1106 424/548
f 546/818 504/714 311/594
f 275/322 19/25 21/27
f 456/604 221/257 223/259
f 311/594 254/1072 546/818
f 483/654 207/241 456/604
f 266/1107 341/1108 128/1109
f 129/247 341/412 211/245
f 341/1108 129/1110 128/1109
f 325/1111 248/1112 594/1113
f 352/435 183/208 351/434
f 219/1114 273/1115 586/1116
f 538/1117 219/1118 586/1119
f 190/222 279/1120 280/991
f 205/239 190/222 487/752
f 589/1039 595/1121 41/649
f 467/617 448/663 203/1122
f 442/582 491/710 340/411
f 538/783 536/781 481/651
f 27/33 344/441 356/440
f 356/440 44/430 27/33
f 29/35 28/34 217/253
f 426/551 377/932 376/1123
f 373/473 511/945 374/474
f 522/1124 377/1050 496/692
f 596/1125 597/1126 522/1127
f 505/715 163/178 166/181
f 255/298 232/272 387/490
f 133/144 474/1128 574/1129
f 384/487 133/144 412/1130
f 65/1131 398/1132 156/1133
f 518/744 312/373 437/571
f 437/571 399/503 345/424
f 172/191 462/612 178/202
f 246/288 598/1134 320/381
f 246/288 379/480 598/1134
f 291/463 67/203 178/202
f 56/1135 66/1136 68/1137
f 255/298 387/490 386/489
f 522/1124 496/692 495/691
f 410/519 580/989 385/488
f 495/741 515/740 522/760
f 163/178 165/180 166/181
f 238/279 410/519 239/280
f 163/1138 367/1139 468/1089
f 189/221 484/1140 275/322
f 275/935 222/258 424/708
f 307/362 464/614 548/823
f 508/721 579/983 507/719
f 544/805 440/576 204/238
f 82/91 277/746 80/89
f 187/214 349/795 114/215
f 39/996 554/990 572/939
f 37/938 39/996 572/939
f 183/208 352/435 163/178
f 558/866 176/462 33/461
f 98/107 100/109 47/53
f 412/521 550/1141 551/1142
f 550/1143 412/1144 549/1145
f 551/1146 432/1147 588/1148
f 432/1149 599/1150 588/1151
f 588/1152 599/1153 16/22
f 432/1154 378/1155 599/1156
f 16/22 412/521 588/1152
f 560/1157 14/479 559/998
f 133/144 600/1158 412/1130
f 15/1159 14/479 560/1157
f 132/210 562/880 554/846
f 554/990 569/929 572/939
f 47/53 566/926 98/107
f 98/107 566/926 99/108
f 430/1160 224/626 471/625
f 572/939 569/929 571/937
f 569/1161 41/649 571/1162
f 41/649 595/1121 571/1162
f 584/1009 237/657 485/656
f 268/369 566/926 485/656
f 430/1160 471/625 99/627
f 99/108 89/98 429/758
f 158/1081 545/813 446/895
f 525/1163 556/1164 594/1165
f 581/994 349/795 563/888
f 330/395 139/917 146/420
f 581/1166 563/1005 601/1167
f 601/1167 563/1005 339/410
f 79/1168 389/492 416/527
f 414/525 316/377 315/376
f 389/492 415/526 416/527
f 448/1169 521/1170 203/1171
f 568/928 298/353 218/1020
f 464/614 411/520 402/510
f 547/822 464/614 402/510
f 547/924 402/1172 253/925
f 14/1173 13/1174 405/1175
f 405/513 584/1009 561/879
f 89/98 99/108 122/131
f 268/369 123/132 122/131
f 236/276 113/278 115/1176
f 593/1177 365/702 350/433
f 593/1093 350/1178 581/1094
f 148/163 339/410 563/1005
f 581/1166 601/1167 258/301
f 363/451 257/300 486/662
f 161/176 148/163 147/162
f 84/93 601/1167 339/410
f 60/1179 558/1180 61/1181
f 447/589 521/966 448/590
f 602/1182 603/1183 475/1184
f 475/1185 297/1186 602/1187
f 184/1188 602/1187 297/1186
f 555/1189 602/1190 185/1191
f 602/1192 186/1193 185/1194
f 186/1195 602/1196 184/1197
f 359/1198 476/1199 274/1200
f 299/354 57/1099 184/803
f 475/1184 603/1183 476/1201
f 207/241 286/653 86/95
f 104/113 298/353 568/928
f 403/511 313/374 546/852
f 19/25 434/761 20/26
f 548/823 547/822 579/983
f 251/1202 250/762 425/1203
f 250/762 434/761 425/1203
f 602/1187 555/1204 168/1205
f 128/1206 160/1207 159/1208
f 398/1209 157/1210 156/1211
f 396/918 443/583 556/1164
f 40/246 211/245 396/918
f 395/664 40/246 396/918
f 430/559 429/558 499/1212
f 569/929 224/931 430/1213
f 561/879 485/656 46/52
f 378/478 559/998 14/479
f 599/1153 378/478 16/22
f 159/174 158/173 500/706
f 335/1214 158/1081 446/895
f 500/706 158/173 335/704
f 584/1215 113/278 237/277
f 446/588 278/1216 197/586
f 365/453 267/314 236/276
f 115/124 114/123 348/431
f 365/453 212/248 267/314
f 194/226 193/225 517/743
f 236/276 115/1176 365/453
f 212/248 365/453 364/452
f 212/248 309/365 300/355
f 187/1217 96/1218 604/1219
f 309/365 214/250 284/337
f 364/452 363/451 213/249
f 96/578 102/111 97/786
f 542/796 101/110 103/112
f 593/1220 337/406 363/1054
f 365/702 593/1177 363/1221
f 363/451 214/250 213/249
f 285/338 582/995 284/337
f 444/584 491/710 443/583
f 519/745 491/682 112/121
f 102/111 330/395 198/231
f 594/1165 556/1164 443/583
f 582/995 110/119 284/337
f 443/681 325/971 594/1222
f 258/301 601/1167 259/302
f 486/662 285/338 214/250
f 84/93 259/302 601/1167
f 259/302 84/93 83/92
f 257/300 363/451 336/1223
f 112/121 260/303 519/745
f 111/120 582/995 486/662
f 111/120 110/119 582/995
f 248/290 305/360 249/291
f 121/130 544/805 84/93
f 460/610 257/300 83/92
f 161/176 147/162 138/149
f 138/149 441/580 161/176
f 260/303 111/120 81/90
f 544/805 85/94 84/93
f 440/576 162/177 441/580
f 111/120 257/300 243/285
f 460/610 243/285 257/300
f 138/149 400/878 441/580
f 441/580 439/575 440/576
f 460/610 85/94 463/613
f 85/967 447/589 463/1224
f 221/591 463/1224 447/589
f 453/621 81/90 244/286
f 54/1225 56/1226 177/1227
f 438/581 461/611 439/575
f 544/805 204/238 521/751
f 282/332 461/611 438/581
f 204/238 461/611 281/331
f 243/778 221/257 456/604
f 177/304 527/1228 261/305
f 570/934 202/236 204/238
f 281/331 570/934 204/238
f 467/617 479/647 448/663
f 401/574 106/1229 105/785
f 282/332 281/331 461/611
f 202/236 570/934 465/720
f 62/1230 70/1231 527/1232
f 528/1233 62/1234 527/1235
f 527/1071 108/1236 409/518
f 108/1236 107/1237 409/518
f 281/331 508/721 570/934
f 281/331 307/362 508/721
f 223/259 484/655 456/604
f 478/1238 476/1239 359/1240
f 475/640 478/643 297/1241
f 477/642 478/643 475/640
f 282/332 464/614 283/333
f 297/1241 478/643 359/1242
f 360/1243 297/1244 359/1245
f 283/333 464/614 307/362
f 275/935 223/259 222/258
f 297/352 218/1020 298/353
f 313/374 403/511 411/520
f 307/362 548/823 579/983
f 568/928 276/724 567/927
f 567/927 509/723 313/374
f 313/374 509/723 546/852
f 509/723 567/927 276/724
f 188/220 20/26 233/1246
f 425/1203 434/761 19/25
f 50/56 201/1247 48/54
f 530/773 48/54 201/1247
f 446/895 116/125 278/327
f 340/411 491/710 211/245
f 311/594 543/798 252/1023
f 484/655 483/654 456/604
f 118/1248 526/1249 119/1250
f 552/1251 526/1249 118/1248
f 265/312 235/1252 234/310
f 145/157 168/1253 144/155
f 199/1254 201/1247 534/779
f 265/312 423/694 235/1252
f 534/779 201/1247 50/56
f 33/39 32/38 61/1255
f 579/1256 226/923 225/1257
f 226/923 579/1256 547/924
f 579/1258 225/707 507/802
f 577/1259 227/1024 543/798
f 501/709 466/616 465/615
f 567/927 313/374 104/113
f 424/708 225/707 577/952
f 501/709 222/258 466/616
f 543/798 251/887 577/1259
f 424/708 222/258 501/709
f 221/257 479/647 222/258
f 492/763 250/762 407/1013
f 504/714 331/595 311/594
f 20/26 434/761 233/1246
f 309/365 517/743 338/408
f 331/397 526/767 552/835
f 552/835 289/398 331/397
f 552/835 290/735 289/398
f 118/127 45/51 199/1260
f 199/1254 534/779 118/1059
f 493/1080 289/398 422/546
f 289/343 288/342 420/987
f 287/341 87/1261 86/339
f 333/695 265/312 506/1262
f 290/735 323/384 324/386
f 324/386 293/385 420/544
f 420/544 293/385 421/545
f 266/1107 128/1109 159/1263
f 529/772 48/54 530/773
f 49/55 48/54 529/772
f 207/241 190/222 205/239
f 190/222 207/241 88/97
f 453/1264 457/1265 523/764
f 457/1266 453/1267 375/1268
f 191/223 208/774 605/1269
f 426/551 376/1123 488/933
f 174/193 173/192 372/472
f 271/318 452/598 596/1270
f 227/263 226/262 252/295
f 253/925 402/1172 254/1072
f 404/1073 254/1072 402/1172
f 494/1021 454/600 492/1055
f 264/566 506/1271 265/1272
f 506/1271 264/566 494/1021
f 264/566 234/274 233/273
f 127/1273 129/1274 42/1275
f 233/1276 287/341 188/564
f 342/415 506/718 421/545
f 235/275 87/96 233/273
f 157/959 49/348 529/957
f 233/1277 87/1278 287/1279
f 556/1280 397/500 396/499
f 359/1281 273/1282 219/1283
f 263/825 126/135 43/137
f 263/1284 219/1118 481/1285
f 219/1118 538/1117 481/1285
f 333/402 209/243 423/1286
f 49/348 157/959 292/346
f 587/1026 390/493 391/494
f 390/493 587/1026 388/491
f 537/782 538/783 535/780
f 535/780 538/783 586/1025
f 334/413 520/1287 209/1288
f 157/959 175/371 292/346
f 272/1289 274/1290 476/1291
f 272/1292 476/1293 602/1187
f 272/1294 602/1295 168/1296
f 272/1297 315/1298 314/1299
f 168/185 315/1300 272/1301
f 316/1302 414/1303 272/1301
f 272/1304 414/1305 273/1306
f 606/1307 482/652 481/651
f 606/1307 536/781 607/1308
f 606/1307 481/651 536/781
f 606/1307 608/1309 482/652
f 400/878 140/151 106/115
f 606/1307 607/1308 608/1309
f 565/915 124/1310 482/1311
f 482/1312 608/1313 565/1314
f 124/1310 565/915 125/914
f 513/1315 419/1316 565/1317
f 557/864 514/738 513/737
f 514/1318 557/1319 75/1320
f 169/187 144/198 168/185
f 59/186 168/185 57/1321
f 607/1308 536/781 592/1053
f 557/1322 25/1323 75/1324
f 557/864 26/32 25/31
f 423/547 208/774 87/96
f 607/1308 591/1052 608/1309
f 607/1308 592/1053 591/1052
f 391/494 389/492 591/1052
f 450/593 292/346 175/371
f 209/243 208/242 423/1286
f 334/403 437/571 318/950
f 518/744 334/403 450/593
f 208/774 210/1325 605/1269
f 190/222 192/224 279/1120
f 191/223 605/1269 428/556
f 317/557 605/1269 210/1325
f 312/373 399/503 437/571
f 345/424 242/759 436/570
f 242/283 319/455 436/1326
f 31/232 308/363 69/77
f 428/556 541/793 191/223
f 317/557 428/556 605/1269
f 192/224 541/793 279/1120
f 328/1327 553/992 72/80
f 248/1112 453/1264 594/1113
f 72/80 553/992 609/1328
f 457/1265 459/1329 523/764
f 427/555 435/936 428/556
f 322/383 72/80 609/1328
f 594/1165 453/599 523/1330
f 60/1331 177/1332 176/1333
f 61/1255 558/1334 33/39
f 488/671 375/475 487/669
f 541/963 30/36 229/269
f 594/1165 523/1330 525/1163
f 375/475 488/671 376/476
f 462/612 609/1328 553/992
f 459/1329 524/765 523/764
f 609/1328 462/612 322/383
f 368/464 68/874 291/463
f 320/381 322/383 245/287
f 178/202 462/612 470/624
f 394/569 503/712 469/622
f 150/165 149/164 394/569
f 28/34 435/567 215/251
f 149/164 320/381 598/1134
f 28/34 215/251 217/253
f 149/164 598/1134 379/480
f 597/1126 596/1125 373/473
f 373/473 596/1125 452/1335
f 256/299 503/712 379/480
f 539/1336 142/1337 141/1338
f 231/271 230/270 246/288
f 351/434 183/208 52/58
f 22/1040 53/59 23/60
f 216/690 496/692 489/1051
f 246/288 230/270 379/480
f 452/598 271/318 445/585
f 51/1339 585/1022 143/154
f 585/1022 51/1339 22/28
f 231/271 22/28 232/272
f 230/270 255/298 379/480
f 596/1270 522/760 271/318
f 386/489 580/989 216/252
f 163/1138 468/1089 183/1340
f 216/252 580/989 495/741
f 387/490 153/797 239/280
f 153/168 152/167 239/1061
f 410/519 238/279 515/740
f 270/317 573/940 445/585
f 270/317 583/1003 573/940
f 515/740 238/279 269/316
f 167/1341 182/1342 34/1343
f 269/316 510/728 270/317
f 182/207 134/145 181/206
f 134/145 167/1038 135/146
f 510/728 353/436 583/1003
f 502/711 353/436 510/728
f 240/281 180/205 362/450
f 15/1344 135/146 167/1038
f 362/450 354/437 353/436
f 133/144 574/1129 600/1158
f 474/1128 135/146 15/1344
f 135/146 474/1128 133/144
f 559/1345 473/1346 474/1347
f 433/1348 472/1349 431/1350
f 473/1351 559/998 431/999
f 610/1352 600/1353 574/1354
f 575/1355 610/1356 574/1357
f 432/1358 549/1359 610/1360
f 231/271 246/288 174/193
f 611/1361 612/1362 613/1363
f 614/1364 615/1365 616/1366
f 617/1367 618/1368 619/1369
f 620/1370 621/1371 622/1372
f 623/1373 624/1374 625/1375
f 616/1376 615/1377 626/1378
f 627/1379 628/1380 629/1381
f 630/1382 631/1383 632/1384
f 612/1385 611/1386 633/1387
f 627/1388 634/1389 628/1390
f 622/1372 635/1391 620/1370
f 636/1392 637/1393 638/1394
f 639/1395 640/1396 641/1397
f 612/1398 642/1399 613/1400
f 636/1401 638/1402 643/1403
f 644/1404 645/1405 646/1406
f 647/1407 644/1408 646/1409
f 648/1410 649/1411 650/1412
f 651/1413 647/1414 646/1415
f 645/1416 652/1417 646/1418
f 653/1419 654/1420 655/1421
f 656/1422 657/1423 658/1424
f 659/1425 660/1426 661/1427
f 662/1428 663/1429 664/1430
f 665/1431 666/1432 667/1433
f 668/1434 669/1435 670/1436
f 661/1437 660/1438 671/1439
f 672/1440 673/1441 674/1442
f 675/1443 676/1444 677/1445
f 657/1446 656/1447 678/1448
f 672/1449 679/1450 673/1451
f 667/1433 680/1452 665/1431
f 681/1453 682/1454 683/1455
f 684/1456 685/1457 686/1458
f 657/1459 687/1460 658/1461
f 681/1462 683/1463 688/1464
