# Blender v2.92.0 OBJ File: ''
# www.blender.org
mtllib Battlewagon Wheel 2 R.mtl
o Body_battlewagon_body0_model0.001_Body_battlewagon_body0_model0.002
v -0.090731 -0.041509 -0.112243
v -0.090732 -0.088874 -0.079412
v -0.090732 0.001409 0.000258
v -0.090732 -0.115558 -0.028329
v -0.090732 -0.115445 0.029303
v -0.090733 -0.088562 0.080280
v -0.090732 -0.041068 0.112926
v -0.090732 0.016156 0.119761
v -0.090732 0.070003 0.099219
v -0.090731 0.108135 0.056006
v -0.090731 0.121818 0.000023
v -0.090731 0.107916 -0.055907
v -0.090731 0.069615 -0.098970
v -0.090731 0.015689 -0.119301
v -0.090334 0.060828 -0.497229
v 0.291293 -0.177174 -0.467855
v -0.090335 -0.177172 -0.467858
v 0.291295 0.060825 -0.497226
v -0.090333 0.285216 -0.412631
v 0.291296 0.285213 -0.412629
v -0.090333 0.444586 -0.233446
v 0.291296 0.444584 -0.233444
v -0.090334 0.502431 -0.000722
v 0.291294 0.502428 -0.000720
v -0.090335 0.445497 0.232227
v 0.291293 0.445495 0.232229
v -0.090337 0.286828 0.412034
v 0.291291 0.286826 0.412037
v -0.090339 0.062773 0.497508
v 0.291289 0.062771 0.497511
v -0.090341 -0.175340 0.469069
v 0.291288 -0.175342 0.469071
v -0.090341 -0.372962 0.333231
v 0.291288 -0.372964 0.333233
v -0.090341 -0.484819 0.121112
v 0.291288 -0.484821 0.121114
v -0.090339 -0.485288 -0.118693
v 0.291289 -0.485291 -0.118691
v -0.090337 -0.374261 -0.331247
v 0.291291 -0.374263 -0.331245
v 0.325352 -0.341960 0.305657
v 0.325359 0.055905 -0.456026
v 0.325352 -0.160704 0.430246
v 0.325360 0.261709 -0.378434
v 0.325354 0.057689 0.456330
v 0.325360 0.407882 -0.214089
v 0.325355 0.263188 0.377934
v 0.325359 0.460935 -0.000638
v 0.325357 0.408717 0.213019
v 0.325356 -0.343152 -0.303791
v 0.325353 -0.444554 0.111106
v 0.325354 -0.444984 -0.108840
v 0.325358 -0.162385 -0.429088
v -0.004152 0.121817 0.000023
v -0.033965 0.263851 -0.138137
v -0.004151 0.107916 -0.055907
v -0.033965 0.169475 -0.244248
v -0.004151 0.069614 -0.098970
v -0.033966 0.036595 -0.294346
v -0.004152 0.015688 -0.119301
v -0.033966 -0.104344 -0.276953
v -0.004152 -0.041509 -0.112242
v -0.033968 -0.221057 -0.196054
v -0.004152 -0.088875 -0.079411
v -0.033969 -0.286806 -0.070183
v -0.004153 -0.115558 -0.028328
v -0.033969 -0.286528 0.071825
v -0.004153 -0.115446 0.029303
v -0.033970 -0.220288 0.197439
v -0.004153 -0.088563 0.080281
v -0.033970 -0.103259 0.277881
v -0.004153 -0.041069 0.112926
v -0.033969 0.037748 0.294723
v -0.004153 0.016156 0.119761
v -0.033968 0.170429 0.244106
v -0.004152 0.070002 0.099220
v -0.033967 0.264391 0.137627
v -0.004152 0.108135 0.056007
v -0.033966 0.298106 -0.000321
v -0.140783 0.170430 0.244105
v -0.140781 0.264391 0.137626
v -0.140780 0.298106 -0.000322
v -0.140780 0.263852 -0.138138
v -0.140779 0.169475 -0.244249
v -0.140780 0.036596 -0.294346
v -0.140781 -0.104344 -0.276953
v -0.140782 -0.221057 -0.196055
v -0.140783 -0.286805 -0.070183
v -0.140784 -0.286528 0.071825
v -0.140785 -0.220287 0.197439
v -0.140784 -0.103259 0.277880
v -0.140784 0.037748 0.294722
v -0.127708 0.408058 -0.214183
v -0.127708 0.261823 -0.378599
v -0.127709 0.055930 -0.456223
v -0.127711 -0.162452 -0.429274
v -0.127713 -0.343296 -0.303923
v -0.127714 -0.445172 -0.108889
v -0.127715 -0.444742 0.111151
v -0.127716 -0.342104 0.305785
v -0.127716 -0.160771 0.430427
v -0.127714 0.057716 0.456523
v -0.127709 0.461134 -0.000641
v -0.127713 0.263303 0.378094
v -0.127711 0.408893 0.213107
vt 1.578866 0.564290
vt 1.576650 0.567488
vt 1.571272 0.561394
vt 1.573201 0.569288
vt 1.569312 0.569281
vt 1.565871 0.567467
vt 1.563668 0.564261
vt 1.563206 0.560398
vt 1.564593 0.556763
vt 1.567509 0.554190
vt 1.571288 0.553266
vt 1.575063 0.554205
vt 1.577970 0.556789
vt 1.579343 0.560430
vt 0.514873 0.526490
vt 0.530939 0.500731
vt 0.530939 0.526490
vt 0.514873 0.500731
vt 0.499727 0.526490
vt 0.499727 0.500732
vt 0.486143 0.526490
vt 0.486143 0.500732
vt 0.470434 0.526490
vt 0.470434 0.500732
vt 0.651478 0.526490
vt 0.667202 0.500732
vt 0.667202 0.526490
vt 0.651478 0.500732
vt 0.637355 0.526490
vt 0.637355 0.500732
vt 0.622230 0.526490
vt 0.622230 0.500732
vt 0.606158 0.526490
vt 0.606158 0.500732
vt 0.590088 0.526490
vt 0.590088 0.500732
vt 0.574777 0.526490
vt 0.574777 0.500732
vt 0.558590 0.526490
vt 0.558590 0.500732
vt 0.544242 0.526490
vt 0.544242 0.500732
vt 0.528376 0.543729
vt 0.472062 0.557631
vt 0.533645 0.557609
vt 0.473856 0.572368
vt 0.531861 0.572347
vt 0.482295 0.584583
vt 0.523432 0.584568
vt 0.495443 0.591478
vt 0.510289 0.591473
vt 0.488430 0.533899
vt 0.517259 0.533889
vt 0.502844 0.530341
vt 0.477321 0.543748
vt 0.475015 0.542158
vt 0.469281 0.557295
vt 0.471238 0.573363
vt 0.480438 0.586680
vt 0.494773 0.594198
vt 0.510960 0.594192
vt 0.525290 0.586665
vt 0.534481 0.573340
vt 0.536426 0.557270
vt 0.530680 0.542137
vt 0.518559 0.531407
vt 0.502843 0.527539
vt 0.487128 0.531419
vt 0.693745 0.540331
vt 0.703071 0.530743
vt 0.697521 0.541269
vt 0.710233 0.537113
vt 0.700427 0.543854
vt 0.713615 0.546083
vt 0.701800 0.547494
vt 0.712440 0.555596
vt 0.701323 0.551355
vt 0.706981 0.563474
vt 0.699107 0.554552
vt 0.698484 0.567912
vt 0.695659 0.556353
vt 0.688898 0.567894
vt 0.691768 0.556345
vt 0.680419 0.563423
vt 0.688328 0.554531
vt 0.674990 0.555523
vt 0.686123 0.551325
vt 0.673853 0.546005
vt 0.685663 0.547462
vt 0.677270 0.537049
vt 0.687049 0.543828
vt 0.684457 0.530707
vt 0.689966 0.541253
vt 0.693768 0.528431
vt 0.514786 0.566129
vt 0.515730 0.576333
vt 0.510874 0.571156
vt 0.508075 0.580472
vt 0.506379 0.573670
vt 0.497982 0.580689
vt 0.499685 0.573842
vt 0.489383 0.575960
vt 0.493926 0.570506
vt 0.484379 0.568640
vt 0.491084 0.566334
vt 0.483044 0.559075
vt 0.490004 0.559808
vt 0.486561 0.549907
vt 0.492542 0.553590
vt 0.493394 0.543870
vt 0.496761 0.550066
vt 0.502558 0.541432
vt 0.502654 0.548425
vt 0.512152 0.543782
vt 0.509115 0.550098
vt 0.519120 0.550079
vt 0.513382 0.554208
vt 0.522481 0.558589
vt 0.515521 0.559451
vt 0.521379 0.568465
vt 1.789743 0.528215
vt 1.786538 0.534059
vt 1.786538 0.528215
vt 1.789743 0.534059
vt 1.793184 0.528215
vt 1.793184 0.534059
vt 1.797074 0.528215
vt 1.797074 0.534059
vt 1.800522 0.528215
vt 1.800522 0.534059
vt 1.758162 0.528215
vt 1.754964 0.534059
vt 1.754964 0.528215
vt 1.758162 0.534059
vt 1.762023 0.528215
vt 1.762023 0.534059
vt 1.765663 0.528215
vt 1.765663 0.534059
vt 1.768569 0.528215
vt 1.768569 0.534059
vt 1.772344 0.528215
vt 1.772344 0.534059
vt 1.776124 0.528215
vt 1.776124 0.534059
vt 1.779040 0.528215
vt 1.779040 0.534059
vt 1.782675 0.528215
vt 1.782675 0.534059
vt 0.482274 0.584614
vt 0.473803 0.572414
vt 0.471973 0.557675
vt 0.477201 0.543773
vt 0.488291 0.533893
vt 0.502702 0.530299
vt 0.517133 0.533813
vt 0.528277 0.543631
vt 0.533582 0.557505
vt 0.531833 0.572254
vt 0.495445 0.591480
vt 0.494784 0.594189
vt 0.480431 0.586706
vt 0.471199 0.573410
vt 0.469204 0.557346
vt 0.474902 0.542195
vt 0.486988 0.531428
vt 0.502694 0.527511
vt 0.518421 0.531342
vt 0.530567 0.542042
vt 0.536349 0.557161
vt 0.534442 0.573235
vt 0.523429 0.584500
vt 0.525283 0.586582
vt 0.510297 0.591439
vt 0.510971 0.594144
vn -0.6570 -0.2687 -0.7044
vn -0.6570 -0.5653 -0.4988
vn -1.0000 0.0000 -0.0000
vn -0.6570 -0.7323 -0.1790
vn -0.6570 -0.7316 0.1819
vn -0.6570 -0.5633 0.5010
vn -0.6570 -0.2660 0.7054
vn -0.6570 0.0923 0.7482
vn -0.6570 0.4295 0.6196
vn -0.6570 0.6682 0.3490
vn -0.6570 0.7539 -0.0015
vn -0.6570 0.6669 -0.3517
vn -0.6570 0.4270 -0.6213
vn -0.6570 0.0894 -0.7486
vn -0.3843 0.1095 -0.9167
vn 0.4041 -0.3260 -0.8546
vn -0.3843 -0.3291 -0.8626
vn 0.4041 0.1085 -0.9082
vn -0.3843 0.5230 -0.7608
vn 0.4042 0.5181 -0.7538
vn -0.3843 0.8166 -0.4306
vn 0.4041 0.8091 -0.4267
vn -0.3843 0.9232 -0.0018
vn 0.4041 0.9147 -0.0018
vn -0.3843 0.8183 0.4274
vn 0.4041 0.8108 0.4235
vn -0.3843 0.5259 0.7588
vn 0.4042 0.5211 0.7518
vn -0.3843 0.1131 0.9163
vn 0.4041 0.1120 0.9078
vn -0.3843 -0.3257 0.8639
vn 0.4041 -0.3227 0.8559
vn -0.3843 -0.6898 0.6136
vn 0.4041 -0.6835 0.6079
vn -0.3843 -0.8960 0.2227
vn 0.4041 -0.8877 0.2206
vn -0.3843 -0.8968 -0.2192
vn 0.4041 -0.8885 -0.2172
vn -0.3843 -0.6922 -0.6109
vn 0.4041 -0.6858 -0.6052
vn 0.9245 -0.2849 0.2534
vn 0.9245 0.0452 -0.3786
vn 0.9245 -0.1345 0.3567
vn 0.9245 0.2159 -0.3142
vn 0.9245 0.0467 0.3784
vn 0.9245 0.3372 -0.1778
vn 0.9245 0.2172 0.3133
vn 0.9245 0.3812 -0.0007
vn 0.9245 0.3379 0.1765
vn 0.9245 -0.2859 -0.2523
vn 0.9245 -0.3700 0.0920
vn 0.9245 -0.3704 -0.0905
vn 0.9245 -0.1359 -0.3562
vn -0.8244 0.5661 -0.0011
vn -0.6007 -0.7072 0.3729
vn -0.8244 0.5007 -0.2640
vn -0.6007 -0.4529 0.6588
vn -0.8244 0.3207 -0.4665
vn -0.6007 -0.0948 0.7938
vn -0.8244 0.0671 -0.5621
vn -0.6007 0.2850 0.7470
vn -0.8244 -0.2018 -0.5289
vn -0.6007 0.5994 0.5290
vn -0.8244 -0.4244 -0.3745
vn -0.6007 0.7766 0.1898
vn -0.8244 -0.5499 -0.1344
vn -0.6007 0.7759 -0.1928
vn -0.8244 -0.5493 0.1365
vn -0.6007 0.5974 -0.5313
vn -0.8244 -0.4230 0.3762
vn -0.6007 0.2820 -0.7481
vn -0.8244 -0.1997 0.5297
vn -0.6007 -0.0979 -0.7935
vn -0.8244 0.0693 0.5618
vn -0.6007 -0.4554 -0.6571
vn -0.8244 0.3225 0.4652
vn -0.6007 -0.7086 -0.3702
vn -0.8244 0.5017 0.2621
vn -0.6007 -0.7995 0.0016
vn -0.7944 -0.3460 -0.4992
vn -0.7944 -0.5383 -0.2812
vn -0.7944 -0.6074 0.0012
vn -0.7944 -0.5372 0.2833
vn -0.7944 -0.3440 0.5005
vn -0.7944 -0.0720 0.6031
vn -0.7944 0.2165 0.5675
vn -0.7944 0.4554 0.4019
vn -0.7944 0.5900 0.1442
vn -0.7944 0.5894 -0.1465
vn -0.7944 0.4538 -0.4037
vn -0.7944 0.2143 -0.5683
vn -0.7944 -0.0744 -0.6028
vn -0.8996 0.3862 -0.2037
vn -0.8996 0.2473 -0.3598
vn -0.8996 0.0518 -0.4335
vn -0.8996 -0.1556 -0.4080
vn -0.8996 -0.3274 -0.2889
vn -0.8996 -0.4241 -0.1037
vn -0.8996 -0.4237 0.1053
vn -0.8996 -0.3262 0.2902
vn -0.8996 -0.1540 0.4086
vn -0.8996 0.0535 0.4333
vn -0.8996 0.4366 -0.0009
vn -0.8996 0.2487 0.3589
vn -0.8996 0.3870 0.2022
usemtl battlewagon_dif
s 1
f 1/1/1 2/2/2 3/3/3
f 2/2/2 4/4/4 3/3/3
f 4/4/4 5/5/5 3/3/3
f 5/5/5 6/6/6 3/3/3
f 6/6/6 7/7/7 3/3/3
f 7/7/7 8/8/8 3/3/3
f 8/8/8 9/9/9 3/3/3
f 9/9/9 10/10/10 3/3/3
f 10/10/10 11/11/11 3/3/3
f 11/11/11 12/12/12 3/3/3
f 12/12/12 13/13/13 3/3/3
f 13/13/13 14/14/14 3/3/3
f 14/14/14 1/1/1 3/3/3
f 15/15/15 16/16/16 17/17/17
f 16/16/16 15/15/15 18/18/18
f 19/19/19 18/18/18 15/15/15
f 18/18/18 19/19/19 20/20/20
f 21/21/21 20/20/20 19/19/19
f 20/20/20 21/21/21 22/22/22
f 23/23/23 22/22/22 21/21/21
f 22/22/22 23/23/23 24/24/24
f 25/25/25 24/26/24 23/27/23
f 24/26/24 25/25/25 26/28/26
f 27/29/27 26/28/26 25/25/25
f 26/28/26 27/29/27 28/30/28
f 29/31/29 28/30/28 27/29/27
f 28/30/28 29/31/29 30/32/30
f 31/33/31 30/32/30 29/31/29
f 30/32/30 31/33/31 32/34/32
f 33/35/33 32/34/32 31/33/31
f 32/34/32 33/35/33 34/36/34
f 35/37/35 34/36/34 33/35/33
f 34/36/34 35/37/35 36/38/36
f 37/39/37 36/38/36 35/37/35
f 36/38/36 37/39/37 38/40/38
f 39/41/39 38/40/38 37/39/37
f 38/40/38 39/41/39 40/42/40
f 17/17/17 40/42/40 39/41/39
f 40/42/40 17/17/17 16/16/16
f 41/43/41 42/44/42 43/45/43
f 44/46/44 43/45/43 42/44/42
f 43/45/43 44/46/44 45/47/45
f 46/48/46 45/47/45 44/46/44
f 45/47/45 46/48/46 47/49/47
f 48/50/48 47/49/47 46/48/46
f 47/49/47 48/50/48 49/51/49
f 50/52/50 51/53/51 52/54/52
f 50/52/50 41/43/41 51/53/51
f 41/43/41 50/52/50 53/55/53
f 42/44/42 41/43/41 53/55/53
f 16/56/16 42/44/42 53/55/53
f 42/44/42 16/56/16 18/57/18
f 18/57/18 44/46/44 42/44/42
f 44/46/44 18/57/18 20/58/20
f 20/58/20 46/48/46 44/46/44
f 46/48/46 20/58/20 22/59/22
f 22/59/22 48/50/48 46/48/46
f 48/50/48 22/59/22 24/60/24
f 24/60/24 49/51/49 48/50/48
f 49/51/49 24/60/24 26/61/26
f 26/61/26 47/49/47 49/51/49
f 47/49/47 26/61/26 28/62/28
f 28/62/28 45/47/45 47/49/47
f 45/47/45 28/62/28 30/63/30
f 30/63/30 43/45/43 45/47/45
f 43/45/43 30/63/30 32/64/32
f 32/64/32 41/43/41 43/45/43
f 41/43/41 32/64/32 34/65/34
f 34/65/34 51/53/51 41/43/41
f 51/53/51 34/65/34 36/66/36
f 36/66/36 52/54/52 51/53/51
f 52/54/52 36/66/36 38/67/38
f 38/67/38 50/52/50 52/54/52
f 50/52/50 38/67/38 40/68/40
f 40/68/40 53/55/53 50/52/50
f 53/55/53 40/68/40 16/56/16
f 54/69/54 55/70/55 56/71/56
f 57/72/57 56/71/56 55/70/55
f 56/71/56 57/72/57 58/73/58
f 59/74/59 58/73/58 57/72/57
f 58/73/58 59/74/59 60/75/60
f 61/76/61 60/75/60 59/74/59
f 60/75/60 61/76/61 62/77/62
f 63/78/63 62/77/62 61/76/61
f 62/77/62 63/78/63 64/79/64
f 65/80/65 64/79/64 63/78/63
f 64/79/64 65/80/65 66/81/66
f 67/82/67 66/81/66 65/80/65
f 66/81/66 67/82/67 68/83/68
f 69/84/69 68/83/68 67/82/67
f 68/83/68 69/84/69 70/85/70
f 71/86/71 70/85/70 69/84/69
f 70/85/70 71/86/71 72/87/72
f 73/88/73 72/87/72 71/86/71
f 72/87/72 73/88/73 74/89/74
f 75/90/75 74/89/74 73/88/73
f 74/89/74 75/90/75 76/91/76
f 77/92/77 76/91/76 75/90/75
f 76/91/76 77/92/77 78/93/78
f 79/94/79 78/93/78 77/92/77
f 78/93/78 79/94/79 54/69/54
f 55/70/55 54/69/54 79/94/79
f 73/95/73 80/96/80 75/97/75
f 81/98/81 75/97/75 80/96/80
f 75/97/75 81/98/81 77/99/77
f 82/100/82 77/99/77 81/98/81
f 77/99/77 82/100/82 79/101/79
f 83/102/83 79/101/79 82/100/82
f 79/101/79 83/102/83 55/103/55
f 84/104/84 55/103/55 83/102/83
f 55/103/55 84/104/84 57/105/57
f 85/106/85 57/105/57 84/104/84
f 57/105/57 85/106/85 59/107/59
f 86/108/86 59/107/59 85/106/85
f 59/107/59 86/108/86 61/109/61
f 87/110/87 61/109/61 86/108/86
f 61/109/61 87/110/87 63/111/63
f 88/112/88 63/111/63 87/110/87
f 63/111/63 88/112/88 65/113/65
f 89/114/89 65/113/65 88/112/88
f 65/113/65 89/114/89 67/115/67
f 90/116/90 67/115/67 89/114/89
f 67/115/67 90/116/90 69/117/69
f 91/118/91 69/117/69 90/116/90
f 69/117/69 91/118/91 71/119/71
f 92/120/92 71/119/71 91/118/91
f 71/119/71 92/120/92 73/95/73
f 80/96/80 73/95/73 92/120/92
f 6/121/6 72/122/72 7/123/7
f 72/122/72 6/121/6 70/124/70
f 5/125/5 70/124/70 6/121/6
f 70/124/70 5/125/5 68/126/68
f 4/127/4 68/126/68 5/125/5
f 68/126/68 4/127/4 66/128/66
f 2/129/2 66/128/66 4/127/4
f 66/128/66 2/129/2 64/130/64
f 1/131/1 64/132/64 2/133/2
f 64/132/64 1/131/1 62/134/62
f 14/135/14 62/134/62 1/131/1
f 62/134/62 14/135/14 60/136/60
f 13/137/13 60/136/60 14/135/14
f 60/136/60 13/137/13 58/138/58
f 12/139/12 58/138/58 13/137/13
f 58/138/58 12/139/12 56/140/56
f 11/141/11 56/140/56 12/139/12
f 56/140/56 11/141/11 54/142/54
f 10/143/10 54/142/54 11/141/11
f 54/142/54 10/143/10 78/144/78
f 9/145/9 78/144/78 10/143/10
f 78/144/78 9/145/9 76/146/76
f 8/147/8 76/146/76 9/145/9
f 76/146/76 8/147/8 74/148/74
f 7/123/7 74/148/74 8/147/8
f 74/148/74 7/123/7 72/122/72
f 82/100/82 93/149/93 83/102/83
f 94/150/94 83/102/83 93/149/93
f 83/102/83 94/150/94 84/104/84
f 95/151/95 84/104/84 94/150/94
f 84/104/84 95/151/95 85/106/85
f 96/152/96 85/106/85 95/151/95
f 85/106/85 96/152/96 86/108/86
f 97/153/97 86/108/86 96/152/96
f 86/108/86 97/153/97 87/110/87
f 98/154/98 87/110/87 97/153/97
f 87/110/87 98/154/98 88/112/88
f 99/155/99 88/112/88 98/154/98
f 88/112/88 99/155/99 89/114/89
f 100/156/100 89/114/89 99/155/99
f 89/114/89 100/156/100 90/116/90
f 101/157/101 90/116/90 100/156/100
f 90/116/90 101/157/101 91/118/91
f 102/158/102 91/118/91 101/157/101
f 81/98/81 103/159/103 82/100/82
f 93/149/93 82/100/82 103/159/103
f 23/160/23 93/149/93 103/159/103
f 93/149/93 23/160/23 21/161/21
f 21/161/21 94/150/94 93/149/93
f 94/150/94 21/161/21 19/162/19
f 19/162/19 95/151/95 94/150/94
f 95/151/95 19/162/19 15/163/15
f 15/163/15 96/152/96 95/151/95
f 96/152/96 15/163/15 17/164/17
f 17/164/17 97/153/97 96/152/96
f 97/153/97 17/164/17 39/165/39
f 39/165/39 98/154/98 97/153/97
f 98/154/98 39/165/39 37/166/37
f 37/166/37 99/155/99 98/154/98
f 99/155/99 37/166/37 35/167/35
f 35/167/35 100/156/100 99/155/99
f 100/156/100 35/167/35 33/168/33
f 33/168/33 101/157/101 100/156/100
f 101/157/101 33/168/33 31/169/31
f 31/169/31 102/158/102 101/157/101
f 102/158/102 31/169/31 29/170/29
f 29/170/29 104/171/104 102/158/102
f 104/171/104 29/170/29 27/172/27
f 27/172/27 105/173/105 104/171/104
f 105/173/105 27/172/27 25/174/25
f 25/174/25 103/159/103 105/173/105
f 103/159/103 25/174/25 23/160/23
f 91/118/91 102/158/102 92/120/92
f 104/171/104 92/120/92 102/158/102
f 92/120/92 104/171/104 80/96/80
f 105/173/105 80/96/80 104/171/104
f 80/96/80 105/173/105 81/98/81
f 103/159/103 81/98/81 105/173/105
