# Blender v2.92.0 OBJ File: 'Kannonwagon.blend'
# www.blender.org
mtllib Fuel drum.mtl
o Body.005_Body_battlewagon_body0_model0.008
v -0.097128 -0.016082 0.541355
v -0.173683 -0.043945 0.463727
v -0.205137 -0.055393 0.356291
v -0.205140 -0.055399 -0.334776
v -0.173688 -0.043952 -0.442214
v -0.097134 -0.016090 -0.519843
v -0.049234 -0.073160 0.541355
v -0.089969 -0.143713 0.463727
v -0.106705 -0.172700 0.356291
v -0.106709 -0.172706 -0.334776
v -0.089974 -0.143721 -0.442212
v -0.049240 -0.073169 -0.519843
v 0.024144 -0.086098 0.541355
v 0.038290 -0.166329 0.463727
v 0.044101 -0.199292 0.356291
v 0.044097 -0.199299 -0.334777
v 0.038285 -0.166337 -0.442214
v 0.024138 -0.086107 -0.519843
v 0.088666 -0.048852 -0.519843
v 0.114150 0.021164 -0.519843
v 0.151074 -0.101219 -0.442214
v 0.195618 0.021164 -0.442216
v 0.176715 -0.122733 -0.334777
v 0.229090 0.021165 -0.334779
v 0.176719 -0.122726 0.356288
v 0.229094 0.021171 0.356287
v 0.151079 -0.101211 0.463727
v 0.195624 0.021172 0.463726
v 0.088672 -0.048843 0.541354
v 0.114157 0.021173 0.541353
v 0.088673 0.091190 0.541353
v 0.151081 0.143555 0.463724
v 0.176721 0.165070 0.356287
v 0.176716 0.165063 -0.334780
v 0.151075 0.143547 -0.442217
v 0.088666 0.091181 -0.519845
v 0.024145 0.128444 0.541353
v 0.038292 0.208674 0.463724
v 0.044104 0.241636 0.356287
v 0.044100 0.241630 -0.334780
v 0.038287 0.208667 -0.442217
v 0.024139 0.128436 -0.519845
v 0.005230 0.021173 0.569603
v -0.097128 0.058429 0.541354
v -0.049233 0.115506 0.541353
v -0.173682 0.086293 0.463727
v -0.089967 0.186060 0.463726
v -0.205136 0.097739 0.356289
v -0.106703 0.215046 0.356287
v -0.205140 0.097733 -0.334777
v -0.106707 0.215040 -0.334779
v -0.173688 0.086285 -0.442214
v -0.089972 0.186052 -0.442216
v 0.005223 0.021165 -0.548094
v -0.049239 0.115498 -0.519843
v -0.097134 0.058420 -0.519843
vt 0.872820 0.072968
vt 0.869909 0.077583
vt 0.867000 0.072968
vt 0.874479 0.068253
vt 0.864533 0.068253
vt 0.874479 0.063411
vt 0.864533 0.063411
vt 0.874479 0.032262
vt 0.864533 0.032262
vt 0.874479 0.027417
vt 0.864533 0.027417
vt 0.872290 0.022691
vt 0.866470 0.022691
vt 0.869381 0.018076
vt 0.862515 0.072968
vt 0.860064 0.077602
vt 0.857520 0.072968
vt 0.855168 0.068253
vt 0.855168 0.063411
vt 0.855168 0.032262
vt 0.855168 0.027417
vt 0.862330 0.022691
vt 0.857300 0.022691
vt 0.859814 0.018076
vt 0.867676 0.073112
vt 0.870117 0.078003
vt 0.872559 0.073112
vt 0.865234 0.068547
vt 0.875000 0.068547
vt 0.865234 0.063656
vt 0.875000 0.063656
vt 0.865234 0.032679
vt 0.875000 0.032679
vt 0.865234 0.027788
vt 0.875000 0.027788
vt 0.868164 0.022897
vt 0.872559 0.022897
vt 0.870117 0.018332
vt 0.857910 0.073112
vt 0.860352 0.078003
vt 0.863281 0.073112
vt 0.856445 0.068547
vt 0.856445 0.063656
vt 0.856445 0.032679
vt 0.856445 0.027788
vt 0.858398 0.022897
vt 0.863281 0.022897
vt 0.860840 0.018332
vt 0.830078 0.073112
vt 0.832520 0.078003
vt 0.834961 0.073112
vt 0.827637 0.068547
vt 0.837402 0.068547
vt 0.827637 0.063656
vt 0.837402 0.063656
vt 0.827637 0.032679
vt 0.837402 0.032679
vt 0.827637 0.027788
vt 0.837402 0.027788
vt 0.830078 0.022897
vt 0.835449 0.022897
vt 0.833008 0.018332
vt 0.840332 0.022897
vt 0.844727 0.022897
vt 0.842773 0.018332
vt 0.847168 0.027788
vt 0.847168 0.032679
vt 0.847168 0.063656
vt 0.847168 0.068547
vt 0.844238 0.073112
vt 0.839844 0.073112
vt 0.841797 0.078003
vt 0.835273 0.072968
vt 0.832897 0.077582
vt 0.830523 0.072968
vt 0.837152 0.068254
vt 0.828109 0.068253
vt 0.837152 0.063411
vt 0.828109 0.063411
vt 0.837152 0.032261
vt 0.828109 0.032261
vt 0.837152 0.027417
vt 0.828109 0.027417
vt 0.835140 0.022690
vt 0.830390 0.022690
vt 0.832765 0.018076
vt 0.844221 0.072968
vt 0.841676 0.077601
vt 0.839227 0.072968
vt 0.846649 0.068253
vt 0.846649 0.063411
vt 0.846649 0.032262
vt 0.846649 0.027417
vt 0.844238 0.022690
vt 0.839209 0.022690
vt 0.841724 0.018076
vt 0.854160 0.072968
vt 0.851554 0.077583
vt 0.848949 0.072968
vt 0.853627 0.022691
vt 0.848415 0.022691
vt 0.851020 0.018076
vn -0.2631 -0.4557 0.8504
vn 0.0000 0.0000 1.0000
vn -0.4944 -0.1799 0.8504
vn -0.4317 -0.7478 0.5044
vn -0.8114 -0.2953 0.5044
vn -0.4947 -0.8568 0.1458
vn -0.9297 -0.3384 0.1458
vn -0.4947 -0.8568 -0.1458
vn -0.9297 -0.3384 -0.1458
vn -0.4318 -0.7478 -0.5044
vn -0.8114 -0.2953 -0.5044
vn -0.2631 -0.4557 -0.8504
vn -0.4944 -0.1800 -0.8504
vn -0.0000 -0.0000 -1.0000
vn -0.4944 0.1800 0.8504
vn -0.8114 0.2953 0.5044
vn -0.9297 0.3384 0.1458
vn -0.9297 0.3384 -0.1458
vn -0.8114 0.2953 -0.5044
vn -0.4944 0.1800 -0.8504
vn 0.0914 -0.5181 0.8504
vn 0.1499 -0.8504 0.5044
vn 0.1718 -0.9743 0.1458
vn 0.1718 -0.9743 -0.1458
vn 0.1499 -0.8504 -0.5044
vn 0.0914 -0.5182 -0.8504
vn 0.4031 -0.3382 0.8504
vn 0.6615 -0.5550 0.5044
vn 0.7579 -0.6359 0.1458
vn 0.7579 -0.6359 -0.1458
vn 0.6615 -0.5550 -0.5044
vn 0.4031 -0.3382 -0.8504
vn 0.4031 0.3382 0.8504
vn 0.5262 0.0000 0.8504
vn 0.6615 0.5550 0.5044
vn 0.8635 -0.0000 0.5044
vn 0.7579 0.6359 0.1458
vn 0.9893 -0.0000 0.1458
vn 0.7579 0.6359 -0.1458
vn 0.9893 -0.0000 -0.1458
vn 0.6615 0.5550 -0.5044
vn 0.8635 -0.0000 -0.5044
vn 0.4031 0.3382 -0.8504
vn 0.5262 -0.0000 -0.8504
vn 0.0914 0.5182 0.8504
vn 0.1500 0.8504 0.5044
vn 0.1718 0.9743 0.1458
vn 0.1718 0.9743 -0.1458
vn 0.1499 0.8504 -0.5044
vn 0.0914 0.5182 -0.8504
vn -0.2631 0.4557 0.8504
vn -0.4317 0.7478 0.5044
vn -0.4947 0.8568 0.1458
vn -0.4947 0.8568 -0.1458
vn -0.4317 0.7478 -0.5044
vn -0.2631 0.4557 -0.8504
usemtl battlewagon_dif
s 1
f 7/1/1 43/2/2 1/3/3
f 1/3/3 8/4/4 7/1/1
f 8/4/4 1/3/3 2/5/5
f 2/5/5 9/6/6 8/4/4
f 9/6/6 2/5/5 3/7/7
f 3/7/7 10/8/8 9/6/6
f 10/8/8 3/7/7 4/9/9
f 4/9/9 11/10/10 10/8/8
f 11/10/10 4/9/9 5/11/11
f 5/11/11 12/12/12 11/10/10
f 12/12/12 5/11/11 6/13/13
f 12/12/12 6/13/13 54/14/14
f 1/15/3 43/16/2 44/17/15
f 44/17/15 2/5/5 1/15/3
f 2/5/5 44/17/15 46/18/16
f 46/18/16 3/7/7 2/5/5
f 3/7/7 46/18/16 48/19/17
f 48/19/17 4/9/9 3/7/7
f 4/9/9 48/19/17 50/20/18
f 50/20/18 5/11/11 4/9/9
f 5/11/11 50/20/18 52/21/19
f 52/21/19 6/22/13 5/11/11
f 6/22/13 52/21/19 56/23/20
f 6/22/13 56/23/20 54/24/14
f 13/25/21 43/26/2 7/27/1
f 7/27/1 14/28/22 13/25/21
f 14/28/22 7/27/1 8/29/4
f 8/29/4 15/30/23 14/28/22
f 15/30/23 8/29/4 9/31/6
f 9/31/6 16/32/24 15/30/23
f 16/32/24 9/31/6 10/33/8
f 10/33/8 17/34/25 16/32/24
f 17/34/25 10/33/8 11/35/10
f 11/35/10 18/36/26 17/34/25
f 18/36/26 11/35/10 12/37/12
f 18/36/26 12/37/12 54/38/14
f 29/39/27 43/40/2 13/41/21
f 13/41/21 27/42/28 29/39/27
f 27/42/28 13/41/21 14/28/22
f 14/28/22 25/43/29 27/42/28
f 25/43/29 14/28/22 15/30/23
f 15/30/23 23/44/30 25/43/29
f 23/44/30 15/30/23 16/32/24
f 16/32/24 21/45/31 23/44/30
f 21/45/31 16/32/24 17/34/25
f 17/34/25 19/46/32 21/45/31
f 19/46/32 17/34/25 18/47/26
f 19/46/32 18/47/26 54/48/14
f 31/49/33 43/50/2 30/51/34
f 30/51/34 32/52/35 31/49/33
f 32/52/35 30/51/34 28/53/36
f 28/53/36 33/54/37 32/52/35
f 33/54/37 28/53/36 26/55/38
f 26/55/38 34/56/39 33/54/37
f 34/56/39 26/55/38 24/57/40
f 24/57/40 35/58/41 34/56/39
f 35/58/41 24/57/40 22/59/42
f 22/59/42 36/60/43 35/58/41
f 36/60/43 22/59/42 20/61/44
f 36/60/43 20/61/44 54/62/14
f 20/63/44 19/64/32 54/65/14
f 20/63/44 21/66/31 19/64/32
f 21/66/31 20/63/44 22/59/42
f 22/59/42 23/67/30 21/66/31
f 23/67/30 22/59/42 24/57/40
f 24/57/40 25/68/29 23/67/30
f 25/68/29 24/57/40 26/55/38
f 26/55/38 27/69/28 25/68/29
f 27/69/28 26/55/38 28/53/36
f 28/53/36 29/70/27 27/69/28
f 29/70/27 28/53/36 30/71/34
f 30/71/34 43/72/2 29/70/27
f 37/73/45 43/74/2 31/75/33
f 31/75/33 38/76/46 37/73/45
f 38/76/46 31/75/33 32/77/35
f 32/77/35 39/78/47 38/76/46
f 39/78/47 32/77/35 33/79/37
f 33/79/37 40/80/48 39/78/47
f 40/80/48 33/79/37 34/81/39
f 34/81/39 41/82/49 40/80/48
f 41/82/49 34/81/39 35/83/41
f 35/83/41 42/84/50 41/82/49
f 42/84/50 35/83/41 36/85/43
f 42/84/50 36/85/43 54/86/14
f 45/87/51 43/88/2 37/89/45
f 37/89/45 47/90/52 45/87/51
f 47/90/52 37/89/45 38/76/46
f 38/76/46 49/91/53 47/90/52
f 49/91/53 38/76/46 39/78/47
f 39/78/47 51/92/54 49/91/53
f 51/92/54 39/78/47 40/80/48
f 40/80/48 53/93/55 51/92/54
f 53/93/55 40/80/48 41/82/49
f 41/82/49 55/94/56 53/93/55
f 55/94/56 41/82/49 42/95/50
f 55/94/56 42/95/50 54/96/14
f 44/97/15 43/98/2 45/99/51
f 45/99/51 46/18/16 44/97/15
f 46/18/16 45/99/51 47/90/52
f 47/90/52 48/19/17 46/18/16
f 48/19/17 47/90/52 49/91/53
f 49/91/53 50/20/18 48/19/17
f 50/20/18 49/91/53 51/92/54
f 51/92/54 52/21/19 50/20/18
f 52/21/19 51/92/54 53/93/55
f 53/93/55 56/100/20 52/21/19
f 56/100/20 53/93/55 55/101/56
f 56/100/20 55/101/56 54/102/14
