# Blender v2.91.0 OBJ File: '3dbase.blend'
# www.blender.org
mtllib 32x.mtl
o 32_Circle.029
v -0.348453 0.000000 0.521498
v -0.443497 0.000000 0.443498
v 0.000000 0.000000 0.000000
v -0.240018 0.000000 0.579458
v -0.518239 0.009774 0.346277
v -0.575837 0.009774 0.238520
v -0.579457 0.000000 0.240020
v -0.521497 0.000000 0.348454
v 0.348454 -0.000000 -0.521498
v 0.443497 -0.000000 -0.443497
v 0.240019 -0.000000 -0.579457
v -0.565052 0.127400 -0.112395
v -0.576122 0.127400 0.000001
v -0.000000 0.127400 -0.000000
v -0.532268 0.127400 -0.220472
v 0.479028 0.127400 -0.320076
v 0.407380 0.127400 -0.407380
v 0.532268 0.127400 -0.220472
v 0.320076 0.127400 -0.479028
v 0.220472 0.127400 -0.532268
v -0.479028 0.127400 0.320077
v -0.407379 0.127400 0.407380
v -0.532267 0.127400 0.220473
v 0.112396 0.127400 -0.565052
v -0.000000 0.127400 -0.576122
v -0.320076 0.127400 0.479029
v -0.220472 0.127400 0.532268
v 0.320076 0.127400 0.479028
v 0.407380 0.127400 0.407380
v 0.220472 0.127400 0.532267
v -0.112396 0.127400 -0.565052
v -0.220473 0.127400 -0.532267
v -0.112395 0.127400 0.565052
v 0.000000 0.127400 0.576122
v 0.479028 0.127400 0.320076
v 0.532267 0.127400 0.220472
v -0.320077 0.127400 -0.479028
v -0.407380 0.127400 -0.407380
v 0.112396 0.127400 0.565052
v 0.565052 0.127400 0.112396
v 0.576122 0.127400 -0.000000
v -0.479028 0.127400 -0.320076
v -0.615148 0.000000 0.122361
v -0.627200 0.000000 0.000001
v 0.521498 -0.000000 -0.348454
v 0.579457 -0.000000 -0.240019
v -0.615149 -0.000000 -0.122360
v -0.579457 -0.000000 -0.240019
v 0.615149 -0.000000 -0.122361
v 0.627200 0.000000 -0.000000
v -0.521498 -0.000000 -0.348453
v -0.443498 -0.000000 -0.443497
v 0.615149 0.000000 0.122361
v 0.579457 0.000000 0.240019
v 0.122361 0.000000 0.615149
v 0.000000 0.000000 0.627200
v 0.240019 0.000000 0.579457
v -0.348454 -0.000000 -0.521498
v -0.240019 -0.000000 -0.579457
v 0.521498 0.000000 0.348454
v 0.443497 0.000000 0.443497
v -0.122360 0.000000 0.615149
v 0.348454 0.000000 0.521498
v 0.122361 -0.000000 -0.615149
v -0.000000 -0.000000 -0.627200
v -0.565052 0.127400 0.112396
v 0.565052 0.127400 -0.112396
v -0.122361 -0.000000 -0.615148
v 0.238519 0.009774 -0.575837
v 0.346277 0.009774 -0.518240
v 0.121596 0.009774 0.611305
v 0.000000 0.009774 0.623281
v -0.440726 0.009774 0.440727
v 0.121596 0.009774 -0.611305
v 0.238519 0.009774 0.575837
v -0.346276 0.009774 0.518240
v -0.000000 0.009774 -0.623281
v 0.346277 0.009774 0.518240
v -0.238519 0.009774 0.575837
v -0.121596 0.009774 -0.611305
v 0.440726 0.009774 0.440726
v -0.121595 0.009774 0.611305
v -0.238520 0.009774 -0.575837
v 0.518240 0.009774 0.346277
v 0.000000 0.119900 0.579129
v -0.112982 0.119900 0.568001
v -0.346277 0.009774 -0.518239
v 0.575837 0.009774 0.238519
v -0.440727 0.009774 -0.440726
v 0.611305 0.009774 0.121596
v -0.518240 0.009774 -0.346276
v 0.623281 0.009774 -0.000000
v -0.575837 0.009774 -0.238519
v 0.611305 0.009774 -0.121596
v -0.611305 0.009774 -0.121596
v 0.575837 0.009774 -0.238519
v -0.623281 0.009774 0.000001
v 0.518240 0.009774 -0.346277
v -0.611305 0.009774 0.121597
v 0.440726 0.009774 -0.440726
v -0.535045 0.119900 0.221624
v -0.568001 0.119900 0.112983
v 0.321747 0.119900 -0.481528
v 0.409506 0.119900 -0.409506
v 0.481528 0.119900 -0.321747
v -0.579129 0.119900 0.000001
v 0.535046 0.119900 -0.221623
v -0.568001 0.119900 -0.112982
v 0.568001 0.119900 -0.112982
v -0.535046 0.119900 -0.221623
v 0.579129 0.119900 -0.000000
v -0.481528 0.119900 -0.321746
v 0.568001 0.119900 0.112983
v -0.409506 0.119900 -0.409506
v 0.535046 0.119900 0.221623
v -0.321747 0.119900 -0.481528
v 0.481528 0.119900 0.321747
v -0.221623 0.119900 -0.535045
v 0.409506 0.119900 0.409506
v -0.112983 0.119900 -0.568001
v -0.221622 0.119900 0.535046
v 0.321747 0.119900 0.481528
v -0.000000 0.119900 -0.579129
v -0.321746 0.119900 0.481529
v 0.221623 0.119900 0.535046
v 0.112982 0.119900 -0.568001
v -0.409506 0.119900 0.409507
v 0.112982 0.119900 0.568001
v 0.221623 0.119900 -0.535046
v -0.481528 0.119900 0.321747
vt 0.500005 0.499990
vt 0.500005 0.499990
vt 0.500006 0.500000
vt 0.500006 0.499990
vt 0.499996 0.499991
vt 0.499997 0.499992
vt 0.499997 0.499992
vt 0.499996 0.499991
vt 0.500006 0.500010
vt 0.500007 0.500010
vt 0.500005 0.500010
vt 0.499998 0.499997
vt 0.499998 0.499996
vt 0.499994 0.500000
vt 0.499998 0.499999
vt 0.499992 0.500008
vt 0.499993 0.500009
vt 0.499992 0.500007
vt 0.499994 0.500009
vt 0.499994 0.500009
vt 0.499996 0.499992
vt 0.499995 0.499991
vt 0.499997 0.499993
vt 0.499995 0.500009
vt 0.499996 0.500008
vt 0.499994 0.499991
vt 0.499994 0.499991
vt 0.499991 0.499996
vt 0.499990 0.499997
vt 0.499991 0.499994
vt 0.499997 0.500007
vt 0.499997 0.500006
vt 0.499993 0.499991
vt 0.499992 0.499992
vt 0.499990 0.499999
vt 0.499990 0.500001
vt 0.499998 0.500004
vt 0.499998 0.500003
vt 0.499992 0.499993
vt 0.499990 0.500003
vt 0.499991 0.500004
vt 0.499998 0.500001
vt 0.500003 0.499994
vt 0.500002 0.499995
vt 0.500008 0.500009
vt 0.500009 0.500008
vt 0.500002 0.499997
vt 0.500002 0.499999
vt 0.500009 0.500006
vt 0.500010 0.500005
vt 0.500002 0.500001
vt 0.500002 0.500003
vt 0.500010 0.500003
vt 0.500010 0.500001
vt 0.500009 0.499992
vt 0.500008 0.499991
vt 0.500009 0.499994
vt 0.500002 0.500005
vt 0.500003 0.500006
vt 0.500010 0.499999
vt 0.500010 0.499997
vt 0.500007 0.499990
vt 0.500010 0.499995
vt 0.500005 0.500010
vt 0.500004 0.500009
vt 0.499997 0.499994
vt 0.499991 0.500006
vt 0.500003 0.500008
vt 0.499995 0.500010
vt 0.499994 0.500010
vt 0.499991 0.499992
vt 0.499992 0.499991
vt 0.499995 0.499990
vt 0.499995 0.500010
vt 0.499991 0.499994
vt 0.499995 0.499990
vt 0.499996 0.500009
vt 0.499990 0.499995
vt 0.499994 0.499990
vt 0.499997 0.500008
vt 0.499990 0.499997
vt 0.499993 0.499990
vt 0.499997 0.500006
vt 0.499990 0.499999
vt 0.499992 0.499992
vt 0.499993 0.499991
vt 0.499998 0.500005
vt 0.499990 0.500001
vt 0.499998 0.500003
vt 0.499990 0.500003
vt 0.499998 0.500001
vt 0.499990 0.500005
vt 0.499998 0.499999
vt 0.499991 0.500006
vt 0.499998 0.499997
vt 0.499991 0.500008
vt 0.499998 0.499995
vt 0.499992 0.500009
vt 0.499997 0.499994
vt 0.499993 0.500010
vt 0.499997 0.499993
vt 0.499997 0.499994
vt 0.499994 0.500009
vt 0.499993 0.500009
vt 0.499992 0.500008
vt 0.499998 0.499996
vt 0.499992 0.500007
vt 0.499998 0.499997
vt 0.499991 0.500006
vt 0.499998 0.499999
vt 0.499991 0.500004
vt 0.499998 0.500001
vt 0.499990 0.500003
vt 0.499998 0.500003
vt 0.499990 0.500001
vt 0.499998 0.500004
vt 0.499990 0.499999
vt 0.499997 0.500006
vt 0.499990 0.499997
vt 0.499997 0.500007
vt 0.499994 0.499991
vt 0.499991 0.499996
vt 0.499996 0.500008
vt 0.499995 0.499991
vt 0.499991 0.499994
vt 0.499995 0.500009
vt 0.499995 0.499991
vt 0.499992 0.499993
vt 0.499995 0.500009
vt 0.499996 0.499992
vn -0.4685 -0.5375 0.7011
vn -0.5963 -0.5375 0.5963
vn 0.0000 -1.0000 0.0000
vn -0.3227 -0.5375 0.7791
vn -0.7718 0.3721 0.5157
vn -0.8575 0.3721 0.3552
vn -0.7791 -0.5375 0.3227
vn -0.7011 -0.5375 0.4685
vn 0.4685 -0.5375 -0.7011
vn 0.5963 -0.5375 -0.5963
vn 0.3227 -0.5375 -0.7791
vn -0.5722 0.8122 -0.1138
vn -0.5834 0.8122 0.0000
vn -0.0000 1.0000 -0.0000
vn -0.5390 0.8122 -0.2233
vn 0.4851 0.8122 -0.3241
vn 0.4125 0.8122 -0.4125
vn 0.5390 0.8122 -0.2233
vn 0.3241 0.8122 -0.4851
vn 0.2233 0.8122 -0.5390
vn -0.4851 0.8122 0.3241
vn -0.4125 0.8122 0.4125
vn -0.5390 0.8122 0.2233
vn 0.1138 0.8122 -0.5722
vn 0.0000 0.8122 -0.5834
vn -0.3241 0.8122 0.4851
vn -0.2233 0.8122 0.5390
vn 0.3241 0.8122 0.4851
vn 0.4125 0.8122 0.4125
vn 0.2232 0.8122 0.5390
vn -0.1138 0.8122 -0.5722
vn -0.2233 0.8122 -0.5390
vn -0.1138 0.8122 0.5722
vn 0.0000 0.8122 0.5834
vn 0.4851 0.8122 0.3241
vn 0.5390 0.8122 0.2232
vn -0.3241 0.8122 -0.4851
vn -0.4125 0.8122 -0.4125
vn 0.1138 0.8122 0.5722
vn 0.5722 0.8122 0.1138
vn 0.5834 0.8122 -0.0000
vn -0.4851 0.8122 -0.3241
vn -0.8270 -0.5375 0.1645
vn -0.8433 -0.5375 0.0000
vn 0.7011 -0.5375 -0.4685
vn 0.7791 -0.5375 -0.3227
vn -0.8271 -0.5375 -0.1645
vn -0.7791 -0.5375 -0.3227
vn 0.8271 -0.5375 -0.1645
vn 0.8433 -0.5375 -0.0000
vn -0.7011 -0.5375 -0.4685
vn -0.5963 -0.5375 -0.5963
vn 0.8271 -0.5375 0.1645
vn 0.7791 -0.5375 0.3227
vn 0.1645 -0.5375 0.8271
vn -0.0000 -0.5375 0.8433
vn 0.3227 -0.5375 0.7791
vn -0.4685 -0.5375 -0.7011
vn -0.3227 -0.5375 -0.7791
vn 0.7011 -0.5375 0.4685
vn 0.5963 -0.5375 0.5963
vn -0.1645 -0.5375 0.8271
vn 0.4685 -0.5375 0.7011
vn 0.1645 -0.5375 -0.8271
vn -0.0000 -0.5375 -0.8433
vn -0.5722 0.8122 0.1138
vn 0.5722 0.8122 -0.1138
vn -0.1645 -0.5375 -0.8270
vn 0.3552 0.3721 -0.8575
vn 0.5157 0.3721 -0.7718
vn 0.1811 0.3721 0.9103
vn 0.0000 0.3722 0.9282
vn -0.6563 0.3721 0.6563
vn 0.1811 0.3721 -0.9103
vn 0.3552 0.3721 0.8575
vn -0.5157 0.3721 0.7718
vn -0.0000 0.3721 -0.9282
vn 0.5157 0.3721 0.7718
vn -0.3552 0.3721 0.8575
vn -0.1811 0.3721 -0.9103
vn 0.6563 0.3721 0.6563
vn -0.1811 0.3722 0.9103
vn -0.3552 0.3721 -0.8575
vn 0.7718 0.3721 0.5157
vn 0.0000 0.3721 0.9282
vn -0.1811 0.3721 0.9103
vn -0.5157 0.3721 -0.7718
vn 0.8575 0.3721 0.3552
vn -0.6563 0.3721 -0.6563
vn 0.9103 0.3721 0.1811
vn -0.7718 0.3721 -0.5157
vn 0.9282 0.3722 -0.0000
vn -0.8575 0.3721 -0.3552
vn 0.9103 0.3721 -0.1811
vn -0.9103 0.3721 -0.1811
vn 0.8575 0.3721 -0.3552
vn -0.9282 0.3721 0.0000
vn 0.7718 0.3721 -0.5157
vn -0.9103 0.3721 0.1811
vn 0.6563 0.3721 -0.6563
vn 0.9282 0.3721 -0.0000
vn 0.8575 0.3722 0.3552
vn 0.7717 0.3721 0.5157
vn 0.5157 0.3721 0.7717
vn 0.3552 0.3722 0.8575
usemtl None
s 1
f 1/1/1 2/2/2 3/3/3 4/4/4
f 5/5/5 6/6/6 7/7/7 8/8/8
f 9/9/9 10/10/10 3/3/3 11/11/11
f 12/12/12 13/13/13 14/14/14 15/15/15
f 16/16/16 17/17/17 14/14/14 18/18/18
f 19/19/19 20/20/20 14/14/14 17/17/17
f 21/21/21 22/22/22 14/14/14 23/23/23
f 24/24/24 25/25/25 14/14/14 20/20/20
f 26/26/26 27/27/27 14/14/14 22/22/22
f 28/28/28 29/29/29 14/14/14 30/30/30
f 31/31/31 32/32/32 14/14/14 25/25/25
f 33/33/33 34/34/34 14/14/14 27/27/27
f 35/35/35 36/36/36 14/14/14 29/29/29
f 37/37/37 38/38/38 14/14/14 32/32/32
f 39/39/39 30/30/30 14/14/14 34/34/34
f 36/36/36 40/40/40 41/41/41 14/14/14
f 38/38/38 42/42/42 15/15/15 14/14/14
f 2/2/2 8/8/8 7/7/7 3/3/3
f 7/7/7 43/43/43 44/44/44 3/3/3
f 45/45/45 46/46/46 3/3/3 10/10/10
f 47/47/47 48/48/48 3/3/3 44/44/44
f 49/49/49 50/50/50 3/3/3 46/46/46
f 51/51/51 52/52/52 3/3/3 48/48/48
f 53/53/53 54/54/54 3/3/3 50/50/50
f 55/55/55 56/56/56 3/3/3 57/57/57
f 58/58/58 59/59/59 3/3/3 52/52/52
f 60/60/60 61/61/61 3/3/3 54/54/54
f 62/62/62 4/4/4 3/3/3 56/56/56
f 63/63/63 57/57/57 3/3/3 61/61/61
f 64/64/64 11/11/11 3/3/3 65/65/65
f 66/66/66 23/23/23 14/14/14 13/13/13
f 67/67/67 18/18/18 14/14/14 41/41/41
f 68/68/68 65/65/65 3/3/3 59/59/59
f 69/69/69 70/70/70 9/9/9 11/11/11
f 71/71/71 72/72/72 56/56/56 55/55/55
f 73/73/73 5/5/5 8/8/8 2/2/2
f 74/74/74 69/69/69 11/11/11 64/64/64
f 75/75/75 71/71/71 55/55/55 57/57/57
f 76/76/76 73/73/73 2/2/2 1/1/1
f 77/77/77 74/74/74 64/64/64 65/65/65
f 78/78/78 75/75/75 57/57/57 63/63/63
f 79/79/79 76/76/76 1/1/1 4/4/4
f 80/80/80 77/77/77 65/65/65 68/68/68
f 81/81/81 78/78/78 63/63/63 61/61/61
f 82/82/82 79/79/79 4/4/4 62/62/62
f 83/83/83 80/80/80 68/68/68 59/59/59
f 84/84/84 81/81/81 61/61/61 60/60/60
f 85/85/85 34/34/34 33/33/33 86/86/86
f 87/87/87 83/83/83 59/59/59 58/58/58
f 88/88/88 84/84/84 60/60/60 54/54/54
f 89/89/89 87/87/87 58/58/58 52/52/52
f 90/90/90 88/88/88 54/54/54 53/53/53
f 91/91/91 89/89/89 52/52/52 51/51/51
f 92/92/92 90/90/90 53/53/53 50/50/50
f 93/93/93 91/91/91 51/51/51 48/48/48
f 94/94/94 92/92/92 50/50/50 49/49/49
f 95/95/95 93/93/93 48/48/48 47/47/47
f 96/96/96 94/94/94 49/49/49 46/46/46
f 97/97/97 95/95/95 47/47/47 44/44/44
f 98/98/98 96/96/96 46/46/46 45/45/45
f 99/99/99 97/97/97 44/44/44 43/43/43
f 100/100/100 98/98/98 45/45/45 10/10/10
f 101/101/6 23/23/23 66/66/66 102/102/99
f 103/103/70 19/19/19 17/17/17 104/104/100
f 70/70/70 103/103/70 104/104/100 100/100/100
f 6/6/6 101/101/6 102/102/99 99/99/99
f 17/17/17 16/16/16 105/105/98 104/104/100
f 66/66/66 13/13/13 106/106/97 102/102/99
f 16/16/16 18/18/18 107/107/96 105/105/98
f 13/13/13 12/12/12 108/108/95 106/106/97
f 18/18/18 67/67/67 109/109/94 107/107/96
f 12/12/12 15/15/15 110/110/93 108/108/95
f 67/67/67 41/41/41 111/111/101 109/109/94
f 15/15/15 42/42/42 112/112/91 110/110/93
f 41/41/41 40/40/40 113/113/90 111/111/101
f 42/42/42 38/38/38 114/114/89 112/112/91
f 40/40/40 36/36/36 115/115/102 113/113/90
f 38/38/38 37/37/37 116/116/87 114/114/89
f 36/36/36 35/35/35 117/117/103 115/115/102
f 37/37/37 32/32/32 118/118/83 116/116/87
f 72/72/72 85/85/85 86/86/86 82/82/82
f 35/35/35 29/29/29 119/119/81 117/117/103
f 32/32/32 31/31/31 120/120/80 118/118/83
f 33/33/33 27/27/27 121/121/79 86/86/86
f 29/29/29 28/28/28 122/122/104 119/119/81
f 31/31/31 25/25/25 123/123/77 120/120/80
f 27/27/27 26/26/26 124/124/76 121/121/79
f 28/28/28 30/30/30 125/125/105 122/122/104
f 25/25/25 24/24/24 126/126/74 123/123/77
f 26/26/26 22/22/22 127/127/73 124/124/76
f 30/30/30 39/39/39 128/128/71 125/125/105
f 24/24/24 20/20/20 129/129/69 126/126/74
f 22/22/22 21/21/21 130/130/5 127/127/73
f 39/39/39 34/34/34 85/85/85 128/128/71
f 20/20/20 19/19/19 103/103/70 129/129/69
f 21/21/21 23/23/23 101/101/6 130/130/5
f 56/56/56 72/72/72 82/82/82 62/62/62
f 7/7/7 6/6/6 99/99/99 43/43/43
f 9/9/9 70/70/70 100/100/100 10/10/10
f 104/104/100 105/105/98 98/98/98 100/100/100
f 102/102/99 106/106/97 97/97/97 99/99/99
f 105/105/98 107/107/96 96/96/96 98/98/98
f 106/106/97 108/108/95 95/95/95 97/97/97
f 107/107/96 109/109/94 94/94/94 96/96/96
f 108/108/95 110/110/93 93/93/93 95/95/95
f 109/109/94 111/111/101 92/92/92 94/94/94
f 110/110/93 112/112/91 91/91/91 93/93/93
f 111/111/101 113/113/90 90/90/90 92/92/92
f 112/112/91 114/114/89 89/89/89 91/91/91
f 113/113/90 115/115/102 88/88/88 90/90/90
f 114/114/89 116/116/87 87/87/87 89/89/89
f 115/115/102 117/117/103 84/84/84 88/88/88
f 116/116/87 118/118/83 83/83/83 87/87/87
f 117/117/103 119/119/81 81/81/81 84/84/84
f 118/118/83 120/120/80 80/80/80 83/83/83
f 86/86/86 121/121/79 79/79/79 82/82/82
f 119/119/81 122/122/104 78/78/78 81/81/81
f 120/120/80 123/123/77 77/77/77 80/80/80
f 121/121/79 124/124/76 76/76/76 79/79/79
f 122/122/104 125/125/105 75/75/75 78/78/78
f 123/123/77 126/126/74 74/74/74 77/77/77
f 124/124/76 127/127/73 73/73/73 76/76/76
f 125/125/105 128/128/71 71/71/71 75/75/75
f 126/126/74 129/129/69 69/69/69 74/74/74
f 127/127/73 130/130/5 5/5/5 73/73/73
f 128/128/71 85/85/85 72/72/72 71/71/71
f 129/129/69 103/103/70 70/70/70 69/69/69
f 130/130/5 101/101/6 6/6/6 5/5/5
