# Blender v2.83.4 OBJ File: ''
# www.blender.org
o F445501630EA79472F631306B86FF094DD50534D_squig_small(1)
v -1.304100 6.594900 -0.789999
v -0.722200 6.339200 -0.955899
v -1.310800 6.339100 -0.955799
v -0.751400 6.594900 -0.789999
v -1.312100 6.338200 1.496401
v -0.750100 6.595799 1.496401
v -1.305300 6.595799 1.496401
v -0.720800 6.338200 1.496401
v -1.023400 7.886900 0.483001
v -1.171100 6.548900 -0.446299
v -1.171100 7.850400 0.532201
v -1.023400 6.585300 -0.495399
v -0.875700 7.850400 0.532201
v -0.875700 6.548900 -0.446299
v -0.814500 7.762500 0.650901
v -0.814500 6.460900 -0.327499
v -0.875700 7.674600 0.769601
v -0.875700 6.373000 -0.208799
v -1.232300 6.460900 -0.327499
v -1.232300 7.762500 0.650901
v -1.171100 6.373000 -0.208799
v -1.171100 7.674600 0.769601
v -1.023400 6.336500 -0.159699
v -1.023400 7.638100 0.818801
v -1.235000 8.339500 1.522201
v -0.710600 8.211600 1.410701
v -0.710600 8.339500 1.522201
v -1.235000 8.211600 1.410701
v -1.235000 8.845900 0.941801
v -0.710600 8.845900 0.941801
v -1.235000 8.718000 0.830301
v -0.710600 8.718000 0.830301
v -1.176800 8.466000 1.174001
v -1.133600 7.648600 0.703701
v -1.133600 8.402700 1.257101
v -1.176800 7.711900 0.620601
v -1.029200 7.622400 0.738101
v -1.029200 8.376500 1.291501
v -0.924900 7.648600 0.703701
v -0.924900 8.402700 1.257101
v -0.881700 7.711900 0.620601
v -0.881700 8.466000 1.174001
v -0.924900 7.775100 0.537501
v -0.924900 8.529200 1.090901
v -1.029200 7.801300 0.503001
v -1.029200 8.555400 1.056501
v -1.133600 7.775100 0.537501
v -1.133600 8.529200 1.090901
v -1.279600 7.613100 0.861601
v -0.780000 7.515900 0.786101
v -0.780000 7.613100 0.861601
v -1.279600 7.515900 0.786101
v -1.279600 7.919700 0.467201
v -0.780000 7.919700 0.467201
v -1.279600 7.822400 0.391601
v -0.780000 7.822400 0.391601
v -0.786600 8.144400 0.596201
v -1.020100 8.261300 0.635901
v -0.786600 8.261300 0.635901
v -1.020100 8.144400 0.596201
v -0.786600 8.029400 0.640801
v -1.020100 8.029400 0.640801
v -1.061100 7.823500 0.930501
v -0.778400 7.823500 0.930501
v -0.778800 8.638800 0.927201
v -1.002600 8.638800 0.927201
v -0.622400 7.964100 0.821001
v -1.265300 8.122400 0.786801
v -0.622400 8.126700 0.747401
v -1.265300 8.002000 0.841601
v -0.622400 7.950900 0.947901
v -1.265300 7.992300 0.935601
v -0.622400 8.094600 1.053601
v -1.265300 8.098900 1.013901
v -1.265300 8.229100 0.865101
v -0.622400 8.270500 0.852701
v -1.265300 8.219400 0.959101
v -0.622400 8.257300 0.979701
v 0.252800 8.635200 2.144501
v -0.150700 8.781200 1.703901
v 0.013100 8.732400 2.046001
v 0.150700 8.781200 1.703901
v 0.150700 8.786800 1.532801
v -0.150700 8.786800 1.532801
v 0.277300 8.654000 1.528501
v -0.277200 8.654000 1.528501
v -0.252800 8.635200 2.144501
v 0.020000 8.635200 2.144501
v 0.492200 8.070100 -0.572099
v 0.438000 7.963000 -0.494899
v 0.492200 7.962900 -0.572099
v 0.438000 8.070100 -0.494999
v 0.449100 8.070000 -0.636299
v 0.449100 7.962900 -0.636299
v 0.365800 8.070000 -0.635699
v 0.365800 7.962900 -0.635599
v 0.492200 8.344500 -0.572299
v 0.438000 8.237400 -0.495099
v 0.492200 8.237400 -0.572199
v 0.438000 8.344500 -0.495199
v 0.449100 8.344500 -0.636499
v 0.449100 8.237300 -0.636399
v 0.365800 8.344500 -0.635799
v 0.365800 8.237300 -0.635799
v -0.625700 8.672000 1.379301
v -0.364900 8.598800 1.379701
v -0.364900 8.700600 1.379201
v -0.625700 8.598800 1.379701
v -0.625700 8.666700 0.356301
v -0.364900 8.695300 0.356101
v -0.625700 8.593500 0.356601
v -0.364900 8.593500 0.356601
v 0.625700 8.672000 1.379301
v 0.364900 8.598800 1.379701
v 0.625700 8.598800 1.379701
v 0.364900 8.700600 1.379201
v 0.625700 8.666700 0.356301
v 0.364900 8.695300 0.356101
v 0.625700 8.593500 0.356601
v 0.364900 8.593500 0.356601
v 0.145900 8.450499 4.497702
v 0.405600 8.329400 2.787701
v 0.152100 8.530100 2.791502
v 0.378700 8.266199 4.494202
v -0.150800 8.442099 4.497501
v -0.171200 8.521000 2.791401
v -0.372700 8.244999 4.493802
v -0.413000 8.306300 2.787302
v -0.416000 7.951399 4.488202
v -0.460100 7.989500 2.782601
v -0.260400 7.698599 4.483401
v -0.290600 7.712500 2.776601
v 0.021300 7.604999 4.481601
v 0.016300 7.612299 2.775601
v 0.297300 7.714299 4.483701
v 0.317000 7.731900 2.778101
v 0.470700 8.012600 2.781701
v 0.438400 7.975499 4.488601
v 0.379300 7.993199 4.672301
v 0.328600 8.240099 4.677001
v 0.131000 8.396499 4.680001
v -0.120900 8.389399 4.679801
v -0.309400 8.222099 4.676702
v 0.259500 7.771499 4.668101
v -0.346100 7.972699 4.671901
v -0.214000 7.758099 4.667801
v 0.025200 7.678699 4.666301
v 0.095000 8.283499 4.677802
v 0.230400 8.176299 4.675801
v -0.077600 8.278599 4.677701
v -0.206700 8.163999 4.675501
v -0.231900 7.993199 4.672301
v -0.141400 7.846099 4.669501
v 0.022500 7.791699 4.668401
v 0.183000 7.855299 4.669702
v 0.265100 8.007199 4.672601
v 0.014400 8.098600 1.460501
v 0.029900 7.547500 3.077401
v 0.465500 8.353499 3.092801
v 0.181800 8.578099 3.097101
v -0.179900 8.567899 3.096901
v -0.450400 8.327599 3.092301
v -0.503200 7.969699 3.085501
v -0.313500 7.661600 3.079601
v 0.538300 7.999100 3.086101
v 0.366300 7.680799 3.080001
v -0.294700 8.677500 1.626101
v -0.523100 8.396700 1.621301
v 0.291200 8.694000 1.626401
v 0.535100 8.426600 1.621801
v 0.619300 8.017100 1.614001
v 0.420600 7.649400 1.607001
v 0.031900 7.495399 1.604101
v -0.364900 7.627200 1.606601
v -0.584100 7.983200 1.613401
v 0.455400 8.402900 -0.446699
v 0.175000 8.603000 0.283701
v 0.446900 8.387800 0.278701
v 0.178100 8.622400 -0.441599
v -0.171700 8.593300 0.283501
v -0.175500 8.612400 -0.441899
v -0.431100 8.363000 0.278101
v -0.439900 8.377600 -0.447299
v -0.481600 8.020100 0.270101
v -0.491500 8.027900 -0.455499
v -0.322000 7.749200 0.266001
v -0.328700 7.754700 -0.459299
v 0.526600 8.056600 -0.454799
v 0.516800 8.048200 0.270801
v 0.380400 7.772700 -0.458899
v 0.373400 7.766800 0.266401
v 0.144600 8.532400 -0.633399
v -0.135200 8.524600 -0.633499
v -0.344600 8.338600 -0.637099
v -0.385400 8.061700 -0.642299
v -0.238600 7.823300 -0.646899
v 0.028900 7.658500 -0.461099
v 0.027100 7.735000 -0.648599
v 0.287400 7.838100 -0.646599
v 0.420500 8.084400 -0.641899
v 0.364100 8.358600 -0.636699
v 0.423100 7.681700 0.268201
v 0.423100 7.694300 -0.455999
v 0.423100 7.616500 0.265801
v 0.423100 7.627500 -0.457199
v 0.373400 7.562500 0.263801
v 0.373400 7.572200 -0.458299
v -0.322000 7.572200 -0.456599
v -0.322000 7.562400 0.265401
v -0.371700 7.682000 -0.455799
v -0.371700 7.669400 0.268501
v -0.371700 7.622000 -0.456199
v -0.371700 7.610900 0.266801
v 0.143100 8.799100 -0.286599
v -0.099300 8.824000 -0.158399
v 0.143100 8.824000 -0.158399
v -0.099300 8.799100 -0.286599
v 0.143100 8.525900 -0.357799
v -0.099300 8.525900 -0.357799
v 0.143100 8.540300 -0.148699
v -0.099300 8.540300 -0.148699
v 1.304100 6.594900 -0.789999
v 0.722200 6.339100 -0.955799
v 0.751400 6.594900 -0.789999
v 1.310800 6.339100 -0.955799
v 1.312100 6.338200 1.496401
v 0.750100 6.595799 1.496401
v 0.720800 6.338200 1.496401
v 1.305300 6.595799 1.496401
v 1.023400 7.886900 0.483001
v 1.171100 6.548900 -0.446299
v 1.023400 6.585300 -0.495399
v 1.171100 7.850400 0.532201
v 0.875700 7.850400 0.532201
v 0.875700 6.548900 -0.446299
v 0.814500 7.762500 0.650901
v 0.814500 6.460900 -0.327499
v 0.875700 7.674600 0.769601
v 0.875700 6.373000 -0.208799
v 1.232300 6.460900 -0.327499
v 1.232300 7.762500 0.650901
v 1.171100 6.373000 -0.208799
v 1.171100 7.674600 0.769601
v 1.023400 6.336500 -0.159699
v 1.023400 7.638100 0.818801
v 1.132100 6.791300 1.449801
v 0.778800 6.575200 1.468701
v 1.301200 6.593900 1.468701
v 1.002600 8.476900 1.302601
v 0.778800 8.476900 1.302601
v 1.301200 6.593900 0.927201
v 0.778800 6.575200 0.927201
v 1.132100 6.821900 0.927201
v 0.778800 8.638300 0.928001
v 1.002600 8.638800 0.927201
v 1.235000 8.339500 1.522201
v 0.710600 8.209200 1.410401
v 1.235000 8.211600 1.410701
v 0.710600 8.339400 1.522201
v 1.235000 8.845900 0.941801
v 0.710600 8.845800 0.942001
v 1.235000 8.718000 0.830301
v 0.710600 8.716200 0.835101
v 1.176800 8.466000 1.174001
v 1.133600 7.648600 0.703701
v 1.176800 7.711900 0.620601
v 1.133600 8.402700 1.257101
v 1.029200 7.622400 0.738101
v 1.029200 8.376500 1.291501
v 0.924900 7.648600 0.703701
v 0.924900 8.402700 1.257101
v 0.881700 7.711900 0.620601
v 0.881700 8.466000 1.174001
v 0.924900 7.775100 0.537501
v 0.924900 8.529200 1.090901
v 1.029200 7.801300 0.503001
v 1.029200 8.555400 1.056501
v 1.133600 7.775100 0.537501
v 1.133600 8.529200 1.090901
v 1.279600 7.613100 0.861601
v 0.780000 7.515900 0.786101
v 1.279600 7.515900 0.786101
v 0.780000 7.613100 0.861601
v 1.279600 7.919700 0.467201
v 0.780000 7.919700 0.467201
v 1.279600 7.822400 0.391601
v 0.780000 7.822400 0.391601
v 0.786600 8.145000 0.596801
v 1.020100 8.261300 0.635901
v 1.020100 8.144400 0.596201
v 0.786600 8.261300 0.636101
v 0.786600 8.029400 0.640801
v 1.020100 8.029400 0.640801
v 1.061100 7.823500 0.930501
v 0.778400 7.823800 0.929701
v 1.213800 7.720000 1.244801
v 1.110800 6.629700 1.244801
v 1.281700 6.629700 1.244801
v 1.042900 7.720000 1.244801
v 1.213800 7.720000 0.970001
v 1.281700 6.629700 0.970001
v 1.042900 7.720000 0.970001
v 1.110800 6.629700 0.970001
v 1.205400 7.899800 0.978101
v 1.034500 7.899800 1.236701
v 1.205400 7.899800 1.236701
v 1.034500 7.899800 0.978101
v 1.213800 7.720000 1.307201
v 1.213800 7.720000 0.907601
v 1.042900 7.720000 0.907601
v 1.042900 7.720000 1.307201
v -0.155500 8.889600 1.200001
v 0.154500 8.883000 -0.048799
v -0.142400 8.883000 -0.048799
v 0.167500 8.889600 1.200001
v 0.154500 8.702200 -0.055899
v 0.167500 8.708700 1.192801
v -0.142400 8.702200 -0.055899
v -0.155500 8.708700 1.192801
v 0.094800 7.028900 1.569701
v -0.098000 7.606400 1.603001
v -0.098000 7.028999 1.569701
v 0.094800 7.606400 1.603001
v 0.094800 6.801700 1.023501
v -0.098000 6.801700 1.023501
v 0.094800 7.006900 0.432301
v -0.098000 7.006900 0.432301
v 0.094800 7.544100 0.111201
v -0.098000 7.544100 0.111201
v 0.245300 8.945600 1.545601
v -0.314300 8.688700 1.521501
v 0.357900 8.688700 1.521501
v -0.201700 8.945600 1.545601
v 0.245300 8.954100 1.203701
v 0.357900 8.682000 1.177801
v -0.314300 8.682000 1.177801
v -0.201700 8.954100 1.203701
v 0.622400 7.964000 0.821001
v 1.265300 8.122400 0.786801
v 1.265300 8.002000 0.841601
v 0.622400 8.126800 0.747501
v 0.622400 7.950900 0.948001
v 1.265300 7.992300 0.935601
v 0.622400 8.094800 1.053601
v 1.265300 8.098900 1.013901
v 1.265300 8.229100 0.865101
v 0.622400 8.270500 0.852701
v 1.265300 8.219400 0.959101
v 0.622400 8.257300 0.979701
v 0.548500 7.807899 1.635701
v 0.504600 7.486400 -0.014499
v 0.504600 7.817000 -0.016499
v 0.548500 7.479199 1.620201
v -0.536500 7.807899 1.635701
v -0.536500 7.479199 1.620201
v 0.413200 8.621900 1.648001
v -0.401100 8.621900 1.648001
v 0.413200 8.742600 1.650301
v -0.401100 8.742600 1.650301
v 0.651900 7.807899 1.635701
v 0.651900 8.621900 1.648001
v -0.639800 8.621900 1.648001
v -0.639800 7.807899 1.635701
v -0.492600 7.817000 -0.016499
v -0.492600 7.486400 -0.014499
v 0.380200 8.751700 -0.001799
v -0.368200 8.751700 -0.001799
v 0.380200 8.631100 -0.004199
v -0.368200 8.631100 -0.004199
v 0.753100 7.817000 -0.016499
v 0.753100 8.631100 -0.004199
v -0.741100 7.817000 -0.016499
v -0.741100 8.631100 -0.004199
v 0.280100 9.149500 1.756902
v 0.221500 8.991400 0.724001
v 0.252900 9.169200 0.728101
v 0.244900 8.950200 1.752301
v 0.163900 9.315300 1.760802
v 0.149200 9.317000 0.731502
v -0.035700 9.350400 1.761602
v -0.028800 9.348300 0.732202
v -0.201700 9.234200 1.758902
v -0.176800 9.244700 0.729901
v -0.236800 9.034900 1.754301
v -0.208200 9.066900 0.725801
v -0.120600 8.869100 1.750501
v -0.104500 8.919000 0.722301
v 0.078900 8.834000 1.749701
v 0.073500 8.887700 0.721601
v 0.450900 8.778300 0.033101
v -0.407100 8.245700 0.121801
v 0.450900 8.245700 0.121801
v -0.407100 8.778300 0.033101
v 0.450900 8.825500 -0.001099
v -0.407100 8.825500 -0.001099
v 0.450900 8.825300 -0.185299
v -0.407100 8.825300 -0.185299
v 0.450900 8.770900 -0.221499
v -0.407100 8.770900 -0.221499
v 0.450900 8.248200 -0.236199
v -0.407100 8.248200 -0.236199
v 0.236700 8.926000 -0.094899
v -0.228100 8.928700 0.117501
v 0.236700 8.928700 0.117501
v -0.228100 8.926000 -0.094899
v -0.242000 8.717800 0.135201
v 0.250600 8.717800 0.135201
v -0.242000 8.714800 -0.107299
v 0.250600 8.714800 -0.107299
v 0.078500 8.126100 -0.708099
v 0.014600 8.031300 -0.627999
v -0.037800 8.128400 -0.706399
v -0.113700 8.165000 -0.624799
v 0.148300 8.159600 -0.628599
v 0.022800 8.243500 -0.706099
v 0.020000 8.293300 -0.625399
v -1.301200 6.593900 1.468701
v -0.778800 6.575200 1.468701
v -1.132100 6.791300 1.449801
v -1.002600 8.476900 1.302601
v -0.778800 8.476900 1.302601
v -1.132100 6.821900 0.927201
v -0.778800 6.575200 0.927201
v -1.301200 6.593900 0.927201
v -1.213800 7.720000 1.244801
v -1.110800 6.629700 1.244801
v -1.042900 7.720000 1.244801
v -1.281700 6.629700 1.244801
v -1.213800 7.720000 0.970001
v -1.281700 6.629700 0.970001
v -1.042900 7.720000 0.970001
v -1.110800 6.629700 0.970001
v -1.205400 7.899800 0.978101
v -1.034500 7.899800 1.236701
v -1.034500 7.899800 0.978101
v -1.205400 7.899800 1.236701
v -1.213800 7.720000 1.307201
v -1.213800 7.720000 0.907601
v -1.042900 7.720000 0.907601
v -1.042900 7.720000 1.307201
vt 0.894400 0.732800
vt 0.877900 0.723200
vt 0.893800 0.723100
vt 0.878000 0.732800
vt 0.150200 0.985100
vt 0.134000 0.977200
vt 0.150100 0.977200
vt 0.133100 0.985100
vt 0.661000 0.825200
vt 0.595400 0.842400
vt 0.595400 0.825000
vt 0.661000 0.842200
vt 0.211900 0.968800
vt 0.145800 0.977100
vt 0.145800 0.969000
vt 0.217300 0.976500
vt 0.850000 0.968700
vt 0.784100 0.960300
vt 0.855400 0.961000
vt 0.784100 0.968500
vt 0.371500 0.636800
vt 0.324600 0.631500
vt 0.371500 0.631800
vt 0.324600 0.636400
vt 0.371400 0.641700
vt 0.324600 0.641400
vt 0.371400 0.646700
vt 0.324500 0.646300
vt 0.371400 0.651600
vt 0.324500 0.651300
vt 0.324700 0.626500
vt 0.371600 0.626900
vt 0.324700 0.621600
vt 0.371600 0.621900
vt 0.324800 0.616600
vt 0.371700 0.617000
vt 0.324800 0.611700
vt 0.371700 0.612000
vt 0.017100 0.992200
vt 0.002000 0.997500
vt 0.002000 0.992200
vt 0.017100 0.997500
vt 0.087100 0.319300
vt 0.064900 0.303100
vt 0.087100 0.303100
vt 0.064900 0.319300
vt 0.876700 0.985200
vt 0.861600 0.990500
vt 0.861500 0.985200
vt 0.876700 0.990500
vt 0.564500 0.075100
vt 0.581900 0.054400
vt 0.581900 0.075100
vt 0.564500 0.054400
vt 0.817200 0.985200
vt 0.795000 0.990500
vt 0.795000 0.985200
vt 0.817200 0.990500
vt 0.839400 0.990500
vt 0.861500 0.990500
vt 0.839400 0.985200
vt 0.725400 0.398300
vt 0.728200 0.369200
vt 0.728700 0.398200
vt 0.725000 0.369400
vt 0.731500 0.369200
vt 0.732000 0.398100
vt 0.734700 0.369100
vt 0.735200 0.398100
vt 0.738000 0.369100
vt 0.738500 0.398100
vt 0.741200 0.369100
vt 0.741700 0.398100
vt 0.744500 0.369100
vt 0.745000 0.398000
vt 0.747700 0.369000
vt 0.748200 0.397900
vt 0.722200 0.398400
vt 0.721700 0.369500
vt 0.270000 0.052200
vt 0.284400 0.048400
vt 0.284400 0.052200
vt 0.270000 0.048400
vt 0.864800 0.352600
vt 0.879200 0.337200
vt 0.879200 0.352600
vt 0.864800 0.337200
vt 0.190700 0.996000
vt 0.205100 0.992200
vt 0.205100 0.996000
vt 0.190700 0.992200
vt 0.667500 0.338000
vt 0.681900 0.353400
vt 0.667500 0.353400
vt 0.681900 0.338000
vt 0.176300 0.996000
vt 0.176300 0.992200
vt 0.747500 0.448600
vt 0.751100 0.464000
vt 0.747500 0.464000
vt 0.751100 0.448600
vt 0.290600 0.959400
vt 0.294000 0.952100
vt 0.294200 0.959300
vt 0.290400 0.952200
vt 0.287000 0.959600
vt 0.286800 0.952300
vt 0.276600 0.951400
vt 0.276800 0.960100
vt 0.307900 0.959100
vt 0.307700 0.952200
vt 0.700000 0.473200
vt 0.696600 0.474400
vt 0.687300 0.464000
vt 0.693300 0.473100
vt 0.710900 0.464200
vt 0.563900 0.473700
vt 0.560500 0.472400
vt 0.573100 0.463300
vt 0.567200 0.472300
vt 0.549700 0.463400
vt 0.674100 0.780000
vt 0.669500 0.799900
vt 0.669000 0.780000
vt 0.673300 0.800000
vt 0.677800 0.780300
vt 0.676000 0.800200
vt 0.682900 0.781100
vt 0.679800 0.800700
vt 0.665700 0.800200
vt 0.663800 0.780300
vt 0.663000 0.800600
vt 0.660200 0.780800
vt 0.659300 0.801300
vt 0.655200 0.781900
vt 0.409400 0.820700
vt 0.411200 0.817200
vt 0.410800 0.823300
vt 0.415100 0.817100
vt 0.416400 0.819600
vt 0.414600 0.823200
vt 0.700600 0.394900
vt 0.714000 0.382200
vt 0.703900 0.387100
vt 0.714000 0.391300
vt 0.718900 0.391500
vt 0.719000 0.382000
vt 0.718600 0.397300
vt 0.718600 0.376100
vt 0.700600 0.378500
vt 0.700000 0.387400
vt 0.525600 0.804900
vt 0.522800 0.808100
vt 0.525500 0.808200
vt 0.522900 0.804800
vt 0.527900 0.805000
vt 0.527700 0.808300
vt 0.530300 0.805100
vt 0.530100 0.808400
vt 0.889000 0.927400
vt 0.892500 0.929700
vt 0.891200 0.927100
vt 0.887900 0.929700
vt 0.029500 0.977100
vt 0.026100 0.974600
vt 0.027300 0.976900
vt 0.030600 0.974400
vt 0.518200 0.804900
vt 0.515400 0.808100
vt 0.518100 0.808200
vt 0.515500 0.804800
vt 0.520400 0.805000
vt 0.520300 0.808300
vt 0.522800 0.805100
vt 0.522700 0.808400
vt 0.652800 0.938100
vt 0.656300 0.940400
vt 0.655000 0.937800
vt 0.651700 0.940400
vt 0.650600 0.940400
vt 0.647200 0.938000
vt 0.648300 0.940300
vt 0.651700 0.937800
vt 0.842500 0.645300
vt 0.844700 0.637200
vt 0.841800 0.637200
vt 0.844600 0.645400
vt 0.729900 0.968800
vt 0.700500 0.977000
vt 0.729900 0.977000
vt 0.700400 0.968800
vt 0.217600 0.801500
vt 0.220500 0.793300
vt 0.217600 0.793300
vt 0.219700 0.801400
vt 0.894100 0.845600
vt 0.864700 0.843300
vt 0.864700 0.845600
vt 0.894200 0.843300
vt 0.527700 0.583700
vt 0.525200 0.575700
vt 0.525600 0.583800
vt 0.528100 0.575500
vt 0.700300 0.977000
vt 0.671000 0.968800
vt 0.670900 0.977000
vt 0.700400 0.968800
vt 0.591400 0.575500
vt 0.594300 0.583700
vt 0.593500 0.575600
vt 0.591400 0.583700
vt 0.923700 0.843300
vt 0.894200 0.845600
vt 0.923800 0.845600
vt 0.894300 0.843300
vt 0.278000 0.548100
vt 0.289300 0.495900
vt 0.279900 0.495300
vt 0.286200 0.548600
vt 0.269700 0.547700
vt 0.270600 0.495000
vt 0.261400 0.547600
vt 0.261200 0.495000
vt 0.253300 0.547900
vt 0.251800 0.495200
vt 0.245000 0.548400
vt 0.242400 0.495600
vt 0.236700 0.549200
vt 0.233000 0.496300
vt 0.228200 0.550300
vt 0.223600 0.497100
vt 0.298600 0.496600
vt 0.294600 0.549500
vt 0.308000 0.497600
vt 0.303100 0.550600
vt 0.293400 0.555500
vt 0.285500 0.554600
vt 0.277700 0.554000
vt 0.269800 0.553700
vt 0.261900 0.553700
vt 0.301000 0.556800
vt 0.253800 0.554100
vt 0.245600 0.554700
vt 0.237400 0.555400
vt 0.229700 0.556700
vt 0.466000 0.786900
vt 0.470200 0.792800
vt 0.468900 0.785100
vt 0.466800 0.792200
vt 0.462200 0.783500
vt 0.463300 0.780000
vt 0.457200 0.783500
vt 0.456100 0.780000
vt 0.453400 0.786900
vt 0.450500 0.785000
vt 0.452500 0.792100
vt 0.449300 0.792700
vt 0.455000 0.796800
vt 0.452900 0.799500
vt 0.459700 0.798600
vt 0.459700 0.802200
vt 0.464300 0.796800
vt 0.466500 0.799500
vt 0.657600 0.560200
vt 0.750700 0.569600
vt 0.751000 0.564300
vt 0.751100 0.559000
vt 0.750100 0.574900
vt 0.749300 0.580100
vt 0.748200 0.585300
vt 0.746800 0.590400
vt 0.745300 0.595400
vt 0.743400 0.600300
vt 0.741300 0.605100
vt 0.610100 0.717800
vt 0.634900 0.708200
vt 0.633100 0.697200
vt 0.625100 0.689900
vt 0.614700 0.689900
vt 0.606700 0.697000
vt 0.604900 0.708100
vt 0.629700 0.717900
vt 0.619900 0.721700
vt 0.281900 0.606300
vt 0.287400 0.559700
vt 0.277000 0.560900
vt 0.292200 0.605200
vt 0.304200 0.559000
vt 0.302700 0.604800
vt 0.314700 0.559300
vt 0.313100 0.605000
vt 0.326700 0.560100
vt 0.323500 0.605600
vt 0.338700 0.561300
vt 0.333900 0.606700
vt 0.350600 0.563000
vt 0.344200 0.608200
vt 0.362500 0.565200
vt 0.354500 0.610000
vt 0.271500 0.607800
vt 0.265100 0.562700
vt 0.261300 0.609700
vt 0.253200 0.564900
vt 0.814300 0.578800
vt 0.806000 0.601600
vt 0.815600 0.601100
vt 0.805200 0.579500
vt 0.796500 0.601800
vt 0.796200 0.579700
vt 0.786900 0.601900
vt 0.787100 0.579600
vt 0.777100 0.601800
vt 0.777800 0.579000
vt 0.768000 0.601800
vt 0.768700 0.577700
vt 0.823600 0.577600
vt 0.825300 0.600400
vt 0.832500 0.576000
vt 0.834500 0.600000
vt 0.804900 0.572800
vt 0.796300 0.573000
vt 0.787600 0.572800
vt 0.778800 0.572200
vt 0.770600 0.570600
vt 0.759600 0.570400
vt 0.763400 0.565300
vt 0.751100 0.562500
vt 0.757000 0.559000
vt 0.830500 0.568900
vt 0.822100 0.571000
vt 0.813500 0.572200
vt 0.837500 0.599900
vt 0.835200 0.575800
vt 0.839400 0.599700
vt 0.837200 0.575600
vt 0.841700 0.599500
vt 0.839400 0.575300
vt 0.515000 0.208800
vt 0.535100 0.186500
vt 0.515000 0.186500
vt 0.535100 0.208800
vt 0.815400 0.418300
vt 0.797700 0.429100
vt 0.800400 0.437300
vt 0.807400 0.441700
vt 0.815400 0.440200
vt 0.820600 0.433600
vt 0.820600 0.424900
vt 0.800400 0.421000
vt 0.807400 0.416700
vt 0.766300 0.577800
vt 0.765100 0.602000
vt 0.764500 0.577700
vt 0.763400 0.601900
vt 0.762300 0.577600
vt 0.761300 0.601800
vt 0.548700 0.988000
vt 0.547400 0.985800
vt 0.537100 0.988800
vt 0.547200 0.991400
vt 0.548700 0.989900
vt 0.527100 0.991400
vt 0.525700 0.987700
vt 0.525700 0.989700
vt 0.526900 0.985200
vt 0.475700 0.839300
vt 0.471900 0.831800
vt 0.471900 0.839300
vt 0.475700 0.831800
vt 0.160700 0.503700
vt 0.167700 0.495000
vt 0.160700 0.495000
vt 0.167700 0.503700
vt 0.146600 0.987900
vt 0.154300 0.991700
vt 0.154400 0.985200
vt 0.146100 0.991900
vt 0.242700 0.277800
vt 0.236900 0.286900
vt 0.242900 0.286600
vt 0.239000 0.278500
vt 0.877900 0.732800
vt 0.861300 0.723200
vt 0.861500 0.732800
vt 0.877300 0.723100
vt 0.167300 0.985100
vt 0.151100 0.977200
vt 0.150200 0.985100
vt 0.167200 0.977200
vt 0.726500 0.825200
vt 0.661000 0.842400
vt 0.726500 0.842200
vt 0.661000 0.825000
vt 0.283300 0.968800
vt 0.217300 0.977100
vt 0.288700 0.976500
vt 0.217300 0.969000
vt 0.778700 0.968700
vt 0.712800 0.960300
vt 0.712800 0.968500
vt 0.784100 0.961000
vt 0.324300 0.636800
vt 0.277500 0.631500
vt 0.277400 0.636400
vt 0.324400 0.631800
vt 0.324300 0.641700
vt 0.277400 0.641400
vt 0.324300 0.646700
vt 0.277400 0.646300
vt 0.324300 0.651600
vt 0.277400 0.651300
vt 0.277500 0.626500
vt 0.324400 0.626900
vt 0.277600 0.621600
vt 0.324500 0.621900
vt 0.277600 0.616600
vt 0.324500 0.617000
vt 0.277700 0.611700
vt 0.324500 0.612000
vt 0.501100 0.854500
vt 0.495200 0.843300
vt 0.495300 0.859500
vt 0.549900 0.852100
vt 0.550100 0.845100
vt 0.723800 0.859500
vt 0.723800 0.843300
vt 0.717100 0.854500
vt 0.664400 0.845600
vt 0.664700 0.852500
vt 0.245300 0.357100
vt 0.237600 0.340000
vt 0.237200 0.356800
vt 0.245100 0.340800
vt 0.257200 0.848400
vt 0.312000 0.860100
vt 0.312000 0.843300
vt 0.252600 0.860000
vt 0.851900 0.857500
vt 0.798100 0.843300
vt 0.799500 0.859500
vt 0.846900 0.846000
vt 0.795000 0.985200
vt 0.779900 0.990500
vt 0.795000 0.990500
vt 0.779900 0.985200
vt 0.495200 0.859600
vt 0.473000 0.843300
vt 0.473000 0.859600
vt 0.495200 0.843300
vt 0.054300 0.992200
vt 0.039300 0.997500
vt 0.054300 0.997500
vt 0.039300 0.992200
vt 0.273200 0.075100
vt 0.290500 0.054400
vt 0.273200 0.054400
vt 0.290500 0.075100
vt 0.839400 0.985200
vt 0.817200 0.990500
vt 0.839400 0.990500
vt 0.817200 0.985200
vt 0.017100 0.997500
vt 0.017100 0.992200
vt 0.803500 0.398300
vt 0.806200 0.369200
vt 0.803000 0.369400
vt 0.806700 0.398200
vt 0.809500 0.369200
vt 0.810000 0.398100
vt 0.812700 0.369100
vt 0.813200 0.398100
vt 0.816000 0.369100
vt 0.816500 0.398100
vt 0.819300 0.369100
vt 0.819800 0.398100
vt 0.822500 0.369100
vt 0.823000 0.398000
vt 0.825800 0.369000
vt 0.826300 0.397900
vt 0.800200 0.398400
vt 0.799700 0.369500
vt 0.133100 0.996000
vt 0.147500 0.992200
vt 0.133100 0.992200
vt 0.147500 0.996000
vt 0.453100 0.552100
vt 0.467500 0.536600
vt 0.453100 0.536600
vt 0.467500 0.552000
vt 0.147500 0.996000
vt 0.161900 0.992200
vt 0.147500 0.992200
vt 0.161900 0.996000
vt 0.853400 0.320500
vt 0.867700 0.335900
vt 0.867700 0.320500
vt 0.853400 0.335900
vt 0.176300 0.992200
vt 0.161900 0.996000
vt 0.176300 0.996000
vt 0.161900 0.992200
vt 0.255700 0.052200
vt 0.270000 0.048400
vt 0.255700 0.048400
vt 0.270000 0.052200
vt 0.321900 0.959400
vt 0.325200 0.952100
vt 0.321700 0.952200
vt 0.325500 0.959300
vt 0.318300 0.959600
vt 0.318100 0.952300
vt 0.307900 0.951400
vt 0.308100 0.960100
vt 0.339200 0.959100
vt 0.339000 0.952200
vt 0.104200 0.793300
vt 0.113500 0.803700
vt 0.116800 0.802500
vt 0.110100 0.802400
vt 0.127700 0.793400
vt 0.108700 0.481800
vt 0.100200 0.468300
vt 0.099000 0.471900
vt 0.100300 0.475500
vt 0.108600 0.456600
vt 0.641700 0.809500
vt 0.610600 0.804200
vt 0.610300 0.809500
vt 0.642000 0.804200
vt 0.641700 0.818000
vt 0.610300 0.818000
vt 0.642000 0.823300
vt 0.610600 0.823300
vt 0.880300 0.924800
vt 0.887800 0.930100
vt 0.887800 0.924800
vt 0.880300 0.930100
vt 0.889800 0.919300
vt 0.878300 0.919300
vt 0.875800 0.927000
vt 0.873800 0.921400
vt 0.894300 0.921400
vt 0.892300 0.927000
vt 0.207500 0.408400
vt 0.196000 0.403100
vt 0.196000 0.408400
vt 0.207500 0.403100
vt 0.572300 0.931200
vt 0.608300 0.940600
vt 0.608300 0.931400
vt 0.572400 0.941200
vt 0.695500 0.118600
vt 0.731800 0.123700
vt 0.731500 0.118100
vt 0.695800 0.124200
vt 0.578400 0.990800
vt 0.614700 0.985500
vt 0.578700 0.985200
vt 0.614400 0.991100
vt 0.797700 0.447700
vt 0.814100 0.441700
vt 0.797700 0.441700
vt 0.814100 0.447700
vt 0.507900 0.991500
vt 0.525700 0.985200
vt 0.507900 0.985300
vt 0.525700 0.991500
vt 0.491300 0.991500
vt 0.491300 0.985300
vt 0.474500 0.991500
vt 0.474500 0.985300
vt 0.002000 0.804100
vt 0.019700 0.780000
vt 0.003700 0.786300
vt 0.036400 0.787200
vt 0.045000 0.804200
vt 0.859900 0.753900
vt 0.861600 0.771700
vt 0.877600 0.778000
vt 0.894400 0.770800
vt 0.902900 0.753700
vt 0.117000 0.985200
vt 0.133100 0.977200
vt 0.113800 0.977200
vt 0.129900 0.985200
vt 0.540500 0.942000
vt 0.531200 0.950700
vt 0.541100 0.951100
vt 0.530700 0.942000
vt 0.520300 0.951100
vt 0.530700 0.942000
vt 0.520800 0.942400
vt 0.530100 0.951100
vt 0.322000 0.968800
vt 0.338100 0.960300
vt 0.325300 0.960300
vt 0.341400 0.968800
vt 0.192500 0.803900
vt 0.205400 0.793300
vt 0.192500 0.793300
vt 0.205400 0.803900
vt 0.701800 0.780000
vt 0.697200 0.799900
vt 0.701000 0.800000
vt 0.696700 0.780000
vt 0.705500 0.780300
vt 0.703700 0.800200
vt 0.710600 0.781100
vt 0.707500 0.800700
vt 0.693400 0.800200
vt 0.691600 0.780300
vt 0.690700 0.800600
vt 0.687900 0.780800
vt 0.687000 0.801300
vt 0.682900 0.781900
vt 0.417800 0.823300
vt 0.418300 0.817200
vt 0.416400 0.820700
vt 0.422100 0.817100
vt 0.423500 0.819600
vt 0.421600 0.823200
vt 0.061800 0.941400
vt 0.014200 0.931600
vt 0.014200 0.941900
vt 0.061300 0.931200
vt 0.572600 0.179900
vt 0.541300 0.169700
vt 0.541300 0.179900
vt 0.572600 0.169700
vt 0.545200 0.205000
vt 0.568700 0.205000
vt 0.545200 0.208800
vt 0.568700 0.208800
vt 0.538300 0.179900
vt 0.538300 0.205000
vt 0.575600 0.205000
vt 0.575600 0.179900
vt 0.837400 0.905300
vt 0.884200 0.917300
vt 0.885000 0.907200
vt 0.837200 0.915500
vt 0.346900 0.753700
vt 0.394600 0.777600
vt 0.394400 0.754400
vt 0.347000 0.778900
vt 0.768800 0.687500
vt 0.720700 0.657100
vt 0.721700 0.688000
vt 0.767700 0.654000
vt 0.054300 0.992200
vt 0.101900 0.996600
vt 0.101900 0.992900
vt 0.054300 0.996000
vt 0.501200 0.858200
vt 0.548900 0.855200
vt 0.501300 0.854500
vt 0.548800 0.858900
vt 0.050400 0.778900
vt 0.002000 0.754800
vt 0.002700 0.780000
vt 0.049600 0.753700
vt 0.671900 0.749800
vt 0.719100 0.723100
vt 0.671500 0.724600
vt 0.719500 0.748300
vt 0.288500 0.002000
vt 0.265100 0.009700
vt 0.288500 0.013600
vt 0.265100 0.002000
vt 0.265100 0.040700
vt 0.288500 0.036800
vt 0.265100 0.048400
vt 0.288500 0.048400
vt 0.255700 0.040700
vt 0.255700 0.009700
vt 0.255500 0.928000
vt 0.303000 0.919300
vt 0.255400 0.920600
vt 0.303100 0.930800
vt 0.432900 0.984900
vt 0.480500 0.978700
vt 0.433000 0.977200
vt 0.480500 0.981900
vt 0.528100 0.979600
vt 0.480600 0.984900
vt 0.528200 0.982800
vt 0.480500 0.977200
vt 0.350600 0.919300
vt 0.303100 0.930100
vt 0.350700 0.930800
vt 0.303100 0.922700
vt 0.092200 0.690000
vt 0.087900 0.722100
vt 0.093100 0.721800
vt 0.086300 0.690200
vt 0.098000 0.689900
vt 0.098300 0.721700
vt 0.103800 0.689900
vt 0.103500 0.721700
vt 0.109700 0.690000
vt 0.108700 0.721900
vt 0.115500 0.690300
vt 0.113900 0.722100
vt 0.121300 0.690700
vt 0.119100 0.722400
vt 0.127100 0.691200
vt 0.124200 0.722900
vt 0.082700 0.722400
vt 0.080500 0.690600
vt 0.210300 0.473100
vt 0.205100 0.459600
vt 0.201400 0.463500
vt 0.210300 0.459600
vt 0.214000 0.463500
vt 0.214000 0.469100
vt 0.201400 0.469100
vt 0.205100 0.473100
vt 0.035000 0.875900
vt 0.030800 0.880300
vt 0.030800 0.886500
vt 0.034900 0.891000
vt 0.040700 0.891000
vt 0.044900 0.886600
vt 0.044900 0.880400
vt 0.040800 0.875900
vt 0.779300 0.749700
vt 0.763800 0.723100
vt 0.763800 0.749700
vt 0.779300 0.723100
vt 0.781000 0.749700
vt 0.781000 0.723100
vt 0.786300 0.749700
vt 0.786300 0.723100
vt 0.788200 0.749700
vt 0.788200 0.723100
vt 0.803300 0.749700
vt 0.803300 0.723100
vt 0.547500 0.929900
vt 0.532400 0.919300
vt 0.532500 0.930300
vt 0.547700 0.922000
vt 0.549100 0.928800
vt 0.549100 0.923000
vt 0.550500 0.922000
vt 0.565700 0.930300
vt 0.565800 0.919300
vt 0.550700 0.929800
vt 0.549100 0.923000
vt 0.549100 0.928700
vt 0.368300 0.991800
vt 0.381600 0.985200
vt 0.368300 0.985200
vt 0.381600 0.991800
vt 0.390500 0.991800
vt 0.404300 0.985200
vt 0.390100 0.985200
vt 0.403900 0.991800
vt 0.134700 0.646400
vt 0.140800 0.653400
vt 0.140800 0.645900
vt 0.134700 0.653000
vt 0.404300 0.991800
vt 0.418100 0.985200
vt 0.404700 0.985200
vt 0.418500 0.991800
vt 0.901300 0.770900
vt 0.894700 0.777500
vt 0.901700 0.777500
vt 0.895200 0.770900
vt 0.457900 0.790400
vt 0.455900 0.794600
vt 0.460000 0.793000
vt 0.462900 0.795200
vt 0.456400 0.787100
vt 0.461500 0.789300
vt 0.463600 0.787500
vt 0.550200 0.859500
vt 0.550100 0.843300
vt 0.556100 0.854500
vt 0.604900 0.852100
vt 0.605100 0.845100
vt 0.657700 0.854500
vt 0.664400 0.843300
vt 0.664400 0.859500
vt 0.605100 0.845600
vt 0.605300 0.852500
vt 0.362800 0.357000
vt 0.355100 0.340000
vt 0.362600 0.340800
vt 0.354700 0.356800
vt 0.197800 0.848400
vt 0.252500 0.860100
vt 0.193100 0.860000
vt 0.252600 0.843300
vt 0.798100 0.857500
vt 0.744300 0.843300
vt 0.793100 0.846000
vt 0.745700 0.859500
vt 0.610000 0.809500
vt 0.578800 0.804200
vt 0.610300 0.804200
vt 0.578500 0.809500
vt 0.610000 0.818000
vt 0.578500 0.818000
vt 0.610300 0.823300
vt 0.578800 0.823300
vt 0.859800 0.924800
vt 0.867300 0.930100
vt 0.859800 0.930100
vt 0.867300 0.924800
vt 0.869300 0.919300
vt 0.857800 0.919300
vt 0.855300 0.927000
vt 0.853300 0.921400
vt 0.873800 0.921400
vt 0.871800 0.927000
vt 0.325100 0.408400
vt 0.313500 0.403100
vt 0.325100 0.403100
vt 0.313500 0.408400
vn -0.0002 0.5440 -0.8391
vn -0.0001 0.5442 -0.8390
vn -0.0002 0.5439 -0.8391
vn 0.0000 0.5443 -0.8389
vn 0.0000 0.0000 1.0000
vn 0.0000 1.0000 -0.0004
vn -0.9997 0.0264 -0.0005
vn -0.9997 0.0262 -0.0005
vn 0.9936 0.1133 -0.0006
vn 0.9935 0.1135 -0.0006
vn 0.9936 0.1132 -0.0006
vn 0.0000 0.6009 -0.7993
vn -0.7062 0.4254 -0.5659
vn -0.7081 0.4243 -0.5644
vn 0.7081 0.4243 -0.5645
vn 0.7062 0.4255 -0.5659
vn 1.0000 -0.0010 0.0014
vn 1.0000 0.0009 -0.0012
vn 0.7064 -0.4253 0.5658
vn 0.7079 -0.4244 0.5646
vn -1.0000 0.0010 -0.0012
vn -1.0000 -0.0011 0.0014
vn -0.7079 -0.4244 0.5646
vn -0.7064 -0.4253 0.5658
vn -0.0000 -0.6009 0.7993
vn 0.0000 -0.6575 0.7535
vn 0.0000 -0.6574 0.7536
vn 0.0000 0.7535 0.6574
vn 0.0000 0.6574 -0.7536
vn -0.0000 0.6575 -0.7535
vn 0.0000 -0.7535 -0.6574
vn -1.0000 0.0000 0.0000
vn 1.0000 0.0000 0.0000
vn -1.0000 0.0026 -0.0035
vn -0.7054 -0.4194 0.5714
vn -0.7094 -0.4170 0.5682
vn -1.0000 -0.0025 0.0034
vn -0.0003 -0.5918 0.8061
vn 0.0002 -0.5916 0.8062
vn 0.7052 -0.4195 0.5716
vn 0.7095 -0.4169 0.5681
vn 1.0000 -0.0025 0.0034
vn 1.0000 0.0026 -0.0035
vn 0.7096 0.4169 -0.5681
vn 0.7052 0.4195 -0.5716
vn -0.0003 0.5917 -0.8062
vn 0.0001 0.5917 -0.8062
vn -0.7095 0.4170 -0.5681
vn -0.7051 0.4196 -0.5717
vn 0.0000 -0.6134 0.7897
vn 0.0000 -0.6137 0.7895
vn 0.0000 0.7895 0.6137
vn 0.0000 0.6138 -0.7895
vn 0.0000 0.6135 -0.7897
vn 0.0000 0.6136 -0.7897
vn 0.0000 -0.7897 -0.6135
vn 0.0000 -0.0213 -0.9998
vn -0.0000 0.5544 -0.8322
vn -0.0000 0.5559 -0.8312
vn 0.1630 -0.7182 -0.6765
vn -0.1521 -0.7159 -0.6814
vn -0.5073 -0.6810 -0.5282
vn 0.4763 -0.7105 -0.5180
vn 0.0000 0.6109 -0.7917
vn -0.9970 0.0676 -0.0383
vn -0.9946 0.0213 -0.1015
vn -0.9969 0.0714 -0.0326
vn 0.9998 0.0043 -0.0204
vn 0.9997 0.0010 -0.0264
vn 0.9996 0.0004 -0.0273
vn -0.0652 -0.7524 -0.6555
vn -0.0618 0.1027 -0.9928
vn -0.0617 0.1029 -0.9928
vn -0.0651 -0.7489 -0.6594
vn -0.0655 -0.8713 0.4864
vn -0.0654 -0.8687 0.4910
vn -0.0620 -0.1031 0.9927
vn -0.0621 -0.1029 0.9928
vn -0.0653 0.8685 -0.4914
vn -0.0654 0.8710 -0.4869
vn -0.0653 0.7492 0.6591
vn -0.0654 0.7526 0.6552
vn 0.2723 0.9397 0.2068
vn -0.3561 0.9278 0.1116
vn 0.0343 0.9630 0.2673
vn 0.3978 0.9110 0.1091
vn 0.4654 0.8841 0.0426
vn -0.4654 0.8841 0.0426
vn 0.7379 0.6735 0.0438
vn -0.7379 0.6735 0.0438
vn -0.3949 0.8844 0.2489
vn -0.0000 0.7121 0.7021
vn 0.9970 0.0000 0.0777
vn 0.8186 0.0003 0.5744
vn 0.8186 0.0003 0.5743
vn 0.9970 0.0001 0.0777
vn 0.4494 -0.0005 -0.8933
vn -0.0077 -0.0005 -1.0000
vn -0.0080 -0.0007 -1.0000
vn 0.4494 -0.0006 -0.8933
vn -0.0000 1.0000 -0.0006
vn -0.0000 1.0000 -0.0007
vn 0.0000 -1.0000 0.0005
vn -0.0000 -1.0000 0.0006
vn -0.0079 -0.0007 -1.0000
vn -0.0000 1.0000 -0.0005
vn 0.0001 -1.0000 0.0006
vn -0.0000 0.0053 1.0000
vn -0.0001 0.0050 1.0000
vn -0.0002 0.0049 1.0000
vn 0.0000 0.0055 1.0000
vn -0.1090 0.9940 -0.0051
vn -0.1090 0.9940 -0.0052
vn 0.0000 -0.0049 -1.0000
vn 0.0000 -0.0052 -1.0000
vn 0.0001 0.0050 1.0000
vn 0.0002 0.0049 1.0000
vn 0.1090 0.9940 -0.0052
vn 0.1090 0.9940 -0.0051
vn 0.3158 0.9465 0.0665
vn 0.8505 0.5249 0.0329
vn 0.3142 0.9483 0.0454
vn 0.8525 0.5197 0.0551
vn -0.3686 0.9270 0.0700
vn -0.3683 0.9285 0.0474
vn -0.8788 0.4729 0.0641
vn -0.8783 0.4765 0.0379
vn -0.9775 -0.2049 0.0509
vn -0.9796 -0.1999 0.0209
vn -0.6187 -0.7848 0.0366
vn -0.6219 -0.7831 0.0042
vn 0.0300 -0.9992 0.0282
vn 0.0291 -0.9996 -0.0042
vn 0.6608 -0.7500 0.0300
vn 0.6636 -0.7481 0.0004
vn 0.9894 -0.1447 0.0153
vn 0.9880 -0.1491 0.0411
vn 0.9398 -0.1320 0.3151
vn 0.8125 0.5031 0.2945
vn 0.3051 0.9060 0.2933
vn -0.3428 0.8860 0.3123
vn -0.8232 0.4531 0.3422
vn 0.6288 -0.6969 0.3449
vn -0.9113 -0.1843 0.3682
vn -0.5731 -0.7267 0.3788
vn 0.0317 -0.9286 0.3697
vn -0.0001 -0.0193 0.9998
vn 0.0000 -0.0190 0.9998
vn 0.0001 -0.0188 0.9998
vn -0.0002 -0.0191 0.9998
vn -0.0000 -0.0191 0.9998
vn 0.0003 -0.0191 0.9998
vn 0.0001 -0.0191 0.9998
vn -0.0001 -0.0192 0.9998
vn 0.0001 -0.0193 0.9998
vn 0.0000 -0.0192 0.9998
vn -0.0003 -0.0187 0.9998
vn -0.0002 -0.0187 0.9998
vn -0.0001 -0.0191 0.9998
vn 0.0003 -0.0190 0.9998
vn 0.0001 -0.0181 0.9998
vn -0.8488 -0.5241 0.0697
vn -0.3142 -0.9473 0.0623
vn 0.3669 -0.9281 0.0624
vn -0.9863 0.1436 0.0811
vn -0.6625 0.7435 0.0912
vn -0.0281 0.9951 0.0953
vn 0.6193 0.7798 0.0914
vn 0.9767 0.1986 0.0814
vn 0.8768 -0.4758 0.0700
vn 0.0001 -0.0190 0.9998
vn -0.0003 -0.0190 0.9998
vn -0.9017 0.4258 0.0746
vn -0.3632 0.9276 0.0879
vn -0.9011 0.4271 0.0746
vn -0.3419 0.9357 0.0875
vn 0.3101 0.9466 0.0882
vn 0.2885 0.9534 0.0877
vn 0.8755 0.4773 0.0752
vn 0.8762 0.4760 0.0751
vn 0.9878 -0.1463 0.0525
vn 0.9877 -0.1470 0.0526
vn 0.6633 -0.7473 0.0404
vn 0.6631 -0.7475 0.0404
vn 0.0282 -0.9990 0.0354
vn 0.0283 -0.9990 0.0354
vn -0.6201 -0.7835 0.0399
vn -0.6198 -0.7837 0.0399
vn -0.9779 -0.2023 0.0519
vn -0.9781 -0.2017 0.0519
vn 0.8496 0.5219 -0.0757
vn 0.3147 0.9488 0.0267
vn 0.8505 0.5256 0.0209
vn 0.3149 0.9468 -0.0664
vn -0.3675 0.9297 0.0265
vn -0.3681 0.9274 -0.0671
vn -0.8789 0.4767 0.0203
vn -0.8776 0.4732 -0.0775
vn -0.9846 -0.1743 0.0109
vn -0.9795 -0.1775 -0.0957
vn -0.9505 -0.3106 0.0070
vn -0.8741 -0.4456 -0.1935
vn 0.9882 -0.1207 -0.0940
vn 0.9931 -0.1168 0.0116
vn 0.8997 -0.3932 -0.1898
vn 0.9657 -0.2595 0.0075
vn 0.1492 0.4701 -0.8699
vn -0.1737 0.4607 -0.8704
vn -0.4531 0.2667 -0.8506
vn -0.5890 -0.0925 -0.8028
vn -0.4385 -0.6141 -0.6562
vn 0.0174 -0.6951 -0.7187
vn 0.0164 -0.5956 -0.8031
vn 0.4739 -0.5866 -0.6567
vn 0.5962 -0.0586 -0.8007
vn 0.4398 0.2923 -0.8492
vn 0.9546 0.2979 0.0063
vn 0.9268 0.2921 -0.2361
vn 0.9266 -0.3759 -0.0054
vn 0.9243 -0.3802 -0.0324
vn 0.0739 -0.9972 -0.0133
vn 0.0735 -0.9949 -0.0696
vn -0.0664 -0.9956 -0.0668
vn -0.0664 -0.9977 -0.0135
vn -0.9220 0.3119 -0.2294
vn -0.9470 0.3212 0.0065
vn -0.9094 -0.4147 -0.0319
vn -0.9103 -0.4140 -0.0060
vn 0.0000 0.9817 -0.1907
vn 0.0000 0.2522 -0.9677
vn 0.0000 0.2525 -0.9676
vn 0.0000 0.5439 -0.8391
vn 0.9997 0.0260 -0.0005
vn 0.9997 0.0264 -0.0005
vn 0.9997 0.0262 -0.0005
vn -0.9936 0.1133 -0.0006
vn -0.9935 0.1134 -0.0006
vn 0.7062 0.4254 -0.5659
vn 0.7081 0.4243 -0.5644
vn -0.7081 0.4243 -0.5645
vn -0.7062 0.4255 -0.5659
vn -1.0000 -0.0010 0.0014
vn -1.0000 0.0009 -0.0012
vn -0.7062 -0.4255 0.5660
vn 1.0000 0.0010 -0.0012
vn 1.0000 -0.0011 0.0014
vn -0.0033 0.0924 0.9957
vn -0.0033 0.0925 0.9957
vn 0.0000 0.0870 0.9962
vn -0.0000 0.0000 -1.0000
vn -0.0014 0.0001 -1.0000
vn -0.0013 0.0001 -1.0000
vn -0.0015 0.0002 -1.0000
vn -0.0011 0.0002 -1.0000
vn 0.7823 0.6227 0.0179
vn 0.9971 0.0744 0.0159
vn 0.0013 -0.6546 0.7560
vn 0.0013 -0.6546 0.7559
vn 0.0000 0.7534 0.6575
vn -0.0000 0.7535 0.6575
vn -0.0001 0.7535 0.6574
vn 0.0001 0.7534 0.6576
vn -0.0048 0.6469 -0.7625
vn 0.0001 -0.7519 -0.6593
vn 0.7051 -0.4195 0.5717
vn 0.7094 -0.4170 0.5682
vn -0.0002 -0.5916 0.8062
vn -0.7052 -0.4195 0.5716
vn -0.7095 -0.4169 0.5681
vn -0.7096 0.4169 -0.5681
vn -0.7052 0.4195 -0.5716
vn 0.0002 0.5917 -0.8062
vn -0.0001 0.5917 -0.8062
vn 0.7095 0.4170 -0.5681
vn 0.7051 0.4196 -0.5717
vn -0.0015 -0.0202 -0.9998
vn -0.0020 0.5548 -0.8320
vn -0.0015 -0.0214 -0.9998
vn -0.0024 0.5564 -0.8309
vn -0.1643 -0.7172 -0.6772
vn 0.1521 -0.7151 -0.6823
vn 0.5087 -0.6801 -0.5280
vn -0.4756 -0.7107 -0.5184
vn -0.0022 0.6115 -0.7912
vn 0.9946 0.0213 -0.1015
vn 0.9970 0.0676 -0.0383
vn 0.9969 0.0714 -0.0326
vn -0.9997 0.0010 -0.0264
vn -0.9998 0.0043 -0.0205
vn -0.9996 0.0004 -0.0273
vn 0.8387 0.0523 0.5421
vn 0.8573 0.0534 0.5120
vn 0.8387 0.0522 -0.5421
vn 0.8573 0.0534 -0.5120
vn 0.7340 0.6010 -0.3164
vn 0.0000 0.8819 0.4715
vn 0.7340 0.6010 0.3164
vn 0.0000 0.8819 -0.4715
vn 0.5876 -0.7094 0.3892
vn 0.5876 -0.7094 -0.3892
vn -0.0000 -0.8707 -0.4919
vn 0.0000 -0.8707 0.4919
vn 0.0000 1.0000 -0.0053
vn 0.9999 0.0004 -0.0104
vn -0.9999 0.0004 -0.0105
vn -0.0000 -0.0576 0.9983
vn 0.0000 -0.9998 0.0194
vn 0.0001 -0.9233 0.3841
vn 0.0000 -0.9233 0.3841
vn 0.0000 -0.7756 -0.6312
vn 0.0000 -0.5131 -0.8584
vn -0.0000 -0.0939 0.9956
vn 0.0000 -0.0937 0.9956
vn 0.9202 0.3915 0.0009
vn 0.9201 0.3916 0.0010
vn -0.9201 0.3917 0.0010
vn -0.9201 0.3916 0.0010
vn 0.0000 0.0948 -0.9955
vn -0.0000 0.0944 -0.9955
vn -0.0000 0.9997 0.0245
vn 0.0000 0.9997 0.0249
vn 0.0000 0.9997 0.0248
vn 0.0652 -0.7523 -0.6556
vn 0.0618 0.1027 -0.9928
vn 0.0651 -0.7489 -0.6595
vn 0.0616 0.1029 -0.9928
vn 0.0654 -0.8710 0.4869
vn 0.0654 -0.8685 0.4914
vn 0.0620 -0.1028 0.9928
vn 0.0620 -0.1026 0.9928
vn 0.0653 0.8685 -0.4914
vn 0.0654 0.8710 -0.4869
vn 0.0654 0.7495 0.6588
vn 0.0654 0.7529 0.6549
vn 0.9996 0.0005 -0.0267
vn 0.9996 0.0000 -0.0266
vn 0.9996 0.0003 -0.0267
vn 0.0000 -0.0469 0.9989
vn 0.0000 -0.0471 0.9989
vn 0.0000 -0.0193 0.9998
vn 0.0000 -0.0194 0.9998
vn 0.0000 -0.0151 0.9999
vn -0.9996 0.0003 -0.0267
vn -0.9996 0.0006 -0.0267
vn -0.9996 0.0007 -0.0267
vn -0.9996 0.0004 -0.0267
vn 0.0000 1.0000 0.0055
vn 0.0000 -1.0000 -0.0044
vn 0.9998 0.0004 -0.0200
vn -0.9998 0.0004 -0.0199
vn 0.9981 -0.0009 0.0611
vn -0.9981 -0.0009 0.0612
vn 0.0000 0.0151 -0.9999
vn 0.0000 0.0152 -0.9999
vn 0.0000 -0.0060 -1.0000
vn 0.0000 1.0000 0.0056
vn 0.0000 -1.0000 -0.0055
vn 0.9760 0.2166 -0.0217
vn 0.8434 -0.5358 -0.0407
vn 0.9758 0.2176 -0.0217
vn 0.8427 -0.5369 -0.0406
vn 0.5369 0.8436 -0.0062
vn 0.5365 0.8439 -0.0063
vn -0.2168 0.9762 -0.0034
vn -0.2163 0.9763 -0.0034
vn -0.8434 0.5371 -0.0149
vn -0.8427 0.5382 -0.0149
vn -0.9757 -0.2163 -0.0339
vn -0.9759 -0.2154 -0.0339
vn -0.5367 -0.8424 -0.0493
vn -0.5367 -0.8423 -0.0493
vn 0.2162 -0.9750 -0.0521
vn 0.2170 -0.9748 -0.0521
vn -0.0001 0.0232 -0.9997
vn -0.0001 0.0230 -0.9997
vn -0.0001 0.0231 -0.9997
vn -0.0000 0.0229 -0.9997
vn -0.0001 0.0228 -0.9997
vn -0.0000 0.0234 -0.9997
vn 0.0001 -0.0231 0.9997
vn -0.0001 -0.0231 0.9997
vn -0.0001 -0.0230 0.9997
vn 0.0002 -0.0232 0.9997
vn 0.0000 0.2074 0.9783
vn 0.0000 0.1643 0.9864
vn 0.0000 0.9776 0.2103
vn 0.0001 0.9776 0.2103
vn 0.0000 0.9706 -0.2405
vn 0.0000 0.9707 -0.2405
vn 0.0000 0.0879 -0.9961
vn 0.0000 0.0281 -0.9996
vn 0.0000 0.9999 -0.0127
vn 0.0000 0.0836 0.9965
vn -0.9978 0.0657 -0.0008
vn 0.0000 0.0586 -0.9983
vn 0.9978 0.0657 -0.0008
vn 0.9979 0.0654 -0.0007
vn 0.4920 -0.3285 -0.8062
vn -0.0419 -0.7999 -0.5987
vn -0.4992 -0.2916 -0.8159
vn -0.7873 0.0514 -0.6145
vn 0.8174 0.0165 -0.5758
vn 0.0129 0.6263 -0.7795
vn -0.0184 0.8504 -0.5258
vn 0.0033 0.0925 0.9957
vn 0.0033 0.0924 0.9957
vn -0.0001 0.0870 0.9962
vn -0.7823 0.6227 0.0179
vn -0.9971 0.0744 0.0159
vn -0.8387 0.0522 0.5421
vn -0.8573 0.0534 0.5120
vn -0.8386 0.0523 -0.5422
vn -0.8573 0.0534 -0.5120
vn -0.7340 0.6010 -0.3164
vn -0.7340 0.6010 0.3164
vn -0.5876 -0.7094 0.3892
vn -0.5876 -0.7094 -0.3892
s 1
f 1/1/1 2/2/2 3/3/3
f 4/4/4 2/2/2 1/1/1
f 5/5/5 6/6/5 7/7/5
f 8/8/5 6/6/5 5/5/5
f 4/9/6 7/10/6 6/11/6
f 1/12/6 7/10/6 4/9/6
f 1/13/7 5/14/7 7/15/7
f 3/16/8 5/14/8 1/13/8
f 4/17/9 8/18/10 2/19/11
f 6/20/9 8/18/10 4/17/9
f 9/21/12 10/22/13 11/23/14
f 12/24/12 10/22/13 9/21/12
f 13/25/15 12/24/12 9/21/12
f 14/26/16 12/24/12 13/25/15
f 15/27/17 14/26/16 13/25/15
f 16/28/18 14/26/16 15/27/17
f 17/29/19 16/28/18 15/27/17
f 18/30/20 16/28/18 17/29/19
f 10/22/13 19/31/21 11/23/14
f 11/23/14 19/31/21 20/32/22
f 19/31/21 21/33/23 20/32/22
f 20/32/22 21/33/23 22/34/24
f 21/33/23 23/35/25 22/34/24
f 22/34/24 23/35/25 24/36/25
f 23/35/25 18/37/20 24/36/25
f 24/36/25 18/37/20 17/38/19
f 25/39/26 26/40/26 27/41/27
f 28/42/26 26/40/26 25/39/26
f 29/43/28 27/44/28 30/45/28
f 25/46/28 27/44/28 29/43/28
f 31/47/29 30/48/30 32/49/30
f 29/50/29 30/48/30 31/47/29
f 28/51/31 32/52/31 26/53/31
f 31/54/31 32/52/31 28/51/31
f 29/55/32 28/56/32 25/57/32
f 31/58/32 28/56/32 29/55/32
f 27/59/33 32/49/33 30/60/33
f 26/61/33 32/49/33 27/59/33
f 33/62/34 34/63/35 35/64/36
f 36/65/37 34/63/35 33/62/34
f 34/63/35 37/66/38 35/64/36
f 35/64/36 37/66/38 38/67/39
f 37/66/38 39/68/40 38/67/39
f 38/67/39 39/68/40 40/69/41
f 39/68/40 41/70/42 40/69/41
f 40/69/41 41/70/42 42/71/43
f 41/70/42 43/72/44 42/71/43
f 42/71/43 43/72/44 44/73/45
f 43/72/44 45/74/46 44/73/45
f 44/73/45 45/74/46 46/75/47
f 45/74/46 47/76/48 46/75/47
f 46/75/47 47/76/48 48/77/49
f 48/78/49 36/65/37 33/62/34
f 47/79/48 36/65/37 48/78/49
f 49/80/50 50/81/50 51/82/50
f 52/83/51 50/81/50 49/80/50
f 53/84/52 51/85/52 54/86/52
f 49/87/52 51/85/52 53/84/52
f 55/88/53 54/89/54 56/90/55
f 53/91/54 54/89/54 55/88/53
f 52/92/56 56/93/56 50/94/56
f 55/95/56 56/93/56 52/92/56
f 53/91/32 52/96/32 49/97/32
f 55/88/32 52/96/32 53/91/32
f 51/98/33 56/99/33 54/100/33
f 50/101/33 56/99/33 51/98/33
f 57/102/57 58/103/58 59/104/59
f 60/105/57 58/103/58 57/102/57
f 61/106/60 60/105/57 57/102/57
f 62/107/61 60/105/57 61/106/60
f 62/107/61 61/106/60 63/108/62
f 63/108/62 61/106/60 64/109/63
f 59/104/59 58/103/58 65/110/64
f 65/110/64 58/103/58 66/111/64
f 58/112/65 60/113/66 63/114/62
f 60/113/66 62/115/61 63/114/62
f 58/112/65 63/114/62 66/116/67
f 57/117/68 59/118/69 64/119/63
f 61/120/60 57/117/68 64/119/63
f 64/119/63 59/118/69 65/121/70
f 67/122/71 68/123/72 69/124/73
f 70/125/74 68/123/72 67/122/71
f 71/126/75 70/125/74 67/122/71
f 72/127/76 70/125/74 71/126/75
f 73/128/77 72/127/76 71/126/75
f 74/129/78 72/127/76 73/128/77
f 68/123/72 75/130/79 69/124/73
f 69/124/73 75/130/79 76/131/80
f 75/130/79 77/132/81 76/131/80
f 76/131/80 77/132/81 78/133/82
f 77/132/81 74/134/78 78/133/82
f 78/133/82 74/134/78 73/135/77
f 72/136/32 74/137/32 70/138/32
f 74/137/32 77/139/32 70/138/32
f 77/139/32 75/140/32 70/138/32
f 75/140/32 68/141/32 70/138/32
f 79/142/83 80/143/84 81/144/85
f 82/145/86 80/143/84 79/142/83
f 83/146/87 80/143/84 82/145/86
f 82/145/86 79/142/83 83/146/87
f 84/147/88 80/143/84 83/146/87
f 83/146/87 79/142/83 85/148/89
f 84/147/88 86/149/90 80/143/84
f 80/143/84 86/149/90 87/150/91
f 80/143/84 87/150/91 81/144/85
f 81/144/85 87/150/91 88/151/92
f 88/151/92 79/142/83 81/144/85
f 89/152/93 90/153/94 91/154/93
f 92/155/95 90/153/95 89/152/96
f 93/156/97 91/154/93 94/157/97
f 89/152/93 91/154/93 93/156/97
f 94/157/97 95/158/98 93/156/97
f 96/159/99 95/158/99 94/157/100
f 93/160/101 92/161/101 89/162/101
f 95/163/102 92/161/102 93/160/102
f 91/164/103 96/165/103 94/166/103
f 90/167/104 96/165/104 91/164/104
f 97/168/93 98/169/95 99/170/93
f 100/171/95 98/169/95 97/168/96
f 101/172/97 99/170/93 102/173/97
f 97/168/93 99/170/93 101/172/97
f 102/173/97 103/174/105 101/172/97
f 104/175/98 103/174/98 102/173/97
f 101/176/106 100/177/106 97/178/106
f 103/179/106 100/177/106 101/176/106
f 99/180/104 104/181/104 102/182/104
f 98/183/107 104/181/107 99/180/107
f 105/184/108 106/185/109 107/186/110
f 108/187/111 106/185/109 105/184/108
f 109/188/112 107/189/113 110/190/112
f 105/191/113 107/189/113 109/188/112
f 111/192/114 110/193/114 112/194/114
f 109/195/115 110/193/115 111/192/115
f 109/196/32 108/197/32 105/198/32
f 111/199/32 108/197/32 109/196/32
f 113/200/108 114/201/116 115/202/111
f 116/203/117 114/201/116 113/200/108
f 117/204/118 116/205/118 113/206/118
f 118/207/119 116/205/119 117/204/119
f 119/208/115 118/209/115 117/210/115
f 120/211/114 118/209/114 119/208/114
f 117/212/33 115/213/33 119/214/33
f 113/215/33 115/213/33 117/212/33
f 121/216/120 122/217/121 123/218/122
f 124/219/123 122/217/121 121/216/120
f 121/216/120 123/218/122 125/220/124
f 125/220/124 123/218/122 126/221/125
f 125/220/124 126/221/125 127/222/126
f 127/222/126 126/221/125 128/223/127
f 127/222/126 128/223/127 129/224/128
f 129/224/128 128/223/127 130/225/129
f 129/224/128 130/225/129 131/226/130
f 131/226/130 130/225/129 132/227/131
f 131/226/130 132/227/131 133/228/132
f 133/228/132 132/227/131 134/229/133
f 133/228/132 134/229/133 135/230/134
f 135/230/134 134/229/133 136/231/135
f 124/219/123 137/232/136 122/217/121
f 138/233/137 137/232/136 124/219/123
f 138/233/137 136/234/135 137/232/136
f 135/235/134 136/234/135 138/233/137
f 139/236/138 135/235/134 138/233/137
f 139/236/138 138/233/137 140/237/139
f 140/237/139 138/233/137 124/219/123
f 140/237/139 124/219/123 141/238/140
f 141/238/140 124/219/123 121/216/120
f 141/238/140 121/216/120 142/239/141
f 142/239/141 121/216/120 125/220/124
f 142/239/141 125/220/124 143/240/142
f 143/240/142 125/220/124 127/222/126
f 144/241/143 135/235/134 139/236/138
f 143/240/142 127/222/126 145/242/144
f 145/242/144 127/222/126 129/224/128
f 145/242/144 129/224/128 146/243/145
f 146/243/145 129/224/128 131/226/130
f 146/243/145 131/226/130 147/244/146
f 147/244/146 131/226/130 133/228/132
f 147/244/146 133/228/132 144/245/143
f 144/245/143 133/228/132 135/230/134
f 148/246/147 140/247/148 141/248/147
f 149/249/149 140/247/148 148/246/147
f 148/246/147 141/248/147 150/250/150
f 150/250/150 141/248/147 142/251/151
f 150/250/150 142/251/151 151/252/152
f 151/252/152 142/251/151 143/253/152
f 151/252/152 143/253/152 152/254/153
f 152/254/153 143/253/152 145/255/154
f 152/254/153 145/255/154 153/256/155
f 153/256/155 145/255/154 146/257/156
f 153/256/155 146/257/156 154/258/157
f 154/258/157 146/257/156 147/259/158
f 154/258/157 147/259/158 155/260/159
f 155/260/159 147/259/158 144/261/151
f 155/260/159 144/261/151 156/262/160
f 156/262/160 144/261/151 139/263/160
f 156/262/160 139/263/160 149/249/149
f 149/249/149 139/263/160 140/247/148
f 157/264/161 149/265/162 148/266/163
f 157/264/161 148/266/163 150/267/164
f 157/264/161 156/268/165 149/265/162
f 157/264/161 155/269/166 156/268/165
f 157/264/161 154/270/167 155/269/166
f 157/264/161 153/271/168 154/270/167
f 157/264/161 152/272/169 153/271/168
f 157/264/161 151/273/170 152/272/169
f 157/264/161 150/274/164 151/273/170
f 158/275/151 159/276/159 160/277/151
f 158/275/151 160/277/151 161/278/151
f 158/275/151 161/278/151 162/279/151
f 158/275/151 162/279/151 163/280/171
f 158/275/151 163/280/171 164/281/153
f 158/275/151 165/282/172 159/276/159
f 158/275/151 166/283/150 165/282/172
f 162/284/173 167/285/174 168/286/175
f 161/287/176 167/285/174 162/284/173
f 161/287/176 169/288/177 167/285/174
f 160/289/178 169/288/177 161/287/176
f 160/289/178 170/290/179 169/288/177
f 159/291/180 170/290/179 160/289/178
f 159/291/180 171/292/181 170/290/179
f 165/293/182 171/292/181 159/291/180
f 165/293/182 172/294/183 171/292/181
f 166/295/184 172/294/183 165/293/182
f 166/295/184 173/296/185 172/294/183
f 158/297/186 173/296/185 166/295/184
f 158/297/186 174/298/187 173/296/185
f 164/299/188 174/298/187 158/297/186
f 162/284/173 168/286/175 163/300/189
f 163/300/189 168/286/175 175/301/190
f 163/300/189 175/301/190 164/302/188
f 164/302/188 175/301/190 174/303/187
f 176/304/191 177/305/192 178/306/193
f 179/307/194 177/305/192 176/304/191
f 179/307/194 180/308/195 177/305/192
f 181/309/196 180/308/195 179/307/194
f 181/309/196 182/310/197 180/308/195
f 183/311/198 182/310/197 181/309/196
f 183/311/198 184/312/199 182/310/197
f 185/313/200 184/312/199 183/311/198
f 185/313/200 186/314/201 184/312/199
f 187/315/202 186/314/201 185/313/200
f 176/304/191 178/306/193 188/316/203
f 188/316/203 178/306/193 189/317/204
f 188/316/203 189/317/204 190/318/205
f 190/318/205 189/317/204 191/319/206
f 192/320/207 181/309/196 179/307/194
f 193/321/208 181/309/196 192/320/207
f 193/321/208 183/311/198 181/309/196
f 194/322/209 183/311/198 193/321/208
f 194/322/209 185/313/200 183/311/198
f 195/323/210 185/313/200 194/322/209
f 195/323/210 187/315/202 185/313/200
f 196/324/211 187/315/202 195/323/210
f 196/324/211 197/325/212 187/315/202
f 198/326/213 197/325/212 196/324/211
f 198/326/213 190/327/205 197/325/212
f 199/328/214 190/327/205 198/326/213
f 199/329/214 188/316/203 190/318/205
f 200/330/215 188/316/203 199/329/214
f 200/330/215 176/304/191 188/316/203
f 201/331/216 176/304/191 200/330/215
f 201/331/216 179/307/194 176/304/191
f 192/320/207 179/307/194 201/331/216
f 202/332/217 190/318/205 191/319/206
f 203/333/218 190/318/205 202/332/217
f 204/334/219 203/333/218 202/332/217
f 205/335/220 203/333/218 204/334/219
f 206/336/221 205/335/220 204/334/219
f 207/337/222 205/335/220 206/336/221
f 206/338/221 208/339/223 207/340/222
f 209/341/224 208/339/223 206/338/221
f 198/342/213 194/343/209 193/344/208
f 198/342/213 193/344/208 192/345/207
f 198/342/213 192/345/207 201/346/216
f 198/342/213 201/346/216 200/347/215
f 198/342/213 200/347/215 199/348/214
f 198/342/213 195/349/210 194/343/209
f 198/342/213 196/350/211 195/349/210
f 210/351/225 186/314/201 187/315/202
f 211/352/226 186/314/201 210/351/225
f 212/353/227 211/352/226 210/351/225
f 213/354/228 211/352/226 212/353/227
f 208/355/223 213/354/228 212/353/227
f 209/356/224 213/354/228 208/355/223
f 210/357/225 187/358/202 197/359/212
f 208/360/223 210/357/225 197/359/212
f 212/361/227 210/357/225 208/360/223
f 208/360/223 197/359/212 207/362/222
f 197/359/212 203/363/218 207/362/222
f 203/363/218 205/364/220 207/362/222
f 190/365/205 203/363/218 197/359/212
f 214/366/229 215/367/229 216/368/229
f 217/369/229 215/367/229 214/366/229
f 218/370/230 217/371/231 214/372/230
f 219/373/230 217/371/231 218/370/230
f 214/374/33 220/375/33 218/376/33
f 216/377/33 220/375/33 214/374/33
f 215/378/32 219/379/32 221/380/32
f 217/381/32 219/379/32 215/378/32
f 222/382/232 223/383/232 224/384/232
f 225/385/232 223/383/232 222/382/232
f 226/386/5 227/387/5 228/388/5
f 229/389/5 227/387/5 226/386/5
f 224/390/6 229/391/6 222/392/6
f 227/393/6 229/391/6 224/390/6
f 222/394/233 226/395/234 225/396/235
f 229/397/234 226/395/234 222/394/233
f 224/398/236 228/399/236 227/400/236
f 223/401/237 228/399/237 224/398/237
f 230/402/12 231/403/238 232/404/12
f 233/405/239 231/403/238 230/402/12
f 230/402/12 232/404/12 234/406/240
f 234/406/240 232/404/12 235/407/241
f 234/406/240 235/407/241 236/408/242
f 236/408/242 235/407/241 237/409/243
f 236/408/242 237/409/243 238/410/244
f 238/410/244 237/409/243 239/411/23
f 233/405/239 240/412/245 231/403/238
f 241/413/246 240/412/245 233/405/239
f 241/413/246 242/414/20 240/412/245
f 243/415/19 242/414/20 241/413/246
f 243/415/19 244/416/25 242/414/20
f 245/417/25 244/416/25 243/415/19
f 245/417/25 239/418/23 244/416/25
f 238/419/244 239/418/23 245/417/25
f 246/420/247 247/421/247 248/422/248
f 249/423/249 247/421/247 246/420/247
f 250/424/249 247/421/247 249/423/249
f 251/425/250 252/426/251 253/427/252
f 252/426/251 254/428/253 253/427/254
f 253/427/254 254/428/253 255/429/253
f 253/430/255 248/431/255 251/432/255
f 246/433/255 248/431/255 253/430/255
f 250/434/32 252/435/32 247/436/32
f 254/437/32 252/435/32 250/434/32
f 255/438/256 246/439/256 253/440/256
f 249/441/256 246/439/256 255/438/256
f 256/442/257 257/443/258 258/444/257
f 259/445/258 257/443/258 256/442/257
f 260/446/259 259/447/260 256/448/261
f 261/449/262 259/447/260 260/446/259
f 262/450/263 261/451/263 260/452/263
f 263/453/263 261/451/263 262/450/263
f 258/454/264 263/455/264 262/456/264
f 257/457/264 263/455/264 258/454/264
f 260/458/33 258/459/33 262/460/33
f 256/461/33 258/459/33 260/458/33
f 259/462/32 263/453/32 257/463/32
f 261/451/32 263/453/32 259/462/32
f 264/464/43 265/465/265 266/466/42
f 267/467/266 265/465/265 264/464/43
f 267/467/266 268/468/267 265/465/265
f 269/469/267 268/468/267 267/467/266
f 269/469/267 270/470/268 268/468/267
f 271/471/269 270/470/268 269/469/267
f 271/471/269 272/472/37 270/470/268
f 273/473/34 272/472/37 271/471/269
f 273/473/34 274/474/270 272/472/37
f 275/475/271 274/474/270 273/473/34
f 275/475/271 276/476/272 274/474/270
f 277/477/273 276/476/272 275/475/271
f 277/477/273 278/478/274 276/476/272
f 279/479/275 278/478/274 277/477/273
f 264/464/43 266/466/42 279/480/275
f 279/480/275 266/466/42 278/481/274
f 280/482/50 281/483/50 282/484/51
f 283/485/50 281/483/50 280/482/50
f 284/486/52 283/487/52 280/488/52
f 285/489/52 283/487/52 284/486/52
f 286/490/53 285/491/54 284/492/54
f 287/493/55 285/491/54 286/490/53
f 282/494/56 287/495/56 286/496/56
f 281/497/56 287/495/56 282/494/56
f 284/498/33 282/499/33 286/500/33
f 280/501/33 282/499/33 284/498/33
f 283/502/32 287/503/32 281/504/32
f 285/505/32 287/503/32 283/502/32
f 288/506/276 289/507/277 290/508/278
f 291/509/279 289/507/277 288/506/276
f 288/506/276 290/508/278 292/510/280
f 292/510/280 290/508/278 293/511/281
f 294/512/282 292/510/280 293/511/281
f 295/513/283 292/510/280 294/512/282
f 254/514/284 289/507/277 291/509/279
f 255/515/284 289/507/277 254/514/284
f 294/516/282 290/517/285 289/518/286
f 294/516/282 293/519/281 290/517/285
f 255/520/287 294/516/282 289/518/286
f 295/521/283 291/522/288 288/523/289
f 295/521/283 288/523/289 292/524/280
f 254/525/290 291/522/288 295/521/283
f 296/526/291 297/527/5 298/528/292
f 299/529/5 297/527/5 296/526/291
f 296/526/291 298/528/292 300/530/293
f 300/530/293 298/528/292 301/531/294
f 301/531/294 302/532/250 300/530/293
f 303/533/250 302/532/250 301/531/294
f 304/534/295 305/535/296 306/536/297
f 307/537/298 305/535/296 304/534/295
f 306/536/297 308/538/299 304/534/295
f 304/534/295 308/538/299 309/539/300
f 309/539/300 307/540/298 304/534/295
f 310/541/301 307/540/298 309/539/300
f 306/536/297 311/542/302 308/538/299
f 305/543/296 311/542/302 306/536/297
f 308/544/299 310/545/301 309/546/300
f 311/547/302 310/545/301 308/544/299
f 312/548/303 313/549/303 314/550/303
f 315/551/303 313/549/303 312/548/303
f 315/552/304 316/553/304 313/554/304
f 317/555/304 316/553/304 315/552/304
f 312/556/305 318/557/305 319/558/305
f 314/559/305 318/557/305 312/556/305
f 320/560/306 321/561/306 322/562/306
f 323/563/306 321/561/306 320/560/306
f 324/564/307 322/565/308 325/566/307
f 320/567/309 322/565/308 324/564/307
f 324/564/307 325/566/307 326/568/310
f 326/568/310 325/566/307 327/569/310
f 326/568/310 327/569/310 328/570/311
f 328/570/311 327/569/310 329/571/311
f 321/572/32 325/573/32 322/574/32
f 321/572/32 327/575/32 325/573/32
f 321/572/32 329/576/32 327/575/32
f 323/577/33 320/578/33 324/579/33
f 323/577/33 324/579/33 326/580/33
f 323/577/33 326/580/33 328/581/33
f 330/582/312 331/583/313 332/584/313
f 333/585/313 331/583/313 330/582/312
f 334/586/314 332/587/315 335/588/315
f 330/589/315 332/587/315 334/586/314
f 333/590/316 336/591/317 331/592/317
f 337/593/317 336/591/317 333/590/316
f 335/594/318 337/595/318 334/596/318
f 336/597/319 337/595/318 335/594/318
f 334/598/320 333/599/320 330/600/321
f 337/601/322 333/599/320 334/598/320
f 338/602/323 339/603/324 340/604/325
f 341/605/326 339/603/324 338/602/323
f 338/602/323 340/604/325 342/606/327
f 342/606/327 340/604/325 343/607/328
f 342/606/327 343/607/328 344/608/329
f 344/608/329 343/607/328 345/609/330
f 341/605/326 346/610/331 339/603/324
f 347/611/332 346/610/331 341/605/326
f 347/611/332 348/612/333 346/610/331
f 349/613/334 348/612/333 347/611/332
f 349/613/334 345/614/330 348/612/333
f 344/615/329 345/614/330 349/613/334
f 340/616/33 345/617/33 343/618/33
f 340/616/33 348/619/33 345/617/33
f 340/616/33 346/620/33 348/619/33
f 340/616/33 339/621/33 346/620/33
f 350/622/335 351/623/336 352/624/337
f 353/625/335 351/623/336 350/622/335
f 354/626/338 353/627/339 350/628/338
f 355/629/339 353/627/339 354/626/338
f 356/630/340 354/626/338 350/628/338
f 357/631/340 354/626/338 356/630/340
f 358/632/341 357/631/340 356/630/340
f 359/633/341 357/631/340 358/632/341
f 360/634/342 356/630/340 350/628/338
f 361/635/342 356/630/340 360/634/342
f 362/636/342 354/626/338 357/631/340
f 363/637/342 354/626/338 362/636/342
f 364/638/343 355/639/344 354/640/345
f 365/641/346 355/639/344 364/638/343
f 359/642/347 366/643/347 367/644/347
f 358/645/347 366/643/347 359/642/347
f 353/646/348 365/647/348 351/648/348
f 355/649/348 365/647/348 353/646/348
f 358/650/349 368/651/349 366/652/349
f 356/653/349 368/651/349 358/650/349
f 359/654/350 369/655/350 357/656/350
f 367/657/350 369/655/350 359/654/350
f 361/658/351 370/659/351 371/660/351
f 360/661/351 370/659/351 361/658/351
f 362/662/352 372/663/352 363/664/352
f 373/665/352 372/663/352 362/662/352
f 371/666/353 352/667/354 368/668/353
f 370/669/353 352/667/354 371/666/353
f 364/670/354 368/668/353 352/667/354
f 369/671/353 368/668/353 364/670/353
f 372/672/353 369/671/353 364/670/353
f 373/673/353 369/671/353 372/672/353
f 364/670/354 352/667/354 365/674/355
f 365/674/355 352/667/354 351/675/355
f 361/676/356 368/677/356 356/678/356
f 371/679/356 368/677/356 361/676/356
f 370/680/357 350/681/357 352/682/357
f 360/683/357 350/681/357 370/680/357
f 363/684/357 364/685/357 354/686/357
f 372/687/357 364/685/357 363/684/357
f 373/688/356 357/689/356 369/690/356
f 362/691/356 357/689/356 373/688/356
f 374/692/358 375/693/359 376/694/360
f 377/695/361 375/693/359 374/692/358
f 374/692/358 376/694/360 378/696/362
f 378/696/362 376/694/360 379/697/363
f 378/696/362 379/697/363 380/698/364
f 380/698/364 379/697/363 381/699/365
f 380/698/364 381/699/365 382/700/366
f 382/700/366 381/699/365 383/701/367
f 382/700/366 383/701/367 384/702/368
f 384/702/368 383/701/367 385/703/369
f 384/702/368 385/703/369 386/704/370
f 386/704/370 385/703/369 387/705/371
f 386/704/370 387/705/371 388/706/372
f 388/706/372 387/705/371 389/707/373
f 377/695/361 389/708/373 375/693/359
f 388/709/372 389/708/373 377/695/361
f 385/710/374 376/711/375 375/712/376
f 385/710/374 379/713/377 376/711/375
f 385/710/374 381/714/378 379/713/377
f 385/710/374 383/715/376 381/714/378
f 385/710/374 375/712/376 389/716/379
f 385/710/374 389/716/379 387/717/374
f 388/718/380 377/719/380 374/720/380
f 388/718/380 374/720/380 378/721/380
f 388/718/380 378/721/380 380/722/381
f 388/718/380 380/722/381 382/723/381
f 388/718/380 382/723/381 384/724/382
f 388/718/380 384/724/382 386/725/383
f 390/726/384 391/727/385 392/728/385
f 393/729/384 391/727/385 390/726/384
f 394/730/386 393/729/384 390/726/384
f 395/731/387 393/729/384 394/730/386
f 396/732/388 395/731/387 394/730/386
f 397/733/389 395/731/387 396/732/388
f 398/734/390 397/733/389 396/732/388
f 399/735/390 397/733/389 398/734/390
f 400/736/391 399/735/390 398/734/390
f 401/737/391 399/735/390 400/736/391
f 398/738/33 392/739/33 400/740/33
f 390/741/33 392/739/33 398/738/33
f 396/742/33 390/741/33 398/738/33
f 394/743/33 390/741/33 396/742/33
f 393/744/32 401/745/32 391/746/32
f 399/747/32 401/745/32 393/744/32
f 395/748/32 399/747/32 393/744/32
f 397/749/32 399/747/32 395/748/32
f 402/750/392 403/751/392 404/752/392
f 405/753/392 403/751/392 402/750/392
f 404/754/393 406/755/393 407/756/393
f 403/757/393 406/755/393 404/754/393
f 403/758/394 408/759/394 406/760/394
f 405/761/394 408/759/394 403/758/394
f 409/762/395 405/763/395 402/764/395
f 408/765/395 405/763/395 409/762/395
f 402/766/396 407/767/397 409/768/396
f 404/769/396 407/767/397 402/766/396
f 410/770/398 411/771/399 412/772/400
f 413/773/401 412/772/400 411/771/399
f 411/771/399 410/770/398 414/774/402
f 415/775/403 410/770/398 412/772/400
f 414/774/402 410/770/398 415/775/403
f 413/773/401 415/775/403 412/772/400
f 416/776/404 415/775/403 413/773/401
f 414/774/402 415/775/403 416/776/404
f 417/777/405 418/778/405 419/779/405
f 419/779/406 418/778/406 420/780/407
f 420/780/249 418/778/406 421/781/249
f 422/782/250 423/783/250 424/784/250
f 422/782/250 65/785/250 423/783/250
f 66/786/250 65/785/250 422/782/250
f 422/787/408 417/788/408 419/789/408
f 424/790/408 417/788/408 422/787/408
f 421/791/33 423/792/33 65/793/33
f 418/794/33 423/792/33 421/791/33
f 66/795/409 419/796/409 420/797/409
f 422/798/409 419/796/409 66/795/409
f 425/799/410 426/800/5 427/801/5
f 428/802/411 426/800/5 425/799/410
f 429/803/412 428/802/411 425/799/410
f 430/804/413 428/802/411 429/803/412
f 429/803/412 431/805/250 430/804/413
f 430/804/413 431/805/250 432/806/250
f 433/807/414 434/808/296 435/809/298
f 436/810/415 434/808/296 433/807/414
f 433/807/414 437/811/416 436/810/415
f 438/812/417 437/811/416 433/807/414
f 433/807/414 435/813/298 438/812/417
f 438/812/417 435/813/298 439/814/301
f 437/811/416 440/815/302 436/810/415
f 436/810/415 440/815/302 434/816/296
f 437/817/416 439/818/301 440/819/302
f 438/820/417 439/818/301 437/817/416
