# Blender v2.92.0 OBJ File: 'Kannonwagon.blend'
# www.blender.org
mtllib Fuel Drum.mtl
o Body.002_Body_battlewagon_body0_model0.005
v -0.598781 -0.153778 0.276238
v 0.380215 -0.153784 0.276243
v -0.598780 0.062722 0.314411
v 0.380216 0.062717 0.314416
v -0.598778 0.253108 0.204489
v 0.380218 0.253103 0.204495
v -0.598776 0.328296 -0.002094
v 0.380220 0.328290 -0.002088
v -0.598775 0.253106 -0.208675
v 0.380221 0.253100 -0.208669
v -0.598776 0.062718 -0.318594
v 0.380220 0.062712 -0.318588
v -0.598777 -0.153782 -0.280417
v 0.380219 -0.153787 -0.280411
v -0.598779 -0.295091 -0.112008
v 0.380215 -0.295095 0.107838
v 0.380217 -0.295097 -0.112002
v -0.598781 -0.295090 0.107831
vt 0.451103 0.314995
vt 0.465939 0.314963
vt 0.439732 0.308593
vt 0.437155 0.298834
vt 0.477306 0.308593
vt 0.444575 0.290252
vt 0.479883 0.298834
vt 0.458519 0.286863
vt 0.472463 0.290252
vt 0.479883 0.298834
vt 0.458519 0.286863
vt 0.472463 0.290252
vt 0.444575 0.290252
vt 0.477306 0.308593
vt 0.437155 0.298834
vt 0.465939 0.314963
vt 0.439732 0.308593
vt 0.451103 0.314995
vt 0.370152 0.273315
vt 0.436235 0.280906
vt 0.436235 0.273315
vt 0.370153 0.280906
vt 0.436235 0.290664
vt 0.370153 0.290664
vt 0.436235 0.299246
vt 0.370153 0.299246
vt 0.436235 0.308558
vt 0.370152 0.308558
vt 0.370307 0.318007
vt 0.436388 0.308694
vt 0.436389 0.318006
vt 0.370307 0.308694
vt 0.436388 0.300112
vt 0.370307 0.300112
vt 0.436388 0.290353
vt 0.370307 0.290353
vt 0.436388 0.281614
vt 0.370306 0.281614
vt 0.436388 0.272852
vt 0.370306 0.272852
vn -0.6376 -0.7239 -0.2635
vn -0.6376 -0.7239 0.2635
vn -0.6376 -0.3852 -0.6671
vn -0.6376 0.1338 -0.7587
vn -0.6376 -0.3852 0.6671
vn -0.6376 0.5901 -0.4952
vn -0.6376 0.1338 0.7586
vn -0.6376 0.7704 -0.0000
vn -0.6376 0.5901 0.4952
vn 0.6376 0.1338 0.7587
vn 0.6376 0.7703 -0.0000
vn 0.6376 0.5901 0.4952
vn 0.6376 0.5901 -0.4952
vn 0.6376 -0.3852 0.6672
vn 0.6376 0.1338 -0.7586
vn 0.6376 -0.7239 0.2635
vn 0.6376 -0.3852 -0.6671
vn 0.6376 -0.7239 -0.2635
usemtl battlewagon_dif
s 1
f 15/1/1 18/2/2 13/3/3
f 18/2/2 11/4/4 13/3/3
f 11/4/4 18/2/2 1/5/5
f 1/5/5 9/6/6 11/4/4
f 9/6/6 1/5/5 3/7/7
f 3/7/7 7/8/8 9/6/6
f 7/8/8 3/7/7 5/9/9
f 4/10/10 8/11/11 6/12/12
f 8/11/11 4/10/10 10/13/13
f 2/14/14 10/13/13 4/10/10
f 10/13/13 2/14/14 12/15/15
f 16/16/16 12/15/15 2/14/14
f 12/15/15 16/16/16 14/17/17
f 14/17/17 16/16/16 17/18/18
f 16/19/16 1/20/5 18/21/2
f 1/20/5 16/19/16 2/22/14
f 2/22/14 3/23/7 1/20/5
f 3/23/7 2/22/14 4/24/10
f 4/24/10 5/25/9 3/23/7
f 5/25/9 4/24/10 6/26/12
f 6/26/12 7/27/8 5/25/9
f 7/27/8 6/26/12 8/28/11
f 8/29/11 9/30/6 7/31/8
f 9/30/6 8/29/11 10/32/13
f 10/32/13 11/33/4 9/30/6
f 11/33/4 10/32/13 12/34/15
f 12/34/15 13/35/3 11/33/4
f 13/35/3 12/34/15 14/36/17
f 14/36/17 15/37/1 13/35/3
f 15/37/1 14/36/17 17/38/18
f 17/38/18 18/39/2 15/37/1
f 18/39/2 17/38/18 16/40/16
