# Blender v2.92.0 OBJ File: 'Kannonwagon.blend'
# www.blender.org
mtllib Engine Block.mtl
o Body.001_Body_battlewagon_body0_model0.004
v 0.235598 -0.360583 0.630260
v 0.235598 -0.425468 0.565375
v 0.300483 -0.360584 0.565375
v 0.235600 0.052456 0.630256
v -0.728282 -0.360577 0.630254
v -0.728282 -0.425463 0.565369
v -0.793166 -0.360577 0.565368
v -0.728279 0.052462 0.630251
v -0.728278 0.117346 0.565365
v 0.235601 0.117341 0.565370
v 0.300485 0.052455 0.565371
v -0.793164 0.052462 0.565365
v -0.793163 -0.360581 0.001363
v -0.793161 0.052457 0.001360
v -0.728275 0.117343 0.001360
v -0.728278 -0.425467 0.001365
v -0.728275 0.052457 -0.063525
v 0.235604 0.117336 0.001366
v 0.235604 0.052450 -0.063520
v 0.300489 0.052450 0.001367
v 0.300486 -0.360589 0.001370
v 0.235602 -0.360589 -0.063516
v -0.728277 -0.360583 -0.063522
v 0.235601 -0.425472 0.001370
v 0.550429 -0.461218 0.532648
v -0.513703 0.576372 0.532633
v -0.513709 -0.461212 0.532642
v 0.550436 0.576366 0.532639
v 0.550437 0.576365 0.324756
v -0.513701 0.576371 0.324749
v -0.513701 0.528061 0.208122
v 0.550437 0.528055 0.208128
v -0.513701 0.449500 0.129563
v 0.550437 0.449495 0.129569
v -0.513701 0.332872 0.081255
v 0.550437 0.332866 0.081261
v 0.550434 -0.217725 0.081267
v -0.513705 -0.217719 0.081260
v -0.513706 -0.334347 0.129570
v 0.550433 -0.334354 0.129576
v -0.513707 -0.412906 0.208130
v 0.550432 -0.412912 0.208136
v -0.513707 -0.461214 0.324758
v 0.550431 -0.461220 0.324765
vt 0.667048 0.291748
vt 0.667048 0.295598
vt 0.662126 0.291880
vt 0.667048 0.274628
vt 0.726743 0.291748
vt 0.726743 0.295598
vt 0.731736 0.291802
vt 0.726743 0.274628
vt 0.726743 0.270817
vt 0.667048 0.270818
vt 0.662126 0.274836
vt 0.731665 0.274772
vt 0.661978 0.274778
vt 0.627047 0.291831
vt 0.661977 0.291831
vt 0.661977 0.295625
vt 0.627047 0.295625
vt 0.622386 0.291831
vt 0.627047 0.274778
vt 0.622386 0.274778
vt 0.627047 0.271011
vt 0.661944 0.271011
vt 0.726756 0.291898
vt 0.667061 0.295692
vt 0.667061 0.291898
vt 0.661972 0.291898
vt 0.726757 0.318716
vt 0.667062 0.318717
vt 0.726756 0.295692
vt 0.731738 0.291898
vt 0.627042 0.295692
vt 0.627042 0.291905
vt 0.661972 0.295692
vt 0.621933 0.274830
vt 0.621933 0.291913
vt 0.627042 0.274838
vt 0.661972 0.274845
vt 0.667061 0.274845
vt 0.726756 0.274845
vt 0.731738 0.274845
vt 0.726756 0.271077
vt 0.667061 0.271077
vt 0.661938 0.271077
vt 0.627042 0.271077
vt 0.638466 0.126113
vt 0.650732 0.118126
vt 0.650732 0.126113
vt 0.638466 0.118126
vt 0.737193 0.123347
vt 0.754376 0.116649
vt 0.754376 0.123347
vt 0.737193 0.116649
vt 0.905683 0.062625
vt 0.977512 0.071997
vt 0.905683 0.071997
vt 0.977512 0.062625
vt 0.977512 0.057369
vt 0.905683 0.057369
vt 0.977512 0.053828
vt 0.905683 0.053828
vt 0.977513 0.048570
vt 0.905683 0.048571
vt 0.905682 0.023752
vt 0.977512 0.023752
vt 0.977512 0.018494
vt 0.905683 0.018496
vt 0.977512 0.014954
vt 0.905683 0.014954
vt 0.977512 0.009696
vt 0.905683 0.009696
vt 0.905683 0.000326
vt 0.977512 0.000326
vt 0.902422 0.053828
vt 0.902421 0.018496
vt 0.897119 0.057369
vt 0.897119 0.014954
vt 0.889247 0.059546
vt 0.889246 0.012777
vt 0.875214 0.012777
vt 0.875216 0.059547
vt 0.902423 0.018429
vt 0.905683 0.048504
vt 0.905684 0.023686
vt 0.902422 0.053761
vt 0.897120 0.014888
vt 0.897119 0.057303
vt 0.889248 0.012710
vt 0.889247 0.059480
vt 0.875215 0.059480
vt 0.875216 0.012710
vn 0.3416 -0.3416 0.8756
vn 0.3416 -0.8756 0.3416
vn 0.8756 -0.3416 0.3416
vn 0.3416 0.3416 0.8756
vn -0.3416 -0.3416 0.8756
vn -0.3416 -0.8756 0.3416
vn -0.8756 -0.3416 0.3416
vn -0.3416 0.3416 0.8756
vn -0.3416 0.8756 0.3416
vn 0.3416 0.8756 0.3416
vn 0.8756 0.3416 0.3416
vn -0.8756 0.3416 0.3416
vn -0.8756 -0.3416 -0.3416
vn -0.8756 0.3416 -0.3416
vn -0.3416 0.8756 -0.3416
vn -0.3416 -0.8756 -0.3416
vn -0.3416 0.3416 -0.8756
vn 0.3416 0.8756 -0.3416
vn 0.3416 0.3416 -0.8756
vn 0.8756 0.3416 -0.3416
vn 0.8756 -0.3416 -0.3416
vn 0.3416 -0.3416 -0.8756
vn -0.3416 -0.3416 -0.8756
vn 0.3416 -0.8756 -0.3416
vn 0.5773 -0.5773 0.5774
vn -0.5774 0.5774 0.5773
vn -0.5774 -0.5773 0.5774
vn 0.5774 0.5774 0.5773
vn 0.6657 0.7319 -0.1456
vn -0.6657 0.7319 -0.1456
vn -0.6657 0.6204 -0.4146
vn 0.6657 0.6204 -0.4146
vn -0.6657 0.4146 -0.6205
vn 0.6657 0.4146 -0.6204
vn -0.6657 0.1456 -0.7319
vn 0.6657 0.1456 -0.7319
vn 0.6657 -0.1456 -0.7319
vn -0.6657 -0.1456 -0.7319
vn -0.6657 -0.4146 -0.6204
vn 0.6657 -0.4146 -0.6204
vn -0.6657 -0.6204 -0.4146
vn 0.6657 -0.6205 -0.4146
vn -0.6657 -0.7319 -0.1456
vn 0.6657 -0.7319 -0.1456
usemtl battlewagon_dif
s 1
f 1/1/1 2/2/2 3/3/3
f 4/4/4 5/5/5 1/1/1
f 5/5/5 2/2/2 1/1/1
f 2/2/2 5/5/5 6/6/6
f 6/6/6 5/5/5 7/7/7
f 5/5/5 4/4/4 8/8/8
f 4/4/4 9/9/9 8/8/8
f 9/9/9 4/4/4 10/10/10
f 4/4/4 11/11/11 10/10/10
f 12/12/12 8/8/8 9/9/9
f 13/13/13 12/14/12 14/15/14
f 12/14/12 15/16/15 14/15/14
f 15/16/15 12/14/12 9/17/9
f 8/18/8 7/19/7 5/20/5
f 7/19/7 8/18/8 12/14/12
f 12/14/12 13/13/13 7/19/7
f 13/13/13 6/21/6 7/19/7
f 6/21/6 13/13/13 16/22/16
f 17/23/17 18/24/18 19/25/19
f 20/26/20 19/25/19 18/24/18
f 18/24/18 9/27/9 10/28/10
f 9/27/9 18/24/18 15/29/15
f 18/24/18 17/23/17 15/29/15
f 17/23/17 14/30/14 15/29/15
f 20/26/20 10/31/10 11/32/11
f 10/31/10 20/26/20 18/33/18
f 1/34/1 11/32/11 4/35/4
f 11/32/11 1/34/1 3/36/3
f 3/36/3 20/26/20 11/32/11
f 20/26/20 3/36/3 21/37/21
f 21/37/21 19/25/19 20/26/20
f 19/25/19 21/37/21 22/38/22
f 22/38/22 17/23/17 19/25/19
f 17/23/17 22/38/22 23/39/23
f 23/39/23 14/30/14 17/23/17
f 14/30/14 23/39/23 13/40/13
f 16/41/16 13/40/13 23/39/23
f 22/38/22 16/41/16 23/39/23
f 16/41/16 22/38/22 24/42/24
f 21/37/21 24/42/24 22/38/22
f 24/43/24 3/36/3 2/44/2
f 3/36/3 24/43/24 21/37/21
f 25/45/25 26/46/26 27/47/27
f 26/46/26 25/45/25 28/48/28
f 24/49/24 6/50/6 16/51/16
f 6/50/6 24/49/24 2/52/2
f 29/53/29 26/54/26 28/55/28
f 26/54/26 29/53/29 30/56/30
f 29/53/29 31/57/31 30/56/30
f 31/57/31 29/53/29 32/58/32
f 32/58/32 33/59/33 31/57/31
f 33/59/33 32/58/32 34/60/34
f 34/60/34 35/61/35 33/59/33
f 35/61/35 34/60/34 36/62/36
f 37/63/37 35/61/35 36/62/36
f 35/61/35 37/63/37 38/64/38
f 37/63/37 39/65/39 38/64/38
f 39/65/39 37/63/37 40/66/40
f 40/66/40 41/67/41 39/65/39
f 41/67/41 40/66/40 42/68/42
f 42/68/42 43/69/43 41/67/41
f 43/69/43 42/68/42 44/70/44
f 25/71/25 43/69/43 44/70/44
f 43/69/43 25/71/25 27/72/27
f 34/73/34 37/63/37 36/62/36
f 37/63/37 34/73/34 40/74/40
f 32/75/32 40/74/40 34/73/34
f 40/74/40 32/75/32 42/76/42
f 29/77/29 42/76/42 32/75/32
f 42/76/42 29/77/29 44/78/44
f 29/77/29 25/79/25 44/78/44
f 25/79/25 29/77/29 28/80/28
f 39/81/39 35/82/35 38/83/38
f 35/82/35 39/81/39 33/84/33
f 41/85/41 33/84/33 39/81/39
f 33/84/33 41/85/41 31/86/31
f 43/87/43 31/86/31 41/85/41
f 31/86/31 43/87/43 30/88/30
f 43/87/43 26/89/26 30/88/30
f 26/89/26 43/87/43 27/90/27
