# Blender 4.1.1
# www.blender.org
mtllib 170x109mmCollider.mtl
o 170x109mm.Collider
v 2.103575 0.000357 -0.649958
v 2.144278 0.000293 -0.000326
v 0.000111 -0.000000 -0.000321
v 1.981926 0.000291 -1.278107
v 2.103575 0.000357 0.649307
v 1.981927 0.000292 1.277462
v -2.103353 0.000356 0.649309
v -2.144055 0.000293 -0.000318
v -1.981703 0.000291 1.277464
v 1.234712 0.124513 2.662400
v 1.540754 0.124667 2.231926
v -2.089361 0.127470 -0.000215
v 0.881434 0.124381 2.990419
v -2.068393 0.125025 -0.506375
v -1.965788 0.124946 -1.133100
v -2.068389 0.125023 0.505765
v -1.965780 0.124943 1.132489
v 2.068614 0.125027 0.505734
v 2.091455 0.124733 -0.000425
v 1.966009 0.124947 1.132457
v 2.068611 0.125023 -0.506418
v 0.292995 0.124259 -3.265078
v -0.102538 0.124743 -3.292000
v -1.234471 0.124510 2.662420
v 1.540747 0.124663 -2.232579
v -0.494253 0.124288 -3.204246
v -0.881210 0.124381 -2.991063
v -0.292767 0.124258 3.264436
v 0.102765 0.124743 3.291356
v -1.234486 0.124513 -2.663046
v -1.540527 0.124667 -2.232578
v 0.494477 0.124287 3.203603
v 1.783992 0.000202 1.856685
v 1.517322 0.000114 2.364592
v -2.103352 0.000357 -0.649954
v -1.981704 0.000291 -1.278105
v 1.192170 0.000052 2.781498
v 0.821120 0.000022 3.091242
v -1.783770 0.000201 -1.857329
v -1.517097 0.000114 -2.365240
v 0.418555 0.000015 3.281894
v 0.000112 0.000016 3.346212
v -1.191949 0.000051 -2.782140
v -0.820896 0.000022 -3.091887
v 1.192169 0.000051 -2.782143
v 1.517320 0.000114 -2.365239
v 0.821119 0.000022 -3.091886
v -0.418329 0.000014 3.281896
v -0.820894 0.000021 3.091244
v -0.418329 0.000015 -3.282539
v 0.000111 0.000016 -3.346856
v 1.783990 0.000202 -1.857334
v 0.418550 0.000015 -3.282540
v -1.783769 0.000201 1.856687
v -1.517097 0.000113 2.364597
v 1.787729 0.124820 1.715345
v -1.787501 0.124814 -1.716004
v -1.191946 0.000051 2.781500
v 2.052638 0.000310 0.968096
v 2.134243 0.000355 0.324480
v 2.134242 0.000356 -0.325127
v 2.052637 0.000310 -0.968743
v 1.966000 0.124944 -1.133138
v 1.787716 0.124817 -1.716021
v 1.892074 0.000229 -1.575356
v 1.658644 0.000136 -2.121565
v 0.881433 0.124377 -2.991062
v 1.011481 0.000011 -2.951305
v 1.234692 0.124510 -2.663064
v 1.361288 0.000057 -2.586221
v 0.622779 -0.000006 -3.202698
v 0.601073 0.124211 -3.154775
v 0.210242 -0.000008 -3.330771
v -0.210022 -0.000009 -3.330770
v -0.622559 -0.000007 -3.202697
v -1.011259 0.000010 -2.951305
v -1.361067 0.000056 -2.586219
v -1.658424 0.000135 -2.121560
v -1.891852 0.000228 -1.575356
v -2.052416 0.000309 -0.968738
v -2.134020 0.000355 -0.325122
v -2.134020 0.000354 0.324483
v -2.052415 0.000310 0.968098
v -1.891852 0.000228 1.574715
v -1.787497 0.124816 1.715372
v -1.658423 0.000135 2.120921
v -1.540519 0.124664 2.231945
v -1.361065 0.000057 2.585579
v -0.881197 0.124377 2.990429
v -1.011259 0.000010 2.950661
v -0.622556 -0.000007 3.202054
v -0.600921 0.124214 3.154101
v -0.210020 -0.000008 3.330127
v 0.210243 -0.000008 3.330127
v 0.622779 -0.000007 3.202054
v 1.011484 0.000010 2.950660
v 1.361289 0.000057 2.585576
v 1.658645 0.000135 2.120919
v 1.892076 0.000228 1.574708
vn 0.9397 -0.3382 -0.0506
vn -0.0000 -1.0000 -0.0000
vn 0.9297 -0.3441 -0.1311
vn -0.9400 -0.3375 0.0499
vn -0.9297 -0.3442 0.1313
vn -0.6342 0.7586 0.1494
vn -0.6410 0.7675 -0.0000
vn -0.6602 0.7480 0.0679
vn -0.5405 0.7782 0.3197
vn -0.5976 0.7668 0.2344
vn 0.6314 0.7611 -0.1485
vn 0.6491 0.7579 -0.0658
vn -0.3460 0.8079 0.4770
vn -0.4580 0.7921 0.4035
vn 0.5407 0.7783 -0.3194
vn 0.5964 0.7679 -0.2338
vn 0.3466 0.8077 -0.4770
vn 0.4577 0.7923 -0.4034
vn 0.9250 -0.3427 0.1639
vn 0.9298 -0.3440 0.1306
vn 0.8222 -0.3958 0.4092
vn 0.8404 -0.3914 0.3748
vn -0.9250 -0.3427 -0.1639
vn -0.9298 -0.3441 -0.1307
vn 0.5815 -0.4838 0.6541
vn 0.6208 -0.4773 0.6219
vn -0.8222 -0.3958 -0.4092
vn -0.8406 -0.3913 -0.3745
vn 0.1553 -0.5566 0.8161
vn 0.2193 -0.5569 0.8011
vn -0.5813 -0.4838 -0.6543
vn -0.6206 -0.4773 -0.6221
vn 0.7233 -0.4372 -0.5345
vn 0.6197 -0.4776 -0.6228
vn -0.3705 -0.5418 0.7544
vn -0.2654 -0.5522 0.7903
vn -0.1550 -0.5565 -0.8163
vn -0.2195 -0.5569 -0.8010
vn 0.8868 -0.3638 -0.2850
vn 0.8400 -0.3916 -0.3755
vn 0.3708 -0.5416 -0.7544
vn 0.2655 -0.5523 -0.7903
vn -0.8868 -0.3638 0.2850
vn -0.8400 -0.3916 0.3755
vn -0.7233 -0.4372 0.5345
vn -0.6198 -0.4776 0.6227
vn -0.9400 -0.3412 -0.0000
vn 0.5966 0.7678 0.2334
vn 0.8868 -0.3639 0.2849
vn 0.8222 -0.3958 -0.4092
vn -0.6601 0.7481 -0.0680
vn -0.9400 -0.3375 -0.0499
vn 0.5405 0.7785 0.3191
vn 0.7505 -0.4317 0.5004
vn -0.6342 0.7586 -0.1493
vn -0.8974 -0.3625 -0.2515
vn 0.4587 0.7921 0.4028
vn 0.7232 -0.4372 0.5346
vn -0.5979 0.7666 -0.2342
vn -0.8868 -0.3639 -0.2850
vn 0.3456 0.8080 0.4772
vn 0.4421 -0.5234 0.7284
vn -0.5410 0.7779 -0.3195
vn -0.7506 -0.4315 -0.5005
vn 0.2028 0.8214 0.5331
vn 0.3908 -0.5272 0.7546
vn -0.4586 0.7919 -0.4031
vn -0.7233 -0.4372 -0.5345
vn 0.0433 0.8310 0.5545
vn -0.0291 -0.5616 0.8269
vn -0.3457 0.8078 -0.4774
vn -0.4421 -0.5233 -0.7285
vn -0.2033 0.8210 -0.5335
vn -0.3907 -0.5272 -0.7546
vn -0.2416 0.8259 0.5095
vn -0.0427 0.8311 -0.5545
vn 0.0291 -0.5616 -0.8269
vn -0.5813 -0.4838 0.6543
vn 0.9251 -0.3427 -0.1638
vn 0.2415 0.8261 -0.5092
vn -0.8222 -0.3958 0.4090
vn 0.6446 0.7645 0.0001
vn 0.5814 -0.4837 -0.6542
vn 0.6491 0.7579 0.0657
vn 0.9397 -0.3382 0.0506
vn -0.9251 -0.3427 0.1638
vn 0.6313 0.7612 0.1482
vn 0.8974 -0.3625 0.2515
vn 0.7504 -0.4312 -0.5009
vn 0.4419 -0.5232 -0.7287
vn 0.0960 -0.5659 -0.8189
vn -0.8973 -0.3623 0.2521
vn -0.7503 -0.4313 0.5011
vn -0.4419 -0.5232 0.7287
vn -0.0959 -0.5659 0.8189
vn 0.9393 -0.3430 -0.0004
vn 0.8974 -0.3622 -0.2519
vn 0.1192 0.8265 -0.5502
vn -0.1195 0.8262 0.5506
vt 0.500004 0.500000
vt 0.500002 0.500000
vt 0.500004 0.500001
vt 0.500001 0.500000
vt 0.500001 0.499999
vt 0.499999 0.499999
vt 0.499999 0.500000
vt 0.499999 0.499999
vt 0.499999 0.499997
vt 0.499999 0.499998
vt 0.499996 0.500001
vt 0.499996 0.500001
vt 0.499998 0.499996
vt 0.499999 0.499997
vt 0.499996 0.500003
vt 0.499996 0.500002
vt 0.499997 0.500004
vt 0.499997 0.500003
vt 0.499996 0.499999
vt 0.500004 0.499999
vt 0.500004 0.499997
vt 0.500001 0.500001
vt 0.500003 0.499996
vt 0.500003 0.499996
vt 0.500001 0.500003
vt 0.500002 0.500004
vt 0.500002 0.500004
vt 0.500004 0.500003
vt 0.500002 0.499996
vt 0.500002 0.499996
vt 0.500004 0.500002
vt 0.500004 0.500002
vt 0.500003 0.500004
vt 0.500001 0.499998
vt 0.500001 0.499997
vt 0.500001 0.499997
vt 0.500001 0.500000
vt 0.499996 0.499998
vt 0.499996 0.499998
vt 0.499996 0.500003
vt 0.499999 0.500001
vt 0.499996 0.499997
vt 0.499999 0.500002
vt 0.500001 0.500002
vt 0.499997 0.499996
vt 0.499997 0.499997
vt 0.499999 0.500002
vt 0.499997 0.499996
vt 0.499999 0.500003
vt 0.499997 0.499996
vt 0.499997 0.499996
vt 0.499998 0.500004
vt 0.499999 0.500003
vt 0.499997 0.499996
vt 0.499998 0.500004
vt 0.500002 0.500004
vt 0.499998 0.500004
vt 0.499997 0.500004
vt 0.499998 0.499996
vt 0.499997 0.500004
vt 0.499996 0.500000
vt 0.499999 0.499999
vt 0.499996 0.499998
vt 0.500001 0.499999
vt 0.500002 0.499996
vt 0.499998 0.499996
vt 0.500004 0.500001
vt 0.499997 0.500004
s 1
usemtl None.035
f 61/1/1 3/2/2 1/3/3
f 82/4/4 3/2/2 7/5/5
f 17/6/6 12/7/7 16/8/8
f 87/9/9 12/7/7 85/10/10
f 63/11/11 12/7/7 21/12/12
f 89/13/13 12/7/7 24/14/14
f 25/15/15 12/7/7 64/16/16
f 67/17/17 12/7/7 69/18/18
f 59/19/19 3/2/2 5/20/20
f 98/21/21 3/2/2 33/21/22
f 80/22/23 3/2/2 35/22/24
f 96/23/25 3/2/2 37/24/26
f 78/25/27 3/2/2 39/25/28
f 94/23/29 3/2/2 41/23/30
f 76/26/31 3/2/2 43/27/32
f 70/28/33 3/2/2 45/28/34
f 91/29/35 3/2/2 48/30/36
f 74/26/37 3/2/2 50/26/38
f 65/31/39 3/2/2 52/32/40
f 71/33/41 3/2/2 53/33/42
f 84/34/43 3/2/2 54/34/44
f 88/35/45 3/2/2 58/36/46
f 82/4/4 12/7/7 8/37/47
f 56/38/48 33/21/22 99/39/49
f 66/40/50 64/16/16 52/32/40
f 14/41/51 35/22/24 81/41/52
f 11/42/53 34/21/54 98/21/21
f 15/43/55 36/44/56 80/22/23
f 10/45/57 37/24/26 97/46/58
f 57/47/59 39/25/28 79/47/60
f 13/48/61 38/23/62 96/23/25
f 31/49/63 40/25/64 78/25/27
f 32/50/65 41/23/30 95/51/66
f 30/52/67 43/27/32 77/53/68
f 29/54/69 42/30/70 94/23/29
f 27/55/71 44/56/72 76/26/31
f 26/55/73 50/26/38 75/57/74
f 89/13/13 91/29/35 92/13/75
f 23/58/76 51/33/77 74/26/37
f 24/14/14 90/59/78 89/13/13
f 63/11/11 65/31/39 64/16/16
f 87/9/9 88/35/45 24/14/14
f 21/12/12 62/11/79 63/11/11
f 67/17/17 71/33/41 72/60/80
f 85/10/10 86/14/81 87/9/9
f 19/61/82 61/1/1 21/12/12
f 69/18/18 68/17/83 67/17/17
f 17/6/6 84/34/43 85/10/10
f 18/19/84 5/20/20 60/19/85
f 25/15/15 70/28/33 69/18/18
f 16/8/8 83/62/86 17/6/6
f 20/63/87 6/39/88 59/19/19
f 64/16/16 12/7/7 63/11/11
f 66/40/50 3/2/2 46/28/89
f 68/17/83 3/2/2 47/33/90
f 69/18/18 12/7/7 25/15/15
f 72/60/80 12/7/7 67/17/17
f 73/17/91 3/2/2 51/33/77
f 77/53/68 3/2/2 40/25/64
f 79/47/60 3/2/2 36/44/56
f 81/41/52 3/2/2 8/37/47
f 83/62/86 3/2/2 9/64/92
f 85/10/10 12/7/7 17/6/6
f 86/14/81 3/2/2 55/35/93
f 24/14/14 12/7/7 87/9/9
f 90/59/78 3/2/2 49/65/94
f 92/13/75 12/7/7 89/13/13
f 93/66/95 3/2/2 42/30/70
f 95/51/66 3/2/2 38/23/62
f 97/46/58 3/2/2 34/21/54
f 99/39/49 3/2/2 6/39/88
f 60/19/85 3/2/2 2/1/96
f 21/12/12 12/7/7 19/61/82
f 62/11/79 3/2/2 4/67/97
f 75/57/74 3/2/2 44/56/72
f 18/19/84 59/19/19 5/20/20
f 19/61/82 60/19/85 2/1/96
f 46/28/89 25/15/15 66/40/50
f 72/60/80 53/33/42 22/68/98
f 22/68/98 51/33/77 23/58/76
f 26/55/73 74/26/37 50/26/38
f 27/55/71 75/57/74 44/56/72
f 30/52/67 76/26/31 43/27/32
f 31/49/63 77/53/68 40/25/64
f 57/47/59 78/25/27 39/25/28
f 15/43/55 79/47/60 36/44/56
f 14/41/51 80/22/23 35/22/24
f 12/7/7 81/41/52 8/37/47
f 7/5/5 16/8/8 82/4/4
f 92/13/75 48/30/36 28/66/99
f 28/66/99 42/30/70 29/54/69
f 32/50/65 94/23/29 41/23/30
f 13/48/61 95/51/66 38/23/62
f 10/45/57 96/23/25 37/24/26
f 11/42/53 97/46/58 34/21/54
f 56/38/48 98/21/21 33/21/22
f 20/63/87 99/39/49 6/39/88
f 61/1/1 2/1/96 3/2/2
f 82/4/4 8/37/47 3/2/2
f 10/45/57 11/42/53 12/7/7
f 18/19/84 19/61/82 12/7/7
f 22/68/98 23/58/76 12/7/7
f 26/55/73 27/55/71 12/7/7
f 28/66/99 29/54/69 12/7/7
f 30/52/67 31/49/63 12/7/7
f 32/50/65 13/48/61 12/7/7
f 59/19/19 6/39/88 3/2/2
f 98/21/21 34/21/54 3/2/2
f 80/22/23 36/44/56 3/2/2
f 96/23/25 38/23/62 3/2/2
f 78/25/27 40/25/64 3/2/2
f 94/23/29 42/30/70 3/2/2
f 76/26/31 44/56/72 3/2/2
f 70/28/33 46/28/89 3/2/2
f 91/29/35 49/65/94 3/2/2
f 74/26/37 51/33/77 3/2/2
f 65/31/39 4/67/97 3/2/2
f 71/33/41 47/33/90 3/2/2
f 84/34/43 9/64/92 3/2/2
f 56/38/48 20/63/87 12/7/7
f 57/47/59 15/43/55 12/7/7
f 88/35/45 55/35/93 3/2/2
f 82/4/4 16/8/8 12/7/7
f 66/40/50 25/15/15 64/16/16
f 28/66/99 48/30/36 93/66/95
f 89/13/13 49/65/94 91/29/35
f 24/14/14 58/36/46 90/59/78
f 63/11/11 4/67/97 65/31/39
f 22/68/98 53/33/42 73/17/91
f 87/9/9 55/35/93 88/35/45
f 21/12/12 1/3/3 62/11/79
f 67/17/17 47/33/90 71/33/41
f 85/10/10 54/34/44 86/14/81
f 19/61/82 2/1/96 61/1/1
f 69/18/18 45/28/34 68/17/83
f 17/6/6 9/64/92 84/34/43
f 25/15/15 46/28/89 70/28/33
f 16/8/8 7/5/5 83/62/86
f 66/40/50 52/32/40 3/2/2
f 68/17/83 45/28/34 3/2/2
f 72/60/80 22/68/98 12/7/7
f 73/17/91 53/33/42 3/2/2
f 77/53/68 43/27/32 3/2/2
f 27/55/71 30/52/67 12/7/7
f 31/49/63 57/47/59 12/7/7
f 79/47/60 39/25/28 3/2/2
f 15/43/55 14/41/51 12/7/7
f 81/41/52 35/22/24 3/2/2
f 83/62/86 7/5/5 3/2/2
f 86/14/81 54/34/44 3/2/2
f 90/59/78 58/36/46 3/2/2
f 92/13/75 28/66/99 12/7/7
f 93/66/95 48/30/36 3/2/2
f 29/54/69 32/50/65 12/7/7
f 95/51/66 41/23/30 3/2/2
f 13/48/61 10/45/57 12/7/7
f 97/46/58 37/24/26 3/2/2
f 11/42/53 56/38/48 12/7/7
f 99/39/49 33/21/22 3/2/2
f 20/63/87 18/19/84 12/7/7
f 60/19/85 5/20/20 3/2/2
f 62/11/79 1/3/3 3/2/2
f 75/57/74 50/26/38 3/2/2
f 23/58/76 26/55/73 12/7/7
f 18/19/84 20/63/87 59/19/19
f 19/61/82 18/19/84 60/19/85
f 21/12/12 61/1/1 1/3/3
f 63/11/11 62/11/79 4/67/97
f 64/16/16 65/31/39 52/32/40
f 67/17/17 68/17/83 47/33/90
f 69/18/18 70/28/33 45/28/34
f 72/60/80 71/33/41 53/33/42
f 22/68/98 73/17/91 51/33/77
f 26/55/73 23/58/76 74/26/37
f 27/55/71 26/55/73 75/57/74
f 30/52/67 27/55/71 76/26/31
f 31/49/63 30/52/67 77/53/68
f 57/47/59 31/49/63 78/25/27
f 15/43/55 57/47/59 79/47/60
f 14/41/51 15/43/55 80/22/23
f 12/7/7 14/41/51 81/41/52
f 17/6/6 83/62/86 9/64/92
f 85/10/10 84/34/43 54/34/44
f 87/9/9 86/14/81 55/35/93
f 24/14/14 88/35/45 58/36/46
f 89/13/13 90/59/78 49/65/94
f 92/13/75 91/29/35 48/30/36
f 28/66/99 93/66/95 42/30/70
f 32/50/65 29/54/69 94/23/29
f 13/48/61 32/50/65 95/51/66
f 10/45/57 13/48/61 96/23/25
f 11/42/53 10/45/57 97/46/58
f 56/38/48 11/42/53 98/21/21
f 20/63/87 56/38/48 99/39/49
