v 0.059388 0.13 2.896204
v 0.118233 0.142679 2.884247
v 0.0 0.142679 2.890435
v 0.177909 0.13 2.883802
v 0.058733 0.15 2.876215
v 0.175948 0.15 2.863899
v 0.23596 0.142679 2.865707
v 0.295668 0.13 2.859052
v 0.29241 0.15 2.839319
v 0.352676 0.142679 2.834896
v 0.412161 0.13 2.822058
v 0.40762 0.15 2.80258
v 0.467882 0.142679 2.791946
v 0.52689 0.13 2.77298
v 0.521084 0.15 2.753841
v 0.581085 0.142679 2.73704
v 0.639362 0.13 2.712027
v 0.632317 0.15 2.693309
v 0.691799 0.142679 2.670414
v 0.749096 0.13 2.639461
v 0.740842 0.15 2.621244
v 0.799551 0.142679 2.592353
v 0.855622 0.13 2.555593
v 0.846194 0.15 2.537954
v 0.903879 0.142679 2.50319
v 0.958485 0.13 2.460781
v 0.947923 0.15 2.443797
v 1.004337 0.142679 2.403309
v 1.057243 0.13 2.355431
v 1.045593 0.15 2.339174
v 1.100493 0.142679 2.293137
v 1.151474 0.13 2.239996
v 1.138786 0.15 2.224535
v 1.191938 0.142679 2.173144
v 1.240774 0.13 2.114968
v 1.227102 0.15 2.100371
v 1.278278 0.142679 2.043846
v 1.324761 0.13 1.980884
v 1.310163 0.15 1.967212
v 1.359145 0.142679 1.905796
v 1.403075 0.13 1.838317
v 1.387615 0.15 1.825629
v 1.434191 0.142679 1.759586
v 1.475381 0.13 1.687878
v 1.459124 0.15 1.676229
v 1.503096 0.142679 1.60584
v 1.541369 0.13 1.530212
v 1.524385 0.15 1.51965
v 1.565565 0.142679 1.445218
v 1.600757 0.13 1.365993
v 1.583118 0.15 1.356565
v 1.621329 0.142679 1.278407
v 1.65329 0.13 1.195924
v 1.635072 0.15 1.18767
v 1.670151 0.142679 1.106122
v 1.698743 0.13 1.020735
v 1.680025 0.15 1.01369
v 1.711821 0.142679 0.9291
v 1.736922 0.13 0.841174
v 1.717783 0.15 0.835368
v 1.74616 0.142679 0.7481
v 1.767663 0.13 0.658012
v 1.748186 0.15 0.65347
v 1.773023 0.142679 0.563896
v 1.790835 0.13 0.472031
v 1.771102 0.15 0.468773
v 1.792293 0.142679 0.377278
v 1.806339 0.13 0.28403
v 1.786435 0.15 0.282069
v 1.803888 0.142679 0.189044
v 1.814107 0.13 0.094812
v 1.794118 0.15 0.094158
v 1.807758 0.142679 0.0
v 1.814107 0.13 -0.094812
v 1.794118 0.15 -0.094158
v 1.803888 0.142679 -0.189044
v 1.806339 0.13 -0.28403
v 1.786435 0.15 -0.282069
v 1.792293 0.142679 -0.377278
v 1.790835 0.13 -0.472031
v 1.771102 0.15 -0.468773
v 1.773023 0.142679 -0.563896
v 1.767663 0.13 -0.658012
v 1.748186 0.15 -0.65347
v 1.74616 0.142679 -0.7481
v 1.736922 0.13 -0.841174
v 1.717783 0.15 -0.835368
v 1.711821 0.142679 -0.9291
v 1.698743 0.13 -1.020735
v 1.680025 0.15 -1.01369
v 1.670151 0.142679 -1.106122
v 1.65329 0.13 -1.195924
v 1.635072 0.15 -1.18767
v 1.621329 0.142679 -1.278407
v 1.600757 0.13 -1.365993
v 1.583118 0.15 -1.356565
v 1.565565 0.142679 -1.445218
v 1.541369 0.13 -1.530212
v 1.524385 0.15 -1.51965
v 1.503096 0.142679 -1.60584
v 1.475381 0.13 -1.687878
v 1.459124 0.15 -1.676229
v 1.434191 0.142679 -1.759586
v 1.403075 0.13 -1.838317
v 1.387615 0.15 -1.825629
v 1.359145 0.142679 -1.905796
v 1.324761 0.13 -1.980884
v 1.310163 0.15 -1.967212
v 1.278278 0.142679 -2.043846
v 1.240774 0.13 -2.114968
v 1.227102 0.15 -2.100371
v 1.191938 0.142679 -2.173144
v 1.151474 0.13 -2.239996
v 1.138786 0.15 -2.224535
v 1.100493 0.142679 -2.293137
v 1.057243 0.13 -2.355431
v 1.045593 0.15 -2.339174
v 1.004337 0.142679 -2.403309
v 0.958485 0.13 -2.460781
v 0.947923 0.15 -2.443797
v 0.903879 0.142679 -2.50319
v 0.855622 0.13 -2.555593
v 0.846194 0.15 -2.537954
v 0.799551 0.142679 -2.592353
v 0.749096 0.13 -2.639461
v 0.740842 0.15 -2.621244
v 0.691799 0.142679 -2.670414
v 0.639362 0.13 -2.712027
v 0.632317 0.15 -2.693309
v 0.581085 0.142679 -2.73704
v 0.52689 0.13 -2.77298
v 0.521084 0.15 -2.753841
v 0.467882 0.142679 -2.791946
v 0.412161 0.13 -2.822058
v 0.40762 0.15 -2.80258
v 0.352676 0.142679 -2.834896
v 0.295668 0.13 -2.859052
v 0.29241 0.15 -2.839319
v 0.23596 0.142679 -2.865707
v 0.177909 0.13 -2.883802
v 0.175948 0.15 -2.863899
v 0.118233 0.142679 -2.884247
v 0.059388 0.13 -2.896204
v 0.058733 0.15 -2.876215
v 0.0 0.142679 -2.890435
v -0.059388 0.13 -2.896204
v -0.058733 0.15 -2.876215
v -0.118233 0.142679 -2.884247
v -0.177909 0.13 -2.883802
v -0.175948 0.15 -2.863899
v -0.23596 0.142679 -2.865707
v -0.295668 0.13 -2.859052
v -0.29241 0.15 -2.839319
v -0.352676 0.142679 -2.834896
v -0.412161 0.13 -2.822058
v -0.40762 0.15 -2.80258
v -0.467882 0.142679 -2.791946
v -0.52689 0.13 -2.77298
v -0.521084 0.15 -2.753841
v -0.581085 0.142679 -2.73704
v -0.639362 0.13 -2.712027
v -0.632317 0.15 -2.693309
v -0.691799 0.142679 -2.670414
v -0.749096 0.13 -2.639461
v -0.740842 0.15 -2.621244
v -0.799551 0.142679 -2.592353
v -0.855622 0.13 -2.555593
v -0.846194 0.15 -2.537954
v -0.903879 0.142679 -2.50319
v -0.958485 0.13 -2.460781
v -0.947923 0.15 -2.443797
v -1.004337 0.142679 -2.403309
v -1.057243 0.13 -2.355431
v -1.045593 0.15 -2.339174
v -1.100493 0.142679 -2.293137
v -1.151474 0.13 -2.239996
v -1.138786 0.15 -2.224535
v -1.191938 0.142679 -2.173144
v -1.240774 0.13 -2.114968
v -1.227102 0.15 -2.100371
v -1.278278 0.142679 -2.043846
v -1.324761 0.13 -1.980884
v -1.310163 0.15 -1.967212
v -1.359145 0.142679 -1.905796
v -1.403075 0.13 -1.838317
v -1.387615 0.15 -1.825629
v -1.434191 0.142679 -1.759586
v -1.475381 0.13 -1.687878
v -1.459124 0.15 -1.676229
v -1.503096 0.142679 -1.60584
v -1.541369 0.13 -1.530212
v -1.524385 0.15 -1.51965
v -1.565565 0.142679 -1.445218
v -1.600757 0.13 -1.365993
v -1.583118 0.15 -1.356565
v -1.621329 0.142679 -1.278407
v -1.65329 0.13 -1.195924
v -1.635072 0.15 -1.18767
v -1.670151 0.142679 -1.106122
v -1.698743 0.13 -1.020735
v -1.680025 0.15 -1.01369
v -1.711821 0.142679 -0.9291
v -1.736922 0.13 -0.841174
v -1.717783 0.15 -0.835368
v -1.74616 0.142679 -0.7481
v -1.767663 0.13 -0.658012
v -1.748186 0.15 -0.65347
v -1.773023 0.142679 -0.563896
v -1.790835 0.13 -0.472031
v -1.771102 0.15 -0.468773
v -1.792293 0.142679 -0.377278
v -1.806339 0.13 -0.28403
v -1.786435 0.15 -0.282069
v -1.803888 0.142679 -0.189044
v -1.814107 0.13 -0.094812
v -1.794118 0.15 -0.094158
v -1.807758 0.142679 -0.0
v -1.814107 0.13 0.094812
v -1.794118 0.15 0.094158
v -1.803888 0.142679 0.189044
v -1.806339 0.13 0.28403
v -1.786435 0.15 0.282069
v -1.792293 0.142679 0.377278
v -1.790835 0.13 0.472031
v -1.771102 0.15 0.468773
v -1.773023 0.142679 0.563896
v -1.767663 0.13 0.658012
v -1.748186 0.15 0.65347
v -1.74616 0.142679 0.7481
v -1.736922 0.13 0.841174
v -1.717783 0.15 0.835368
v -1.711821 0.142679 0.9291
v -1.698743 0.13 1.020735
v -1.680025 0.15 1.01369
v -1.670151 0.142679 1.106122
v -1.65329 0.13 1.195924
v -1.635072 0.15 1.18767
v -1.621329 0.142679 1.278407
v -1.600757 0.13 1.365993
v -1.583118 0.15 1.356565
v -1.565565 0.142679 1.445218
v -1.541369 0.13 1.530212
v -1.524385 0.15 1.51965
v -1.503096 0.142679 1.60584
v -1.475381 0.13 1.687878
v -1.459124 0.15 1.676229
v -1.434191 0.142679 1.759586
v -1.403075 0.13 1.838317
v -1.387615 0.15 1.825629
v -1.359145 0.142679 1.905796
v -1.324761 0.13 1.980884
v -1.310163 0.15 1.967212
v -1.278278 0.142679 2.043846
v -1.240774 0.13 2.114968
v -1.227102 0.15 2.100371
v -1.191938 0.142679 2.173144
v -1.151474 0.13 2.239996
v -1.138786 0.15 2.224535
v -1.100493 0.142679 2.293137
v -1.057243 0.13 2.355431
v -1.045593 0.15 2.339174
v -1.004337 0.142679 2.403309
v -0.958485 0.13 2.460781
v -0.947923 0.15 2.443797
v -0.903879 0.142679 2.50319
v -0.855622 0.13 2.555593
v -0.846194 0.15 2.537954
v -0.799551 0.142679 2.592353
v -0.749096 0.13 2.639461
v -0.740842 0.15 2.621244
v -0.691799 0.142679 2.670414
v -0.639362 0.13 2.712027
v -0.632317 0.15 2.693309
v -0.581085 0.142679 2.73704
v -0.52689 0.13 2.77298
v -0.521084 0.15 2.753841
v -0.467882 0.142679 2.791946
v -0.412161 0.13 2.822058
v -0.40762 0.15 2.80258
v -0.352676 0.142679 2.834896
v -0.295668 0.13 2.859052
v -0.29241 0.15 2.839319
v -0.23596 0.142679 2.865707
v -0.177909 0.13 2.883802
v -0.175948 0.15 2.863899
v -0.118233 0.142679 2.884247
v -0.059388 0.13 2.896204
v -0.058733 0.15 2.876215

vt 0.510267 0.000268
vt 0.520358 0.003583
vt 0.5 0.002518
vt 0.530756 0.002408
vt 0.510102 0.005301
vt 0.530263 0.00742
vt 0.540628 0.006774
vt 0.551114 0.006678
vt 0.550293 0.011647
vt 0.560725 0.012077
vt 0.571253 0.013062
vt 0.570109 0.017966
vt 0.580561 0.019469
vt 0.591087 0.02153
vt 0.589625 0.026349
vt 0.600053 0.028919
vt 0.61053 0.032047
vt 0.608756 0.036761
vt 0.619116 0.040387
vt 0.629501 0.044568
vt 0.627422 0.049156
vt 0.637669 0.053822
vt 0.647916 0.059039
vt 0.645542 0.063481
vt 0.655633 0.069168
vt 0.665699 0.075399
vt 0.663039 0.079676
vt 0.67293 0.086359
vt 0.682772 0.093577
vt 0.679838 0.09767
vt 0.689486 0.105321
vt 0.699062 0.113495
vt 0.695867 0.117388
vt 0.705231 0.125973
vt 0.7145 0.135068
vt 0.711057 0.138744
vt 0.720098 0.148227
vt 0.729019 0.158204
vt 0.725343 0.161647
vt 0.734022 0.171987
vt 0.742558 0.182803
vt 0.738665 0.185998
vt 0.746943 0.197152
vt 0.755058 0.208761
vt 0.750964 0.211695
vt 0.758808 0.223614
vt 0.766466 0.235966
vt 0.762189 0.238626
vt 0.769564 0.251259
vt 0.776732 0.264302
vt 0.772291 0.266676
vt 0.779165 0.279969
vt 0.785814 0.293646
vt 0.781227 0.295725
vt 0.787572 0.309622
vt 0.793672 0.323875
vt 0.788958 0.325649
vt 0.794746 0.34009
vt 0.800272 0.354858
vt 0.795452 0.35632
vt 0.800659 0.371242
vt 0.805586 0.386462
vt 0.800682 0.387606
vt 0.805284 0.402946
vt 0.809592 0.418552
vt 0.804623 0.419373
vt 0.808602 0.435066
vt 0.812272 0.450991
vt 0.80726 0.451485
vt 0.810599 0.467463
vt 0.813615 0.48364
vt 0.808582 0.483805
vt 0.811265 0.5
vt 0.813615 0.51636
vt 0.808582 0.516195
vt 0.810599 0.532537
vt 0.812272 0.549009
vt 0.80726 0.548515
vt 0.808602 0.564934
vt 0.809592 0.581448
vt 0.804623 0.580627
vt 0.805284 0.597054
vt 0.805586 0.613538
vt 0.800682 0.612394
vt 0.800659 0.628758
vt 0.800272 0.645142
vt 0.795452 0.64368
vt 0.794746 0.65991
vt 0.793672 0.676125
vt 0.788958 0.674351
vt 0.787572 0.690378
vt 0.785814 0.706354
vt 0.781227 0.704275
vt 0.779165 0.720031
vt 0.776732 0.735698
vt 0.772291 0.733324
vt 0.769564 0.748741
vt 0.766466 0.764034
vt 0.762189 0.761374
vt 0.758808 0.776386
vt 0.755058 0.791239
vt 0.750964 0.788305
vt 0.746943 0.802848
vt 0.742558 0.817197
vt 0.738665 0.814002
vt 0.734022 0.828013
vt 0.729019 0.841796
vt 0.725343 0.838353
vt 0.720098 0.851773
vt 0.7145 0.864932
vt 0.711057 0.861256
vt 0.705231 0.874027
vt 0.699062 0.886505
vt 0.695867 0.882612
vt 0.689486 0.894679
vt 0.682772 0.906423
vt 0.679838 0.90233
vt 0.67293 0.913641
vt 0.665699 0.924601
vt 0.663039 0.920324
vt 0.655633 0.930832
vt 0.647916 0.940961
vt 0.645542 0.936519
vt 0.637669 0.946178
vt 0.629501 0.955432
vt 0.627422 0.950844
vt 0.619116 0.959613
vt 0.61053 0.967953
vt 0.608756 0.963239
vt 0.600053 0.971081
vt 0.591087 0.97847
vt 0.589625 0.973651
vt 0.580561 0.980531
vt 0.571253 0.986938
vt 0.570109 0.982034
vt 0.560725 0.987923
vt 0.551114 0.993322
vt 0.550293 0.988353
vt 0.540628 0.993226
vt 0.530756 0.997592
vt 0.530263 0.99258
vt 0.520358 0.996417
vt 0.510267 0.999732
vt 0.510102 0.994699
vt 0.5 0.997482
vt 0.489733 0.999732
vt 0.489898 0.994699
vt 0.479642 0.996417
vt 0.469244 0.997592
vt 0.469737 0.99258
vt 0.459372 0.993226
vt 0.448886 0.993322
vt 0.449707 0.988353
vt 0.439275 0.987923
vt 0.428747 0.986938
vt 0.429891 0.982034
vt 0.419439 0.980531
vt 0.408913 0.97847
vt 0.410375 0.973651
vt 0.399947 0.971081
vt 0.38947 0.967953
vt 0.391244 0.963239
vt 0.380884 0.959613
vt 0.370499 0.955432
vt 0.372578 0.950844
vt 0.362331 0.946178
vt 0.352084 0.940961
vt 0.354458 0.936519
vt 0.344367 0.930832
vt 0.334301 0.924601
vt 0.336961 0.920324
vt 0.32707 0.913641
vt 0.317228 0.906423
vt 0.320162 0.90233
vt 0.310514 0.894679
vt 0.300938 0.886505
vt 0.304133 0.882612
vt 0.294769 0.874027
vt 0.2855 0.864932
vt 0.288943 0.861256
vt 0.279902 0.851773
vt 0.270981 0.841796
vt 0.274657 0.838353
vt 0.265978 0.828013
vt 0.257442 0.817197
vt 0.261335 0.814002
vt 0.253057 0.802848
vt 0.244942 0.791239
vt 0.249036 0.788305
vt 0.241192 0.776386
vt 0.233534 0.764034
vt 0.237811 0.761374
vt 0.230436 0.748741
vt 0.223268 0.735698
vt 0.227709 0.733324
vt 0.220835 0.720031
vt 0.214186 0.706354
vt 0.218773 0.704275
vt 0.212428 0.690378
vt 0.206328 0.676125
vt 0.211042 0.674351
vt 0.205254 0.65991
vt 0.199728 0.645142
vt 0.204548 0.64368
vt 0.199341 0.628758
vt 0.194414 0.613538
vt 0.199318 0.612394
vt 0.194716 0.597054
vt 0.190408 0.581448
vt 0.195377 0.580627
vt 0.191398 0.564934
vt 0.187728 0.549009
vt 0.19274 0.548515
vt 0.189401 0.532537
vt 0.186385 0.51636
vt 0.191418 0.516195
vt 0.188735 0.5
vt 0.186385 0.48364
vt 0.191418 0.483805
vt 0.189401 0.467463
vt 0.187728 0.450991
vt 0.19274 0.451485
vt 0.191398 0.435066
vt 0.190408 0.418552
vt 0.195377 0.419373
vt 0.194716 0.402946
vt 0.194414 0.386462
vt 0.199318 0.387606
vt 0.199341 0.371242
vt 0.199728 0.354858
vt 0.204548 0.35632
vt 0.205254 0.34009
vt 0.206328 0.323875
vt 0.211042 0.325649
vt 0.212428 0.309622
vt 0.214186 0.293646
vt 0.218773 0.295725
vt 0.220835 0.279969
vt 0.223268 0.264302
vt 0.227709 0.266676
vt 0.230436 0.251259
vt 0.233534 0.235966
vt 0.237811 0.238626
vt 0.241192 0.223614
vt 0.244942 0.208761
vt 0.249036 0.211695
vt 0.253057 0.197152
vt 0.257442 0.182803
vt 0.261335 0.185998
vt 0.265978 0.171987
vt 0.270981 0.158204
vt 0.274657 0.161647
vt 0.279902 0.148227
vt 0.2855 0.135068
vt 0.288943 0.138744
vt 0.294769 0.125973
vt 0.300938 0.113495
vt 0.304133 0.117388
vt 0.310514 0.105321
vt 0.317228 0.093577
vt 0.320162 0.09767
vt 0.32707 0.086359
vt 0.334301 0.075399
vt 0.336961 0.079676
vt 0.344367 0.069168
vt 0.352084 0.059039
vt 0.354458 0.063481
vt 0.362331 0.053822
vt 0.370499 0.044568
vt 0.372578 0.049156
vt 0.380884 0.040387
vt 0.38947 0.032047
vt 0.391244 0.036761
vt 0.399947 0.028919
vt 0.408913 0.02153
vt 0.410375 0.026349
vt 0.419439 0.019469
vt 0.428747 0.013062
vt 0.429891 0.017966
vt 0.439275 0.012077
vt 0.448886 0.006678
vt 0.449707 0.011647
vt 0.459372 0.006774
vt 0.469244 0.002408
vt 0.469737 0.00742
vt 0.479642 0.003583
vt 0.489733 0.000268
vt 0.489898 0.005301

vn 0.0 1.0 0.0
vn 0.0737 0.707107 0.703256
vn 0.0 0.707107 0.707107
vn 0.0 1.0 0.0
vn 0.0 1.0 0.0
vn 0.0 1.0 0.0
vn 0.145654 0.707107 0.691943
vn 0.0 1.0 0.0
vn 0.0 1.0 0.0
vn 0.214312 0.707107 0.673847
vn 0.0 1.0 0.0
vn 0.0 1.0 0.0
vn 0.278463 0.707107 0.649968
vn 0.0 1.0 0.0
vn 0.0 1.0 0.0
vn 0.337306 0.707107 0.62147
vn 0.0 1.0 0.0
vn 0.0 1.0 0.0
vn 0.390444 0.707107 0.589537
vn 0.0 1.0 0.0
vn 0.0 1.0 0.0
vn 0.437819 0.707107 0.555261
vn 0.0 1.0 0.0
vn 0.0 1.0 0.0
vn 0.479631 0.707107 0.519571
vn 0.0 1.0 0.0
vn 0.0 1.0 0.0
vn 0.516242 0.707107 0.483212
vn 0.0 1.0 0.0
vn 0.0 1.0 0.0
vn 0.548105 0.707107 0.446745
vn 0.0 1.0 0.0
vn 0.0 1.0 0.0
vn 0.575702 0.707107 0.41057
vn 0.0 1.0 0.0
vn 0.0 1.0 0.0
vn 0.59951 0.707107 0.37495
vn 0.0 1.0 0.0
vn 0.0 1.0 0.0
vn 0.619974 0.707107 0.340047
vn 0.0 1.0 0.0
vn 0.0 1.0 0.0
vn 0.637496 0.707107 0.305939
vn 0.0 1.0 0.0
vn 0.0 1.0 0.0
vn 0.652429 0.707107 0.272648
vn 0.0 1.0 0.0
vn 0.0 1.0 0.0
vn 0.665076 0.707107 0.240153
vn 0.0 1.0 0.0
vn 0.0 1.0 0.0
vn 0.675698 0.707107 0.208403
vn 0.0 1.0 0.0
vn 0.0 1.0 0.0
vn 0.68451 0.707107 0.17733
vn 0.0 1.0 0.0
vn 0.0 1.0 0.0
vn 0.69169 0.707107 0.146849
vn 0.0 1.0 0.0
vn 0.0 1.0 0.0
vn 0.697382 0.707107 0.116869
vn 0.0 1.0 0.0
vn 0.0 1.0 0.0
vn 0.701698 0.707107 0.087295
vn 0.0 1.0 0.0
vn 0.0 1.0 0.0
vn 0.704722 0.707107 0.058026
vn 0.0 1.0 0.0
vn 0.0 1.0 0.0
vn 0.706513 0.707107 0.028962
vn 0.0 1.0 0.0
vn 0.0 1.0 0.0
vn 0.707107 0.707107 0.0
vn 0.0 1.0 -0.0
vn 0.0 1.0 -0.0
vn 0.706513 0.707107 -0.028962
vn 0.0 1.0 -0.0
vn 0.0 1.0 -0.0
vn 0.704722 0.707107 -0.058026
vn 0.0 1.0 -0.0
vn 0.0 1.0 -0.0
vn 0.701698 0.707107 -0.087295
vn 0.0 1.0 -0.0
vn 0.0 1.0 -0.0
vn 0.697382 0.707107 -0.116869
vn 0.0 1.0 -0.0
vn 0.0 1.0 -0.0
vn 0.69169 0.707107 -0.146849
vn 0.0 1.0 -0.0
vn 0.0 1.0 -0.0
vn 0.68451 0.707107 -0.17733
vn 0.0 1.0 -0.0
vn 0.0 1.0 -0.0
vn 0.675698 0.707107 -0.208403
vn 0.0 1.0 -0.0
vn 0.0 1.0 -0.0
vn 0.665076 0.707107 -0.240153
vn 0.0 1.0 -0.0
vn 0.0 1.0 -0.0
vn 0.652429 0.707107 -0.272648
vn 0.0 1.0 -0.0
vn 0.0 1.0 -0.0
vn 0.637496 0.707107 -0.305939
vn 0.0 1.0 -0.0
vn 0.0 1.0 -0.0
vn 0.619974 0.707107 -0.340047
vn 0.0 1.0 -0.0
vn 0.0 1.0 -0.0
vn 0.59951 0.707107 -0.37495
vn 0.0 1.0 -0.0
vn 0.0 1.0 -0.0
vn 0.575702 0.707107 -0.41057
vn 0.0 1.0 -0.0
vn 0.0 1.0 -0.0
vn 0.548105 0.707107 -0.446745
vn 0.0 1.0 -0.0
vn 0.0 1.0 -0.0
vn 0.516242 0.707107 -0.483212
vn 0.0 1.0 -0.0
vn 0.0 1.0 -0.0
vn 0.479631 0.707107 -0.519571
vn 0.0 1.0 -0.0
vn 0.0 1.0 -0.0
vn 0.437819 0.707107 -0.555261
vn 0.0 1.0 -0.0
vn 0.0 1.0 -0.0
vn 0.390444 0.707107 -0.589537
vn 0.0 1.0 -0.0
vn 0.0 1.0 -0.0
vn 0.337306 0.707107 -0.62147
vn 0.0 1.0 -0.0
vn 0.0 1.0 -0.0
vn 0.278463 0.707107 -0.649968
vn 0.0 1.0 -0.0
vn 0.0 1.0 -0.0
vn 0.214312 0.707107 -0.673847
vn 0.0 1.0 -0.0
vn 0.0 1.0 -0.0
vn 0.145654 0.707107 -0.691943
vn 0.0 1.0 -0.0
vn 0.0 1.0 -0.0
vn 0.0737 0.707107 -0.703256
vn 0.0 1.0 -0.0
vn 0.0 1.0 -0.0
vn 0.0 0.707107 -0.707107
vn -0.0 1.0 -0.0
vn -0.0 1.0 -0.0
vn -0.0737 0.707107 -0.703256
vn -0.0 1.0 -0.0
vn -0.0 1.0 -0.0
vn -0.145654 0.707107 -0.691943
vn -0.0 1.0 -0.0
vn -0.0 1.0 -0.0
vn -0.214312 0.707107 -0.673847
vn -0.0 1.0 -0.0
vn -0.0 1.0 -0.0
vn -0.278463 0.707107 -0.649968
vn -0.0 1.0 -0.0
vn -0.0 1.0 -0.0
vn -0.337306 0.707107 -0.62147
vn -0.0 1.0 -0.0
vn -0.0 1.0 -0.0
vn -0.390444 0.707107 -0.589537
vn -0.0 1.0 -0.0
vn -0.0 1.0 -0.0
vn -0.437819 0.707107 -0.555261
vn -0.0 1.0 -0.0
vn -0.0 1.0 -0.0
vn -0.479631 0.707107 -0.519571
vn -0.0 1.0 -0.0
vn -0.0 1.0 -0.0
vn -0.516242 0.707107 -0.483212
vn -0.0 1.0 -0.0
vn -0.0 1.0 -0.0
vn -0.548105 0.707107 -0.446745
vn -0.0 1.0 -0.0
vn -0.0 1.0 -0.0
vn -0.575702 0.707107 -0.41057
vn -0.0 1.0 -0.0
vn -0.0 1.0 -0.0
vn -0.59951 0.707107 -0.37495
vn -0.0 1.0 -0.0
vn -0.0 1.0 -0.0
vn -0.619974 0.707107 -0.340047
vn -0.0 1.0 -0.0
vn -0.0 1.0 -0.0
vn -0.637496 0.707107 -0.305939
vn -0.0 1.0 -0.0
vn -0.0 1.0 -0.0
vn -0.652429 0.707107 -0.272648
vn -0.0 1.0 -0.0
vn -0.0 1.0 -0.0
vn -0.665076 0.707107 -0.240153
vn -0.0 1.0 -0.0
vn -0.0 1.0 -0.0
vn -0.675698 0.707107 -0.208403
vn -0.0 1.0 -0.0
vn -0.0 1.0 -0.0
vn -0.68451 0.707107 -0.17733
vn -0.0 1.0 -0.0
vn -0.0 1.0 -0.0
vn -0.69169 0.707107 -0.146849
vn -0.0 1.0 -0.0
vn -0.0 1.0 -0.0
vn -0.697382 0.707107 -0.116869
vn -0.0 1.0 -0.0
vn -0.0 1.0 -0.0
vn -0.701698 0.707107 -0.087295
vn -0.0 1.0 -0.0
vn -0.0 1.0 -0.0
vn -0.704722 0.707107 -0.058026
vn -0.0 1.0 -0.0
vn -0.0 1.0 -0.0
vn -0.706513 0.707107 -0.028962
vn -0.0 1.0 -0.0
vn -0.0 1.0 -0.0
vn -0.707107 0.707107 -0.0
vn -0.0 1.0 0.0
vn -0.0 1.0 0.0
vn -0.706513 0.707107 0.028962
vn -0.0 1.0 0.0
vn -0.0 1.0 0.0
vn -0.704722 0.707107 0.058026
vn -0.0 1.0 0.0
vn -0.0 1.0 0.0
vn -0.701698 0.707107 0.087295
vn -0.0 1.0 0.0
vn -0.0 1.0 0.0
vn -0.697382 0.707107 0.116869
vn -0.0 1.0 0.0
vn -0.0 1.0 0.0
vn -0.69169 0.707107 0.146849
vn -0.0 1.0 0.0
vn -0.0 1.0 0.0
vn -0.68451 0.707107 0.17733
vn -0.0 1.0 0.0
vn -0.0 1.0 0.0
vn -0.675698 0.707107 0.208403
vn -0.0 1.0 0.0
vn -0.0 1.0 0.0
vn -0.665076 0.707107 0.240153
vn -0.0 1.0 0.0
vn -0.0 1.0 0.0
vn -0.652429 0.707107 0.272648
vn -0.0 1.0 0.0
vn -0.0 1.0 0.0
vn -0.637496 0.707107 0.305939
vn -0.0 1.0 0.0
vn -0.0 1.0 0.0
vn -0.619974 0.707107 0.340047
vn -0.0 1.0 0.0
vn -0.0 1.0 0.0
vn -0.59951 0.707107 0.37495
vn -0.0 1.0 0.0
vn -0.0 1.0 0.0
vn -0.575702 0.707107 0.41057
vn -0.0 1.0 0.0
vn -0.0 1.0 0.0
vn -0.548105 0.707107 0.446745
vn -0.0 1.0 0.0
vn -0.0 1.0 0.0
vn -0.516242 0.707107 0.483212
vn -0.0 1.0 0.0
vn -0.0 1.0 0.0
vn -0.479631 0.707107 0.519571
vn -0.0 1.0 0.0
vn -0.0 1.0 0.0
vn -0.437819 0.707107 0.555261
vn -0.0 1.0 0.0
vn -0.0 1.0 0.0
vn -0.390444 0.707107 0.589537
vn -0.0 1.0 0.0
vn -0.0 1.0 0.0
vn -0.337306 0.707107 0.62147
vn -0.0 1.0 0.0
vn -0.0 1.0 0.0
vn -0.278463 0.707107 0.649968
vn -0.0 1.0 0.0
vn -0.0 1.0 0.0
vn -0.214312 0.707107 0.673847
vn -0.0 1.0 0.0
vn -0.0 1.0 0.0
vn -0.145654 0.707107 0.691943
vn -0.0 1.0 0.0
vn -0.0 1.0 0.0
vn -0.0737 0.707107 0.703256
vn -0.0 1.0 0.0
vn -0.0 1.0 0.0

f 1/1/1 2/2/2 3/3/3
f 1/1/1 4/4/4 2/2/2
f 5/5/5 3/3/3 2/2/2
f 5/5/5 2/2/2 6/6/6
f 4/4/4 7/7/7 2/2/2
f 4/4/4 8/8/8 7/7/7
f 6/6/6 2/2/2 7/7/7
f 6/6/6 7/7/7 9/9/9
f 6/6/6 9/9/9 5/5/5
f 8/8/8 10/10/10 7/7/7
f 8/8/8 11/11/11 10/10/10
f 9/9/9 7/7/7 10/10/10
f 9/9/9 10/10/10 12/12/12
f 9/9/9 12/12/12 5/5/5
f 11/11/11 13/13/13 10/10/10
f 11/11/11 14/14/14 13/13/13
f 12/12/12 10/10/10 13/13/13
f 12/12/12 13/13/13 15/15/15
f 12/12/12 15/15/15 5/5/5
f 14/14/14 16/16/16 13/13/13
f 14/14/14 17/17/17 16/16/16
f 15/15/15 13/13/13 16/16/16
f 15/15/15 16/16/16 18/18/18
f 15/15/15 18/18/18 5/5/5
f 17/17/17 19/19/19 16/16/16
f 17/17/17 20/20/20 19/19/19
f 18/18/18 16/16/16 19/19/19
f 18/18/18 19/19/19 21/21/21
f 18/18/18 21/21/21 5/5/5
f 20/20/20 22/22/22 19/19/19
f 20/20/20 23/23/23 22/22/22
f 21/21/21 19/19/19 22/22/22
f 21/21/21 22/22/22 24/24/24
f 21/21/21 24/24/24 5/5/5
f 23/23/23 25/25/25 22/22/22
f 23/23/23 26/26/26 25/25/25
f 24/24/24 22/22/22 25/25/25
f 24/24/24 25/25/25 27/27/27
f 24/24/24 27/27/27 5/5/5
f 26/26/26 28/28/28 25/25/25
f 26/26/26 29/29/29 28/28/28
f 27/27/27 25/25/25 28/28/28
f 27/27/27 28/28/28 30/30/30
f 27/27/27 30/30/30 5/5/5
f 29/29/29 31/31/31 28/28/28
f 29/29/29 32/32/32 31/31/31
f 30/30/30 28/28/28 31/31/31
f 30/30/30 31/31/31 33/33/33
f 30/30/30 33/33/33 5/5/5
f 32/32/32 34/34/34 31/31/31
f 32/32/32 35/35/35 34/34/34
f 33/33/33 31/31/31 34/34/34
f 33/33/33 34/34/34 36/36/36
f 33/33/33 36/36/36 5/5/5
f 35/35/35 37/37/37 34/34/34
f 35/35/35 38/38/38 37/37/37
f 36/36/36 34/34/34 37/37/37
f 36/36/36 37/37/37 39/39/39
f 36/36/36 39/39/39 5/5/5
f 38/38/38 40/40/40 37/37/37
f 38/38/38 41/41/41 40/40/40
f 39/39/39 37/37/37 40/40/40
f 39/39/39 40/40/40 42/42/42
f 39/39/39 42/42/42 5/5/5
f 41/41/41 43/43/43 40/40/40
f 41/41/41 44/44/44 43/43/43
f 42/42/42 40/40/40 43/43/43
f 42/42/42 43/43/43 45/45/45
f 42/42/42 45/45/45 5/5/5
f 44/44/44 46/46/46 43/43/43
f 44/44/44 47/47/47 46/46/46
f 45/45/45 43/43/43 46/46/46
f 45/45/45 46/46/46 48/48/48
f 45/45/45 48/48/48 5/5/5
f 47/47/47 49/49/49 46/46/46
f 47/47/47 50/50/50 49/49/49
f 48/48/48 46/46/46 49/49/49
f 48/48/48 49/49/49 51/51/51
f 48/48/48 51/51/51 5/5/5
f 50/50/50 52/52/52 49/49/49
f 50/50/50 53/53/53 52/52/52
f 51/51/51 49/49/49 52/52/52
f 51/51/51 52/52/52 54/54/54
f 51/51/51 54/54/54 5/5/5
f 53/53/53 55/55/55 52/52/52
f 53/53/53 56/56/56 55/55/55
f 54/54/54 52/52/52 55/55/55
f 54/54/54 55/55/55 57/57/57
f 54/54/54 57/57/57 5/5/5
f 56/56/56 58/58/58 55/55/55
f 56/56/56 59/59/59 58/58/58
f 57/57/57 55/55/55 58/58/58
f 57/57/57 58/58/58 60/60/60
f 57/57/57 60/60/60 5/5/5
f 59/59/59 61/61/61 58/58/58
f 59/59/59 62/62/62 61/61/61
f 60/60/60 58/58/58 61/61/61
f 60/60/60 61/61/61 63/63/63
f 60/60/60 63/63/63 5/5/5
f 62/62/62 64/64/64 61/61/61
f 62/62/62 65/65/65 64/64/64
f 63/63/63 61/61/61 64/64/64
f 63/63/63 64/64/64 66/66/66
f 63/63/63 66/66/66 5/5/5
f 65/65/65 67/67/67 64/64/64
f 65/65/65 68/68/68 67/67/67
f 66/66/66 64/64/64 67/67/67
f 66/66/66 67/67/67 69/69/69
f 66/66/66 69/69/69 5/5/5
f 68/68/68 70/70/70 67/67/67
f 68/68/68 71/71/71 70/70/70
f 69/69/69 67/67/67 70/70/70
f 69/69/69 70/70/70 72/72/72
f 69/69/69 72/72/72 5/5/5
f 71/71/71 73/73/73 70/70/70
f 71/71/71 74/74/74 73/73/73
f 72/72/72 70/70/70 73/73/73
f 72/72/72 73/73/73 75/75/75
f 72/72/72 75/75/75 5/5/5
f 74/74/74 76/76/76 73/73/73
f 74/74/74 77/77/77 76/76/76
f 75/75/75 73/73/73 76/76/76
f 75/75/75 76/76/76 78/78/78
f 75/75/75 78/78/78 5/5/5
f 77/77/77 79/79/79 76/76/76
f 77/77/77 80/80/80 79/79/79
f 78/78/78 76/76/76 79/79/79
f 78/78/78 79/79/79 81/81/81
f 78/78/78 81/81/81 5/5/5
f 80/80/80 82/82/82 79/79/79
f 80/80/80 83/83/83 82/82/82
f 81/81/81 79/79/79 82/82/82
f 81/81/81 82/82/82 84/84/84
f 81/81/81 84/84/84 5/5/5
f 83/83/83 85/85/85 82/82/82
f 83/83/83 86/86/86 85/85/85
f 84/84/84 82/82/82 85/85/85
f 84/84/84 85/85/85 87/87/87
f 84/84/84 87/87/87 5/5/5
f 86/86/86 88/88/88 85/85/85
f 86/86/86 89/89/89 88/88/88
f 87/87/87 85/85/85 88/88/88
f 87/87/87 88/88/88 90/90/90
f 87/87/87 90/90/90 5/5/5
f 89/89/89 91/91/91 88/88/88
f 89/89/89 92/92/92 91/91/91
f 90/90/90 88/88/88 91/91/91
f 90/90/90 91/91/91 93/93/93
f 90/90/90 93/93/93 5/5/5
f 92/92/92 94/94/94 91/91/91
f 92/92/92 95/95/95 94/94/94
f 93/93/93 91/91/91 94/94/94
f 93/93/93 94/94/94 96/96/96
f 93/93/93 96/96/96 5/5/5
f 95/95/95 97/97/97 94/94/94
f 95/95/95 98/98/98 97/97/97
f 96/96/96 94/94/94 97/97/97
f 96/96/96 97/97/97 99/99/99
f 96/96/96 99/99/99 5/5/5
f 98/98/98 100/100/100 97/97/97
f 98/98/98 101/101/101 100/100/100
f 99/99/99 97/97/97 100/100/100
f 99/99/99 100/100/100 102/102/102
f 99/99/99 102/102/102 5/5/5
f 101/101/101 103/103/103 100/100/100
f 101/101/101 104/104/104 103/103/103
f 102/102/102 100/100/100 103/103/103
f 102/102/102 103/103/103 105/105/105
f 102/102/102 105/105/105 5/5/5
f 104/104/104 106/106/106 103/103/103
f 104/104/104 107/107/107 106/106/106
f 105/105/105 103/103/103 106/106/106
f 105/105/105 106/106/106 108/108/108
f 105/105/105 108/108/108 5/5/5
f 107/107/107 109/109/109 106/106/106
f 107/107/107 110/110/110 109/109/109
f 108/108/108 106/106/106 109/109/109
f 108/108/108 109/109/109 111/111/111
f 108/108/108 111/111/111 5/5/5
f 110/110/110 112/112/112 109/109/109
f 110/110/110 113/113/113 112/112/112
f 111/111/111 109/109/109 112/112/112
f 111/111/111 112/112/112 114/114/114
f 111/111/111 114/114/114 5/5/5
f 113/113/113 115/115/115 112/112/112
f 113/113/113 116/116/116 115/115/115
f 114/114/114 112/112/112 115/115/115
f 114/114/114 115/115/115 117/117/117
f 114/114/114 117/117/117 5/5/5
f 116/116/116 118/118/118 115/115/115
f 116/116/116 119/119/119 118/118/118
f 117/117/117 115/115/115 118/118/118
f 117/117/117 118/118/118 120/120/120
f 117/117/117 120/120/120 5/5/5
f 119/119/119 121/121/121 118/118/118
f 119/119/119 122/122/122 121/121/121
f 120/120/120 118/118/118 121/121/121
f 120/120/120 121/121/121 123/123/123
f 120/120/120 123/123/123 5/5/5
f 122/122/122 124/124/124 121/121/121
f 122/122/122 125/125/125 124/124/124
f 123/123/123 121/121/121 124/124/124
f 123/123/123 124/124/124 126/126/126
f 123/123/123 126/126/126 5/5/5
f 125/125/125 127/127/127 124/124/124
f 125/125/125 128/128/128 127/127/127
f 126/126/126 124/124/124 127/127/127
f 126/126/126 127/127/127 129/129/129
f 126/126/126 129/129/129 5/5/5
f 128/128/128 130/130/130 127/127/127
f 128/128/128 131/131/131 130/130/130
f 129/129/129 127/127/127 130/130/130
f 129/129/129 130/130/130 132/132/132
f 129/129/129 132/132/132 5/5/5
f 131/131/131 133/133/133 130/130/130
f 131/131/131 134/134/134 133/133/133
f 132/132/132 130/130/130 133/133/133
f 132/132/132 133/133/133 135/135/135
f 132/132/132 135/135/135 5/5/5
f 134/134/134 136/136/136 133/133/133
f 134/134/134 137/137/137 136/136/136
f 135/135/135 133/133/133 136/136/136
f 135/135/135 136/136/136 138/138/138
f 135/135/135 138/138/138 5/5/5
f 137/137/137 139/139/139 136/136/136
f 137/137/137 140/140/140 139/139/139
f 138/138/138 136/136/136 139/139/139
f 138/138/138 139/139/139 141/141/141
f 138/138/138 141/141/141 5/5/5
f 140/140/140 142/142/142 139/139/139
f 140/140/140 143/143/143 142/142/142
f 141/141/141 139/139/139 142/142/142
f 141/141/141 142/142/142 144/144/144
f 141/141/141 144/144/144 5/5/5
f 143/143/143 145/145/145 142/142/142
f 143/143/143 146/146/146 145/145/145
f 144/144/144 142/142/142 145/145/145
f 144/144/144 145/145/145 147/147/147
f 144/144/144 147/147/147 5/5/5
f 146/146/146 148/148/148 145/145/145
f 146/146/146 149/149/149 148/148/148
f 147/147/147 145/145/145 148/148/148
f 147/147/147 148/148/148 150/150/150
f 147/147/147 150/150/150 5/5/5
f 149/149/149 151/151/151 148/148/148
f 149/149/149 152/152/152 151/151/151
f 150/150/150 148/148/148 151/151/151
f 150/150/150 151/151/151 153/153/153
f 150/150/150 153/153/153 5/5/5
f 152/152/152 154/154/154 151/151/151
f 152/152/152 155/155/155 154/154/154
f 153/153/153 151/151/151 154/154/154
f 153/153/153 154/154/154 156/156/156
f 153/153/153 156/156/156 5/5/5
f 155/155/155 157/157/157 154/154/154
f 155/155/155 158/158/158 157/157/157
f 156/156/156 154/154/154 157/157/157
f 156/156/156 157/157/157 159/159/159
f 156/156/156 159/159/159 5/5/5
f 158/158/158 160/160/160 157/157/157
f 158/158/158 161/161/161 160/160/160
f 159/159/159 157/157/157 160/160/160
f 159/159/159 160/160/160 162/162/162
f 159/159/159 162/162/162 5/5/5
f 161/161/161 163/163/163 160/160/160
f 161/161/161 164/164/164 163/163/163
f 162/162/162 160/160/160 163/163/163
f 162/162/162 163/163/163 165/165/165
f 162/162/162 165/165/165 5/5/5
f 164/164/164 166/166/166 163/163/163
f 164/164/164 167/167/167 166/166/166
f 165/165/165 163/163/163 166/166/166
f 165/165/165 166/166/166 168/168/168
f 165/165/165 168/168/168 5/5/5
f 167/167/167 169/169/169 166/166/166
f 167/167/167 170/170/170 169/169/169
f 168/168/168 166/166/166 169/169/169
f 168/168/168 169/169/169 171/171/171
f 168/168/168 171/171/171 5/5/5
f 170/170/170 172/172/172 169/169/169
f 170/170/170 173/173/173 172/172/172
f 171/171/171 169/169/169 172/172/172
f 171/171/171 172/172/172 174/174/174
f 171/171/171 174/174/174 5/5/5
f 173/173/173 175/175/175 172/172/172
f 173/173/173 176/176/176 175/175/175
f 174/174/174 172/172/172 175/175/175
f 174/174/174 175/175/175 177/177/177
f 174/174/174 177/177/177 5/5/5
f 176/176/176 178/178/178 175/175/175
f 176/176/176 179/179/179 178/178/178
f 177/177/177 175/175/175 178/178/178
f 177/177/177 178/178/178 180/180/180
f 177/177/177 180/180/180 5/5/5
f 179/179/179 181/181/181 178/178/178
f 179/179/179 182/182/182 181/181/181
f 180/180/180 178/178/178 181/181/181
f 180/180/180 181/181/181 183/183/183
f 180/180/180 183/183/183 5/5/5
f 182/182/182 184/184/184 181/181/181
f 182/182/182 185/185/185 184/184/184
f 183/183/183 181/181/181 184/184/184
f 183/183/183 184/184/184 186/186/186
f 183/183/183 186/186/186 5/5/5
f 185/185/185 187/187/187 184/184/184
f 185/185/185 188/188/188 187/187/187
f 186/186/186 184/184/184 187/187/187
f 186/186/186 187/187/187 189/189/189
f 186/186/186 189/189/189 5/5/5
f 188/188/188 190/190/190 187/187/187
f 188/188/188 191/191/191 190/190/190
f 189/189/189 187/187/187 190/190/190
f 189/189/189 190/190/190 192/192/192
f 189/189/189 192/192/192 5/5/5
f 191/191/191 193/193/193 190/190/190
f 191/191/191 194/194/194 193/193/193
f 192/192/192 190/190/190 193/193/193
f 192/192/192 193/193/193 195/195/195
f 192/192/192 195/195/195 5/5/5
f 194/194/194 196/196/196 193/193/193
f 194/194/194 197/197/197 196/196/196
f 195/195/195 193/193/193 196/196/196
f 195/195/195 196/196/196 198/198/198
f 195/195/195 198/198/198 5/5/5
f 197/197/197 199/199/199 196/196/196
f 197/197/197 200/200/200 199/199/199
f 198/198/198 196/196/196 199/199/199
f 198/198/198 199/199/199 201/201/201
f 198/198/198 201/201/201 5/5/5
f 200/200/200 202/202/202 199/199/199
f 200/200/200 203/203/203 202/202/202
f 201/201/201 199/199/199 202/202/202
f 201/201/201 202/202/202 204/204/204
f 201/201/201 204/204/204 5/5/5
f 203/203/203 205/205/205 202/202/202
f 203/203/203 206/206/206 205/205/205
f 204/204/204 202/202/202 205/205/205
f 204/204/204 205/205/205 207/207/207
f 204/204/204 207/207/207 5/5/5
f 206/206/206 208/208/208 205/205/205
f 206/206/206 209/209/209 208/208/208
f 207/207/207 205/205/205 208/208/208
f 207/207/207 208/208/208 210/210/210
f 207/207/207 210/210/210 5/5/5
f 209/209/209 211/211/211 208/208/208
f 209/209/209 212/212/212 211/211/211
f 210/210/210 208/208/208 211/211/211
f 210/210/210 211/211/211 213/213/213
f 210/210/210 213/213/213 5/5/5
f 212/212/212 214/214/214 211/211/211
f 212/212/212 215/215/215 214/214/214
f 213/213/213 211/211/211 214/214/214
f 213/213/213 214/214/214 216/216/216
f 213/213/213 216/216/216 5/5/5
f 215/215/215 217/217/217 214/214/214
f 215/215/215 218/218/218 217/217/217
f 216/216/216 214/214/214 217/217/217
f 216/216/216 217/217/217 219/219/219
f 216/216/216 219/219/219 5/5/5
f 218/218/218 220/220/220 217/217/217
f 218/218/218 221/221/221 220/220/220
f 219/219/219 217/217/217 220/220/220
f 219/219/219 220/220/220 222/222/222
f 219/219/219 222/222/222 5/5/5
f 221/221/221 223/223/223 220/220/220
f 221/221/221 224/224/224 223/223/223
f 222/222/222 220/220/220 223/223/223
f 222/222/222 223/223/223 225/225/225
f 222/222/222 225/225/225 5/5/5
f 224/224/224 226/226/226 223/223/223
f 224/224/224 227/227/227 226/226/226
f 225/225/225 223/223/223 226/226/226
f 225/225/225 226/226/226 228/228/228
f 225/225/225 228/228/228 5/5/5
f 227/227/227 229/229/229 226/226/226
f 227/227/227 230/230/230 229/229/229
f 228/228/228 226/226/226 229/229/229
f 228/228/228 229/229/229 231/231/231
f 228/228/228 231/231/231 5/5/5
f 230/230/230 232/232/232 229/229/229
f 230/230/230 233/233/233 232/232/232
f 231/231/231 229/229/229 232/232/232
f 231/231/231 232/232/232 234/234/234
f 231/231/231 234/234/234 5/5/5
f 233/233/233 235/235/235 232/232/232
f 233/233/233 236/236/236 235/235/235
f 234/234/234 232/232/232 235/235/235
f 234/234/234 235/235/235 237/237/237
f 234/234/234 237/237/237 5/5/5
f 236/236/236 238/238/238 235/235/235
f 236/236/236 239/239/239 238/238/238
f 237/237/237 235/235/235 238/238/238
f 237/237/237 238/238/238 240/240/240
f 237/237/237 240/240/240 5/5/5
f 239/239/239 241/241/241 238/238/238
f 239/239/239 242/242/242 241/241/241
f 240/240/240 238/238/238 241/241/241
f 240/240/240 241/241/241 243/243/243
f 240/240/240 243/243/243 5/5/5
f 242/242/242 244/244/244 241/241/241
f 242/242/242 245/245/245 244/244/244
f 243/243/243 241/241/241 244/244/244
f 243/243/243 244/244/244 246/246/246
f 243/243/243 246/246/246 5/5/5
f 245/245/245 247/247/247 244/244/244
f 245/245/245 248/248/248 247/247/247
f 246/246/246 244/244/244 247/247/247
f 246/246/246 247/247/247 249/249/249
f 246/246/246 249/249/249 5/5/5
f 248/248/248 250/250/250 247/247/247
f 248/248/248 251/251/251 250/250/250
f 249/249/249 247/247/247 250/250/250
f 249/249/249 250/250/250 252/252/252
f 249/249/249 252/252/252 5/5/5
f 251/251/251 253/253/253 250/250/250
f 251/251/251 254/254/254 253/253/253
f 252/252/252 250/250/250 253/253/253
f 252/252/252 253/253/253 255/255/255
f 252/252/252 255/255/255 5/5/5
f 254/254/254 256/256/256 253/253/253
f 254/254/254 257/257/257 256/256/256
f 255/255/255 253/253/253 256/256/256
f 255/255/255 256/256/256 258/258/258
f 255/255/255 258/258/258 5/5/5
f 257/257/257 259/259/259 256/256/256
f 257/257/257 260/260/260 259/259/259
f 258/258/258 256/256/256 259/259/259
f 258/258/258 259/259/259 261/261/261
f 258/258/258 261/261/261 5/5/5
f 260/260/260 262/262/262 259/259/259
f 260/260/260 263/263/263 262/262/262
f 261/261/261 259/259/259 262/262/262
f 261/261/261 262/262/262 264/264/264
f 261/261/261 264/264/264 5/5/5
f 263/263/263 265/265/265 262/262/262
f 263/263/263 266/266/266 265/265/265
f 264/264/264 262/262/262 265/265/265
f 264/264/264 265/265/265 267/267/267
f 264/264/264 267/267/267 5/5/5
f 266/266/266 268/268/268 265/265/265
f 266/266/266 269/269/269 268/268/268
f 267/267/267 265/265/265 268/268/268
f 267/267/267 268/268/268 270/270/270
f 267/267/267 270/270/270 5/5/5
f 269/269/269 271/271/271 268/268/268
f 269/269/269 272/272/272 271/271/271
f 270/270/270 268/268/268 271/271/271
f 270/270/270 271/271/271 273/273/273
f 270/270/270 273/273/273 5/5/5
f 272/272/272 274/274/274 271/271/271
f 272/272/272 275/275/275 274/274/274
f 273/273/273 271/271/271 274/274/274
f 273/273/273 274/274/274 276/276/276
f 273/273/273 276/276/276 5/5/5
f 275/275/275 277/277/277 274/274/274
f 275/275/275 278/278/278 277/277/277
f 276/276/276 274/274/274 277/277/277
f 276/276/276 277/277/277 279/279/279
f 276/276/276 279/279/279 5/5/5
f 278/278/278 280/280/280 277/277/277
f 278/278/278 281/281/281 280/280/280
f 279/279/279 277/277/277 280/280/280
f 279/279/279 280/280/280 282/282/282
f 279/279/279 282/282/282 5/5/5
f 281/281/281 283/283/283 280/280/280
f 281/281/281 284/284/284 283/283/283
f 282/282/282 280/280/280 283/283/283
f 282/282/282 283/283/283 285/285/285
f 282/282/282 285/285/285 5/5/5
f 284/284/284 286/286/286 283/283/283
f 284/284/284 287/287/287 286/286/286
f 285/285/285 283/283/283 286/286/286
f 285/285/285 286/286/286 288/288/288
f 285/285/285 288/288/288 5/5/5
f 287/287/287 3/3/3 286/286/286
f 287/287/287 1/1/1 3/3/3
f 288/288/288 286/286/286 3/3/3
f 288/288/288 3/3/3 5/5/5
