# Blender v2.92.0 OBJ File: 'Trukk stuff.blend'
# www.blender.org
mtllib Trukk Wheel 1.mtl
o wartrukk_body0_model0.002_wartrukk_body0_model0.006
v 0.283525 0.030857 -0.423909
v 0.283523 -0.395736 -0.113967
v 0.283524 -0.232792 -0.338243
v 0.283523 -0.232789 0.387523
v 0.283523 -0.395735 0.163250
v 0.283523 0.294511 0.387521
v 0.283524 0.030862 0.473187
v 0.283526 0.457453 -0.113972
v 0.283526 0.294508 -0.338245
v 0.283525 0.457455 0.163246
v -0.287849 0.294509 -0.338246
v -0.287849 0.457457 0.163245
v -0.287848 0.457455 -0.113973
v -0.287851 0.030863 0.473187
v -0.287850 0.294513 0.387520
v -0.287851 -0.395733 0.163249
v -0.287851 -0.232787 0.387522
v -0.287850 -0.232791 -0.338244
v -0.287849 0.030859 -0.423910
v -0.287851 -0.395734 -0.113969
v -0.223151 -0.283803 0.457740
v -0.223150 0.030863 0.559980
v -0.223149 0.345529 0.457737
v -0.223148 0.540002 0.190065
v -0.223147 0.540001 -0.140794
v -0.223147 0.345525 -0.408463
v -0.223148 0.030858 -0.510704
v -0.223149 -0.283807 -0.408460
v -0.223150 -0.478281 -0.140789
v 0.219674 0.539999 -0.140794
v 0.219673 0.540001 0.190066
v 0.219673 0.345528 0.457737
v 0.219671 0.030862 0.559981
v 0.219671 -0.283805 0.457741
v 0.219671 -0.478280 0.190071
v 0.219671 -0.478282 -0.140789
v 0.219673 -0.283809 -0.408461
v 0.219674 0.030857 -0.510703
v 0.219675 0.345524 -0.408463
v -0.223151 -0.478279 0.190070
v -0.106224 0.360059 0.521882
v -0.151925 0.361480 0.434530
v -0.151000 0.273906 0.498898
v -0.050578 0.275043 0.503194
v -0.051611 0.365462 0.436983
v -0.107026 0.633687 0.096656
v -0.171298 0.540866 0.016161
v -0.169998 0.531047 0.168694
v -0.028768 0.536701 0.171351
v -0.030223 0.547108 0.014089
v -0.146972 -0.486017 0.308157
v -0.192673 -0.399121 0.317186
v -0.191747 -0.455612 0.224336
v -0.091325 -0.459990 0.225095
v -0.092359 -0.401912 0.320940
v -0.146971 -0.515014 -0.191218
v -0.192672 -0.466075 -0.118849
v -0.191746 -0.431259 -0.221807
v -0.091324 -0.434655 -0.224672
v -0.092359 -0.470745 -0.118574
v -0.106854 -0.000494 -0.571974
v -0.167147 -0.059737 -0.473109
v -0.165926 0.082777 -0.488886
v -0.033442 0.084309 -0.494542
v -0.034806 -0.062670 -0.478538
vt 0.967443 0.647028
vt 0.962453 0.640427
vt 0.966063 0.642948
vt 0.954380 0.642948
vt 0.957990 0.640427
vt 0.954380 0.651107
vt 0.953000 0.647027
vt 0.962626 0.653628
vt 0.966063 0.651107
vt 0.957816 0.653628
vt 0.960927 0.575685
vt 0.923546 0.563744
vt 0.944210 0.563744
vt 0.900445 0.595007
vt 0.906830 0.575685
vt 0.923546 0.626270
vt 0.906830 0.614329
vt 0.960927 0.614329
vt 0.967312 0.595007
vt 0.944210 0.626270
vt 0.565746 0.635444
vt 0.597699 0.639212
vt 0.568265 0.639212
vt 0.600218 0.635444
vt 0.631395 0.639212
vt 0.634689 0.635444
vt 0.603512 0.639212
vt 0.664089 0.639212
vt 0.667383 0.635432
vt 0.637983 0.639212
vt 0.697189 0.639181
vt 0.699818 0.635432
vt 0.670012 0.639181
vt 0.729606 0.639212
vt 0.732512 0.635444
vt 0.702725 0.639212
vt 0.764077 0.639212
vt 0.766984 0.635444
vt 0.735419 0.639212
vt 0.798161 0.639212
vt 0.801455 0.635444
vt 0.770278 0.639212
vt 0.831823 0.639212
vt 0.834149 0.635444
vt 0.803780 0.639212
vt 0.670927 0.605786
vt 0.699818 0.609663
vt 0.667383 0.609663
vt 0.696275 0.605786
vt 0.634689 0.605754
vt 0.667383 0.605754
vt 0.634689 0.609651
vt 0.600218 0.605754
vt 0.600218 0.609651
vt 0.565746 0.605754
vt 0.565746 0.609651
vt 0.533053 0.605754
vt 0.533053 0.609651
vt 0.501379 0.605754
vt 0.501379 0.609651
vt 0.834149 0.609651
vt 0.801455 0.605754
vt 0.834149 0.605754
vt 0.801455 0.609651
vt 0.766984 0.605754
vt 0.766984 0.609651
vt 0.732512 0.605754
vt 0.732512 0.609651
vt 0.699818 0.605754
vt 0.533053 0.635444
vt 0.501379 0.635444
vt 0.530921 0.639212
vt 0.503510 0.639212
vt 0.563227 0.639212
vt 0.535572 0.639212
vt 0.791927 0.649470
vt 0.784508 0.657314
vt 0.784045 0.641975
vt 0.799558 0.641097
vt 0.800013 0.656927
vt 0.773618 0.664025
vt 0.766979 0.657319
vt 0.780784 0.658230
vt 0.780814 0.671023
vt 0.766343 0.669850
vt 0.808345 0.650276
vt 0.800400 0.657793
vt 0.800177 0.642543
vt 0.816522 0.642229
vt 0.816742 0.657954
vt 0.775809 0.648897
vt 0.783710 0.641322
vt 0.783203 0.656793
vt 0.767664 0.657004
vt 0.768185 0.641056
vt 0.975443 0.580281
vt 0.968879 0.571831
vt 0.982361 0.572112
vt 0.982475 0.588988
vt 0.968574 0.588686
vn 0.9307 -0.0000 -0.3658
vn 0.9307 -0.3479 -0.1130
vn 0.9307 -0.2150 -0.2959
vn 0.9307 -0.2150 0.2959
vn 0.9307 -0.3479 0.1130
vn 0.9307 0.2150 0.2959
vn 0.9307 0.0000 0.3658
vn 0.9307 0.3479 -0.1130
vn 0.9307 0.2150 -0.2959
vn 0.9307 0.3479 0.1130
vn -0.9294 0.2170 -0.2987
vn -0.9294 0.3511 0.1141
vn -0.9294 0.3511 -0.1141
vn -0.9294 0.0000 0.3692
vn -0.9294 0.2170 0.2987
vn -0.9294 -0.3511 0.1141
vn -0.9294 -0.2170 0.2986
vn -0.9294 -0.2170 -0.2987
vn -0.9294 0.0000 -0.3692
vn -0.9294 -0.3511 -0.1141
vn -0.4165 -0.5344 0.7355
vn -0.4165 0.0000 0.9091
vn -0.4165 0.5344 0.7355
vn -0.4165 0.8647 0.2809
vn -0.4165 0.8647 -0.2809
vn -0.4165 0.5344 -0.7355
vn -0.4165 -0.0000 -0.9091
vn -0.4165 -0.5344 -0.7355
vn -0.4165 -0.8647 -0.2809
vn 0.4190 0.8636 -0.2806
vn 0.4190 0.8636 0.2806
vn 0.4190 0.5337 0.7346
vn 0.4189 0.0000 0.9080
vn 0.4189 -0.5337 0.7346
vn 0.4189 -0.8636 0.2806
vn 0.4190 -0.8636 -0.2806
vn 0.4190 -0.5337 -0.7346
vn 0.4190 -0.0000 -0.9080
vn 0.4190 0.5337 -0.7346
vn -0.4165 -0.8646 0.2809
vn -0.0621 0.5997 0.7978
vn -0.5160 0.8085 0.2831
vn -0.5025 0.0307 0.8640
vn 0.4249 0.0799 0.9017
vn 0.4328 0.8382 0.3317
vn -0.0621 0.9966 0.0534
vn -0.5160 0.7365 -0.4374
vn -0.5025 0.6816 0.5319
vn 0.4250 0.7421 0.5183
vn 0.4328 0.7929 -0.4289
vn -0.0622 -0.8470 0.5279
vn -0.5160 -0.3525 0.7807
vn -0.5025 -0.8634 -0.0448
vn 0.4250 -0.9052 0.0011
vn 0.4328 -0.4035 0.8061
vn -0.0622 -0.9489 -0.3095
vn -0.5160 -0.8246 0.2318
vn -0.5025 -0.5207 -0.6902
vn 0.4250 -0.5827 -0.6928
vn 0.4328 -0.8769 0.2091
vn -0.0621 -0.1205 -0.9908
vn -0.5160 -0.5586 -0.6494
vn -0.5025 0.4055 -0.7636
vn 0.4250 0.3816 -0.8208
vn 0.4328 -0.5601 -0.7064
usemtl wartrukk_dif.001
s 1
f 1/1/1 2/2/2 3/3/3
f 1/1/1 4/4/4 2/2/2
f 2/2/2 4/4/4 5/5/5
f 4/4/4 6/6/6 7/7/7
f 1/1/1 6/6/6 4/4/4
f 1/1/1 8/8/8 6/6/6
f 1/1/1 9/9/9 8/8/8
f 6/6/6 8/8/8 10/10/10
f 11/11/11 12/12/12 13/13/13
f 11/11/11 14/14/14 12/12/12
f 12/12/12 14/14/14 15/15/15
f 14/14/14 16/16/16 17/17/17
f 11/11/11 16/16/16 14/14/14
f 11/11/11 18/18/18 16/16/16
f 11/11/11 19/19/19 18/18/18
f 16/16/16 18/18/18 20/20/20
f 21/21/21 14/22/14 17/23/17
f 14/22/14 21/21/21 22/24/22
f 15/25/15 22/24/22 23/26/23
f 22/24/22 15/25/15 14/27/14
f 12/28/12 23/26/23 24/29/24
f 23/26/23 12/28/12 15/30/15
f 13/31/13 24/29/24 25/32/25
f 24/29/24 13/31/13 12/33/12
f 11/34/11 25/32/25 26/35/26
f 25/32/25 11/34/11 13/36/13
f 19/37/19 26/35/26 27/38/27
f 26/35/26 19/37/19 11/39/11
f 18/40/18 27/38/27 28/41/28
f 27/38/27 18/40/18 19/42/19
f 20/43/20 28/41/28 29/44/29
f 28/41/28 20/43/20 18/45/18
f 10/46/10 30/47/30 31/48/31
f 30/47/30 10/46/10 8/49/8
f 31/48/31 6/50/6 10/51/10
f 6/50/6 31/48/31 32/52/32
f 32/52/32 7/53/7 6/50/6
f 7/53/7 32/52/32 33/54/33
f 33/54/33 4/55/4 7/53/7
f 4/55/4 33/54/33 34/56/34
f 34/56/34 5/57/5 4/55/4
f 5/57/5 34/56/34 35/58/35
f 35/58/35 2/59/2 5/57/5
f 2/59/2 35/58/35 36/60/36
f 36/61/36 3/62/3 2/63/2
f 3/62/3 36/61/36 37/64/37
f 37/64/37 1/65/1 3/62/3
f 1/65/1 37/64/37 38/66/38
f 38/66/38 9/67/9 1/65/1
f 9/67/9 38/66/38 39/68/39
f 39/68/39 8/69/8 9/67/9
f 8/69/8 39/68/39 30/47/30
f 29/44/29 37/64/37 36/61/36
f 37/64/37 29/44/29 28/41/28
f 28/41/28 38/66/38 37/64/37
f 38/66/38 28/41/28 27/38/27
f 27/38/27 39/68/39 38/66/38
f 39/68/39 27/38/27 26/35/26
f 26/35/26 30/47/30 39/68/39
f 30/47/30 26/35/26 25/32/25
f 25/32/25 31/48/31 30/47/30
f 31/48/31 25/32/25 24/29/24
f 24/29/24 32/52/32 31/48/31
f 32/52/32 24/29/24 23/26/23
f 23/26/23 33/54/33 32/52/32
f 33/54/33 23/26/23 22/24/22
f 22/24/22 34/56/34 33/54/33
f 34/56/34 22/24/22 21/21/21
f 21/21/21 35/58/35 34/56/34
f 35/58/35 21/21/21 40/70/40
f 40/70/40 36/60/36 35/58/35
f 36/60/36 40/70/40 29/71/29
f 16/72/16 29/71/29 40/70/40
f 29/71/29 16/72/16 20/73/20
f 40/70/40 17/74/17 16/75/16
f 17/74/17 40/70/40 21/21/21
f 41/76/41 42/77/42 43/78/43
f 41/76/41 43/78/43 44/79/44
f 41/76/41 44/79/44 45/80/45
f 41/76/41 45/80/45 42/77/42
f 46/81/46 47/82/47 48/83/48
f 46/81/46 48/83/48 49/84/49
f 46/81/46 49/84/49 50/85/50
f 46/81/46 50/85/50 47/82/47
f 51/86/51 52/87/52 53/88/53
f 51/86/51 53/88/53 54/89/54
f 51/86/51 54/89/54 55/90/55
f 51/86/51 55/90/55 52/87/52
f 56/91/56 57/92/57 58/93/58
f 56/91/56 58/93/58 59/94/59
f 56/91/56 59/94/59 60/95/60
f 56/91/56 60/95/60 57/92/57
f 61/96/61 62/97/62 63/98/63
f 61/96/61 63/98/63 64/99/64
f 61/96/61 64/99/64 65/100/65
f 61/96/61 65/100/65 62/97/62
