# Blender v2.92.0 OBJ File: ''
# www.blender.org
mtllib Grot Tank Hull.mtl
o Blasta_Hull_Boss_Cube.001_Blasta_Hull_Boss_Cube.002
v -0.538899 -0.339998 1.024259
v -0.538899 0.728947 0.115834
v -0.538899 0.235088 -0.761526
v -0.538899 -0.339998 -0.844917
v 0.530045 0.235088 -0.761526
v 0.530045 -0.339998 -0.844917
v 0.530045 -0.071953 -1.229385
v 0.530045 0.235088 -1.305736
v 0.530045 0.728947 0.115834
v 0.530045 -0.339998 1.024259
v 0.298589 0.571160 0.309640
v 0.285451 0.331365 0.604178
v 0.530045 -0.130104 1.170992
v 0.530045 0.728947 -0.764775
v -0.538899 0.728947 -0.764775
v -0.538899 -0.071953 -1.229385
v -0.538899 0.235088 -1.305736
v -0.538899 -0.130104 1.170992
v -0.116311 0.566028 0.315945
v -0.139140 0.340664 0.592755
v 0.121539 0.346372 0.341722
v 0.042756 0.346429 0.341653
v -0.086914 0.258411 0.455894
v -0.087002 0.250954 0.308693
v 0.239668 0.250953 0.308654
v 0.239668 0.258409 0.455851
v -0.084663 0.525426 0.439924
v -0.085789 0.397742 0.531076
v 0.239668 0.397341 0.531043
v 0.239668 0.525424 0.439881
v -0.084929 0.517894 0.291220
v 0.239668 0.517892 0.291181
v -0.085966 0.377414 0.218899
v 0.239668 0.376773 0.218883
vt 0.388875 0.000382
vt 0.333823 0.043569
vt 0.280654 0.023616
vt 0.275601 0.000382
vt 0.280606 0.023760
vt 0.275452 0.000062
vt 0.253818 0.008136
vt 0.247161 0.020401
vt 0.334838 0.044111
vt 0.390989 0.000062
vt 0.363905 0.000820
vt 0.345998 0.013594
vt 0.333035 0.013843
vt 0.288346 0.000308
vt 0.211181 0.124764
vt 0.211181 0.151603
vt 0.129147 0.151603
vt 0.129147 0.124764
vt 0.439345 0.251257
vt 0.490898 0.252234
vt 0.488823 0.277099
vt 0.439345 0.276285
vt 0.552987 0.252068
vt 0.533132 0.253135
vt 0.531324 0.229843
vt 0.551470 0.229810
vt 0.400059 0.008711
vt 0.397767 0.008862
vt 0.273321 0.043627
vt 0.273321 0.000338
vt 0.288346 0.044173
vt 0.730516 0.294084
vt 0.661777 0.294084
vt 0.661777 0.270548
vt 0.730516 0.270548
vt 0.280405 0.044111
vt 0.280457 0.043569
vt 0.576275 0.229862
vt 0.575273 0.251927
vt 0.247868 0.020257
vt 0.254433 0.008240
vt 0.576844 0.281996
vt 0.487516 0.281996
vt 0.493819 0.253698
vt 0.570541 0.253698
vt 0.363905 0.044565
vt 0.345720 0.024033
vt 0.492557 0.251653
vt 0.440295 0.250625
vt 0.464188 0.239758
vt 0.462353 0.238682
vt 0.333538 0.024536
vt 0.438930 0.228357
vt 0.494757 0.228452
vt 0.844382 0.057331
vt 0.858438 0.057336
vt 0.858440 0.036566
vt 0.844384 0.036566
vt 0.844198 0.057192
vt 0.829236 0.057265
vt 0.829201 0.036572
vt 0.844194 0.036570
vt 0.858399 0.057206
vt 0.858394 0.036568
vt 0.873468 0.057270
vt 0.873516 0.036566
vt 0.829318 0.036566
vt 0.829282 0.057259
vt 0.752499 0.057598
vt 0.744890 0.060685
vt 0.743969 0.048443
vt 0.736499 0.057948
vt 0.736283 0.051561
vt 0.752499 0.051233
vt 0.752488 0.051504
vt 0.752488 0.057883
vt 0.743976 0.060667
vt 0.736283 0.057554
vt 0.736468 0.051190
vt 0.744873 0.048423
vn -0.6164 -0.6983 0.3639
vn -0.6389 0.7248 0.2577
vn -0.9053 0.2994 -0.3013
vn -0.6455 -0.7287 -0.2289
vn 0.9053 0.2994 -0.3013
vn 0.6455 -0.7287 -0.2289
vn 0.6359 -0.4376 -0.6357
vn 0.5656 0.5079 -0.6497
vn 0.6389 0.7248 0.2577
vn 0.6164 -0.6983 0.3639
vn -0.0989 0.7072 0.7000
vn -0.0879 0.8310 0.5493
vn 0.5813 0.1125 0.8059
vn 0.5770 0.5756 -0.5794
vn -0.5770 0.5756 -0.5794
vn -0.6359 -0.4376 -0.6357
vn -0.5656 0.5079 -0.6497
vn -0.5813 0.1125 0.8059
vn 0.1108 0.6932 0.7122
vn 0.0929 0.8249 0.5576
vn -0.1933 0.7273 0.6585
vn 0.2140 0.7205 0.6596
vn -0.6145 -0.6663 0.4225
vn -0.6164 -0.7082 -0.3442
vn 0.6133 -0.7110 -0.3442
vn 0.6117 -0.6690 0.4222
vn -0.6100 0.7138 0.3439
vn -0.6051 0.0524 0.7944
vn 0.6053 0.0489 0.7945
vn 0.6133 0.7111 0.3439
vn -0.6082 0.6678 -0.4292
vn 0.6100 0.6656 -0.4299
vn -0.6071 -0.0540 -0.7928
vn 0.6066 -0.0578 -0.7929
usemtl Material
s 1
f 1/1/1 2/2/2 3/3/3 4/4/4
f 5/5/5 6/6/6 7/7/7 8/8/8
f 6/6/6 5/5/5 9/9/9 10/10/10
f 9/11/9 11/12/11 12/13/12 13/14/13
f 4/15/4 6/16/6 10/17/10 1/18/1
f 14/19/14 15/20/15 2/21/2 9/22/9
f 16/23/16 17/24/17 8/25/8 7/26/7
f 10/10/10 9/9/9 13/27/13
f 2/2/2 1/1/1 18/28/18
f 1/29/1 10/30/10 13/14/13 18/31/18
f 5/32/5 3/33/3 15/34/15 14/35/14
f 9/9/9 5/5/5 14/36/14
f 3/3/3 2/2/2 15/37/15
f 6/38/6 4/39/4 16/23/16 7/26/7
f 4/4/4 3/3/3 17/40/17 16/41/16
f 3/42/3 5/43/5 8/44/8 17/45/17
f 2/46/2 19/47/19 11/12/11 9/11/9
f 20/48/20 12/49/12 21/50/21 22/51/22
f 19/47/19 2/46/2 20/52/20
f 13/14/13 12/13/12 20/52/20 18/31/18
f 18/31/18 20/52/20 2/46/2
f 11/53/11 19/54/19 22/51/22 21/50/21
f 19/54/19 20/48/20 22/51/22
f 12/49/12 11/53/11 21/50/21
f 23/55/23 24/56/24 25/57/25 26/58/26
f 27/59/27 28/60/28 29/61/29 30/62/30
f 31/63/31 27/59/27 30/62/30 32/64/32
f 24/56/24 33/65/33 34/66/34 25/57/25
f 34/66/34 33/65/33 31/63/31 32/64/32
f 29/67/29 28/68/28 23/55/23 26/58/26
f 26/69/26 25/70/25 30/71/30
f 25/70/25 34/72/34 30/71/30
f 34/72/34 32/73/32 30/71/30
f 29/74/29 26/69/26 30/71/30
f 23/75/23 28/76/28 27/77/27
f 31/78/31 33/79/33 27/77/27
f 24/80/24 23/75/23 27/77/27
f 33/79/33 24/80/24 27/77/27
