# Blender v2.92.0 OBJ File: 'Kannonwagon.blend'
# www.blender.org
mtllib Side Gubbinz 1.mtl
o Body.011_Body_battlewagon_body0_model0.014
v -0.048967 -0.277131 -0.309118
v -0.048715 -0.480415 -0.284578
v -0.048968 -0.307347 -0.197766
v -0.015559 -0.307347 -0.197766
v -0.015812 -0.480415 -0.280807
v -0.015558 -0.277131 -0.309118
v -0.102019 0.057326 0.295301
v -0.029458 0.052457 0.624594
v -0.074645 0.052457 0.624593
v -0.007450 0.057325 0.295303
v -0.085805 0.064301 -0.176497
v 0.001910 0.064301 -0.176497
v -0.102014 0.070292 -0.581704
v -0.033594 0.070292 -0.581703
v -0.040959 0.220576 0.298149
v -0.095492 0.252156 0.631525
v -0.050304 0.252156 0.631525
v -0.102018 0.220577 0.298149
v -0.031598 0.240288 -0.173753
v -0.085804 0.240288 -0.173753
v -0.102013 0.252146 -0.588638
v -0.033593 0.252146 -0.588638
v -0.048967 -0.227053 -0.323456
v -0.015557 -0.277132 -0.434807
v -0.048966 -0.277131 -0.434807
v -0.015557 -0.227053 -0.323456
v -0.012209 -0.419161 -0.419808
v -0.045112 -0.419161 -0.423579
v -0.052317 -0.474689 -0.396954
v -0.019413 -0.474689 -0.393184
v -0.102021 -0.380544 0.088886
v -0.033600 -0.397864 -0.063127
v -0.033601 -0.380544 0.088886
v -0.102020 -0.397863 -0.063127
v -0.102019 -0.018870 0.121539
v -0.033597 -0.018872 -0.103890
v -0.102018 -0.018872 -0.103891
v -0.033599 -0.018870 0.121539
v -0.036886 -0.430997 0.049315
v -0.005959 -0.452852 0.024484
v 0.006141 -0.433545 0.046697
v -0.048986 -0.450304 0.027102
v 0.008422 -0.229119 0.079551
v -0.035146 -0.226539 0.079551
v 0.008422 -0.281986 -0.005755
v -0.035145 -0.279406 -0.005755
v -0.116612 -0.086019 0.601274
v -0.015645 -0.084733 0.563668
v -0.015646 -0.084732 0.601275
v -0.116612 -0.086019 0.563668
v -0.144586 0.120584 0.608942
v -0.043619 0.121871 0.555997
v -0.144586 0.120584 0.555996
v -0.043619 0.121871 0.608943
v -0.116609 -0.086022 0.295863
v -0.015643 -0.084735 0.258257
v -0.015643 -0.084735 0.295863
v -0.116609 -0.086022 0.258256
v -0.144583 0.120582 0.303531
v -0.043617 0.121868 0.250585
v -0.144583 0.120581 0.250584
v -0.043617 0.121869 0.303531
v -0.116608 -0.086024 0.012820
v -0.015641 -0.084737 -0.024786
v -0.015641 -0.084737 0.012821
v -0.116608 -0.086024 -0.024786
v -0.144582 0.120580 0.020489
v -0.043615 0.121866 -0.032457
v -0.144582 0.120579 -0.032458
v -0.043615 0.121867 0.020489
v -0.116606 -0.086026 -0.203936
v -0.015640 -0.084739 -0.241542
v -0.015640 -0.084739 -0.203936
v -0.116606 -0.086026 -0.241543
v -0.144581 0.120578 -0.196268
v -0.043614 0.121864 -0.249214
v -0.144580 0.120577 -0.249214
v -0.043614 0.121865 -0.196267
v -0.116605 -0.086028 -0.534109
v -0.015638 -0.084742 -0.571716
v -0.015638 -0.084742 -0.534109
v -0.116604 -0.086029 -0.571716
v -0.144578 0.120575 -0.526441
v -0.043612 0.121862 -0.579387
v -0.144578 0.120575 -0.579388
v -0.043612 0.121862 -0.526441
v -0.011621 -0.274371 -0.558293
v -0.013364 -0.454551 -0.489827
v -0.022603 -0.477504 -0.518822
v -0.011621 -0.274370 -0.446942
v -0.046219 -0.451522 -0.486409
v -0.044890 -0.271302 -0.446942
v -0.055458 -0.474475 -0.515405
v -0.044889 -0.271303 -0.558293
v -0.033594 -0.018877 -0.638985
v -0.033599 -0.380547 -0.200298
v -0.033597 -0.354002 -0.564668
v -0.033597 -0.018872 -0.125987
v -0.102019 -0.380547 -0.200298
v -0.102017 -0.018872 -0.125987
v -0.102017 -0.354002 -0.564669
v -0.102014 -0.018876 -0.638986
v 0.008421 -0.245167 0.252959
v 0.006138 -0.481132 0.342623
v -0.005962 -0.511191 0.304651
v 0.008421 -0.162858 0.398785
v -0.036888 -0.477165 0.347098
v -0.035147 -0.158841 0.398785
v -0.048988 -0.507224 0.309127
v -0.035146 -0.241150 0.252959
v 0.003554 -0.243317 0.459128
v -0.001496 -0.502038 0.513638
v 0.007939 -0.517039 0.478771
v 0.003553 -0.282888 0.604954
v -0.044587 -0.502038 0.508700
v -0.040200 -0.282888 0.604954
v -0.035151 -0.517038 0.473833
v -0.040199 -0.243317 0.459128
v -0.033599 -0.018870 0.171546
v -0.033604 -0.380540 0.610234
v -0.033602 -0.346376 0.245863
v -0.033602 -0.018866 0.684545
v -0.102024 -0.380540 0.610233
v -0.102022 -0.018865 0.684544
v -0.102022 -0.346375 0.245863
v -0.102019 -0.018869 0.171546
vt 0.697395 0.192911
vt 0.692152 0.184370
vt 0.689607 0.192931
vt 0.689607 0.192931
vt 0.692152 0.184370
vt 0.697395 0.192911
vt 0.293277 0.188731
vt 0.271206 0.192760
vt 0.271036 0.190737
vt 0.293453 0.192991
vt 0.325557 0.189361
vt 0.325269 0.193305
vt 0.353167 0.190507
vt 0.352669 0.193576
vt 0.293241 0.200351
vt 0.270997 0.203802
vt 0.270772 0.201782
vt 0.293240 0.203099
vt 0.325100 0.201237
vt 0.324938 0.203678
vt 0.352990 0.204856
vt 0.353105 0.201771
vt 0.293218 0.200383
vt 0.271183 0.192805
vt 0.270715 0.201806
vt 0.293410 0.193024
vt 0.325071 0.201272
vt 0.325256 0.193339
vt 0.352608 0.193609
vt 0.353076 0.201806
vt 0.572224 0.154786
vt 0.570612 0.149206
vt 0.572828 0.149506
vt 0.569968 0.154692
vt 0.571620 0.147748
vt 0.561840 0.146575
vt 0.562904 0.145252
vt 0.557622 0.144948
vt 0.557689 0.146426
vt 0.561646 0.145091
vt 0.569968 0.154692
vt 0.561840 0.146575
vt 0.557689 0.146426
vt 0.570612 0.149206
vt 0.556090 0.147502
vt 0.568172 0.155733
vt 0.670211 0.186555
vt 0.680963 0.188831
vt 0.670716 0.189606
vt 0.680407 0.185787
vt 0.668489 0.208972
vt 0.683720 0.205891
vt 0.683706 0.208972
vt 0.668505 0.205893
vt 0.688291 0.205529
vt 0.685555 0.188544
vt 0.668505 0.205893
vt 0.680963 0.188831
vt 0.670716 0.189606
vt 0.683720 0.205891
vt 0.666090 0.189361
vt 0.663894 0.205597
vt 0.691303 0.196467
vt 0.693806 0.197291
vt 0.692467 0.198272
vt 0.692545 0.195563
vt 0.692034 0.207583
vt 0.689512 0.198420
vt 0.688901 0.207744
vt 0.694136 0.208966
vt 0.697342 0.204772
vt 0.699064 0.206372
vt 0.700284 0.203961
vt 0.696594 0.196603
vt 0.692034 0.207583
vt 0.693806 0.197291
vt 0.692467 0.198272
vt 0.697342 0.204772
vt 0.729977 0.224925
vt 0.732515 0.229476
vt 0.729977 0.229476
vt 0.732515 0.224925
vt 0.747100 0.229115
vt 0.750675 0.224563
vt 0.750674 0.229115
vt 0.747100 0.224563
vt 0.757466 0.224950
vt 0.750157 0.215212
vt 0.756948 0.215598
vt 0.761028 0.224754
vt 0.759481 0.215492
vt 0.740829 0.215578
vt 0.747619 0.215212
vt 0.740307 0.224969
vt 0.357719 0.201660
vt 0.357284 0.193468
vt 0.268164 0.192894
vt 0.267728 0.201940
vt 0.729977 0.224992
vt 0.732515 0.229544
vt 0.729977 0.229544
vt 0.732515 0.224992
vt 0.725086 0.229102
vt 0.728661 0.224551
vt 0.728660 0.229102
vt 0.725086 0.224551
vt 0.735452 0.224937
vt 0.728142 0.215198
vt 0.734934 0.215584
vt 0.739014 0.224740
vt 0.737467 0.215479
vt 0.718814 0.215564
vt 0.725605 0.215198
vt 0.718293 0.224956
vt 0.729977 0.224925
vt 0.732515 0.229476
vt 0.729977 0.229476
vt 0.732515 0.224925
vt 0.725086 0.229035
vt 0.728661 0.224483
vt 0.728660 0.229035
vt 0.725086 0.224483
vt 0.735452 0.224869
vt 0.728142 0.215132
vt 0.734934 0.215517
vt 0.739014 0.224674
vt 0.737467 0.215411
vt 0.718814 0.215498
vt 0.725605 0.215132
vt 0.718293 0.224889
vt 0.754580 0.224992
vt 0.757118 0.229544
vt 0.754580 0.229544
vt 0.757118 0.224992
vt 0.770541 0.229102
vt 0.774116 0.224551
vt 0.774116 0.229102
vt 0.770541 0.224551
vt 0.780907 0.224937
vt 0.773598 0.215198
vt 0.780389 0.215584
vt 0.784469 0.224740
vt 0.782922 0.215479
vt 0.764270 0.215564
vt 0.771060 0.215198
vt 0.763748 0.224956
vt 0.729977 0.224925
vt 0.732515 0.229476
vt 0.729977 0.229476
vt 0.732515 0.224925
vt 0.725086 0.229035
vt 0.728661 0.224483
vt 0.728660 0.229035
vt 0.725086 0.224483
vt 0.735452 0.224869
vt 0.728142 0.215132
vt 0.734934 0.215517
vt 0.739014 0.224674
vt 0.737467 0.215411
vt 0.718814 0.215498
vt 0.725605 0.215132
vt 0.718293 0.224889
vt 0.713135 0.209425
vt 0.713185 0.200678
vt 0.715581 0.200208
vt 0.706165 0.207547
vt 0.711104 0.199989
vt 0.704278 0.206734
vt 0.713120 0.199172
vt 0.715286 0.198746
vt 0.706165 0.207547
vt 0.715581 0.200208
vt 0.713185 0.200678
vt 0.713135 0.209425
vt 0.715342 0.209727
vt 0.717853 0.200562
vt 0.705297 0.208930
vt 0.712265 0.210849
vt 0.689909 0.184364
vt 0.687368 0.192509
vt 0.699468 0.192241
vt 0.694215 0.183545
vt 0.689671 0.194437
vt 0.697357 0.194417
vt 0.714137 0.229148
vt 0.684536 0.212931
vt 0.709128 0.214130
vt 0.679523 0.229150
vt 0.679994 0.212498
vt 0.675080 0.228467
vt 0.679523 0.229150
vt 0.709128 0.214130
vt 0.684536 0.212931
vt 0.714137 0.229148
vt 0.718631 0.228408
vt 0.713734 0.213660
vt 0.679551 0.232252
vt 0.714178 0.232252
vt 0.684941 0.209963
vt 0.709470 0.211159
vt 0.660129 0.201598
vt 0.651976 0.191521
vt 0.654288 0.189977
vt 0.650993 0.206042
vt 0.648960 0.191773
vt 0.647766 0.206260
vt 0.650397 0.189853
vt 0.652501 0.188457
vt 0.650993 0.206042
vt 0.654288 0.189977
vt 0.651976 0.191521
vt 0.660129 0.201598
vt 0.663197 0.200805
vt 0.657198 0.189363
vt 0.653095 0.207437
vt 0.661669 0.203287
vt 0.644471 0.204772
vt 0.636282 0.194232
vt 0.638249 0.193136
vt 0.634275 0.204938
vt 0.633304 0.194262
vt 0.631289 0.204514
vt 0.633988 0.193031
vt 0.635831 0.192017
vt 0.634275 0.204938
vt 0.638249 0.193136
vt 0.636282 0.194232
vt 0.644471 0.204772
vt 0.647308 0.204066
vt 0.641035 0.192414
vt 0.634392 0.206909
vt 0.644428 0.206745
vt 0.670129 0.227679
vt 0.640518 0.211376
vt 0.665113 0.212917
vt 0.635502 0.227679
vt 0.635928 0.210836
vt 0.631005 0.226975
vt 0.635502 0.227679
vt 0.665113 0.212917
vt 0.640518 0.211376
vt 0.670129 0.227679
vt 0.674602 0.226905
vt 0.669689 0.212328
vt 0.635476 0.230846
vt 0.670160 0.230854
vt 0.640992 0.208308
vt 0.665504 0.209843
vn -0.5589 0.6227 -0.5476
vn -0.5305 -0.8251 -0.1947
vn -0.5679 0.3358 0.7515
vn 0.5675 0.3366 0.7514
vn 0.5438 -0.8356 -0.0782
vn 0.5594 0.6219 -0.5480
vn -0.7196 -0.6944 0.0072
vn 0.6017 -0.5616 0.5679
vn -0.5316 -0.6172 0.5801
vn 0.7787 -0.6270 0.0243
vn -0.6985 -0.7155 -0.0086
vn 0.7807 -0.6240 -0.0339
vn -0.5927 -0.5805 -0.5584
vn 0.5739 -0.5800 -0.5782
vn 0.6543 0.7562 0.0091
vn -0.5955 0.5727 0.5634
vn 0.5306 0.6235 0.5742
vn -0.7350 0.6780 -0.0062
vn 0.6487 0.7610 0.0111
vn -0.6970 0.7165 0.0274
vn -0.5858 0.5743 -0.5718
vn 0.5724 0.5765 -0.5830
vn -0.5527 0.6273 0.5486
vn 0.6023 0.3956 -0.6934
vn -0.6054 0.3934 -0.6919
vn 0.5523 0.6272 0.5492
vn 0.8310 -0.1783 -0.5268
vn -0.5691 -0.1743 -0.8036
vn -0.5782 -0.8158 0.0081
vn 0.5212 -0.8421 0.1385
vn -0.5888 -0.5648 0.5782
vn 0.5770 -0.6376 -0.5104
vn 0.5888 -0.5648 0.5782
vn -0.5770 -0.6376 -0.5104
vn -0.5728 0.5530 0.6051
vn 0.5719 0.5481 -0.6103
vn -0.5719 0.5482 -0.6103
vn 0.5728 0.5530 0.6051
vn -0.3978 -0.3769 0.8365
vn 0.3908 -0.8561 -0.3381
vn 0.7300 -0.4626 0.5031
vn -0.6530 -0.7318 -0.1952
vn 0.5702 0.6766 0.4658
vn -0.5148 0.7266 0.4550
vn 0.6146 0.3031 -0.7283
vn -0.5599 0.3640 -0.7443
vn -0.5315 -0.6250 0.5717
vn 0.6241 -0.5448 -0.5600
vn 0.6241 -0.5448 0.5601
vn -0.5315 -0.6250 -0.5717
vn -0.6190 0.5272 0.5822
vn 0.5290 0.6040 -0.5961
vn -0.6190 0.5272 -0.5822
vn 0.5290 0.6040 0.5961
vn 0.6241 -0.5448 0.5600
vn -0.5314 -0.6250 -0.5717
vn 0.5922 0.4874 -0.6417
vn 0.7044 -0.4691 0.5327
vn 0.4243 -0.8354 -0.3494
vn 0.5901 0.4808 0.6486
vn -0.4757 -0.4120 0.7772
vn -0.5299 0.5571 0.6394
vn -0.6441 -0.7355 -0.2101
vn -0.5301 0.5649 -0.6324
vn 0.5667 0.5157 -0.6426
vn 0.5845 -0.6471 0.4896
vn 0.5942 -0.6086 -0.5259
vn 0.5674 0.5204 0.6381
vn -0.5845 -0.6471 0.4896
vn -0.5674 0.5204 0.6381
vn -0.5942 -0.6086 -0.5259
vn -0.5667 0.5157 -0.6426
vn 0.6134 0.3051 -0.7285
vn 0.7029 -0.4530 0.5484
vn 0.5788 0.6529 0.4886
vn -0.4768 -0.3888 0.7884
vn -0.5115 0.7196 0.4696
vn -0.6447 -0.7354 -0.2085
vn -0.5617 0.3764 -0.7367
vn 0.5665 0.6355 -0.5246
vn 0.5211 -0.5451 0.6567
vn 0.6491 -0.6810 -0.3390
vn 0.5758 0.3509 0.7384
vn -0.7800 -0.4947 0.3834
vn -0.5751 0.3514 0.7388
vn -0.4930 -0.7005 -0.5159
vn -0.5664 0.6354 -0.5248
vn 0.5665 0.5142 -0.6439
vn 0.5833 -0.6528 0.4833
vn 0.5958 -0.6035 -0.5299
vn 0.5674 0.5204 0.6382
vn -0.5833 -0.6528 0.4833
vn -0.5959 -0.6035 -0.5299
vn -0.5665 0.5142 -0.6439
usemtl battlewagon_dif
s 1
f 1/1/1 2/2/2 3/3/3
f 4/4/4 5/5/5 6/6/6
f 7/7/7 8/8/8 9/9/9
f 8/8/8 7/7/7 10/10/10
f 11/11/11 10/10/10 7/7/7
f 10/10/10 11/11/11 12/12/12
f 13/13/13 12/12/12 11/11/11
f 12/12/12 13/13/13 14/14/14
f 15/15/15 16/16/16 17/17/17
f 16/16/16 15/15/15 18/18/18
f 19/19/19 18/18/18 15/15/15
f 18/18/18 19/19/19 20/20/20
f 19/19/19 21/21/21 20/20/20
f 21/21/21 19/19/19 22/22/22
f 18/23/18 9/24/9 16/25/16
f 9/24/9 18/23/18 7/26/7
f 20/27/20 7/26/7 18/23/18
f 7/26/7 20/27/20 11/28/11
f 20/27/20 13/29/13 11/28/11
f 13/29/13 20/27/20 21/30/21
f 19/19/19 14/14/14 22/22/22
f 14/14/14 19/19/19 12/12/12
f 15/15/15 12/12/12 19/19/19
f 12/12/12 15/15/15 10/10/10
f 15/15/15 8/8/8 10/10/10
f 8/8/8 15/15/15 17/17/17
f 23/31/23 24/32/24 25/33/25
f 24/32/24 23/31/23 26/34/26
f 25/35/25 27/36/27 28/37/28
f 27/36/27 25/35/25 24/32/24
f 29/38/29 27/36/27 30/39/30
f 27/36/27 29/38/29 28/40/28
f 23/41/23 28/42/28 29/43/29
f 28/42/28 23/41/23 25/44/25
f 26/34/26 29/45/29 30/39/30
f 29/45/29 26/34/26 23/46/23
f 24/32/24 30/39/30 27/36/27
f 30/39/30 24/32/24 26/34/26
f 31/47/31 32/48/32 33/49/33
f 32/48/32 31/47/31 34/50/34
f 35/51/35 36/52/36 37/53/37
f 36/52/36 35/51/35 38/54/38
f 37/55/37 32/48/32 34/56/34
f 32/48/32 37/55/37 36/52/36
f 35/57/35 34/58/34 31/59/31
f 34/58/34 35/57/35 37/60/37
f 38/54/38 31/61/31 33/49/33
f 31/61/31 38/54/38 35/62/35
f 36/52/36 33/49/33 32/48/32
f 33/49/33 36/52/36 38/54/38
f 39/63/39 40/64/40 41/65/41
f 40/64/40 39/63/39 42/66/42
f 43/67/43 39/68/39 41/65/41
f 39/68/39 43/67/43 44/69/44
f 44/70/44 45/71/45 46/72/46
f 45/71/45 44/70/44 43/67/43
f 46/73/46 40/64/40 42/74/42
f 40/64/40 46/73/46 45/71/45
f 44/75/44 42/76/42 39/77/39
f 42/76/42 44/75/44 46/78/46
f 45/71/45 41/65/41 40/64/40
f 41/65/41 45/71/45 43/67/43
f 47/79/47 48/80/48 49/81/49
f 48/80/48 47/79/47 50/82/50
f 51/83/51 52/84/52 53/85/53
f 52/84/52 51/83/51 54/86/54
f 53/87/53 48/88/48 50/89/50
f 48/88/48 53/87/53 52/84/52
f 51/90/51 50/89/50 47/91/47
f 50/89/50 51/90/51 53/87/53
f 54/86/54 47/92/47 49/93/49
f 47/92/47 54/86/54 51/94/51
f 52/84/52 49/93/49 48/88/48
f 49/93/49 52/84/52 54/86/54
f 21/95/21 14/14/14 13/96/13
f 14/14/14 21/95/21 22/22/22
f 17/17/17 9/97/9 8/8/8
f 9/97/9 17/17/17 16/98/16
f 55/99/47 56/100/48 57/101/55
f 56/100/48 55/99/47 58/102/50
f 59/103/51 60/104/52 61/105/53
f 60/104/52 59/103/51 62/106/54
f 61/107/53 56/108/48 58/109/50
f 56/108/48 61/107/53 60/104/52
f 59/110/51 58/109/50 55/111/47
f 58/109/50 59/110/51 61/107/53
f 62/106/54 55/112/47 57/113/55
f 55/112/47 62/106/54 59/114/51
f 60/104/52 57/113/55 56/108/48
f 57/113/55 60/104/52 62/106/54
f 63/115/47 64/116/48 65/117/49
f 64/116/48 63/115/47 66/118/50
f 67/119/51 68/120/52 69/121/53
f 68/120/52 67/119/51 70/122/54
f 69/123/53 64/124/48 66/125/50
f 64/124/48 69/123/53 68/120/52
f 67/126/51 66/125/50 63/127/47
f 66/125/50 67/126/51 69/123/53
f 70/122/54 63/128/47 65/129/49
f 63/128/47 70/122/54 67/130/51
f 68/120/52 65/129/49 64/124/48
f 65/129/49 68/120/52 70/122/54
f 71/131/47 72/132/48 73/133/55
f 72/132/48 71/131/47 74/134/50
f 75/135/51 76/136/52 77/137/53
f 76/136/52 75/135/51 78/138/54
f 77/139/53 72/140/48 74/141/50
f 72/140/48 77/139/53 76/136/52
f 75/142/51 74/141/50 71/143/47
f 74/141/50 75/142/51 77/139/53
f 78/138/54 71/144/47 73/145/55
f 71/144/47 78/138/54 75/146/51
f 76/136/52 73/145/55 72/140/48
f 73/145/55 76/136/52 78/138/54
f 79/147/47 80/148/48 81/149/55
f 80/148/48 79/147/47 82/150/56
f 83/151/51 84/152/52 85/153/53
f 84/152/52 83/151/51 86/154/54
f 85/155/53 80/156/48 82/157/56
f 80/156/48 85/155/53 84/152/52
f 83/158/51 82/157/56 79/159/47
f 82/157/56 83/158/51 85/155/53
f 86/154/54 79/160/47 81/161/55
f 79/160/47 86/154/54 83/162/51
f 84/152/52 81/161/55 80/156/48
f 81/161/55 84/152/52 86/154/54
f 87/163/57 88/164/58 89/165/59
f 88/164/58 87/163/57 90/166/60
f 90/166/60 91/167/61 88/164/58
f 91/167/61 90/166/60 92/168/62
f 91/169/61 89/165/59 88/164/58
f 89/165/59 91/169/61 93/170/63
f 92/171/62 93/172/63 91/173/61
f 93/172/63 92/171/62 94/174/64
f 94/175/64 89/165/59 93/176/63
f 89/165/59 94/175/64 87/163/57
f 92/177/62 87/163/57 94/178/64
f 87/163/57 92/177/62 90/166/60
f 4/4/4 2/179/2 5/5/5
f 2/179/2 4/4/4 3/180/3
f 1/181/1 5/5/5 2/182/2
f 5/5/5 1/181/1 6/6/6
f 3/183/3 6/6/6 1/184/1
f 6/6/6 3/183/3 4/4/4
f 95/185/65 96/186/66 97/187/67
f 96/186/66 95/185/65 98/188/68
f 98/188/68 99/189/69 96/186/66
f 99/189/69 98/188/68 100/190/70
f 100/191/70 101/192/71 99/193/69
f 101/192/71 100/191/70 102/194/72
f 102/195/72 97/187/67 101/196/71
f 97/187/67 102/195/72 95/185/65
f 100/197/70 95/185/65 102/198/72
f 95/185/65 100/197/70 98/188/68
f 99/199/69 97/187/67 96/186/66
f 97/187/67 99/199/69 101/200/71
f 103/201/73 104/202/74 105/203/59
f 104/202/74 103/201/73 106/204/75
f 106/204/75 107/205/76 104/202/74
f 107/205/76 106/204/75 108/206/77
f 107/207/76 105/203/59 104/202/74
f 105/203/59 107/207/76 109/208/78
f 108/209/77 109/210/78 107/211/76
f 109/210/78 108/209/77 110/212/79
f 110/213/79 105/203/59 109/214/78
f 105/203/59 110/213/79 103/201/73
f 108/215/77 103/201/73 110/216/79
f 103/201/73 108/215/77 106/204/75
f 111/217/80 112/218/81 113/219/82
f 112/218/81 111/217/80 114/220/83
f 114/220/83 115/221/84 112/218/81
f 115/221/84 114/220/83 116/222/85
f 115/223/84 113/219/82 112/218/81
f 113/219/82 115/223/84 117/224/86
f 116/225/85 117/226/86 115/227/84
f 117/226/86 116/225/85 118/228/87
f 118/229/87 113/219/82 117/230/86
f 113/219/82 118/229/87 111/217/80
f 116/231/85 111/217/80 118/232/87
f 111/217/80 116/231/85 114/220/83
f 119/233/88 120/234/89 121/235/90
f 120/234/89 119/233/88 122/236/91
f 122/236/91 123/237/92 120/234/89
f 123/237/92 122/236/91 124/238/70
f 124/239/70 125/240/93 123/241/92
f 125/240/93 124/239/70 126/242/94
f 126/243/94 121/235/90 125/244/93
f 121/235/90 126/243/94 119/233/88
f 124/245/70 119/233/88 126/246/94
f 119/233/88 124/245/70 122/236/91
f 123/247/92 121/235/90 120/234/89
f 121/235/90 123/247/92 125/248/93
