v 0.03992 0.1144 0.456283
v 0.0 0.0 0.492126
v 0.085457 0.0 0.484649
v 0.118546 0.1144 0.442419
v 0.078198 0.1248 0.443485
v 0.0 0.1248 0.450326
v 0.038098 0.13 0.435463
v 0.113137 0.13 0.422231
v 0.168317 0.0 0.462447
v 0.19357 0.1144 0.415113
v 0.154021 0.1248 0.423168
v 0.184737 0.13 0.396171
v 0.113137 0.13 0.422231
v 0.184737 0.13 0.396171
v 0.038098 0.13 0.435463
v 0.085457 0.0 0.484649
v 0.0 0.0 0.492126
v 0.168317 0.0 0.462447
v 0.246063 0.0 0.426194
v 0.262713 0.1144 0.375193
v 0.225163 0.1248 0.389994
v 0.250725 0.13 0.358073
v 0.250725 0.13 0.358073
v 0.246063 0.0 0.426194
v 0.316332 0.0 0.37699
v 0.323873 0.1144 0.323873
v 0.289464 0.1248 0.34497
v 0.309095 0.13 0.309095
v 0.309095 0.13 0.309095
v 0.316332 0.0 0.37699
v 0.37699 0.0 0.316332
v 0.375193 0.1144 0.262713
v 0.34497 0.1248 0.289464
v 0.358073 0.13 0.250725
v 0.358073 0.13 0.250725
v 0.37699 0.0 0.316332
v 0.426194 0.0 0.246063
v 0.415113 0.1144 0.19357
v 0.389994 0.1248 0.225163
v 0.396171 0.13 0.184737
v 0.396171 0.13 0.184737
v 0.426194 0.0 0.246063
v 0.462447 0.0 0.168317
v 0.442419 0.1144 0.118546
v 0.423168 0.1248 0.154021
v 0.422231 0.13 0.113137
v 0.422231 0.13 0.113137
v 0.462447 0.0 0.168317
v 0.484649 0.0 0.085457
v 0.456283 0.1144 0.03992
v 0.443485 0.1248 0.078198
v 0.435463 0.13 0.038098
v 0.435463 0.13 0.038098
v 0.484649 0.0 0.085457
v 0.492126 0.0 0.0
v 0.456283 0.1144 -0.03992
v 0.450326 0.1248 0.0
v 0.435463 0.13 -0.038098
v 0.435463 0.13 -0.038098
v 0.492126 0.0 0.0
v 0.484649 0.0 -0.085457
v 0.442419 0.1144 -0.118546
v 0.443485 0.1248 -0.078198
v 0.422231 0.13 -0.113137
v 0.422231 0.13 -0.113137
v 0.484649 0.0 -0.085457
v 0.462447 0.0 -0.168317
v 0.415113 0.1144 -0.19357
v 0.423168 0.1248 -0.154021
v 0.396171 0.13 -0.184737
v 0.396171 0.13 -0.184737
v 0.462447 0.0 -0.168317
v 0.426194 0.0 -0.246063
v 0.375193 0.1144 -0.262713
v 0.389994 0.1248 -0.225163
v 0.358073 0.13 -0.250725
v 0.358073 0.13 -0.250725
v 0.426194 0.0 -0.246063
v 0.37699 0.0 -0.316332
v 0.323873 0.1144 -0.323873
v 0.34497 0.1248 -0.289464
v 0.309095 0.13 -0.309095
v 0.309095 0.13 -0.309095
v 0.37699 0.0 -0.316332
v 0.316332 0.0 -0.37699
v 0.262713 0.1144 -0.375193
v 0.289464 0.1248 -0.34497
v 0.250725 0.13 -0.358073
v 0.250725 0.13 -0.358073
v 0.316332 0.0 -0.37699
v 0.246063 0.0 -0.426194
v 0.19357 0.1144 -0.415113
v 0.225163 0.1248 -0.389994
v 0.184737 0.13 -0.396171
v 0.184737 0.13 -0.396171
v 0.246063 0.0 -0.426194
v 0.168317 0.0 -0.462447
v 0.118546 0.1144 -0.442419
v 0.154021 0.1248 -0.423168
v 0.113137 0.13 -0.422231
v 0.113137 0.13 -0.422231
v 0.168317 0.0 -0.462447
v 0.085457 0.0 -0.484649
v 0.03992 0.1144 -0.456283
v 0.078198 0.1248 -0.443485
v 0.038098 0.13 -0.435463
v 0.038098 0.13 -0.435463
v 0.085457 0.0 -0.484649
v 0.0 0.0 -0.492126
v -0.03992 0.1144 -0.456283
v 0.0 0.1248 -0.450326
v -0.038098 0.13 -0.435463
v -0.038098 0.13 -0.435463
v 0.0 0.0 -0.492126
v -0.085457 0.0 -0.484649
v -0.118546 0.1144 -0.442419
v -0.078198 0.1248 -0.443485
v -0.113137 0.13 -0.422231
v -0.113137 0.13 -0.422231
v -0.085457 0.0 -0.484649
v -0.168317 0.0 -0.462447
v -0.19357 0.1144 -0.415113
v -0.154021 0.1248 -0.423168
v -0.184737 0.13 -0.396171
v -0.184737 0.13 -0.396171
v -0.168317 0.0 -0.462447
v -0.246063 0.0 -0.426194
v -0.262713 0.1144 -0.375193
v -0.225163 0.1248 -0.389994
v -0.250725 0.13 -0.358073
v -0.250725 0.13 -0.358073
v -0.246063 0.0 -0.426194
v -0.316332 0.0 -0.37699
v -0.323873 0.1144 -0.323873
v -0.289464 0.1248 -0.34497
v -0.309095 0.13 -0.309095
v -0.309095 0.13 -0.309095
v -0.316332 0.0 -0.37699
v -0.37699 0.0 -0.316332
v -0.375193 0.1144 -0.262713
v -0.34497 0.1248 -0.289464
v -0.358073 0.13 -0.250725
v -0.358073 0.13 -0.250725
v -0.37699 0.0 -0.316332
v -0.426194 0.0 -0.246063
v -0.415113 0.1144 -0.19357
v -0.389994 0.1248 -0.225163
v -0.396171 0.13 -0.184737
v -0.396171 0.13 -0.184737
v -0.426194 0.0 -0.246063
v -0.462447 0.0 -0.168317
v -0.442419 0.1144 -0.118546
v -0.423168 0.1248 -0.154021
v -0.422231 0.13 -0.113137
v -0.422231 0.13 -0.113137
v -0.462447 0.0 -0.168317
v -0.484649 0.0 -0.085457
v -0.456283 0.1144 -0.03992
v -0.443485 0.1248 -0.078198
v -0.435463 0.13 -0.038098
v -0.435463 0.13 -0.038098
v -0.484649 0.0 -0.085457
v -0.492126 0.0 -0.0
v -0.456283 0.1144 0.03992
v -0.450326 0.1248 -0.0
v -0.435463 0.13 0.038098
v -0.435463 0.13 0.038098
v -0.492126 0.0 -0.0
v -0.484649 0.0 0.085457
v -0.442419 0.1144 0.118546
v -0.443485 0.1248 0.078198
v -0.422231 0.13 0.113137
v -0.422231 0.13 0.113137
v -0.484649 0.0 0.085457
v -0.462447 0.0 0.168317
v -0.415113 0.1144 0.19357
v -0.423168 0.1248 0.154021
v -0.396171 0.13 0.184737
v -0.396171 0.13 0.184737
v -0.462447 0.0 0.168317
v -0.426194 0.0 0.246063
v -0.375193 0.1144 0.262713
v -0.389994 0.1248 0.225163
v -0.358073 0.13 0.250725
v -0.358073 0.13 0.250725
v -0.426194 0.0 0.246063
v -0.37699 0.0 0.316332
v -0.323873 0.1144 0.323873
v -0.34497 0.1248 0.289464
v -0.309095 0.13 0.309095
v -0.309095 0.13 0.309095
v -0.37699 0.0 0.316332
v -0.316332 0.0 0.37699
v -0.262713 0.1144 0.375193
v -0.289464 0.1248 0.34497
v -0.250725 0.13 0.358073
v -0.250725 0.13 0.358073
v -0.316332 0.0 0.37699
v -0.246063 0.0 0.426194
v -0.19357 0.1144 0.415113
v -0.225163 0.1248 0.389994
v -0.184737 0.13 0.396171
v -0.184737 0.13 0.396171
v -0.246063 0.0 0.426194
v -0.168317 0.0 0.462447
v -0.118546 0.1144 0.442419
v -0.154021 0.1248 0.423168
v -0.113137 0.13 0.422231
v -0.113137 0.13 0.422231
v -0.168317 0.0 0.462447
v -0.085457 0.0 0.484649
v -0.03992 0.1144 0.456283
v -0.078198 0.1248 0.443485
v -0.038098 0.13 0.435463
v -0.038098 0.13 0.435463
v -0.085457 0.0 0.484649


vn 0.075479 0.5 0.86273
vn 0.0 0.0 1.0
vn 0.173648 0.0 0.984808
vn 0.224144 0.5 0.836516
vn 0.086824 0.866025 0.492404
vn 0.0 0.866025 0.5
vn 0.0 1.0 0.0
vn 0.0 1.0 0.0
vn 0.34202 0.0 0.939693
vn 0.365998 0.5 0.784886
vn 0.17101 0.866025 0.469846
vn 0.0 1.0 0.0
vn 0.0 1.0 0.0
vn 0.0 1.0 0.0
vn 0.0 1.0 0.0
vn 0.0 -1.0 0.0
vn 0.0 -1.0 0.0
vn 0.0 -1.0 0.0
vn 0.5 0.0 0.866025
vn 0.496732 0.5 0.709406
vn 0.25 0.866025 0.433013
vn 0.0 1.0 0.0
vn 0.0 1.0 0.0
vn 0.0 -1.0 0.0
vn 0.642788 0.0 0.766044
vn 0.612372 0.5 0.612372
vn 0.321394 0.866025 0.383022
vn 0.0 1.0 0.0
vn 0.0 1.0 0.0
vn 0.0 -1.0 0.0
vn 0.766044 0.0 0.642788
vn 0.709406 0.5 0.496732
vn 0.383022 0.866025 0.321394
vn 0.0 1.0 0.0
vn 0.0 1.0 0.0
vn 0.0 -1.0 0.0
vn 0.866025 0.0 0.5
vn 0.784886 0.5 0.365998
vn 0.433013 0.866025 0.25
vn 0.0 1.0 0.0
vn 0.0 1.0 0.0
vn 0.0 -1.0 0.0
vn 0.939693 0.0 0.34202
vn 0.836516 0.5 0.224144
vn 0.469846 0.866025 0.17101
vn 0.0 1.0 0.0
vn 0.0 1.0 0.0
vn 0.0 -1.0 0.0
vn 0.984808 0.0 0.173648
vn 0.86273 0.5 0.075479
vn 0.492404 0.866025 0.086824
vn 0.0 1.0 0.0
vn 0.0 1.0 0.0
vn 0.0 -1.0 0.0
vn 1.0 0.0 0.0
vn 0.86273 0.5 -0.075479
vn 0.5 0.866025 0.0
vn 0.0 1.0 -0.0
vn 0.0 1.0 -0.0
vn 0.0 -1.0 0.0
vn 0.984808 0.0 -0.173648
vn 0.836516 0.5 -0.224144
vn 0.492404 0.866025 -0.086824
vn 0.0 1.0 -0.0
vn 0.0 1.0 -0.0
vn 0.0 -1.0 -0.0
vn 0.939693 0.0 -0.34202
vn 0.784886 0.5 -0.365998
vn 0.469846 0.866025 -0.17101
vn 0.0 1.0 -0.0
vn 0.0 1.0 -0.0
vn 0.0 -1.0 -0.0
vn 0.866025 0.0 -0.5
vn 0.709406 0.5 -0.496732
vn 0.433013 0.866025 -0.25
vn 0.0 1.0 -0.0
vn 0.0 1.0 -0.0
vn 0.0 -1.0 -0.0
vn 0.766044 0.0 -0.642788
vn 0.612372 0.5 -0.612372
vn 0.383022 0.866025 -0.321394
vn 0.0 1.0 -0.0
vn 0.0 1.0 -0.0
vn 0.0 -1.0 -0.0
vn 0.642788 0.0 -0.766044
vn 0.496732 0.5 -0.709406
vn 0.321394 0.866025 -0.383022
vn 0.0 1.0 -0.0
vn 0.0 1.0 -0.0
vn 0.0 -1.0 -0.0
vn 0.5 0.0 -0.866025
vn 0.365998 0.5 -0.784886
vn 0.25 0.866025 -0.433013
vn 0.0 1.0 -0.0
vn 0.0 1.0 -0.0
vn 0.0 -1.0 -0.0
vn 0.34202 0.0 -0.939693
vn 0.224144 0.5 -0.836516
vn 0.17101 0.866025 -0.469846
vn 0.0 1.0 -0.0
vn 0.0 1.0 -0.0
vn 0.0 -1.0 -0.0
vn 0.173648 0.0 -0.984808
vn 0.075479 0.5 -0.86273
vn 0.086824 0.866025 -0.492404
vn 0.0 1.0 -0.0
vn 0.0 1.0 -0.0
vn 0.0 -1.0 -0.0
vn 0.0 0.0 -1.0
vn -0.075479 0.5 -0.86273
vn 0.0 0.866025 -0.5
vn -0.0 1.0 -0.0
vn -0.0 1.0 -0.0
vn 0.0 -1.0 -0.0
vn -0.173648 0.0 -0.984808
vn -0.224144 0.5 -0.836516
vn -0.086824 0.866025 -0.492404
vn -0.0 1.0 -0.0
vn -0.0 1.0 -0.0
vn -0.0 -1.0 -0.0
vn -0.34202 0.0 -0.939693
vn -0.365998 0.5 -0.784886
vn -0.17101 0.866025 -0.469846
vn -0.0 1.0 -0.0
vn -0.0 1.0 -0.0
vn -0.0 -1.0 -0.0
vn -0.5 0.0 -0.866025
vn -0.496732 0.5 -0.709406
vn -0.25 0.866025 -0.433013
vn -0.0 1.0 -0.0
vn -0.0 1.0 -0.0
vn -0.0 -1.0 -0.0
vn -0.642788 0.0 -0.766044
vn -0.612372 0.5 -0.612372
vn -0.321394 0.866025 -0.383022
vn -0.0 1.0 -0.0
vn -0.0 1.0 -0.0
vn -0.0 -1.0 -0.0
vn -0.766044 0.0 -0.642788
vn -0.709406 0.5 -0.496732
vn -0.383022 0.866025 -0.321394
vn -0.0 1.0 -0.0
vn -0.0 1.0 -0.0
vn -0.0 -1.0 -0.0
vn -0.866025 0.0 -0.5
vn -0.784886 0.5 -0.365998
vn -0.433013 0.866025 -0.25
vn -0.0 1.0 -0.0
vn -0.0 1.0 -0.0
vn -0.0 -1.0 -0.0
vn -0.939693 0.0 -0.34202
vn -0.836516 0.5 -0.224144
vn -0.469846 0.866025 -0.17101
vn -0.0 1.0 -0.0
vn -0.0 1.0 -0.0
vn -0.0 -1.0 -0.0
vn -0.984808 0.0 -0.173648
vn -0.86273 0.5 -0.075479
vn -0.492404 0.866025 -0.086824
vn -0.0 1.0 -0.0
vn -0.0 1.0 -0.0
vn -0.0 -1.0 -0.0
vn -1.0 0.0 -0.0
vn -0.86273 0.5 0.075479
vn -0.5 0.866025 -0.0
vn -0.0 1.0 0.0
vn -0.0 1.0 0.0
vn -0.0 -1.0 -0.0
vn -0.984808 0.0 0.173648
vn -0.836516 0.5 0.224144
vn -0.492404 0.866025 0.086824
vn -0.0 1.0 0.0
vn -0.0 1.0 0.0
vn -0.0 -1.0 0.0
vn -0.939693 0.0 0.34202
vn -0.784886 0.5 0.365998
vn -0.469846 0.866025 0.17101
vn -0.0 1.0 0.0
vn -0.0 1.0 0.0
vn -0.0 -1.0 0.0
vn -0.866025 0.0 0.5
vn -0.709406 0.5 0.496732
vn -0.433013 0.866025 0.25
vn -0.0 1.0 0.0
vn -0.0 1.0 0.0
vn -0.0 -1.0 0.0
vn -0.766044 0.0 0.642788
vn -0.612372 0.5 0.612372
vn -0.383022 0.866025 0.321394
vn -0.0 1.0 0.0
vn -0.0 1.0 0.0
vn -0.0 -1.0 0.0
vn -0.642788 0.0 0.766044
vn -0.496732 0.5 0.709406
vn -0.321394 0.866025 0.383022
vn -0.0 1.0 0.0
vn -0.0 1.0 0.0
vn -0.0 -1.0 0.0
vn -0.5 0.0 0.866025
vn -0.365998 0.5 0.784886
vn -0.25 0.866025 0.433013
vn -0.0 1.0 0.0
vn -0.0 1.0 0.0
vn -0.0 -1.0 0.0
vn -0.34202 0.0 0.939693
vn -0.224144 0.5 0.836516
vn -0.17101 0.866025 0.469846
vn -0.0 1.0 0.0
vn -0.0 1.0 0.0
vn -0.0 -1.0 0.0
vn -0.173648 0.0 0.984808
vn -0.075479 0.5 0.86273
vn -0.086824 0.866025 0.492404
vn -0.0 1.0 0.0
vn -0.0 1.0 0.0
vn -0.0 -1.0 0.0

f 1//1 2//2 3//3
f 1//1 3//3 4//4
f 1//1 5//5 6//6
f 1//1 4//4 5//5
f 7//7 6//6 5//5
f 7//7 5//5 8//8
f 4//4 3//3 9//9
f 4//4 9//9 10//10
f 4//4 11//11 5//5
f 4//4 10//10 11//11
f 8//8 5//5 11//11
f 8//8 11//11 12//12
f 13//13 14//14 15//15
f 16//16 17//17 18//18
f 10//10 9//9 19//19
f 10//10 19//19 20//20
f 10//10 21//21 11//11
f 10//10 20//20 21//21
f 12//12 11//11 21//21
f 12//12 21//21 22//22
f 14//14 23//23 15//15
f 18//18 17//17 24//24
f 20//20 19//19 25//25
f 20//20 25//25 26//26
f 20//20 27//27 21//21
f 20//20 26//26 27//27
f 22//22 21//21 27//27
f 22//22 27//27 28//28
f 23//23 29//29 15//15
f 24//24 17//17 30//30
f 26//26 25//25 31//31
f 26//26 31//31 32//32
f 26//26 33//33 27//27
f 26//26 32//32 33//33
f 28//28 27//27 33//33
f 28//28 33//33 34//34
f 29//29 35//35 15//15
f 30//30 17//17 36//36
f 32//32 31//31 37//37
f 32//32 37//37 38//38
f 32//32 39//39 33//33
f 32//32 38//38 39//39
f 34//34 33//33 39//39
f 34//34 39//39 40//40
f 35//35 41//41 15//15
f 36//36 17//17 42//42
f 38//38 37//37 43//43
f 38//38 43//43 44//44
f 38//38 45//45 39//39
f 38//38 44//44 45//45
f 40//40 39//39 45//45
f 40//40 45//45 46//46
f 41//41 47//47 15//15
f 42//42 17//17 48//48
f 44//44 43//43 49//49
f 44//44 49//49 50//50
f 44//44 51//51 45//45
f 44//44 50//50 51//51
f 46//46 45//45 51//51
f 46//46 51//51 52//52
f 47//47 53//53 15//15
f 48//48 17//17 54//54
f 50//50 49//49 55//55
f 50//50 55//55 56//56
f 50//50 57//57 51//51
f 50//50 56//56 57//57
f 52//52 51//51 57//57
f 52//52 57//57 58//58
f 53//53 59//59 15//15
f 54//54 17//17 60//60
f 56//56 55//55 61//61
f 56//56 61//61 62//62
f 56//56 63//63 57//57
f 56//56 62//62 63//63
f 58//58 57//57 63//63
f 58//58 63//63 64//64
f 59//59 65//65 15//15
f 60//60 17//17 66//66
f 62//62 61//61 67//67
f 62//62 67//67 68//68
f 62//62 69//69 63//63
f 62//62 68//68 69//69
f 64//64 63//63 69//69
f 64//64 69//69 70//70
f 65//65 71//71 15//15
f 66//66 17//17 72//72
f 68//68 67//67 73//73
f 68//68 73//73 74//74
f 68//68 75//75 69//69
f 68//68 74//74 75//75
f 70//70 69//69 75//75
f 70//70 75//75 76//76
f 71//71 77//77 15//15
f 72//72 17//17 78//78
f 74//74 73//73 79//79
f 74//74 79//79 80//80
f 74//74 81//81 75//75
f 74//74 80//80 81//81
f 76//76 75//75 81//81
f 76//76 81//81 82//82
f 77//77 83//83 15//15
f 78//78 17//17 84//84
f 80//80 79//79 85//85
f 80//80 85//85 86//86
f 80//80 87//87 81//81
f 80//80 86//86 87//87
f 82//82 81//81 87//87
f 82//82 87//87 88//88
f 83//83 89//89 15//15
f 84//84 17//17 90//90
f 86//86 85//85 91//91
f 86//86 91//91 92//92
f 86//86 93//93 87//87
f 86//86 92//92 93//93
f 88//88 87//87 93//93
f 88//88 93//93 94//94
f 89//89 95//95 15//15
f 90//90 17//17 96//96
f 92//92 91//91 97//97
f 92//92 97//97 98//98
f 92//92 99//99 93//93
f 92//92 98//98 99//99
f 94//94 93//93 99//99
f 94//94 99//99 100//100
f 95//95 101//101 15//15
f 96//96 17//17 102//102
f 98//98 97//97 103//103
f 98//98 103//103 104//104
f 98//98 105//105 99//99
f 98//98 104//104 105//105
f 100//100 99//99 105//105
f 100//100 105//105 106//106
f 101//101 107//107 15//15
f 102//102 17//17 108//108
f 104//104 103//103 109//109
f 104//104 109//109 110//110
f 104//104 111//111 105//105
f 104//104 110//110 111//111
f 106//106 105//105 111//111
f 106//106 111//111 112//112
f 107//107 113//113 15//15
f 108//108 17//17 114//114
f 110//110 109//109 115//115
f 110//110 115//115 116//116
f 110//110 117//117 111//111
f 110//110 116//116 117//117
f 112//112 111//111 117//117
f 112//112 117//117 118//118
f 113//113 119//119 15//15
f 114//114 17//17 120//120
f 116//116 115//115 121//121
f 116//116 121//121 122//122
f 116//116 123//123 117//117
f 116//116 122//122 123//123
f 118//118 117//117 123//123
f 118//118 123//123 124//124
f 119//119 125//125 15//15
f 120//120 17//17 126//126
f 122//122 121//121 127//127
f 122//122 127//127 128//128
f 122//122 129//129 123//123
f 122//122 128//128 129//129
f 124//124 123//123 129//129
f 124//124 129//129 130//130
f 125//125 131//131 15//15
f 126//126 17//17 132//132
f 128//128 127//127 133//133
f 128//128 133//133 134//134
f 128//128 135//135 129//129
f 128//128 134//134 135//135
f 130//130 129//129 135//135
f 130//130 135//135 136//136
f 131//131 137//137 15//15
f 132//132 17//17 138//138
f 134//134 133//133 139//139
f 134//134 139//139 140//140
f 134//134 141//141 135//135
f 134//134 140//140 141//141
f 136//136 135//135 141//141
f 136//136 141//141 142//142
f 137//137 143//143 15//15
f 138//138 17//17 144//144
f 140//140 139//139 145//145
f 140//140 145//145 146//146
f 140//140 147//147 141//141
f 140//140 146//146 147//147
f 142//142 141//141 147//147
f 142//142 147//147 148//148
f 143//143 149//149 15//15
f 144//144 17//17 150//150
f 146//146 145//145 151//151
f 146//146 151//151 152//152
f 146//146 153//153 147//147
f 146//146 152//152 153//153
f 148//148 147//147 153//153
f 148//148 153//153 154//154
f 149//149 155//155 15//15
f 150//150 17//17 156//156
f 152//152 151//151 157//157
f 152//152 157//157 158//158
f 152//152 159//159 153//153
f 152//152 158//158 159//159
f 154//154 153//153 159//159
f 154//154 159//159 160//160
f 155//155 161//161 15//15
f 156//156 17//17 162//162
f 158//158 157//157 163//163
f 158//158 163//163 164//164
f 158//158 165//165 159//159
f 158//158 164//164 165//165
f 160//160 159//159 165//165
f 160//160 165//165 166//166
f 161//161 167//167 15//15
f 162//162 17//17 168//168
f 164//164 163//163 169//169
f 164//164 169//169 170//170
f 164//164 171//171 165//165
f 164//164 170//170 171//171
f 166//166 165//165 171//171
f 166//166 171//171 172//172
f 167//167 173//173 15//15
f 168//168 17//17 174//174
f 170//170 169//169 175//175
f 170//170 175//175 176//176
f 170//170 177//177 171//171
f 170//170 176//176 177//177
f 172//172 171//171 177//177
f 172//172 177//177 178//178
f 173//173 179//179 15//15
f 174//174 17//17 180//180
f 176//176 175//175 181//181
f 176//176 181//181 182//182
f 176//176 183//183 177//177
f 176//176 182//182 183//183
f 178//178 177//177 183//183
f 178//178 183//183 184//184
f 179//179 185//185 15//15
f 180//180 17//17 186//186
f 182//182 181//181 187//187
f 182//182 187//187 188//188
f 182//182 189//189 183//183
f 182//182 188//188 189//189
f 184//184 183//183 189//189
f 184//184 189//189 190//190
f 185//185 191//191 15//15
f 186//186 17//17 192//192
f 188//188 187//187 193//193
f 188//188 193//193 194//194
f 188//188 195//195 189//189
f 188//188 194//194 195//195
f 190//190 189//189 195//195
f 190//190 195//195 196//196
f 191//191 197//197 15//15
f 192//192 17//17 198//198
f 194//194 193//193 199//199
f 194//194 199//199 200//200
f 194//194 201//201 195//195
f 194//194 200//200 201//201
f 196//196 195//195 201//201
f 196//196 201//201 202//202
f 197//197 203//203 15//15
f 198//198 17//17 204//204
f 200//200 199//199 205//205
f 200//200 205//205 206//206
f 200//200 207//207 201//201
f 200//200 206//206 207//207
f 202//202 201//201 207//207
f 202//202 207//207 208//208
f 203//203 209//209 15//15
f 204//204 17//17 210//210
f 206//206 205//205 211//211
f 206//206 211//211 212//212
f 206//206 213//213 207//207
f 206//206 212//212 213//213
f 208//208 207//207 213//213
f 208//208 213//213 214//214
f 209//209 215//215 15//15
f 210//210 17//17 216//216
f 212//212 211//211 2//2
f 212//212 2//2 1//1
f 212//212 6//6 213//213
f 212//212 1//1 6//6
f 214//214 213//213 6//6
f 214//214 6//6 7//7
