# Blender v2.92.0 OBJ File: ''
# www.blender.org
mtllib Gorkanaut Bottom.mtl
o Top_Cube.002
v -1.098782 -0.392735 -0.646179
v -1.011097 -0.375100 0.434831
v -1.019993 0.497383 0.542998
v -1.067678 0.649891 -0.035905
v 1.018552 0.497384 0.542999
v 1.066238 0.649891 -0.035904
v 1.009659 -0.375099 0.434833
v 1.097342 -0.392734 -0.646179
v -1.093065 0.438360 -0.369953
v 1.091625 0.438361 -0.369952
vt 0.165700 0.085494
vt 0.165932 0.036327
vt 0.182763 0.036745
vt 0.185764 0.061140
vt 0.191163 0.029707
vt 0.185419 0.029429
vt 0.185419 0.091282
vt 0.191274 0.091004
vt 0.183974 0.057183
vt 0.180450 0.082460
vt 0.166087 0.084587
vt 0.165754 0.033111
vt 0.185326 0.029765
vt 0.185326 0.091463
vt 0.167001 0.091624
vt 0.167001 0.029604
vt 0.165448 0.029009
vt 0.165668 0.091961
vt 0.181715 0.075662
vt 0.180273 0.042263
vn -0.6439 0.2459 -0.7245
vn -0.7036 -0.0933 0.7044
vn -0.5602 0.4524 0.6939
vn -0.6376 0.7658 -0.0839
vn 0.5602 0.4524 0.6939
vn 0.6376 0.7658 -0.0839
vn 0.7036 -0.0933 0.7044
vn 0.6439 0.2459 -0.7245
vn -0.6716 0.4709 -0.5720
vn 0.6716 0.4709 -0.5720
usemtl Model
s 1
f 1/1/1 2/2/2 3/3/3 4/4/4
f 4/5/4 3/6/3 5/7/5 6/8/6
f 6/9/6 5/10/5 7/11/7 8/12/8
f 9/13/9 10/14/10 8/15/8 1/16/1
f 5/7/5 3/6/3 2/17/2 7/18/7
f 4/5/4 6/8/6 10/14/10 9/13/9
f 1/1/1 4/4/4 9/19/9
f 6/9/6 8/12/8 10/20/10
