# Blender v2.92.0 OBJ File: 'Trukk stuff.blend'
# www.blender.org
mtllib Trukk Engine.mtl
o wartrukk_body0_model0.002_wartrukk_body0_model0.003
v 0.613787 -0.179070 -0.150802
v 0.566299 -0.236719 -0.127002
v 0.566301 -0.179082 -0.127002
v 0.613787 -0.236707 -0.150802
v 0.630901 -0.179070 -0.185818
v 0.579579 -0.265525 -0.088626
v 0.649856 -0.265378 -0.122851
v 0.413812 -0.265525 -0.088625
v 0.413813 -0.236706 -0.128357
v 0.413812 -0.179069 -0.128358
v 0.733509 -0.498115 -0.421382
v 0.682192 -0.537733 -1.184123
v 0.733512 -0.509024 -1.184138
v 0.682190 -0.524233 -0.411684
v 0.630904 -0.509024 -1.184138
v 0.630902 -0.498115 -0.421382
v 0.630904 -0.451606 -1.184166
v 0.630902 -0.445878 -0.440779
v 0.630902 -0.464795 -0.365796
v 0.630902 -0.431735 -0.403389
v 0.630903 -0.253261 -0.288851
v 0.630903 -0.212505 -0.321299
v 0.630902 -0.236708 -0.263245
v 0.630902 -0.179070 -0.263246
v 0.630885 -0.236720 -0.185815
v 0.682190 -0.265526 -0.185816
v 0.682190 -0.265526 -0.122994
v 0.733510 -0.236708 -0.185816
v 0.733509 -0.236707 -0.122994
v 0.733509 -0.236707 -0.025516
v 0.682189 -0.265526 -0.025515
v 0.682190 -0.265527 -0.263245
v 0.733509 -0.236708 -0.263245
v 0.682190 -0.273639 -0.272627
v 0.682189 -0.481324 -0.346999
v 0.733510 -0.464795 -0.365795
v 0.733510 -0.253261 -0.288850
v 0.566316 -0.179068 0.199125
v 0.413812 -0.236705 0.197772
v 0.413812 -0.179068 0.197771
v 0.566316 -0.236706 0.199126
v 0.413811 -0.265524 0.237489
v 0.579578 -0.265524 0.237490
v 0.413811 -0.236705 0.277205
v 0.592842 -0.236706 0.275851
v 0.650042 -0.265524 0.203421
v 0.686312 -0.236706 0.231505
v 0.682188 -0.265524 0.140334
v 0.733508 -0.236706 0.140334
v 0.682189 -0.265525 0.038137
v 0.733509 -0.236707 0.038137
v 0.630902 -0.236707 -0.025516
v 0.649945 -0.265378 0.037860
v 0.613787 -0.236707 0.009493
v 0.579578 -0.265525 0.071658
v 0.613785 -0.179069 0.175335
v 0.613785 -0.236706 0.175335
v 0.630901 -0.236706 0.140334
v 0.630901 -0.236706 0.091693
v 0.592843 -0.236706 0.110027
v 0.413812 -0.236706 0.111381
v 0.413812 -0.265524 0.071658
v 0.566316 -0.236706 0.033287
v 0.613786 -0.179069 0.009492
v 0.630902 -0.179070 -0.025516
v 0.630902 -0.179070 -0.070882
v 0.630901 -0.236707 -0.070881
v 0.566316 -0.179069 0.033287
v 0.413812 -0.236706 0.031933
v 0.413812 -0.179069 0.031933
v 0.630901 -0.179069 0.140334
v 0.630901 -0.179069 0.091692
v 0.454308 0.263993 -0.296502
v 0.418802 0.204266 -0.274591
v 0.418802 0.283984 -0.274592
v 0.480886 0.165783 0.035915
v 0.489604 0.164407 -0.274591
v 0.454308 0.224257 -0.296501
v 0.489604 0.283861 -0.296501
v 0.489605 0.323843 -0.274592
v 0.524910 0.263993 -0.296501
v 0.560446 0.283984 -0.274592
v 0.524910 0.224257 -0.296501
v 0.560446 0.204266 -0.274591
v 0.489604 0.204389 -0.296501
v 0.528622 0.218637 0.076606
v 0.551722 0.205641 0.035915
v 0.528622 0.218637 0.111970
v 0.480886 0.191773 0.076606
v 0.410087 0.205641 0.035915
v 0.410087 0.285359 0.035914
v 0.480886 0.325218 0.035915
v 0.551722 0.285359 0.035915
v 0.528622 0.272365 0.076606
v 0.528622 0.272365 0.111971
v 0.480885 0.299228 0.111970
v 0.480885 0.299229 0.076606
v 0.433166 0.272365 0.076606
v 0.433166 0.218637 0.076606
v 0.480885 0.191774 0.111970
v 0.433166 0.272365 0.111970
v 0.433165 0.218637 0.111971
v 0.415796 -0.313078 -0.258958
v -0.472791 -0.313072 0.305366
v -0.472787 -0.313074 -0.259424
v 0.415793 -0.313074 0.305143
v 0.238260 0.504605 0.042266
v 0.218234 0.545569 0.042266
v 0.182245 0.520401 0.042266
v 0.000120 0.577659 0.042266
v 0.000120 0.539921 0.042266
v -0.218178 0.545570 0.042266
v -0.182133 0.520402 0.042266
v -0.285398 0.519602 0.042266
v -0.238239 0.504606 0.042265
v -0.285399 0.439603 0.042265
v -0.238239 0.455946 0.042265
v -0.218178 0.413634 0.042265
v -0.182133 0.440150 0.042265
v 0.000120 0.398748 0.042266
v 0.000119 0.431096 0.042266
v 0.218234 0.413632 0.042267
v 0.182244 0.440148 0.042266
v 0.285324 0.439600 0.042267
v 0.238260 0.455944 0.042267
v 0.285324 0.519600 0.042266
v -0.668139 -0.010331 -0.025864
v -0.614629 -0.063581 -0.032092
v -0.668139 -0.059637 -0.014296
v -0.614628 -0.014275 -0.043660
v -0.609778 0.003502 0.036579
v -0.665138 -0.048650 0.035293
v -0.609779 -0.045803 0.048146
v -0.665136 0.000656 0.023726
v -0.578592 -0.005724 -0.005067
v -0.578592 -0.055031 0.006500
v -0.066356 0.302092 0.451989
v 0.071704 0.302144 0.419818
v 0.071704 0.302144 0.451989
v -0.066357 0.302092 0.419817
v -0.066355 0.457714 0.451987
v -0.066355 0.457714 0.419816
v 0.071704 0.457606 0.451988
v 0.071705 0.457606 0.419817
v 0.461814 -0.136277 -0.383251
v 0.535456 -0.035425 0.406505
v 0.461811 -0.133761 0.425146
v 0.535459 -0.037940 -0.383350
v -0.458082 -0.136274 -0.383254
v -0.531990 -0.035422 0.406501
v -0.531987 -0.037937 -0.383353
v -0.458084 -0.133759 0.425143
v 0.002241 -0.035423 0.406502
v 0.002240 -0.133760 0.425144
v 0.002243 0.294783 0.343175
v 0.330549 0.294781 0.343176
v -0.326449 0.294783 0.343175
v 0.410470 -0.294719 0.558042
v 0.370123 -0.332350 0.558042
v 0.417119 -0.330744 0.558043
v 0.387028 -0.228848 0.558043
v 0.369337 -0.213538 0.558042
v 0.369337 -0.213539 0.502452
v 0.417120 -0.330744 0.502452
v 0.370124 -0.332350 0.502451
v 0.410470 -0.294719 0.502453
v 0.387029 -0.228848 0.502453
v -0.411048 -0.294716 0.502450
v -0.364002 -0.331046 0.502451
v -0.417723 -0.331528 0.502449
v -0.380475 -0.222195 0.502450
v -0.361685 -0.213536 0.502450
v -0.380475 -0.222194 0.558040
v -0.361686 -0.213537 0.558040
v -0.411049 -0.294716 0.558040
v -0.417723 -0.331528 0.558040
v -0.597766 0.679620 -0.120931
v -0.632674 0.692153 -0.064361
v -0.597767 0.687976 -0.083218
v -0.667609 0.679621 -0.120932
v -0.667608 0.687976 -0.083218
v -0.632673 0.675444 -0.139789
v -0.575006 0.349108 0.142413
v -0.630163 0.368915 0.231792
v -0.575006 0.362311 0.201999
v -0.685387 0.349109 0.142412
v -0.685386 0.362312 0.201999
v -0.630162 0.342505 0.112617
v -0.586914 0.383861 0.142041
v -0.630163 0.399390 0.212115
v -0.586914 0.394214 0.188757
v -0.673452 0.383862 0.142040
v -0.673452 0.394214 0.188757
v -0.630162 0.378686 0.118680
v -0.593399 0.548053 0.124557
v -0.630162 0.561251 0.184122
v -0.593398 0.556852 0.164268
v -0.666956 0.548053 0.124557
v -0.666955 0.556852 0.164268
v -0.630161 0.543652 0.104701
v -0.575005 0.343180 -0.306962
v -0.630161 0.362987 -0.217537
v -0.575005 0.356385 -0.247344
v -0.685385 0.343180 -0.306962
v -0.685385 0.356385 -0.247344
v -0.630161 0.336578 -0.336772
v -0.586913 0.377934 -0.307333
v -0.630161 0.393462 -0.237223
v -0.586913 0.388286 -0.260592
v -0.673451 0.377934 -0.307333
v -0.673451 0.388286 -0.260592
v -0.630161 0.372758 -0.330704
v -0.575005 0.480293 -0.103053
v -0.630161 0.500099 -0.013649
v -0.575005 0.493496 -0.043450
v -0.685385 0.480293 -0.103055
v -0.685386 0.493497 -0.043450
v -0.630162 0.473691 -0.132857
v -0.586913 0.512014 -0.103769
v -0.630162 0.527542 -0.033676
v -0.586913 0.522366 -0.057039
v -0.673451 0.512014 -0.103770
v -0.673451 0.522366 -0.057040
v -0.630161 0.506839 -0.127134
v 0.554947 0.171714 -0.296501
v 0.519632 0.112111 -0.296500
v 0.519632 0.151847 -0.296501
v 0.590273 0.112111 -0.296501
v 0.554947 0.092243 -0.296500
v 0.590274 0.151847 -0.296501
v 0.554947 0.211697 -0.274592
v 0.625832 0.171838 -0.274592
v 0.625832 0.092120 -0.274591
v 0.554947 0.052261 -0.274591
v 0.484109 0.092120 -0.274592
v 0.484109 0.171837 -0.274591
v 0.593988 0.160217 0.111971
v 0.546223 0.079627 0.111971
v 0.593988 0.106490 0.111971
v 0.498480 0.160218 0.111971
v 0.498480 0.106490 0.111971
v 0.546224 0.187081 0.111970
v 0.546224 0.213072 0.035914
v 0.498480 0.160218 0.076607
v 0.475391 0.173214 0.035914
v 0.546224 0.187081 0.076607
v 0.617102 0.173213 0.035915
v 0.617102 0.093495 0.035916
v 0.546223 0.053637 0.035915
v 0.475390 0.093495 0.035915
v 0.498480 0.106490 0.076607
v 0.546223 0.079627 0.076607
v 0.593988 0.106491 0.076607
v 0.593988 0.160218 0.076607
v 0.561558 0.179013 0.229133
v 0.533539 0.225456 0.288660
v 0.560012 0.184356 0.271254
v 0.510165 0.255872 0.221826
v 0.508619 0.261214 0.263947
v 0.536632 0.214770 0.204419
v 0.612276 0.073850 0.213774
v 0.563669 0.060778 0.263854
v 0.607007 0.065512 0.249612
v 0.530880 0.072719 0.206421
v 0.525615 0.064381 0.242259
v 0.574203 0.077454 0.192178
v 0.612277 0.073850 0.128033
v 0.563670 0.060777 0.178117
v 0.607007 0.065512 0.163874
v 0.530880 0.072718 0.120679
v 0.525615 0.064380 0.156520
v 0.574204 0.077453 0.106434
v 0.546230 -0.041878 -0.315899
v 0.555945 -0.061991 -0.308526
v 0.553632 -0.041878 -0.308254
v 0.547335 -0.061992 -0.317497
v 0.506641 -0.041879 -0.327325
v 0.506972 -0.061991 -0.329122
v 0.574972 -0.070088 -0.309124
v 0.592487 -0.058645 0.100102
v 0.575769 -0.070662 0.100428
v 0.591691 -0.058072 -0.309450
v 0.558124 -0.070088 -0.329667
v 0.567808 -0.058071 -0.340240
v 0.511725 -0.070088 -0.343424
v 0.516147 -0.058071 -0.355931
v 0.556740 -0.062565 0.101026
v 0.686312 -0.179069 0.231505
v 0.579578 -0.150249 0.237489
v 0.592842 -0.179068 0.275851
v 0.650042 -0.150250 0.203420
v 0.733509 -0.179069 0.140334
v 0.682189 -0.150250 0.140334
v 0.733509 -0.179070 0.038136
v 0.733510 -0.179070 -0.122994
v 0.733509 -0.179070 -0.025515
v 0.682189 -0.150251 0.038136
v 0.413812 -0.150249 0.237488
v 0.413811 -0.179068 0.277204
v 0.579578 -0.150251 0.071657
v 0.592843 -0.179069 0.110027
v 0.649944 -0.150398 0.037859
v 0.682190 -0.150251 -0.025516
v 0.413812 -0.150250 0.071657
v 0.413812 -0.179068 0.111380
v 0.682190 -0.150251 -0.122994
v 0.649857 -0.150399 -0.122851
v 0.579564 -0.150264 -0.088624
v 0.413812 -0.150251 -0.088627
v 0.682190 -0.150251 -0.185818
v 0.733510 -0.179071 -0.185817
v 0.682192 -0.422897 -1.184178
v 0.682190 -0.419760 -0.450476
v 0.682190 -0.415206 -0.422186
v 0.682190 -0.192128 -0.337523
v 0.682190 -0.150252 -0.263246
v 0.733511 -0.179071 -0.263246
v 0.733511 -0.451607 -1.184165
v 0.733509 -0.445879 -0.440778
v 0.733509 -0.431736 -0.403389
v 0.733510 -0.212505 -0.321299
v 0.592843 -0.236707 -0.050249
v 0.413812 -0.179069 -0.048897
v 0.413812 -0.236707 -0.048897
v 0.592843 -0.179070 -0.050250
v 0.218235 0.479685 -0.283383
v 0.285325 0.519599 -0.154611
v 0.285325 0.459793 -0.270093
v 0.218235 0.545568 -0.154611
v 0.000121 0.504269 -0.299808
v 0.000121 0.577659 -0.154611
v -0.218177 0.545570 -0.154613
v -0.285397 0.519601 -0.154611
v -0.218177 0.479687 -0.283384
v -0.285398 0.459794 -0.270095
v -0.563394 -0.176562 0.228704
v -0.630123 -0.137107 0.198379
v -0.584616 -0.132684 0.218340
v -0.547796 -0.289679 0.236475
v -0.459553 -0.245935 0.215556
v -0.455639 -0.290274 0.235292
v -0.530294 -0.249732 0.215255
v -0.463432 -0.202368 0.236354
v -0.516824 -0.206759 0.234381
v -0.598038 -0.205492 0.208743
v -0.675670 -0.132683 0.218340
v -0.675668 -0.007245 0.200740
v -0.630124 -0.011668 0.180778
v -0.584615 -0.007245 0.200740
v -0.637940 -0.227176 0.228704
v -0.675669 0.001602 0.240662
v -0.675669 -0.123837 0.258261
v -0.643178 -0.219928 0.268624
v -0.568624 -0.169315 0.268624
v -0.538349 -0.243680 0.295944
v -0.520850 -0.203733 0.274726
v -0.608505 -0.190998 0.288584
v -0.584616 -0.123837 0.258261
v -0.630124 -0.119413 0.278221
v -0.584615 0.001601 0.240662
v -0.630124 0.006025 0.260621
v -0.551824 -0.286652 0.276818
v -0.455605 -0.291045 0.275823
v -0.459484 -0.247477 0.296619
v -0.463399 -0.203139 0.276885
v -0.584614 -0.132686 -0.233591
v -0.630123 -0.011670 -0.271172
v -0.584615 -0.007247 -0.251200
v -0.563393 -0.176563 -0.223222
v -0.630123 -0.137109 -0.253563
v -0.675667 -0.007247 -0.251200
v -0.675668 -0.132685 -0.233592
v -0.598037 -0.205494 -0.243193
v -0.516823 -0.206761 -0.217541
v -0.530294 -0.249734 -0.236678
v -0.463431 -0.202370 -0.215568
v -0.459552 -0.245938 -0.236376
v -0.547795 -0.289681 -0.215447
v -0.455638 -0.290275 -0.216631
v -0.637939 -0.227178 -0.223223
v -0.272369 -0.418757 0.498265
v -0.365916 -0.418757 0.561784
v -0.365914 -0.418757 0.498265
v -0.272369 -0.418757 0.561784
v -0.129771 -0.418758 0.498265
v -0.129771 -0.418758 0.561784
v 0.003210 -0.418758 0.561784
v 0.003209 -0.418758 0.498266
v 0.136110 -0.418759 0.498266
v 0.136109 -0.418758 0.561785
v 0.278442 -0.418758 0.561785
v 0.278443 -0.418759 0.498267
v 0.371716 -0.418759 0.561785
v 0.371715 -0.418759 0.498267
v -0.272367 0.513363 0.498261
v -0.365912 0.432731 0.498262
v -0.129768 0.562901 0.498262
v 0.003212 0.571397 0.498262
v 0.136113 0.562899 0.498262
v 0.278446 0.513361 0.498264
v 0.371717 0.432729 0.498264
v -0.573191 -0.076192 0.238920
v -0.613412 -0.126119 -0.227257
v -0.573189 -0.076194 -0.227257
v -0.613412 -0.126118 0.238920
v -0.609723 -0.023668 0.238919
v -0.609721 -0.023669 -0.227257
v -0.672577 -0.041131 0.238920
v -0.672576 -0.041133 -0.227257
v -0.674860 -0.104448 0.238920
v -0.674859 -0.104449 -0.227257
v -0.224846 -0.335537 0.451475
v -0.302408 -0.335536 0.499265
v -0.302408 -0.335537 0.451475
v -0.224847 -0.335537 0.499266
v -0.106577 -0.335537 0.451476
v -0.106577 -0.335537 0.499266
v 0.003743 -0.335537 0.499266
v 0.003743 -0.335537 0.451476
v 0.114008 -0.335538 0.451477
v 0.114008 -0.335538 0.499267
v 0.232096 -0.335538 0.499267
v 0.232096 -0.335538 0.451477
v 0.309469 -0.335538 0.499267
v 0.309470 -0.335538 0.451477
v -0.224845 0.437804 0.451472
v -0.302407 0.370907 0.451473
v -0.106575 0.478903 0.451473
v 0.003745 0.485952 0.451473
v 0.114010 0.478902 0.451473
v 0.232098 0.437802 0.451474
v 0.309472 0.370905 0.451474
v 0.504730 0.240726 0.186630
v 0.504730 0.223657 0.108353
v 0.504731 0.255146 0.108353
v 0.504730 0.212188 0.176040
v 0.504730 0.214610 0.240627
v 0.504730 0.186072 0.230039
v 0.476756 0.254994 0.191924
v 0.476757 0.270889 0.108353
v 0.476756 0.228879 0.245921
v 0.448788 0.240726 0.186629
v 0.448788 0.255145 0.108353
v 0.448787 0.214610 0.240628
v 0.448788 0.212188 0.176040
v 0.448788 0.223657 0.108353
v 0.448788 0.186072 0.230039
v 0.476756 0.197919 0.170746
v 0.476756 0.207913 0.108353
v 0.476756 0.171802 0.224745
v -0.675668 0.001601 -0.211258
v -0.675668 -0.123839 -0.193651
v -0.643177 -0.219930 -0.183282
v -0.568623 -0.169317 -0.183281
v -0.538347 -0.243682 -0.155947
v -0.520849 -0.203735 -0.177178
v -0.608503 -0.191001 -0.163312
v -0.584615 -0.123839 -0.193650
v -0.630123 -0.119415 -0.173681
v -0.584615 0.001600 -0.211258
v -0.630122 0.006023 -0.191288
v -0.551823 -0.286655 -0.175083
v -0.455603 -0.291047 -0.176080
v -0.459485 -0.247479 -0.155273
v -0.463397 -0.203141 -0.175017
v -0.511244 0.042646 0.469857
v -0.503431 0.069737 0.486194
v -0.500877 0.044987 0.487302
v -0.511244 0.067466 0.468130
v -0.511243 0.042664 0.334077
v -0.511243 0.067483 0.332350
v -0.482711 0.042664 0.297535
v -0.480552 0.067483 0.297088
v -0.433917 0.042664 0.290989
v -0.431759 0.067483 0.290542
v -0.450010 0.030871 0.521968
v -0.363685 0.045408 0.509295
v -0.361791 0.030818 0.525290
v -0.443429 0.044413 0.506131
v -0.517800 0.031532 0.497662
v -0.533466 0.030237 0.470721
v -0.533466 0.030254 0.334942
v -0.489538 0.030254 0.281177
v -0.440740 0.030254 0.274631
v -0.445397 0.069244 0.506677
v -0.361758 0.080384 0.529342
v -0.363668 0.070192 0.511320
v -0.453945 0.080533 0.523061
v -0.522911 0.081034 0.495448
v -0.533466 0.079875 0.467266
v -0.533466 0.079892 0.331487
v -0.485220 0.079892 0.280282
v -0.436425 0.079892 0.273737
v -0.238238 0.455945 -0.131358
v -0.182132 0.440149 -0.131358
v 0.000121 0.431095 -0.131357
v 0.182245 0.440148 -0.131356
v 0.238261 0.455943 -0.131356
v -0.218177 0.288443 -0.353525
v -0.285398 0.286180 -0.332926
v 0.000121 0.291239 -0.378979
v 0.218234 0.288442 -0.353523
v 0.285325 0.286178 -0.332924
v -0.364003 -0.331046 0.558041
v -0.630164 -0.000023 0.283553
v -0.575007 -0.006626 0.253763
v -0.685387 -0.006626 0.253763
v -0.685388 -0.019830 0.194180
v -0.630163 -0.026431 0.164386
v -0.575007 -0.019830 0.194179
v -0.586914 0.361009 0.193416
v -0.586914 0.350656 0.146699
v -0.630162 0.366185 0.216774
v -0.673452 0.361009 0.193416
v -0.673452 0.350657 0.146699
v -0.630163 0.345481 0.123340
v -0.593399 0.392157 0.187376
v -0.593399 0.383358 0.147667
v -0.630162 0.396557 0.207230
v -0.666956 0.392157 0.187376
v -0.666956 0.383359 0.147667
v -0.630163 0.378958 0.127811
v -0.575006 -0.025758 -0.255168
v -0.630162 -0.032360 -0.284977
v -0.575006 -0.012553 -0.195554
v -0.630162 -0.005951 -0.165748
v -0.685387 -0.012552 -0.195554
v -0.685386 -0.025757 -0.255169
v -0.586913 0.355081 -0.255931
v -0.586913 0.344730 -0.302672
v -0.630162 0.360258 -0.232562
v -0.673452 0.355081 -0.255932
v -0.673451 0.344730 -0.302672
v -0.630162 0.339553 -0.326042
v -0.630163 0.001496 0.060061
v -0.575006 -0.005106 0.030263
v -0.685387 -0.005106 0.030263
v -0.685387 -0.018310 -0.029335
v -0.630163 -0.024913 -0.059137
v -0.575006 -0.018311 -0.029335
v -0.586912 0.489162 -0.052378
v -0.586913 0.478811 -0.099109
v -0.630161 0.494339 -0.029016
v -0.673452 0.489163 -0.052379
v -0.673451 0.478811 -0.099109
v -0.630162 0.473634 -0.122475
v -0.595256 0.517861 -0.059767
v -0.595256 0.509506 -0.097479
v -0.630162 0.522038 -0.040912
v -0.665094 0.517861 -0.059767
v -0.665094 0.509506 -0.097479
v -0.630160 0.505328 -0.116336
v 0.435781 0.099669 0.232729
v 0.410879 0.135426 0.208015
v 0.384436 0.176526 0.225422
v 0.382891 0.181870 0.267543
v 0.407789 0.146112 0.292255
v 0.434236 0.105012 0.274849
v 0.535397 -0.095588 0.182453
v 0.530132 -0.103926 0.218292
v 0.611528 -0.102794 0.225645
v 0.616797 -0.094455 0.189806
v 0.568189 -0.107530 0.239888
v 0.578722 -0.090852 0.168210
v 0.535397 -0.095588 0.096709
v 0.530132 -0.103926 0.132551
v 0.611528 -0.102795 0.139905
v 0.616797 -0.094456 0.104063
v 0.568189 -0.107530 0.154148
v 0.578722 -0.090852 0.082463
v 0.570346 -0.029862 -0.308581
v 0.554428 -0.042452 0.101297
v 0.571143 -0.030436 0.100971
v 0.555912 -0.029862 -0.326471
v 0.511061 -0.029862 -0.339833
v 0.285325 0.398510 -0.229153
v 0.285324 0.279205 -0.269471
v 0.285324 0.439600 -0.154611
v 0.589377 -0.037959 -0.309179
v 0.590174 -0.038532 0.100373
v 0.566703 -0.037959 -0.338641
v 0.515814 -0.037959 -0.354136
v -0.359863 0.065795 0.545339
v -0.460527 0.066991 0.538898
v -0.539838 0.067580 0.505807
v -0.555697 0.067466 0.468129
v -0.555695 0.067483 0.332350
v -0.492049 0.067483 0.263925
v -0.443248 0.067483 0.257379
v 0.002243 -0.136276 -0.383253
v -0.359880 0.041011 0.543312
v -0.458560 0.042160 0.538351
v -0.537283 0.042830 0.506915
v -0.555696 0.042647 0.469857
v -0.555696 0.042664 0.334077
v -0.494207 0.042663 0.264371
v -0.445405 0.042664 0.257826
v 0.330551 0.294778 -0.383352
v 0.002245 0.294779 -0.383353
v -0.326447 0.294780 -0.383354
v 0.002243 -0.037938 -0.383352
v 0.218235 0.413631 -0.154611
v 0.000120 0.398748 -0.154611
v -0.218177 0.413632 -0.154612
v -0.218178 0.378617 -0.215864
v 0.000121 0.367215 -0.208247
v 0.218235 0.378616 -0.215863
v -0.285397 0.439602 -0.154612
v -0.285398 0.398511 -0.229155
v -0.285398 0.279208 -0.269473
v -0.218177 0.276945 -0.248876
v 0.000120 0.275646 -0.237070
v 0.218234 0.276943 -0.248874
v 0.499578 0.126699 0.181847
v 0.517104 0.143766 0.104760
v 0.517103 0.112278 0.104760
v 0.501950 0.155236 0.171419
v 0.467632 0.165413 0.252522
v 0.470002 0.193952 0.242094
v 0.544663 0.159510 0.108528
v 0.530689 0.169505 0.169971
v 0.498736 0.208220 0.240649
v 0.572227 0.143766 0.112296
v 0.557065 0.155235 0.178955
v 0.525104 0.193952 0.249629
v 0.572227 0.112278 0.112296
v 0.554693 0.126698 0.189383
v 0.522732 0.165413 0.260058
v 0.182246 0.520400 -0.131357
v 0.238261 0.504604 -0.131357
v 0.000120 0.539919 -0.131358
v -0.182132 0.520401 -0.131358
v -0.238239 0.504606 -0.131358
v 0.525946 0.112429 0.190829
v 0.544662 0.096534 0.108528
v 0.493993 0.151144 0.261503
v -0.472791 -0.126244 0.305364
v 0.415793 -0.126247 0.305142
v -0.472787 -0.126247 -0.259426
v 0.415797 -0.126252 -0.258958
v -0.302406 0.370907 0.499263
v 0.309472 0.370906 0.499264
v 0.232099 0.437802 0.499264
v 0.114010 0.478903 0.499264
v 0.003745 0.485952 0.499263
v -0.106575 0.478904 0.499263
v -0.224845 0.437804 0.499263
v -0.365914 0.432731 0.561781
v 0.371718 0.432730 0.561783
v 0.278446 0.513361 0.561783
v 0.136113 0.562900 0.561781
v 0.003212 0.571397 0.561780
v -0.129767 0.562900 0.561780
v -0.272366 0.513362 0.561780
vt 0.285814 0.658499
vt 0.286059 0.656157
vt 0.286409 0.658004
vt 0.283913 0.656848
vt 0.285629 0.658845
vt 0.285456 0.653922
vt 0.282281 0.655468
vt 0.292946 0.653922
vt 0.292923 0.655720
vt 0.293224 0.658306
vt 0.278655 0.676022
vt 0.281377 0.710451
vt 0.279058 0.710479
vt 0.280969 0.675556
vt 0.283694 0.710425
vt 0.283291 0.675964
vt 0.286287 0.710359
vt 0.285716 0.676121
vt 0.283248 0.673030
vt 0.285378 0.672936
vt 0.283122 0.662869
vt 0.285286 0.662427
vt 0.283139 0.661707
vt 0.285545 0.661016
vt 0.283157 0.658273
vt 0.280820 0.658313
vt 0.280820 0.655475
vt 0.278502 0.658313
vt 0.278502 0.655475
vt 0.278502 0.651071
vt 0.280820 0.651071
vt 0.280820 0.661811
vt 0.278502 0.661811
vt 0.280834 0.662783
vt 0.280949 0.673093
vt 0.278650 0.673142
vt 0.278526 0.662794
vt 0.286792 0.642716
vt 0.292926 0.640985
vt 0.292735 0.642849
vt 0.286058 0.641353
vt 0.292946 0.639189
vt 0.285456 0.639189
vt 0.292946 0.637394
vt 0.284857 0.637455
vt 0.282272 0.640728
vt 0.280634 0.639459
vt 0.280820 0.643578
vt 0.278502 0.643578
vt 0.280820 0.648195
vt 0.278502 0.648195
vt 0.283138 0.651071
vt 0.282277 0.648208
vt 0.283634 0.649477
vt 0.285456 0.646681
vt 0.285439 0.642977
vt 0.283911 0.642035
vt 0.283157 0.643538
vt 0.282674 0.645624
vt 0.284857 0.644948
vt 0.292946 0.644886
vt 0.292946 0.646681
vt 0.285966 0.648826
vt 0.285100 0.650590
vt 0.284621 0.651080
vt 0.284691 0.652051
vt 0.283138 0.653121
vt 0.286155 0.650230
vt 0.292836 0.648488
vt 0.292823 0.650218
vt 0.284894 0.643761
vt 0.284696 0.644767
vt 0.207913 0.701400
vt 0.208122 0.696571
vt 0.210745 0.701400
vt 0.202799 0.674870
vt 0.202283 0.696571
vt 0.206557 0.698993
vt 0.206452 0.703807
vt 0.207815 0.706228
vt 0.203636 0.703807
vt 0.202165 0.706230
vt 0.202281 0.701401
vt 0.199447 0.701401
vt 0.203742 0.698993
vt 0.196734 0.672026
vt 0.196675 0.674870
vt 0.196734 0.669554
vt 0.202951 0.672026
vt 0.208595 0.674870
vt 0.214268 0.696571
vt 0.214055 0.674870
vt 0.220388 0.696541
vt 0.219778 0.674900
vt 0.226038 0.696531
vt 0.225427 0.674892
vt 0.231498 0.696500
vt 0.231477 0.674798
vt 0.224890 0.672057
vt 0.231505 0.671953
vt 0.225171 0.669592
vt 0.231479 0.669482
vt 0.219856 0.669599
vt 0.220155 0.672063
vt 0.214009 0.672026
vt 0.208678 0.672026
vt 0.202951 0.669554
vt 0.214009 0.669554
vt 0.208678 0.669554
vt 0.138611 0.901503
vt 0.142982 0.907959
vt 0.138608 0.907959
vt 0.142981 0.901503
vt 0.132366 0.775380
vt 0.133759 0.772533
vt 0.136260 0.774282
vt 0.148920 0.770303
vt 0.148920 0.772926
vt 0.164094 0.772533
vt 0.161589 0.774282
vt 0.168766 0.774338
vt 0.165488 0.775380
vt 0.168766 0.779899
vt 0.165488 0.778763
vt 0.164094 0.781704
vt 0.161589 0.779861
vt 0.148920 0.782739
vt 0.148920 0.780490
vt 0.133759 0.781704
vt 0.136260 0.779861
vt 0.129095 0.779899
vt 0.132366 0.778763
vt 0.129095 0.774338
vt 0.415220 0.716229
vt 0.413186 0.718260
vt 0.413323 0.716229
vt 0.415058 0.718260
vt 0.415273 0.712200
vt 0.413299 0.714301
vt 0.413438 0.712200
vt 0.415196 0.714301
vt 0.415277 0.710389
vt 0.413420 0.710389
vt 0.415293 0.708457
vt 0.413379 0.708457
vt 0.139915 0.926316
vt 0.139666 0.925313
vt 0.139915 0.925313
vt 0.139666 0.926316
vt 0.496244 0.910340
vt 0.494008 0.899523
vt 0.496244 0.899523
vt 0.494008 0.910340
vt 0.484643 0.912947
vt 0.494006 0.912955
vt 0.484645 0.910333
vt 0.482409 0.899527
vt 0.482409 0.910333
vt 0.484645 0.899527
vt 0.178285 0.824088
vt 0.136714 0.829683
vt 0.135730 0.824202
vt 0.178292 0.829570
vt 0.178286 0.835581
vt 0.136728 0.830016
vt 0.178293 0.830130
vt 0.135744 0.835468
vt 0.134761 0.819345
vt 0.154957 0.823877
vt 0.131528 0.823877
vt 0.154957 0.819345
vt 0.175151 0.819345
vt 0.178384 0.823877
vt 0.216162 0.804494
vt 0.178738 0.827996
vt 0.193112 0.804494
vt 0.216162 0.827996
vt 0.253585 0.827996
vt 0.239211 0.804494
vt 0.447663 0.667967
vt 0.444144 0.666373
vt 0.447259 0.665383
vt 0.447663 0.672687
vt 0.446861 0.674172
vt 0.452329 0.674172
vt 0.451931 0.665383
vt 0.455046 0.666373
vt 0.451527 0.667967
vt 0.451527 0.672687
vt 0.447663 0.674278
vt 0.451527 0.674278
vt 0.451527 0.665534
vt 0.447663 0.665534
vt 0.446583 0.677047
vt 0.442589 0.675883
vt 0.446016 0.674402
vt 0.446583 0.682302
vt 0.445614 0.683472
vt 0.446583 0.683622
vt 0.450447 0.682302
vt 0.450447 0.683622
vt 0.450447 0.677046
vt 0.450447 0.674595
vt 0.446583 0.674595
vt 0.391843 0.741884
vt 0.396468 0.741794
vt 0.394077 0.743255
vt 0.394382 0.737746
vt 0.396612 0.739197
vt 0.391995 0.739131
vt 0.208185 0.669349
vt 0.208007 0.659396
vt 0.211199 0.664368
vt 0.199382 0.664384
vt 0.202100 0.659404
vt 0.202870 0.669356
vt 0.355612 0.672616
vt 0.362918 0.672817
vt 0.359036 0.674946
vt 0.359929 0.666273
vt 0.363340 0.668728
vt 0.356057 0.668281
vt 0.409380 0.745646
vt 0.415110 0.745686
vt 0.412102 0.747418
vt 0.412661 0.740605
vt 0.415375 0.742473
vt 0.409658 0.742241
vt 0.391587 0.725949
vt 0.396459 0.725938
vt 0.393914 0.727434
vt 0.394338 0.721638
vt 0.396659 0.723206
vt 0.391798 0.723052
vt 0.354091 0.689841
vt 0.361403 0.689789
vt 0.357596 0.692052
vt 0.358184 0.683352
vt 0.361681 0.685687
vt 0.354384 0.685493
vt 0.409366 0.726796
vt 0.415098 0.726838
vt 0.412089 0.728568
vt 0.412648 0.721755
vt 0.415363 0.723625
vt 0.409645 0.723391
vt 0.358279 0.648413
vt 0.365588 0.648556
vt 0.361722 0.650717
vt 0.362545 0.642036
vt 0.365977 0.644466
vt 0.358689 0.644075
vt 0.409304 0.698874
vt 0.415035 0.698916
vt 0.412026 0.700647
vt 0.412585 0.693833
vt 0.415300 0.695702
vt 0.409583 0.695469
vt 0.237374 0.661932
vt 0.233204 0.664340
vt 0.234558 0.661932
vt 0.237484 0.666746
vt 0.234667 0.666747
vt 0.238838 0.664339
vt 0.238737 0.659509
vt 0.241674 0.664339
vt 0.238976 0.669169
vt 0.233286 0.669169
vt 0.230371 0.664341
vt 0.233087 0.659511
vt 0.255354 0.696627
vt 0.255575 0.706580
vt 0.252243 0.701697
vt 0.264060 0.701354
vt 0.261483 0.706408
vt 0.260197 0.696487
vt 0.261032 0.691359
vt 0.255013 0.669662
vt 0.260665 0.669742
vt 0.265375 0.696122
vt 0.266358 0.693453
vt 0.264483 0.698427
vt 0.260121 0.694121
vt 0.255390 0.691306
vt 0.249536 0.669634
vt 0.249342 0.691335
vt 0.243847 0.669634
vt 0.243216 0.691335
vt 0.237796 0.669634
vt 0.237419 0.691335
vt 0.231749 0.669634
vt 0.231962 0.691335
vt 0.237336 0.694179
vt 0.232008 0.694179
vt 0.237336 0.696651
vt 0.232008 0.696651
vt 0.243064 0.696651
vt 0.243064 0.694179
vt 0.249283 0.694179
vt 0.255318 0.694147
vt 0.249282 0.696651
vt 0.220848 0.713692
vt 0.226119 0.710742
vt 0.224253 0.713846
vt 0.221293 0.707336
vt 0.224459 0.707479
vt 0.219308 0.710434
vt 0.300414 0.679227
vt 0.298023 0.682938
vt 0.298153 0.680364
vt 0.302405 0.683460
vt 0.300146 0.684552
vt 0.302539 0.680798
vt 0.298241 0.662928
vt 0.300507 0.667022
vt 0.298122 0.665462
vt 0.303129 0.663563
vt 0.303010 0.666077
vt 0.300745 0.661993
vt 0.261295 0.663816
vt 0.258985 0.663606
vt 0.260716 0.663262
vt 0.258977 0.664169
vt 0.261557 0.666169
vt 0.259187 0.666065
vt 0.261753 0.658011
vt 0.233528 0.654271
vt 0.233708 0.653122
vt 0.261575 0.659158
vt 0.263363 0.657106
vt 0.263970 0.657897
vt 0.264865 0.654096
vt 0.265667 0.654549
vt 0.261941 0.656705
vt 0.233898 0.651809
vt 0.262660 0.656220
vt 0.263943 0.653598
vt 0.274134 0.746400
vt 0.281453 0.746899
vt 0.280442 0.749472
vt 0.276556 0.744531
vt 0.270846 0.740323
vt 0.274321 0.740146
vt 0.270754 0.733042
vt 0.266748 0.740146
vt 0.266748 0.733042
vt 0.266748 0.728617
vt 0.267379 0.742342
vt 0.270293 0.747971
vt 0.272549 0.750086
vt 0.278372 0.752967
vt 0.266748 0.717475
vt 0.270754 0.721842
vt 0.266748 0.721842
vt 0.270754 0.728617
vt 0.274321 0.733042
vt 0.277886 0.736765
vt 0.277886 0.740146
vt 0.279076 0.742579
vt 0.282376 0.744233
vt 0.292976 0.744138
vt 0.292976 0.746899
vt 0.292874 0.749658
vt 0.280270 0.753477
vt 0.292713 0.753663
vt 0.281453 0.735372
vt 0.280531 0.738039
vt 0.276563 0.733023
vt 0.274321 0.728617
vt 0.277886 0.728617
vt 0.279076 0.731051
vt 0.282376 0.732705
vt 0.292976 0.732611
vt 0.292976 0.735372
vt 0.292976 0.738133
vt 0.280502 0.742046
vt 0.292946 0.742140
vt 0.278309 0.740805
vt 0.278131 0.737078
vt 0.274321 0.721842
vt 0.276569 0.721852
vt 0.277886 0.725464
vt 0.281453 0.724231
vt 0.292976 0.721469
vt 0.292976 0.724231
vt 0.282376 0.721563
vt 0.279076 0.719909
vt 0.277886 0.717475
vt 0.274321 0.717475
vt 0.270754 0.717475
vt 0.277958 0.689170
vt 0.274267 0.637423
vt 0.277831 0.637513
vt 0.274411 0.688406
vt 0.277903 0.691079
vt 0.274352 0.691062
vt 0.277885 0.707460
vt 0.274321 0.707528
vt 0.277886 0.712093
vt 0.274321 0.712093
vt 0.270754 0.712133
vt 0.266748 0.712093
vt 0.270701 0.637330
vt 0.270833 0.688818
vt 0.270773 0.691239
vt 0.270759 0.707480
vt 0.267177 0.708052
vt 0.267284 0.710169
vt 0.267590 0.691433
vt 0.267655 0.705541
vt 0.267078 0.689425
vt 0.266710 0.637307
vt 0.280773 0.730905
vt 0.292976 0.726992
vt 0.292946 0.730999
vt 0.278484 0.729672
vt 0.280531 0.726898
vt 0.278060 0.725728
vt 0.133936 0.746330
vt 0.129104 0.755957
vt 0.129279 0.745955
vt 0.133763 0.769992
vt 0.129100 0.769992
vt 0.133762 0.756307
vt 0.149089 0.746961
vt 0.148915 0.756822
vt 0.164094 0.756574
vt 0.148924 0.769992
vt 0.164099 0.769992
vt 0.168772 0.756307
vt 0.168771 0.769992
vt 0.164267 0.746866
vt 0.168944 0.746654
vt 0.401927 0.688688
vt 0.399184 0.693326
vt 0.398877 0.690163
vt 0.409790 0.687603
vt 0.406749 0.681470
vt 0.409831 0.681198
vt 0.407013 0.686387
vt 0.403720 0.681740
vt 0.404026 0.685450
vt 0.403938 0.691095
vt 0.398899 0.696492
vt 0.390137 0.696492
vt 0.390465 0.693326
vt 0.390158 0.690163
vt 0.405445 0.693869
vt 0.389913 0.699326
vt 0.398675 0.699326
vt 0.405524 0.696293
vt 0.405411 0.699111
vt 0.401814 0.706766
vt 0.406984 0.708871
vt 0.404207 0.710086
vt 0.403322 0.703994
vt 0.398675 0.705655
vt 0.398346 0.702491
vt 0.389913 0.705655
vt 0.389627 0.702491
vt 0.405333 0.701584
vt 0.409971 0.707936
vt 0.410276 0.714620
vt 0.407248 0.714352
vt 0.404166 0.714081
vt 0.365256 0.711231
vt 0.356844 0.714395
vt 0.356537 0.711231
vt 0.368306 0.709756
vt 0.365563 0.714395
vt 0.356515 0.717561
vt 0.365277 0.717561
vt 0.370317 0.712165
vt 0.370405 0.706519
vt 0.373392 0.707456
vt 0.370100 0.702808
vt 0.373127 0.702538
vt 0.376168 0.708673
vt 0.376209 0.702267
vt 0.371824 0.714938
vt 0.129245 0.919781
vt 0.129737 0.920460
vt 0.129245 0.920460
vt 0.129737 0.919781
vt 0.129245 0.918745
vt 0.129737 0.918745
vt 0.129737 0.917778
vt 0.129245 0.917778
vt 0.129245 0.916813
vt 0.129737 0.916813
vt 0.129737 0.915779
vt 0.129245 0.915779
vt 0.129737 0.915101
vt 0.129245 0.915101
vt 0.478600 0.937971
vt 0.482352 0.899544
vt 0.482352 0.934647
vt 0.478600 0.899544
vt 0.472872 0.940013
vt 0.472872 0.899544
vt 0.467526 0.899544
vt 0.467526 0.940364
vt 0.462179 0.940013
vt 0.462179 0.899544
vt 0.456452 0.899544
vt 0.456452 0.937971
vt 0.452699 0.899544
vt 0.452699 0.934647
vt 0.404810 0.652588
vt 0.407858 0.681040
vt 0.404810 0.681040
vt 0.407858 0.652588
vt 0.401605 0.652588
vt 0.401605 0.681040
vt 0.397769 0.652588
vt 0.397769 0.681040
vt 0.393905 0.652588
vt 0.393905 0.681040
vt 0.390155 0.652588
vt 0.390155 0.681040
vt 0.138608 0.928030
vt 0.138977 0.928594
vt 0.138608 0.928594
vt 0.138977 0.928030
vt 0.138608 0.927171
vt 0.138977 0.927171
vt 0.138977 0.926369
vt 0.138608 0.926369
vt 0.138608 0.925568
vt 0.138977 0.925568
vt 0.138977 0.924710
vt 0.138608 0.924710
vt 0.138977 0.924148
vt 0.138608 0.924148
vt 0.491389 0.891948
vt 0.496454 0.838192
vt 0.496454 0.887298
vt 0.491389 0.838192
vt 0.483658 0.894804
vt 0.483658 0.838192
vt 0.476441 0.838192
vt 0.476441 0.895294
vt 0.469224 0.894804
vt 0.469224 0.838192
vt 0.461493 0.838192
vt 0.461493 0.891948
vt 0.456428 0.838192
vt 0.456428 0.887298
vt 0.244729 0.702461
vt 0.243314 0.697066
vt 0.244567 0.696807
vt 0.243530 0.702168
vt 0.244598 0.706504
vt 0.242731 0.706537
vt 0.246531 0.702848
vt 0.246512 0.697097
vt 0.246543 0.706565
vt 0.248340 0.702441
vt 0.248455 0.696790
vt 0.248487 0.706496
vt 0.249534 0.702217
vt 0.250181 0.697145
vt 0.249839 0.706611
vt 0.251952 0.702409
vt 0.252627 0.697747
vt 0.251420 0.706755
vt 0.356292 0.720396
vt 0.365054 0.720396
vt 0.371903 0.717362
vt 0.371790 0.720181
vt 0.368194 0.727836
vt 0.373363 0.729941
vt 0.370586 0.731156
vt 0.369701 0.725065
vt 0.365054 0.726725
vt 0.364725 0.723562
vt 0.356292 0.726725
vt 0.356006 0.723562
vt 0.371712 0.722654
vt 0.376350 0.729006
vt 0.376655 0.735691
vt 0.373627 0.735422
vt 0.370545 0.735152
vt 0.386257 0.718502
vt 0.387919 0.718763
vt 0.386765 0.719355
vt 0.387489 0.718159
vt 0.386277 0.711329
vt 0.387476 0.711815
vt 0.387843 0.709871
vt 0.388412 0.710701
vt 0.390258 0.709109
vt 0.390790 0.710024
vt 0.388573 0.721205
vt 0.391931 0.720540
vt 0.392030 0.721379
vt 0.388918 0.720374
vt 0.385895 0.719930
vt 0.385074 0.718516
vt 0.385074 0.711394
vt 0.387378 0.708575
vt 0.389937 0.708231
vt 0.377696 0.720402
vt 0.374482 0.721591
vt 0.374584 0.720645
vt 0.378147 0.721262
vt 0.380156 0.719264
vt 0.380886 0.719813
vt 0.380275 0.718381
vt 0.381440 0.718335
vt 0.380275 0.711259
vt 0.381440 0.711213
vt 0.378664 0.709409
vt 0.378909 0.708528
vt 0.376105 0.709065
vt 0.376350 0.708184
vt 0.377510 0.719109
vt 0.374507 0.719348
vt 0.379643 0.718544
vt 0.136273 0.782821
vt 0.132372 0.794890
vt 0.132372 0.782821
vt 0.136273 0.794890
vt 0.148941 0.782821
vt 0.148941 0.794890
vt 0.161601 0.782821
vt 0.161601 0.794890
vt 0.165495 0.782821
vt 0.165495 0.794890
vt 0.130856 0.807944
vt 0.133995 0.817830
vt 0.130687 0.817529
vt 0.134172 0.807794
vt 0.144745 0.818319
vt 0.144931 0.807726
vt 0.155673 0.808173
vt 0.155496 0.818209
vt 0.158975 0.808440
vt 0.158806 0.818025
vt 0.451417 0.683472
vt 0.451014 0.674402
vt 0.454441 0.675883
vt 0.363390 0.676526
vt 0.388576 0.672692
vt 0.389035 0.676526
vt 0.389098 0.668854
vt 0.389432 0.664625
vt 0.363661 0.664625
vt 0.389827 0.660785
vt 0.364183 0.660786
vt 0.389432 0.656952
vt 0.363661 0.656952
vt 0.389161 0.652723
vt 0.363265 0.652722
vt 0.415951 0.751886
vt 0.417896 0.748500
vt 0.418279 0.751804
vt 0.415578 0.748581
vt 0.417426 0.745508
vt 0.417684 0.742488
vt 0.417830 0.739165
vt 0.415511 0.739246
vt 0.418078 0.736145
vt 0.415771 0.736226
vt 0.417612 0.733154
vt 0.415306 0.733235
vt 0.397125 0.731209
vt 0.408329 0.727995
vt 0.408678 0.730803
vt 0.396832 0.728399
vt 0.407905 0.725453
vt 0.408150 0.722885
vt 0.408273 0.720060
vt 0.396776 0.720465
vt 0.408460 0.717495
vt 0.397020 0.717897
vt 0.408065 0.714952
vt 0.396624 0.715354
vt 0.362920 0.702082
vt 0.388257 0.696792
vt 0.388869 0.701170
vt 0.362343 0.697701
vt 0.387697 0.692577
vt 0.361941 0.693481
vt 0.387040 0.688764
vt 0.387428 0.684909
vt 0.387612 0.680669
vt 0.361856 0.681572
vt 0.387873 0.676818
vt 0.362244 0.677718
vt 0.415938 0.733040
vt 0.417884 0.729653
vt 0.418267 0.732958
vt 0.415566 0.729733
vt 0.417414 0.726660
vt 0.417673 0.723641
vt 0.417863 0.720315
vt 0.415455 0.720399
vt 0.417809 0.716427
vt 0.415452 0.716510
vt 0.417533 0.712892
vt 0.415305 0.712970
vt 0.366058 0.652264
vt 0.400258 0.648430
vt 0.400717 0.652264
vt 0.400811 0.644592
vt 0.401113 0.640359
vt 0.366266 0.640359
vt 0.401477 0.636521
vt 0.366820 0.636521
vt 0.401113 0.632686
vt 0.366266 0.632686
vt 0.400905 0.628454
vt 0.365871 0.628453
vt 0.416032 0.712767
vt 0.417973 0.709381
vt 0.418350 0.712686
vt 0.415655 0.709462
vt 0.417502 0.706388
vt 0.415187 0.706567
vt 0.417762 0.703368
vt 0.415451 0.703353
vt 0.417906 0.700045
vt 0.415588 0.700126
vt 0.418155 0.697025
vt 0.415848 0.697106
vt 0.417695 0.694034
vt 0.415377 0.694115
vt 0.397151 0.746791
vt 0.408735 0.743677
vt 0.409079 0.746342
vt 0.396861 0.744124
vt 0.408290 0.741270
vt 0.408480 0.738829
vt 0.408597 0.736148
vt 0.396724 0.736593
vt 0.408805 0.733714
vt 0.396987 0.734158
vt 0.408459 0.731295
vt 0.396641 0.731739
vt 0.213737 0.707008
vt 0.210831 0.696743
vt 0.214198 0.696757
vt 0.210864 0.706995
vt 0.216945 0.707034
vt 0.217460 0.696878
vt 0.220111 0.707175
vt 0.220387 0.697012
vt 0.223356 0.707254
vt 0.223256 0.697118
vt 0.226621 0.707232
vt 0.226588 0.697096
vt 0.228885 0.707309
vt 0.229170 0.697060
vt 0.298060 0.684983
vt 0.286545 0.686680
vt 0.286369 0.684973
vt 0.298232 0.686523
vt 0.298290 0.677853
vt 0.286404 0.680797
vt 0.286541 0.678243
vt 0.286335 0.682894
vt 0.298056 0.673681
vt 0.286541 0.676151
vt 0.286368 0.673671
vt 0.298225 0.675775
vt 0.298086 0.670133
vt 0.286352 0.671862
vt 0.286173 0.670123
vt 0.298261 0.671701
vt 0.286264 0.665864
vt 0.286402 0.663311
vt 0.286137 0.668004
vt 0.298050 0.668003
vt 0.298079 0.658664
vt 0.286344 0.661181
vt 0.286168 0.658654
vt 0.298251 0.660798
vt 0.261052 0.661830
vt 0.232787 0.658083
vt 0.233007 0.656942
vt 0.260832 0.662971
vt 0.262107 0.663031
vt 0.262493 0.666260
vt 0.131091 0.806762
vt 0.136204 0.801227
vt 0.134218 0.807106
vt 0.134187 0.798208
vt 0.139877 0.799203
vt 0.139629 0.795257
vt 0.149578 0.795260
vt 0.149578 0.799203
vt 0.261317 0.660536
vt 0.233272 0.655645
vt 0.263068 0.662435
vt 0.263528 0.666103
vt 0.263162 0.659644
vt 0.262823 0.661003
vt 0.266593 0.660703
vt 0.266203 0.662046
vt 0.262165 0.655329
vt 0.234122 0.650425
vt 0.284857 0.652188
vt 0.292946 0.652127
vt 0.374382 0.722430
vt 0.378492 0.722093
vt 0.381774 0.720356
vt 0.382606 0.718381
vt 0.382606 0.711259
vt 0.379268 0.707669
vt 0.376708 0.707326
vt 0.131423 0.923665
vt 0.137684 0.920321
vt 0.137684 0.923665
vt 0.131423 0.920321
vt 0.131423 0.916981
vt 0.137684 0.916981
vt 0.382820 0.723632
vt 0.384418 0.727654
vt 0.383121 0.727731
vt 0.384126 0.723659
vt 0.382599 0.720356
vt 0.383900 0.720415
vt 0.383908 0.718471
vt 0.383907 0.711349
vt 0.382605 0.707669
vt 0.383909 0.707693
vt 0.382428 0.705115
vt 0.383734 0.705139
vt 0.193111 0.745461
vt 0.216162 0.745461
vt 0.239211 0.745461
vt 0.388125 0.722064
vt 0.392130 0.722324
vt 0.384874 0.720415
vt 0.387133 0.707693
vt 0.389693 0.707349
vt 0.386795 0.743855
vt 0.396657 0.745719
vt 0.386795 0.745719
vt 0.395296 0.743855
vt 0.392869 0.752026
vt 0.386795 0.752026
vt 0.380720 0.752026
vt 0.376932 0.745719
vt 0.378293 0.743855
vt 0.263145 0.745460
vt 0.262964 0.809639
vt 0.169178 0.745461
vt 0.169359 0.809640
vt 0.141511 0.803661
vt 0.146288 0.799351
vt 0.146288 0.803730
vt 0.151067 0.803661
vt 0.151067 0.805201
vt 0.146288 0.805277
vt 0.141511 0.805201
vt 0.151067 0.799351
vt 0.152540 0.799351
vt 0.152540 0.803542
vt 0.152540 0.805068
vt 0.152540 0.807608
vt 0.151067 0.807539
vt 0.146288 0.807500
vt 0.141511 0.807539
vt 0.140042 0.807608
vt 0.140042 0.805068
vt 0.140042 0.803542
vt 0.140042 0.799351
vt 0.141511 0.799351
vt 0.379164 0.729189
vt 0.376696 0.722641
vt 0.379483 0.722907
vt 0.379472 0.735587
vt 0.149715 0.795231
vt 0.159416 0.799173
vt 0.149715 0.799173
vt 0.159416 0.795232
vt 0.165107 0.798178
vt 0.163089 0.801198
vt 0.168204 0.806733
vt 0.165076 0.807077
vt 0.367770 0.731301
vt 0.367730 0.735014
vt 0.356494 0.729559
vt 0.365299 0.729559
vt 0.393227 0.684859
vt 0.389145 0.684793
vt 0.391049 0.682926
vt 0.391294 0.686773
vt 0.395603 0.687218
vt 0.393540 0.689139
vt 0.390115 0.708488
vt 0.398919 0.708488
vt 0.401392 0.710231
vt 0.401352 0.713944
vt 0.412784 0.708118
vt 0.410316 0.701571
vt 0.413103 0.701837
vt 0.413092 0.714517
vt 0.231019 0.702080
vt 0.233220 0.706604
vt 0.231771 0.707068
vt 0.233405 0.702111
vt 0.231977 0.696701
vt 0.233373 0.696769
vt 0.363795 0.705373
vt 0.359318 0.705635
vt 0.361246 0.703384
vt 0.361939 0.707561
vt 0.366320 0.707572
vt 0.364431 0.709666
vt 0.235107 0.707099
vt 0.235640 0.702793
vt 0.235217 0.697462
vt 0.236998 0.707425
vt 0.237605 0.702940
vt 0.237150 0.697595
vt 0.238737 0.707901
vt 0.238961 0.702890
vt 0.238383 0.697526
vt 0.136358 0.774411
vt 0.132494 0.778614
vt 0.132494 0.775441
vt 0.136358 0.779644
vt 0.148924 0.773139
vt 0.148924 0.780234
vt 0.161497 0.774411
vt 0.161497 0.779644
vt 0.165368 0.775441
vt 0.165368 0.778614
vt 0.229402 0.702424
vt 0.230199 0.707757
vt 0.229199 0.697095
vt 0.152707 0.799399
vt 0.155284 0.800122
vt 0.152707 0.800122
vt 0.155284 0.799399
vt 0.152707 0.806365
vt 0.155284 0.807198
vt 0.152707 0.807198
vt 0.155284 0.806365
vt 0.152707 0.803658
vt 0.155284 0.803658
vt 0.152707 0.800954
vt 0.155284 0.800954
vt 0.240695 0.707851
vt 0.240370 0.702469
vt 0.240636 0.697142
vt 0.155284 0.807920
vt 0.152707 0.807920
vt 0.241510 0.697160
vt 0.241104 0.701852
vt 0.240822 0.706222
vt 0.330077 0.763830
vt 0.383729 0.752259
vt 0.383729 0.763830
vt 0.330077 0.752259
vt 0.295101 0.763830
vt 0.295101 0.752259
vt 0.397793 0.751948
vt 0.415277 0.747557
vt 0.415277 0.751948
vt 0.397793 0.747557
vt 0.418663 0.752259
vt 0.418663 0.763829
vt 0.499660 0.887298
vt 0.499660 0.838192
vt 0.452682 0.887298
vt 0.452682 0.838192
vt 0.456582 0.895518
vt 0.461830 0.899401
vt 0.456582 0.899401
vt 0.461830 0.895518
vt 0.469843 0.899401
vt 0.469842 0.895518
vt 0.477322 0.899401
vt 0.477322 0.895518
vt 0.484802 0.895518
vt 0.484802 0.899401
vt 0.492813 0.895518
vt 0.492813 0.899401
vt 0.498063 0.895518
vt 0.498063 0.899401
vt 0.443440 0.823137
vt 0.439025 0.763950
vt 0.443440 0.763950
vt 0.439025 0.823137
vt 0.493439 0.823137
vt 0.487112 0.763950
vt 0.493439 0.763950
vt 0.487112 0.828742
vt 0.477455 0.763950
vt 0.477455 0.832186
vt 0.468440 0.832776
vt 0.468440 0.763950
vt 0.459424 0.763950
vt 0.459424 0.832186
vt 0.449768 0.828742
vt 0.449768 0.763950
vt 0.498600 0.763950
vt 0.498600 0.823137
vt 0.499842 0.838108
vt 0.493515 0.832947
vt 0.499842 0.832947
vt 0.493515 0.838108
vt 0.483858 0.832947
vt 0.483858 0.838108
vt 0.474842 0.832947
vt 0.474842 0.838108
vt 0.466305 0.837870
vt 0.466305 0.832801
vt 0.456647 0.837870
vt 0.456647 0.832708
vt 0.449843 0.838108
vt 0.449843 0.832947
vn -0.5445 0.5633 -0.6215
vn -0.1933 -0.4888 -0.8507
vn -0.1901 0.4887 -0.8515
vn -0.5703 -0.5509 -0.6093
vn -0.8096 0.5658 -0.1564
vn 0.0114 -0.9964 0.0838
vn -0.0536 -0.9682 -0.2443
vn 0.0026 -1.0000 -0.0016
vn 0.0079 -0.4533 -0.8913
vn 0.0056 0.4519 -0.8921
vn 0.8221 -0.5484 0.1529
vn -0.0010 -0.9999 0.0160
vn 0.8607 -0.5091 0.0073
vn -0.0055 -0.9555 0.2950
vn -0.8603 -0.5098 0.0088
vn -0.8190 -0.5507 0.1614
vn -0.8637 0.5040 -0.0039
vn -0.8837 0.4595 -0.0892
vn -0.7975 -0.3812 0.4676
vn -0.9171 0.2866 -0.2772
vn -0.8955 -0.2808 0.3452
vn -0.7998 0.3790 -0.4654
vn -0.8999 -0.4210 0.1140
vn -0.8225 0.5464 -0.1580
vn -0.8222 -0.5324 -0.2010
vn 0.0206 -0.9996 -0.0191
vn 0.1368 -0.9905 -0.0116
vn 0.8630 -0.5052 0.0000
vn -0.0001 -1.0000 0.0000
vn -0.0181 -0.9255 0.3784
vn 0.9017 -0.4164 0.1164
vn -0.0120 -0.5559 0.8311
vn -0.0058 -0.6251 0.7805
vn 0.8011 -0.3721 0.4688
vn 0.8985 -0.2792 0.3388
vn -0.1901 0.4886 -0.8515
vn 0.0079 -0.4532 -0.8914
vn 0.0055 0.4518 -0.8921
vn -0.1934 -0.4886 -0.8508
vn 0.0102 -0.9964 0.0836
vn 0.0047 -0.4521 0.8919
vn 0.2049 -0.4346 0.8770
vn 0.0655 -0.9935 0.0936
vn 0.6263 -0.4454 0.6398
vn 0.0798 -0.9950 0.0595
vn 0.8589 -0.4708 0.2018
vn 0.1960 -0.9785 -0.0643
vn -0.8151 -0.5537 -0.1706
vn -0.1409 -0.9781 -0.1533
vn -0.5949 -0.5283 -0.6058
vn 0.0105 -0.9965 0.0833
vn -0.5948 0.5294 -0.6050
vn -0.5957 -0.5269 -0.6063
vn -0.8227 -0.5307 -0.2036
vn -0.3471 -0.7526 0.5596
vn 0.2071 -0.4339 0.8769
vn 0.0047 -0.4522 0.8919
vn -0.5961 0.5303 -0.6028
vn -0.8151 0.5537 -0.1706
vn -0.4890 0.6827 0.5430
vn -0.4811 -0.6794 0.5540
vn -0.1894 0.4890 -0.8514
vn -0.8222 0.5323 -0.2013
vn -0.2770 0.8011 0.5305
vn -0.2731 0.1626 -0.9481
vn -0.7646 -0.4505 -0.4609
vn -0.7646 0.4486 -0.4628
vn -0.2126 -0.9162 0.3397
vn -0.2398 -0.7566 -0.6083
vn -0.2731 -0.1626 -0.9481
vn -0.0000 0.3204 -0.9473
vn 0.0056 0.8920 -0.4519
vn 0.2730 0.1626 -0.9482
vn 0.7767 0.4489 -0.4419
vn 0.2730 -0.1626 -0.9482
vn 0.7877 -0.1640 -0.5938
vn -0.0000 -0.3204 -0.9473
vn 0.8188 -0.4810 0.3133
vn 0.8936 -0.2683 0.3597
vn 0.6846 -0.4003 0.6092
vn -0.0001 -0.9516 0.3073
vn -0.8376 -0.4849 0.2517
vn -0.8374 0.4863 0.2496
vn -0.0050 0.9664 0.2570
vn 0.8293 0.4876 0.2729
vn 0.8188 0.4810 0.3133
vn 0.6846 0.4003 0.6092
vn -0.0001 0.7912 0.6116
vn -0.0001 0.9516 0.3073
vn -0.8190 0.4809 0.3131
vn -0.8190 -0.4809 0.3131
vn -0.0001 -0.7912 0.6116
vn -0.6846 0.4002 0.6092
vn -0.6846 -0.4002 0.6092
vn 0.5775 -0.5774 -0.5772
vn -0.5773 -0.5773 0.5774
vn -0.5772 -0.5773 -0.5775
vn 0.5774 -0.5774 0.5773
vn -0.3919 -0.2967 0.8708
vn 0.1862 0.7064 0.6829
vn -0.1303 -0.6747 0.7265
vn 0.0000 0.7371 0.6758
vn -0.0000 -0.6814 0.7319
vn -0.1859 0.7064 0.6829
vn 0.1302 -0.6748 0.7265
vn -0.6602 0.4527 0.5993
vn 0.3918 -0.2967 0.8709
vn -0.6603 -0.4527 0.5993
vn 0.3918 0.2967 0.8709
vn -0.1599 -0.7204 0.6749
vn 0.1097 0.6711 0.7332
vn 0.0000 -0.7218 0.6921
vn -0.0000 0.6956 0.7184
vn 0.1601 -0.7204 0.6749
vn -0.1098 0.6710 0.7333
vn 0.6604 -0.4525 0.5993
vn -0.3919 0.2967 0.8708
vn 0.6604 0.4525 0.5993
vn -0.8278 -0.1282 -0.5463
vn 0.2500 -0.2212 -0.9426
vn -0.8322 -0.1266 -0.5399
vn 0.2479 -0.2213 -0.9432
vn 0.3471 0.2142 0.9130
vn -0.7637 0.1475 0.6285
vn 0.3443 0.2144 0.9140
vn -0.7683 0.1462 0.6232
vn 0.9983 -0.0135 -0.0573
vn 0.9988 -0.0112 -0.0477
vn -0.7070 -0.7072 0.0000
vn 0.5774 -0.5772 -0.5774
vn 0.7072 -0.7070 0.0000
vn -0.5773 -0.5775 -0.5773
vn -0.7068 0.7074 0.0000
vn -0.5771 0.5776 -0.5773
vn 0.7074 0.7068 0.0000
vn 0.5776 0.5771 -0.5774
vn 0.3516 -0.7036 -0.6175
vn 0.8006 0.0253 0.5986
vn 0.3588 -0.6341 0.6850
vn 0.7995 -0.0370 -0.5995
vn -0.3510 -0.7038 -0.6176
vn -0.8008 0.0250 0.5984
vn -0.7996 -0.0371 -0.5993
vn -0.3582 -0.6343 0.6851
vn -0.0000 0.1873 0.9823
vn -0.0000 -0.6367 0.7711
vn 0.0000 0.7708 0.6370
vn 0.3830 0.7492 0.5403
vn -0.3825 0.7494 0.5404
vn 0.6994 0.1877 0.6896
vn -0.0000 0.0000 1.0000
vn 0.7289 0.1346 0.6713
vn 0.6245 0.4269 0.6540
vn 0.5754 0.6649 0.4763
vn 0.5754 0.6649 -0.4763
vn 0.7289 0.1346 -0.6712
vn 0.0000 0.0000 -1.0000
vn 0.6995 0.1877 -0.6896
vn 0.6245 0.4270 -0.6539
vn -0.6999 0.2082 -0.6833
vn -0.7386 0.1339 -0.6607
vn -0.5557 0.5377 -0.6341
vn -0.3408 0.7396 -0.5803
vn -0.5557 0.5378 0.6340
vn -0.3408 0.7397 0.5803
vn -0.6999 0.2082 0.6832
vn -0.7386 0.1339 0.6607
vn 0.6782 0.5310 -0.5080
vn -0.0034 0.7442 0.6680
vn 0.6807 0.6748 0.2851
vn -0.6867 0.5213 -0.5067
vn -0.6886 0.6658 0.2874
vn -0.0034 0.4621 -0.8868
vn 0.6825 0.5256 -0.5078
vn 0.0002 0.7450 0.6671
vn 0.6847 0.6706 0.2854
vn -0.6824 0.5256 -0.5080
vn -0.6846 0.6706 0.2856
vn 0.0002 0.4610 -0.8874
vn 0.6825 0.5256 -0.5079
vn 0.6846 0.6707 0.2854
vn -0.6846 0.6707 0.2856
vn 0.0001 0.7450 0.6671
vn 0.6846 0.6706 0.2855
vn 0.6825 0.5257 -0.5078
vn 0.0002 0.7449 0.6671
vn 0.6847 0.6707 0.2854
vn -0.6824 0.5256 -0.5079
vn 0.0002 0.7449 0.6672
vn -0.6825 0.5256 -0.5079
vn 0.6826 0.5240 -0.5094
vn 0.0002 0.7472 0.6646
vn 0.6846 0.6717 0.2832
vn -0.6825 0.5239 -0.5096
vn -0.6845 0.6717 0.2834
vn 0.0002 0.4579 -0.8890
vn -0.0001 0.3203 -0.9473
vn -0.2730 -0.1627 -0.9482
vn -0.2730 0.1627 -0.9482
vn 0.2728 -0.1627 -0.9482
vn -0.0001 -0.3204 -0.9473
vn 0.2728 0.1627 -0.9482
vn 0.2459 0.7658 -0.5942
vn 0.7766 0.4490 -0.4420
vn 0.7766 -0.4508 -0.4400
vn 0.0055 -0.8940 -0.4481
vn -0.7756 0.1609 -0.6104
vn 0.6845 0.4004 0.6092
vn 0.6845 -0.4004 0.6092
vn -0.6846 0.4003 0.6092
vn -0.6846 -0.4003 0.6092
vn 0.2073 0.9129 0.3517
vn -0.8189 0.4810 0.3132
vn -0.9008 0.2713 0.3390
vn 0.8292 0.4877 0.2730
vn 0.8294 -0.4862 0.2751
vn -0.0050 -0.9652 0.2613
vn -0.8375 -0.4849 0.2518
vn -0.8189 -0.4810 0.3132
vn -0.0001 -0.9516 0.3072
vn 0.8187 -0.4811 0.3134
vn 0.8187 0.4811 0.3134
vn 0.8830 -0.2795 -0.3772
vn 0.5063 0.4120 0.7576
vn 0.8590 -0.1818 0.4786
vn 0.1575 0.8409 -0.5177
vn 0.1245 0.9327 0.3384
vn 0.5384 0.2704 -0.7981
vn 0.7010 0.6750 -0.2300
vn -0.0935 0.4697 0.8778
vn 0.5927 0.5203 0.6149
vn -0.6314 0.6704 -0.3897
vn -0.7377 0.5033 0.4501
vn 0.0558 0.7587 -0.6490
vn -0.0935 0.4697 0.8779
vn -0.4626 0.4033 0.7895
vn -0.6993 -0.6432 0.3119
vn -0.8195 0.4462 0.3597
vn -0.4124 -0.5997 0.6858
vn -0.2590 0.3554 0.8981
vn -0.2334 -0.5464 0.8043
vn 0.2037 -0.9723 -0.1147
vn 0.9142 -0.4052 -0.0023
vn 0.1028 -0.9947 -0.0016
vn 0.8849 -0.3654 -0.2888
vn 0.1134 -0.9749 -0.1915
vn 0.5363 -0.3489 -0.7685
vn 0.0327 -0.9942 -0.1027
vn 0.2703 -0.3698 -0.8889
vn -0.8055 -0.5926 0.0007
vn 0.6266 0.4446 0.6400
vn 0.0094 0.9965 0.0836
vn 0.2035 0.4345 0.8774
vn 0.0638 0.9938 0.0912
vn 0.8591 0.4705 0.2015
vn 0.0706 0.9968 0.0368
vn 0.8630 0.5052 -0.0000
vn 0.1309 0.9914 0.0047
vn 0.0023 1.0000 0.0014
vn 0.0067 0.4534 0.8913
vn 0.0111 0.9965 0.0831
vn 0.2061 0.4343 0.8769
vn -0.0658 0.9974 -0.0307
vn -0.0001 1.0000 -0.0000
vn 0.1286 0.9914 -0.0246
vn -0.0559 0.9683 -0.2433
vn 0.0165 0.9962 0.0855
vn 0.8630 0.5051 -0.0000
vn 0.0008 1.0000 -0.0059
vn 0.0171 0.9953 -0.0952
vn 0.0311 0.7763 -0.6296
vn 0.0015 0.6626 -0.7490
vn 0.0007 0.9714 -0.2373
vn 0.8216 0.5471 -0.1602
vn 0.8632 0.5049 -0.0022
vn 0.8753 0.4771 -0.0793
vn 0.9110 0.2898 -0.2934
vn 0.7988 0.3803 -0.4661
vn 0.2245 -0.4287 0.8751
vn 0.2268 0.4324 0.8727
vn 0.2245 0.6487 -0.7272
vn 0.7830 0.6026 -0.1544
vn 0.7526 0.4239 -0.5039
vn 0.2455 0.9432 -0.2240
vn 0.0001 0.6712 -0.7412
vn 0.0001 0.9739 -0.2272
vn -0.2451 0.9433 -0.2241
vn -0.7828 0.6028 -0.1545
vn -0.2242 0.6487 -0.7272
vn -0.7524 0.4241 -0.5040
vn 0.6542 0.4770 -0.5870
vn -0.0518 -0.1752 -0.9832
vn 0.7986 0.0614 -0.5987
vn -0.2465 -0.8529 -0.4602
vn -0.0115 -0.0090 -0.9999
vn -0.0301 -0.8477 -0.5296
vn 0.0167 -0.1259 -0.9919
vn -0.0571 0.8510 -0.5220
vn 0.2312 0.7541 -0.6147
vn 0.0013 -0.1432 -0.9897
vn -0.8452 -0.2337 -0.4807
vn -0.8512 -0.0729 -0.5197
vn 0.0001 -0.1390 -0.9903
vn 0.8513 -0.0729 -0.5196
vn -0.6547 -0.5805 -0.4842
vn -0.8263 0.0783 0.5577
vn -0.8404 -0.0747 0.5368
vn -0.7315 -0.4606 0.5028
vn 0.5818 0.5662 0.5839
vn -0.0609 -0.0324 0.9976
vn 0.2143 0.7910 0.5731
vn -0.1285 0.0561 0.9901
vn 0.8138 0.2197 0.5380
vn -0.0420 0.1174 0.9922
vn 0.8264 0.0782 0.5576
vn 0.0001 0.1389 0.9903
vn -0.2997 -0.7925 0.5312
vn -0.0408 -0.8626 0.5043
vn -0.0249 -0.0392 0.9989
vn -0.0538 0.8278 0.5585
vn 0.7987 0.0614 -0.5986
vn 0.8513 -0.0729 -0.5195
vn 0.6543 0.4770 -0.5868
vn -0.0518 -0.1753 -0.9832
vn -0.8513 -0.0729 -0.5197
vn -0.8452 -0.2338 -0.4806
vn 0.2312 0.7542 -0.6146
vn 0.0167 -0.1260 -0.9919
vn -0.0571 0.8511 -0.5219
vn -0.0301 -0.8478 -0.5295
vn -0.6547 -0.5805 -0.4841
vn -0.0000 -0.7071 -0.7071
vn -0.5774 -0.5773 0.5773
vn -0.5773 -0.5774 -0.5774
vn -0.0000 -0.7071 0.7071
vn 0.5773 -0.5774 -0.5774
vn -0.3719 0.6453 -0.6673
vn -0.7102 0.3255 -0.6243
vn -0.1454 0.7206 -0.6780
vn 0.0000 0.7209 -0.6930
vn 0.1456 0.7206 -0.6779
vn 0.3726 0.6450 -0.6672
vn 0.7103 0.3249 -0.6244
vn 0.9994 -0.0352 0.0000
vn 0.2733 -0.9619 0.0000
vn 0.3392 0.9407 -0.0000
vn -0.7851 0.6194 -0.0000
vn -0.7851 0.6193 -0.0000
vn -0.8265 -0.5629 -0.0000
vn -0.7071 -0.7071 0.0000
vn -0.5774 -0.5774 -0.5773
vn -0.0000 -1.0000 -0.0000
vn 0.7071 -0.7071 0.0000
vn 0.5774 -0.5774 -0.5773
vn -0.3721 0.6452 -0.6672
vn -0.7102 0.3253 -0.6243
vn 0.3727 0.6450 -0.6672
vn 0.7104 0.3249 -0.6244
vn 0.8404 0.5153 0.1677
vn 0.8839 -0.4610 -0.0781
vn 0.8327 0.5442 0.1028
vn 0.8802 -0.4522 -0.1439
vn 0.8723 0.4402 0.2129
vn 0.8450 -0.4815 -0.2329
vn 0.0007 0.9494 0.3141
vn 0.0014 0.9828 0.1847
vn -0.0000 0.9002 0.4354
vn -0.8409 0.5142 0.1687
vn -0.8337 0.5430 0.1000
vn -0.8723 0.4402 0.2129
vn -0.8797 -0.4527 -0.1455
vn -0.8831 -0.4631 -0.0755
vn -0.8450 -0.4814 -0.2328
vn -0.0014 -0.9541 -0.2994
vn -0.0026 -0.9869 -0.1614
vn -0.0000 -0.9002 -0.4354
vn -0.8264 0.0783 0.5576
vn -0.8404 -0.0747 0.5367
vn -0.7315 -0.4607 0.5027
vn 0.5818 0.5663 0.5838
vn 0.2143 0.7911 0.5730
vn 0.8138 0.2197 0.5379
vn -0.0420 0.1175 0.9922
vn 0.8265 0.0782 0.5575
vn 0.0002 0.1390 0.9903
vn -0.2997 -0.7925 0.5311
vn -0.0408 -0.8626 0.5042
vn -0.0538 0.8278 0.5584
vn 0.8119 -0.5537 -0.1850
vn 0.5124 0.5733 -0.6393
vn 0.5302 -0.4716 -0.7046
vn 0.8323 0.5192 -0.1941
vn 0.7971 -0.5217 0.3042
vn 0.7746 0.5468 0.3178
vn 0.4377 -0.5148 0.7372
vn 0.4141 0.4924 0.7656
vn 0.1216 -0.4052 0.9061
vn 0.1184 0.4556 0.8823
vn 0.0068 -1.0000 0.0050
vn 0.0360 -0.3809 -0.9239
vn -0.0080 -0.9987 -0.0513
vn 0.1599 -0.4278 -0.8896
vn -0.0231 -0.9937 0.1093
vn -0.0760 -0.9944 0.0738
vn -0.0951 -0.9916 -0.0879
vn -0.1006 -0.9879 -0.1178
vn 0.0099 -0.9972 0.0737
vn 0.1639 0.5127 -0.8428
vn -0.0183 0.9845 0.1745
vn 0.0333 0.5558 -0.8307
vn -0.0106 0.9935 0.1137
vn -0.1142 0.9845 0.1329
vn -0.0601 0.9981 0.0152
vn -0.1114 0.9878 -0.1088
vn -0.0697 0.9928 -0.0976
vn 0.0100 0.9972 0.0742
vn 0.6418 0.4861 0.5932
vn 0.1179 0.7211 0.6827
vn -0.0000 0.7179 0.6961
vn -0.1180 0.7211 0.6827
vn -0.6419 0.4859 0.5932
vn -0.1968 0.3362 -0.9210
vn -0.7540 0.2235 -0.6176
vn 0.0001 0.3464 -0.9381
vn 0.1971 0.3361 -0.9209
vn 0.7542 0.2234 -0.6174
vn 0.0003 0.1389 0.9903
vn 0.8719 0.0680 0.4849
vn -0.8718 0.0681 0.4852
vn -0.8494 -0.0733 -0.5226
vn 0.0002 -0.1390 -0.9903
vn 0.8496 -0.0733 -0.5223
vn 0.8719 0.0680 0.4850
vn 0.8496 -0.0733 -0.5224
vn 0.0002 0.1389 0.9903
vn -0.8718 0.0681 0.4851
vn -0.8495 -0.0733 -0.5225
vn 0.8497 -0.0733 -0.5222
vn 0.0003 -0.1390 -0.9903
vn 0.8719 0.0681 0.4849
vn 0.0003 0.1390 0.9903
vn -0.8495 -0.0733 -0.5224
vn 0.0003 0.1462 0.9892
vn 0.8710 0.0719 0.4860
vn -0.8709 0.0719 0.4862
vn -0.8507 -0.0769 -0.5201
vn 0.0003 -0.1463 -0.9892
vn 0.8508 -0.0769 -0.5198
vn 0.8737 0.0791 0.4800
vn 0.8500 -0.0596 -0.5234
vn 0.0048 0.1366 0.9906
vn -0.8705 0.0546 0.4892
vn -0.8482 -0.0846 -0.5229
vn 0.0045 -0.1365 -0.9906
vn 0.4658 -0.7590 -0.4548
vn 0.0229 -0.0814 -0.9964
vn -0.4289 0.6512 -0.6261
vn -0.4703 0.7652 0.4396
vn -0.0297 0.0922 0.9953
vn 0.4283 -0.6504 0.6273
vn -0.7826 0.0671 -0.6189
vn -0.8878 -0.0882 0.4517
vn 0.7537 -0.0728 0.6532
vn 0.9099 0.0823 -0.4065
vn -0.0967 -0.1429 0.9850
vn 0.0970 0.1429 -0.9850
vn 0.9100 0.0823 -0.4065
vn -0.0089 0.9995 -0.0301
vn -0.9147 0.4040 0.0023
vn -0.1177 0.9930 0.0016
vn -0.0182 0.9998 0.0089
vn -0.0367 0.9905 0.1327
vn 0.8787 -0.3121 0.3613
vn 0.8373 -0.1712 0.5193
vn 0.8654 -0.4869 0.1185
vn 0.7931 0.5484 -0.2649
vn 0.7969 0.6041 -0.0007
vn 0.4864 0.5246 -0.6987
vn 0.2416 0.5522 -0.7979
vn -0.0605 0.3445 0.9368
vn -0.2091 0.3955 0.8943
vn -0.6637 0.4102 0.6255
vn -0.8609 0.4774 0.1760
vn -0.8386 0.4398 -0.3214
vn -0.4071 0.4320 -0.8048
vn -0.1156 0.4935 -0.8620
vn -0.0000 -0.7086 -0.7056
vn -0.0558 -0.5145 0.8556
vn -0.1935 -0.4798 0.8558
vn -0.6046 -0.4723 0.6414
vn -0.8581 -0.4696 0.2076
vn -0.8342 -0.4636 -0.2988
vn -0.4347 -0.4084 -0.8026
vn -0.1179 -0.4624 -0.8788
vn 0.3856 0.6904 -0.6121
vn 0.0000 0.7071 -0.7071
vn -0.3851 0.6906 -0.6122
vn 0.0000 -0.0005 -1.0000
vn 0.2171 -0.9423 0.2548
vn 0.0000 -0.9644 0.2644
vn -0.2168 -0.9424 0.2548
vn -0.1990 -0.6114 0.7659
vn 0.0000 -0.6202 0.7844
vn 0.1993 -0.6114 0.7658
vn -0.8652 -0.4872 0.1186
vn -0.8785 -0.3123 0.3615
vn -0.8371 -0.1712 0.5195
vn -0.1736 -0.3030 0.9370
vn 0.0000 -0.3002 0.9539
vn 0.1739 -0.3030 0.9370
vn -0.8267 -0.5582 -0.0712
vn -0.8410 0.4679 -0.2717
vn -0.8257 -0.5583 -0.0806
vn -0.8068 0.4171 -0.4185
vn -0.8758 -0.4609 -0.1434
vn -0.7548 0.3682 -0.5429
vn 0.0524 0.9870 -0.1518
vn 0.0757 0.9526 -0.2945
vn -0.0018 0.8767 -0.4810
vn 0.8827 0.4528 0.1258
vn 0.8733 0.4699 0.1289
vn 0.8171 0.5739 0.0551
vn 0.8038 -0.5245 0.2809
vn 0.7808 -0.4680 0.4139
vn 0.7434 -0.3849 0.5470
vn -0.1375 -0.7119 0.6887
vn -0.6419 -0.4859 0.5932
vn -0.0000 -0.7296 0.6839
vn 0.1373 -0.7119 0.6887
vn 0.6418 -0.4861 0.5932
vn -0.0276 -0.9424 0.3333
vn -0.0023 -0.9824 0.1869
vn -0.1483 -0.8940 0.4227
vn -0.7070 0.0000 0.7072
vn 0.7072 0.0000 0.7070
vn -0.7069 -0.0000 -0.7073
vn 0.7073 -0.0000 -0.7069
vn -0.9092 0.4165 0.0000
vn 0.9094 0.4159 -0.0000
vn 0.5003 0.8659 -0.0000
vn 0.1981 0.9802 -0.0000
vn 0.0000 1.0000 -0.0000
vn -0.1978 0.9802 -0.0000
vn -0.4996 0.8663 0.0000
vn -0.7102 0.3255 0.6243
vn 0.7104 0.3249 0.6244
vn 0.3726 0.6450 0.6672
vn 0.1456 0.7206 0.6779
vn 0.0000 0.7209 0.6930
vn -0.1454 0.7206 0.6780
vn -0.3719 0.6453 0.6673
usemtl wartrukk_dif.001
s 1
f 1/1/1 2/2/2 3/3/3
f 2/2/2 1/1/1 4/4/4
f 5/5/5 4/4/4 1/1/1
f 6/6/6 4/4/4 7/7/7
f 4/4/4 6/6/6 2/2/2
f 8/8/8 2/2/2 6/6/6
f 2/2/2 8/8/8 9/9/9
f 9/9/9 3/3/3 2/2/2
f 3/3/3 9/9/9 10/10/10
f 11/11/11 12/12/12 13/13/13
f 12/12/12 11/11/11 14/14/14
f 14/14/14 15/15/15 12/12/12
f 15/15/15 14/14/14 16/16/16
f 16/16/16 17/17/17 15/15/15
f 17/17/17 16/16/16 18/18/18
f 19/19/19 18/18/18 16/16/16
f 18/18/18 19/19/19 20/20/20
f 21/21/21 20/20/20 19/19/19
f 20/20/20 21/21/21 22/22/22
f 23/23/23 22/22/22 21/21/21
f 22/22/22 23/23/23 24/24/24
f 25/25/25 24/24/24 23/23/23
f 24/24/24 25/25/25 5/5/5
f 4/4/4 5/5/5 25/25/25
f 26/26/26 4/4/4 25/25/25
f 27/27/27 4/4/4 26/26/26
f 28/28/28 27/27/27 26/26/26
f 27/27/27 28/28/28 29/29/28
f 30/30/28 27/27/27 29/29/28
f 27/27/27 30/30/28 31/31/29
f 23/23/23 26/26/26 25/25/25
f 21/21/21 32/32/30 23/23/23
f 26/26/26 23/23/23 32/32/30
f 32/32/30 28/28/28 26/26/26
f 28/28/28 32/32/30 33/33/31
f 34/34/32 33/33/31 32/32/30
f 32/32/30 21/21/21 34/34/32
f 19/19/19 34/34/32 21/21/21
f 34/34/32 19/19/19 35/35/33
f 16/16/16 35/35/33 19/19/19
f 35/35/33 16/16/16 14/14/14
f 14/14/14 36/36/34 35/35/33
f 36/36/34 14/14/14 11/11/11
f 33/33/31 34/34/32 37/37/35
f 35/35/33 37/37/35 34/34/32
f 37/37/35 35/35/33 36/36/34
f 38/38/36 39/39/37 40/40/38
f 39/39/37 38/38/36 41/41/39
f 41/41/39 42/42/8 39/39/37
f 42/42/8 41/41/39 43/43/40
f 43/43/40 44/44/41 42/42/8
f 44/44/41 43/43/40 45/45/42
f 46/46/43 45/45/42 43/43/40
f 45/45/42 46/46/43 47/47/44
f 48/48/45 47/47/44 46/46/43
f 47/47/44 48/48/45 49/49/46
f 50/50/47 49/49/46 48/48/45
f 49/49/46 50/50/47 51/51/28
f 50/50/47 30/30/28 51/51/28
f 30/30/28 50/50/47 31/31/29
f 50/50/47 52/52/48 31/31/29
f 27/27/27 31/31/29 52/52/48
f 27/27/27 52/52/48 7/7/7
f 27/27/27 7/7/7 4/4/4
f 53/53/49 50/50/47 48/48/45
f 53/53/49 52/52/48 50/50/47
f 54/54/50 52/52/48 53/53/49
f 55/55/51 54/54/50 53/53/49
f 56/56/52 41/41/39 38/38/36
f 41/41/39 56/56/52 57/57/53
f 57/57/53 43/43/40 41/41/39
f 43/43/40 57/57/53 46/46/43
f 58/58/54 46/46/43 57/57/53
f 46/46/43 58/58/54 48/48/45
f 59/59/55 48/48/45 58/58/54
f 53/53/49 48/48/45 59/59/55
f 60/60/56 53/53/49 59/59/55
f 53/53/49 60/60/56 55/55/51
f 61/61/57 55/55/51 60/60/56
f 55/55/51 61/61/57 62/62/8
f 62/62/8 63/63/39 55/55/51
f 54/54/50 55/55/51 63/63/39
f 63/63/39 64/64/58 54/54/50
f 65/65/59 54/54/50 64/64/58
f 54/54/50 65/65/59 52/52/48
f 66/66/60 52/52/48 65/65/59
f 52/52/48 66/66/60 67/67/61
f 7/7/7 52/52/48 67/67/61
f 64/64/58 63/63/39 68/68/62
f 69/69/9 68/68/62 63/63/39
f 63/63/39 62/62/8 69/69/9
f 68/68/62 69/69/9 70/70/38
f 71/71/63 57/57/53 56/56/52
f 57/57/53 71/71/63 58/58/54
f 72/72/64 58/58/54 71/71/63
f 58/58/54 72/72/64 59/59/55
f 73/73/65 74/74/66 75/75/67
f 76/76/68 74/74/66 77/77/69
f 78/78/70 77/77/69 74/74/66
f 74/74/66 73/73/65 78/78/70
f 79/79/71 78/78/70 73/73/65
f 75/75/67 79/79/71 73/73/65
f 79/79/71 75/75/67 80/80/72
f 80/80/72 81/81/73 79/79/71
f 81/81/73 80/80/72 82/82/74
f 82/82/74 83/83/75 81/81/73
f 83/83/75 82/82/74 84/84/76
f 84/84/76 85/85/77 83/83/75
f 85/85/77 84/84/76 77/77/69
f 77/77/69 78/78/70 85/85/77
f 78/78/70 83/83/75 85/85/77
f 79/79/71 83/83/75 78/78/70
f 79/79/71 81/81/73 83/83/75
f 86/86/78 76/76/68 87/87/79
f 88/88/80 89/89/81 86/86/78
f 76/76/68 86/86/78 89/89/81
f 89/89/81 90/90/82 76/76/68
f 74/74/66 76/76/68 90/90/82
f 90/90/82 75/91/67 74/74/66
f 75/91/67 90/90/82 91/92/83
f 91/92/83 80/93/72 75/91/67
f 80/93/72 91/92/83 92/94/84
f 92/94/84 82/95/74 80/93/72
f 82/95/74 92/94/84 93/96/85
f 93/96/85 84/97/76 82/95/74
f 84/97/76 93/96/85 87/98/79
f 94/99/86 87/98/79 93/96/85
f 87/98/79 94/99/86 86/100/78
f 95/101/87 86/100/78 94/99/86
f 86/100/78 95/101/87 88/102/80
f 94/99/86 96/103/88 95/101/87
f 96/103/88 94/99/86 97/104/89
f 93/96/85 97/104/89 94/99/86
f 97/104/89 93/96/85 92/94/84
f 92/94/84 98/105/90 97/104/89
f 98/105/90 92/94/84 91/92/83
f 91/92/83 99/106/91 98/105/90
f 99/106/91 91/92/83 90/90/82
f 90/90/82 89/89/81 99/106/91
f 100/107/92 99/106/91 89/89/81
f 89/89/81 88/88/80 100/107/92
f 97/104/89 101/108/93 96/103/88
f 101/108/93 97/104/89 98/105/90
f 98/105/90 102/109/94 101/108/93
f 102/109/94 98/105/90 99/106/91
f 99/106/91 100/107/92 102/109/94
f 103/110/95 104/111/96 105/112/97
f 104/111/96 103/110/95 106/113/98
f 107/114/99 108/115/100 109/116/101
f 110/117/102 109/116/101 108/115/100
f 109/116/101 110/117/102 111/118/103
f 112/119/104 111/118/103 110/117/102
f 111/118/103 112/119/104 113/120/105
f 114/121/106 113/120/105 112/119/104
f 113/120/105 114/121/106 115/122/107
f 116/123/108 115/122/107 114/121/106
f 115/122/107 116/123/108 117/124/109
f 118/125/110 117/124/109 116/123/108
f 117/124/109 118/125/110 119/126/111
f 120/127/112 119/126/111 118/125/110
f 119/126/111 120/127/112 121/128/113
f 122/129/114 121/128/113 120/127/112
f 121/128/113 122/129/114 123/130/115
f 124/131/116 123/130/115 122/129/114
f 123/130/115 124/131/116 125/132/117
f 126/133/118 125/132/117 124/131/116
f 125/132/117 126/133/118 107/114/99
f 108/115/100 107/114/99 126/133/118
f 127/134/119 128/135/120 129/136/121
f 128/135/120 127/134/119 130/137/122
f 131/138/123 132/139/124 133/140/125
f 132/139/124 131/138/123 134/141/126
f 135/142/127 133/140/125 136/143/128
f 133/140/125 135/142/127 131/138/123
f 130/144/122 136/143/128 128/145/120
f 136/143/128 130/144/122 135/142/127
f 137/146/129 138/147/130 139/148/131
f 138/147/130 137/146/129 140/149/132
f 141/150/133 140/151/132 137/152/129
f 140/151/132 141/150/133 142/153/134
f 143/154/135 142/153/134 141/155/133
f 142/153/134 143/154/135 144/156/136
f 139/157/131 144/156/136 143/158/135
f 144/156/136 139/157/131 138/159/130
f 145/160/137 146/161/138 147/162/139
f 146/161/138 145/160/137 148/163/140
f 149/164/141 150/165/142 151/166/143
f 150/165/142 149/164/141 152/167/144
f 152/168/144 153/169/145 150/170/142
f 153/169/145 152/168/144 154/171/146
f 147/172/139 153/169/145 154/171/146
f 153/169/145 147/172/139 146/173/138
f 155/174/147 146/175/138 156/176/148
f 146/175/138 155/174/147 153/177/145
f 155/174/147 150/178/142 153/177/145
f 150/178/142 155/174/147 157/179/149
f 158/180/150 159/181/151 160/182/152
f 161/183/153 159/181/151 158/180/150
f 162/184/154 159/181/151 161/183/153
f 163/185/155 164/186/156 165/187/157
f 163/185/155 166/188/158 164/186/156
f 167/189/159 166/188/158 163/185/155
f 162/190/154 167/189/159 163/191/155
f 167/189/159 162/190/154 161/183/153
f 158/180/150 167/189/159 161/183/153
f 167/189/159 158/180/150 166/188/158
f 158/180/150 164/192/156 166/188/158
f 164/192/156 158/180/150 160/193/152
f 168/194/160 169/195/157 170/196/161
f 171/197/162 169/195/157 168/194/160
f 172/198/163 169/195/157 171/197/162
f 172/199/163 173/200/164 174/201/165
f 173/200/164 172/199/163 171/197/162
f 168/194/160 173/200/164 171/197/162
f 173/200/164 168/194/160 175/202/166
f 168/194/160 176/203/167 175/202/166
f 176/203/167 168/194/160 170/204/161
f 177/205/168 178/206/169 179/207/170
f 178/206/169 180/208/171 181/209/172
f 177/205/168 180/208/171 178/206/169
f 177/205/168 182/210/173 180/208/171
f 95/211/87 100/212/92 88/213/80
f 100/212/92 101/214/93 102/215/94
f 95/211/87 101/214/93 100/212/92
f 95/211/87 96/216/88 101/214/93
f 183/217/174 184/218/175 185/219/176
f 184/218/175 186/220/177 187/221/178
f 183/217/174 186/220/177 184/218/175
f 183/217/174 188/222/179 186/220/177
f 189/223/180 190/224/175 191/225/181
f 190/224/175 192/226/177 193/227/182
f 189/223/180 192/226/177 190/224/175
f 189/223/180 194/228/179 192/226/177
f 195/229/180 196/230/183 197/231/184
f 196/230/183 198/232/177 199/233/182
f 195/229/180 198/232/177 196/230/183
f 195/229/180 200/234/179 198/232/177
f 201/235/185 202/236/186 203/237/187
f 202/236/186 204/238/188 205/239/182
f 201/235/185 204/238/188 202/236/186
f 201/235/185 206/240/179 204/238/188
f 207/241/185 208/242/189 209/243/176
f 208/242/189 210/244/190 211/245/178
f 207/241/185 210/244/190 208/242/189
f 207/241/185 212/246/179 210/244/190
f 213/247/191 214/248/192 215/249/193
f 214/248/192 216/250/194 217/251/195
f 213/247/191 216/250/194 214/248/192
f 213/247/191 218/252/196 216/250/194
f 219/253/174 220/254/186 221/255/187
f 220/254/186 222/256/177 223/257/182
f 219/253/174 222/256/177 220/254/186
f 219/253/174 224/258/179 222/256/177
f 225/259/197 226/260/198 227/261/199
f 226/260/198 228/262/200 229/263/201
f 225/259/197 228/262/200 226/260/198
f 225/259/197 230/264/202 228/262/200
f 231/265/203 230/264/202 225/259/197
f 230/264/202 231/265/203 232/266/204
f 232/266/204 228/262/200 230/264/202
f 228/262/200 232/266/204 233/267/205
f 233/267/205 229/263/201 228/262/200
f 229/263/201 233/267/205 234/268/206
f 234/268/206 226/260/198 229/263/201
f 226/260/198 234/268/206 235/269/66
f 235/269/66 227/261/199 226/260/198
f 227/261/199 235/269/66 236/270/207
f 236/270/207 225/259/197 227/261/199
f 225/259/197 236/270/207 231/265/203
f 237/271/208 238/272/92 239/273/209
f 238/272/92 240/274/210 241/275/211
f 237/271/208 240/274/210 238/272/92
f 237/271/208 242/276/88 240/274/210
f 243/277/212 232/278/204 231/279/203
f 244/280/213 243/277/212 245/281/214
f 240/282/210 246/283/89 244/280/213
f 243/277/212 244/280/213 246/283/89
f 246/283/89 247/284/215 243/277/212
f 232/278/204 243/277/212 247/284/215
f 247/284/215 233/285/205 232/278/204
f 233/285/205 247/284/215 248/286/216
f 248/286/216 234/287/206 233/285/205
f 234/287/206 248/286/216 249/288/217
f 249/288/217 235/289/66 234/287/206
f 235/289/66 249/288/217 250/290/218
f 250/290/218 236/291/207 235/289/66
f 236/291/207 250/290/218 245/292/214
f 251/293/219 245/292/214 250/290/218
f 245/292/214 251/293/219 244/294/213
f 241/295/211 244/294/213 251/293/219
f 244/294/213 241/295/211 240/296/210
f 251/293/219 238/297/92 241/295/211
f 238/297/92 251/293/219 252/298/220
f 250/290/218 252/298/220 251/293/219
f 252/298/220 250/290/218 249/288/217
f 249/288/217 253/299/221 252/298/220
f 253/299/221 249/288/217 248/286/216
f 248/286/216 254/300/222 253/299/221
f 254/300/222 248/286/216 247/284/215
f 247/284/215 246/283/89 254/300/222
f 242/276/88 254/300/222 246/283/89
f 246/283/89 240/282/210 242/276/88
f 252/298/220 239/301/209 238/297/92
f 239/301/209 252/298/220 253/299/221
f 253/299/221 237/271/208 239/301/209
f 237/271/208 253/299/221 254/300/222
f 254/300/222 242/276/88 237/271/208
f 255/302/223 256/303/224 257/304/225
f 256/303/224 258/305/226 259/306/227
f 255/302/223 258/305/226 256/303/224
f 255/302/223 260/307/228 258/305/226
f 261/308/229 262/309/230 263/310/231
f 262/309/230 264/311/232 265/312/233
f 261/308/229 264/311/232 262/309/230
f 261/308/229 266/313/234 264/311/232
f 267/314/229 268/315/235 269/316/231
f 268/315/235 270/317/232 271/318/233
f 267/314/229 270/317/232 268/315/235
f 267/314/229 272/319/234 270/317/232
f 273/320/236 274/321/237 275/322/238
f 274/321/237 273/320/236 276/323/239
f 277/324/240 276/323/239 273/320/236
f 276/323/239 277/324/240 278/325/241
f 279/326/242 280/327/243 281/328/244
f 280/327/243 279/326/242 282/329/245
f 283/330/246 282/329/245 279/326/242
f 282/329/245 283/330/246 284/331/247
f 285/332/248 284/331/247 283/330/246
f 284/331/247 285/332/248 286/333/249
f 274/334/237 281/328/244 287/335/250
f 281/328/244 274/334/237 279/326/242
f 276/336/239 279/326/242 274/334/237
f 279/326/242 276/336/239 283/330/246
f 278/337/241 283/330/246 276/336/239
f 283/330/246 278/337/241 285/332/248
f 288/338/251 289/339/252 290/340/253
f 289/339/252 288/338/251 291/341/254
f 292/342/255 291/341/254 288/338/251
f 291/341/254 292/342/255 293/343/256
f 294/344/257 293/343/256 292/342/255
f 49/345/46 294/344/257 292/342/255
f 294/344/257 49/345/46 51/346/28
f 30/347/28 294/344/257 51/346/28
f 288/338/251 49/348/46 292/342/255
f 49/348/46 288/338/251 47/349/44
f 290/340/253 47/350/44 288/338/251
f 47/350/44 290/340/253 45/351/42
f 28/352/28 295/353/257 29/354/28
f 295/353/257 30/347/28 29/354/28
f 30/347/28 295/353/257 296/355/257
f 294/344/257 30/347/28 296/355/257
f 296/355/257 297/356/258 294/344/257
f 293/343/256 294/344/257 297/356/258
f 297/356/258 72/357/64 293/343/256
f 293/343/256 72/357/64 71/358/63
f 56/359/52 293/343/256 71/358/63
f 293/343/256 56/359/52 291/341/254
f 38/360/36 291/341/254 56/359/52
f 291/341/254 38/360/36 289/339/252
f 40/361/38 289/339/252 38/360/36
f 289/339/252 40/361/38 298/362/259
f 298/362/259 290/340/253 289/339/252
f 290/340/253 298/362/259 299/363/260
f 299/363/260 45/364/42 290/340/253
f 45/364/42 299/363/260 44/365/41
f 72/357/64 300/366/261 301/367/262
f 300/366/261 72/357/64 302/368/263
f 297/356/258 302/368/263 72/357/64
f 297/356/258 296/355/257 303/369/264
f 297/356/258 303/369/264 65/370/59
f 297/356/258 65/370/59 302/368/263
f 302/368/263 65/370/59 64/371/58
f 68/372/62 302/368/263 64/371/58
f 302/368/263 68/372/62 300/366/261
f 70/373/38 300/366/261 68/372/62
f 300/366/261 70/373/38 304/374/259
f 304/374/259 301/367/262 300/366/261
f 301/367/262 304/374/259 305/375/260
f 305/375/260 60/376/56 301/367/262
f 60/376/56 305/375/260 61/377/57
f 59/378/55 301/367/262 60/376/56
f 301/367/262 59/378/55 72/379/64
f 306/380/265 65/370/59 303/369/264
f 306/380/265 307/381/266 65/370/59
f 65/370/59 307/381/266 66/382/60
f 308/383/267 10/384/10 309/385/259
f 10/384/10 308/383/267 3/386/3
f 307/381/266 3/386/3 308/383/267
f 3/386/3 307/381/266 1/387/1
f 306/380/265 1/387/1 307/381/266
f 306/380/265 5/388/5 1/387/1
f 306/380/265 310/389/264 5/388/5
f 306/380/265 311/390/268 310/389/264
f 18/391/18 312/392/269 17/393/17
f 312/392/269 18/391/18 313/394/270
f 20/395/20 313/394/270 18/391/18
f 313/394/270 20/395/20 314/396/271
f 22/397/22 314/396/271 20/395/20
f 314/396/271 22/397/22 315/398/272
f 24/399/24 315/398/272 22/397/22
f 315/398/272 24/399/24 316/400/273
f 5/388/5 316/400/273 24/399/24
f 316/400/273 5/388/5 310/389/264
f 310/389/264 317/401/274 316/400/273
f 317/401/274 310/389/264 311/390/268
f 311/390/268 33/402/31 317/401/274
f 33/402/31 311/390/268 28/352/28
f 295/353/257 28/352/28 311/390/268
f 311/390/268 306/380/265 295/353/257
f 306/380/265 296/355/257 295/353/257
f 296/355/257 306/380/265 303/369/264
f 313/394/270 318/403/275 312/392/269
f 318/403/275 313/394/270 319/404/276
f 314/396/271 319/404/276 313/394/270
f 319/404/276 314/396/271 320/405/277
f 315/398/272 320/405/277 314/396/271
f 320/405/277 315/398/272 321/406/278
f 316/400/273 321/406/278 315/398/272
f 321/406/278 316/400/273 317/401/274
f 317/401/274 37/407/35 321/406/278
f 37/407/35 317/401/274 33/408/31
f 36/409/34 321/406/278 37/410/35
f 321/406/278 36/409/34 320/405/277
f 11/411/11 320/405/277 36/409/34
f 320/405/277 11/411/11 319/404/276
f 13/412/13 319/404/276 11/411/11
f 319/404/276 13/412/13 318/403/275
f 322/413/279 323/414/260 324/415/57
f 67/416/61 325/417/280 322/413/279
f 323/414/260 322/413/279 325/417/280
f 325/417/280 309/385/259 323/414/260
f 309/385/259 325/417/280 308/383/267
f 66/382/60 308/383/267 325/417/280
f 308/383/267 66/382/60 307/381/266
f 325/417/280 67/416/61 66/418/60
f 326/419/281 327/420/282 328/421/283
f 327/420/282 108/422/100 126/423/118
f 108/422/100 327/420/282 329/424/284
f 327/420/282 326/419/281 329/424/284
f 330/425/285 329/424/284 326/419/281
f 329/424/284 330/425/285 331/426/286
f 330/425/285 332/427/287 331/426/286
f 332/427/287 110/428/102 331/426/286
f 110/428/102 332/427/287 112/429/104
f 333/430/288 112/429/104 332/427/287
f 112/429/104 333/430/288 114/431/106
f 110/428/102 329/424/284 331/426/286
f 329/424/284 110/428/102 108/422/100
f 333/430/288 334/432/289 335/433/290
f 334/432/289 333/430/288 332/427/287
f 332/427/287 330/425/285 334/432/289
f 336/434/291 337/435/292 338/436/293
f 339/437/294 340/438/295 341/439/296
f 340/438/295 339/437/294 342/440/297
f 342/440/297 343/441/298 340/438/295
f 343/441/298 342/440/297 344/442/299
f 345/443/300 344/442/299 342/440/297
f 344/442/299 345/443/300 336/434/291
f 337/435/292 336/434/291 345/443/300
f 345/443/300 346/444/301 337/435/292
f 347/445/302 337/435/292 346/444/301
f 337/435/292 347/445/302 348/446/303
f 348/446/303 338/436/293 337/435/292
f 338/436/293 348/446/303 349/447/304
f 346/444/301 345/443/300 350/448/305
f 342/440/297 350/448/305 345/443/300
f 350/448/305 342/440/297 339/437/294
f 346/444/301 351/449/306 347/445/302
f 351/449/306 346/444/301 352/450/307
f 350/451/305 352/450/307 346/444/301
f 352/450/307 350/451/305 353/452/308
f 354/453/309 355/454/310 356/455/311
f 355/454/310 354/453/309 357/456/312
f 358/457/313 357/456/312 354/453/309
f 357/456/312 358/457/313 359/458/314
f 360/459/315 359/458/314 358/457/313
f 359/458/314 360/459/315 361/460/316
f 352/450/307 361/460/316 351/449/306
f 361/460/316 352/450/307 359/458/314
f 353/461/308 359/458/314 352/450/307
f 359/458/314 353/461/308 357/456/312
f 362/462/317 357/456/312 353/461/308
f 357/456/312 362/462/317 355/454/310
f 363/463/318 355/454/310 362/462/317
f 355/454/310 363/463/318 364/464/319
f 364/464/319 356/455/311 355/454/310
f 356/455/311 364/464/319 365/465/320
f 366/466/321 367/467/303 368/468/322
f 369/469/323 370/470/324 366/466/321
f 367/467/303 366/466/321 370/470/324
f 370/470/324 371/471/325 367/467/303
f 371/471/325 370/470/324 372/472/326
f 373/473/300 372/472/326 370/470/324
f 370/470/324 369/469/323 373/473/300
f 374/474/327 373/473/300 369/469/323
f 373/473/300 374/474/327 375/475/328
f 376/476/329 375/475/328 374/474/327
f 375/475/328 376/476/329 377/477/295
f 377/477/295 378/478/294 375/475/328
f 378/478/294 377/477/295 379/479/330
f 372/472/326 373/473/300 380/480/331
f 375/475/328 380/480/331 373/473/300
f 380/480/331 375/475/328 378/478/294
f 381/481/332 382/482/333 383/483/334
f 382/482/333 381/481/332 384/484/335
f 385/485/332 384/484/335 381/481/332
f 384/484/335 385/485/332 386/486/335
f 385/485/332 387/487/335 386/486/335
f 387/487/335 385/485/332 388/488/332
f 389/489/332 387/487/335 388/488/332
f 387/487/335 389/489/332 390/490/335
f 389/489/332 391/491/335 390/490/335
f 391/491/335 389/489/332 392/492/332
f 392/492/332 393/493/98 391/491/335
f 393/493/98 392/492/332 394/494/336
f 395/495/337 383/496/334 396/497/338
f 383/496/334 395/495/337 381/498/332
f 397/499/339 381/498/332 395/495/337
f 381/498/332 397/499/339 385/500/332
f 397/499/339 388/501/332 385/500/332
f 388/501/332 397/499/339 398/502/340
f 399/503/341 388/501/332 398/502/340
f 388/501/332 399/503/341 389/504/332
f 399/503/341 392/505/332 389/504/332
f 392/505/332 399/503/341 400/506/342
f 400/506/342 394/507/336 392/505/332
f 394/507/336 400/506/342 401/508/343
f 402/509/344 403/510/345 404/511/344
f 403/510/345 402/509/344 405/512/345
f 406/513/346 404/511/344 407/514/346
f 404/511/344 406/513/346 402/509/344
f 408/515/347 407/514/346 409/516/348
f 407/514/346 408/515/347 406/513/346
f 410/517/349 409/516/348 411/518/349
f 409/516/348 410/517/349 408/515/347
f 405/519/345 411/518/349 403/520/345
f 411/518/349 405/519/345 410/517/349
f 134/141/126 129/136/121 132/139/124
f 129/136/121 134/141/126 127/134/119
f 412/521/332 413/522/350 414/523/351
f 413/522/350 412/521/332 415/524/352
f 416/525/332 415/524/352 412/521/332
f 415/524/352 416/525/332 417/526/352
f 416/525/332 418/527/352 417/526/352
f 418/527/352 416/525/332 419/528/332
f 420/529/332 418/527/352 419/528/332
f 418/527/352 420/529/332 421/530/352
f 420/529/332 422/531/352 421/530/352
f 422/531/352 420/529/332 423/532/332
f 423/532/332 424/533/353 422/531/352
f 424/533/353 423/532/332 425/534/354
f 426/535/355 414/536/351 427/537/356
f 414/536/351 426/535/355 412/538/332
f 428/539/339 412/538/332 426/535/355
f 412/538/332 428/539/339 416/540/332
f 428/539/339 419/541/332 416/540/332
f 419/541/332 428/539/339 429/542/340
f 430/543/341 419/541/332 429/542/340
f 419/541/332 430/543/341 420/544/332
f 430/543/341 423/545/332 420/544/332
f 423/545/332 430/543/341 431/546/357
f 431/546/357 425/547/354 423/545/332
f 425/547/354 431/546/357 432/548/358
f 433/549/359 434/550/360 435/551/361
f 434/550/360 433/549/359 436/552/362
f 437/553/363 436/552/362 433/549/359
f 436/552/362 437/553/363 438/554/364
f 439/555/365 435/551/361 440/556/366
f 435/551/361 439/555/365 433/549/359
f 441/557/367 433/549/359 439/555/365
f 433/549/359 441/557/367 437/553/363
f 442/558/368 440/556/366 443/559/369
f 440/556/366 442/558/368 439/555/365
f 444/560/370 439/555/365 442/558/368
f 439/555/365 444/560/370 441/557/367
f 445/561/371 443/559/369 446/562/372
f 443/559/369 445/561/371 442/558/368
f 447/563/373 442/558/368 445/561/371
f 442/558/368 447/563/373 444/560/370
f 448/564/374 446/562/372 449/565/375
f 446/562/372 448/564/374 445/561/371
f 450/566/376 445/561/371 448/564/374
f 445/561/371 450/566/376 447/563/373
f 372/472/326 451/567/377 371/471/325
f 451/567/377 372/472/326 452/568/378
f 380/569/331 452/568/378 372/472/326
f 452/568/378 380/569/331 453/570/379
f 454/571/380 455/572/310 456/573/381
f 455/572/310 454/571/380 457/574/312
f 458/575/382 457/574/312 454/571/380
f 457/574/312 458/575/382 459/576/383
f 460/577/384 459/576/383 458/575/382
f 459/576/383 460/577/384 461/578/385
f 452/568/378 461/578/385 451/567/377
f 461/578/385 452/568/378 459/576/383
f 453/579/379 459/576/383 452/568/378
f 459/576/383 453/579/379 457/574/312
f 462/580/386 457/574/312 453/579/379
f 457/574/312 462/580/386 455/572/310
f 463/581/387 455/572/310 462/580/386
f 455/572/310 463/581/387 464/582/319
f 464/582/319 456/573/381 455/572/310
f 456/573/381 464/582/319 465/583/388
f 466/584/389 467/585/390 468/586/391
f 467/585/390 466/584/389 469/587/392
f 470/588/393 469/587/392 466/584/389
f 469/587/392 470/588/393 471/589/394
f 472/590/395 471/589/394 470/588/393
f 471/589/394 472/590/395 473/591/396
f 474/592/397 473/591/396 472/590/395
f 473/591/396 474/592/397 475/593/398
f 476/594/399 477/595/400 478/596/401
f 477/595/400 476/594/399 479/597/402
f 480/598/403 479/597/402 476/594/399
f 479/597/402 480/598/403 468/586/391
f 481/599/404 468/586/391 480/598/403
f 468/586/391 481/599/404 466/584/389
f 482/600/405 466/584/389 481/599/404
f 466/584/389 482/600/405 470/588/393
f 483/601/406 470/588/393 482/600/405
f 470/588/393 483/601/406 472/590/395
f 484/602/407 472/590/395 483/601/406
f 472/590/395 484/602/407 474/592/397
f 485/603/408 486/604/409 487/605/410
f 486/604/409 485/603/408 488/606/411
f 467/607/390 488/606/411 485/603/408
f 488/606/411 467/607/390 489/608/412
f 469/609/392 489/608/412 467/607/390
f 489/608/412 469/609/392 490/610/413
f 471/611/394 490/610/413 469/609/392
f 490/610/413 471/611/394 491/612/414
f 473/613/396 491/612/414 471/611/394
f 491/612/414 473/613/396 492/614/415
f 475/615/398 492/614/415 473/613/396
f 492/614/415 475/615/398 493/616/416
f 479/617/402 487/605/410 477/618/400
f 487/605/410 479/617/402 485/603/408
f 468/619/391 485/603/408 479/617/402
f 485/603/408 468/619/391 467/607/390
f 119/620/111 494/621/417 117/622/109
f 494/621/417 119/620/111 495/623/418
f 121/624/113 495/623/418 119/620/111
f 495/623/418 121/624/113 496/625/419
f 123/626/115 496/625/419 121/624/113
f 496/625/419 123/626/115 497/627/420
f 125/628/117 497/627/420 123/626/115
f 497/627/420 125/628/117 498/629/421
f 335/630/290 499/631/422 500/632/423
f 499/631/422 335/630/290 334/633/289
f 334/633/289 501/634/424 499/631/422
f 501/634/424 334/633/289 330/635/285
f 326/636/281 501/634/424 330/635/285
f 501/634/424 326/636/281 502/637/425
f 328/638/283 502/637/425 326/636/281
f 502/637/425 328/638/283 503/639/426
f 174/640/165 176/641/167 504/642/151
f 174/640/165 175/202/166 176/641/167
f 173/200/164 175/202/166 174/640/165
f 185/643/176 505/644/427 506/645/428
f 505/644/427 185/643/176 184/218/175
f 184/218/175 507/646/429 505/644/427
f 507/646/429 184/218/175 187/221/178
f 187/221/178 508/647/430 507/646/429
f 508/647/430 187/221/178 186/648/177
f 186/648/177 509/649/431 508/647/430
f 509/649/431 186/648/177 188/650/179
f 188/650/179 510/651/432 509/649/431
f 510/651/432 188/650/179 183/652/174
f 183/652/174 506/653/428 510/651/432
f 506/653/428 183/652/174 185/654/176
f 189/655/180 511/656/433 512/657/434
f 511/656/433 189/655/180 191/658/181
f 191/658/181 513/659/435 511/656/433
f 513/659/435 191/658/181 190/224/175
f 190/224/175 514/660/436 513/659/435
f 514/660/436 190/224/175 193/227/182
f 193/227/182 515/661/437 514/660/436
f 515/661/437 193/227/182 192/662/177
f 192/662/177 516/663/431 515/661/437
f 516/663/431 192/662/177 194/664/179
f 194/664/179 512/665/434 516/663/431
f 512/665/434 194/664/179 189/666/180
f 195/667/180 517/668/433 518/669/434
f 517/668/433 195/667/180 197/670/184
f 197/670/184 519/671/435 517/668/433
f 519/671/435 197/670/184 196/230/183
f 196/230/183 520/672/436 519/671/435
f 520/672/436 196/230/183 199/233/182
f 199/233/182 521/673/437 520/672/436
f 521/673/437 199/233/182 198/674/177
f 198/674/177 522/675/431 521/673/437
f 522/675/431 198/674/177 200/676/179
f 200/676/179 518/677/434 522/675/431
f 518/677/434 200/676/179 195/678/180
f 206/679/179 523/680/438 524/681/439
f 523/680/438 206/679/179 201/682/185
f 201/682/185 525/683/440 523/680/438
f 525/683/440 201/682/185 203/684/187
f 203/684/187 526/685/441 525/683/440
f 526/685/441 203/684/187 202/236/186
f 202/236/186 527/686/436 526/685/441
f 527/686/436 202/236/186 205/239/182
f 205/239/182 528/687/442 527/686/436
f 528/687/442 205/239/182 204/688/188
f 204/688/188 524/689/439 528/687/442
f 524/689/439 204/688/188 206/690/179
f 207/691/185 529/692/440 530/693/438
f 529/692/440 207/691/185 209/694/176
f 209/694/176 531/695/385 529/692/440
f 531/695/385 209/694/176 208/242/189
f 208/242/189 532/696/436 531/695/385
f 532/696/436 208/242/189 211/245/178
f 211/245/178 533/697/442 532/696/436
f 533/697/442 211/245/178 210/698/190
f 210/698/190 534/699/431 533/697/442
f 534/699/431 210/698/190 212/700/179
f 212/700/179 530/701/438 534/699/431
f 530/701/438 212/700/179 207/702/185
f 215/703/193 535/704/443 536/705/444
f 535/704/443 215/703/193 214/248/192
f 214/248/192 537/706/445 535/704/443
f 537/706/445 214/248/192 217/251/195
f 217/251/195 538/707/446 537/706/445
f 538/707/446 217/251/195 216/708/194
f 216/708/194 539/709/447 538/707/446
f 539/709/447 216/708/194 218/710/196
f 218/710/196 540/711/448 539/709/447
f 540/711/448 218/710/196 213/712/191
f 213/712/191 536/713/444 540/711/448
f 536/713/444 213/712/191 215/714/193
f 219/715/174 541/716/440 542/717/432
f 541/716/440 219/715/174 221/718/187
f 221/718/187 543/719/385 541/716/440
f 543/719/385 221/718/187 220/720/186
f 220/720/186 544/721/436 543/719/385
f 544/721/436 220/720/186 223/722/182
f 223/722/182 545/723/442 544/721/436
f 545/723/442 223/722/182 222/724/177
f 222/724/177 546/725/431 545/723/442
f 546/725/431 222/724/177 224/726/179
f 224/726/179 542/727/432 546/725/431
f 542/727/432 224/726/179 219/728/174
f 177/729/168 547/730/449 548/731/450
f 547/730/449 177/729/168 179/732/170
f 179/732/170 549/733/451 547/730/449
f 549/733/451 179/732/170 178/206/169
f 178/206/169 550/734/452 549/733/451
f 550/734/452 178/206/169 181/209/172
f 181/209/172 551/735/453 550/734/452
f 551/735/453 181/209/172 180/736/171
f 180/736/171 552/737/454 551/735/453
f 552/737/454 180/736/171 182/738/173
f 182/738/173 548/739/450 552/737/454
f 548/739/450 182/738/173 177/740/168
f 260/741/228 553/742/455 554/743/456
f 553/742/455 260/741/228 255/744/223
f 258/745/226 554/743/456 555/746/457
f 554/743/456 258/745/226 260/741/228
f 259/747/227 555/746/457 556/748/458
f 555/746/457 259/747/227 258/745/226
f 256/749/224 556/748/458 557/750/459
f 556/748/458 256/749/224 259/747/227
f 257/751/225 557/750/459 558/752/460
f 557/750/459 257/751/225 256/749/224
f 255/753/223 558/752/460 553/754/455
f 558/752/460 255/753/223 257/751/225
f 265/755/233 559/756/461 560/757/462
f 559/756/461 265/755/233 264/758/232
f 261/759/229 561/760/463 562/761/464
f 561/760/463 261/759/229 263/310/231
f 263/310/231 563/762/465 561/760/463
f 563/762/465 263/310/231 262/309/230
f 262/309/230 560/757/462 563/762/465
f 560/757/462 262/309/230 265/755/233
f 264/763/232 564/764/466 559/765/461
f 564/764/466 264/763/232 266/766/234
f 266/766/234 562/761/464 564/764/466
f 562/761/464 266/766/234 261/759/229
f 271/767/233 565/768/461 566/769/462
f 565/768/461 271/767/233 270/770/232
f 267/314/229 567/771/463 568/772/467
f 567/771/463 267/314/229 269/316/231
f 269/316/231 569/773/465 567/771/463
f 569/773/465 269/316/231 268/774/235
f 268/774/235 566/769/462 569/773/465
f 566/769/462 268/774/235 271/767/233
f 270/775/232 570/776/466 565/777/461
f 570/776/466 270/775/232 272/778/234
f 272/778/234 568/772/467 570/776/466
f 568/772/467 272/778/234 267/314/229
f 571/779/468 572/780/469 573/781/470
f 572/780/469 571/779/468 275/782/238
f 574/783/471 275/782/238 571/779/468
f 275/782/238 574/783/471 273/320/236
f 575/784/472 273/320/236 574/783/471
f 273/320/236 575/784/472 277/324/240
f 503/785/426 576/786/473 577/787/474
f 576/786/473 503/785/426 328/788/283
f 328/788/283 578/789/475 576/786/473
f 578/789/475 328/788/283 327/790/282
f 126/791/118 578/789/475 327/790/282
f 578/789/475 126/791/118 124/792/116
f 579/793/476 573/781/470 580/794/477
f 573/781/470 579/793/476 571/779/468
f 581/795/478 571/779/468 579/793/476
f 571/779/468 581/795/478 574/783/471
f 582/796/479 574/783/471 581/795/478
f 574/783/471 582/796/479 575/784/472
f 282/329/245 580/794/477 280/327/243
f 580/794/477 282/329/245 579/793/476
f 284/797/247 579/793/476 282/329/245
f 579/793/476 284/797/247 581/798/478
f 286/799/249 581/798/478 284/797/247
f 581/798/478 286/799/249 582/800/479
f 275/801/238 287/335/250 572/802/469
f 287/335/250 275/801/238 274/334/237
f 322/803/279 7/7/7 67/67/61
f 7/7/7 322/803/279 6/6/6
f 324/804/57 6/6/6 322/803/279
f 6/6/6 324/804/57 8/8/8
f 488/606/411 583/805/480 486/604/409
f 583/805/480 488/606/411 584/806/481
f 489/608/412 584/806/481 488/606/411
f 584/806/481 489/608/412 585/807/482
f 490/610/413 585/807/482 489/608/412
f 585/807/482 490/610/413 586/808/483
f 491/612/414 586/808/483 490/610/413
f 586/808/483 491/612/414 587/809/484
f 492/614/415 587/809/484 491/612/414
f 587/809/484 492/614/415 588/810/485
f 493/616/416 588/810/485 492/614/415
f 588/810/485 493/616/416 589/811/486
f 149/812/141 154/813/146 152/814/144
f 154/813/146 149/812/141 590/815/487
f 145/816/137 154/813/146 590/815/487
f 154/813/146 145/816/137 147/817/139
f 584/818/481 591/819/488 583/820/480
f 591/819/488 584/818/481 592/821/489
f 585/822/482 592/821/489 584/818/481
f 592/821/489 585/822/482 593/823/490
f 586/808/483 593/823/490 585/822/482
f 593/823/490 586/808/483 594/824/491
f 587/809/484 594/824/491 586/808/483
f 594/824/491 587/809/484 595/825/492
f 588/826/485 595/825/492 587/809/484
f 595/825/492 588/826/485 596/827/493
f 589/828/486 596/827/493 588/826/485
f 596/827/493 589/828/486 597/829/494
f 598/830/495 155/174/147 156/176/148
f 155/174/147 598/830/495 599/831/496
f 600/832/497 155/174/147 599/831/496
f 155/174/147 600/832/497 157/179/149
f 592/833/489 478/596/401 591/834/488
f 478/596/401 592/833/489 476/594/399
f 593/835/490 476/594/399 592/833/489
f 476/594/399 593/835/490 480/598/403
f 594/824/491 480/598/403 593/835/490
f 480/598/403 594/824/491 481/599/404
f 595/825/492 481/599/404 594/824/491
f 481/599/404 595/825/492 482/600/405
f 596/836/493 482/600/405 595/825/492
f 482/600/405 596/836/493 483/601/406
f 597/837/494 483/601/406 596/836/493
f 483/601/406 597/837/494 484/602/407
f 590/838/487 151/839/143 601/840/498
f 151/839/143 590/838/487 149/841/141
f 600/842/497 601/840/498 151/839/143
f 601/840/498 600/842/497 599/843/496
f 598/844/495 601/840/498 599/843/496
f 601/840/498 598/844/495 148/845/140
f 148/845/140 590/838/487 601/840/498
f 590/838/487 148/845/140 145/846/137
f 157/179/149 151/847/143 150/848/142
f 151/847/143 157/179/149 600/832/497
f 156/176/148 148/849/140 598/830/495
f 148/849/140 156/176/148 146/850/138
f 602/851/499 120/852/112 603/853/500
f 120/852/112 604/854/501 603/853/500
f 605/855/502 603/853/500 604/854/501
f 603/853/500 605/855/502 606/856/503
f 607/857/504 603/853/500 606/856/503
f 603/853/500 607/857/504 602/851/499
f 604/854/501 120/852/112 118/858/110
f 116/859/108 604/854/501 118/858/110
f 604/854/501 116/859/108 608/860/505
f 609/861/506 604/854/501 608/860/505
f 604/854/501 609/861/506 605/855/502
f 610/862/507 605/855/502 609/861/506
f 605/855/502 610/862/507 611/863/508
f 611/863/508 606/856/503 605/855/502
f 606/856/503 611/863/508 612/864/509
f 613/865/510 606/856/503 612/864/509
f 606/856/503 613/865/510 607/857/504
f 577/866/474 607/857/504 613/865/510
f 607/857/504 577/866/474 576/867/473
f 576/867/473 602/851/499 607/857/504
f 602/851/499 576/867/473 578/868/475
f 124/869/116 602/851/499 578/868/475
f 602/851/499 124/869/116 122/870/114
f 120/852/112 602/851/499 122/870/114
f 378/871/294 453/872/379 380/873/331
f 453/872/379 378/871/294 462/580/386
f 379/874/330 462/580/386 378/871/294
f 462/580/386 379/874/330 463/581/387
f 114/875/106 608/876/505 116/877/108
f 608/876/505 114/875/106 333/878/288
f 335/879/290 608/876/505 333/878/288
f 608/876/505 335/879/290 609/880/506
f 500/881/423 609/880/506 335/879/290
f 609/880/506 500/881/423 610/882/507
f 465/583/388 374/883/327 456/573/381
f 374/883/327 465/583/388 376/884/329
f 368/885/322 458/575/382 366/886/321
f 458/575/382 368/885/322 460/577/384
f 354/887/309 338/888/293 358/889/313
f 338/888/293 354/887/309 336/890/291
f 356/891/311 336/890/291 354/887/309
f 336/890/291 356/891/311 344/892/299
f 349/893/304 358/457/313 338/894/293
f 358/457/313 349/893/304 360/459/315
f 365/465/320 344/895/299 356/455/311
f 344/895/299 365/465/320 343/896/298
f 339/897/294 353/898/308 350/899/305
f 353/898/308 339/897/294 362/462/317
f 341/900/296 362/462/317 339/897/294
f 362/462/317 341/900/296 363/463/318
f 614/901/511 615/902/512 616/903/513
f 615/902/512 614/901/511 617/904/514
f 618/905/515 617/904/514 614/901/511
f 617/904/514 618/905/515 619/906/516
f 454/907/380 366/908/321 458/909/382
f 366/908/321 454/907/380 369/910/323
f 456/911/381 369/910/323 454/907/380
f 369/910/323 456/911/381 374/912/327
f 617/904/514 620/913/517 615/902/512
f 620/913/517 617/904/514 621/914/518
f 619/906/516 621/914/518 617/904/514
f 621/914/518 619/906/516 622/915/519
f 621/914/518 623/916/520 620/913/517
f 623/916/520 621/914/518 624/917/521
f 622/915/519 624/917/521 621/914/518
f 624/917/521 622/915/519 625/918/522
f 624/917/521 626/919/523 623/916/520
f 626/919/523 624/917/521 627/920/524
f 625/918/522 627/920/524 624/917/521
f 627/920/524 625/918/522 628/921/525
f 629/922/526 498/923/421 630/924/527
f 498/923/421 629/922/526 497/925/420
f 631/926/528 497/925/420 629/922/526
f 497/925/420 631/926/528 496/927/419
f 632/928/529 496/927/419 631/926/528
f 496/927/419 632/928/529 495/929/418
f 633/930/530 495/929/418 632/928/529
f 495/929/418 633/930/530 494/931/417
f 634/932/531 616/903/513 635/933/532
f 616/903/513 634/932/531 614/901/511
f 636/934/533 614/901/511 634/932/531
f 614/901/511 636/934/533 618/905/515
f 498/935/421 107/936/99 630/937/527
f 107/936/99 498/935/421 125/938/117
f 632/939/529 115/940/107 633/941/530
f 115/940/107 632/939/529 113/942/105
f 631/943/528 113/942/105 632/939/529
f 113/942/105 631/943/528 111/944/103
f 629/945/526 111/944/103 631/943/528
f 111/944/103 629/945/526 109/946/101
f 630/937/527 109/946/101 629/945/526
f 109/946/101 630/937/527 107/936/99
f 627/920/524 635/947/532 626/919/523
f 635/947/532 627/920/524 634/948/531
f 628/921/525 634/948/531 627/920/524
f 634/948/531 628/921/525 636/949/533
f 633/941/530 117/950/109 494/951/417
f 117/950/109 633/941/530 115/940/107
f 436/552/362 449/952/375 434/550/360
f 449/952/375 436/552/362 448/953/374
f 438/554/364 448/953/374 436/552/362
f 448/953/374 438/554/364 450/954/376
f 637/955/534 106/956/98 638/957/535
f 106/956/98 637/955/534 104/958/96
f 639/959/536 104/958/96 637/955/534
f 104/958/96 639/959/536 105/960/97
f 640/961/537 105/962/97 639/963/536
f 105/962/97 640/961/537 103/964/95
f 638/957/535 103/965/95 640/966/537
f 103/965/95 638/957/535 106/956/98
f 142/153/134 138/159/130 140/151/132
f 138/159/130 142/153/134 144/156/136
f 641/967/538 414/536/351 413/968/350
f 414/536/351 641/967/538 427/537/356
f 642/969/539 425/547/354 432/548/358
f 425/547/354 642/969/539 424/970/353
f 432/971/358 643/972/540 642/973/539
f 643/972/540 432/971/358 431/974/357
f 431/974/357 644/975/541 643/972/540
f 644/975/541 431/974/357 430/976/341
f 430/976/341 645/977/542 644/975/541
f 645/977/542 430/976/341 429/978/340
f 428/979/339 645/977/542 429/978/340
f 645/977/542 428/979/339 646/980/543
f 426/981/355 646/980/543 428/979/339
f 646/980/543 426/981/355 647/982/544
f 427/983/356 647/982/544 426/981/355
f 647/982/544 427/983/356 641/984/538
f 648/985/545 383/986/334 382/987/333
f 383/986/334 648/985/545 396/988/338
f 649/989/546 391/990/335 393/991/98
f 391/990/335 649/989/546 650/992/547
f 650/992/547 390/993/335 391/990/335
f 390/993/335 650/992/547 651/994/548
f 652/995/549 390/993/335 651/994/548
f 390/993/335 652/995/549 387/996/335
f 652/995/549 386/997/335 387/996/335
f 386/997/335 652/995/549 653/998/550
f 654/999/551 386/997/335 653/998/550
f 386/997/335 654/999/551 384/1000/335
f 648/985/545 384/1000/335 654/999/551
f 384/1000/335 648/985/545 382/987/333
f 649/989/546 394/1001/336 401/1002/343
f 394/1001/336 649/989/546 393/991/98
f 401/1003/343 650/1004/547 649/1005/546
f 650/1004/547 401/1003/343 400/1006/342
f 400/1006/342 651/1007/548 650/1004/547
f 651/1007/548 400/1006/342 399/1008/341
f 399/1008/341 652/1009/549 651/1007/548
f 652/1009/549 399/1008/341 398/1010/340
f 397/1011/339 652/1009/549 398/1010/340
f 652/1009/549 397/1011/339 653/1012/550
f 395/1013/337 653/1012/550 397/1011/339
f 653/1012/550 395/1013/337 654/1014/551
f 396/1015/338 654/1014/551 395/1013/337
f 654/1014/551 396/1015/338 648/1016/545
