# Blender 4.1.1
# www.blender.org
mtllib 90x52mm.mtl
o 90x52mm
v 1.001248 0.000015 -0.345726
v 1.020863 0.000015 -0.000168
v 0.000052 -0.000000 -0.000167
v 0.943158 0.000015 -0.678003
v 1.000013 0.009817 0.344961
v 0.941995 0.009816 0.676829
v 0.943158 0.000015 0.677667
v 1.001248 0.000015 0.345389
v -1.001145 0.000014 0.345390
v -1.020759 0.000015 -0.000167
v -0.943055 0.000014 0.677667
v 0.537777 0.127601 1.422439
v 0.684446 0.127601 1.209660
v 0.000052 0.127609 -0.000167
v 0.370443 0.127601 1.580548
v -0.949230 0.127601 -0.333958
v -0.967828 0.127601 -0.000167
v -0.894152 0.127601 -0.654922
v -0.949230 0.127601 0.333623
v -0.894152 0.127601 0.654587
v 0.949334 0.127602 0.333623
v 0.967931 0.127602 -0.000168
v 0.894256 0.127602 0.654586
v -0.804710 0.127601 0.950388
v -0.684343 0.127601 1.209660
v 0.949333 0.127602 -0.333959
v 0.894255 0.127602 -0.654923
v 0.188875 0.127602 -1.678247
v 0.000052 0.127602 -1.711123
v 0.370443 0.127602 -1.580884
v -0.537673 0.127601 1.422440
v -0.370340 0.127601 1.580548
v 0.804814 0.127602 -0.950724
v 0.684446 0.127602 -1.209996
v -0.188772 0.127602 -1.678247
v -0.370340 0.127602 -1.580884
v -0.188772 0.127601 1.677912
v 0.000052 0.127601 1.710787
v 0.537777 0.127602 -1.422775
v -0.537673 0.127601 -1.422775
v -0.684343 0.127601 -1.209996
v 0.188876 0.127601 1.677912
v 0.848825 0.000015 0.983896
v 0.721874 0.000015 1.252307
v -1.001145 0.000015 -0.345724
v -0.943055 0.000015 -0.678002
v 0.567184 0.000015 1.472588
v 0.390699 0.000015 1.636271
v -0.848722 0.000015 -0.984232
v -0.721771 0.000015 -1.252643
v 0.199202 0.000015 1.737066
v 0.000052 0.000015 1.771100
v -0.567081 0.000015 -1.472923
v -0.390596 0.000015 -1.636606
v 0.567184 0.000015 -1.472924
v 0.721874 0.000015 -1.252644
v 0.390699 0.000015 -1.636606
v -0.199098 0.000014 1.737066
v -0.390596 0.000014 1.636271
v -0.199099 0.000015 -1.737402
v 0.000052 0.000015 -1.771436
v 0.848825 0.000015 -0.984232
v 0.199202 0.000015 -1.737402
v -0.848722 0.000014 0.983897
v -0.721771 0.000014 1.252308
v 0.804814 0.127601 0.950387
v -0.804711 0.127601 -0.950723
v -0.567080 0.000014 1.472588
v -0.941891 0.009816 0.676832
v -0.999909 0.009816 0.344964
v 0.566484 0.009817 -1.471107
v 0.720983 0.009817 -1.251099
v 1.019603 0.009817 -0.000170
v -0.847674 0.009816 0.982683
v 0.390217 0.009817 -1.634587
v 1.000013 0.009817 -0.345301
v -0.720879 0.009816 1.250764
v 0.198956 0.009817 -1.735259
v 0.941994 0.009817 -0.677169
v -0.566380 0.009816 1.470771
v 0.000051 0.009817 -1.769250
v 0.847777 0.009817 -0.983021
v -0.390113 0.009816 1.634251
v -0.198854 0.009817 -1.735258
v 0.688155 0.120115 -1.216554
v 0.809175 0.120115 -0.955879
v -0.198852 0.009816 1.734923
v -0.390114 0.009816 -1.634587
v 0.000053 0.009816 1.768915
v -0.566381 0.009816 -1.471106
v 0.198957 0.009816 1.734922
v -0.720881 0.009816 -1.251098
v 0.390218 0.009816 1.634251
v -0.847675 0.009816 -0.983017
v 0.566485 0.009816 1.470770
v -0.941891 0.009816 -0.677166
v 0.720984 0.009816 1.250761
v -0.999909 0.009816 -0.345298
v 0.847778 0.009816 0.982680
v -1.019500 0.009816 -0.000167
v 0.899103 0.120114 0.658133
v 0.809176 0.120114 0.955538
v -0.954376 0.120114 0.335433
v -0.973074 0.120114 -0.000167
v -0.954376 0.120114 -0.335767
v 0.688156 0.120114 1.216216
v -0.898999 0.120114 -0.658470
v 0.540692 0.120114 1.430149
v -0.809073 0.120114 -0.955875
v 0.372451 0.120114 1.589116
v -0.688052 0.120114 -1.216553
v 0.189900 0.120114 1.687007
v -0.540588 0.120114 -1.430485
v 0.000052 0.120114 1.720061
v -0.372348 0.120114 -1.589451
v -0.189795 0.120114 1.687007
v -0.189796 0.120114 -1.687343
v -0.372347 0.120114 1.589117
v 0.000051 0.120115 -1.720397
v -0.540587 0.120114 1.430151
v 0.899102 0.120115 -0.658473
v 0.189899 0.120115 -1.687343
v -0.688051 0.120114 1.216219
v 0.954479 0.120115 -0.335771
v 0.372450 0.120115 -1.589452
v -0.809072 0.120114 0.955541
v 0.973177 0.120115 -0.000170
v 0.540691 0.120115 -1.430486
v -0.898999 0.120114 0.658136
v 0.954479 0.120114 0.335430
v 0.975702 0.009840 0.513368
v 0.926255 0.127620 0.496496
v 0.931275 0.120096 0.499186
v 0.976907 -0.000009 0.514004
v 0.963270 0.127620 0.167535
v 1.014694 0.009840 0.173230
v 1.015947 -0.000009 0.173446
v 0.968491 0.120096 0.168442
v 1.015947 -0.000008 -0.173783
v 1.014694 0.009840 -0.173571
v 0.963270 0.127620 -0.167871
v 0.968491 0.120096 -0.168782
v 0.976907 -0.000008 -0.514340
v 0.931274 0.120096 -0.499527
v 0.926254 0.127620 -0.496832
v 0.975701 0.009840 -0.513708
v 0.858271 0.120097 -0.811081
v 0.853645 0.127620 -0.806707
v 0.899215 0.009841 -0.834110
v 0.900326 -0.000008 -0.835139
v 0.748232 0.127620 -1.085586
v 0.752287 0.120097 -1.091470
v 0.789149 -0.000008 -1.123849
v 0.788175 0.009841 -1.122464
v 0.458780 0.120097 -1.517275
v 0.456307 0.127620 -1.509096
v 0.481259 -0.000008 -1.562287
v 0.480665 0.009841 -1.560360
v 0.617396 0.120097 -1.329923
v 0.647647 -0.000008 -1.369377
v 0.646848 0.009841 -1.367687
v 0.614068 0.127620 -1.322754
v 0.296377 -0.000008 -1.695166
v 0.282535 0.120096 -1.646325
v 0.296011 0.009840 -1.693075
v 0.281012 0.127620 -1.637450
v 0.099984 0.009840 -1.760732
v 0.095434 0.120096 -1.712113
v 0.094920 0.127620 -1.702885
v 0.100109 -0.000008 -1.762907
v -0.094817 0.127620 -1.702884
v -0.099882 0.009840 -1.760732
v -0.095332 0.120096 -1.712113
v -0.100005 -0.000009 -1.762907
v -0.296274 -0.000009 -1.695166
v -0.280909 0.127620 -1.637450
v -0.295909 0.009840 -1.693074
v -0.282432 0.120096 -1.646324
v -0.481156 -0.000009 -1.562287
v -0.458677 0.120096 -1.517274
v -0.456204 0.127620 -1.509095
v -0.480562 0.009840 -1.560359
v -0.647544 -0.000009 -1.369377
v -0.646745 0.009840 -1.367686
v -0.617293 0.120096 -1.329922
v -0.613965 0.127619 -1.322754
v -0.789046 -0.000009 -1.123848
v -0.748129 0.127619 -1.085586
v -0.752185 0.120096 -1.091469
v -0.788073 0.009840 -1.122461
v -0.900223 -0.000009 -0.835137
v -0.853542 0.127619 -0.806706
v -0.858169 0.120096 -0.811078
v -0.899113 0.009840 -0.834107
v -0.976804 -0.000009 -0.514340
v -0.931172 0.120096 -0.499523
v -0.926151 0.127619 -0.496832
v -0.975599 0.009840 -0.513705
v -0.968388 0.120096 -0.168779
v -1.015844 -0.000009 -0.173782
v -1.014591 0.009840 -0.173567
v -0.963167 0.127619 -0.167870
v -1.015844 -0.000009 0.173447
v -0.963167 0.127619 0.167536
v -1.014590 0.009840 0.173234
v -0.968388 0.120096 0.168445
v -0.976803 -0.000009 0.514005
v -0.975598 0.009840 0.513371
v -0.926151 0.127619 0.496496
v -0.931171 0.120096 0.499190
v -0.899112 0.009840 0.833774
v -0.858168 0.120096 0.810744
v -0.900223 -0.000009 0.834802
v -0.853542 0.127619 0.806371
v -0.788072 0.009840 1.122128
v -0.752184 0.120096 1.091135
v -0.748129 0.127619 1.085251
v -0.789046 -0.000009 1.123513
v -0.613964 0.127619 1.322419
v -0.647544 -0.000009 1.369042
v -0.646745 0.009840 1.367352
v -0.617292 0.120096 1.329588
v -0.458676 0.120096 1.516939
v -0.456203 0.127619 1.508760
v -0.481155 -0.000009 1.561951
v -0.480561 0.009840 1.560024
v -0.296274 -0.000009 1.694830
v -0.295908 0.009840 1.692739
v -0.280909 0.127619 1.637115
v -0.282431 0.120096 1.645989
v -0.094817 0.127619 1.702548
v -0.095331 0.120096 1.711777
v -0.099881 0.009840 1.760396
v -0.100005 -0.000009 1.762571
v 0.099986 0.009840 1.760396
v 0.094921 0.127619 1.702548
v 0.100109 -0.000009 1.762571
v 0.095435 0.120096 1.711777
v 0.282536 0.120096 1.645988
v 0.281012 0.127619 1.637114
v 0.296013 0.009840 1.692738
v 0.296378 -0.000009 1.694830
v 0.480666 0.009840 1.560023
v 0.481259 -0.000009 1.561951
v 0.456307 0.127619 1.508760
v 0.458781 0.120096 1.516938
v 0.617397 0.120096 1.329586
v 0.646849 0.009840 1.367351
v 0.614068 0.127619 1.322418
v 0.647647 -0.000009 1.369041
v 0.748233 0.127619 1.085250
v 0.788176 0.009840 1.122125
v 0.752288 0.120096 1.091132
v 0.789149 -0.000009 1.123513
v 0.858272 0.120096 0.810741
v 0.899216 0.009840 0.833770
v 0.900327 -0.000009 0.834802
v 0.853645 0.127620 0.806370
vn 0.9725 -0.2043 -0.1114
vn 0.9777 -0.2023 -0.0555
vn 0.9795 -0.2016 -0.0000
vn -0.0000 -1.0000 -0.0000
vn 0.9573 0.2368 0.1662
vn 0.9449 0.2390 0.2239
vn 0.9505 -0.2126 0.2268
vn 0.9636 -0.2078 0.1684
vn -0.9725 -0.2043 0.1114
vn -0.9777 -0.2023 0.0555
vn -0.9795 -0.2016 -0.0000
vn 0.3479 0.8901 0.2945
vn 0.3923 0.8792 0.2704
vn 0.4319 0.8682 0.2443
vn -0.0000 1.0000 -0.0000
vn -0.5667 0.8214 -0.0638
vn -0.5732 0.8188 -0.0319
vn -0.5754 0.8179 -0.0000
vn -0.5667 0.8214 0.0638
vn -0.5559 0.8258 0.0954
vn -0.5406 0.8317 0.1267
vn 0.5668 0.8214 0.0638
vn 0.5732 0.8188 0.0319
vn 0.5754 0.8179 -0.0000
vn -0.4959 0.8479 0.1874
vn -0.4664 0.8577 0.2165
vn -0.4319 0.8682 0.2443
vn 0.5668 0.8214 -0.0638
vn 0.5559 0.8258 -0.0954
vn 0.5406 0.8317 -0.1267
vn 0.1268 0.9240 -0.3607
vn 0.0640 0.9278 -0.3675
vn -0.0000 0.9291 -0.3698
vn -0.3479 0.8901 0.2945
vn -0.2986 0.9005 0.3160
vn -0.2450 0.9100 0.3346
vn 0.4959 0.8479 -0.1875
vn 0.4664 0.8577 -0.2165
vn 0.4319 0.8682 -0.2443
vn -0.1268 0.9240 -0.3607
vn -0.1875 0.9180 -0.3496
vn -0.2450 0.9100 -0.3346
vn -0.1268 0.9240 0.3607
vn -0.0640 0.9278 0.3674
vn -0.0000 0.9291 0.3697
vn 0.3479 0.8901 -0.2945
vn 0.2986 0.9005 -0.3160
vn 0.2450 0.9100 -0.3346
vn -0.3479 0.8901 -0.2945
vn -0.3923 0.8792 -0.2704
vn -0.4319 0.8682 -0.2443
vn 0.1268 0.9240 0.3606
vn 0.1874 0.9180 0.3496
vn 0.2450 0.9100 0.3346
vn 0.9725 -0.2043 0.1114
vn 0.9089 -0.2269 0.3498
vn 0.8784 -0.2365 0.4153
vn 0.8395 -0.2477 0.4836
vn -0.9725 -0.2043 -0.1114
vn -0.9636 -0.2078 -0.1684
vn -0.9505 -0.2126 -0.2268
vn 0.7282 -0.2748 0.6278
vn 0.6509 -0.2902 0.7015
vn 0.5559 -0.3058 0.7730
vn -0.9089 -0.2269 -0.3498
vn -0.8784 -0.2365 -0.4153
vn -0.8395 -0.2477 -0.4836
vn 0.3078 -0.3330 0.8913
vn 0.1584 -0.3414 0.9265
vn -0.0000 -0.3444 0.9388
vn -0.7282 -0.2748 -0.6278
vn -0.6509 -0.2902 -0.7015
vn -0.5559 -0.3058 -0.7730
vn 0.7282 -0.2748 -0.6278
vn 0.7902 -0.2605 -0.5547
vn 0.8395 -0.2477 -0.4836
vn -0.3078 -0.3330 0.8913
vn -0.4414 -0.3206 0.8381
vn -0.5559 -0.3058 0.7730
vn -0.3078 -0.3330 -0.8913
vn -0.1584 -0.3414 -0.9265
vn -0.0000 -0.3444 -0.9388
vn 0.9089 -0.2269 -0.3498
vn 0.9325 -0.2190 -0.2871
vn 0.9505 -0.2126 -0.2268
vn 0.3078 -0.3330 -0.8913
vn 0.4414 -0.3206 -0.8381
vn 0.5559 -0.3058 -0.7730
vn -0.9089 -0.2269 0.3498
vn -0.9325 -0.2190 0.2871
vn -0.9505 -0.2126 0.2268
vn 0.4959 0.8479 0.1875
vn 0.5206 0.8391 0.1574
vn 0.5406 0.8317 0.1267
vn -0.4959 0.8479 -0.1875
vn -0.5206 0.8392 -0.1574
vn -0.5405 0.8317 -0.1267
vn -0.7282 -0.2748 0.6278
vn -0.7902 -0.2605 0.5547
vn -0.8395 -0.2477 0.4836
vn -0.9573 0.2367 0.1662
vn -0.9657 0.2351 0.1099
vn -0.9636 -0.2078 0.1684
vn 0.7920 0.2617 -0.5515
vn 0.8393 0.2555 -0.4798
vn 0.9706 0.2342 0.0547
vn 0.9657 0.2351 0.1099
vn 0.9777 -0.2023 0.0555
vn -0.9279 0.2420 0.2837
vn -0.9449 0.2390 0.2239
vn 0.6566 0.2766 -0.7017
vn 0.7321 0.2688 -0.6260
vn 0.6509 -0.2902 -0.7015
vn 0.9706 0.2342 -0.0547
vn 0.9723 0.2339 -0.0000
vn -0.8765 0.2502 0.4113
vn -0.9055 0.2457 0.3460
vn -0.8784 -0.2365 0.4153
vn 0.4486 0.2929 -0.8444
vn 0.5628 0.2849 -0.7759
vn 0.9573 0.2368 -0.1662
vn 0.9657 0.2351 -0.1099
vn 0.9636 -0.2078 -0.1684
vn -0.7920 0.2617 0.5515
vn -0.8393 0.2555 0.4798
vn 0.1619 0.3048 -0.9386
vn 0.3139 0.2999 -0.9008
vn 0.1584 -0.3414 -0.9265
vn 0.9279 0.2420 -0.2837
vn 0.9448 0.2390 -0.2239
vn -0.6566 0.2766 0.7017
vn -0.7321 0.2688 0.6260
vn -0.6509 -0.2902 0.7015
vn -0.1619 0.3048 -0.9386
vn -0.0000 0.3065 -0.9519
vn 0.7880 0.4914 -0.3709
vn 0.8168 0.4847 -0.3129
vn -0.4486 0.2930 0.8444
vn -0.5628 0.2849 0.7759
vn -0.4486 0.2930 -0.8444
vn -0.3139 0.2999 -0.9008
vn -0.4414 -0.3206 -0.8381
vn -0.1619 0.3048 0.9386
vn -0.3139 0.2999 0.9008
vn -0.1584 -0.3414 0.9265
vn -0.6566 0.2766 -0.7017
vn -0.5628 0.2849 -0.7759
vn 0.1619 0.3047 0.9386
vn -0.0000 0.3065 0.9519
vn -0.7920 0.2617 -0.5515
vn -0.7321 0.2688 -0.6260
vn -0.7902 -0.2605 -0.5547
vn 0.4486 0.2930 0.8444
vn 0.3139 0.2999 0.9008
vn 0.4414 -0.3206 0.8381
vn -0.8765 0.2502 -0.4113
vn -0.8394 0.2555 -0.4798
vn 0.6566 0.2766 0.7017
vn 0.5628 0.2849 0.7759
vn -0.9279 0.2420 -0.2837
vn -0.9055 0.2457 -0.3460
vn -0.9325 -0.2190 -0.2871
vn 0.7920 0.2617 0.5515
vn 0.7321 0.2688 0.6260
vn 0.7902 -0.2605 0.5547
vn -0.9573 0.2367 -0.1662
vn -0.9449 0.2390 -0.2239
vn 0.8765 0.2502 0.4113
vn 0.8394 0.2555 0.4798
vn -0.9706 0.2342 -0.0547
vn -0.9657 0.2351 -0.1099
vn -0.9777 -0.2023 -0.0555
vn 0.8391 0.4794 0.2571
vn 0.8168 0.4847 0.3129
vn -0.8819 0.4689 0.0498
vn -0.5732 0.8188 0.0319
vn -0.8835 0.4685 -0.0000
vn -0.9706 0.2342 0.0547
vn -0.9723 0.2339 -0.0000
vn 0.9279 0.2420 0.2837
vn 0.9055 0.2457 0.3460
vn -0.8769 0.4701 -0.0999
vn -0.8819 0.4689 -0.0498
vn 0.4664 0.8577 0.2165
vn 0.7515 0.4995 0.4311
vn 0.7880 0.4914 0.3709
vn -0.5559 0.8258 -0.0954
vn -0.8560 0.4753 -0.2032
vn -0.8684 0.4722 -0.1509
vn 0.6479 0.5201 0.5565
vn 0.7054 0.5091 0.4932
vn -0.8168 0.4847 -0.3129
vn -0.8391 0.4794 -0.2571
vn 0.2986 0.9005 0.3160
vn 0.4903 0.5453 0.6799
vn 0.5768 0.5324 0.6196
vn -0.4664 0.8577 -0.2165
vn -0.7515 0.4995 -0.4311
vn -0.7880 0.4914 -0.3709
vn 0.2692 0.5682 0.7776
vn 0.3876 0.5577 0.7340
vn -0.6479 0.5201 -0.5565
vn -0.7054 0.5091 -0.4932
vn 0.0640 0.9278 0.3674
vn -0.0000 0.5779 0.8161
vn 0.1382 0.5754 0.8061
vn -0.2986 0.9005 -0.3161
vn -0.4903 0.5453 -0.6799
vn -0.5768 0.5324 -0.6196
vn -0.2692 0.5682 0.7776
vn -0.1382 0.5754 0.8061
vn -0.2692 0.5682 -0.7776
vn -0.3876 0.5576 -0.7340
vn -0.1875 0.9180 0.3496
vn -0.4903 0.5453 0.6799
vn -0.3876 0.5577 0.7340
vn 0.8765 0.2501 -0.4113
vn 0.9055 0.2456 -0.3460
vn -0.0640 0.9278 -0.3675
vn -0.0000 0.5779 -0.8161
vn -0.1382 0.5754 -0.8061
vn -0.6478 0.5202 0.5565
vn -0.5768 0.5324 0.6196
vn 0.5206 0.8392 -0.1574
vn 0.8560 0.4753 -0.2032
vn 0.8391 0.4794 -0.2571
vn 0.2692 0.5682 -0.7776
vn 0.1382 0.5754 -0.8061
vn -0.3923 0.8792 0.2704
vn -0.7515 0.4995 0.4311
vn -0.7054 0.5091 0.4932
vn 0.8769 0.4701 -0.0999
vn 0.8685 0.4722 -0.1509
vn 0.1875 0.9180 -0.3496
vn 0.4903 0.5453 -0.6799
vn 0.3876 0.5577 -0.7340
vn -0.8168 0.4848 0.3129
vn -0.7880 0.4914 0.3709
vn 0.5732 0.8188 -0.0319
vn 0.8835 0.4685 -0.0000
vn 0.8819 0.4689 -0.0498
vn 0.6478 0.5202 -0.5565
vn 0.5768 0.5324 -0.6196
vn -0.5206 0.8392 0.1574
vn -0.8560 0.4753 0.2032
vn -0.8391 0.4794 0.2571
vn 0.8769 0.4701 0.0999
vn 0.8819 0.4689 0.0498
vn 0.3923 0.8792 -0.2704
vn 0.7515 0.4995 -0.4311
vn 0.7054 0.5091 -0.4932
vn -0.8769 0.4701 0.0999
vn -0.8685 0.4722 0.1509
vn 0.5559 0.8257 0.0954
vn 0.8560 0.4753 0.2032
vn 0.8685 0.4722 0.1509
vn 0.8784 -0.2365 -0.4153
vn 0.9325 -0.2190 0.2871
vt 0.500004 0.500001
vt 0.500004 0.500000
vt 0.500002 0.500000
vt 0.499996 0.499999
vt 0.499996 0.499998
vt 0.500001 0.499999
vt 0.500001 0.500000
vt 0.499997 0.499996
vt 0.499997 0.499997
vt 0.499996 0.499997
vt 0.499998 0.500000
vt 0.499999 0.500001
vt 0.499999 0.500000
vt 0.499999 0.499999
vt 0.499996 0.500000
vt 0.499999 0.499998
vt 0.499999 0.499997
vt 0.499996 0.500001
vt 0.499997 0.500004
vt 0.499998 0.499996
vt 0.499996 0.500002
vt 0.499996 0.500003
vt 0.499998 0.500004
vt 0.499997 0.500003
vt 0.499999 0.500003
vt 0.500004 0.499999
vt 0.500004 0.499997
vt 0.500001 0.500001
vt 0.500001 0.500002
vt 0.500003 0.499996
vt 0.500001 0.500003
vt 0.500002 0.499996
vt 0.500002 0.500004
vt 0.500004 0.500003
vt 0.500003 0.500004
vt 0.500004 0.500002
vt 0.500001 0.499998
vt 0.499999 0.500002
vt 0.500001 0.499997
s 1
usemtl None.013
f 1/1/1 139/2/2 2/2/3 3/3/4
f 131/4/5 6/5/6 7/5/7 134/4/8
f 9/6/9 203/7/10 10/7/11 3/3/4
f 12/8/12 249/9/13 13/10/14 14/11/15
f 16/12/16 202/12/17 17/13/18 14/11/15
f 19/14/19 209/14/20 20/14/21 14/11/15
f 21/4/22 135/4/23 22/15/24 14/11/15
f 24/16/25 217/16/26 25/17/27 14/11/15
f 26/18/28 145/18/29 27/18/30 14/11/15
f 28/19/31 169/19/32 29/19/33 14/11/15
f 31/17/34 224/20/35 32/20/36 14/11/15
f 33/21/37 151/21/38 34/22/39 14/11/15
f 35/23/40 176/23/41 36/23/42 14/11/15
f 37/20/43 231/20/44 38/20/45 14/11/15
f 39/24/46 156/19/47 30/19/48 14/11/15
f 40/23/49 186/25/50 41/25/51 14/11/15
f 42/8/52 240/8/53 15/8/54 14/11/15
f 8/26/55 134/4/8 7/5/7 3/3/4
f 43/27/56 254/27/57 44/27/58 3/3/4
f 45/28/59 195/28/60 46/29/61 3/3/4
f 47/30/62 244/30/63 48/30/64 3/3/4
f 49/31/65 187/31/66 50/31/67 3/3/4
f 51/30/68 237/30/69 52/32/70 3/3/4
f 53/33/71 179/33/72 54/33/73 3/3/4
f 55/34/74 160/34/75 56/34/76 3/3/4
f 58/32/77 227/32/78 59/32/79 3/3/4
f 60/33/80 174/33/81 61/35/82 3/3/4
f 62/36/83 150/36/84 4/1/85 3/3/4
f 63/35/86 163/35/87 57/35/88 3/3/4
f 64/37/89 213/37/90 11/6/91 3/3/4
f 66/5/92 258/5/93 23/5/94 14/11/15
f 67/38/95 192/38/96 18/38/97 14/11/15
f 68/39/98 220/39/99 65/39/100 3/3/4
f 208/14/101 70/14/102 9/6/9 207/14/103
f 161/22/104 72/22/105 56/34/76 160/34/75
f 136/4/106 5/4/107 8/26/55 137/4/108
f 211/16/109 69/14/110 11/6/91 213/37/90
f 158/19/111 71/24/112 55/34/74 157/19/113
f 140/15/114 73/15/115 2/2/3 139/2/2
f 215/17/116 74/16/117 64/37/89 218/17/118
f 165/19/119 75/19/120 57/35/88 163/35/87
f 146/18/121 76/18/122 1/1/1 143/18/123
f 221/17/124 77/17/125 65/39/100 220/39/99
f 167/19/126 78/19/127 63/35/86 170/19/128
f 149/21/129 79/18/130 4/1/85 150/36/84
f 226/20/131 80/17/132 68/39/98 225/20/133
f 172/23/134 81/19/135 61/35/82 174/33/81
f 152/21/136 151/21/38 33/21/37 86/21/137
f 228/20/138 83/20/139 59/32/79 227/32/78
f 177/23/140 84/23/141 60/33/80 175/23/142
f 233/20/143 87/20/144 58/32/77 234/20/145
f 182/23/146 88/23/147 54/33/73 179/33/72
f 235/8/148 89/20/149 52/32/70 237/30/69
f 184/25/150 90/23/151 53/33/71 183/25/152
f 241/8/153 91/8/154 51/30/68 242/8/155
f 190/25/156 92/25/157 50/31/67 187/31/66
f 243/8/158 93/8/159 48/30/64 244/30/63
f 194/38/160 94/25/161 49/31/65 191/38/162
f 248/9/163 95/8/164 47/30/62 250/9/165
f 198/12/166 96/38/167 46/29/61 195/28/60
f 252/10/168 97/10/169 44/27/58 254/27/57
f 201/12/170 98/12/171 45/28/59 200/12/172
f 255/5/173 258/5/93 66/5/92 102/5/174
f 206/13/175 204/13/176 17/13/18 104/13/177
f 205/13/178 206/13/175 104/13/177 100/13/179
f 256/5/180 255/5/173 102/5/174 99/10/181
f 202/12/17 16/12/16 105/12/182 199/12/183
f 251/10/184 13/10/14 106/10/185 253/10/186
f 197/12/187 18/38/97 107/38/188 196/12/189
f 249/9/13 12/8/12 108/8/190 247/9/191
f 192/38/96 67/38/95 109/38/192 193/38/193
f 245/8/194 15/8/54 110/8/195 246/8/196
f 188/25/197 41/25/51 111/25/198 189/25/199
f 240/8/53 42/8/52 112/8/200 239/8/201
f 186/25/50 40/23/49 113/23/202 185/25/203
f 236/8/204 38/20/45 114/20/205 238/8/206
f 181/23/207 36/23/42 115/23/208 180/23/209
f 231/20/44 37/20/43 116/20/210 232/20/211
f 176/23/41 35/23/40 117/23/212 178/23/213
f 229/20/214 32/20/36 118/20/215 230/20/216
f 154/22/217 152/21/136 86/21/137 82/21/218
f 171/23/219 29/19/33 119/19/220 173/23/221
f 224/20/35 31/17/34 120/17/222 223/20/223
f 148/21/224 27/18/30 121/18/225 147/21/226
f 169/19/32 28/19/31 122/19/227 168/19/228
f 219/17/229 25/17/27 123/17/230 222/17/231
f 145/18/29 26/18/28 124/18/232 144/18/233
f 166/19/234 30/19/48 125/19/235 164/19/236
f 217/16/26 24/16/25 126/16/237 216/16/238
f 141/15/239 22/15/24 127/15/240 142/15/241
f 156/19/47 39/24/46 128/24/242 155/19/243
f 214/16/244 20/14/21 129/14/245 212/16/246
f 135/4/23 21/4/22 130/4/247 138/4/248
f 162/22/249 34/22/39 85/22/250 159/22/251
f 209/14/20 19/14/19 103/14/252 210/14/253
f 132/4/254 23/5/94 101/5/255 133/4/256
f 153/22/257 154/22/217 82/21/218 62/36/83
f 257/5/258 256/5/180 99/10/181 43/27/56
f 203/7/10 205/13/178 100/13/179 10/7/11
f 199/12/183 105/12/182 98/12/171 201/12/170
f 253/10/186 106/10/185 97/10/169 252/10/168
f 196/12/189 107/38/188 96/38/167 198/12/166
f 247/9/191 108/8/190 95/8/164 248/9/163
f 193/38/193 109/38/192 94/25/161 194/38/160
f 246/8/196 110/8/195 93/8/159 243/8/158
f 189/25/199 111/25/198 92/25/157 190/25/156
f 239/8/201 112/8/200 91/8/154 241/8/153
f 185/25/203 113/23/202 90/23/151 184/25/150
f 238/8/206 114/20/205 89/20/149 235/8/148
f 180/23/209 115/23/208 88/23/147 182/23/146
f 232/20/211 116/20/210 87/20/144 233/20/143
f 178/23/213 117/23/212 84/23/141 177/23/140
f 230/20/216 118/20/215 83/20/139 228/20/138
f 173/23/221 119/19/220 81/19/135 172/23/134
f 223/20/223 120/17/222 80/17/132 226/20/131
f 147/21/226 121/18/225 79/18/130 149/21/129
f 168/19/228 122/19/227 78/19/127 167/19/126
f 222/17/231 123/17/230 77/17/125 221/17/124
f 144/18/233 124/18/232 76/18/122 146/18/121
f 164/19/236 125/19/235 75/19/120 165/19/119
f 216/16/238 126/16/237 74/16/117 215/17/116
f 142/15/241 127/15/240 73/15/115 140/15/114
f 155/19/243 128/24/242 71/24/112 158/19/111
f 212/16/246 129/14/245 69/14/110 211/16/109
f 138/4/248 130/4/247 5/4/107 136/4/106
f 159/22/251 85/22/250 72/22/105 161/22/104
f 210/14/253 103/14/252 70/14/102 208/14/101
f 133/4/256 101/5/255 6/5/6 131/4/5
f 27/18/30 148/21/224 33/21/37 14/11/15
f 56/34/76 153/22/257 62/36/83 3/3/4
f 57/35/88 157/19/113 55/34/74 3/3/4
f 34/22/39 162/22/249 39/24/46 14/11/15
f 30/19/48 166/19/234 28/19/31 14/11/15
f 61/35/82 170/19/128 63/35/86 3/3/4
f 50/31/67 183/25/152 53/33/71 3/3/4
f 36/23/42 181/23/207 40/23/49 14/11/15
f 41/25/51 188/25/197 67/38/95 14/11/15
f 46/29/61 191/38/162 49/31/65 3/3/4
f 18/38/97 197/12/187 16/12/16 14/11/15
f 10/7/11 200/12/172 45/28/59 3/3/4
f 17/13/18 204/13/176 19/14/19 14/11/15
f 11/6/91 207/14/103 9/6/9 3/3/4
f 20/14/21 214/16/244 24/16/25 14/11/15
f 65/39/100 218/17/118 64/37/89 3/3/4
f 25/17/27 219/17/229 31/17/34 14/11/15
f 59/32/79 225/20/133 68/39/98 3/3/4
f 32/20/36 229/20/214 37/20/43 14/11/15
f 52/32/70 234/20/145 58/32/77 3/3/4
f 38/20/45 236/8/204 42/8/52 14/11/15
f 48/30/64 242/8/155 51/30/68 3/3/4
f 15/8/54 245/8/194 12/8/12 14/11/15
f 44/27/58 250/9/165 47/30/62 3/3/4
f 13/10/14 251/10/184 66/5/92 14/11/15
f 7/5/7 257/5/258 43/27/56 3/3/4
f 23/5/94 132/4/254 21/4/22 14/11/15
f 2/2/3 137/4/108 8/26/55 3/3/4
f 22/15/24 141/15/239 26/18/28 14/11/15
f 4/1/85 143/18/123 1/1/1 3/3/4
f 54/33/73 175/23/142 60/33/80 3/3/4
f 29/19/33 171/23/219 35/23/40 14/11/15
f 130/4/247 133/4/256 131/4/5 5/4/107
f 21/4/22 132/4/254 133/4/256 130/4/247
f 5/4/107 131/4/5 134/4/8 8/26/55
f 127/15/240 138/4/248 136/4/106 73/15/115
f 22/15/24 135/4/23 138/4/248 127/15/240
f 73/15/115 136/4/106 137/4/108 2/2/3
f 124/18/232 142/15/241 140/15/114 76/18/122
f 26/18/28 141/15/239 142/15/241 124/18/232
f 76/18/122 140/15/114 139/2/2 1/1/1
f 121/18/225 144/18/233 146/18/121 79/18/130
f 27/18/30 145/18/29 144/18/233 121/18/225
f 79/18/130 146/18/121 143/18/123 4/1/85
f 86/21/137 147/21/226 149/21/129 82/21/218
f 33/21/37 148/21/224 147/21/226 86/21/137
f 82/21/218 149/21/129 150/36/84 62/36/83
f 56/34/76 72/22/105 154/22/217 153/22/257
f 72/22/105 85/22/250 152/21/136 154/22/217
f 85/22/250 34/22/39 151/21/38 152/21/136
f 125/19/235 155/19/243 158/19/111 75/19/120
f 30/19/48 156/19/47 155/19/243 125/19/235
f 75/19/120 158/19/111 157/19/113 57/35/88
f 128/24/242 159/22/251 161/22/104 71/24/112
f 39/24/46 162/22/249 159/22/251 128/24/242
f 71/24/112 161/22/104 160/34/75 55/34/74
f 122/19/227 164/19/236 165/19/119 78/19/127
f 28/19/31 166/19/234 164/19/236 122/19/227
f 78/19/127 165/19/119 163/35/87 63/35/86
f 119/19/220 168/19/228 167/19/126 81/19/135
f 29/19/33 169/19/32 168/19/228 119/19/220
f 81/19/135 167/19/126 170/19/128 61/35/82
f 117/23/212 173/23/221 172/23/134 84/23/141
f 35/23/40 171/23/219 173/23/221 117/23/212
f 84/23/141 172/23/134 174/33/81 60/33/80
f 115/23/208 178/23/213 177/23/140 88/23/147
f 36/23/42 176/23/41 178/23/213 115/23/208
f 88/23/147 177/23/140 175/23/142 54/33/73
f 113/23/202 180/23/209 182/23/146 90/23/151
f 40/23/49 181/23/207 180/23/209 113/23/202
f 90/23/151 182/23/146 179/33/72 53/33/71
f 111/25/198 185/25/203 184/25/150 92/25/157
f 41/25/51 186/25/50 185/25/203 111/25/198
f 92/25/157 184/25/150 183/25/152 50/31/67
f 109/38/192 189/25/199 190/25/156 94/25/161
f 67/38/95 188/25/197 189/25/199 109/38/192
f 94/25/161 190/25/156 187/31/66 49/31/65
f 107/38/188 193/38/193 194/38/160 96/38/167
f 18/38/97 192/38/96 193/38/193 107/38/188
f 96/38/167 194/38/160 191/38/162 46/29/61
f 105/12/182 196/12/189 198/12/166 98/12/171
f 16/12/16 197/12/187 196/12/189 105/12/182
f 98/12/171 198/12/166 195/28/60 45/28/59
f 104/13/177 199/12/183 201/12/170 100/13/179
f 17/13/18 202/12/17 199/12/183 104/13/177
f 100/13/179 201/12/170 200/12/172 10/7/11
f 9/6/9 70/14/102 205/13/178 203/7/10
f 70/14/102 103/14/252 206/13/175 205/13/178
f 103/14/252 19/14/19 204/13/176 206/13/175
f 129/14/245 210/14/253 208/14/101 69/14/110
f 20/14/21 209/14/20 210/14/253 129/14/245
f 69/14/110 208/14/101 207/14/103 11/6/91
f 126/16/237 212/16/246 211/16/109 74/16/117
f 24/16/25 214/16/244 212/16/246 126/16/237
f 74/16/117 211/16/109 213/37/90 64/37/89
f 123/17/230 216/16/238 215/17/116 77/17/125
f 25/17/27 217/16/26 216/16/238 123/17/230
f 77/17/125 215/17/116 218/17/118 65/39/100
f 120/17/222 222/17/231 221/17/124 80/17/132
f 31/17/34 219/17/229 222/17/231 120/17/222
f 80/17/132 221/17/124 220/39/99 68/39/98
f 118/20/215 223/20/223 226/20/131 83/20/139
f 32/20/36 224/20/35 223/20/223 118/20/215
f 83/20/139 226/20/131 225/20/133 59/32/79
f 116/20/210 230/20/216 228/20/138 87/20/144
f 37/20/43 229/20/214 230/20/216 116/20/210
f 87/20/144 228/20/138 227/32/78 58/32/77
f 114/20/205 232/20/211 233/20/143 89/20/149
f 38/20/45 231/20/44 232/20/211 114/20/205
f 89/20/149 233/20/143 234/20/145 52/32/70
f 112/8/200 238/8/206 235/8/148 91/8/154
f 42/8/52 236/8/204 238/8/206 112/8/200
f 91/8/154 235/8/148 237/30/69 51/30/68
f 110/8/195 239/8/201 241/8/153 93/8/159
f 15/8/54 240/8/53 239/8/201 110/8/195
f 93/8/159 241/8/153 242/8/155 48/30/64
f 108/8/190 246/8/196 243/8/158 95/8/164
f 12/8/12 245/8/194 246/8/196 108/8/190
f 95/8/164 243/8/158 244/30/63 47/30/62
f 106/10/185 247/9/191 248/9/163 97/10/169
f 13/10/14 249/9/13 247/9/191 106/10/185
f 97/10/169 248/9/163 250/9/165 44/27/58
f 102/5/174 253/10/186 252/10/168 99/10/181
f 66/5/92 251/10/184 253/10/186 102/5/174
f 99/10/181 252/10/168 254/27/57 43/27/56
f 7/5/7 6/5/6 256/5/180 257/5/258
f 6/5/6 101/5/255 255/5/173 256/5/180
f 101/5/255 23/5/94 258/5/93 255/5/173
