# Blender v2.92.0 OBJ File: ''
# www.blender.org
mtllib Battlewagon Wheel 1 R.mtl
o Body_battlewagon_body0_model0.002_Body_battlewagon_body0_model0.003
v -0.089813 0.502441 -0.000842
v -0.127188 0.408068 -0.214304
v -0.127189 0.461145 -0.000763
v -0.089814 0.445508 0.232106
v -0.127190 0.408904 0.212985
v -0.089816 0.286839 0.411914
v -0.127192 0.263313 0.377973
v -0.089818 0.062784 0.497387
v -0.127194 0.057726 0.456402
v -0.089820 -0.175329 0.468948
v -0.127195 -0.160760 0.430305
v -0.089820 -0.372951 0.333109
v -0.127195 -0.342093 0.305663
v -0.089819 -0.484809 0.120990
v -0.127195 -0.444731 0.111028
v -0.089818 -0.485278 -0.118815
v -0.127194 -0.445162 -0.109010
v -0.089816 -0.374251 -0.331369
v -0.140264 -0.220277 0.197317
v -0.140264 -0.103248 0.277759
v -0.140264 -0.286517 0.071703
v -0.140263 -0.286795 -0.070305
v -0.140262 -0.221046 -0.196176
v -0.127192 -0.343285 -0.304045
v -0.089814 -0.177162 -0.467979
v -0.127190 -0.162441 -0.429395
v -0.089812 0.060838 -0.497350
v -0.127188 0.055941 -0.456345
v -0.089812 0.285226 -0.412752
v -0.127188 0.261834 -0.378720
v -0.089812 0.444597 -0.233566
v -0.140260 -0.104333 -0.277075
v -0.140260 0.036606 -0.294467
v -0.140259 0.169486 -0.244369
v -0.140259 0.263862 -0.138258
v -0.140260 0.298117 -0.000444
v -0.140261 0.264402 0.137505
v -0.140262 0.170440 0.243985
v -0.140263 0.037759 0.294601
v 0.291814 -0.177164 -0.467977
v 0.291816 0.060836 -0.497348
v 0.291817 0.285224 -0.412750
v 0.291816 0.444595 -0.233564
v 0.291815 0.502439 -0.000840
v 0.291814 0.445505 0.232108
v 0.291812 0.286836 0.411915
v 0.291809 0.062782 0.497389
v 0.291808 -0.175331 0.468950
v 0.291808 -0.372954 0.333113
v 0.291809 -0.484811 0.120992
v 0.291810 -0.485280 -0.118813
v 0.291812 -0.374253 -0.331367
v -0.003631 0.121828 -0.000097
v -0.033444 0.263861 -0.138257
v -0.003631 0.107926 -0.056028
v -0.033444 0.169485 -0.244369
v -0.003631 0.069625 -0.099090
v -0.033445 0.036606 -0.294467
v -0.003631 0.015699 -0.119422
v -0.033446 -0.104334 -0.277074
v -0.003631 -0.041499 -0.112363
v -0.033447 -0.221047 -0.196176
v -0.003632 -0.088865 -0.079532
v -0.033448 -0.286796 -0.070304
v -0.003632 -0.115547 -0.028449
v -0.033449 -0.286518 0.071704
v -0.003633 -0.115435 0.029183
v -0.033449 -0.220277 0.197318
v -0.003633 -0.088552 0.080160
v -0.033449 -0.103249 0.277760
v -0.003633 -0.041059 0.112805
v -0.033448 0.037758 0.294602
v -0.003632 0.016166 0.119640
v -0.033447 0.170440 0.243985
v -0.003632 0.070013 0.099099
v -0.033446 0.264401 0.137505
v -0.003631 0.108145 0.055885
v -0.033445 0.298116 -0.000442
v -0.090212 -0.088552 0.080160
v -0.090212 -0.041058 0.112804
v -0.090212 -0.115434 0.029182
v -0.090211 -0.115547 -0.028451
v -0.090211 -0.088864 -0.079532
v -0.090210 -0.041499 -0.112363
v -0.090210 0.015700 -0.119422
v -0.090210 0.069626 -0.099091
v -0.090210 0.107927 -0.056028
v -0.090210 0.121828 -0.000099
v -0.090210 0.108146 0.055885
v -0.090211 0.070013 0.099099
v -0.090211 0.016167 0.119639
v 0.325876 -0.343141 -0.303912
v 0.325873 -0.444543 0.110984
v 0.325874 -0.444974 -0.108960
v 0.325873 -0.341949 0.305535
v 0.325878 -0.162374 -0.429208
v 0.325879 0.055915 -0.456147
v 0.325873 -0.160694 0.430124
v 0.325880 0.261719 -0.378555
v 0.325874 0.057699 0.456210
v 0.325880 0.407891 -0.214209
v 0.325876 0.263199 0.377813
v 0.325879 0.460946 -0.000759
v 0.325878 0.408727 0.212897
v -0.090211 0.001420 0.000136
vt 0.562471 0.594075
vt 0.550202 0.584192
vt 0.563198 0.591383
vt 0.578653 0.594432
vt 0.578047 0.591711
vt 0.593149 0.587228
vt 0.591347 0.585101
vt 0.602637 0.574112
vt 0.600052 0.573067
vt 0.604942 0.558091
vt 0.602168 0.558366
vt 0.599537 0.542833
vt 0.597209 0.544365
vt 0.587661 0.531835
vt 0.586312 0.534273
vt 0.572034 0.527614
vt 0.571973 0.530402
vt 0.556236 0.531140
vt 0.587894 0.550583
vt 0.591043 0.559174
vt 0.581085 0.544115
vt 0.571552 0.541527
vt 0.562331 0.543737
vt 0.557476 0.533637
vt 0.543886 0.541604
vt 0.546145 0.543238
vt 0.537813 0.556608
vt 0.540573 0.557006
vt 0.539409 0.572716
vt 0.542037 0.571786
vt 0.548308 0.586238
vt 0.555350 0.549603
vt 0.551606 0.558680
vt 0.552703 0.568275
vt 0.557524 0.575717
vt 0.566003 0.580659
vt 0.576097 0.580693
vt 0.583853 0.576745
vt 0.589696 0.569020
vt 0.713627 0.526326
vt 0.729692 0.500566
vt 0.729692 0.526326
vt 0.713627 0.500566
vt 0.698481 0.526326
vt 0.698481 0.500567
vt 0.684896 0.526326
vt 0.684896 0.500567
vt 0.669187 0.526326
vt 0.669187 0.500567
vt 0.850231 0.526326
vt 0.865955 0.500567
vt 0.865955 0.526326
vt 0.850231 0.500567
vt 0.836109 0.526326
vt 0.836109 0.500567
vt 0.820983 0.526326
vt 0.820983 0.500567
vt 0.804911 0.526326
vt 0.804911 0.500567
vt 0.788842 0.526326
vt 0.788842 0.500567
vt 0.773531 0.526326
vt 0.773531 0.500567
vt 0.757343 0.526326
vt 0.757343 0.500567
vt 0.742995 0.526326
vt 0.742995 0.500567
vt 0.736643 0.540147
vt 0.745969 0.530559
vt 0.740418 0.541085
vt 0.753131 0.536929
vt 0.743325 0.543670
vt 0.756513 0.545899
vt 0.744697 0.547310
vt 0.755338 0.555412
vt 0.744221 0.551171
vt 0.749878 0.563290
vt 0.742005 0.554368
vt 0.741382 0.567728
vt 0.738556 0.556169
vt 0.731796 0.567710
vt 0.734666 0.556161
vt 0.723317 0.563239
vt 0.731225 0.554347
vt 0.717888 0.555339
vt 0.729021 0.551141
vt 0.716750 0.545821
vt 0.728560 0.547279
vt 0.720168 0.536865
vt 0.729947 0.543644
vt 0.727355 0.530523
vt 0.732864 0.541069
vt 0.736665 0.528247
vt 0.567875 0.573856
vt 0.562200 0.570378
vt 0.559463 0.566137
vt 0.558546 0.559586
vt 0.561237 0.553433
vt 0.565543 0.550015
vt 0.571475 0.548521
vt 0.577892 0.550354
vt 0.582055 0.554568
vt 0.584064 0.559862
vt 0.583163 0.566521
vt 0.579127 0.571449
vt 0.574571 0.573851
vt 0.789743 0.528315
vt 0.786538 0.534159
vt 0.786538 0.528315
vt 0.789743 0.534159
vt 0.793184 0.528315
vt 0.793184 0.534159
vt 0.797074 0.528315
vt 0.797074 0.534159
vt 0.800522 0.528315
vt 0.800522 0.534159
vt 0.758162 0.528315
vt 0.754964 0.534159
vt 0.754964 0.528315
vt 0.758162 0.534159
vt 0.762024 0.528315
vt 0.762024 0.534159
vt 0.765663 0.528315
vt 0.765663 0.534159
vt 0.768569 0.528315
vt 0.768569 0.534159
vt 0.772344 0.528315
vt 0.772344 0.534159
vt 0.776124 0.528315
vt 0.776124 0.534159
vt 0.779040 0.528315
vt 0.779040 0.534159
vt 0.782675 0.528315
vt 0.782675 0.534159
vt 0.625361 0.588327
vt 0.654189 0.588614
vt 0.639739 0.592023
vt 0.665399 0.578881
vt 0.614346 0.578371
vt 0.609221 0.564438
vt 0.639711 0.594825
vt 0.624035 0.590794
vt 0.655465 0.591108
vt 0.667687 0.580495
vt 0.673579 0.565418
vt 0.670802 0.565052
vt 0.611157 0.549719
vt 0.669160 0.550298
vt 0.619713 0.537585
vt 0.660848 0.537996
vt 0.632926 0.530818
vt 0.647772 0.530966
vt 0.671789 0.549330
vt 0.662726 0.535918
vt 0.648469 0.528253
vt 0.632283 0.528092
vt 0.617876 0.535471
vt 0.608548 0.548699
vt 0.606437 0.564748
vt 0.612025 0.579940
vt 0.565871 0.567567
vt 0.563668 0.564361
vt 0.571272 0.561494
vt 0.563206 0.560498
vt 0.564593 0.556863
vt 0.567509 0.554290
vt 0.571288 0.553366
vt 0.575063 0.554305
vt 0.577970 0.556889
vt 0.579343 0.560530
vt 0.578866 0.564390
vt 0.576650 0.567588
vt 0.573201 0.569389
vt 0.569312 0.569381
vn -0.3843 0.9232 -0.0018
vn -0.8996 0.3862 -0.2037
vn -0.8996 0.4366 -0.0009
vn -0.3843 0.8183 0.4274
vn -0.8996 0.3870 0.2022
vn -0.3843 0.5259 0.7588
vn -0.8996 0.2487 0.3589
vn -0.3843 0.1131 0.9163
vn -0.8996 0.0535 0.4333
vn -0.3843 -0.3257 0.8639
vn -0.8996 -0.1540 0.4085
vn -0.3843 -0.6898 0.6136
vn -0.8996 -0.3262 0.2902
vn -0.3843 -0.8960 0.2227
vn -0.8996 -0.4237 0.1053
vn -0.3843 -0.8968 -0.2192
vn -0.8996 -0.4241 -0.1037
vn -0.3843 -0.6922 -0.6109
vn -0.7944 0.4538 -0.4037
vn -0.7944 0.2143 -0.5683
vn -0.7944 0.5894 -0.1465
vn -0.7944 0.5900 0.1442
vn -0.7944 0.4554 0.4019
vn -0.8996 -0.3274 -0.2889
vn -0.3843 -0.3291 -0.8626
vn -0.8996 -0.1556 -0.4080
vn -0.3843 0.1095 -0.9167
vn -0.8996 0.0518 -0.4336
vn -0.3843 0.5230 -0.7608
vn -0.8996 0.2473 -0.3598
vn -0.3843 0.8166 -0.4306
vn -0.7944 0.2165 0.5675
vn -0.7944 -0.0720 0.6031
vn -0.7944 -0.3440 0.5005
vn -0.7944 -0.5372 0.2833
vn -0.7944 -0.6074 0.0012
vn -0.7944 -0.5383 -0.2812
vn -0.7944 -0.3460 -0.4992
vn -0.7944 -0.0744 -0.6028
vn 0.4042 -0.3260 -0.8546
vn 0.4042 0.1085 -0.9082
vn 0.4042 0.5181 -0.7538
vn 0.4042 0.8091 -0.4267
vn 0.4041 0.9147 -0.0018
vn 0.4041 0.8107 0.4235
vn 0.4041 0.5211 0.7518
vn 0.4041 0.1120 0.9078
vn 0.4041 -0.3227 0.8559
vn 0.4041 -0.6835 0.6079
vn 0.4041 -0.8877 0.2206
vn 0.4041 -0.8885 -0.2172
vn 0.4041 -0.6858 -0.6052
vn -0.8244 0.5661 -0.0011
vn -0.6007 -0.7072 0.3729
vn -0.8244 0.5007 -0.2640
vn -0.6007 -0.4529 0.6588
vn -0.8244 0.3207 -0.4665
vn -0.6007 -0.0948 0.7938
vn -0.8244 0.0671 -0.5621
vn -0.6007 0.2850 0.7470
vn -0.8244 -0.2018 -0.5289
vn -0.6007 0.5994 0.5290
vn -0.8244 -0.4244 -0.3745
vn -0.6007 0.7766 0.1898
vn -0.8244 -0.5499 -0.1344
vn -0.6007 0.7759 -0.1928
vn -0.8244 -0.5493 0.1365
vn -0.6007 0.5974 -0.5313
vn -0.8244 -0.4230 0.3762
vn -0.6007 0.2820 -0.7481
vn -0.8244 -0.1997 0.5297
vn -0.6007 -0.0979 -0.7935
vn -0.8244 0.0693 0.5618
vn -0.6007 -0.4554 -0.6571
vn -0.8244 0.3225 0.4652
vn -0.6007 -0.7086 -0.3701
vn -0.8244 0.5017 0.2621
vn -0.6007 -0.7995 0.0016
vn -0.6570 -0.5633 0.5010
vn -0.6570 -0.2659 0.7054
vn -0.6570 -0.7316 0.1818
vn -0.6570 -0.7323 -0.1790
vn -0.6570 -0.5653 -0.4988
vn -0.6570 -0.2687 -0.7044
vn -0.6570 0.0894 -0.7486
vn -0.6570 0.4270 -0.6213
vn -0.6570 0.6669 -0.3517
vn -0.6570 0.7539 -0.0015
vn -0.6570 0.6682 0.3490
vn -0.6570 0.4295 0.6196
vn -0.6570 0.0923 0.7482
vn 0.9245 -0.2859 -0.2522
vn 0.9245 -0.3700 0.0920
vn 0.9245 -0.3703 -0.0905
vn 0.9245 -0.2849 0.2534
vn 0.9245 -0.1359 -0.3562
vn 0.9245 0.0452 -0.3785
vn 0.9245 -0.1345 0.3567
vn 0.9245 0.2159 -0.3142
vn 0.9245 0.0467 0.3784
vn 0.9245 0.3372 -0.1778
vn 0.9245 0.2172 0.3133
vn 0.9245 0.3812 -0.0007
vn 0.9245 0.3379 0.1765
vn -1.0000 0.0000 -0.0000
usemtl battlewagon_dif
s 1
f 1/1/1 2/2/2 3/3/3
f 3/3/3 4/4/4 1/1/1
f 4/4/4 3/3/3 5/5/5
f 5/5/5 6/6/6 4/4/4
f 6/6/6 5/5/5 7/7/7
f 7/7/7 8/8/8 6/6/6
f 8/8/8 7/7/7 9/9/9
f 9/9/9 10/10/10 8/8/8
f 10/10/10 9/9/9 11/11/11
f 11/11/11 12/12/12 10/10/10
f 12/12/12 11/11/11 13/13/13
f 13/13/13 14/14/14 12/12/12
f 14/14/14 13/13/13 15/15/15
f 15/15/15 16/16/16 14/14/14
f 16/16/16 15/15/15 17/17/17
f 17/17/17 18/18/18 16/16/16
f 19/19/19 11/11/11 20/20/20
f 11/11/11 19/19/19 13/13/13
f 21/21/21 13/13/13 19/19/19
f 13/13/13 21/21/21 15/15/15
f 22/22/22 15/15/15 21/21/21
f 15/15/15 22/22/22 17/17/17
f 23/23/23 17/17/17 22/22/22
f 17/17/17 23/23/23 24/24/24
f 18/18/18 17/17/17 24/24/24
f 24/24/24 25/25/25 18/18/18
f 25/25/25 24/24/24 26/26/26
f 26/26/26 27/27/27 25/25/25
f 27/27/27 26/26/26 28/28/28
f 28/28/28 29/29/29 27/27/27
f 29/29/29 28/28/28 30/30/30
f 30/30/30 31/31/31 29/29/29
f 31/31/31 30/30/30 2/2/2
f 2/2/2 1/1/1 31/31/31
f 32/32/32 24/24/24 23/23/23
f 24/24/24 32/32/32 26/26/26
f 33/33/33 26/26/26 32/32/32
f 26/26/26 33/33/33 28/28/28
f 34/34/34 28/28/28 33/33/33
f 28/28/28 34/34/34 30/30/30
f 35/35/35 30/30/30 34/34/34
f 30/30/30 35/35/35 2/2/2
f 36/36/36 2/2/2 35/35/35
f 2/2/2 36/36/36 3/3/3
f 37/37/37 3/3/3 36/36/36
f 3/3/3 37/37/37 5/5/5
f 38/38/38 5/5/5 37/37/37
f 5/5/5 38/38/38 7/7/7
f 39/39/39 7/7/7 38/38/38
f 7/7/7 39/39/39 9/9/9
f 20/20/20 9/9/9 39/39/39
f 9/9/9 20/20/20 11/11/11
f 27/40/27 40/41/40 25/42/25
f 40/41/40 27/40/27 41/43/41
f 29/44/29 41/43/41 27/40/27
f 41/43/41 29/44/29 42/45/42
f 31/46/31 42/45/42 29/44/29
f 42/45/42 31/46/31 43/47/43
f 1/48/1 43/47/43 31/46/31
f 43/47/43 1/48/1 44/49/44
f 4/50/4 44/51/44 1/52/1
f 44/51/44 4/50/4 45/53/45
f 6/54/6 45/53/45 4/50/4
f 45/53/45 6/54/6 46/55/46
f 8/56/8 46/55/46 6/54/6
f 46/55/46 8/56/8 47/57/47
f 10/58/10 47/57/47 8/56/8
f 47/57/47 10/58/10 48/59/48
f 12/60/12 48/59/48 10/58/10
f 48/59/48 12/60/12 49/61/49
f 14/62/14 49/61/49 12/60/12
f 49/61/49 14/62/14 50/63/50
f 16/64/16 50/63/50 14/62/14
f 50/63/50 16/64/16 51/65/51
f 18/66/18 51/65/51 16/64/16
f 51/65/51 18/66/18 52/67/52
f 25/42/25 52/67/52 18/66/18
f 52/67/52 25/42/25 40/41/40
f 53/68/53 54/69/54 55/70/55
f 56/71/56 55/70/55 54/69/54
f 55/70/55 56/71/56 57/72/57
f 58/73/58 57/72/57 56/71/56
f 57/72/57 58/73/58 59/74/59
f 60/75/60 59/74/59 58/73/58
f 59/74/59 60/75/60 61/76/61
f 62/77/62 61/76/61 60/75/60
f 61/76/61 62/77/62 63/78/63
f 64/79/64 63/78/63 62/77/62
f 63/78/63 64/79/64 65/80/65
f 66/81/66 65/80/65 64/79/64
f 65/80/65 66/81/66 67/82/67
f 68/83/68 67/82/67 66/81/66
f 67/82/67 68/83/68 69/84/69
f 70/85/70 69/84/69 68/83/68
f 69/84/69 70/85/70 71/86/71
f 72/87/72 71/86/71 70/85/70
f 71/86/71 72/87/72 73/88/73
f 74/89/74 73/88/73 72/87/72
f 73/88/73 74/89/74 75/90/75
f 76/91/76 75/90/75 74/89/74
f 75/90/75 76/91/76 77/92/77
f 78/93/78 77/92/77 76/91/76
f 77/92/77 78/93/78 53/68/53
f 54/69/54 53/68/53 78/93/78
f 78/94/78 35/35/35 54/95/54
f 34/34/34 54/95/54 35/35/35
f 54/95/54 34/34/34 56/96/56
f 33/33/33 56/96/56 34/34/34
f 56/96/56 33/33/33 58/97/58
f 32/32/32 58/97/58 33/33/33
f 58/97/58 32/32/32 60/98/60
f 23/23/23 60/98/60 32/32/32
f 60/98/60 23/23/23 62/99/62
f 22/22/22 62/99/62 23/23/23
f 62/99/62 22/22/22 64/100/64
f 21/21/21 64/100/64 22/22/22
f 64/100/64 21/21/21 66/101/66
f 19/19/19 66/101/66 21/21/21
f 66/101/66 19/19/19 68/102/68
f 20/20/20 68/102/68 19/19/19
f 68/102/68 20/20/20 70/103/70
f 39/39/39 70/103/70 20/20/20
f 70/103/70 39/39/39 72/104/72
f 38/38/38 72/104/72 39/39/39
f 72/104/72 38/38/38 74/105/74
f 37/37/37 74/105/74 38/38/38
f 74/105/74 37/37/37 76/106/76
f 36/36/36 76/106/76 37/37/37
f 76/106/76 36/36/36 78/94/78
f 35/35/35 78/94/78 36/36/36
f 79/107/79 71/108/71 80/109/80
f 71/108/71 79/107/79 69/110/69
f 81/111/81 69/110/69 79/107/79
f 69/110/69 81/111/81 67/112/67
f 82/113/82 67/112/67 81/111/81
f 67/112/67 82/113/82 65/114/65
f 83/115/83 65/114/65 82/113/82
f 65/114/65 83/115/83 63/116/63
f 84/117/84 63/118/63 83/119/83
f 63/118/63 84/117/84 61/120/61
f 85/121/85 61/120/61 84/117/84
f 61/120/61 85/121/85 59/122/59
f 86/123/86 59/122/59 85/121/85
f 59/122/59 86/123/86 57/124/57
f 87/125/87 57/124/57 86/123/86
f 57/124/57 87/125/87 55/126/55
f 88/127/88 55/126/55 87/125/87
f 55/126/55 88/127/88 53/128/53
f 89/129/89 53/128/53 88/127/88
f 53/128/53 89/129/89 77/130/77
f 90/131/90 77/130/77 89/129/89
f 77/130/77 90/131/90 75/132/75
f 91/133/91 75/132/75 90/131/90
f 75/132/75 91/133/91 73/134/73
f 80/109/80 73/134/73 91/133/91
f 73/134/73 80/109/80 71/108/71
f 92/135/92 93/136/93 94/137/94
f 92/135/92 95/138/95 93/136/93
f 95/138/95 92/135/92 96/139/96
f 97/140/97 95/138/95 96/139/96
f 92/135/92 51/141/51 52/142/52
f 51/141/51 92/135/92 94/137/94
f 94/137/94 50/143/50 51/141/51
f 50/143/50 94/137/94 93/136/93
f 93/136/93 49/144/49 50/143/50
f 49/144/49 93/136/93 95/138/95
f 95/138/95 48/145/48 49/144/49
f 48/145/48 95/138/95 98/146/98
f 95/138/95 97/140/97 98/146/98
f 99/147/99 98/146/98 97/140/97
f 98/146/98 99/147/99 100/148/100
f 101/149/101 100/148/100 99/147/99
f 100/148/100 101/149/101 102/150/102
f 103/151/103 102/150/102 101/149/101
f 102/150/102 103/151/103 104/152/104
f 98/146/98 47/153/47 48/145/48
f 47/153/47 98/146/98 100/148/100
f 100/148/100 46/154/46 47/153/47
f 46/154/46 100/148/100 102/150/102
f 102/150/102 45/155/45 46/154/46
f 45/155/45 102/150/102 104/152/104
f 104/152/104 44/156/44 45/155/45
f 44/156/44 104/152/104 103/151/103
f 103/151/103 43/157/43 44/156/44
f 43/157/43 103/151/103 101/149/101
f 101/149/101 42/158/42 43/157/43
f 42/158/42 101/149/101 99/147/99
f 99/147/99 41/159/41 42/158/42
f 41/159/41 99/147/99 97/140/97
f 97/140/97 40/160/40 41/159/41
f 40/160/40 97/140/97 96/139/96
f 96/139/96 52/142/52 40/160/40
f 52/142/52 96/139/96 92/135/92
f 79/161/79 80/162/80 105/163/105
f 80/162/80 91/164/91 105/163/105
f 91/164/91 90/165/90 105/163/105
f 90/165/90 89/166/89 105/163/105
f 89/166/89 88/167/88 105/163/105
f 88/167/88 87/168/87 105/163/105
f 87/168/87 86/169/86 105/163/105
f 86/169/86 85/170/85 105/163/105
f 85/170/85 84/171/84 105/163/105
f 84/171/84 83/172/83 105/163/105
f 83/172/83 82/173/82 105/163/105
f 82/173/82 81/174/81 105/163/105
f 81/174/81 79/161/79 105/163/105
