# Blender v2.83.4 OBJ File: 'squiggoth cutup.blend'
# www.blender.org
o unimportant_thing_squiggoth_F445501630EA79472F631306B86FF094DD50534D_squig_sm
v -0.215955 4.289059 0.027631
v 0.002485 4.291078 -0.109013
v -0.120716 4.195036 -0.583411
v 0.193086 4.312748 -0.019045
v -0.227828 4.165273 -0.177212
v -0.068890 4.000265 -0.577349
v 0.183122 4.018592 -0.381515
v -0.001269 4.133054 -0.617786
vt 0.802000 0.611700
vt 0.818000 0.648100
vt 0.768500 0.647900
vt 0.140033 0.170208
vt 0.069298 0.118626
vt 0.180101 0.105155
vt 0.022470 0.085413
vt 0.004100 0.015992
vt 0.336417 0.080049
vt 0.399504 0.160872
vt 0.521224 0.137131
vt 0.540948 0.054886
vt 0.323531 0.154462
vt 0.457346 0.178135
vn 0.3013 -0.8300 0.4694
vn -0.1699 -0.8239 0.5407
vn -0.0001 -0.8387 0.5446
vn -0.9854 0.0165 -0.1696
vn -0.9058 0.3556 -0.2303
vn -0.5480 0.7268 -0.4141
vn -0.2982 0.9308 -0.2116
vn 0.2070 0.9266 -0.3141
vn 0.7712 0.4772 -0.4213
vn 0.4849 0.8102 -0.3292
vn -0.4181 -0.7338 0.5355
s 1
f 1/1/1 6/2/2 2/3/3
f 6/4/4 5/5/5 3/6/6
f 3/6/6 5/5/5 1/7/7
f 4/8/8 3/6/6 1/7/7
f 4/9/8 7/10/9 8/11/10
f 8/11/10 3/12/6 4/9/8
f 2/13/3 6/14/2 7/10/11
l 6 8
l 2 4
