# Blender v2.79 (sub 0) OBJ File: ''
# www.blender.org
mtllib peana32x32mm.mtl
o Cylinder_Cylinder.000
v -0.000000 -0.000032 -0.634921
v -0.000000 0.099968 -0.634921
v 0.123860 0.099968 -0.622718
v 0.123860 -0.000032 -0.622718
v 0.242971 0.099968 -0.586591
v 0.242971 -0.000032 -0.586591
v 0.352749 0.099968 -0.527911
v 0.352749 -0.000032 -0.527925
v 0.448952 0.099968 -0.448952
v 0.448952 -0.000032 -0.448952
v 0.527924 0.099968 -0.352736
v 0.527924 -0.000032 -0.352749
v 0.586591 0.099968 -0.242971
v 0.586591 -0.000032 -0.242971
v 0.622717 0.099968 -0.123861
v 0.622717 -0.000032 -0.123861
v 0.634921 0.099968 -0.000000
v 0.634921 -0.000032 -0.000000
v 0.622717 0.099968 0.123873
v 0.622717 -0.000032 0.123860
v 0.586591 0.099968 0.242971
v 0.586591 -0.000032 0.242971
v 0.527924 0.099968 0.352749
v 0.527924 -0.000032 0.352749
v 0.448952 0.099968 0.448952
v 0.448952 -0.000032 0.448952
v 0.352749 0.099968 0.527924
v 0.352749 -0.000032 0.527924
v 0.242971 0.099968 0.586591
v 0.242971 -0.000032 0.586591
v 0.123860 0.099968 0.622717
v 0.123860 -0.000032 0.622717
v -0.000000 0.099968 0.634921
v -0.000000 -0.000032 0.634921
v -0.123873 0.099968 0.622717
v -0.123873 -0.000032 0.622717
v -0.242971 0.099968 0.586591
v -0.242971 -0.000032 0.586591
v -0.352749 0.099968 0.527924
v -0.352749 -0.000032 0.527912
v -0.448952 0.099968 0.448952
v -0.448952 -0.000032 0.448952
v -0.527925 0.099968 0.352749
v -0.527925 -0.000032 0.352749
v -0.586591 0.099968 0.242971
v -0.586591 -0.000032 0.242971
v -0.622718 0.099968 0.123873
v -0.622718 -0.000032 0.123860
v -0.634921 0.099968 -0.000000
v -0.634921 -0.000032 -0.000000
v -0.622718 0.099968 -0.123861
v -0.622718 -0.000032 -0.123873
v -0.586591 0.099968 -0.242971
v -0.586591 -0.000032 -0.242971
v -0.527912 0.099968 -0.352736
v -0.527912 -0.000032 -0.352749
v -0.448952 0.099968 -0.448952
v -0.448952 -0.000032 -0.448952
v -0.352736 0.099968 -0.527911
v -0.352736 -0.000032 -0.527925
v -0.242971 0.099968 -0.586591
v -0.242971 -0.000032 -0.586591
v -0.123861 0.099968 -0.622718
v -0.123861 -0.000032 -0.622718
v -0.000000 0.099968 -0.000000
v -0.000000 -0.000032 -0.000000
vn 0.0981 0.0000 -0.9952
vn 0.2902 0.0000 -0.9570
vn 0.4714 0.0001 -0.8819
vn 0.4713 0.0000 -0.8820
vn 0.6345 0.0001 -0.7730
vn 0.6345 0.0000 -0.7730
vn 0.6345 0.0001 -0.7729
vn 0.7729 0.0000 -0.6345
vn 0.7730 0.0000 -0.6345
vn 0.8819 0.0000 -0.4713
vn 0.8819 0.0000 -0.4714
vn 0.8820 0.0001 -0.4713
vn 0.9570 -0.0000 -0.2902
vn 0.9952 0.0000 -0.0981
vn 0.9952 -0.0000 0.0980
vn 0.9952 0.0000 0.0981
vn 0.9569 -0.0000 0.2903
vn 0.9570 -0.0000 0.2902
vn 0.8820 0.0000 0.4713
vn 0.7729 -0.0000 0.6345
vn 0.6345 -0.0000 0.7729
vn 0.4713 0.0000 0.8820
vn 0.2902 0.0000 0.9570
vn 0.0981 0.0000 0.9952
vn -0.0980 0.0000 0.9952
vn -0.2903 0.0000 0.9569
vn -0.4714 -0.0000 0.8819
vn -0.4714 -0.0001 0.8819
vn -0.6345 -0.0001 0.7730
vn -0.6345 -0.0000 0.7730
vn -0.6344 0.0000 0.7730
vn -0.7729 -0.0000 0.6345
vn -0.8820 -0.0000 0.4713
vn -0.9569 -0.0000 0.2903
vn -0.9570 -0.0000 0.2902
vn -0.9952 -0.0000 0.0980
vn -0.9952 0.0000 0.0981
vn -0.9952 0.0000 -0.0980
vn -0.9569 0.0000 -0.2903
vn -0.8819 0.0000 -0.4714
vn -0.8819 0.0001 -0.4714
vn -0.7730 0.0000 -0.6344
vn -0.6344 0.0000 -0.7730
vn -0.6344 0.0001 -0.7730
vn -0.4714 0.0001 -0.8819
vn -0.4714 0.0000 -0.8819
vn -0.0000 1.0000 0.0000
vn -0.2902 0.0000 -0.9570
vn -0.0981 0.0000 -0.9952
vn 0.0000 -1.0000 -0.0000
vn 0.6344 -0.0000 -0.7730
vn 0.7730 0.0001 -0.6344
vn -0.4713 0.0000 0.8820
vn -0.6345 -0.0001 0.7729
vn -0.9952 0.0000 -0.0981
vn -0.9570 0.0000 -0.2902
vn -0.7730 0.0001 -0.6344
vn -0.4715 0.0001 -0.8819
usemtl None.000
s 1
f 2//1 4//1 1//1
f 3//2 6//2 4//2
f 5//3 8//3 6//4
f 7//5 10//6 8//7
f 9//8 12//9 10//8
f 11//10 14//11 12//12
f 13//13 16//13 14//13
f 15//14 18//14 16//14
f 17//15 20//15 18//16
f 19//17 22//17 20//18
f 21//19 24//19 22//19
f 23//20 26//20 24//20
f 26//21 27//21 28//21
f 27//22 30//22 28//22
f 29//23 32//23 30//23
f 31//24 34//24 32//24
f 33//25 36//25 34//25
f 35//26 38//26 36//26
f 38//27 39//28 40//28
f 40//29 41//30 42//31
f 41//32 44//32 42//32
f 43//33 46//33 44//33
f 46//34 47//34 48//35
f 48//36 49//36 50//37
f 50//38 51//38 52//38
f 52//39 53//39 54//39
f 54//40 55//40 56//41
f 56//42 57//42 58//42
f 58//43 59//44 60//44
f 60//45 61//45 62//46
f 9//47 5//47 21//47
f 61//48 64//48 62//48
f 63//49 1//49 64//49
f 16//50 32//50 48//50
f 2//1 3//1 4//1
f 3//2 5//2 6//2
f 5//3 7//3 8//3
f 7//5 9//51 10//6
f 9//8 11//52 12//9
f 11//10 13//11 14//11
f 13//13 15//13 16//13
f 15//14 17//14 18//14
f 17//15 19//15 20//15
f 19//17 21//17 22//17
f 21//19 23//19 24//19
f 23//20 25//20 26//20
f 26//21 25//21 27//21
f 27//22 29//22 30//22
f 29//23 31//23 32//23
f 31//24 33//24 34//24
f 33//25 35//25 36//25
f 35//26 37//26 38//26
f 38//27 37//53 39//28
f 40//29 39//54 41//30
f 41//32 43//32 44//32
f 43//33 45//33 46//33
f 46//34 45//34 47//34
f 48//36 47//36 49//36
f 50//38 49//55 51//38
f 52//39 51//56 53//39
f 54//40 53//40 55//40
f 56//42 55//57 57//42
f 58//43 57//43 59//44
f 60//45 59//58 61//45
f 5//47 3//47 61//47
f 3//47 2//47 63//47
f 61//47 3//47 63//47
f 61//47 59//47 5//47
f 59//47 57//47 55//47
f 5//47 59//47 55//47
f 55//47 53//47 37//47
f 5//47 55//47 25//47
f 53//47 51//47 45//47
f 51//47 49//47 45//47
f 49//47 47//47 45//47
f 45//47 43//47 41//47
f 41//47 39//47 37//47
f 37//47 35//47 33//47
f 33//47 31//47 37//47
f 31//47 29//47 25//47
f 37//47 31//47 25//47
f 29//47 27//47 25//47
f 25//47 23//47 21//47
f 21//47 19//47 17//47
f 17//47 15//47 21//47
f 15//47 13//47 9//47
f 21//47 15//47 9//47
f 13//47 11//47 9//47
f 9//47 7//47 5//47
f 45//47 41//47 53//47
f 41//47 37//47 53//47
f 25//47 21//47 5//47
f 37//47 25//47 55//47
f 61//48 63//48 64//48
f 63//49 2//49 1//49
f 64//50 1//50 4//50
f 4//50 6//50 10//50
f 6//50 8//50 10//50
f 10//50 12//50 14//50
f 16//50 10//50 14//50
f 16//50 18//50 20//50
f 20//50 22//50 26//50
f 22//50 24//50 26//50
f 26//50 28//50 30//50
f 32//50 26//50 30//50
f 32//50 34//50 36//50
f 36//50 38//50 40//50
f 40//50 42//50 32//50
f 42//50 44//50 46//50
f 48//50 42//50 46//50
f 48//50 50//50 52//50
f 52//50 54//50 56//50
f 56//50 58//50 48//50
f 58//50 60//50 64//50
f 60//50 62//50 64//50
f 64//50 4//50 10//50
f 10//50 16//50 64//50
f 16//50 20//50 26//50
f 26//50 32//50 16//50
f 32//50 36//50 40//50
f 42//50 48//50 32//50
f 48//50 52//50 56//50
f 58//50 64//50 48//50
f 64//50 16//50 48//50
l 65 49
l 17 65
l 66 50
l 18 66
