v 0.038098 0.13 0.435463
v 0.074635 0.142679 0.423276
v 0.0 0.142679 0.429805
v 0.113137 0.13 0.422231
v 0.036355 0.15 0.415539
v 0.10796 0.15 0.402913
v 0.147002 0.142679 0.403885
v 0.184737 0.13 0.396171
v 0.176285 0.15 0.378045
v 0.214903 0.142679 0.372222
v 0.250725 0.13 0.358073
v 0.239254 0.15 0.34169
v 0.276274 0.142679 0.32925
v 0.309095 0.13 0.309095
v 0.294953 0.15 0.294953
v 0.32925 0.142679 0.276274
v 0.358073 0.13 0.250725
v 0.34169 0.15 0.239254
v 0.372222 0.142679 0.214903
v 0.396171 0.13 0.184737
v 0.378045 0.15 0.176285
v 0.403885 0.142679 0.147002
v 0.422231 0.13 0.113137
v 0.402913 0.15 0.10796
v 0.423276 0.142679 0.074635
v 0.435463 0.13 0.038098
v 0.415539 0.15 0.036355
v 0.429805 0.142679 0.0
v 0.435463 0.13 -0.038098
v 0.415539 0.15 -0.036355
v 0.423276 0.142679 -0.074635
v 0.422231 0.13 -0.113137
v 0.402913 0.15 -0.10796
v 0.403885 0.142679 -0.147002
v 0.396171 0.13 -0.184737
v 0.378045 0.15 -0.176285
v 0.372222 0.142679 -0.214903
v 0.358073 0.13 -0.250725
v 0.34169 0.15 -0.239254
v 0.32925 0.142679 -0.276274
v 0.309095 0.13 -0.309095
v 0.294953 0.15 -0.294953
v 0.276274 0.142679 -0.32925
v 0.250725 0.13 -0.358073
v 0.239254 0.15 -0.34169
v 0.214903 0.142679 -0.372222
v 0.184737 0.13 -0.396171
v 0.176285 0.15 -0.378045
v 0.147002 0.142679 -0.403885
v 0.113137 0.13 -0.422231
v 0.10796 0.15 -0.402913
v 0.074635 0.142679 -0.423276
v 0.038098 0.13 -0.435463
v 0.036355 0.15 -0.415539
v 0.0 0.142679 -0.429805
v -0.038098 0.13 -0.435463
v -0.036355 0.15 -0.415539
v -0.074635 0.142679 -0.423276
v -0.113137 0.13 -0.422231
v -0.10796 0.15 -0.402913
v -0.147002 0.142679 -0.403885
v -0.184737 0.13 -0.396171
v -0.176285 0.15 -0.378045
v -0.214903 0.142679 -0.372222
v -0.250725 0.13 -0.358073
v -0.239254 0.15 -0.34169
v -0.276274 0.142679 -0.32925
v -0.309095 0.13 -0.309095
v -0.294953 0.15 -0.294953
v -0.32925 0.142679 -0.276274
v -0.358073 0.13 -0.250725
v -0.34169 0.15 -0.239254
v -0.372222 0.142679 -0.214903
v -0.396171 0.13 -0.184737
v -0.378045 0.15 -0.176285
v -0.403885 0.142679 -0.147002
v -0.422231 0.13 -0.113137
v -0.402913 0.15 -0.10796
v -0.423276 0.142679 -0.074635
v -0.435463 0.13 -0.038098
v -0.415539 0.15 -0.036355
v -0.429805 0.142679 -0.0
v -0.435463 0.13 0.038098
v -0.415539 0.15 0.036355
v -0.423276 0.142679 0.074635
v -0.422231 0.13 0.113137
v -0.402913 0.15 0.10796
v -0.403885 0.142679 0.147002
v -0.396171 0.13 0.184737
v -0.378045 0.15 0.176285
v -0.372222 0.142679 0.214903
v -0.358073 0.13 0.250725
v -0.34169 0.15 0.239254
v -0.32925 0.142679 0.276274
v -0.309095 0.13 0.309095
v -0.294953 0.15 0.294953
v -0.276274 0.142679 0.32925
v -0.250725 0.13 0.358073
v -0.239254 0.15 0.34169
v -0.214903 0.142679 0.372222
v -0.184737 0.13 0.396171
v -0.176285 0.15 0.378045
v -0.147002 0.142679 0.403885
v -0.113137 0.13 0.422231
v -0.10796 0.15 0.402913
v -0.074635 0.142679 0.423276
v -0.038098 0.13 0.435463
v -0.036355 0.15 0.415539

vt 0.543578 0.001903
vt 0.583976 0.023746
vt 0.5 0.016399
vt 0.62941 0.017037
vt 0.540719 0.034575
vt 0.620921 0.048717
vt 0.665401 0.045563
vt 0.711309 0.046846
vt 0.697448 0.076571
vt 0.741801 0.081189
vt 0.786788 0.090424
vt 0.767976 0.11729
vt 0.810853 0.12954
vt 0.853553 0.146447
vt 0.830362 0.169638
vt 0.87046 0.189147
vt 0.909576 0.213212
vt 0.88271 0.232024
vt 0.918811 0.258199
vt 0.953154 0.288691
vt 0.923429 0.302552
vt 0.954437 0.334599
vt 0.982963 0.37059
vt 0.951283 0.379079
vt 0.976254 0.416024
vt 0.998097 0.456422
vt 0.965425 0.459281
vt 0.983601 0.5
vt 0.998097 0.543578
vt 0.965425 0.540719
vt 0.976254 0.583976
vt 0.982963 0.62941
vt 0.951283 0.620921
vt 0.954437 0.665401
vt 0.953154 0.711309
vt 0.923429 0.697448
vt 0.918811 0.741801
vt 0.909576 0.786788
vt 0.88271 0.767976
vt 0.87046 0.810853
vt 0.853553 0.853553
vt 0.830362 0.830362
vt 0.810853 0.87046
vt 0.786788 0.909576
vt 0.767976 0.88271
vt 0.741801 0.918811
vt 0.711309 0.953154
vt 0.697448 0.923429
vt 0.665401 0.954437
vt 0.62941 0.982963
vt 0.620921 0.951283
vt 0.583976 0.976254
vt 0.543578 0.998097
vt 0.540719 0.965425
vt 0.5 0.983601
vt 0.456422 0.998097
vt 0.459281 0.965425
vt 0.416024 0.976254
vt 0.37059 0.982963
vt 0.379079 0.951283
vt 0.334599 0.954437
vt 0.288691 0.953154
vt 0.302552 0.923429
vt 0.258199 0.918811
vt 0.213212 0.909576
vt 0.232024 0.88271
vt 0.189147 0.87046
vt 0.146447 0.853553
vt 0.169638 0.830362
vt 0.12954 0.810853
vt 0.090424 0.786788
vt 0.11729 0.767976
vt 0.081189 0.741801
vt 0.046846 0.711309
vt 0.076571 0.697448
vt 0.045563 0.665401
vt 0.017037 0.62941
vt 0.048717 0.620921
vt 0.023746 0.583976
vt 0.001903 0.543578
vt 0.034575 0.540719
vt 0.016399 0.5
vt 0.001903 0.456422
vt 0.034575 0.459281
vt 0.023746 0.416024
vt 0.017037 0.37059
vt 0.048717 0.379079
vt 0.045563 0.334599
vt 0.046846 0.288691
vt 0.076571 0.302552
vt 0.081189 0.258199
vt 0.090424 0.213212
vt 0.11729 0.232024
vt 0.12954 0.189147
vt 0.146447 0.146447
vt 0.169638 0.169638
vt 0.189147 0.12954
vt 0.213212 0.090424
vt 0.232024 0.11729
vt 0.258199 0.081189
vt 0.288691 0.046846
vt 0.302552 0.076571
vt 0.334599 0.045563
vt 0.37059 0.017037
vt 0.379079 0.048717
vt 0.416024 0.023746
vt 0.456422 0.001903
vt 0.459281 0.034575

vn 0.0 1.0 0.0
vn 0.122788 0.707107 0.696364
vn 0.0 0.707107 0.707107
vn 0.0 1.0 0.0
vn 0.0 1.0 0.0
vn 0.0 1.0 0.0
vn 0.241845 0.707107 0.664463
vn 0.0 1.0 0.0
vn 0.0 1.0 0.0
vn 0.353553 0.707107 0.612372
vn 0.0 1.0 0.0
vn 0.0 1.0 0.0
vn 0.454519 0.707107 0.541675
vn 0.0 1.0 0.0
vn 0.0 1.0 0.0
vn 0.541675 0.707107 0.454519
vn 0.0 1.0 0.0
vn 0.0 1.0 0.0
vn 0.612372 0.707107 0.353553
vn 0.0 1.0 0.0
vn 0.0 1.0 0.0
vn 0.664463 0.707107 0.241845
vn 0.0 1.0 0.0
vn 0.0 1.0 0.0
vn 0.696364 0.707107 0.122788
vn 0.0 1.0 0.0
vn 0.0 1.0 0.0
vn 0.707107 0.707107 0.0
vn 0.0 1.0 -0.0
vn 0.0 1.0 -0.0
vn 0.696364 0.707107 -0.122788
vn 0.0 1.0 -0.0
vn 0.0 1.0 -0.0
vn 0.664463 0.707107 -0.241845
vn 0.0 1.0 -0.0
vn 0.0 1.0 -0.0
vn 0.612372 0.707107 -0.353553
vn 0.0 1.0 -0.0
vn 0.0 1.0 -0.0
vn 0.541675 0.707107 -0.454519
vn 0.0 1.0 -0.0
vn 0.0 1.0 -0.0
vn 0.454519 0.707107 -0.541675
vn 0.0 1.0 -0.0
vn 0.0 1.0 -0.0
vn 0.353553 0.707107 -0.612372
vn 0.0 1.0 -0.0
vn 0.0 1.0 -0.0
vn 0.241845 0.707107 -0.664463
vn 0.0 1.0 -0.0
vn 0.0 1.0 -0.0
vn 0.122788 0.707107 -0.696364
vn 0.0 1.0 -0.0
vn 0.0 1.0 -0.0
vn 0.0 0.707107 -0.707107
vn -0.0 1.0 -0.0
vn -0.0 1.0 -0.0
vn -0.122788 0.707107 -0.696364
vn -0.0 1.0 -0.0
vn -0.0 1.0 -0.0
vn -0.241845 0.707107 -0.664463
vn -0.0 1.0 -0.0
vn -0.0 1.0 -0.0
vn -0.353553 0.707107 -0.612372
vn -0.0 1.0 -0.0
vn -0.0 1.0 -0.0
vn -0.454519 0.707107 -0.541675
vn -0.0 1.0 -0.0
vn -0.0 1.0 -0.0
vn -0.541675 0.707107 -0.454519
vn -0.0 1.0 -0.0
vn -0.0 1.0 -0.0
vn -0.612372 0.707107 -0.353553
vn -0.0 1.0 -0.0
vn -0.0 1.0 -0.0
vn -0.664463 0.707107 -0.241845
vn -0.0 1.0 -0.0
vn -0.0 1.0 -0.0
vn -0.696364 0.707107 -0.122788
vn -0.0 1.0 -0.0
vn -0.0 1.0 -0.0
vn -0.707107 0.707107 -0.0
vn -0.0 1.0 0.0
vn -0.0 1.0 0.0
vn -0.696364 0.707107 0.122788
vn -0.0 1.0 0.0
vn -0.0 1.0 0.0
vn -0.664463 0.707107 0.241845
vn -0.0 1.0 0.0
vn -0.0 1.0 0.0
vn -0.612372 0.707107 0.353553
vn -0.0 1.0 0.0
vn -0.0 1.0 0.0
vn -0.541675 0.707107 0.454519
vn -0.0 1.0 0.0
vn -0.0 1.0 0.0
vn -0.454519 0.707107 0.541675
vn -0.0 1.0 0.0
vn -0.0 1.0 0.0
vn -0.353553 0.707107 0.612372
vn -0.0 1.0 0.0
vn -0.0 1.0 0.0
vn -0.241845 0.707107 0.664463
vn -0.0 1.0 0.0
vn -0.0 1.0 0.0
vn -0.122788 0.707107 0.696364
vn -0.0 1.0 0.0
vn -0.0 1.0 0.0

f 1/1/1 2/2/2 3/3/3
f 1/1/1 4/4/4 2/2/2
f 5/5/5 3/3/3 2/2/2
f 5/5/5 2/2/2 6/6/6
f 4/4/4 7/7/7 2/2/2
f 4/4/4 8/8/8 7/7/7
f 6/6/6 2/2/2 7/7/7
f 6/6/6 7/7/7 9/9/9
f 6/6/6 9/9/9 5/5/5
f 8/8/8 10/10/10 7/7/7
f 8/8/8 11/11/11 10/10/10
f 9/9/9 7/7/7 10/10/10
f 9/9/9 10/10/10 12/12/12
f 9/9/9 12/12/12 5/5/5
f 11/11/11 13/13/13 10/10/10
f 11/11/11 14/14/14 13/13/13
f 12/12/12 10/10/10 13/13/13
f 12/12/12 13/13/13 15/15/15
f 12/12/12 15/15/15 5/5/5
f 14/14/14 16/16/16 13/13/13
f 14/14/14 17/17/17 16/16/16
f 15/15/15 13/13/13 16/16/16
f 15/15/15 16/16/16 18/18/18
f 15/15/15 18/18/18 5/5/5
f 17/17/17 19/19/19 16/16/16
f 17/17/17 20/20/20 19/19/19
f 18/18/18 16/16/16 19/19/19
f 18/18/18 19/19/19 21/21/21
f 18/18/18 21/21/21 5/5/5
f 20/20/20 22/22/22 19/19/19
f 20/20/20 23/23/23 22/22/22
f 21/21/21 19/19/19 22/22/22
f 21/21/21 22/22/22 24/24/24
f 21/21/21 24/24/24 5/5/5
f 23/23/23 25/25/25 22/22/22
f 23/23/23 26/26/26 25/25/25
f 24/24/24 22/22/22 25/25/25
f 24/24/24 25/25/25 27/27/27
f 24/24/24 27/27/27 5/5/5
f 26/26/26 28/28/28 25/25/25
f 26/26/26 29/29/29 28/28/28
f 27/27/27 25/25/25 28/28/28
f 27/27/27 28/28/28 30/30/30
f 27/27/27 30/30/30 5/5/5
f 29/29/29 31/31/31 28/28/28
f 29/29/29 32/32/32 31/31/31
f 30/30/30 28/28/28 31/31/31
f 30/30/30 31/31/31 33/33/33
f 30/30/30 33/33/33 5/5/5
f 32/32/32 34/34/34 31/31/31
f 32/32/32 35/35/35 34/34/34
f 33/33/33 31/31/31 34/34/34
f 33/33/33 34/34/34 36/36/36
f 33/33/33 36/36/36 5/5/5
f 35/35/35 37/37/37 34/34/34
f 35/35/35 38/38/38 37/37/37
f 36/36/36 34/34/34 37/37/37
f 36/36/36 37/37/37 39/39/39
f 36/36/36 39/39/39 5/5/5
f 38/38/38 40/40/40 37/37/37
f 38/38/38 41/41/41 40/40/40
f 39/39/39 37/37/37 40/40/40
f 39/39/39 40/40/40 42/42/42
f 39/39/39 42/42/42 5/5/5
f 41/41/41 43/43/43 40/40/40
f 41/41/41 44/44/44 43/43/43
f 42/42/42 40/40/40 43/43/43
f 42/42/42 43/43/43 45/45/45
f 42/42/42 45/45/45 5/5/5
f 44/44/44 46/46/46 43/43/43
f 44/44/44 47/47/47 46/46/46
f 45/45/45 43/43/43 46/46/46
f 45/45/45 46/46/46 48/48/48
f 45/45/45 48/48/48 5/5/5
f 47/47/47 49/49/49 46/46/46
f 47/47/47 50/50/50 49/49/49
f 48/48/48 46/46/46 49/49/49
f 48/48/48 49/49/49 51/51/51
f 48/48/48 51/51/51 5/5/5
f 50/50/50 52/52/52 49/49/49
f 50/50/50 53/53/53 52/52/52
f 51/51/51 49/49/49 52/52/52
f 51/51/51 52/52/52 54/54/54
f 51/51/51 54/54/54 5/5/5
f 53/53/53 55/55/55 52/52/52
f 53/53/53 56/56/56 55/55/55
f 54/54/54 52/52/52 55/55/55
f 54/54/54 55/55/55 57/57/57
f 54/54/54 57/57/57 5/5/5
f 56/56/56 58/58/58 55/55/55
f 56/56/56 59/59/59 58/58/58
f 57/57/57 55/55/55 58/58/58
f 57/57/57 58/58/58 60/60/60
f 57/57/57 60/60/60 5/5/5
f 59/59/59 61/61/61 58/58/58
f 59/59/59 62/62/62 61/61/61
f 60/60/60 58/58/58 61/61/61
f 60/60/60 61/61/61 63/63/63
f 60/60/60 63/63/63 5/5/5
f 62/62/62 64/64/64 61/61/61
f 62/62/62 65/65/65 64/64/64
f 63/63/63 61/61/61 64/64/64
f 63/63/63 64/64/64 66/66/66
f 63/63/63 66/66/66 5/5/5
f 65/65/65 67/67/67 64/64/64
f 65/65/65 68/68/68 67/67/67
f 66/66/66 64/64/64 67/67/67
f 66/66/66 67/67/67 69/69/69
f 66/66/66 69/69/69 5/5/5
f 68/68/68 70/70/70 67/67/67
f 68/68/68 71/71/71 70/70/70
f 69/69/69 67/67/67 70/70/70
f 69/69/69 70/70/70 72/72/72
f 69/69/69 72/72/72 5/5/5
f 71/71/71 73/73/73 70/70/70
f 71/71/71 74/74/74 73/73/73
f 72/72/72 70/70/70 73/73/73
f 72/72/72 73/73/73 75/75/75
f 72/72/72 75/75/75 5/5/5
f 74/74/74 76/76/76 73/73/73
f 74/74/74 77/77/77 76/76/76
f 75/75/75 73/73/73 76/76/76
f 75/75/75 76/76/76 78/78/78
f 75/75/75 78/78/78 5/5/5
f 77/77/77 79/79/79 76/76/76
f 77/77/77 80/80/80 79/79/79
f 78/78/78 76/76/76 79/79/79
f 78/78/78 79/79/79 81/81/81
f 78/78/78 81/81/81 5/5/5
f 80/80/80 82/82/82 79/79/79
f 80/80/80 83/83/83 82/82/82
f 81/81/81 79/79/79 82/82/82
f 81/81/81 82/82/82 84/84/84
f 81/81/81 84/84/84 5/5/5
f 83/83/83 85/85/85 82/82/82
f 83/83/83 86/86/86 85/85/85
f 84/84/84 82/82/82 85/85/85
f 84/84/84 85/85/85 87/87/87
f 84/84/84 87/87/87 5/5/5
f 86/86/86 88/88/88 85/85/85
f 86/86/86 89/89/89 88/88/88
f 87/87/87 85/85/85 88/88/88
f 87/87/87 88/88/88 90/90/90
f 87/87/87 90/90/90 5/5/5
f 89/89/89 91/91/91 88/88/88
f 89/89/89 92/92/92 91/91/91
f 90/90/90 88/88/88 91/91/91
f 90/90/90 91/91/91 93/93/93
f 90/90/90 93/93/93 5/5/5
f 92/92/92 94/94/94 91/91/91
f 92/92/92 95/95/95 94/94/94
f 93/93/93 91/91/91 94/94/94
f 93/93/93 94/94/94 96/96/96
f 93/93/93 96/96/96 5/5/5
f 95/95/95 97/97/97 94/94/94
f 95/95/95 98/98/98 97/97/97
f 96/96/96 94/94/94 97/97/97
f 96/96/96 97/97/97 99/99/99
f 96/96/96 99/99/99 5/5/5
f 98/98/98 100/100/100 97/97/97
f 98/98/98 101/101/101 100/100/100
f 99/99/99 97/97/97 100/100/100
f 99/99/99 100/100/100 102/102/102
f 99/99/99 102/102/102 5/5/5
f 101/101/101 103/103/103 100/100/100
f 101/101/101 104/104/104 103/103/103
f 102/102/102 100/100/100 103/103/103
f 102/102/102 103/103/103 105/105/105
f 102/102/102 105/105/105 5/5/5
f 104/104/104 106/106/106 103/103/103
f 104/104/104 107/107/107 106/106/106
f 105/105/105 103/103/103 106/106/106
f 105/105/105 106/106/106 108/108/108
f 105/105/105 108/108/108 5/5/5
f 107/107/107 3/3/3 106/106/106
f 107/107/107 1/1/1 3/3/3
f 108/108/108 106/106/106 3/3/3
f 108/108/108 3/3/3 5/5/5
