# Blender v2.82 (sub 7) OBJ File: 'Bases.blend'
# www.blender.org
mtllib 95x150mm.mtl
o 95x150_Cylinder.008
v 2.957493 0.000000 -0.000000
v 0.000000 0.138400 -1.830351
v 0.571233 0.138400 -1.795181
v 1.120513 0.138400 -1.691023
v 1.626733 0.138400 -1.521881
v 2.070439 0.138400 -1.294253
v 2.434578 0.138400 -1.016888
v 2.705158 0.138400 -0.700445
v 2.871781 0.138400 -0.357084
v 2.928043 0.138400 -0.000000
v 2.871781 0.138400 0.357083
v 2.705158 0.138400 0.700445
v 2.434578 0.138400 1.016888
v 2.070439 0.138400 1.294253
v 1.626733 0.138400 1.521881
v 1.120513 0.138400 1.691023
v 0.571232 0.138400 1.795181
v -0.000001 0.138400 1.830350
v -0.571234 0.138400 1.795181
v -1.120515 0.138400 1.691023
v -1.626735 0.138400 1.521881
v -2.070440 0.138400 1.294253
v -2.434580 0.138400 1.016887
v -2.705160 0.138400 0.700443
v -2.871781 0.138400 0.357082
v -2.928043 0.138400 -0.000002
v -2.871781 0.138400 -0.357086
v -2.705157 0.138400 -0.700447
v -2.434577 0.138400 -1.016890
v -2.070436 0.138400 -1.294255
v -1.626730 0.138400 -1.521882
v -1.120510 0.138400 -1.691025
v -0.571228 0.138400 -1.795182
v 0.000000 0.000000 -1.870169
v 0.576978 0.000000 -1.834234
v 1.131784 0.000000 -1.727810
v 1.643095 0.000000 -1.554988
v 2.091264 0.000000 -1.322409
v 2.459066 0.000000 -1.039010
v 2.732368 0.000000 -0.715682
v 2.900666 0.000000 -0.364852
v 2.900666 0.000000 0.364852
v 2.732368 0.000000 0.715682
v 2.459066 0.000000 1.039010
v 2.091264 0.000000 1.322409
v 1.643095 0.000000 1.554988
v 1.131783 0.000000 1.727811
v 0.576978 0.000000 1.834234
v -0.000001 0.000000 1.870169
v -0.576980 0.000000 1.834234
v -1.131785 0.000000 1.727810
v -1.643097 0.000000 1.554988
v -2.091265 0.000000 1.322408
v -2.459067 0.000000 1.039009
v -2.732369 0.000000 0.715681
v -2.900666 0.000000 0.364850
v -2.957493 0.000000 -0.000002
v -2.900666 0.000000 -0.364854
v -2.732366 0.000000 -0.715684
v -2.459064 0.000000 -1.039012
v -2.091261 0.000000 -1.322411
v -1.643092 0.000000 -1.554990
v -1.131780 0.000000 -1.727811
v -0.576974 0.000000 -1.834234
v 0.000000 0.150569 -1.815342
v 0.568723 0.150569 -1.780461
v 1.115590 0.150569 -1.677157
v 1.619586 0.150569 -1.509402
v 2.061342 0.150569 -1.283641
v 2.423882 0.150569 -1.008550
v 2.693273 0.150569 -0.694701
v 2.859164 0.150569 -0.354156
v 2.915179 0.150569 -0.000000
v 2.859164 0.150569 0.354155
v 2.693273 0.150569 0.694701
v 2.423882 0.150569 1.008550
v 2.061342 0.150569 1.283641
v 1.619586 0.150569 1.509402
v 1.115590 0.150569 1.677157
v 0.568722 0.150569 1.780461
v -0.000001 0.150569 1.815342
v -0.568724 0.150569 1.780461
v -1.115592 0.150569 1.677157
v -1.619587 0.150569 1.509401
v -2.061344 0.150569 1.283640
v -2.423883 0.150569 1.008549
v -2.693274 0.150569 0.694700
v -2.859165 0.150569 0.354154
v -2.915179 0.150569 -0.000002
v -2.859164 0.150569 -0.354158
v -2.693272 0.150569 -0.694703
v -2.423880 0.150569 -1.008552
v -2.061339 0.150569 -1.283642
v -1.619583 0.150569 -1.509403
v -1.115586 0.150569 -1.677159
v -0.568719 0.150569 -1.780462
v 0.000000 0.157308 -1.790683
v 0.564650 0.157308 -1.756276
v 1.107600 0.157308 -1.654376
v 1.607986 0.157308 -1.488899
v 2.046578 0.157308 -1.266204
v 2.406521 0.157308 -0.994851
v 2.673984 0.157308 -0.685265
v 2.838685 0.157308 -0.349345
v 2.895231 0.157308 -0.000000
v 2.838686 0.157308 0.349345
v 2.673984 0.157308 0.685265
v 2.406521 0.157308 0.994850
v 2.046578 0.157308 1.266204
v 1.607986 0.157308 1.488899
v 1.107599 0.157308 1.654376
v 0.564649 0.157308 1.756276
v -0.000001 0.157308 1.790683
v -0.564651 0.157308 1.756276
v -1.107601 0.157308 1.654375
v -1.607987 0.157308 1.488898
v -2.046579 0.157308 1.266204
v -2.406523 0.157308 0.994849
v -2.673984 0.157308 0.685264
v -2.838686 0.157308 0.349344
v -2.894298 0.157308 -0.000002
v -2.838685 0.157308 -0.349347
v -2.673982 0.157308 -0.685267
v -2.406519 0.157308 -0.994852
v -2.046575 0.157308 -1.266206
v -1.607983 0.157308 -1.488901
v -1.107596 0.157308 -1.654377
v -0.564645 0.157308 -1.756277
v 0.000000 0.000000 -0.000001
vt 0.193781 0.732796
vt 0.210850 0.708319
vt 0.222043 0.736307
vt 0.205984 0.763959
vt 0.234542 0.762431
vt 0.219640 0.793092
vt 0.248271 0.786449
vt 0.234667 0.819926
vt 0.263141 0.808130
vt 0.250969 0.844204
vt 0.279056 0.827263
vt 0.268435 0.865683
vt 0.295911 0.843657
vt 0.286942 0.884137
vt 0.313625 0.857111
vt 0.306330 0.899388
vt 0.332279 0.867296
vt 0.326393 0.911455
vt 0.331358 0.088545
vt 0.333044 0.123045
vt 0.318286 0.126202
vt 0.315594 0.092376
vt 0.303912 0.132134
vt 0.299793 0.098615
vt 0.289784 0.140655
vt 0.284160 0.107670
vt 0.275977 0.151727
vt 0.268849 0.119572
vt 0.262597 0.165317
vt 0.253995 0.134276
vt 0.249760 0.181367
vt 0.239726 0.151711
vt 0.237576 0.199792
vt 0.226167 0.171785
vt 0.226156 0.220489
vt 0.213438 0.194384
vt 0.215606 0.243330
vt 0.201658 0.219371
vt 0.206025 0.268171
vt 0.190937 0.246590
vt 0.197508 0.294849
vt 0.181380 0.275860
vt 0.190142 0.323183
vt 0.173085 0.306986
vt 0.184007 0.352974
vt 0.166141 0.339748
vt 0.179174 0.384010
vt 0.160628 0.373915
vt 0.175705 0.416063
vt 0.156616 0.409237
vt 0.173652 0.448896
vt 0.154164 0.445451
vt 0.173058 0.482258
vt 0.153320 0.482282
vt 0.173953 0.515891
vt 0.154118 0.519446
vt 0.176357 0.549530
vt 0.156583 0.556651
vt 0.180277 0.582905
vt 0.160724 0.593599
vt 0.185709 0.615744
vt 0.166537 0.629988
vt 0.192637 0.647773
vt 0.174007 0.665518
vt 0.191836 0.324750
vt 0.185779 0.354245
vt 0.201031 0.678720
vt 0.183103 0.699886
vt 0.735286 0.761912
vt 0.710285 0.751966
vt 0.748031 0.503100
vt 0.785778 0.254235
vt 0.809328 0.273744
vt 0.686735 0.732456
vt 0.848547 0.338117
vt 0.862709 0.380507
vt 0.665540 0.704132
vt 0.872464 0.427608
vt 0.647515 0.668083
vt 0.877437 0.477610
vt 0.633353 0.625693
vt 0.877437 0.528591
vt 0.623598 0.578593
vt 0.872464 0.578593
vt 0.618625 0.528591
vt 0.830523 0.302068
vt 0.862709 0.625694
vt 0.618626 0.477609
vt 0.848547 0.668083
vt 0.647515 0.338118
vt 0.665540 0.302068
vt 0.623599 0.427607
vt 0.830523 0.704132
vt 0.686735 0.273744
vt 0.633353 0.380507
vt 0.809328 0.732456
vt 0.710285 0.254235
vt 0.785778 0.751966
vt 0.735286 0.244289
vt 0.760777 0.761912
vt 0.760777 0.244289
vt 0.280087 0.823442
vt 0.264327 0.804540
vt 0.265548 0.800845
vt 0.281149 0.819511
vt 0.314305 0.852902
vt 0.332758 0.862888
vt 0.181012 0.384970
vt 0.333137 0.126511
vt 0.318552 0.129575
vt 0.177595 0.416700
vt 0.304335 0.135452
vt 0.175580 0.449198
vt 0.290357 0.143907
vt 0.175009 0.482216
vt 0.276697 0.154891
vt 0.212525 0.705866
vt 0.223616 0.733542
vt 0.175912 0.515500
vt 0.263463 0.168368
vt 0.178308 0.548787
vt 0.250766 0.184278
vt 0.235999 0.759371
vt 0.182204 0.581809
vt 0.238718 0.202538
vt 0.249599 0.783112
vt 0.187597 0.614297
vt 0.227427 0.223043
vt 0.194469 0.645981
vt 0.216997 0.245670
vt 0.202792 0.676593
vt 0.207527 0.270274
vt 0.199112 0.296694
vt 0.296777 0.839629
vt 0.693135 0.560717
vt 0.708867 0.539693
vt 0.763825 0.517830
vt 0.204606 0.674404
vt 0.214250 0.703342
vt 0.209073 0.272440
vt 0.200762 0.298594
vt 0.297668 0.835483
vt 0.193579 0.326364
vt 0.315007 0.848552
vt 0.187603 0.355556
vt 0.333166 0.858302
vt 0.182904 0.385961
vt 0.333166 0.130049
vt 0.318821 0.133039
vt 0.179540 0.417357
vt 0.304769 0.138867
vt 0.177565 0.449510
vt 0.290946 0.147255
vt 0.177017 0.482175
vt 0.277439 0.158149
vt 0.177928 0.515100
vt 0.264353 0.171510
vt 0.180316 0.548024
vt 0.251801 0.187276
vt 0.225236 0.730698
vt 0.184188 0.580683
vt 0.239892 0.205365
vt 0.237500 0.756223
vt 0.189540 0.612811
vt 0.228733 0.225674
vt 0.250966 0.779680
vt 0.196356 0.644140
vt 0.218427 0.248080
vt 0.782382 0.894653
vt 0.763825 0.902036
vt 0.679757 0.587474
vt 0.799862 0.880172
vt 0.669245 0.618938
vt 0.850416 0.691012
vt 0.850416 0.728853
vt 0.815594 0.859149
vt 0.662004 0.653898
vt 0.846725 0.653898
vt 0.828973 0.832391
vt 0.658313 0.691012
vt 0.839484 0.618938
vt 0.839484 0.800927
vt 0.658313 0.728853
vt 0.828973 0.587474
vt 0.846725 0.765967
vt 0.662004 0.765967
vt 0.815594 0.560717
vt 0.669245 0.800927
vt 0.799862 0.539693
vt 0.679756 0.832391
vt 0.782382 0.525212
vt 0.693135 0.859149
vt 0.708867 0.880172
vt 0.726347 0.894653
vt 0.726348 0.525212
vt 0.744904 0.517830
vt 0.744904 0.902036
vn 0.0000 -0.5873 -0.8094
vn 0.0000 0.5452 -0.8383
vn 0.1050 0.5429 -0.8332
vn 0.1012 -0.5878 -0.8026
vn 0.2143 0.5362 -0.8164
vn 0.2052 -0.5895 -0.7812
vn 0.3319 0.5258 -0.7831
vn 0.3147 -0.5918 -0.7421
vn 0.4603 0.5131 -0.7244
vn 0.4315 -0.5940 -0.6789
vn 0.5974 0.5002 -0.6268
vn 0.5543 -0.5953 -0.5817
vn 0.7316 0.4893 -0.4747
vn 0.6740 -0.5952 -0.4375
vn 0.8365 0.4823 -0.2600
vn 0.7681 -0.5941 -0.2389
vn 0.8773 0.4800 0.0000
vn 0.8049 -0.5934 0.0000
vn 0.8365 0.4823 0.2600
vn 0.7681 -0.5941 0.2389
vn 0.7316 0.4893 0.4747
vn 0.6740 -0.5952 0.4375
vn 0.5974 0.5002 0.6268
vn 0.5543 -0.5953 0.5817
vn 0.4603 0.5131 0.7244
vn 0.4315 -0.5940 0.6789
vn 0.3319 0.5258 0.7831
vn 0.3147 -0.5918 0.7421
vn 0.2143 0.5362 0.8164
vn 0.2052 -0.5895 0.7812
vn 0.1050 0.5429 0.8332
vn 0.1012 -0.5878 0.8026
vn 0.0000 0.5452 0.8383
vn 0.0000 -0.5873 0.8094
vn -0.1050 0.5429 0.8332
vn -0.1012 -0.5878 0.8026
vn -0.2143 0.5362 0.8164
vn -0.2052 -0.5895 0.7812
vn -0.3319 0.5258 0.7831
vn -0.3147 -0.5918 0.7421
vn -0.4603 0.5131 0.7244
vn -0.4315 -0.5940 0.6789
vn -0.5974 0.5002 0.6268
vn -0.5543 -0.5953 0.5817
vn -0.7316 0.4893 0.4747
vn -0.6740 -0.5952 0.4375
vn -0.8365 0.4823 0.2600
vn -0.7681 -0.5941 0.2389
vn -0.8773 0.4800 0.0000
vn -0.8049 -0.5934 0.0000
vn -0.8365 0.4823 -0.2600
vn -0.7681 -0.5941 -0.2389
vn -0.7316 0.4893 -0.4747
vn -0.6740 -0.5952 -0.4375
vn -0.5974 0.5002 -0.6268
vn -0.5543 -0.5953 -0.5817
vn -0.4603 0.5131 -0.7244
vn -0.4315 -0.5940 -0.6789
vn -0.3319 0.5258 -0.7831
vn -0.3147 -0.5918 -0.7421
vn -0.2143 0.5362 -0.8164
vn -0.2052 -0.5895 -0.7812
vn -0.2623 0.8695 0.4185
vn -0.3462 0.8627 0.3686
vn -0.1050 0.5429 -0.8332
vn -0.1012 -0.5878 -0.8026
vn 0.0000 -1.0000 0.0000
vn 0.3462 0.8627 -0.3686
vn 0.2623 0.8695 -0.4185
vn 0.0800 0.9883 -0.1295
vn 0.1075 0.9874 -0.1163
vn 0.4981 0.8527 -0.1573
vn 0.5253 0.8509 0.0000
vn -0.4302 0.8570 0.2835
vn 0.4981 0.8527 0.1573
vn -0.4968 0.8535 0.1570
vn 0.4302 0.8570 0.2835
vn -0.5228 0.8524 0.0000
vn 0.3462 0.8627 0.3686
vn -0.4968 0.8535 -0.1570
vn 0.2623 0.8695 0.4185
vn 0.0000 0.8857 -0.4643
vn 0.0576 0.8845 -0.4628
vn -0.4302 0.8570 -0.2835
vn 0.1861 0.8760 0.4449
vn -0.3462 0.8627 -0.3686
vn 0.1186 0.8812 0.4575
vn 0.1186 0.8812 -0.4575
vn -0.2623 0.8695 -0.4185
vn 0.0576 0.8845 0.4628
vn 0.1861 0.8760 -0.4449
vn -0.1861 0.8760 -0.4449
vn 0.0000 0.8857 0.4643
vn -0.1186 0.8812 -0.4575
vn -0.0576 0.8845 0.4628
vn -0.0576 0.8845 -0.4628
vn -0.1186 0.8813 0.4575
vn -0.1861 0.8760 0.4449
vn 0.4302 0.8570 -0.2835
vn 0.0800 0.9883 0.1295
vn 0.1075 0.9874 0.1163
vn 0.1730 0.9849 0.0000
vn -0.0170 0.9902 -0.1385
vn 0.0000 0.9903 -0.1386
vn -0.0353 0.9898 0.1378
vn -0.0559 0.9892 0.1355
vn 0.1362 0.9864 -0.0913
vn -0.0800 0.9883 0.1295
vn 0.1614 0.9855 -0.0518
vn -0.1075 0.9874 0.1163
vn -0.1362 0.9864 0.0913
vn 0.1614 0.9855 0.0518
vn -0.1598 0.9858 0.0515
vn 0.1362 0.9864 0.0913
vn -0.1693 0.9856 0.0000
vn -0.1598 0.9858 -0.0515
vn -0.1362 0.9864 -0.0913
vn 0.0559 0.9892 0.1355
vn -0.1075 0.9874 -0.1163
vn 0.0353 0.9898 0.1378
vn 0.0170 0.9902 -0.1385
vn -0.0800 0.9883 -0.1295
vn 0.0170 0.9902 0.1385
vn 0.0353 0.9898 -0.1378
vn -0.0559 0.9892 -0.1355
vn 0.0000 0.9903 0.1386
vn 0.0559 0.9892 -0.1355
vn -0.0353 0.9898 -0.1378
vn -0.0170 0.9902 0.1385
usemtl None
s 1
f 34/1/1 2/2/2 3/3/3 35/4/4
f 35/4/4 3/3/3 4/5/5 36/6/6
f 36/6/6 4/5/5 5/7/7 37/8/8
f 37/8/8 5/7/7 6/9/9 38/10/10
f 38/10/10 6/9/9 7/11/11 39/12/12
f 39/12/12 7/11/11 8/13/13 40/14/14
f 40/14/14 8/13/13 9/15/15 41/16/16
f 41/16/16 9/15/15 10/17/17 1/18/18
f 1/19/18 10/20/17 11/21/19 42/22/20
f 42/22/20 11/21/19 12/23/21 43/24/22
f 43/24/22 12/23/21 13/25/23 44/26/24
f 44/26/24 13/25/23 14/27/25 45/28/26
f 45/28/26 14/27/25 15/29/27 46/30/28
f 46/30/28 15/29/27 16/31/29 47/32/30
f 47/32/30 16/31/29 17/33/31 48/34/32
f 48/34/32 17/33/31 18/35/33 49/36/34
f 49/36/34 18/35/33 19/37/35 50/38/36
f 50/38/36 19/37/35 20/39/37 51/40/38
f 51/40/38 20/39/37 21/41/39 52/42/40
f 52/42/40 21/41/39 22/43/41 53/44/42
f 53/44/42 22/43/41 23/45/43 54/46/44
f 54/46/44 23/45/43 24/47/45 55/48/46
f 55/48/46 24/47/45 25/49/47 56/50/48
f 56/50/48 25/49/47 26/51/49 57/52/50
f 57/52/50 26/51/49 27/53/51 58/54/52
f 58/54/52 27/53/51 28/55/53 59/56/54
f 59/56/54 28/55/53 29/57/55 60/58/56
f 60/58/56 29/57/55 30/59/57 61/60/58
f 61/60/58 30/59/57 31/61/59 62/62/60
f 62/62/60 31/61/59 32/63/61 63/64/62
f 23/45/43 22/43/41 85/65/63 86/66/64
f 63/64/62 32/63/61 33/67/65 64/68/66
f 64/68/66 33/67/65 2/2/2 34/1/1
f 54/69/44 55/70/46 129/71/67
f 40/72/14 41/73/16 129/71/67
f 55/70/46 56/74/48 129/71/67
f 42/75/20 43/76/22 129/71/67
f 56/74/48 57/77/50 129/71/67
f 43/76/22 44/78/24 129/71/67
f 57/77/50 58/79/52 129/71/67
f 44/78/24 45/80/26 129/71/67
f 58/79/52 59/81/54 129/71/67
f 45/80/26 46/82/28 129/71/67
f 59/81/54 60/83/56 129/71/67
f 46/82/28 47/84/30 129/71/67
f 60/83/56 61/85/58 129/71/67
f 1/86/18 42/75/20 129/71/67
f 47/84/30 48/87/32 129/71/67
f 61/85/58 62/88/60 129/71/67
f 48/87/32 49/89/34 129/71/67
f 34/90/1 35/91/4 129/71/67
f 62/88/60 63/92/62 129/71/67
f 49/89/34 50/93/36 129/71/67
f 35/91/4 36/94/6 129/71/67
f 63/92/62 64/95/66 129/71/67
f 41/73/16 1/86/18 129/71/67
f 50/93/36 51/96/38 129/71/67
f 36/94/6 37/97/8 129/71/67
f 64/95/66 34/90/1 129/71/67
f 51/96/38 52/98/40 129/71/67
f 37/97/8 38/99/10 129/71/67
f 52/98/40 53/100/42 129/71/67
f 38/99/10 39/101/12 129/71/67
f 70/102/68 69/103/69 101/104/70 102/105/71
f 10/17/17 9/15/15 72/106/72 73/107/73
f 24/47/45 23/45/43 86/66/64 87/108/74
f 11/21/19 10/20/17 73/109/73 74/110/75
f 25/49/47 24/47/45 87/108/74 88/111/76
f 12/23/21 11/21/19 74/110/75 75/112/77
f 26/51/49 25/49/47 88/111/76 89/113/78
f 13/25/23 12/23/21 75/112/77 76/114/79
f 27/53/51 26/51/49 89/113/78 90/115/80
f 14/27/25 13/25/23 76/114/79 77/116/81
f 3/3/3 2/2/2 65/117/82 66/118/83
f 28/55/53 27/53/51 90/115/80 91/119/84
f 15/29/27 14/27/25 77/116/81 78/120/85
f 29/57/55 28/55/53 91/119/84 92/121/86
f 16/31/29 15/29/27 78/120/85 79/122/87
f 4/5/5 3/3/3 66/118/83 67/123/88
f 30/59/57 29/57/55 92/121/86 93/124/89
f 17/33/31 16/31/29 79/122/87 80/125/90
f 5/7/7 4/5/5 67/123/88 68/126/91
f 31/61/59 30/59/57 93/124/89 94/127/92
f 18/35/33 17/33/31 80/125/90 81/128/93
f 32/63/61 31/61/59 94/127/92 95/129/94
f 19/37/35 18/35/33 81/128/93 82/130/95
f 6/9/9 5/7/7 68/126/91 69/103/69
f 33/67/65 32/63/61 95/129/94 96/131/96
f 20/39/37 19/37/35 82/130/95 83/132/97
f 7/11/11 6/9/9 69/103/69 70/102/68
f 2/2/2 33/67/65 96/131/96 65/117/82
f 21/41/39 20/39/37 83/132/97 84/133/98
f 8/13/13 7/11/11 70/102/68 71/134/99
f 22/43/41 21/41/39 84/133/98 85/65/63
f 9/15/15 8/13/13 71/134/99 72/106/72
f 109/135/100 108/136/101 105/137/102
f 65/117/82 96/131/96 128/138/103 97/139/104
f 84/133/98 83/132/97 115/140/105 116/141/106
f 71/134/99 70/102/68 102/105/71 103/142/107
f 85/65/63 84/133/98 116/141/106 117/143/108
f 72/106/72 71/134/99 103/142/107 104/144/109
f 86/66/64 85/65/63 117/143/108 118/145/110
f 73/107/73 72/106/72 104/144/109 105/146/102
f 87/108/74 86/66/64 118/145/110 119/147/111
f 74/110/75 73/109/73 105/148/102 106/149/112
f 88/111/76 87/108/74 119/147/111 120/150/113
f 75/112/77 74/110/75 106/149/112 107/151/114
f 89/113/78 88/111/76 120/150/113 121/152/115
f 76/114/79 75/112/77 107/151/114 108/153/101
f 90/115/80 89/113/78 121/152/115 122/154/116
f 77/116/81 76/114/79 108/153/101 109/155/100
f 91/119/84 90/115/80 122/154/116 123/156/117
f 78/120/85 77/116/81 109/155/100 110/157/118
f 92/121/86 91/119/84 123/156/117 124/158/119
f 79/122/87 78/120/85 110/157/118 111/159/120
f 66/118/83 65/117/82 97/139/104 98/160/121
f 93/124/89 92/121/86 124/158/119 125/161/122
f 80/125/90 79/122/87 111/159/120 112/162/123
f 67/123/88 66/118/83 98/160/121 99/163/124
f 94/127/92 93/124/89 125/161/122 126/164/125
f 81/128/93 80/125/90 112/162/123 113/165/126
f 68/126/91 67/123/88 99/163/124 100/166/127
f 95/129/94 94/127/92 126/164/125 127/167/128
f 82/130/95 81/128/93 113/165/126 114/168/129
f 69/103/69 68/126/91 100/166/127 101/104/70
f 96/131/96 95/129/94 127/167/128 128/138/103
f 83/132/97 82/130/95 114/168/129 115/140/105
f 123/169/117 122/170/116 105/137/102
f 110/171/118 109/135/100 105/137/102
f 124/172/119 123/169/117 105/137/102
f 111/173/120 110/171/118 105/137/102
f 98/174/121 97/175/104 105/137/102
f 125/176/122 124/172/119 105/137/102
f 112/177/123 111/173/120 105/137/102
f 99/178/124 98/174/121 105/137/102
f 126/179/125 125/176/122 105/137/102
f 113/180/126 112/177/123 105/137/102
f 100/181/127 99/178/124 105/137/102
f 127/182/128 126/179/125 105/137/102
f 114/183/129 113/180/126 105/137/102
f 101/184/70 100/181/127 105/137/102
f 128/185/103 127/182/128 105/137/102
f 115/186/105 114/183/129 105/137/102
f 102/187/71 101/184/70 105/137/102
f 97/175/104 128/185/103 105/137/102
f 116/188/106 115/186/105 105/137/102
f 103/189/107 102/187/71 105/137/102
f 117/190/108 116/188/106 105/137/102
f 104/191/109 103/189/107 105/137/102
f 118/192/110 117/190/108 105/137/102
f 119/193/111 118/192/110 105/137/102
f 120/194/113 119/193/111 105/137/102
f 107/195/114 106/196/112 105/137/102
f 121/197/115 120/194/113 105/137/102
f 108/136/101 107/195/114 105/137/102
f 122/170/116 121/197/115 105/137/102
f 39/101/12 40/72/14 129/71/67
f 53/100/42 54/69/44 129/71/67
