# Blender v2.93.1 OBJ File: ''
# www.blender.org
o box_halfxtenthxhalf_v1
v -0.050000 -0.000000 0.050000
v -0.050000 0.100000 0.050000
v -0.050000 0.100000 -0.050000
v -0.050000 0.000000 -0.050000
v 0.050000 -0.000000 0.050000
v 0.050000 0.000000 -0.050000
v 0.050000 0.100000 -0.050000
v 0.050000 0.100000 0.050000
vn -1.0000 0.0000 0.0000
vn 1.0000 0.0000 0.0000
vn 0.0000 -1.0000 -0.0000
vn 0.0000 1.0000 0.0000
vn 0.0000 0.0000 -1.0000
vn 0.0000 -0.0000 1.0000
s off
f 2//1 4//1 1//1
f 6//2 8//2 5//2
f 1//3 6//3 5//3
f 7//4 2//4 8//4
f 3//5 6//5 4//5
f 8//6 1//6 5//6
f 2//1 3//1 4//1
f 6//2 7//2 8//2
f 1//3 4//3 6//3
f 7//4 3//4 2//4
f 3//5 7//5 6//5
f 8//6 2//6 1//6
