v 0.037602 0.13 0.57369
v 0.074087 0.142679 0.562745
v 0.0 0.142679 0.567601
v 0.112162 0.13 0.563874
v 0.036294 0.15 0.553733
v 0.10826 0.15 0.544259
v 0.146906 0.142679 0.54826
v 0.184802 0.13 0.54441
v 0.178374 0.15 0.525472
v 0.217211 0.142679 0.524395
v 0.254281 0.13 0.515631
v 0.245435 0.15 0.497694
v 0.2838 0.142679 0.491557
v 0.319409 0.13 0.47803
v 0.308298 0.15 0.4614
v 0.345533 0.142679 0.450308
v 0.379072 0.13 0.432249
v 0.365885 0.15 0.417212
v 0.401354 0.142679 0.401354
v 0.432249 0.13 0.379072
v 0.417212 0.15 0.365885
v 0.450308 0.142679 0.345533
v 0.47803 0.13 0.319409
v 0.4614 0.15 0.308298
v 0.491557 0.142679 0.2838
v 0.515631 0.13 0.254281
v 0.497694 0.15 0.245435
v 0.524395 0.142679 0.217211
v 0.54441 0.13 0.184802
v 0.525472 0.15 0.178374
v 0.54826 0.142679 0.146906
v 0.563874 0.13 0.112162
v 0.544259 0.15 0.10826
v 0.562745 0.142679 0.074087
v 0.57369 0.13 0.037602
v 0.553733 0.15 0.036294
v 0.567601 0.142679 0.0
v 0.57369 0.13 -0.037602
v 0.553733 0.15 -0.036294
v 0.562745 0.142679 -0.074087
v 0.563874 0.13 -0.112162
v 0.544259 0.15 -0.10826
v 0.54826 0.142679 -0.146906
v 0.54441 0.13 -0.184802
v 0.525472 0.15 -0.178374
v 0.524395 0.142679 -0.217211
v 0.515631 0.13 -0.254281
v 0.497694 0.15 -0.245435
v 0.491557 0.142679 -0.2838
v 0.47803 0.13 -0.319409
v 0.4614 0.15 -0.308298
v 0.450308 0.142679 -0.345533
v 0.432249 0.13 -0.379072
v 0.417212 0.15 -0.365885
v 0.401354 0.142679 -0.401354
v 0.379072 0.13 -0.432249
v 0.365885 0.15 -0.417212
v 0.345533 0.142679 -0.450308
v 0.319409 0.13 -0.47803
v 0.308298 0.15 -0.4614
v 0.2838 0.142679 -0.491557
v 0.254281 0.13 -0.515631
v 0.245435 0.15 -0.497694
v 0.217211 0.142679 -0.524395
v 0.184802 0.13 -0.54441
v 0.178374 0.15 -0.525472
v 0.146906 0.142679 -0.54826
v 0.112162 0.13 -0.563874
v 0.10826 0.15 -0.544259
v 0.074087 0.142679 -0.562745
v 0.037602 0.13 -0.57369
v 0.036294 0.15 -0.553733
v 0.0 0.142679 -0.567601
v -0.037602 0.13 -0.57369
v -0.036294 0.15 -0.553733
v -0.074087 0.142679 -0.562745
v -0.112162 0.13 -0.563874
v -0.10826 0.15 -0.544259
v -0.146906 0.142679 -0.54826
v -0.184802 0.13 -0.54441
v -0.178374 0.15 -0.525472
v -0.217211 0.142679 -0.524395
v -0.254281 0.13 -0.515631
v -0.245435 0.15 -0.497694
v -0.2838 0.142679 -0.491557
v -0.319409 0.13 -0.47803
v -0.308298 0.15 -0.4614
v -0.345533 0.142679 -0.450308
v -0.379072 0.13 -0.432249
v -0.365885 0.15 -0.417212
v -0.401354 0.142679 -0.401354
v -0.432249 0.13 -0.379072
v -0.417212 0.15 -0.365885
v -0.450308 0.142679 -0.345533
v -0.47803 0.13 -0.319409
v -0.4614 0.15 -0.308298
v -0.491557 0.142679 -0.2838
v -0.515631 0.13 -0.254281
v -0.497694 0.15 -0.245435
v -0.524395 0.142679 -0.217211
v -0.54441 0.13 -0.184802
v -0.525472 0.15 -0.178374
v -0.54826 0.142679 -0.146906
v -0.563874 0.13 -0.112162
v -0.544259 0.15 -0.10826
v -0.562745 0.142679 -0.074087
v -0.57369 0.13 -0.037602
v -0.553733 0.15 -0.036294
v -0.567601 0.142679 -0.0
v -0.57369 0.13 0.037602
v -0.553733 0.15 0.036294
v -0.562745 0.142679 0.074087
v -0.563874 0.13 0.112162
v -0.544259 0.15 0.10826
v -0.54826 0.142679 0.146906
v -0.54441 0.13 0.184802
v -0.525472 0.15 0.178374
v -0.524395 0.142679 0.217211
v -0.515631 0.13 0.254281
v -0.497694 0.15 0.245435
v -0.491557 0.142679 0.2838
v -0.47803 0.13 0.319409
v -0.4614 0.15 0.308298
v -0.450308 0.142679 0.345533
v -0.432249 0.13 0.379072
v -0.417212 0.15 0.365885
v -0.401354 0.142679 0.401354
v -0.379072 0.13 0.432249
v -0.365885 0.15 0.417212
v -0.345533 0.142679 0.450308
v -0.319409 0.13 0.47803
v -0.308298 0.15 0.4614
v -0.2838 0.142679 0.491557
v -0.254281 0.13 0.515631
v -0.245435 0.15 0.497694
v -0.217211 0.142679 0.524395
v -0.184802 0.13 0.54441
v -0.178374 0.15 0.525472
v -0.146906 0.142679 0.54826
v -0.112162 0.13 0.563874
v -0.10826 0.15 0.544259
v -0.074087 0.142679 0.562745
v -0.037602 0.13 0.57369
v -0.036294 0.15 0.553733

vt 0.532702 0.001071
vt 0.563628 0.016701
vt 0.5 0.012531
vt 0.597545 0.009607
vt 0.531062 0.026078
vt 0.592656 0.034187
vt 0.626166 0.029141
vt 0.66072 0.026535
vt 0.652664 0.050266
vt 0.686546 0.049637
vt 0.721144 0.051564
vt 0.71006 0.074041
vt 0.743735 0.077839
vt 0.777785 0.084265
vt 0.763862 0.105103
vt 0.796752 0.113265
vt 0.829673 0.12408
vt 0.813149 0.142922
vt 0.844693 0.155307
vt 0.87592 0.170327
vt 0.857078 0.186851
vt 0.886735 0.203248
vt 0.915735 0.222215
vt 0.894897 0.236138
vt 0.922161 0.256265
vt 0.948436 0.278856
vt 0.925959 0.28994
vt 0.950363 0.313454
vt 0.973465 0.33928
vt 0.949734 0.347336
vt 0.970859 0.373834
vt 0.990393 0.402455
vt 0.965813 0.407344
vt 0.983299 0.436372
vt 0.998929 0.467298
vt 0.973922 0.468938
vt 0.987469 0.5
vt 0.998929 0.532702
vt 0.973922 0.531062
vt 0.983299 0.563628
vt 0.990393 0.597545
vt 0.965813 0.592656
vt 0.970859 0.626166
vt 0.973465 0.66072
vt 0.949734 0.652664
vt 0.950363 0.686546
vt 0.948436 0.721144
vt 0.925959 0.71006
vt 0.922161 0.743735
vt 0.915735 0.777785
vt 0.894897 0.763862
vt 0.886735 0.796752
vt 0.87592 0.829673
vt 0.857078 0.813149
vt 0.844693 0.844693
vt 0.829673 0.87592
vt 0.813149 0.857078
vt 0.796752 0.886735
vt 0.777785 0.915735
vt 0.763862 0.894897
vt 0.743735 0.922161
vt 0.721144 0.948436
vt 0.71006 0.925959
vt 0.686546 0.950363
vt 0.66072 0.973465
vt 0.652664 0.949734
vt 0.626166 0.970859
vt 0.597545 0.990393
vt 0.592656 0.965813
vt 0.563628 0.983299
vt 0.532702 0.998929
vt 0.531062 0.973922
vt 0.5 0.987469
vt 0.467298 0.998929
vt 0.468938 0.973922
vt 0.436372 0.983299
vt 0.402455 0.990393
vt 0.407344 0.965813
vt 0.373834 0.970859
vt 0.33928 0.973465
vt 0.347336 0.949734
vt 0.313454 0.950363
vt 0.278856 0.948436
vt 0.28994 0.925959
vt 0.256265 0.922161
vt 0.222215 0.915735
vt 0.236138 0.894897
vt 0.203248 0.886735
vt 0.170327 0.87592
vt 0.186851 0.857078
vt 0.155307 0.844693
vt 0.12408 0.829673
vt 0.142922 0.813149
vt 0.113265 0.796752
vt 0.084265 0.777785
vt 0.105103 0.763862
vt 0.077839 0.743735
vt 0.051564 0.721144
vt 0.074041 0.71006
vt 0.049637 0.686546
vt 0.026535 0.66072
vt 0.050266 0.652664
vt 0.029141 0.626166
vt 0.009607 0.597545
vt 0.034187 0.592656
vt 0.016701 0.563628
vt 0.001071 0.532702
vt 0.026078 0.531062
vt 0.012531 0.5
vt 0.001071 0.467298
vt 0.026078 0.468938
vt 0.016701 0.436372
vt 0.009607 0.402455
vt 0.034187 0.407344
vt 0.029141 0.373834
vt 0.026535 0.33928
vt 0.050266 0.347336
vt 0.049637 0.313454
vt 0.051564 0.278856
vt 0.074041 0.28994
vt 0.077839 0.256265
vt 0.084265 0.222215
vt 0.105103 0.236138
vt 0.113265 0.203248
vt 0.12408 0.170327
vt 0.142922 0.186851
vt 0.155307 0.155307
vt 0.170327 0.12408
vt 0.186851 0.142922
vt 0.203248 0.113265
vt 0.222215 0.084265
vt 0.236138 0.105103
vt 0.256265 0.077839
vt 0.278856 0.051564
vt 0.28994 0.074041
vt 0.313454 0.049637
vt 0.33928 0.026535
vt 0.347336 0.050266
vt 0.373834 0.029141
vt 0.402455 0.009607
vt 0.407344 0.034187
vt 0.436372 0.016701
vt 0.467298 0.001071
vt 0.468938 0.026078

vn 0.0 1.0 0.0
vn 0.092296 0.707107 0.701057
vn 0.0 0.707107 0.707107
vn 0.0 1.0 0.0
vn 0.0 1.0 0.0
vn 0.0 1.0 0.0
vn 0.183013 0.707107 0.683013
vn 0.0 1.0 0.0
vn 0.0 1.0 0.0
vn 0.270598 0.707107 0.653281
vn 0.0 1.0 0.0
vn 0.0 1.0 0.0
vn 0.353553 0.707107 0.612372
vn 0.0 1.0 0.0
vn 0.0 1.0 0.0
vn 0.430459 0.707107 0.560986
vn 0.0 1.0 0.0
vn 0.0 1.0 0.0
vn 0.5 0.707107 0.5
vn 0.0 1.0 0.0
vn 0.0 1.0 0.0
vn 0.560986 0.707107 0.430459
vn 0.0 1.0 0.0
vn 0.0 1.0 0.0
vn 0.612372 0.707107 0.353553
vn 0.0 1.0 0.0
vn 0.0 1.0 0.0
vn 0.653281 0.707107 0.270598
vn 0.0 1.0 0.0
vn 0.0 1.0 0.0
vn 0.683013 0.707107 0.183013
vn 0.0 1.0 0.0
vn 0.0 1.0 0.0
vn 0.701057 0.707107 0.092296
vn 0.0 1.0 0.0
vn 0.0 1.0 0.0
vn 0.707107 0.707107 0.0
vn 0.0 1.0 -0.0
vn 0.0 1.0 -0.0
vn 0.701057 0.707107 -0.092296
vn 0.0 1.0 -0.0
vn 0.0 1.0 -0.0
vn 0.683013 0.707107 -0.183013
vn 0.0 1.0 -0.0
vn 0.0 1.0 -0.0
vn 0.653281 0.707107 -0.270598
vn 0.0 1.0 -0.0
vn 0.0 1.0 -0.0
vn 0.612372 0.707107 -0.353553
vn 0.0 1.0 -0.0
vn 0.0 1.0 -0.0
vn 0.560986 0.707107 -0.430459
vn 0.0 1.0 -0.0
vn 0.0 1.0 -0.0
vn 0.5 0.707107 -0.5
vn 0.0 1.0 -0.0
vn 0.0 1.0 -0.0
vn 0.430459 0.707107 -0.560986
vn 0.0 1.0 -0.0
vn 0.0 1.0 -0.0
vn 0.353553 0.707107 -0.612372
vn 0.0 1.0 -0.0
vn 0.0 1.0 -0.0
vn 0.270598 0.707107 -0.653281
vn 0.0 1.0 -0.0
vn 0.0 1.0 -0.0
vn 0.183013 0.707107 -0.683013
vn 0.0 1.0 -0.0
vn 0.0 1.0 -0.0
vn 0.092296 0.707107 -0.701057
vn 0.0 1.0 -0.0
vn 0.0 1.0 -0.0
vn 0.0 0.707107 -0.707107
vn -0.0 1.0 -0.0
vn -0.0 1.0 -0.0
vn -0.092296 0.707107 -0.701057
vn -0.0 1.0 -0.0
vn -0.0 1.0 -0.0
vn -0.183013 0.707107 -0.683013
vn -0.0 1.0 -0.0
vn -0.0 1.0 -0.0
vn -0.270598 0.707107 -0.653281
vn -0.0 1.0 -0.0
vn -0.0 1.0 -0.0
vn -0.353553 0.707107 -0.612372
vn -0.0 1.0 -0.0
vn -0.0 1.0 -0.0
vn -0.430459 0.707107 -0.560986
vn -0.0 1.0 -0.0
vn -0.0 1.0 -0.0
vn -0.5 0.707107 -0.5
vn -0.0 1.0 -0.0
vn -0.0 1.0 -0.0
vn -0.560986 0.707107 -0.430459
vn -0.0 1.0 -0.0
vn -0.0 1.0 -0.0
vn -0.612372 0.707107 -0.353553
vn -0.0 1.0 -0.0
vn -0.0 1.0 -0.0
vn -0.653281 0.707107 -0.270598
vn -0.0 1.0 -0.0
vn -0.0 1.0 -0.0
vn -0.683013 0.707107 -0.183013
vn -0.0 1.0 -0.0
vn -0.0 1.0 -0.0
vn -0.701057 0.707107 -0.092296
vn -0.0 1.0 -0.0
vn -0.0 1.0 -0.0
vn -0.707107 0.707107 -0.0
vn -0.0 1.0 0.0
vn -0.0 1.0 0.0
vn -0.701057 0.707107 0.092296
vn -0.0 1.0 0.0
vn -0.0 1.0 0.0
vn -0.683013 0.707107 0.183013
vn -0.0 1.0 0.0
vn -0.0 1.0 0.0
vn -0.653281 0.707107 0.270598
vn -0.0 1.0 0.0
vn -0.0 1.0 0.0
vn -0.612372 0.707107 0.353553
vn -0.0 1.0 0.0
vn -0.0 1.0 0.0
vn -0.560986 0.707107 0.430459
vn -0.0 1.0 0.0
vn -0.0 1.0 0.0
vn -0.5 0.707107 0.5
vn -0.0 1.0 0.0
vn -0.0 1.0 0.0
vn -0.430459 0.707107 0.560986
vn -0.0 1.0 0.0
vn -0.0 1.0 0.0
vn -0.353553 0.707107 0.612372
vn -0.0 1.0 0.0
vn -0.0 1.0 0.0
vn -0.270598 0.707107 0.653281
vn -0.0 1.0 0.0
vn -0.0 1.0 0.0
vn -0.183013 0.707107 0.683013
vn -0.0 1.0 0.0
vn -0.0 1.0 0.0
vn -0.092296 0.707107 0.701057
vn -0.0 1.0 0.0
vn -0.0 1.0 0.0

f 1/1/1 2/2/2 3/3/3
f 1/1/1 4/4/4 2/2/2
f 5/5/5 3/3/3 2/2/2
f 5/5/5 2/2/2 6/6/6
f 4/4/4 7/7/7 2/2/2
f 4/4/4 8/8/8 7/7/7
f 6/6/6 2/2/2 7/7/7
f 6/6/6 7/7/7 9/9/9
f 6/6/6 9/9/9 5/5/5
f 8/8/8 10/10/10 7/7/7
f 8/8/8 11/11/11 10/10/10
f 9/9/9 7/7/7 10/10/10
f 9/9/9 10/10/10 12/12/12
f 9/9/9 12/12/12 5/5/5
f 11/11/11 13/13/13 10/10/10
f 11/11/11 14/14/14 13/13/13
f 12/12/12 10/10/10 13/13/13
f 12/12/12 13/13/13 15/15/15
f 12/12/12 15/15/15 5/5/5
f 14/14/14 16/16/16 13/13/13
f 14/14/14 17/17/17 16/16/16
f 15/15/15 13/13/13 16/16/16
f 15/15/15 16/16/16 18/18/18
f 15/15/15 18/18/18 5/5/5
f 17/17/17 19/19/19 16/16/16
f 17/17/17 20/20/20 19/19/19
f 18/18/18 16/16/16 19/19/19
f 18/18/18 19/19/19 21/21/21
f 18/18/18 21/21/21 5/5/5
f 20/20/20 22/22/22 19/19/19
f 20/20/20 23/23/23 22/22/22
f 21/21/21 19/19/19 22/22/22
f 21/21/21 22/22/22 24/24/24
f 21/21/21 24/24/24 5/5/5
f 23/23/23 25/25/25 22/22/22
f 23/23/23 26/26/26 25/25/25
f 24/24/24 22/22/22 25/25/25
f 24/24/24 25/25/25 27/27/27
f 24/24/24 27/27/27 5/5/5
f 26/26/26 28/28/28 25/25/25
f 26/26/26 29/29/29 28/28/28
f 27/27/27 25/25/25 28/28/28
f 27/27/27 28/28/28 30/30/30
f 27/27/27 30/30/30 5/5/5
f 29/29/29 31/31/31 28/28/28
f 29/29/29 32/32/32 31/31/31
f 30/30/30 28/28/28 31/31/31
f 30/30/30 31/31/31 33/33/33
f 30/30/30 33/33/33 5/5/5
f 32/32/32 34/34/34 31/31/31
f 32/32/32 35/35/35 34/34/34
f 33/33/33 31/31/31 34/34/34
f 33/33/33 34/34/34 36/36/36
f 33/33/33 36/36/36 5/5/5
f 35/35/35 37/37/37 34/34/34
f 35/35/35 38/38/38 37/37/37
f 36/36/36 34/34/34 37/37/37
f 36/36/36 37/37/37 39/39/39
f 36/36/36 39/39/39 5/5/5
f 38/38/38 40/40/40 37/37/37
f 38/38/38 41/41/41 40/40/40
f 39/39/39 37/37/37 40/40/40
f 39/39/39 40/40/40 42/42/42
f 39/39/39 42/42/42 5/5/5
f 41/41/41 43/43/43 40/40/40
f 41/41/41 44/44/44 43/43/43
f 42/42/42 40/40/40 43/43/43
f 42/42/42 43/43/43 45/45/45
f 42/42/42 45/45/45 5/5/5
f 44/44/44 46/46/46 43/43/43
f 44/44/44 47/47/47 46/46/46
f 45/45/45 43/43/43 46/46/46
f 45/45/45 46/46/46 48/48/48
f 45/45/45 48/48/48 5/5/5
f 47/47/47 49/49/49 46/46/46
f 47/47/47 50/50/50 49/49/49
f 48/48/48 46/46/46 49/49/49
f 48/48/48 49/49/49 51/51/51
f 48/48/48 51/51/51 5/5/5
f 50/50/50 52/52/52 49/49/49
f 50/50/50 53/53/53 52/52/52
f 51/51/51 49/49/49 52/52/52
f 51/51/51 52/52/52 54/54/54
f 51/51/51 54/54/54 5/5/5
f 53/53/53 55/55/55 52/52/52
f 53/53/53 56/56/56 55/55/55
f 54/54/54 52/52/52 55/55/55
f 54/54/54 55/55/55 57/57/57
f 54/54/54 57/57/57 5/5/5
f 56/56/56 58/58/58 55/55/55
f 56/56/56 59/59/59 58/58/58
f 57/57/57 55/55/55 58/58/58
f 57/57/57 58/58/58 60/60/60
f 57/57/57 60/60/60 5/5/5
f 59/59/59 61/61/61 58/58/58
f 59/59/59 62/62/62 61/61/61
f 60/60/60 58/58/58 61/61/61
f 60/60/60 61/61/61 63/63/63
f 60/60/60 63/63/63 5/5/5
f 62/62/62 64/64/64 61/61/61
f 62/62/62 65/65/65 64/64/64
f 63/63/63 61/61/61 64/64/64
f 63/63/63 64/64/64 66/66/66
f 63/63/63 66/66/66 5/5/5
f 65/65/65 67/67/67 64/64/64
f 65/65/65 68/68/68 67/67/67
f 66/66/66 64/64/64 67/67/67
f 66/66/66 67/67/67 69/69/69
f 66/66/66 69/69/69 5/5/5
f 68/68/68 70/70/70 67/67/67
f 68/68/68 71/71/71 70/70/70
f 69/69/69 67/67/67 70/70/70
f 69/69/69 70/70/70 72/72/72
f 69/69/69 72/72/72 5/5/5
f 71/71/71 73/73/73 70/70/70
f 71/71/71 74/74/74 73/73/73
f 72/72/72 70/70/70 73/73/73
f 72/72/72 73/73/73 75/75/75
f 72/72/72 75/75/75 5/5/5
f 74/74/74 76/76/76 73/73/73
f 74/74/74 77/77/77 76/76/76
f 75/75/75 73/73/73 76/76/76
f 75/75/75 76/76/76 78/78/78
f 75/75/75 78/78/78 5/5/5
f 77/77/77 79/79/79 76/76/76
f 77/77/77 80/80/80 79/79/79
f 78/78/78 76/76/76 79/79/79
f 78/78/78 79/79/79 81/81/81
f 78/78/78 81/81/81 5/5/5
f 80/80/80 82/82/82 79/79/79
f 80/80/80 83/83/83 82/82/82
f 81/81/81 79/79/79 82/82/82
f 81/81/81 82/82/82 84/84/84
f 81/81/81 84/84/84 5/5/5
f 83/83/83 85/85/85 82/82/82
f 83/83/83 86/86/86 85/85/85
f 84/84/84 82/82/82 85/85/85
f 84/84/84 85/85/85 87/87/87
f 84/84/84 87/87/87 5/5/5
f 86/86/86 88/88/88 85/85/85
f 86/86/86 89/89/89 88/88/88
f 87/87/87 85/85/85 88/88/88
f 87/87/87 88/88/88 90/90/90
f 87/87/87 90/90/90 5/5/5
f 89/89/89 91/91/91 88/88/88
f 89/89/89 92/92/92 91/91/91
f 90/90/90 88/88/88 91/91/91
f 90/90/90 91/91/91 93/93/93
f 90/90/90 93/93/93 5/5/5
f 92/92/92 94/94/94 91/91/91
f 92/92/92 95/95/95 94/94/94
f 93/93/93 91/91/91 94/94/94
f 93/93/93 94/94/94 96/96/96
f 93/93/93 96/96/96 5/5/5
f 95/95/95 97/97/97 94/94/94
f 95/95/95 98/98/98 97/97/97
f 96/96/96 94/94/94 97/97/97
f 96/96/96 97/97/97 99/99/99
f 96/96/96 99/99/99 5/5/5
f 98/98/98 100/100/100 97/97/97
f 98/98/98 101/101/101 100/100/100
f 99/99/99 97/97/97 100/100/100
f 99/99/99 100/100/100 102/102/102
f 99/99/99 102/102/102 5/5/5
f 101/101/101 103/103/103 100/100/100
f 101/101/101 104/104/104 103/103/103
f 102/102/102 100/100/100 103/103/103
f 102/102/102 103/103/103 105/105/105
f 102/102/102 105/105/105 5/5/5
f 104/104/104 106/106/106 103/103/103
f 104/104/104 107/107/107 106/106/106
f 105/105/105 103/103/103 106/106/106
f 105/105/105 106/106/106 108/108/108
f 105/105/105 108/108/108 5/5/5
f 107/107/107 109/109/109 106/106/106
f 107/107/107 110/110/110 109/109/109
f 108/108/108 106/106/106 109/109/109
f 108/108/108 109/109/109 111/111/111
f 108/108/108 111/111/111 5/5/5
f 110/110/110 112/112/112 109/109/109
f 110/110/110 113/113/113 112/112/112
f 111/111/111 109/109/109 112/112/112
f 111/111/111 112/112/112 114/114/114
f 111/111/111 114/114/114 5/5/5
f 113/113/113 115/115/115 112/112/112
f 113/113/113 116/116/116 115/115/115
f 114/114/114 112/112/112 115/115/115
f 114/114/114 115/115/115 117/117/117
f 114/114/114 117/117/117 5/5/5
f 116/116/116 118/118/118 115/115/115
f 116/116/116 119/119/119 118/118/118
f 117/117/117 115/115/115 118/118/118
f 117/117/117 118/118/118 120/120/120
f 117/117/117 120/120/120 5/5/5
f 119/119/119 121/121/121 118/118/118
f 119/119/119 122/122/122 121/121/121
f 120/120/120 118/118/118 121/121/121
f 120/120/120 121/121/121 123/123/123
f 120/120/120 123/123/123 5/5/5
f 122/122/122 124/124/124 121/121/121
f 122/122/122 125/125/125 124/124/124
f 123/123/123 121/121/121 124/124/124
f 123/123/123 124/124/124 126/126/126
f 123/123/123 126/126/126 5/5/5
f 125/125/125 127/127/127 124/124/124
f 125/125/125 128/128/128 127/127/127
f 126/126/126 124/124/124 127/127/127
f 126/126/126 127/127/127 129/129/129
f 126/126/126 129/129/129 5/5/5
f 128/128/128 130/130/130 127/127/127
f 128/128/128 131/131/131 130/130/130
f 129/129/129 127/127/127 130/130/130
f 129/129/129 130/130/130 132/132/132
f 129/129/129 132/132/132 5/5/5
f 131/131/131 133/133/133 130/130/130
f 131/131/131 134/134/134 133/133/133
f 132/132/132 130/130/130 133/133/133
f 132/132/132 133/133/133 135/135/135
f 132/132/132 135/135/135 5/5/5
f 134/134/134 136/136/136 133/133/133
f 134/134/134 137/137/137 136/136/136
f 135/135/135 133/133/133 136/136/136
f 135/135/135 136/136/136 138/138/138
f 135/135/135 138/138/138 5/5/5
f 137/137/137 139/139/139 136/136/136
f 137/137/137 140/140/140 139/139/139
f 138/138/138 136/136/136 139/139/139
f 138/138/138 139/139/139 141/141/141
f 138/138/138 141/141/141 5/5/5
f 140/140/140 142/142/142 139/139/139
f 140/140/140 143/143/143 142/142/142
f 141/141/141 139/139/139 142/142/142
f 141/141/141 142/142/142 144/144/144
f 141/141/141 144/144/144 5/5/5
f 143/143/143 3/3/3 142/142/142
f 143/143/143 1/1/1 3/3/3
f 144/144/144 142/142/142 3/3/3
f 144/144/144 3/3/3 5/5/5
