# Blender v2.92.0 OBJ File: 'Kannonwagon.blend'
# www.blender.org
mtllib Open Top canopy.mtl
o Open_Top_-_General_purpose_Body_battlewagon_body0_model0.003
v 0.749430 2.354259 1.035023
v 0.828424 2.373752 1.028659
v 0.730608 2.692649 1.017911
v 0.880188 2.692648 1.001411
v 0.916619 2.394676 1.018931
v -0.811406 2.692641 -0.947215
v -0.919340 2.692644 -0.709527
v 0.707466 2.692632 -0.958744
v 1.070868 2.692644 0.687225
v 0.815398 2.692632 -0.756668
v 0.639934 2.692648 0.890692
v -0.496962 2.692655 0.890685
v -0.929907 2.692656 0.558236
v -1.174825 2.692655 0.316157
v -1.174819 2.692646 -0.683324
v 1.070876 2.692632 -0.683310
v -0.984148 2.692656 0.558236
v -0.529283 2.372225 0.859360
v 0.645851 2.372218 0.859367
v 1.122709 2.352353 -0.612546
v 0.861393 2.393020 -0.787842
v 1.127882 2.379294 0.713855
v 0.740168 2.421669 -0.989562
v -1.191868 2.378898 0.338140
v -1.196556 2.378771 -0.699558
v -0.978317 2.379460 0.578627
v -0.936022 2.379108 0.583998
v -0.791325 2.401829 -0.982816
v -0.905669 2.378232 -0.739476
v 0.757166 2.692649 0.984768
v 0.847477 2.692648 0.968854
v -0.784059 2.692642 -0.910588
v -0.888161 2.692644 -0.681339
v 0.680887 2.692633 -0.921708
v 1.031387 2.692644 0.665823
v 0.784987 2.692633 -0.726806
v 0.669711 2.692648 0.862066
v -0.480779 2.692655 0.862059
v -0.898353 2.692656 0.525120
v -1.134575 2.692655 0.307929
v -1.134570 2.692646 -0.656066
v 1.031395 2.692633 -0.656053
v -0.950668 2.692656 0.525120
v 0.728648 2.420075 0.952208
v 0.815702 2.420074 0.936868
v -0.756984 2.420069 -0.874782
v -0.857331 2.420071 -0.653802
v 0.655122 2.420060 -0.885501
v 0.992979 2.420071 0.644767
v 0.755467 2.420060 -0.697630
v 0.644348 2.420074 0.833932
v -0.464643 2.420081 0.833926
v -0.867155 2.420082 0.509140
v -1.094857 2.420081 0.299783
v -1.094851 2.420073 -0.629441
v 0.992986 2.420060 -0.629428
v -0.917583 2.420082 0.509140
v 0.773551 2.420068 0.145109
v -0.840430 2.420077 0.019060
v -1.049853 2.421353 0.302367
v -1.049853 2.425279 -0.634175
v -0.519436 2.421353 0.302367
v -0.519436 2.425279 -0.634175
v -1.049853 2.473310 0.302585
v -1.049853 2.477236 -0.633957
v -0.519436 2.473310 0.302585
v -0.519436 2.477236 -0.633957
v -0.531324 2.410276 0.027052
v -0.531324 2.411590 0.246370
v -0.532175 2.442604 0.026858
v -0.532175 2.443918 0.246177
v -0.522205 2.466673 0.026714
v -0.522205 2.467986 0.246032
v -0.498135 2.476642 0.026654
v -0.498135 2.477956 0.245973
v -0.474065 2.466673 0.026714
v -0.474065 2.467986 0.246032
v -0.464095 2.442604 0.026858
v -0.464095 2.443918 0.246177
v -0.464946 2.410276 0.027052
v -0.464946 2.411590 0.246370
v -0.498135 2.443918 0.246177
v -0.498135 2.442603 0.026858
v -0.531324 2.410024 -0.525351
v -0.531324 2.411338 -0.306032
v -0.532175 2.442352 -0.525544
v -0.532175 2.443666 -0.306226
v -0.522205 2.466421 -0.525688
v -0.522205 2.467735 -0.306370
v -0.498135 2.476391 -0.525748
v -0.498135 2.477704 -0.306430
v -0.474065 2.466421 -0.525688
v -0.474065 2.467735 -0.306370
v -0.464095 2.442352 -0.525544
v -0.464095 2.443666 -0.306226
v -0.464946 2.410024 -0.525351
v -0.464946 2.411338 -0.306032
v -0.498135 2.443666 -0.306226
v -0.498135 2.442352 -0.525545
vt 0.624256 0.319399
vt 0.629677 0.319399
vt 0.626327 0.333466
vt 0.635447 0.333466
vt 0.636901 0.319399
vt 0.860788 0.229988
vt 0.872301 0.230444
vt 0.869635 0.232497
vt 0.864905 0.232877
vt 0.884775 0.242830
vt 0.885163 0.306562
vt 0.882426 0.305305
vt 0.882043 0.243804
vt 0.860779 0.318781
vt 0.756692 0.318407
vt 0.758579 0.316712
vt 0.858932 0.317075
vt 0.731526 0.306327
vt 0.731588 0.261237
vt 0.734446 0.261640
vt 0.734341 0.305058
vt 0.748447 0.307891
vt 0.750413 0.305668
vt 0.870470 0.308506
vt 0.868361 0.307130
vt 0.855905 0.234909
vt 0.860243 0.236949
vt 0.745182 0.250328
vt 0.750397 0.249631
vt 0.753013 0.251090
vt 0.746866 0.252460
vt 0.777866 0.236671
vt 0.778979 0.238000
vt 0.659295 0.333466
vt 0.658993 0.319399
vt 0.751747 0.333466
vt 0.747759 0.319399
vt 0.765466 0.319399
vt 0.768974 0.333466
vt 0.782092 0.333466
vt 0.780365 0.319399
vt 0.613706 0.333466
vt 0.612231 0.319399
vt 0.474251 0.319399
vt 0.405291 0.333466
vt 0.406772 0.319399
vt 0.473756 0.333466
vt 0.495877 0.319399
vt 0.495486 0.333466
vt 0.499672 0.319399
vt 0.500082 0.333466
vt 0.531240 0.319399
vt 0.533404 0.333466
vt 0.883586 0.319399
vt 0.884520 0.333466
vt 0.388188 0.333466
vt 0.387299 0.319399
vt 0.370946 0.319399
vt 0.372299 0.333466
vt 0.626705 0.216036
vt 0.614932 0.215981
vt 0.614929 0.228397
vt 0.627092 0.228430
vt 0.770703 0.388656
vt 0.774280 0.388453
vt 0.773955 0.369060
vt 0.770507 0.369255
vt 0.816314 0.388342
vt 0.907676 0.388222
vt 0.905825 0.368856
vt 0.815923 0.368959
vt 0.917962 0.388517
vt 0.924246 0.388735
vt 0.923996 0.369298
vt 0.917938 0.369088
vt 0.612314 0.215956
vt 0.611148 0.228339
vt 0.548141 0.215976
vt 0.549291 0.228358
vt 0.533511 0.216349
vt 0.533489 0.228746
vt 0.548445 0.216161
vt 0.548828 0.228571
vt 0.638174 0.588972
vt 0.755465 0.589177
vt 0.755853 0.556737
vt 0.638639 0.556540
vt 0.952217 0.389427
vt 0.952384 0.369996
vt 0.742656 0.388700
vt 0.742177 0.369286
vt 0.636903 0.589294
vt 0.756797 0.588991
vt 0.756839 0.555828
vt 0.637134 0.556155
vt 0.661384 0.397627
vt 0.661384 0.436594
vt 0.645379 0.424822
vt 0.541204 0.463310
vt 0.530053 0.451060
vt 0.543856 0.430107
vt 0.650232 0.445373
vt 0.530053 0.397627
vt 0.646443 0.396605
vt 0.647060 0.445373
vt 0.621741 0.458993
vt 0.551983 0.458993
vt 0.546680 0.463953
vt 0.640131 0.387338
vt 0.551306 0.386888
vt 0.544994 0.394767
vt 0.739984 0.168549
vt 0.699523 0.168549
vt 0.699523 0.124466
vt 0.739984 0.124466
vt 0.439179 0.450246
vt 0.429322 0.450764
vt 0.428126 0.450106
vt 0.440169 0.449280
vt 0.429115 0.461236
vt 0.438972 0.460718
vt 0.440169 0.461375
vt 0.428126 0.462202
vt 0.773483 0.908161
vt 0.757772 0.908161
vt 0.757772 0.906025
vt 0.773483 0.906025
vt 0.757772 0.904304
vt 0.773483 0.904304
vt 0.757772 0.902583
vt 0.773483 0.902583
vt 0.757772 0.900862
vt 0.773483 0.900862
vt 0.757772 0.899141
vt 0.773483 0.899141
vt 0.757772 0.897004
vt 0.773483 0.897004
vt 0.818456 0.875102
vt 0.818371 0.877268
vt 0.815035 0.875102
vt 0.812615 0.873489
vt 0.815035 0.872820
vt 0.811698 0.877268
vt 0.817454 0.873489
vt 0.811613 0.875102
vt 0.818371 0.877258
vt 0.811698 0.877258
vt 0.815035 0.875092
vt 0.811613 0.875092
vt 0.812615 0.873479
vt 0.817454 0.873479
vt 0.818456 0.875092
vt 0.815035 0.872810
vt 0.773483 0.908161
vt 0.757772 0.908161
vt 0.757772 0.906025
vt 0.773483 0.906025
vt 0.757772 0.904304
vt 0.773483 0.904304
vt 0.757772 0.902583
vt 0.773483 0.902583
vt 0.757772 0.900862
vt 0.773483 0.900862
vt 0.757772 0.899141
vt 0.773483 0.899141
vt 0.757772 0.897004
vt 0.773483 0.897004
vt 0.818456 0.875102
vt 0.818371 0.877268
vt 0.815035 0.875102
vt 0.812615 0.873489
vt 0.815035 0.872820
vt 0.811698 0.877268
vt 0.817454 0.873489
vt 0.811613 0.875102
vt 0.818371 0.877258
vt 0.811698 0.877258
vt 0.815035 0.875092
vt 0.811613 0.875092
vt 0.812615 0.873479
vt 0.817454 0.873479
vt 0.818456 0.875092
vt 0.815035 0.872810
vn -0.4629 0.0014 0.8864
vn 0.0828 0.0618 0.9946
vn -0.3399 0.6188 0.7082
vn 0.3890 0.6612 0.6415
vn 0.5074 0.1278 0.8522
vn -0.2976 0.8532 -0.4284
vn 0.1681 0.8657 -0.4715
vn 0.6688 0.7177 0.1938
vn 0.6171 0.6229 -0.4808
vn -0.3470 0.9011 0.2601
vn -0.5528 0.8181 -0.1582
vn 0.3660 0.6680 -0.6479
vn -0.4531 0.6257 -0.6350
vn 0.2560 0.8841 0.3909
vn -0.2457 0.8786 0.4095
vn -0.5848 0.6144 -0.5296
vn -0.7063 0.6630 0.2484
vn 0.5202 0.8331 -0.1880
vn 0.2959 0.9186 0.2620
vn -0.3004 0.8470 -0.4385
vn 0.4293 0.6648 0.6113
vn 0.3350 0.8512 -0.4040
vn -0.4559 0.6845 0.5689
vn -0.2835 0.8073 0.5176
vn 0.3806 0.6335 -0.6737
vn -0.3472 0.6424 0.6833
vn -0.1792 0.8055 0.5649
vn 0.2329 0.6731 -0.7019
vn 0.2376 0.8419 -0.4845
vn -0.2340 0.6175 0.7510
vn 0.1916 0.8228 -0.5351
vn 0.9384 0.1926 0.2868
vn 0.9186 0.0587 -0.3907
vn 0.6607 0.0848 -0.7459
vn 0.5208 0.1583 -0.8389
vn -0.5020 -0.0933 0.8598
vn -0.9283 0.0774 0.3636
vn -0.7483 0.0962 -0.6564
vn -0.4680 0.0639 0.8814
vn -0.3478 0.0738 0.9347
vn -0.3346 -0.0392 0.9415
vn -0.5238 0.0709 -0.8489
vn -0.6029 0.0496 -0.7963
vn 0.5602 0.6465 0.5179
vn 0.2907 0.8709 0.3962
vn 0.2019 0.8169 -0.5403
vn 0.2993 0.6614 -0.6877
vn 0.2310 0.8394 -0.4921
vn 0.2402 0.6823 -0.6905
vn -0.4066 0.6845 -0.6051
vn 0.3301 0.6280 -0.7047
vn 0.4045 0.6641 0.6287
vn -0.3777 0.6669 0.6423
vn -0.3378 0.8450 0.4145
vn -0.6012 0.6565 0.4556
vn 0.6775 0.6910 -0.2522
vn -0.6816 0.7077 -0.1860
vn 0.0000 1.0000 -0.0000
vn -0.5774 0.5749 0.5798
vn 0.5774 0.5749 0.5798
vn 0.5774 0.5798 -0.5749
vn -0.5774 0.5798 -0.5749
vn -0.7071 -0.0030 0.7071
vn 0.7071 -0.0030 0.7071
vn 0.7071 0.0030 -0.7071
vn -0.7071 0.0030 -0.7071
vn -0.7010 -0.0227 -0.7128
vn -0.7010 -0.0142 0.7131
vn -0.7360 0.1403 0.6623
vn -0.7360 0.1324 -0.6640
vn -0.5490 0.5527 0.6270
vn -0.5490 0.5452 -0.6335
vn -0.0000 0.7801 0.6256
vn -0.0000 0.7726 -0.6349
vn 0.5490 0.5527 0.6270
vn 0.5490 0.5452 -0.6335
vn 0.7360 0.1403 0.6623
vn 0.7360 0.1324 -0.6640
vn 0.7010 -0.0142 0.7131
vn 0.7010 -0.0227 -0.7128
vn 0.0000 0.0060 1.0000
vn 0.0000 -0.0060 -1.0000
usemtl battlewagon_dif
s 1
f 1/1/1 2/2/2 3/3/3
f 2/2/2 4/4/4 3/3/3
f 4/4/4 2/2/2 5/5/5
f 3/6/3 4/7/4 31/8/6 30/9/7
f 9/10/8 16/11/9 42/12/10 35/13/11
f 8/14/12 6/15/13 32/16/14 34/17/15
f 15/18/16 14/19/17 40/20/18 41/21/19
f 6/15/13 7/22/20 33/23/21 32/16/14
f 7/22/20 15/18/16 41/21/19 33/23/21
f 10/24/22 8/14/12 34/17/15 36/25/23
f 16/11/9 10/24/22 36/25/23 42/12/10
f 4/7/4 9/10/8 35/13/11 31/8/6
f 11/26/24 3/6/3 30/9/7 37/27/25
f 17/28/26 13/29/27 39/30/28 43/31/29
f 13/29/27 12/32/30 38/33/31 39/30/28
f 5/5/5 9/34/8 4/4/4
f 9/34/8 5/5/5 22/35/32
f 22/35/32 16/36/9 9/34/8
f 16/36/9 22/35/32 20/37/33
f 16/36/9 21/38/34 10/39/22
f 21/38/34 16/36/9 20/37/33
f 8/40/12 21/38/34 23/41/35
f 21/38/34 8/40/12 10/39/22
f 1/1/1 11/42/24 19/43/36
f 11/42/24 1/1/1 3/3/3
f 24/44/37 15/45/16 25/46/38
f 15/45/16 24/44/37 14/47/17
f 26/48/39 14/47/17 24/44/37
f 14/47/17 26/48/39 17/49/26
f 27/50/40 17/49/26 26/48/39
f 17/49/26 27/50/40 13/51/27
f 18/52/41 13/51/27 27/50/40
f 13/51/27 18/52/41 12/53/30
f 18/52/41 11/42/24 12/53/30
f 11/42/24 18/52/41 19/43/36
f 28/54/42 8/40/12 23/41/35
f 8/40/12 28/54/42 6/55/13
f 25/46/38 7/56/20 29/57/43
f 7/56/20 25/46/38 15/45/16
f 7/56/20 28/58/42 29/57/43
f 28/58/42 7/56/20 6/59/13
f 14/19/17 17/28/26 43/31/29 40/20/18
f 12/32/30 11/26/24 37/27/25 38/33/31
f 33/60/21 41/61/19 55/62/44 47/63/45
f 43/64/29 39/65/28 53/66/46 57/67/47
f 38/68/31 37/69/25 51/70/48 52/71/49
f 30/72/7 31/73/6 45/74/50 44/75/51
f 32/76/14 33/60/21 47/63/45 46/77/52
f 37/69/25 30/72/7 44/75/51 51/70/48
f 34/78/15 32/76/14 46/77/52 48/79/53
f 36/80/23 34/78/15 48/79/53 50/81/54
f 42/82/10 36/80/23 50/81/54 56/83/55
f 39/65/28 38/68/31 52/71/49 53/66/46
f 41/84/19 40/85/18 54/86/56 55/87/44
f 31/73/6 35/88/11 49/89/57 45/74/50
f 40/90/18 43/64/29 57/67/47 54/91/56
f 35/92/11 42/93/10 56/94/55 49/95/57
f 55/96/44 54/97/56 59/98/58
f 45/99/50 49/100/57 58/101/58
f 54/97/56 57/102/47 59/98/58
f 49/100/57 56/103/55 58/101/58
f 47/104/45 55/96/44 59/98/58
f 57/102/47 53/105/46 59/98/58
f 52/106/49 51/107/48 58/101/58 59/98/58
f 44/108/51 45/99/50 58/101/58
f 46/109/52 47/104/45 59/98/58
f 51/107/48 44/108/51 58/101/58
f 48/110/53 46/109/52 59/98/58 58/101/58
f 50/111/54 48/110/53 58/101/58
f 56/103/55 50/111/54 58/101/58
f 53/105/46 52/106/49 59/98/58
f 64/112/59 66/113/60 67/114/61 65/115/62
f 60/116/63 62/117/64 66/118/60 64/119/59
f 63/120/65 61/121/66 65/122/62 67/123/61
f 62/117/64 63/120/65 67/123/61 66/118/60
f 61/121/66 60/116/63 64/119/59 65/122/62
f 68/124/67 69/125/68 71/126/69 70/127/70
f 70/127/70 71/126/69 73/128/71 72/129/72
f 72/129/72 73/128/71 75/130/73 74/131/74
f 74/131/74 75/130/73 77/132/75 76/133/76
f 76/133/76 77/132/75 79/134/77 78/135/78
f 78/135/78 79/134/77 81/136/79 80/137/80
f 71/138/69 69/139/68 82/140/81
f 77/141/75 75/142/73 82/140/81
f 69/139/68 81/143/79 82/140/81
f 73/144/71 71/138/69 82/140/81
f 79/145/77 77/141/75 82/140/81
f 75/142/73 73/144/71 82/140/81
f 81/143/79 79/145/77 82/140/81
f 80/146/80 68/147/67 83/148/82
f 70/149/70 72/150/72 83/148/82
f 76/151/76 78/152/78 83/148/82
f 72/150/72 74/153/74 83/148/82
f 78/152/78 80/146/80 83/148/82
f 68/147/67 70/149/70 83/148/82
f 74/153/74 76/151/76 83/148/82
f 84/154/67 85/155/68 87/156/69 86/157/70
f 86/157/70 87/156/69 89/158/71 88/159/72
f 88/159/72 89/158/71 91/160/73 90/161/74
f 90/161/74 91/160/73 93/162/75 92/163/76
f 92/163/76 93/162/75 95/164/77 94/165/78
f 94/165/78 95/164/77 97/166/79 96/167/80
f 87/168/69 85/169/68 98/170/81
f 93/171/75 91/172/73 98/170/81
f 85/169/68 97/173/79 98/170/81
f 89/174/71 87/168/69 98/170/81
f 95/175/77 93/171/75 98/170/81
f 91/172/73 89/174/71 98/170/81
f 97/173/79 95/175/77 98/170/81
f 96/176/80 84/177/67 99/178/82
f 86/179/70 88/180/72 99/178/82
f 92/181/76 94/182/78 99/178/82
f 88/180/72 90/183/74 99/178/82
f 94/182/78 96/176/80 99/178/82
f 84/177/67 86/179/70 99/178/82
f 90/183/74 92/181/76 99/178/82
