# Blender v2.92.0 OBJ File: 'Kannonwagon.blend'
# www.blender.org
mtllib Exhaust 7.mtl
o Body.003_Body_battlewagon_body0_model0.006
v 0.092852 0.247342 -0.037563
v -0.193511 0.011442 0.056312
v -0.193511 0.011441 -0.037563
v -0.093216 0.017569 0.056313
v -0.100868 0.515939 0.006966
v -0.035766 0.518906 0.119728
v 0.094439 0.524838 0.119729
v 0.084805 1.176736 0.076143
v 0.037273 0.885116 0.062553
v -0.074513 1.193963 0.076143
v -0.092816 0.893217 0.062553
v -0.157859 0.897267 -0.050209
v -0.035765 0.518904 -0.105795
v -0.092814 0.893216 -0.162970
v 0.094441 0.524835 -0.105794
v 0.037274 0.885116 -0.162968
v 0.159543 0.527801 0.006968
v 0.102318 0.881066 -0.050206
v 0.080092 0.202930 0.119731
v -0.050113 0.202932 0.119730
v -0.115215 0.202932 0.006968
v 0.080094 0.202928 -0.105792
v -0.050111 0.202930 -0.105792
v 0.145196 0.202930 0.006970
v 0.212553 1.285436 -0.036088
v 0.173726 1.289633 -0.036088
v 0.095166 1.312469 0.135658
v 0.075753 1.314569 0.101835
v -0.064152 1.344038 0.135657
v -0.104982 1.320674 -0.036089
v -0.044738 1.341938 0.101835
v -0.143810 1.324871 -0.036089
v -0.154171 1.202576 -0.062635
v -0.055098 1.191862 -0.167592
v -0.115344 1.198378 -0.062635
v -0.074512 1.193961 -0.201413
v -0.064150 1.289780 -0.228303
v 0.075754 1.274654 -0.194479
v -0.044736 1.287681 -0.194480
v 0.095168 1.272552 -0.228302
v 0.084807 1.176733 -0.201412
v 0.125637 1.172320 -0.062634
v 0.065393 1.178832 -0.167591
v 0.164464 1.168121 -0.062634
v 0.023014 -0.020102 -0.084500
v 0.011863 0.240256 -0.084502
v 0.094347 -0.028892 -0.037561
v -0.002662 -0.075046 -0.076807
v 0.062468 -0.108196 -0.037560
v -0.047108 -0.148756 -0.037560
v 0.062468 -0.108196 0.056315
v -0.047109 -0.148756 0.056314
v -0.193512 -0.151155 0.056313
v -0.193512 -0.151156 -0.037561
v -0.193511 -0.069857 -0.084500
v -0.093215 0.017568 -0.037562
v -0.063953 0.061401 -0.037563
v -0.063954 0.061401 0.056313
v -0.069126 0.233171 -0.037564
v -0.069127 0.233172 0.056311
v 0.092852 0.247342 0.056312
v 0.094346 -0.028890 0.056314
v -0.064781 1.102311 -0.156127
v 0.064516 1.064013 -0.173443
v -0.125027 1.108826 -0.051171
v -0.076959 1.079313 0.064522
v -0.055099 1.191863 0.042320
v 0.058196 1.064016 0.064522
v 0.065391 1.178835 0.042320
v 0.128933 1.056365 -0.050209
v 0.011862 0.240258 0.103249
v 0.023013 -0.020100 0.103251
v -0.002664 -0.075045 0.095560
v -0.193512 -0.069856 0.103250
vt 0.543540 0.100387
vt 0.535776 0.098605
vt 0.537508 0.096129
vt 0.541995 0.110021
vt 0.547372 0.104439
vt 0.547796 0.109892
vt 0.541729 0.102197
vt 0.547951 0.103351
vt 0.550389 0.100027
vt 0.550390 0.096362
vt 0.540393 0.092834
vt 0.550390 0.092697
vt 0.550286 0.088466
vt 0.539242 0.088734
vt 0.529216 0.091865
vt 0.533179 0.094682
vt 0.531010 0.098132
vt 0.531062 0.110660
vt 0.536528 0.110341
vt 0.551817 0.103151
vt 0.433594 0.074284
vt 0.427795 0.060543
vt 0.434687 0.060931
vt 0.441414 0.060936
vt 0.442177 0.074352
vt 0.448540 0.060647
vt 0.449913 0.074276
vt 0.456352 0.060227
vt 0.457723 0.074210
vt 0.424397 0.073949
vt 0.420603 0.059705
vt 0.430894 0.090760
vt 0.439373 0.090635
vt 0.448981 0.090181
vt 0.458429 0.089835
vt 0.429034 0.103418
vt 0.440319 0.110791
vt 0.429168 0.108250
vt 0.439964 0.103826
vt 0.450003 0.110009
vt 0.450936 0.103245
vt 0.462529 0.107804
vt 0.461277 0.102288
vt 0.422612 0.090316
vt 0.415724 0.073190
vt 0.413055 0.058459
vt 0.418925 0.102861
vt 0.414473 0.089104
vt 0.407748 0.071060
vt 0.408945 0.101430
vt 0.417441 0.107161
vt 0.407442 0.105639
vt 0.405883 0.087094
vt 0.399340 0.098999
vt 0.786254 0.174542
vt 0.773070 0.179626
vt 0.777465 0.174542
vt 0.790649 0.179626
vt 0.786254 0.184708
vt 0.777465 0.184708
vt 0.396437 0.096950
vt 0.403556 0.090030
vt 0.397678 0.098274
vt 0.401230 0.089554
vt 0.405796 0.083733
vt 0.403526 0.083862
vt 0.402747 0.075301
vt 0.400923 0.076619
vt 0.392048 0.075082
vt 0.393751 0.070227
vt 0.393893 0.073597
vt 0.391900 0.069026
vt 0.398887 0.067950
vt 0.399197 0.060886
vt 0.400693 0.068831
vt 0.397769 0.062135
vt 0.388871 0.101580
vt 0.390871 0.097955
vt 0.391238 0.102111
vt 0.387961 0.095767
vt 0.524725 0.110683
vt 0.524920 0.097324
vt 0.390628 0.062525
vt 0.385058 0.069228
vt 0.381727 0.062640
vt 0.391148 0.060998
vt 0.385093 0.075227
vt 0.381527 0.081091
vt 0.390940 0.082023
vt 0.379762 0.087930
vt 0.389463 0.088987
vt 0.379116 0.095094
vt 0.380403 0.102430
vt 0.083007 0.048646
vt 0.088205 0.046255
vt 0.086715 0.048649
vt 0.085861 0.044192
vt 0.081009 0.046890
vt 0.082006 0.044495
vt 0.541639 0.102248
vt 0.536522 0.110311
vt 0.541989 0.109990
vt 0.535770 0.098574
vt 0.531055 0.110630
vt 0.530954 0.098178
vt 0.533105 0.094604
vt 0.537502 0.096098
vt 0.540502 0.092774
vt 0.550384 0.092667
vt 0.550384 0.096331
vt 0.550384 0.099996
vt 0.543616 0.100272
vn -0.3653 0.6424 -0.6737
vn 0.1362 -0.0870 -0.9869
vn 0.1137 -0.2372 -0.9648
vn -0.8613 -0.0259 -0.5074
vn -0.7866 0.1738 0.5925
vn -0.8613 -0.0259 0.5074
vn -0.7873 0.1900 -0.5865
vn -0.3418 0.6451 0.6834
vn -0.0197 0.8486 -0.5286
vn 0.0357 0.0121 -0.9993
vn 0.1489 -0.8683 -0.4731
vn 0.0142 -0.8672 -0.4977
vn 0.0198 -0.8652 0.5010
vn 0.1452 -0.8665 0.4775
vn 0.6287 -0.6407 0.4407
vn 0.6304 -0.6277 -0.4567
vn 0.8685 -0.1761 -0.4633
vn 0.8754 0.0131 -0.4832
vn 0.0158 0.0031 -0.9999
vn -0.0197 0.8486 0.5286
vn -0.9986 -0.0478 0.0246
vn -0.4082 -0.6012 -0.6870
vn -0.8054 -0.5927 -0.0000
vn -0.4082 -0.6012 0.6870
vn -0.4683 0.0436 0.8825
vn 0.3845 -0.6182 0.6856
vn 0.5086 0.0913 0.8561
vn 0.7793 -0.6266 0.0000
vn 0.9979 0.0601 0.0233
vn -0.4820 -0.0931 -0.8712
vn 0.3846 -0.6182 -0.6856
vn -0.9976 -0.0686 -0.0135
vn -0.5388 0.0164 0.8423
vn 0.4752 0.0524 0.8783
vn 0.9994 -0.0280 -0.0211
vn -0.9173 0.3214 -0.2351
vn -0.3687 0.5558 0.7451
vn -0.6844 0.6133 -0.3942
vn -0.5401 -0.1557 0.8271
vn 0.4435 0.4305 0.7861
vn 0.4804 -0.2830 0.8302
vn 0.8720 0.3813 -0.3070
vn 0.9600 0.0554 -0.2743
vn -0.5231 -0.1392 -0.8408
vn 0.5353 -0.0333 -0.8440
vn -0.6779 0.2032 -0.7065
vn 0.4503 -0.1350 -0.8826
vn 0.7069 0.0506 -0.7055
vn -0.6411 0.5655 -0.5188
vn 0.7472 0.4154 -0.5188
vn -0.1951 0.7292 -0.6559
vn 0.0111 0.9078 -0.4192
vn 0.2671 0.9022 -0.3385
vn 0.4715 0.5701 -0.6728
vn 0.8204 0.4120 -0.3965
vn 0.0815 0.5513 0.8303
vn -0.3121 0.7327 0.6047
vn 0.4615 0.6491 0.6047
vn 0.0383 0.4844 0.8740
vn -0.7372 0.5470 -0.3966
vn 0.8754 0.0131 0.4832
vn 0.8762 -0.1653 0.4528
vn 0.5174 0.5494 0.6561
vn -0.2640 0.6636 0.6999
vn 0.8770 0.4784 0.0442
vn 0.5064 0.5544 -0.6604
vn 0.5432 -0.0058 -0.8396
vn -0.3108 0.6151 -0.7246
vn -0.5248 0.1243 -0.8421
vn -0.7335 0.6786 -0.0392
vn 0.0158 0.0031 0.9999
vn 0.1005 -0.0610 0.9931
vn 0.0824 -0.2361 0.9682
vn 0.0405 0.0085 0.9991
usemtl battlewagon_dif
s 1
f 56/1/1 45/2/2 48/3/3
f 59/4/4 58/5/5 60/6/6
f 58/5/5 59/4/4 57/7/7
f 57/7/7 4/8/8 58/5/5
f 4/8/8 57/7/7 56/1/1
f 3/9/9 4/8/8 56/1/1
f 48/3/3 3/9/9 56/1/1
f 3/9/9 48/3/3 55/10/10
f 50/11/11 55/10/10 48/3/3
f 55/10/10 50/11/11 54/12/12
f 50/11/11 53/13/13 54/12/12
f 53/13/13 50/11/11 52/14/14
f 50/11/11 51/15/15 52/14/14
f 51/15/15 50/11/11 49/16/16
f 48/3/3 49/16/16 50/11/11
f 48/3/3 47/17/17 49/16/16
f 47/17/17 48/3/3 45/2/2
f 45/2/2 1/18/18 47/17/17
f 1/18/18 45/2/2 46/19/19
f 4/8/8 3/9/9 2/20/20
f 5/21/21 23/22/22 21/23/23
f 20/24/24 5/21/21 21/23/23
f 5/21/21 20/24/24 6/25/25
f 19/26/26 6/25/25 20/24/24
f 6/25/25 19/26/26 7/27/27
f 24/28/28 7/27/27 19/26/26
f 7/27/27 24/28/28 17/29/29
f 13/30/30 22/31/31 23/22/22
f 23/22/22 5/21/21 13/30/30
f 12/32/32 13/30/30 5/21/21
f 6/25/25 12/32/32 5/21/21
f 12/32/32 6/25/25 11/33/33
f 7/27/27 11/33/33 6/25/25
f 11/33/33 7/27/27 9/34/34
f 17/29/29 9/34/34 7/27/27
f 9/34/34 17/29/29 18/35/35
f 33/36/36 29/37/37 32/38/38
f 29/37/37 33/36/36 10/39/39
f 10/39/39 27/40/40 29/37/37
f 27/40/40 10/39/39 8/41/41
f 8/41/41 25/42/42 27/40/40
f 25/42/42 8/41/41 44/43/43
f 8/41/41 18/35/35 44/43/43
f 18/35/35 8/41/41 9/34/34
f 10/39/39 9/34/34 8/41/41
f 9/34/34 10/39/39 11/33/33
f 33/36/36 11/33/33 10/39/39
f 11/33/33 33/36/36 12/32/32
f 33/36/36 14/44/44 12/32/32
f 13/30/30 12/32/32 14/44/44
f 14/44/44 15/45/45 13/30/30
f 22/31/31 13/30/30 15/45/45
f 15/45/45 24/46/28 22/31/31
f 14/44/44 33/36/36 36/47/46
f 36/47/46 16/48/47 14/44/44
f 15/45/45 14/44/44 16/48/47
f 16/48/47 17/49/29 15/45/45
f 24/46/28 15/45/45 17/49/29
f 41/50/48 37/51/49 40/52/50
f 37/51/49 41/50/48 36/47/46
f 16/48/47 36/47/46 41/50/48
f 41/50/48 18/53/35 16/48/47
f 17/49/29 16/48/47 18/53/35
f 18/53/35 41/50/48 44/54/43
f 20/55/24 24/56/28 19/57/26
f 24/56/28 20/55/24 21/58/23
f 23/59/22 24/56/28 21/58/23
f 24/56/28 23/59/22 22/60/31
f 26/61/51 27/62/40 25/63/42
f 27/62/40 26/61/51 28/64/52
f 28/64/52 29/65/37 27/62/40
f 29/65/37 28/64/52 31/66/53
f 31/66/53 32/67/38 29/65/37
f 32/67/38 31/66/53 30/68/54
f 35/69/55 36/70/46 33/71/36
f 36/70/46 35/69/55 34/72/56
f 39/73/57 40/74/50 37/75/49
f 40/74/50 39/73/57 38/76/58
f 43/77/59 44/78/43 41/79/48
f 44/78/43 43/77/59 42/80/60
f 45/2/2 56/1/1 57/7/7
f 57/7/7 46/19/19 45/2/2
f 46/19/19 57/7/7 59/4/4
f 61/81/61 47/17/17 1/18/18
f 47/17/17 61/81/61 62/82/62
f 62/82/62 49/16/16 47/17/17
f 49/16/16 62/82/62 51/15/15
f 43/83/59 63/84/63 64/85/64
f 40/74/50 43/83/59 41/86/48
f 43/83/59 40/74/50 38/76/58
f 38/76/58 34/72/56 43/83/59
f 63/84/63 43/83/59 34/72/56
f 34/72/56 65/87/65 63/84/63
f 65/87/65 34/72/56 35/69/55
f 35/69/55 66/88/66 65/87/65
f 66/88/66 35/69/55 67/89/67
f 67/89/67 68/90/68 66/88/66
f 68/90/68 67/89/67 69/91/69
f 69/91/69 70/92/70 68/90/68
f 70/92/70 69/91/69 42/80/60
f 42/80/60 64/93/64 70/92/70
f 64/93/64 42/80/60 43/77/59
f 32/67/38 35/69/55 33/71/36
f 35/69/55 32/67/38 30/68/54
f 30/68/54 67/89/67 35/69/55
f 67/89/67 30/68/54 31/66/53
f 31/66/53 69/91/69 67/89/67
f 69/91/69 31/66/53 28/64/52
f 28/64/52 42/80/60 69/91/69
f 42/80/60 28/64/52 26/61/51
f 26/61/51 44/78/43 42/80/60
f 44/78/43 26/61/51 25/63/42
f 63/94/63 70/95/70 64/96/64
f 70/95/70 63/94/63 68/97/68
f 65/98/65 68/97/68 63/94/63
f 68/97/68 65/98/65 66/99/66
f 58/100/5 71/101/71 60/102/6
f 71/101/71 58/100/5 72/103/72
f 72/103/72 61/104/61 71/101/71
f 61/104/61 72/103/72 62/105/62
f 72/103/72 51/106/15 62/105/62
f 51/106/15 72/103/72 73/107/73
f 52/108/14 51/106/15 73/107/73
f 73/107/73 53/109/13 52/108/14
f 53/109/13 73/107/73 74/110/74
f 73/107/73 2/111/20 74/110/74
f 2/111/20 73/107/73 4/112/8
f 73/107/73 58/100/5 4/112/8
f 58/100/5 73/107/73 72/103/72
f 36/70/46 39/73/57 37/75/49
f 39/73/57 36/70/46 34/72/56
f 34/72/56 38/76/58 39/73/57
