# Blender v2.92.0 OBJ File: ''
# www.blender.org
mtllib Battlewagon Wheel 1 L.mtl
o Body_battlewagon_body0_model0.003_Body_battlewagon_body0_model0.004
v -0.327593 -0.444982 -0.108952
v -0.327595 -0.444552 0.110993
v -0.327592 -0.343149 -0.303904
v -0.327595 -0.341957 0.305544
v -0.327590 -0.162383 -0.429200
v -0.327588 0.055907 -0.456139
v -0.327595 -0.160702 0.430133
v -0.327588 0.261711 -0.378547
v -0.327594 0.057691 0.456217
v -0.327588 0.407883 -0.214200
v -0.327592 0.263190 0.377822
v -0.327589 0.460937 -0.000752
v -0.327590 0.408719 0.212907
v -0.293524 0.502431 -0.000831
v -0.293526 0.445497 0.232118
v -0.293528 0.286828 0.411925
v -0.293529 0.062773 0.497398
v -0.293531 -0.175340 0.468959
v -0.293532 -0.372962 0.333120
v -0.293531 -0.484820 0.121001
v -0.293529 -0.485289 -0.118804
v -0.293527 -0.374261 -0.331358
v -0.293525 -0.177173 -0.467967
v -0.293524 0.060827 -0.497338
v -0.293523 0.285215 -0.412741
v -0.293523 0.444586 -0.233555
v 0.138545 -0.103262 0.277773
v 0.125474 0.057712 0.456416
v 0.125473 -0.160774 0.430319
v 0.138544 -0.220290 0.197331
v 0.125473 -0.342107 0.305677
v 0.138545 -0.286531 0.071717
v 0.125473 -0.444745 0.111043
v 0.138545 -0.286809 -0.070291
v 0.125475 -0.445175 -0.108996
v 0.138547 -0.221060 -0.196163
v 0.125476 -0.343299 -0.304031
v 0.138548 -0.104347 -0.277060
v 0.125478 -0.162455 -0.429380
v 0.138549 0.036593 -0.294454
v 0.125480 0.055927 -0.456330
v 0.138549 0.169472 -0.244355
v 0.125481 0.261820 -0.378706
v 0.138549 0.263849 -0.138244
v 0.088103 -0.177175 -0.467966
v 0.088101 -0.374263 -0.331356
v 0.088104 0.060825 -0.497336
v 0.088105 0.285213 -0.412738
v 0.088105 0.444584 -0.233553
v 0.125481 0.408055 -0.214289
v 0.138549 0.298103 -0.000429
v 0.125480 0.461131 -0.000748
v 0.138548 0.264388 0.137519
v 0.125478 0.408890 0.213000
v 0.138546 0.170427 0.243998
v 0.125476 0.263299 0.377987
v 0.138545 0.037745 0.294615
v 0.088104 0.502428 -0.000830
v 0.088102 0.445494 0.232119
v 0.088101 0.286825 0.411926
v 0.088098 0.062771 0.497400
v 0.088097 -0.175342 0.468961
v 0.088097 -0.372964 0.333123
v 0.088097 -0.484822 0.121004
v 0.088099 -0.485291 -0.118801
v 0.088496 -0.088877 -0.079519
v 0.001916 -0.115560 -0.028437
v 0.001917 -0.088877 -0.079519
v 0.088495 -0.115560 -0.028437
v 0.001916 -0.115447 0.029195
v 0.088495 -0.115448 0.029195
v 0.001916 -0.088565 0.080172
v 0.088495 -0.088565 0.080172
v 0.001916 -0.041071 0.112817
v 0.088495 -0.041071 0.112819
v 0.001916 0.016154 0.119652
v 0.088495 0.016154 0.119654
v 0.001917 0.070001 0.099111
v 0.088496 0.070000 0.099111
v 0.001917 0.108133 0.055899
v 0.088496 0.108132 0.055899
v 0.001918 0.121815 -0.000085
v 0.088496 0.121815 -0.000085
v 0.001918 0.107914 -0.056016
v 0.088497 0.107914 -0.056014
v 0.001918 0.069613 -0.099078
v 0.088497 0.069613 -0.099077
v 0.001918 0.015687 -0.119409
v 0.088497 0.015686 -0.119409
v 0.001917 -0.041511 -0.112351
v 0.088496 -0.041511 -0.112351
v 0.031734 0.298104 -0.000429
v 0.031735 0.263849 -0.138245
v 0.031735 0.169472 -0.244356
v 0.031734 0.036594 -0.294454
v 0.031733 -0.104346 -0.277060
v 0.031732 -0.221059 -0.196163
v 0.031731 -0.286808 -0.070291
v 0.031730 -0.286531 0.071716
v 0.031730 -0.220289 0.197331
v 0.031730 -0.103262 0.277772
v 0.031731 0.037745 0.294614
v 0.031732 0.170427 0.243997
v 0.031733 0.264389 0.137519
v 0.088496 0.001406 0.000151
vt 0.639739 0.592023
vt 0.654189 0.588614
vt 0.625361 0.588327
vt 0.665399 0.578881
vt 0.614346 0.578371
vt 0.609221 0.564438
vt 0.670802 0.565052
vt 0.611157 0.549719
vt 0.669160 0.550298
vt 0.619713 0.537585
vt 0.660848 0.537996
vt 0.632926 0.530818
vt 0.647772 0.530966
vt 0.632283 0.528092
vt 0.648469 0.528253
vt 0.662726 0.535918
vt 0.671789 0.549330
vt 0.673579 0.565418
vt 0.667687 0.580495
vt 0.655465 0.591108
vt 0.639711 0.594825
vt 0.624035 0.590794
vt 0.612025 0.579940
vt 0.606437 0.564748
vt 0.608548 0.548699
vt 0.617876 0.535471
vt 0.591043 0.559174
vt 0.600052 0.573067
vt 0.602168 0.558366
vt 0.587894 0.550583
vt 0.597209 0.544365
vt 0.581085 0.544115
vt 0.586312 0.534273
vt 0.571552 0.541527
vt 0.571973 0.530402
vt 0.562331 0.543737
vt 0.557476 0.533637
vt 0.555350 0.549603
vt 0.546145 0.543238
vt 0.551606 0.558680
vt 0.540573 0.557006
vt 0.552703 0.568275
vt 0.542037 0.571786
vt 0.557524 0.575717
vt 0.543886 0.541604
vt 0.556236 0.531140
vt 0.537813 0.556608
vt 0.539409 0.572716
vt 0.548308 0.586238
vt 0.550202 0.584192
vt 0.566003 0.580659
vt 0.563198 0.591383
vt 0.576097 0.580693
vt 0.578047 0.591711
vt 0.583853 0.576745
vt 0.591347 0.585101
vt 0.589696 0.569020
vt 0.562471 0.594075
vt 0.578653 0.594432
vt 0.593149 0.587228
vt 0.602637 0.574112
vt 0.604942 0.558091
vt 0.599537 0.542833
vt 0.587661 0.531835
vt 0.572034 0.527614
vt 0.800522 0.528315
vt 0.797074 0.534159
vt 0.800522 0.534159
vt 0.797074 0.528315
vt 0.793184 0.534159
vt 0.793184 0.528315
vt 0.789743 0.534159
vt 0.789743 0.528315
vt 0.786538 0.534159
vt 0.786538 0.528315
vt 0.782675 0.534159
vt 0.782675 0.528315
vt 0.779040 0.534159
vt 0.779040 0.528315
vt 0.776124 0.534159
vt 0.776124 0.528315
vt 0.772344 0.534159
vt 0.772344 0.528315
vt 0.768569 0.534159
vt 0.768569 0.528315
vt 0.765663 0.534159
vt 0.765663 0.528315
vt 0.762024 0.534159
vt 0.762024 0.528315
vt 0.758162 0.534159
vt 0.758162 0.528315
vt 0.754964 0.534159
vt 0.754964 0.528315
vt 0.567875 0.573856
vt 0.562200 0.570378
vt 0.559463 0.566137
vt 0.558546 0.559586
vt 0.561237 0.553433
vt 0.565543 0.550015
vt 0.571475 0.548521
vt 0.577892 0.550354
vt 0.582055 0.554568
vt 0.584064 0.559862
vt 0.583163 0.566521
vt 0.579127 0.571449
vt 0.574571 0.573851
vt 0.571272 0.561494
vt 0.576650 0.567588
vt 0.578866 0.564390
vt 0.573201 0.569389
vt 0.569312 0.569381
vt 0.565871 0.567567
vt 0.563668 0.564361
vt 0.563206 0.560498
vt 0.564593 0.556863
vt 0.567509 0.554290
vt 0.571288 0.553366
vt 0.575063 0.554305
vt 0.577970 0.556889
vt 0.579343 0.560530
vt 0.736643 0.540147
vt 0.745969 0.530559
vt 0.736665 0.528247
vt 0.740418 0.541085
vt 0.753131 0.536929
vt 0.743325 0.543670
vt 0.756513 0.545899
vt 0.744697 0.547310
vt 0.755338 0.555412
vt 0.744221 0.551171
vt 0.749878 0.563290
vt 0.742005 0.554368
vt 0.741382 0.567728
vt 0.738556 0.556169
vt 0.731796 0.567710
vt 0.734666 0.556161
vt 0.723317 0.563239
vt 0.731225 0.554347
vt 0.717888 0.555339
vt 0.729021 0.551141
vt 0.716750 0.545821
vt 0.728560 0.547279
vt 0.720168 0.536865
vt 0.729947 0.543644
vt 0.727355 0.530523
vt 0.732864 0.541069
vt 0.669187 0.526326
vt 0.684896 0.500567
vt 0.669187 0.500567
vt 0.684896 0.526326
vt 0.698481 0.500567
vt 0.698481 0.526326
vt 0.713627 0.500566
vt 0.713627 0.526326
vt 0.729692 0.500566
vt 0.729692 0.526326
vt 0.742995 0.500567
vt 0.742995 0.526326
vt 0.757343 0.500567
vt 0.757343 0.526326
vt 0.773531 0.500567
vt 0.773531 0.526326
vt 0.788842 0.500567
vt 0.788842 0.526326
vt 0.804911 0.500567
vt 0.804911 0.526326
vt 0.820983 0.500567
vt 0.820983 0.526326
vt 0.836109 0.500567
vt 0.836109 0.526326
vt 0.850231 0.500567
vt 0.850231 0.526326
vt 0.865955 0.500567
vt 0.865955 0.526326
vn -0.9245 -0.3703 -0.0905
vn -0.9245 -0.3700 0.0920
vn -0.9245 -0.2859 -0.2523
vn -0.9245 -0.2849 0.2534
vn -0.9245 -0.1359 -0.3562
vn -0.9245 0.0452 -0.3786
vn -0.9245 -0.1345 0.3567
vn -0.9245 0.2160 -0.3142
vn -0.9245 0.0467 0.3784
vn -0.9245 0.3372 -0.1778
vn -0.9245 0.2172 0.3133
vn -0.9245 0.3812 -0.0008
vn -0.9245 0.3379 0.1765
vn -0.4041 0.9147 -0.0018
vn -0.4041 0.8108 0.4235
vn -0.4042 0.5211 0.7518
vn -0.4041 0.1120 0.9078
vn -0.4042 -0.3227 0.8559
vn -0.4042 -0.6835 0.6079
vn -0.4042 -0.8877 0.2206
vn -0.4041 -0.8885 -0.2172
vn -0.4041 -0.6858 -0.6052
vn -0.4041 -0.3260 -0.8546
vn -0.4041 0.1085 -0.9082
vn -0.4041 0.5181 -0.7538
vn -0.4041 0.8091 -0.4267
vn 0.7944 0.2143 -0.5683
vn 0.8996 0.0535 0.4334
vn 0.8996 -0.1540 0.4086
vn 0.7944 0.4538 -0.4036
vn 0.8996 -0.3263 0.2902
vn 0.7944 0.5894 -0.1465
vn 0.8996 -0.4237 0.1053
vn 0.7944 0.5900 0.1442
vn 0.8996 -0.4242 -0.1037
vn 0.7944 0.4554 0.4019
vn 0.8996 -0.3274 -0.2889
vn 0.7944 0.2165 0.5675
vn 0.8996 -0.1556 -0.4079
vn 0.7944 -0.0720 0.6031
vn 0.8996 0.0518 -0.4335
vn 0.7944 -0.3441 0.5005
vn 0.8996 0.2473 -0.3598
vn 0.7944 -0.5373 0.2833
vn 0.3843 -0.3291 -0.8626
vn 0.3843 -0.6922 -0.6108
vn 0.3843 0.1095 -0.9167
vn 0.3843 0.5230 -0.7608
vn 0.3843 0.8166 -0.4306
vn 0.8996 0.3862 -0.2037
vn 0.7944 -0.6074 0.0012
vn 0.8996 0.4366 -0.0008
vn 0.7944 -0.5384 -0.2812
vn 0.8996 0.3870 0.2022
vn 0.7944 -0.3460 -0.4992
vn 0.8996 0.2487 0.3589
vn 0.7944 -0.0744 -0.6028
vn 0.3843 0.9232 -0.0018
vn 0.3843 0.8183 0.4274
vn 0.3843 0.5259 0.7588
vn 0.3843 0.1131 0.9163
vn 0.3843 -0.3257 0.8639
vn 0.3843 -0.6898 0.6136
vn 0.3843 -0.8960 0.2227
vn 0.3843 -0.8968 -0.2192
vn 0.6570 -0.5653 -0.4988
vn 0.8244 -0.5499 -0.1344
vn 0.8244 -0.4244 -0.3745
vn 0.6570 -0.7323 -0.1790
vn 0.8244 -0.5493 0.1365
vn 0.6570 -0.7316 0.1818
vn 0.8244 -0.4230 0.3762
vn 0.6570 -0.5633 0.5010
vn 0.8244 -0.1997 0.5297
vn 0.6570 -0.2660 0.7054
vn 0.8244 0.0693 0.5618
vn 0.6570 0.0923 0.7482
vn 0.8244 0.3225 0.4652
vn 0.6570 0.4295 0.6196
vn 0.8244 0.5017 0.2621
vn 0.6570 0.6682 0.3490
vn 0.8244 0.5661 -0.0011
vn 0.6570 0.7539 -0.0015
vn 0.8244 0.5007 -0.2640
vn 0.6570 0.6669 -0.3516
vn 0.8244 0.3206 -0.4665
vn 0.6570 0.4270 -0.6213
vn 0.8244 0.0671 -0.5621
vn 0.6570 0.0894 -0.7486
vn 0.8244 -0.2018 -0.5289
vn 0.6570 -0.2687 -0.7044
vn 0.6007 -0.7995 0.0016
vn 0.6007 -0.7072 0.3729
vn 0.6007 -0.4529 0.6588
vn 0.6007 -0.0948 0.7938
vn 0.6007 0.2850 0.7470
vn 0.6007 0.5994 0.5290
vn 0.6007 0.7766 0.1898
vn 0.6007 0.7759 -0.1928
vn 0.6007 0.5974 -0.5313
vn 0.6007 0.2820 -0.7481
vn 0.6007 -0.0979 -0.7934
vn 0.6007 -0.4554 -0.6571
vn 0.6007 -0.7086 -0.3701
vn 1.0000 -0.0000 0.0000
usemtl battlewagon_dif
s 1
f 1/1/1 2/2/2 3/3/3
f 4/4/4 3/3/3 2/2/2
f 3/3/3 4/4/4 5/5/5
f 4/4/4 6/6/6 5/5/5
f 6/6/6 4/4/4 7/7/7
f 7/7/7 8/8/8 6/6/6
f 8/8/8 7/7/7 9/9/9
f 9/9/9 10/10/10 8/8/8
f 10/10/10 9/9/9 11/11/11
f 11/11/11 12/12/12 10/10/10
f 12/12/12 11/11/11 13/13/13
f 13/13/13 14/14/14 12/12/12
f 14/14/14 13/13/13 15/15/15
f 11/11/11 15/15/15 13/13/13
f 15/15/15 11/11/11 16/16/16
f 9/9/9 16/16/16 11/11/11
f 16/16/16 9/9/9 17/17/17
f 7/7/7 17/17/17 9/9/9
f 17/17/17 7/7/7 18/18/18
f 4/4/4 18/18/18 7/7/7
f 18/18/18 4/4/4 19/19/19
f 2/2/2 19/19/19 4/4/4
f 19/19/19 2/2/2 20/20/20
f 1/1/1 20/20/20 2/2/2
f 20/20/20 1/1/1 21/21/21
f 3/3/3 21/21/21 1/1/1
f 21/21/21 3/3/3 22/22/22
f 5/5/5 22/22/22 3/3/3
f 22/22/22 5/5/5 23/23/23
f 6/6/6 23/23/23 5/5/5
f 23/23/23 6/6/6 24/24/24
f 8/8/8 24/24/24 6/6/6
f 24/24/24 8/8/8 25/25/25
f 10/10/10 25/25/25 8/8/8
f 25/25/25 10/10/10 26/26/26
f 12/12/12 26/26/26 10/10/10
f 26/26/26 12/12/12 14/14/14
f 27/27/27 28/28/28 29/29/29
f 29/29/29 30/30/30 27/27/27
f 30/30/30 29/29/29 31/31/31
f 31/31/31 32/32/32 30/30/30
f 32/32/32 31/31/31 33/33/33
f 33/33/33 34/34/34 32/32/32
f 34/34/34 33/33/33 35/35/35
f 35/35/35 36/36/36 34/34/34
f 36/36/36 35/35/35 37/37/37
f 37/37/37 38/38/38 36/36/36
f 38/38/38 37/37/37 39/39/39
f 39/39/39 40/40/40 38/38/38
f 40/40/40 39/39/39 41/41/41
f 41/41/41 42/42/42 40/40/40
f 42/42/42 41/41/41 43/43/43
f 43/43/43 44/44/44 42/42/42
f 45/45/45 37/37/37 46/46/46
f 37/37/37 45/45/45 39/39/39
f 47/47/47 39/39/39 45/45/45
f 39/39/39 47/47/47 41/41/41
f 48/48/48 41/41/41 47/47/47
f 41/41/41 48/48/48 43/43/43
f 49/49/49 43/43/43 48/48/48
f 43/43/43 49/49/49 50/50/50
f 44/44/44 43/43/43 50/50/50
f 50/50/50 51/51/51 44/44/44
f 51/51/51 50/50/50 52/52/52
f 52/52/52 53/53/53 51/51/51
f 53/53/53 52/52/52 54/54/54
f 54/54/54 55/55/55 53/53/53
f 55/55/55 54/54/54 56/56/56
f 56/56/56 57/57/57 55/55/55
f 57/57/57 56/56/56 28/28/28
f 28/28/28 27/27/27 57/57/57
f 58/58/58 50/50/50 49/49/49
f 50/50/50 58/58/58 52/52/52
f 59/59/59 52/52/52 58/58/58
f 52/52/52 59/59/59 54/54/54
f 60/60/60 54/54/54 59/59/59
f 54/54/54 60/60/60 56/56/56
f 61/61/61 56/56/56 60/60/60
f 56/56/56 61/61/61 28/28/28
f 62/62/62 28/28/28 61/61/61
f 28/28/28 62/62/62 29/29/29
f 63/63/63 29/29/29 62/62/62
f 29/29/29 63/63/63 31/31/31
f 64/64/64 31/31/31 63/63/63
f 31/31/31 64/64/64 33/33/33
f 65/65/65 33/33/33 64/64/64
f 33/33/33 65/65/65 35/35/35
f 46/46/46 35/35/35 65/65/65
f 35/35/35 46/46/46 37/37/37
f 66/66/66 67/67/67 68/68/68
f 67/67/67 66/66/66 69/69/69
f 69/69/69 70/70/70 67/67/67
f 70/70/70 69/69/69 71/71/71
f 71/71/71 72/72/72 70/70/70
f 72/72/72 71/71/71 73/73/73
f 73/73/73 74/74/74 72/72/72
f 74/74/74 73/73/73 75/75/75
f 75/75/75 76/76/76 74/74/74
f 76/76/76 75/75/75 77/77/77
f 77/77/77 78/78/78 76/76/76
f 78/78/78 77/77/77 79/79/79
f 79/79/79 80/80/80 78/78/78
f 80/80/80 79/79/79 81/81/81
f 81/81/81 82/82/82 80/80/80
f 82/82/82 81/81/81 83/83/83
f 83/83/83 84/84/84 82/82/82
f 84/84/84 83/83/83 85/85/85
f 85/85/85 86/86/86 84/84/84
f 86/86/86 85/85/85 87/87/87
f 87/87/87 88/88/88 86/86/86
f 88/88/88 87/87/87 89/89/89
f 89/89/89 90/90/90 88/88/88
f 90/90/90 89/89/89 91/91/91
f 91/91/91 68/92/68 90/90/90
f 68/92/68 91/91/91 66/93/66
f 92/94/92 44/44/44 51/51/51
f 44/44/44 92/94/92 93/95/93
f 93/95/93 42/42/42 44/44/44
f 42/42/42 93/95/93 94/96/94
f 94/96/94 40/40/40 42/42/42
f 40/40/40 94/96/94 95/97/95
f 95/97/95 38/38/38 40/40/40
f 38/38/38 95/97/95 96/98/96
f 96/98/96 36/36/36 38/38/38
f 36/36/36 96/98/96 97/99/97
f 97/99/97 34/34/34 36/36/36
f 34/34/34 97/99/97 98/100/98
f 98/100/98 32/32/32 34/34/34
f 32/32/32 98/100/98 99/101/99
f 99/101/99 30/30/30 32/32/32
f 30/30/30 99/101/99 100/102/100
f 100/102/100 27/27/27 30/30/30
f 27/27/27 100/102/100 101/103/101
f 101/103/101 57/57/57 27/27/27
f 57/57/57 101/103/101 102/104/102
f 102/104/102 55/55/55 57/57/57
f 55/55/55 102/104/102 103/105/103
f 103/105/103 53/53/53 55/55/55
f 53/53/53 103/105/103 104/106/104
f 104/106/104 51/51/51 53/53/53
f 51/51/51 104/106/104 92/94/92
f 105/107/105 66/108/66 91/109/91
f 105/107/105 69/110/69 66/108/66
f 105/107/105 71/111/71 69/110/69
f 105/107/105 73/112/73 71/111/71
f 105/107/105 75/113/75 73/112/73
f 105/107/105 77/114/77 75/113/75
f 105/107/105 79/115/79 77/114/77
f 105/107/105 81/116/81 79/115/79
f 105/107/105 83/117/83 81/116/81
f 105/107/105 85/118/85 83/117/83
f 105/107/105 87/119/87 85/118/85
f 105/107/105 89/120/89 87/119/87
f 105/107/105 91/109/91 89/120/89
f 82/121/82 93/122/93 92/123/92
f 93/122/93 82/121/82 84/124/84
f 84/124/84 94/125/94 93/122/93
f 94/125/94 84/124/84 86/126/86
f 86/126/86 95/127/95 94/125/94
f 95/127/95 86/126/86 88/128/88
f 88/128/88 96/129/96 95/127/95
f 96/129/96 88/128/88 90/130/90
f 90/130/90 97/131/97 96/129/96
f 97/131/97 90/130/90 68/132/68
f 68/132/68 98/133/98 97/131/97
f 98/133/98 68/132/68 67/134/67
f 67/134/67 99/135/99 98/133/98
f 99/135/99 67/134/67 70/136/70
f 70/136/70 100/137/100 99/135/99
f 100/137/100 70/136/70 72/138/72
f 72/138/72 101/139/101 100/137/100
f 101/139/101 72/138/72 74/140/74
f 74/140/74 102/141/102 101/139/101
f 102/141/102 74/140/74 76/142/76
f 76/142/76 103/143/103 102/141/102
f 103/143/103 76/142/76 78/144/78
f 78/144/78 104/145/104 103/143/103
f 104/145/104 78/144/78 80/146/80
f 80/146/80 92/123/92 104/145/104
f 92/123/92 80/146/80 82/121/82
f 58/147/58 26/148/26 14/149/14
f 26/148/26 58/147/58 49/150/49
f 49/150/49 25/151/25 26/148/26
f 25/151/25 49/150/49 48/152/48
f 48/152/48 24/153/24 25/151/25
f 24/153/24 48/152/48 47/154/47
f 47/154/47 23/155/23 24/153/24
f 23/155/23 47/154/47 45/156/45
f 45/156/45 22/157/22 23/155/23
f 22/157/22 45/156/45 46/158/46
f 46/158/46 21/159/21 22/157/22
f 21/159/21 46/158/46 65/160/65
f 65/160/65 20/161/20 21/159/21
f 20/161/20 65/160/65 64/162/64
f 64/162/64 19/163/19 20/161/20
f 19/163/19 64/162/64 63/164/63
f 63/164/63 18/165/18 19/163/19
f 18/165/18 63/164/63 62/166/62
f 62/166/62 17/167/17 18/165/18
f 17/167/17 62/166/62 61/168/61
f 61/168/61 16/169/16 17/167/17
f 16/169/16 61/168/61 60/170/60
f 60/170/60 15/171/15 16/169/16
f 15/171/15 60/170/60 59/172/59
f 59/172/59 14/173/14 15/171/15
f 14/173/14 59/172/59 58/174/58
