# Blender v2.92.0 OBJ File: ''
# www.blender.org
mtllib Battlewagon Wheel 2 L.mtl
o Body_battlewagon_body0_model0.002_Body_battlewagon_body0_model0.005
v -0.327589 -0.341968 0.305665
v -0.327585 -0.343160 -0.303782
v -0.327588 -0.444562 0.111114
v -0.327587 -0.444992 -0.108831
v -0.327582 0.460927 -0.000630
v -0.327586 0.263180 0.377943
v -0.327584 0.408708 0.213027
v -0.327581 0.407873 -0.214080
v -0.327587 0.057680 0.456339
v -0.327581 0.261701 -0.378426
v -0.327588 -0.160712 0.430254
v -0.327582 0.055896 -0.456017
v -0.327583 -0.162393 -0.429079
v -0.293521 -0.374271 -0.331236
v -0.293523 -0.485299 -0.118682
v -0.293524 -0.484830 0.121123
v -0.293525 -0.372973 0.333242
v -0.293524 -0.175350 0.469080
v -0.293523 0.062763 0.497520
v -0.293522 0.286817 0.412045
v -0.293520 0.445486 0.232238
v -0.293517 0.502420 -0.000710
v -0.293516 0.444575 -0.233435
v -0.293517 0.285205 -0.412620
v -0.293517 0.060817 -0.497217
v -0.293519 -0.177183 -0.467847
v 0.088104 -0.175353 0.469082
v 0.088105 0.062760 0.497522
v 0.088107 0.286815 0.412048
v 0.088109 0.445484 0.232240
v 0.088110 0.502418 -0.000708
v 0.088112 0.444573 -0.233433
v 0.088112 0.285202 -0.412618
v 0.088111 0.060815 -0.497215
v 0.088109 -0.177185 -0.467844
v 0.088107 -0.374274 -0.331234
v 0.088105 -0.485301 -0.118680
v 0.088104 -0.484832 0.121126
v 0.088103 -0.372975 0.333244
v 0.125486 0.461121 -0.000627
v 0.125484 0.408880 0.213121
v 0.125483 0.263289 0.378108
v 0.125481 0.057702 0.456536
v 0.125480 -0.160784 0.430441
v 0.125480 -0.342117 0.305799
v 0.125480 -0.444756 0.111164
v 0.125481 -0.445186 -0.108875
v 0.125483 -0.343310 -0.303909
v 0.138551 -0.286542 0.071839
v 0.138551 -0.220301 0.197453
v 0.138552 -0.286819 -0.070169
v 0.138553 -0.221071 -0.196041
v 0.138554 -0.104357 -0.276939
v 0.125485 -0.162466 -0.429260
v 0.125486 0.055917 -0.456210
v 0.125487 0.261809 -0.378585
v 0.125487 0.408044 -0.214169
v 0.138555 0.036582 -0.294332
v 0.138556 0.169461 -0.244235
v 0.138556 0.263838 -0.138124
v 0.138555 0.298093 -0.000308
v 0.138554 0.264378 0.137640
v 0.138553 0.170417 0.244120
v 0.138552 0.037734 0.294736
v 0.138551 -0.103273 0.277894
v 0.001922 -0.041081 0.112939
v 0.031737 0.037735 0.294736
v 0.031736 -0.103272 0.277894
v 0.001923 0.016144 0.119774
v 0.031738 0.170417 0.244119
v 0.001923 0.069990 0.099232
v 0.031739 0.264378 0.137640
v 0.001924 0.108123 0.056019
v 0.031740 0.298094 -0.000309
v 0.001924 0.121805 0.000036
v 0.031741 0.263839 -0.138124
v 0.001924 0.107903 -0.055894
v 0.031741 0.169462 -0.244235
v 0.001924 0.069603 -0.098958
v 0.031741 0.036583 -0.294333
v 0.001924 0.015677 -0.119288
v 0.031740 -0.104357 -0.276940
v 0.001924 -0.041521 -0.112230
v 0.031738 -0.221070 -0.196041
v 0.001923 -0.088887 -0.079399
v 0.031737 -0.286819 -0.070169
v 0.001923 -0.115570 -0.028316
v 0.031737 -0.286541 0.071838
v 0.001923 -0.115457 0.029316
v 0.031736 -0.220300 0.197452
v 0.001922 -0.088575 0.080293
v 0.088503 0.001396 0.000272
v 0.088503 -0.088888 -0.079398
v 0.088503 -0.041522 -0.112229
v 0.088502 -0.115570 -0.028316
v 0.088502 -0.115458 0.029317
v 0.088502 -0.088575 0.080294
v 0.088502 -0.041082 0.112940
v 0.088502 0.016143 0.119775
v 0.088503 0.069990 0.099233
v 0.088503 0.108122 0.056020
v 0.088503 0.121805 0.000037
v 0.088504 0.107903 -0.055893
v 0.088504 0.069602 -0.098957
v 0.088503 0.015676 -0.119288
vt 0.528376 0.543729
vt 0.488430 0.533899
vt 0.517259 0.533889
vt 0.502844 0.530341
vt 0.495443 0.591478
vt 0.523432 0.584568
vt 0.510289 0.591473
vt 0.482295 0.584583
vt 0.531861 0.572347
vt 0.473856 0.572368
vt 0.533645 0.557609
vt 0.472062 0.557631
vt 0.477321 0.543748
vt 0.487128 0.531419
vt 0.502843 0.527539
vt 0.518559 0.531407
vt 0.530680 0.542137
vt 0.536426 0.557270
vt 0.534481 0.573340
vt 0.525290 0.586665
vt 0.510960 0.594192
vt 0.494773 0.594198
vt 0.480438 0.586680
vt 0.471238 0.573363
vt 0.469281 0.557295
vt 0.475015 0.542158
vt 0.606158 0.526490
vt 0.622230 0.500732
vt 0.606158 0.500732
vt 0.622230 0.526490
vt 0.637355 0.500732
vt 0.637355 0.526490
vt 0.651478 0.500732
vt 0.651478 0.526490
vt 0.667202 0.500732
vt 0.667202 0.526490
vt 0.470434 0.526490
vt 0.486143 0.500732
vt 0.470434 0.500732
vt 0.486143 0.526490
vt 0.499727 0.500732
vt 0.499727 0.526490
vt 0.514873 0.500731
vt 0.514873 0.526490
vt 0.530939 0.500731
vt 0.530939 0.526490
vt 0.544242 0.500732
vt 0.544242 0.526490
vt 0.558590 0.500732
vt 0.558590 0.526490
vt 0.574777 0.500732
vt 0.574777 0.526490
vt 0.590088 0.500732
vt 0.590088 0.526490
vt 0.495445 0.591480
vt 0.510971 0.594144
vt 0.510297 0.591439
vt 0.525283 0.586582
vt 0.523429 0.584500
vt 0.534442 0.573235
vt 0.531833 0.572254
vt 0.536349 0.557161
vt 0.533582 0.557505
vt 0.530567 0.542042
vt 0.528277 0.543631
vt 0.518421 0.531342
vt 0.517133 0.533813
vt 0.502694 0.527511
vt 0.502702 0.530299
vt 0.486988 0.531428
vt 0.488291 0.533893
vt 0.474902 0.542195
vt 0.512152 0.543782
vt 0.519120 0.550079
vt 0.502558 0.541432
vt 0.493394 0.543870
vt 0.486561 0.549907
vt 0.477201 0.543773
vt 0.469204 0.557346
vt 0.471973 0.557675
vt 0.471199 0.573410
vt 0.473803 0.572414
vt 0.480431 0.586706
vt 0.482274 0.584614
vt 0.494784 0.594189
vt 0.483044 0.559075
vt 0.484379 0.568640
vt 0.489383 0.575960
vt 0.497982 0.580689
vt 0.508075 0.580472
vt 0.515730 0.576333
vt 0.521379 0.568465
vt 0.522481 0.558589
vt 0.686123 0.551325
vt 0.673853 0.546005
vt 0.674990 0.555523
vt 0.685663 0.547462
vt 0.677270 0.537049
vt 0.687049 0.543828
vt 0.684457 0.530707
vt 0.689966 0.541253
vt 0.693768 0.528431
vt 0.693745 0.540331
vt 0.703071 0.530743
vt 0.697521 0.541269
vt 0.710233 0.537113
vt 0.700427 0.543854
vt 0.713615 0.546083
vt 0.701800 0.547494
vt 0.712440 0.555596
vt 0.701323 0.551355
vt 0.706981 0.563474
vt 0.699107 0.554552
vt 0.698484 0.567912
vt 0.695659 0.556353
vt 0.688898 0.567894
vt 0.691768 0.556345
vt 0.680419 0.563423
vt 0.688328 0.554531
vt 1.571272 0.561394
vt 1.576650 0.567488
vt 1.578866 0.564290
vt 1.573201 0.569288
vt 1.569312 0.569281
vt 1.565871 0.567467
vt 1.563668 0.564261
vt 1.563206 0.560398
vt 1.564593 0.556763
vt 1.567509 0.554190
vt 1.571288 0.553266
vt 1.575063 0.554205
vt 1.577970 0.556789
vt 1.579343 0.560430
vt 0.515521 0.559451
vt 0.514786 0.566129
vt 0.510874 0.571156
vt 0.506379 0.573670
vt 0.499685 0.573842
vt 0.493926 0.570506
vt 0.491084 0.566334
vt 0.490004 0.559808
vt 0.492542 0.553590
vt 0.496761 0.550066
vt 0.502654 0.548425
vt 0.509115 0.550098
vt 0.513382 0.554208
vt 1.768569 0.528215
vt 1.765663 0.534059
vt 1.768569 0.534059
vt 1.765663 0.528215
vt 1.762023 0.534059
vt 1.762023 0.528215
vt 1.758162 0.534059
vt 1.758162 0.528215
vt 1.754964 0.534059
vt 1.754964 0.528215
vt 1.800522 0.528215
vt 1.797074 0.534059
vt 1.800522 0.534059
vt 1.797074 0.528215
vt 1.793184 0.534059
vt 1.793184 0.528215
vt 1.789743 0.534059
vt 1.789743 0.528215
vt 1.786538 0.534059
vt 1.786538 0.528215
vt 1.782675 0.534059
vt 1.782675 0.528215
vt 1.779040 0.534059
vt 1.779040 0.528215
vt 1.776124 0.534059
vt 1.776124 0.528215
vt 1.772344 0.534059
vt 1.772344 0.528215
vn -0.9245 -0.2849 0.2534
vn -0.9245 -0.2859 -0.2523
vn -0.9245 -0.3700 0.0920
vn -0.9245 -0.3703 -0.0905
vn -0.9245 0.3813 -0.0008
vn -0.9245 0.2172 0.3133
vn -0.9245 0.3379 0.1765
vn -0.9245 0.3372 -0.1778
vn -0.9245 0.0467 0.3784
vn -0.9245 0.2160 -0.3142
vn -0.9245 -0.1345 0.3567
vn -0.9245 0.0452 -0.3786
vn -0.9245 -0.1359 -0.3562
vn -0.4041 -0.6858 -0.6052
vn -0.4042 -0.8885 -0.2172
vn -0.4042 -0.8877 0.2206
vn -0.4042 -0.6835 0.6079
vn -0.4042 -0.3227 0.8559
vn -0.4042 0.1120 0.9078
vn -0.4041 0.5211 0.7518
vn -0.4041 0.8108 0.4235
vn -0.4041 0.9147 -0.0018
vn -0.4041 0.8091 -0.4267
vn -0.4041 0.5181 -0.7538
vn -0.4041 0.1085 -0.9082
vn -0.4041 -0.3260 -0.8546
vn 0.3843 -0.3257 0.8639
vn 0.3843 0.1131 0.9163
vn 0.3843 0.5259 0.7588
vn 0.3843 0.8183 0.4274
vn 0.3843 0.9232 -0.0018
vn 0.3843 0.8166 -0.4306
vn 0.3843 0.5230 -0.7608
vn 0.3843 0.1095 -0.9167
vn 0.3843 -0.3291 -0.8626
vn 0.3843 -0.6922 -0.6109
vn 0.3843 -0.8968 -0.2192
vn 0.3843 -0.8960 0.2227
vn 0.3843 -0.6898 0.6136
vn 0.8996 0.4366 -0.0008
vn 0.8996 0.3870 0.2022
vn 0.8996 0.2487 0.3589
vn 0.8996 0.0535 0.4334
vn 0.8996 -0.1540 0.4086
vn 0.8996 -0.3263 0.2902
vn 0.8996 -0.4238 0.1053
vn 0.8996 -0.4242 -0.1037
vn 0.8996 -0.3274 -0.2889
vn 0.7944 0.5894 -0.1465
vn 0.7944 0.4538 -0.4036
vn 0.7944 0.5900 0.1442
vn 0.7944 0.4554 0.4019
vn 0.7944 0.2165 0.5675
vn 0.8996 -0.1556 -0.4080
vn 0.8996 0.0518 -0.4335
vn 0.8996 0.2473 -0.3598
vn 0.8996 0.3862 -0.2037
vn 0.7944 -0.0720 0.6031
vn 0.7944 -0.3440 0.5005
vn 0.7944 -0.5372 0.2833
vn 0.7944 -0.6074 0.0012
vn 0.7944 -0.5384 -0.2812
vn 0.7944 -0.3460 -0.4992
vn 0.7944 -0.0744 -0.6028
vn 0.7944 0.2143 -0.5683
vn 0.8244 -0.1997 0.5297
vn 0.6007 -0.0979 -0.7934
vn 0.6007 0.2820 -0.7481
vn 0.8244 0.0693 0.5618
vn 0.6007 -0.4554 -0.6571
vn 0.8244 0.3225 0.4652
vn 0.6007 -0.7086 -0.3701
vn 0.8244 0.5017 0.2621
vn 0.6007 -0.7995 0.0016
vn 0.8244 0.5661 -0.0011
vn 0.6007 -0.7072 0.3729
vn 0.8244 0.5007 -0.2640
vn 0.6007 -0.4529 0.6588
vn 0.8244 0.3206 -0.4665
vn 0.6007 -0.0948 0.7938
vn 0.8244 0.0671 -0.5621
vn 0.6007 0.2850 0.7470
vn 0.8244 -0.2018 -0.5289
vn 0.6007 0.5994 0.5290
vn 0.8244 -0.4244 -0.3745
vn 0.6007 0.7766 0.1898
vn 0.8244 -0.5499 -0.1344
vn 0.6007 0.7759 -0.1928
vn 0.8244 -0.5493 0.1365
vn 0.6007 0.5974 -0.5313
vn 0.8244 -0.4230 0.3762
vn 1.0000 -0.0000 0.0000
vn 0.6570 -0.5653 -0.4988
vn 0.6570 -0.2687 -0.7044
vn 0.6570 -0.7323 -0.1790
vn 0.6570 -0.7316 0.1819
vn 0.6570 -0.5633 0.5010
vn 0.6570 -0.2660 0.7054
vn 0.6570 0.0923 0.7482
vn 0.6570 0.4295 0.6196
vn 0.6570 0.6682 0.3490
vn 0.6570 0.7539 -0.0015
vn 0.6570 0.6668 -0.3516
vn 0.6570 0.4270 -0.6213
vn 0.6570 0.0894 -0.7486
usemtl battlewagon_dif
s 1
f 1/1/1 2/2/2 3/3/3
f 4/4/4 3/3/3 2/2/2
f 5/5/5 6/6/6 7/7/7
f 6/6/6 5/5/5 8/8/8
f 8/8/8 9/9/9 6/6/6
f 9/9/9 8/8/8 10/10/10
f 10/10/10 11/11/11 9/9/9
f 11/11/11 10/10/10 12/12/12
f 12/12/12 1/1/1 11/11/11
f 1/1/1 12/12/12 13/13/13
f 2/2/2 1/1/1 13/13/13
f 13/13/13 14/14/14 2/2/2
f 15/15/15 2/2/2 14/14/14
f 2/2/2 15/15/15 4/4/4
f 16/16/16 4/4/4 15/15/15
f 4/4/4 16/16/16 3/3/3
f 17/17/17 3/3/3 16/16/16
f 3/3/3 17/17/17 1/1/1
f 18/18/18 1/1/1 17/17/17
f 1/1/1 18/18/18 11/11/11
f 19/19/19 11/11/11 18/18/18
f 11/11/11 19/19/19 9/9/9
f 20/20/20 9/9/9 19/19/19
f 9/9/9 20/20/20 6/6/6
f 21/21/21 6/6/6 20/20/20
f 6/6/6 21/21/21 7/7/7
f 22/22/22 7/7/7 21/21/21
f 7/7/7 22/22/22 5/5/5
f 23/23/23 5/5/5 22/22/22
f 5/5/5 23/23/23 8/8/8
f 24/24/24 8/8/8 23/23/23
f 8/8/8 24/24/24 10/10/10
f 25/25/25 10/10/10 24/24/24
f 10/10/10 25/25/25 12/12/12
f 26/26/26 12/12/12 25/25/25
f 12/12/12 26/26/26 13/13/13
f 14/14/14 13/13/13 26/26/26
f 27/27/27 19/28/19 18/29/18
f 19/28/19 27/27/27 28/30/28
f 28/30/28 20/31/20 19/28/19
f 20/31/20 28/30/28 29/32/29
f 29/32/29 21/33/21 20/31/20
f 21/33/21 29/32/29 30/34/30
f 30/34/30 22/35/22 21/33/21
f 22/35/22 30/34/30 31/36/31
f 31/37/31 23/38/23 22/39/22
f 23/38/23 31/37/31 32/40/32
f 32/40/32 24/41/24 23/38/23
f 24/41/24 32/40/32 33/42/33
f 33/42/33 25/43/25 24/41/24
f 25/43/25 33/42/33 34/44/34
f 34/44/34 26/45/26 25/43/25
f 26/45/26 34/44/34 35/46/35
f 35/46/35 14/47/14 26/45/26
f 14/47/14 35/46/35 36/48/36
f 36/48/36 15/49/15 14/47/14
f 15/49/15 36/48/36 37/50/37
f 37/50/37 16/51/16 15/49/15
f 16/51/16 37/50/37 38/52/38
f 38/52/38 17/53/17 16/51/16
f 17/53/17 38/52/38 39/54/39
f 39/54/39 18/29/18 17/53/17
f 18/29/18 39/54/39 27/27/27
f 40/55/40 30/56/30 41/57/41
f 29/58/29 41/57/41 30/56/30
f 41/57/41 29/58/29 42/59/42
f 28/60/28 42/59/42 29/58/29
f 42/59/42 28/60/28 43/61/43
f 27/62/27 43/61/43 28/60/28
f 43/61/43 27/62/27 44/63/44
f 39/64/39 44/63/44 27/62/27
f 44/63/44 39/64/39 45/65/45
f 38/66/38 45/65/45 39/64/39
f 45/65/45 38/66/38 46/67/46
f 37/68/37 46/67/46 38/66/38
f 46/67/46 37/68/37 47/69/47
f 36/70/36 47/69/47 37/68/37
f 47/69/47 36/70/36 48/71/48
f 35/72/35 48/71/48 36/70/36
f 45/65/45 49/73/49 50/74/50
f 49/73/49 45/65/45 46/67/46
f 46/67/46 51/75/51 49/73/49
f 51/75/51 46/67/46 47/69/47
f 47/69/47 52/76/52 51/75/51
f 52/76/52 47/69/47 48/71/48
f 48/71/48 53/77/53 52/76/52
f 53/77/53 48/71/48 54/78/54
f 48/71/48 35/72/35 54/78/54
f 34/79/34 54/78/54 35/72/35
f 54/78/54 34/79/34 55/80/55
f 33/81/33 55/80/55 34/79/34
f 55/80/55 33/81/33 56/82/56
f 32/83/32 56/82/56 33/81/33
f 56/82/56 32/83/32 57/84/57
f 31/85/31 57/84/57 32/83/32
f 57/84/57 31/85/31 40/55/40
f 30/56/30 40/55/40 31/85/31
f 54/78/54 58/86/58 53/77/53
f 58/86/58 54/78/54 55/80/55
f 55/80/55 59/87/59 58/86/58
f 59/87/59 55/80/55 56/82/56
f 56/82/56 60/88/60 59/87/59
f 60/88/60 56/82/56 57/84/57
f 57/84/57 61/89/61 60/88/60
f 61/89/61 57/84/57 40/55/40
f 40/55/40 62/90/62 61/89/61
f 62/90/62 40/55/40 41/57/41
f 41/57/41 63/91/63 62/90/62
f 63/91/63 41/57/41 42/59/42
f 42/59/42 64/92/64 63/91/63
f 64/92/64 42/59/42 43/61/43
f 43/61/43 65/93/65 64/92/64
f 65/93/65 43/61/43 44/63/44
f 44/63/44 50/74/50 65/93/65
f 50/74/50 44/63/44 45/65/45
f 66/94/66 67/95/67 68/96/68
f 67/95/67 66/94/66 69/97/69
f 69/97/69 70/98/70 67/95/67
f 70/98/70 69/97/69 71/99/71
f 71/99/71 72/100/72 70/98/70
f 72/100/72 71/99/71 73/101/73
f 73/101/73 74/102/74 72/100/72
f 74/102/74 73/101/73 75/103/75
f 75/103/75 76/104/76 74/102/74
f 76/104/76 75/103/75 77/105/77
f 77/105/77 78/106/78 76/104/76
f 78/106/78 77/105/77 79/107/79
f 79/107/79 80/108/80 78/106/78
f 80/108/80 79/107/79 81/109/81
f 81/109/81 82/110/82 80/108/80
f 82/110/82 81/109/81 83/111/83
f 83/111/83 84/112/84 82/110/82
f 84/112/84 83/111/83 85/113/85
f 85/113/85 86/114/86 84/112/84
f 86/114/86 85/113/85 87/115/87
f 87/115/87 88/116/88 86/114/86
f 88/116/88 87/115/87 89/117/89
f 89/117/89 90/118/90 88/116/88
f 90/118/90 89/117/89 91/119/91
f 91/119/91 68/96/68 90/118/90
f 68/96/68 91/119/91 66/94/66
f 92/120/92 93/121/93 94/122/94
f 92/120/92 95/123/95 93/121/93
f 92/120/92 96/124/96 95/123/95
f 92/120/92 97/125/97 96/124/96
f 92/120/92 98/126/98 97/125/97
f 92/120/92 99/127/99 98/126/98
f 92/120/92 100/128/100 99/127/99
f 92/120/92 101/129/101 100/128/100
f 92/120/92 102/130/102 101/129/101
f 92/120/92 103/131/103 102/130/102
f 92/120/92 104/132/104 103/131/103
f 92/120/92 105/133/105 104/132/104
f 92/120/92 94/122/94 105/133/105
f 68/134/68 64/92/64 65/93/65
f 64/92/64 68/134/68 67/135/67
f 67/135/67 63/91/63 64/92/64
f 63/91/63 67/135/67 70/136/70
f 70/136/70 62/90/62 63/91/63
f 62/90/62 70/136/70 72/137/72
f 72/137/72 61/89/61 62/90/62
f 61/89/61 72/137/72 74/138/74
f 74/138/74 60/88/60 61/89/61
f 60/88/60 74/138/74 76/139/76
f 76/139/76 59/87/59 60/88/60
f 59/87/59 76/139/76 78/140/78
f 78/140/78 58/86/58 59/87/59
f 58/86/58 78/140/78 80/141/80
f 80/141/80 53/77/53 58/86/58
f 53/77/53 80/141/80 82/142/82
f 82/142/82 52/76/52 53/77/53
f 52/76/52 82/142/82 84/143/84
f 84/143/84 51/75/51 52/76/52
f 51/75/51 84/143/84 86/144/86
f 86/144/86 49/73/49 51/75/51
f 49/73/49 86/144/86 88/145/88
f 88/145/88 50/74/50 49/73/49
f 50/74/50 88/145/88 90/146/90
f 90/146/90 65/93/65 50/74/50
f 65/93/65 90/146/90 68/134/68
f 103/147/103 79/148/79 77/149/77
f 79/148/79 103/147/103 104/150/104
f 104/150/104 81/151/81 79/148/79
f 81/151/81 104/150/104 105/152/105
f 105/152/105 83/153/83 81/151/81
f 83/153/83 105/152/105 94/154/94
f 94/154/94 85/155/85 83/153/83
f 85/155/85 94/154/94 93/156/93
f 93/157/93 87/158/87 85/159/85
f 87/158/87 93/157/93 95/160/95
f 95/160/95 89/161/89 87/158/87
f 89/161/89 95/160/95 96/162/96
f 96/162/96 91/163/91 89/161/89
f 91/163/91 96/162/96 97/164/97
f 97/164/97 66/165/66 91/163/91
f 66/165/66 97/164/97 98/166/98
f 98/166/98 69/167/69 66/165/66
f 69/167/69 98/166/98 99/168/99
f 99/168/99 71/169/71 69/167/69
f 71/169/71 99/168/99 100/170/100
f 100/170/100 73/171/73 71/169/71
f 73/171/73 100/170/100 101/172/101
f 101/172/101 75/173/75 73/171/73
f 75/173/75 101/172/101 102/174/102
f 102/174/102 77/149/77 75/173/75
f 77/149/77 102/174/102 103/147/103
