v 0.049727 0.1144 0.94885
v 0.0 0.0 0.984252
v 0.102882 0.0 0.97886
v 0.148637 0.1144 0.938454
v 0.098513 0.1248 0.937289
v 0.0 0.1248 0.942452
v 0.048633 0.13 0.927978
v 0.145367 0.13 0.917811
v 0.204637 0.0 0.962744
v 0.245917 0.1144 0.917776
v 0.195947 0.1248 0.921857
v 0.240508 0.13 0.897588
v 0.145367 0.13 0.917811
v 0.240508 0.13 0.897588
v 0.048633 0.13 0.927978
v 0.102882 0.0 0.97886
v 0.0 0.0 0.984252
v 0.204637 0.0 0.962744
v 0.304151 0.0 0.936079
v 0.340504 0.1144 0.887043
v 0.291234 0.1248 0.896325
v 0.333014 0.13 0.867531
v 0.333014 0.13 0.867531
v 0.304151 0.0 0.936079
v 0.400331 0.0 0.899159
v 0.43136 0.1144 0.846592
v 0.38333 0.1248 0.860973
v 0.421872 0.13 0.82797
v 0.421872 0.13 0.82797
v 0.400331 0.0 0.899159
v 0.492126 0.0 0.852387
v 0.51749 0.1144 0.796864
v 0.471226 0.1248 0.816187
v 0.506107 0.13 0.779336
v 0.506107 0.13 0.779336
v 0.492126 0.0 0.852387
v 0.578529 0.0 0.796277
v 0.59795 0.1144 0.738407
v 0.553959 0.1248 0.76246
v 0.584797 0.13 0.722164
v 0.584797 0.13 0.722164
v 0.578529 0.0 0.796277
v 0.658593 0.0 0.731442
v 0.671859 0.1144 0.671859
v 0.630623 0.1248 0.700378
v 0.65708 0.13 0.65708
v 0.65708 0.13 0.65708
v 0.658593 0.0 0.731442
v 0.731442 0.0 0.658593
v 0.738407 0.1144 0.59795
v 0.700378 0.1248 0.630623
v 0.722164 0.13 0.584797
v 0.722164 0.13 0.584797
v 0.731442 0.0 0.658593
v 0.796277 0.0 0.578529
v 0.796864 0.1144 0.51749
v 0.76246 0.1248 0.553959
v 0.779336 0.13 0.506107
v 0.779336 0.13 0.506107
v 0.796277 0.0 0.578529
v 0.852387 0.0 0.492126
v 0.846592 0.1144 0.43136
v 0.816187 0.1248 0.471226
v 0.82797 0.13 0.421872
v 0.82797 0.13 0.421872
v 0.852387 0.0 0.492126
v 0.899159 0.0 0.400331
v 0.887043 0.1144 0.340504
v 0.860973 0.1248 0.38333
v 0.867531 0.13 0.333014
v 0.867531 0.13 0.333014
v 0.899159 0.0 0.400331
v 0.936079 0.0 0.304151
v 0.917776 0.1144 0.245917
v 0.896325 0.1248 0.291234
v 0.897588 0.13 0.240508
v 0.897588 0.13 0.240508
v 0.936079 0.0 0.304151
v 0.962744 0.0 0.204637
v 0.938454 0.1144 0.148637
v 0.921857 0.1248 0.195947
v 0.917811 0.13 0.145367
v 0.917811 0.13 0.145367
v 0.962744 0.0 0.204637
v 0.97886 0.0 0.102882
v 0.94885 0.1144 0.049727
v 0.937289 0.1248 0.098513
v 0.927978 0.13 0.048633
v 0.927978 0.13 0.048633
v 0.97886 0.0 0.102882
v 0.984252 0.0 0.0
v 0.94885 0.1144 -0.049727
v 0.942452 0.1248 0.0
v 0.927978 0.13 -0.048633
v 0.927978 0.13 -0.048633
v 0.984252 0.0 0.0
v 0.97886 0.0 -0.102882
v 0.938454 0.1144 -0.148637
v 0.937289 0.1248 -0.098513
v 0.917811 0.13 -0.145367
v 0.917811 0.13 -0.145367
v 0.97886 0.0 -0.102882
v 0.962744 0.0 -0.204637
v 0.917776 0.1144 -0.245917
v 0.921857 0.1248 -0.195947
v 0.897588 0.13 -0.240508
v 0.897588 0.13 -0.240508
v 0.962744 0.0 -0.204637
v 0.936079 0.0 -0.304151
v 0.887043 0.1144 -0.340504
v 0.896325 0.1248 -0.291234
v 0.867531 0.13 -0.333014
v 0.867531 0.13 -0.333014
v 0.936079 0.0 -0.304151
v 0.899159 0.0 -0.400331
v 0.846592 0.1144 -0.43136
v 0.860973 0.1248 -0.38333
v 0.82797 0.13 -0.421872
v 0.82797 0.13 -0.421872
v 0.899159 0.0 -0.400331
v 0.852387 0.0 -0.492126
v 0.796864 0.1144 -0.51749
v 0.816187 0.1248 -0.471226
v 0.779336 0.13 -0.506107
v 0.779336 0.13 -0.506107
v 0.852387 0.0 -0.492126
v 0.796277 0.0 -0.578529
v 0.738407 0.1144 -0.59795
v 0.76246 0.1248 -0.553959
v 0.722164 0.13 -0.584797
v 0.722164 0.13 -0.584797
v 0.796277 0.0 -0.578529
v 0.731442 0.0 -0.658593
v 0.671859 0.1144 -0.671859
v 0.700378 0.1248 -0.630623
v 0.65708 0.13 -0.65708
v 0.65708 0.13 -0.65708
v 0.731442 0.0 -0.658593
v 0.658593 0.0 -0.731442
v 0.59795 0.1144 -0.738407
v 0.630623 0.1248 -0.700378
v 0.584797 0.13 -0.722164
v 0.584797 0.13 -0.722164
v 0.658593 0.0 -0.731442
v 0.578529 0.0 -0.796277
v 0.51749 0.1144 -0.796864
v 0.553959 0.1248 -0.76246
v 0.506107 0.13 -0.779336
v 0.506107 0.13 -0.779336
v 0.578529 0.0 -0.796277
v 0.492126 0.0 -0.852387
v 0.43136 0.1144 -0.846592
v 0.471226 0.1248 -0.816187
v 0.421872 0.13 -0.82797
v 0.421872 0.13 -0.82797
v 0.492126 0.0 -0.852387
v 0.400331 0.0 -0.899159
v 0.340504 0.1144 -0.887043
v 0.38333 0.1248 -0.860973
v 0.333014 0.13 -0.867531
v 0.333014 0.13 -0.867531
v 0.400331 0.0 -0.899159
v 0.304151 0.0 -0.936079
v 0.245917 0.1144 -0.917776
v 0.291234 0.1248 -0.896325
v 0.240508 0.13 -0.897588
v 0.240508 0.13 -0.897588
v 0.304151 0.0 -0.936079
v 0.204637 0.0 -0.962744
v 0.148637 0.1144 -0.938454
v 0.195947 0.1248 -0.921857
v 0.145367 0.13 -0.917811
v 0.145367 0.13 -0.917811
v 0.204637 0.0 -0.962744
v 0.102882 0.0 -0.97886
v 0.049727 0.1144 -0.94885
v 0.098513 0.1248 -0.937289
v 0.048633 0.13 -0.927978
v 0.048633 0.13 -0.927978
v 0.102882 0.0 -0.97886
v 0.0 0.0 -0.984252
v -0.049727 0.1144 -0.94885
v 0.0 0.1248 -0.942452
v -0.048633 0.13 -0.927978
v -0.048633 0.13 -0.927978
v 0.0 0.0 -0.984252
v -0.102882 0.0 -0.97886
v -0.148637 0.1144 -0.938454
v -0.098513 0.1248 -0.937289
v -0.145367 0.13 -0.917811
v -0.145367 0.13 -0.917811
v -0.102882 0.0 -0.97886
v -0.204637 0.0 -0.962744
v -0.245917 0.1144 -0.917776
v -0.195947 0.1248 -0.921857
v -0.240508 0.13 -0.897588
v -0.240508 0.13 -0.897588
v -0.204637 0.0 -0.962744
v -0.304151 0.0 -0.936079
v -0.340504 0.1144 -0.887043
v -0.291234 0.1248 -0.896325
v -0.333014 0.13 -0.867531
v -0.333014 0.13 -0.867531
v -0.304151 0.0 -0.936079
v -0.400331 0.0 -0.899159
v -0.43136 0.1144 -0.846592
v -0.38333 0.1248 -0.860973
v -0.421872 0.13 -0.82797
v -0.421872 0.13 -0.82797
v -0.400331 0.0 -0.899159
v -0.492126 0.0 -0.852387
v -0.51749 0.1144 -0.796864
v -0.471226 0.1248 -0.816187
v -0.506107 0.13 -0.779336
v -0.506107 0.13 -0.779336
v -0.492126 0.0 -0.852387
v -0.578529 0.0 -0.796277
v -0.59795 0.1144 -0.738407
v -0.553959 0.1248 -0.76246
v -0.584797 0.13 -0.722164
v -0.584797 0.13 -0.722164
v -0.578529 0.0 -0.796277
v -0.658593 0.0 -0.731442
v -0.671859 0.1144 -0.671859
v -0.630623 0.1248 -0.700378
v -0.65708 0.13 -0.65708
v -0.65708 0.13 -0.65708
v -0.658593 0.0 -0.731442
v -0.731442 0.0 -0.658593
v -0.738407 0.1144 -0.59795
v -0.700378 0.1248 -0.630623
v -0.722164 0.13 -0.584797
v -0.722164 0.13 -0.584797
v -0.731442 0.0 -0.658593
v -0.796277 0.0 -0.578529
v -0.796864 0.1144 -0.51749
v -0.76246 0.1248 -0.553959
v -0.779336 0.13 -0.506107
v -0.779336 0.13 -0.506107
v -0.796277 0.0 -0.578529
v -0.852387 0.0 -0.492126
v -0.846592 0.1144 -0.43136
v -0.816187 0.1248 -0.471226
v -0.82797 0.13 -0.421872
v -0.82797 0.13 -0.421872
v -0.852387 0.0 -0.492126
v -0.899159 0.0 -0.400331
v -0.887043 0.1144 -0.340504
v -0.860973 0.1248 -0.38333
v -0.867531 0.13 -0.333014
v -0.867531 0.13 -0.333014
v -0.899159 0.0 -0.400331
v -0.936079 0.0 -0.304151
v -0.917776 0.1144 -0.245917
v -0.896325 0.1248 -0.291234
v -0.897588 0.13 -0.240508
v -0.897588 0.13 -0.240508
v -0.936079 0.0 -0.304151
v -0.962744 0.0 -0.204637
v -0.938454 0.1144 -0.148637
v -0.921857 0.1248 -0.195947
v -0.917811 0.13 -0.145367
v -0.917811 0.13 -0.145367
v -0.962744 0.0 -0.204637
v -0.97886 0.0 -0.102882
v -0.94885 0.1144 -0.049727
v -0.937289 0.1248 -0.098513
v -0.927978 0.13 -0.048633
v -0.927978 0.13 -0.048633
v -0.97886 0.0 -0.102882
v -0.984252 0.0 -0.0
v -0.94885 0.1144 0.049727
v -0.942452 0.1248 -0.0
v -0.927978 0.13 0.048633
v -0.927978 0.13 0.048633
v -0.984252 0.0 -0.0
v -0.97886 0.0 0.102882
v -0.938454 0.1144 0.148637
v -0.937289 0.1248 0.098513
v -0.917811 0.13 0.145367
v -0.917811 0.13 0.145367
v -0.97886 0.0 0.102882
v -0.962744 0.0 0.204637
v -0.917776 0.1144 0.245917
v -0.921857 0.1248 0.195947
v -0.897588 0.13 0.240508
v -0.897588 0.13 0.240508
v -0.962744 0.0 0.204637
v -0.936079 0.0 0.304151
v -0.887043 0.1144 0.340504
v -0.896325 0.1248 0.291234
v -0.867531 0.13 0.333014
v -0.867531 0.13 0.333014
v -0.936079 0.0 0.304151
v -0.899159 0.0 0.400331
v -0.846592 0.1144 0.43136
v -0.860973 0.1248 0.38333
v -0.82797 0.13 0.421872
v -0.82797 0.13 0.421872
v -0.899159 0.0 0.400331
v -0.852387 0.0 0.492126
v -0.796864 0.1144 0.51749
v -0.816187 0.1248 0.471226
v -0.779336 0.13 0.506107
v -0.779336 0.13 0.506107
v -0.852387 0.0 0.492126
v -0.796277 0.0 0.578529
v -0.738407 0.1144 0.59795
v -0.76246 0.1248 0.553959
v -0.722164 0.13 0.584797
v -0.722164 0.13 0.584797
v -0.796277 0.0 0.578529
v -0.731442 0.0 0.658593
v -0.671859 0.1144 0.671859
v -0.700378 0.1248 0.630623
v -0.65708 0.13 0.65708
v -0.65708 0.13 0.65708
v -0.731442 0.0 0.658593
v -0.658593 0.0 0.731442
v -0.59795 0.1144 0.738407
v -0.630623 0.1248 0.700378
v -0.584797 0.13 0.722164
v -0.584797 0.13 0.722164
v -0.658593 0.0 0.731442
v -0.578529 0.0 0.796277
v -0.51749 0.1144 0.796864
v -0.553959 0.1248 0.76246
v -0.506107 0.13 0.779336
v -0.506107 0.13 0.779336
v -0.578529 0.0 0.796277
v -0.492126 0.0 0.852387
v -0.43136 0.1144 0.846592
v -0.471226 0.1248 0.816187
v -0.421872 0.13 0.82797
v -0.421872 0.13 0.82797
v -0.492126 0.0 0.852387
v -0.400331 0.0 0.899159
v -0.340504 0.1144 0.887043
v -0.38333 0.1248 0.860973
v -0.333014 0.13 0.867531
v -0.333014 0.13 0.867531
v -0.400331 0.0 0.899159
v -0.304151 0.0 0.936079
v -0.245917 0.1144 0.917776
v -0.291234 0.1248 0.896325
v -0.240508 0.13 0.897588
v -0.240508 0.13 0.897588
v -0.304151 0.0 0.936079
v -0.204637 0.0 0.962744
v -0.148637 0.1144 0.938454
v -0.195947 0.1248 0.921857
v -0.145367 0.13 0.917811
v -0.145367 0.13 0.917811
v -0.204637 0.0 0.962744
v -0.102882 0.0 0.97886
v -0.049727 0.1144 0.94885
v -0.098513 0.1248 0.937289
v -0.048633 0.13 0.927978
v -0.048633 0.13 0.927978
v -0.102882 0.0 0.97886


vn 0.045324 0.5 0.864839
vn 0.0 0.0 1.0
vn 0.104528 0.0 0.994522
vn 0.135476 0.5 0.855363
vn 0.052264 0.866025 0.497261
vn 0.0 0.866025 0.5
vn 0.0 1.0 0.0
vn 0.0 1.0 0.0
vn 0.207912 0.0 0.978148
vn 0.224144 0.5 0.836516
vn 0.103956 0.866025 0.489074
vn 0.0 1.0 0.0
vn 0.0 1.0 0.0
vn 0.0 1.0 0.0
vn 0.0 1.0 0.0
vn 0.0 -1.0 0.0
vn 0.0 -1.0 0.0
vn 0.0 -1.0 0.0
vn 0.309017 0.0 0.951057
vn 0.310356 0.5 0.808504
vn 0.154508 0.866025 0.475528
vn 0.0 1.0 0.0
vn 0.0 1.0 0.0
vn 0.0 -1.0 0.0
vn 0.406737 0.0 0.913545
vn 0.393167 0.5 0.771634
vn 0.203368 0.866025 0.456773
vn 0.0 1.0 0.0
vn 0.0 1.0 0.0
vn 0.0 -1.0 0.0
vn 0.5 0.0 0.866025
vn 0.471671 0.5 0.72631
vn 0.25 0.866025 0.433013
vn 0.0 1.0 0.0
vn 0.0 1.0 0.0
vn 0.0 -1.0 0.0
vn 0.587785 0.0 0.809017
vn 0.545007 0.5 0.673028
vn 0.293893 0.866025 0.404508
vn 0.0 1.0 0.0
vn 0.0 1.0 0.0
vn 0.0 -1.0 0.0
vn 0.669131 0.0 0.743145
vn 0.612372 0.5 0.612372
vn 0.334565 0.866025 0.371572
vn 0.0 1.0 0.0
vn 0.0 1.0 0.0
vn 0.0 -1.0 0.0
vn 0.743145 0.0 0.669131
vn 0.673028 0.5 0.545007
vn 0.371572 0.866025 0.334565
vn 0.0 1.0 0.0
vn 0.0 1.0 0.0
vn 0.0 -1.0 0.0
vn 0.809017 0.0 0.587785
vn 0.72631 0.5 0.471671
vn 0.404508 0.866025 0.293893
vn 0.0 1.0 0.0
vn 0.0 1.0 0.0
vn 0.0 -1.0 0.0
vn 0.866025 0.0 0.5
vn 0.771634 0.5 0.393167
vn 0.433013 0.866025 0.25
vn 0.0 1.0 0.0
vn 0.0 1.0 0.0
vn 0.0 -1.0 0.0
vn 0.913545 0.0 0.406737
vn 0.808504 0.5 0.310356
vn 0.456773 0.866025 0.203368
vn 0.0 1.0 0.0
vn 0.0 1.0 0.0
vn 0.0 -1.0 0.0
vn 0.951057 0.0 0.309017
vn 0.836516 0.5 0.224144
vn 0.475528 0.866025 0.154508
vn 0.0 1.0 0.0
vn 0.0 1.0 0.0
vn 0.0 -1.0 0.0
vn 0.978148 0.0 0.207912
vn 0.855363 0.5 0.135476
vn 0.489074 0.866025 0.103956
vn 0.0 1.0 0.0
vn 0.0 1.0 0.0
vn 0.0 -1.0 0.0
vn 0.994522 0.0 0.104528
vn 0.864839 0.5 0.045324
vn 0.497261 0.866025 0.052264
vn 0.0 1.0 0.0
vn 0.0 1.0 0.0
vn 0.0 -1.0 0.0
vn 1.0 0.0 0.0
vn 0.864839 0.5 -0.045324
vn 0.5 0.866025 0.0
vn 0.0 1.0 -0.0
vn 0.0 1.0 -0.0
vn 0.0 -1.0 0.0
vn 0.994522 0.0 -0.104528
vn 0.855363 0.5 -0.135476
vn 0.497261 0.866025 -0.052264
vn 0.0 1.0 -0.0
vn 0.0 1.0 -0.0
vn 0.0 -1.0 -0.0
vn 0.978148 0.0 -0.207912
vn 0.836516 0.5 -0.224144
vn 0.489074 0.866025 -0.103956
vn 0.0 1.0 -0.0
vn 0.0 1.0 -0.0
vn 0.0 -1.0 -0.0
vn 0.951057 0.0 -0.309017
vn 0.808504 0.5 -0.310356
vn 0.475528 0.866025 -0.154508
vn 0.0 1.0 -0.0
vn 0.0 1.0 -0.0
vn 0.0 -1.0 -0.0
vn 0.913545 0.0 -0.406737
vn 0.771634 0.5 -0.393167
vn 0.456773 0.866025 -0.203368
vn 0.0 1.0 -0.0
vn 0.0 1.0 -0.0
vn 0.0 -1.0 -0.0
vn 0.866025 0.0 -0.5
vn 0.72631 0.5 -0.471671
vn 0.433013 0.866025 -0.25
vn 0.0 1.0 -0.0
vn 0.0 1.0 -0.0
vn 0.0 -1.0 -0.0
vn 0.809017 0.0 -0.587785
vn 0.673028 0.5 -0.545007
vn 0.404508 0.866025 -0.293893
vn 0.0 1.0 -0.0
vn 0.0 1.0 -0.0
vn 0.0 -1.0 -0.0
vn 0.743145 0.0 -0.669131
vn 0.612372 0.5 -0.612372
vn 0.371572 0.866025 -0.334565
vn 0.0 1.0 -0.0
vn 0.0 1.0 -0.0
vn 0.0 -1.0 -0.0
vn 0.669131 0.0 -0.743145
vn 0.545007 0.5 -0.673028
vn 0.334565 0.866025 -0.371572
vn 0.0 1.0 -0.0
vn 0.0 1.0 -0.0
vn 0.0 -1.0 -0.0
vn 0.587785 0.0 -0.809017
vn 0.471671 0.5 -0.72631
vn 0.293893 0.866025 -0.404508
vn 0.0 1.0 -0.0
vn 0.0 1.0 -0.0
vn 0.0 -1.0 -0.0
vn 0.5 0.0 -0.866025
vn 0.393167 0.5 -0.771634
vn 0.25 0.866025 -0.433013
vn 0.0 1.0 -0.0
vn 0.0 1.0 -0.0
vn 0.0 -1.0 -0.0
vn 0.406737 0.0 -0.913545
vn 0.310356 0.5 -0.808504
vn 0.203368 0.866025 -0.456773
vn 0.0 1.0 -0.0
vn 0.0 1.0 -0.0
vn 0.0 -1.0 -0.0
vn 0.309017 0.0 -0.951057
vn 0.224144 0.5 -0.836516
vn 0.154508 0.866025 -0.475528
vn 0.0 1.0 -0.0
vn 0.0 1.0 -0.0
vn 0.0 -1.0 -0.0
vn 0.207912 0.0 -0.978148
vn 0.135476 0.5 -0.855363
vn 0.103956 0.866025 -0.489074
vn 0.0 1.0 -0.0
vn 0.0 1.0 -0.0
vn 0.0 -1.0 -0.0
vn 0.104528 0.0 -0.994522
vn 0.045324 0.5 -0.864839
vn 0.052264 0.866025 -0.497261
vn 0.0 1.0 -0.0
vn 0.0 1.0 -0.0
vn 0.0 -1.0 -0.0
vn 0.0 0.0 -1.0
vn -0.045324 0.5 -0.864839
vn 0.0 0.866025 -0.5
vn -0.0 1.0 -0.0
vn -0.0 1.0 -0.0
vn 0.0 -1.0 -0.0
vn -0.104528 0.0 -0.994522
vn -0.135476 0.5 -0.855363
vn -0.052264 0.866025 -0.497261
vn -0.0 1.0 -0.0
vn -0.0 1.0 -0.0
vn -0.0 -1.0 -0.0
vn -0.207912 0.0 -0.978148
vn -0.224144 0.5 -0.836516
vn -0.103956 0.866025 -0.489074
vn -0.0 1.0 -0.0
vn -0.0 1.0 -0.0
vn -0.0 -1.0 -0.0
vn -0.309017 0.0 -0.951057
vn -0.310356 0.5 -0.808504
vn -0.154508 0.866025 -0.475528
vn -0.0 1.0 -0.0
vn -0.0 1.0 -0.0
vn -0.0 -1.0 -0.0
vn -0.406737 0.0 -0.913545
vn -0.393167 0.5 -0.771634
vn -0.203368 0.866025 -0.456773
vn -0.0 1.0 -0.0
vn -0.0 1.0 -0.0
vn -0.0 -1.0 -0.0
vn -0.5 0.0 -0.866025
vn -0.471671 0.5 -0.72631
vn -0.25 0.866025 -0.433013
vn -0.0 1.0 -0.0
vn -0.0 1.0 -0.0
vn -0.0 -1.0 -0.0
vn -0.587785 0.0 -0.809017
vn -0.545007 0.5 -0.673028
vn -0.293893 0.866025 -0.404508
vn -0.0 1.0 -0.0
vn -0.0 1.0 -0.0
vn -0.0 -1.0 -0.0
vn -0.669131 0.0 -0.743145
vn -0.612372 0.5 -0.612372
vn -0.334565 0.866025 -0.371572
vn -0.0 1.0 -0.0
vn -0.0 1.0 -0.0
vn -0.0 -1.0 -0.0
vn -0.743145 0.0 -0.669131
vn -0.673028 0.5 -0.545007
vn -0.371572 0.866025 -0.334565
vn -0.0 1.0 -0.0
vn -0.0 1.0 -0.0
vn -0.0 -1.0 -0.0
vn -0.809017 0.0 -0.587785
vn -0.72631 0.5 -0.471671
vn -0.404508 0.866025 -0.293893
vn -0.0 1.0 -0.0
vn -0.0 1.0 -0.0
vn -0.0 -1.0 -0.0
vn -0.866025 0.0 -0.5
vn -0.771634 0.5 -0.393167
vn -0.433013 0.866025 -0.25
vn -0.0 1.0 -0.0
vn -0.0 1.0 -0.0
vn -0.0 -1.0 -0.0
vn -0.913545 0.0 -0.406737
vn -0.808504 0.5 -0.310356
vn -0.456773 0.866025 -0.203368
vn -0.0 1.0 -0.0
vn -0.0 1.0 -0.0
vn -0.0 -1.0 -0.0
vn -0.951057 0.0 -0.309017
vn -0.836516 0.5 -0.224144
vn -0.475528 0.866025 -0.154508
vn -0.0 1.0 -0.0
vn -0.0 1.0 -0.0
vn -0.0 -1.0 -0.0
vn -0.978148 0.0 -0.207912
vn -0.855363 0.5 -0.135476
vn -0.489074 0.866025 -0.103956
vn -0.0 1.0 -0.0
vn -0.0 1.0 -0.0
vn -0.0 -1.0 -0.0
vn -0.994522 0.0 -0.104528
vn -0.864839 0.5 -0.045324
vn -0.497261 0.866025 -0.052264
vn -0.0 1.0 -0.0
vn -0.0 1.0 -0.0
vn -0.0 -1.0 -0.0
vn -1.0 0.0 -0.0
vn -0.864839 0.5 0.045324
vn -0.5 0.866025 -0.0
vn -0.0 1.0 0.0
vn -0.0 1.0 0.0
vn -0.0 -1.0 -0.0
vn -0.994522 0.0 0.104528
vn -0.855363 0.5 0.135476
vn -0.497261 0.866025 0.052264
vn -0.0 1.0 0.0
vn -0.0 1.0 0.0
vn -0.0 -1.0 0.0
vn -0.978148 0.0 0.207912
vn -0.836516 0.5 0.224144
vn -0.489074 0.866025 0.103956
vn -0.0 1.0 0.0
vn -0.0 1.0 0.0
vn -0.0 -1.0 0.0
vn -0.951057 0.0 0.309017
vn -0.808504 0.5 0.310356
vn -0.475528 0.866025 0.154508
vn -0.0 1.0 0.0
vn -0.0 1.0 0.0
vn -0.0 -1.0 0.0
vn -0.913545 0.0 0.406737
vn -0.771634 0.5 0.393167
vn -0.456773 0.866025 0.203368
vn -0.0 1.0 0.0
vn -0.0 1.0 0.0
vn -0.0 -1.0 0.0
vn -0.866025 0.0 0.5
vn -0.72631 0.5 0.471671
vn -0.433013 0.866025 0.25
vn -0.0 1.0 0.0
vn -0.0 1.0 0.0
vn -0.0 -1.0 0.0
vn -0.809017 0.0 0.587785
vn -0.673028 0.5 0.545007
vn -0.404508 0.866025 0.293893
vn -0.0 1.0 0.0
vn -0.0 1.0 0.0
vn -0.0 -1.0 0.0
vn -0.743145 0.0 0.669131
vn -0.612372 0.5 0.612372
vn -0.371572 0.866025 0.334565
vn -0.0 1.0 0.0
vn -0.0 1.0 0.0
vn -0.0 -1.0 0.0
vn -0.669131 0.0 0.743145
vn -0.545007 0.5 0.673028
vn -0.334565 0.866025 0.371572
vn -0.0 1.0 0.0
vn -0.0 1.0 0.0
vn -0.0 -1.0 0.0
vn -0.587785 0.0 0.809017
vn -0.471671 0.5 0.72631
vn -0.293893 0.866025 0.404508
vn -0.0 1.0 0.0
vn -0.0 1.0 0.0
vn -0.0 -1.0 0.0
vn -0.5 0.0 0.866025
vn -0.393167 0.5 0.771634
vn -0.25 0.866025 0.433013
vn -0.0 1.0 0.0
vn -0.0 1.0 0.0
vn -0.0 -1.0 0.0
vn -0.406737 0.0 0.913545
vn -0.310356 0.5 0.808504
vn -0.203368 0.866025 0.456773
vn -0.0 1.0 0.0
vn -0.0 1.0 0.0
vn -0.0 -1.0 0.0
vn -0.309017 0.0 0.951057
vn -0.224144 0.5 0.836516
vn -0.154508 0.866025 0.475528
vn -0.0 1.0 0.0
vn -0.0 1.0 0.0
vn -0.0 -1.0 0.0
vn -0.207912 0.0 0.978148
vn -0.135476 0.5 0.855363
vn -0.103956 0.866025 0.489074
vn -0.0 1.0 0.0
vn -0.0 1.0 0.0
vn -0.0 -1.0 0.0
vn -0.104528 0.0 0.994522
vn -0.045324 0.5 0.864839
vn -0.052264 0.866025 0.497261
vn -0.0 1.0 0.0
vn -0.0 1.0 0.0
vn -0.0 -1.0 0.0

f 1//1 2//2 3//3
f 1//1 3//3 4//4
f 1//1 5//5 6//6
f 1//1 4//4 5//5
f 7//7 6//6 5//5
f 7//7 5//5 8//8
f 4//4 3//3 9//9
f 4//4 9//9 10//10
f 4//4 11//11 5//5
f 4//4 10//10 11//11
f 8//8 5//5 11//11
f 8//8 11//11 12//12
f 13//13 14//14 15//15
f 16//16 17//17 18//18
f 10//10 9//9 19//19
f 10//10 19//19 20//20
f 10//10 21//21 11//11
f 10//10 20//20 21//21
f 12//12 11//11 21//21
f 12//12 21//21 22//22
f 14//14 23//23 15//15
f 18//18 17//17 24//24
f 20//20 19//19 25//25
f 20//20 25//25 26//26
f 20//20 27//27 21//21
f 20//20 26//26 27//27
f 22//22 21//21 27//27
f 22//22 27//27 28//28
f 23//23 29//29 15//15
f 24//24 17//17 30//30
f 26//26 25//25 31//31
f 26//26 31//31 32//32
f 26//26 33//33 27//27
f 26//26 32//32 33//33
f 28//28 27//27 33//33
f 28//28 33//33 34//34
f 29//29 35//35 15//15
f 30//30 17//17 36//36
f 32//32 31//31 37//37
f 32//32 37//37 38//38
f 32//32 39//39 33//33
f 32//32 38//38 39//39
f 34//34 33//33 39//39
f 34//34 39//39 40//40
f 35//35 41//41 15//15
f 36//36 17//17 42//42
f 38//38 37//37 43//43
f 38//38 43//43 44//44
f 38//38 45//45 39//39
f 38//38 44//44 45//45
f 40//40 39//39 45//45
f 40//40 45//45 46//46
f 41//41 47//47 15//15
f 42//42 17//17 48//48
f 44//44 43//43 49//49
f 44//44 49//49 50//50
f 44//44 51//51 45//45
f 44//44 50//50 51//51
f 46//46 45//45 51//51
f 46//46 51//51 52//52
f 47//47 53//53 15//15
f 48//48 17//17 54//54
f 50//50 49//49 55//55
f 50//50 55//55 56//56
f 50//50 57//57 51//51
f 50//50 56//56 57//57
f 52//52 51//51 57//57
f 52//52 57//57 58//58
f 53//53 59//59 15//15
f 54//54 17//17 60//60
f 56//56 55//55 61//61
f 56//56 61//61 62//62
f 56//56 63//63 57//57
f 56//56 62//62 63//63
f 58//58 57//57 63//63
f 58//58 63//63 64//64
f 59//59 65//65 15//15
f 60//60 17//17 66//66
f 62//62 61//61 67//67
f 62//62 67//67 68//68
f 62//62 69//69 63//63
f 62//62 68//68 69//69
f 64//64 63//63 69//69
f 64//64 69//69 70//70
f 65//65 71//71 15//15
f 66//66 17//17 72//72
f 68//68 67//67 73//73
f 68//68 73//73 74//74
f 68//68 75//75 69//69
f 68//68 74//74 75//75
f 70//70 69//69 75//75
f 70//70 75//75 76//76
f 71//71 77//77 15//15
f 72//72 17//17 78//78
f 74//74 73//73 79//79
f 74//74 79//79 80//80
f 74//74 81//81 75//75
f 74//74 80//80 81//81
f 76//76 75//75 81//81
f 76//76 81//81 82//82
f 77//77 83//83 15//15
f 78//78 17//17 84//84
f 80//80 79//79 85//85
f 80//80 85//85 86//86
f 80//80 87//87 81//81
f 80//80 86//86 87//87
f 82//82 81//81 87//87
f 82//82 87//87 88//88
f 83//83 89//89 15//15
f 84//84 17//17 90//90
f 86//86 85//85 91//91
f 86//86 91//91 92//92
f 86//86 93//93 87//87
f 86//86 92//92 93//93
f 88//88 87//87 93//93
f 88//88 93//93 94//94
f 89//89 95//95 15//15
f 90//90 17//17 96//96
f 92//92 91//91 97//97
f 92//92 97//97 98//98
f 92//92 99//99 93//93
f 92//92 98//98 99//99
f 94//94 93//93 99//99
f 94//94 99//99 100//100
f 95//95 101//101 15//15
f 96//96 17//17 102//102
f 98//98 97//97 103//103
f 98//98 103//103 104//104
f 98//98 105//105 99//99
f 98//98 104//104 105//105
f 100//100 99//99 105//105
f 100//100 105//105 106//106
f 101//101 107//107 15//15
f 102//102 17//17 108//108
f 104//104 103//103 109//109
f 104//104 109//109 110//110
f 104//104 111//111 105//105
f 104//104 110//110 111//111
f 106//106 105//105 111//111
f 106//106 111//111 112//112
f 107//107 113//113 15//15
f 108//108 17//17 114//114
f 110//110 109//109 115//115
f 110//110 115//115 116//116
f 110//110 117//117 111//111
f 110//110 116//116 117//117
f 112//112 111//111 117//117
f 112//112 117//117 118//118
f 113//113 119//119 15//15
f 114//114 17//17 120//120
f 116//116 115//115 121//121
f 116//116 121//121 122//122
f 116//116 123//123 117//117
f 116//116 122//122 123//123
f 118//118 117//117 123//123
f 118//118 123//123 124//124
f 119//119 125//125 15//15
f 120//120 17//17 126//126
f 122//122 121//121 127//127
f 122//122 127//127 128//128
f 122//122 129//129 123//123
f 122//122 128//128 129//129
f 124//124 123//123 129//129
f 124//124 129//129 130//130
f 125//125 131//131 15//15
f 126//126 17//17 132//132
f 128//128 127//127 133//133
f 128//128 133//133 134//134
f 128//128 135//135 129//129
f 128//128 134//134 135//135
f 130//130 129//129 135//135
f 130//130 135//135 136//136
f 131//131 137//137 15//15
f 132//132 17//17 138//138
f 134//134 133//133 139//139
f 134//134 139//139 140//140
f 134//134 141//141 135//135
f 134//134 140//140 141//141
f 136//136 135//135 141//141
f 136//136 141//141 142//142
f 137//137 143//143 15//15
f 138//138 17//17 144//144
f 140//140 139//139 145//145
f 140//140 145//145 146//146
f 140//140 147//147 141//141
f 140//140 146//146 147//147
f 142//142 141//141 147//147
f 142//142 147//147 148//148
f 143//143 149//149 15//15
f 144//144 17//17 150//150
f 146//146 145//145 151//151
f 146//146 151//151 152//152
f 146//146 153//153 147//147
f 146//146 152//152 153//153
f 148//148 147//147 153//153
f 148//148 153//153 154//154
f 149//149 155//155 15//15
f 150//150 17//17 156//156
f 152//152 151//151 157//157
f 152//152 157//157 158//158
f 152//152 159//159 153//153
f 152//152 158//158 159//159
f 154//154 153//153 159//159
f 154//154 159//159 160//160
f 155//155 161//161 15//15
f 156//156 17//17 162//162
f 158//158 157//157 163//163
f 158//158 163//163 164//164
f 158//158 165//165 159//159
f 158//158 164//164 165//165
f 160//160 159//159 165//165
f 160//160 165//165 166//166
f 161//161 167//167 15//15
f 162//162 17//17 168//168
f 164//164 163//163 169//169
f 164//164 169//169 170//170
f 164//164 171//171 165//165
f 164//164 170//170 171//171
f 166//166 165//165 171//171
f 166//166 171//171 172//172
f 167//167 173//173 15//15
f 168//168 17//17 174//174
f 170//170 169//169 175//175
f 170//170 175//175 176//176
f 170//170 177//177 171//171
f 170//170 176//176 177//177
f 172//172 171//171 177//177
f 172//172 177//177 178//178
f 173//173 179//179 15//15
f 174//174 17//17 180//180
f 176//176 175//175 181//181
f 176//176 181//181 182//182
f 176//176 183//183 177//177
f 176//176 182//182 183//183
f 178//178 177//177 183//183
f 178//178 183//183 184//184
f 179//179 185//185 15//15
f 180//180 17//17 186//186
f 182//182 181//181 187//187
f 182//182 187//187 188//188
f 182//182 189//189 183//183
f 182//182 188//188 189//189
f 184//184 183//183 189//189
f 184//184 189//189 190//190
f 185//185 191//191 15//15
f 186//186 17//17 192//192
f 188//188 187//187 193//193
f 188//188 193//193 194//194
f 188//188 195//195 189//189
f 188//188 194//194 195//195
f 190//190 189//189 195//195
f 190//190 195//195 196//196
f 191//191 197//197 15//15
f 192//192 17//17 198//198
f 194//194 193//193 199//199
f 194//194 199//199 200//200
f 194//194 201//201 195//195
f 194//194 200//200 201//201
f 196//196 195//195 201//201
f 196//196 201//201 202//202
f 197//197 203//203 15//15
f 198//198 17//17 204//204
f 200//200 199//199 205//205
f 200//200 205//205 206//206
f 200//200 207//207 201//201
f 200//200 206//206 207//207
f 202//202 201//201 207//207
f 202//202 207//207 208//208
f 203//203 209//209 15//15
f 204//204 17//17 210//210
f 206//206 205//205 211//211
f 206//206 211//211 212//212
f 206//206 213//213 207//207
f 206//206 212//212 213//213
f 208//208 207//207 213//213
f 208//208 213//213 214//214
f 209//209 215//215 15//15
f 210//210 17//17 216//216
f 212//212 211//211 217//217
f 212//212 217//217 218//218
f 212//212 219//219 213//213
f 212//212 218//218 219//219
f 214//214 213//213 219//219
f 214//214 219//219 220//220
f 215//215 221//221 15//15
f 216//216 17//17 222//222
f 218//218 217//217 223//223
f 218//218 223//223 224//224
f 218//218 225//225 219//219
f 218//218 224//224 225//225
f 220//220 219//219 225//225
f 220//220 225//225 226//226
f 221//221 227//227 15//15
f 222//222 17//17 228//228
f 224//224 223//223 229//229
f 224//224 229//229 230//230
f 224//224 231//231 225//225
f 224//224 230//230 231//231
f 226//226 225//225 231//231
f 226//226 231//231 232//232
f 227//227 233//233 15//15
f 228//228 17//17 234//234
f 230//230 229//229 235//235
f 230//230 235//235 236//236
f 230//230 237//237 231//231
f 230//230 236//236 237//237
f 232//232 231//231 237//237
f 232//232 237//237 238//238
f 233//233 239//239 15//15
f 234//234 17//17 240//240
f 236//236 235//235 241//241
f 236//236 241//241 242//242
f 236//236 243//243 237//237
f 236//236 242//242 243//243
f 238//238 237//237 243//243
f 238//238 243//243 244//244
f 239//239 245//245 15//15
f 240//240 17//17 246//246
f 242//242 241//241 247//247
f 242//242 247//247 248//248
f 242//242 249//249 243//243
f 242//242 248//248 249//249
f 244//244 243//243 249//249
f 244//244 249//249 250//250
f 245//245 251//251 15//15
f 246//246 17//17 252//252
f 248//248 247//247 253//253
f 248//248 253//253 254//254
f 248//248 255//255 249//249
f 248//248 254//254 255//255
f 250//250 249//249 255//255
f 250//250 255//255 256//256
f 251//251 257//257 15//15
f 252//252 17//17 258//258
f 254//254 253//253 259//259
f 254//254 259//259 260//260
f 254//254 261//261 255//255
f 254//254 260//260 261//261
f 256//256 255//255 261//261
f 256//256 261//261 262//262
f 257//257 263//263 15//15
f 258//258 17//17 264//264
f 260//260 259//259 265//265
f 260//260 265//265 266//266
f 260//260 267//267 261//261
f 260//260 266//266 267//267
f 262//262 261//261 267//267
f 262//262 267//267 268//268
f 263//263 269//269 15//15
f 264//264 17//17 270//270
f 266//266 265//265 271//271
f 266//266 271//271 272//272
f 266//266 273//273 267//267
f 266//266 272//272 273//273
f 268//268 267//267 273//273
f 268//268 273//273 274//274
f 269//269 275//275 15//15
f 270//270 17//17 276//276
f 272//272 271//271 277//277
f 272//272 277//277 278//278
f 272//272 279//279 273//273
f 272//272 278//278 279//279
f 274//274 273//273 279//279
f 274//274 279//279 280//280
f 275//275 281//281 15//15
f 276//276 17//17 282//282
f 278//278 277//277 283//283
f 278//278 283//283 284//284
f 278//278 285//285 279//279
f 278//278 284//284 285//285
f 280//280 279//279 285//285
f 280//280 285//285 286//286
f 281//281 287//287 15//15
f 282//282 17//17 288//288
f 284//284 283//283 289//289
f 284//284 289//289 290//290
f 284//284 291//291 285//285
f 284//284 290//290 291//291
f 286//286 285//285 291//291
f 286//286 291//291 292//292
f 287//287 293//293 15//15
f 288//288 17//17 294//294
f 290//290 289//289 295//295
f 290//290 295//295 296//296
f 290//290 297//297 291//291
f 290//290 296//296 297//297
f 292//292 291//291 297//297
f 292//292 297//297 298//298
f 293//293 299//299 15//15
f 294//294 17//17 300//300
f 296//296 295//295 301//301
f 296//296 301//301 302//302
f 296//296 303//303 297//297
f 296//296 302//302 303//303
f 298//298 297//297 303//303
f 298//298 303//303 304//304
f 299//299 305//305 15//15
f 300//300 17//17 306//306
f 302//302 301//301 307//307
f 302//302 307//307 308//308
f 302//302 309//309 303//303
f 302//302 308//308 309//309
f 304//304 303//303 309//309
f 304//304 309//309 310//310
f 305//305 311//311 15//15
f 306//306 17//17 312//312
f 308//308 307//307 313//313
f 308//308 313//313 314//314
f 308//308 315//315 309//309
f 308//308 314//314 315//315
f 310//310 309//309 315//315
f 310//310 315//315 316//316
f 311//311 317//317 15//15
f 312//312 17//17 318//318
f 314//314 313//313 319//319
f 314//314 319//319 320//320
f 314//314 321//321 315//315
f 314//314 320//320 321//321
f 316//316 315//315 321//321
f 316//316 321//321 322//322
f 317//317 323//323 15//15
f 318//318 17//17 324//324
f 320//320 319//319 325//325
f 320//320 325//325 326//326
f 320//320 327//327 321//321
f 320//320 326//326 327//327
f 322//322 321//321 327//327
f 322//322 327//327 328//328
f 323//323 329//329 15//15
f 324//324 17//17 330//330
f 326//326 325//325 331//331
f 326//326 331//331 332//332
f 326//326 333//333 327//327
f 326//326 332//332 333//333
f 328//328 327//327 333//333
f 328//328 333//333 334//334
f 329//329 335//335 15//15
f 330//330 17//17 336//336
f 332//332 331//331 337//337
f 332//332 337//337 338//338
f 332//332 339//339 333//333
f 332//332 338//338 339//339
f 334//334 333//333 339//339
f 334//334 339//339 340//340
f 335//335 341//341 15//15
f 336//336 17//17 342//342
f 338//338 337//337 343//343
f 338//338 343//343 344//344
f 338//338 345//345 339//339
f 338//338 344//344 345//345
f 340//340 339//339 345//345
f 340//340 345//345 346//346
f 341//341 347//347 15//15
f 342//342 17//17 348//348
f 344//344 343//343 349//349
f 344//344 349//349 350//350
f 344//344 351//351 345//345
f 344//344 350//350 351//351
f 346//346 345//345 351//351
f 346//346 351//351 352//352
f 347//347 353//353 15//15
f 348//348 17//17 354//354
f 350//350 349//349 355//355
f 350//350 355//355 356//356
f 350//350 357//357 351//351
f 350//350 356//356 357//357
f 352//352 351//351 357//357
f 352//352 357//357 358//358
f 353//353 359//359 15//15
f 354//354 17//17 360//360
f 356//356 355//355 2//2
f 356//356 2//2 1//1
f 356//356 6//6 357//357
f 356//356 1//1 6//6
f 358//358 357//357 6//6
f 358//358 6//6 7//7
