# Blender 4.1.1
# www.blender.org
mtllib 60mmFlight.mtl
o 60mmFlight
v 1.155984 0.000015 -0.230134
v 1.178640 0.000015 -0.000111
v -0.980774 0.000014 0.654941
v 1.088889 0.000015 -0.451318
v 1.154558 0.009817 0.229627
v 1.087546 0.009816 0.450539
v 1.088889 0.000015 0.451097
v 1.155984 0.000015 0.229913
v -1.156826 0.000014 0.229913
v -1.179482 0.000015 -0.000110
v -1.089731 0.000014 0.451097
v 0.624694 0.127601 0.935440
v 0.795199 0.127601 0.795510
v -0.935971 0.127601 0.625004
v 0.430166 0.127601 1.039417
v -1.103978 0.127601 -0.219621
v -1.125598 0.127601 -0.000110
v -1.039949 0.127601 -0.430696
v -1.103978 0.127601 0.219401
v -1.039949 0.127601 0.430477
v 1.103136 0.127602 0.219401
v 1.124756 0.127602 -0.000111
v 1.039107 0.127602 0.430476
v -0.796041 0.127601 0.795510
v 1.103135 0.127602 -0.219622
v 1.039106 0.127602 -0.430697
v 0.219090 0.127602 -1.103667
v -0.000421 0.127602 -1.125287
v 0.430165 0.127602 -1.039638
v -0.625536 0.127601 0.935440
v -0.431007 0.127601 1.039417
v 0.935129 0.127602 -0.625225
v 0.795199 0.127602 -0.795731
v -0.219932 0.127602 -1.103667
v -0.431008 0.127602 -1.039638
v -0.219932 0.127601 1.103446
v -0.000421 0.127601 1.125066
v 0.624694 0.127602 -0.935661
v -0.625536 0.127601 -0.935660
v -0.796041 0.127601 -0.795730
v 0.219090 0.127601 1.103446
v 0.979932 0.000015 0.654941
v 0.833301 0.000015 0.833611
v -1.156826 0.000015 -0.230133
v -1.089731 0.000015 -0.451317
v 0.654630 0.000015 0.980243
v 0.450786 0.000015 1.089200
v -0.980775 0.000015 -0.655161
v -0.834143 0.000015 -0.833832
v 0.229602 0.000015 1.156295
v -0.000421 0.000015 1.178950
v -0.655472 0.000015 -0.980463
v -0.451628 0.000015 -1.089420
v 0.654630 0.000015 -0.980464
v 0.833301 0.000015 -0.833832
v 0.450786 0.000015 -1.089420
v -0.230444 0.000014 1.156295
v -0.451628 0.000014 1.089200
v -0.230445 0.000015 -1.156516
v -0.000421 0.000015 -1.179171
v 0.979932 0.000015 -0.655162
v 0.229602 0.000015 -1.156516
v -0.834143 0.000014 0.833611
v 0.935129 0.127601 0.625004
v -0.935972 0.127601 -0.625225
v -0.655472 0.000014 0.980243
v -1.088387 0.009816 0.450541
v -1.155399 0.009816 0.229630
v 0.653822 0.009817 -0.979254
v 0.832272 0.009817 -0.832804
v 1.177185 0.009817 -0.000112
v -0.979564 0.009816 0.654133
v 0.450229 0.009817 -1.088076
v 1.154557 0.009817 -0.229852
v -0.833113 0.009816 0.832583
v 0.229318 0.009817 -1.155089
v 1.087544 0.009817 -0.450762
v -0.654663 0.009816 0.979034
v -0.000422 0.009817 -1.177716
v 0.978721 0.009817 -0.654355
v -0.451071 0.009816 1.087856
v -0.230161 0.009817 -1.155089
v 0.799137 0.120115 -0.799669
v 0.939759 0.120115 -0.628321
v -0.230160 0.009816 1.154868
v -0.451072 0.009816 -1.088076
v -0.000420 0.009816 1.177495
v -0.654664 0.009816 -0.979253
v 0.229319 0.009816 1.154868
v -0.833115 0.009816 -0.832803
v 0.450230 0.009816 1.087855
v -0.979565 0.009816 -0.654352
v 0.653823 0.009816 0.979033
v -1.088387 0.009816 -0.450760
v 0.832273 0.009816 0.832582
v -1.155400 0.009816 -0.229849
v 0.978723 0.009816 0.654131
v -1.178027 0.009816 -0.000110
v 1.044253 0.120114 0.432606
v 0.939760 0.120114 0.628097
v -1.109440 0.120114 0.220488
v -1.131167 0.120114 -0.000110
v -1.109440 0.120114 -0.220707
v 0.799138 0.120114 0.799447
v -1.045094 0.120114 -0.432828
v 0.627789 0.120114 0.940070
v -0.940602 0.120114 -0.628319
v 0.432297 0.120114 1.044562
v -0.799980 0.120114 -0.799668
v 0.220177 0.120114 1.108909
v -0.628630 0.120114 -0.940291
v -0.000420 0.120114 1.130636
v -0.433139 0.120114 -1.044783
v -0.221018 0.120114 1.108909
v -0.221020 0.120114 -1.109129
v -0.433138 0.120114 1.044563
v -0.000422 0.120115 -1.130857
v -0.628629 0.120114 0.940071
v 1.044251 0.120115 -0.432830
v 0.220176 0.120115 -1.109129
v -0.799979 0.120114 0.799448
v 1.108598 0.120115 -0.220710
v 0.432296 0.120115 -1.044783
v -0.940602 0.120114 0.628099
v 1.130325 0.120115 -0.000112
v 0.627787 0.120115 -0.940292
v -1.045094 0.120114 0.432608
v 1.108598 0.120114 0.220486
v 1.126478 0.009840 0.341729
v 1.076306 0.127620 0.326511
v 1.081636 0.120096 0.328127
v 1.127870 -0.000009 0.342153
v 1.119338 0.127620 0.110176
v 1.171515 0.009840 0.115313
v 1.172962 -0.000009 0.115457
v 1.124880 0.120096 0.110721
v 1.172962 -0.000008 -0.115679
v 1.171514 0.009840 -0.115538
v 1.119338 0.127620 -0.110397
v 1.124880 0.120096 -0.110944
v 1.127869 -0.000008 -0.342374
v 1.081635 0.120096 -0.328350
v 1.076306 0.127620 -0.326732
v 1.126477 0.009840 -0.341953
v 0.996807 0.120097 -0.533142
v 0.991896 0.127620 -0.530515
v 1.038134 0.009841 -0.555232
v 1.039417 -0.000008 -0.555916
v 0.869352 0.127620 -0.713915
v 0.873657 0.120097 -0.717449
v 0.911005 -0.000008 -0.748099
v 0.909880 0.009841 -0.747177
v 0.532609 0.120097 -0.997340
v 0.529983 0.127620 -0.992428
v 0.555384 -0.000008 -1.039949
v 0.554698 0.009841 -1.038666
v 0.716916 0.120097 -0.874189
v 0.747567 -0.000008 -0.911537
v 0.746644 0.009841 -0.910412
v 0.713383 0.127620 -0.869884
v 0.341842 -0.000008 -1.128401
v 0.327817 0.120096 -1.082167
v 0.341419 0.009840 -1.127009
v 0.326200 0.127620 -1.076838
v 0.115004 0.009840 -1.172046
v 0.110411 0.120096 -1.125412
v 0.109865 0.127620 -1.119869
v 0.115147 -0.000008 -1.173494
v -0.110708 0.127620 -1.119869
v -0.115847 0.009840 -1.172045
v -0.111254 0.120096 -1.125412
v -0.115989 -0.000009 -1.173494
v -0.342685 -0.000009 -1.128401
v -0.327043 0.127620 -1.076837
v -0.342263 0.009840 -1.127009
v -0.328660 0.120096 -1.082167
v -0.556227 -0.000009 -1.039949
v -0.533452 0.120096 -0.997339
v -0.530826 0.127620 -0.992427
v -0.555542 0.009840 -1.038666
v -0.748410 -0.000009 -0.911537
v -0.747487 0.009840 -0.910411
v -0.717759 0.120096 -0.874188
v -0.714226 0.127619 -0.869884
v -0.911848 -0.000009 -0.748098
v -0.870194 0.127619 -0.713914
v -0.874500 0.120096 -0.717448
v -0.910723 0.009840 -0.747175
v -1.040260 -0.000009 -0.555915
v -0.992738 0.127619 -0.530515
v -0.997651 0.120096 -0.533140
v -1.038977 0.009840 -0.555229
v -1.128712 -0.000009 -0.342373
v -1.082478 0.120096 -0.328348
v -1.077148 0.127619 -0.326732
v -1.127320 0.009840 -0.341951
v -1.125722 0.120096 -0.110942
v -1.173804 -0.000009 -0.115678
v -1.172357 0.009840 -0.115535
v -1.120180 0.127619 -0.110397
v -1.173804 -0.000009 0.115458
v -1.120180 0.127619 0.110177
v -1.172356 0.009840 0.115316
v -1.125722 0.120096 0.110723
v -1.128711 -0.000009 0.342153
v -1.127320 0.009840 0.341732
v -1.077148 0.127619 0.326511
v -1.082477 0.120096 0.328129
v -1.038977 0.009840 0.555010
v -0.997650 0.120096 0.532920
v -1.040260 -0.000009 0.555695
v -0.992738 0.127619 0.530295
v -0.910722 0.009840 0.746956
v -0.874499 0.120096 0.717228
v -0.870194 0.127619 0.713694
v -0.911847 -0.000009 0.747878
v -0.714225 0.127619 0.869663
v -0.748409 -0.000009 0.911316
v -0.747486 0.009840 0.910192
v -0.717758 0.120096 0.873969
v -0.533451 0.120096 0.997119
v -0.530825 0.127619 0.992207
v -0.556226 -0.000009 1.039728
v -0.555540 0.009840 1.038446
v -0.342684 -0.000009 1.128180
v -0.342261 0.009840 1.126788
v -0.327043 0.127619 1.076617
v -0.328659 0.120096 1.081946
v -0.110708 0.127619 1.119648
v -0.111253 0.120096 1.125191
v -0.115846 0.009840 1.171825
v -0.115989 -0.000009 1.173273
v 0.115006 0.009840 1.171825
v 0.109866 0.127619 1.119648
v 0.115147 -0.000009 1.173273
v 0.110412 0.120096 1.125191
v 0.327818 0.120096 1.081946
v 0.326201 0.127619 1.076617
v 0.341421 0.009840 1.126788
v 0.341842 -0.000009 1.128180
v 0.554699 0.009840 1.038445
v 0.555385 -0.000009 1.039728
v 0.529984 0.127619 0.992207
v 0.532610 0.120096 0.997118
v 0.716917 0.120096 0.873968
v 0.746645 0.009840 0.910191
v 0.713384 0.127619 0.869663
v 0.747567 -0.000009 0.911316
v 0.869352 0.127619 0.713694
v 0.909881 0.009840 0.746954
v 0.873658 0.120096 0.717227
v 0.911005 -0.000009 0.747878
v 0.996808 0.120096 0.532919
v 1.038135 0.009840 0.555008
v 1.039418 -0.000009 0.555695
v 0.991896 0.127620 0.530294
vn 0.9677 -0.2335 -0.0953
vn -0.0570 -0.9976 0.0381
vn 0.9538 -0.2330 -0.1897
vn 0.8941 0.2520 0.3703
vn 0.9305 -0.2335 0.2823
vn 0.9262 0.2516 0.2810
vn -0.9677 -0.2333 0.0953
vn -0.9538 -0.2330 0.1898
vn 0.3482 0.8358 0.4244
vn -0.0128 0.9999 0.0085
vn 0.3052 0.8356 0.4567
vn -0.5471 0.8353 -0.0539
vn -0.5378 0.8363 -0.1070
vn -0.5259 0.8355 0.1595
vn -0.5379 0.8362 0.1070
vn 0.5472 0.8353 0.0538
vn 0.5378 0.8363 0.1071
vn 0.5262 0.8352 -0.1597
vn 0.5377 0.8363 -0.1069
vn 0.0539 0.8352 -0.5472
vn 0.1071 0.8357 -0.5386
vn -0.2590 0.8354 0.4848
vn -0.3048 0.8362 0.4559
vn 0.4242 0.8360 -0.3481
vn 0.4559 0.8363 -0.3045
vn -0.1597 0.8353 -0.5262
vn -0.1069 0.8363 -0.5378
vn -0.0538 0.8357 0.5465
vn -0.1071 0.8363 0.5378
vn 0.2591 0.8353 -0.4849
vn 0.3046 0.8363 -0.4558
vn -0.3484 0.8357 -0.4246
vn -0.3051 0.8357 -0.4566
vn 0.1597 0.8353 0.5261
vn 0.1069 0.8363 0.5378
vn 0.9537 -0.2333 0.1897
vn 0.7516 -0.2335 0.6169
vn 0.8086 -0.2330 0.5403
vn -0.9305 -0.2335 -0.2823
vn -0.9538 -0.2330 -0.1896
vn 0.4584 -0.2335 0.8575
vn 0.5403 -0.2330 0.8086
vn -0.7517 -0.2333 -0.6169
vn -0.8086 -0.2330 -0.5402
vn 0.0953 -0.2335 0.9677
vn 0.1897 -0.2330 0.9538
vn -0.4584 -0.2333 -0.8576
vn -0.5403 -0.2330 -0.8085
vn 0.6169 -0.2334 -0.7516
vn 0.5403 -0.2330 -0.8086
vn -0.2822 -0.2335 0.9305
vn -0.1897 -0.2332 0.9537
vn -0.0953 -0.2335 -0.9677
vn -0.1898 -0.2330 -0.9538
vn 0.8576 -0.2335 -0.4583
vn 0.8086 -0.2331 -0.5403
vn 0.2823 -0.2335 -0.9305
vn 0.1897 -0.2331 -0.9538
vn 0.4838 0.8360 0.2587
vn 0.4566 0.8357 0.3051
vn -0.4838 0.8361 -0.2585
vn -0.4566 0.8357 -0.3051
vn -0.6169 -0.2333 0.7517
vn -0.5403 -0.2330 0.8086
vn -0.9492 0.2518 0.1888
vn -0.9305 -0.2336 0.2822
vn -0.9262 0.2516 0.2809
vn 0.6843 0.2519 -0.6843
vn 0.6140 0.2516 -0.7481
vn 0.9491 0.2520 0.1888
vn 0.9677 -0.2333 0.0953
vn 0.9632 0.2516 0.0949
vn -0.8941 0.2519 0.3704
vn -0.8576 -0.2335 0.4583
vn -0.8536 0.2516 0.4562
vn 0.5376 0.2519 -0.8046
vn 0.4584 -0.2335 -0.8575
vn 0.4562 0.2518 -0.8535
vn 0.9677 0.2520 -0.0000
vn 0.9632 0.2516 -0.0949
vn -0.8046 0.2520 0.5377
vn -0.7517 -0.2335 0.6168
vn -0.7482 0.2516 0.6140
vn 0.3703 0.2520 -0.8941
vn 0.2810 0.2516 -0.9262
vn 0.9491 0.2520 -0.1888
vn 0.9305 -0.2335 -0.2822
vn 0.9262 0.2516 -0.2810
vn -0.6843 0.2518 0.6843
vn -0.6140 0.2516 0.7481
vn 0.1888 0.2519 -0.9492
vn 0.0953 -0.2333 -0.9677
vn 0.0949 0.2516 -0.9632
vn 0.8941 0.2519 -0.3703
vn 0.8536 0.2516 -0.4562
vn -0.5376 0.2520 0.8047
vn -0.4584 -0.2333 0.8576
vn -0.4562 0.2516 0.8536
vn -0.0000 0.2520 -0.9677
vn -0.0948 0.2516 -0.9632
vn 0.7287 0.4817 -0.4868
vn 0.6777 0.4810 -0.5562
vn -0.3703 0.2520 0.8941
vn -0.2809 0.2516 0.9262
vn -0.1888 0.2520 -0.9491
vn -0.2822 -0.2335 -0.9305
vn -0.2809 0.2516 -0.9262
vn -0.1888 0.2520 0.9491
vn -0.0953 -0.2335 0.9677
vn -0.0949 0.2516 0.9632
vn -0.3704 0.2520 -0.8941
vn -0.4562 0.2516 -0.8536
vn -0.0000 0.2520 0.9677
vn 0.0948 0.2516 0.9632
vn -0.5377 0.2520 -0.8046
vn -0.6168 -0.2335 -0.7517
vn -0.6140 0.2516 -0.7482
vn 0.1888 0.2520 0.9491
vn 0.2823 -0.2335 0.9305
vn 0.2809 0.2516 0.9262
vn -0.6843 0.2519 -0.6843
vn -0.7481 0.2516 -0.6140
vn 0.3704 0.2520 0.8941
vn 0.4562 0.2516 0.8536
vn -0.8047 0.2520 -0.5376
vn -0.8575 -0.2335 -0.4584
vn -0.8535 0.2518 -0.4562
vn 0.5376 0.2520 0.8046
vn 0.6169 -0.2335 0.7516
vn 0.6140 0.2516 0.7482
vn -0.8941 0.2519 -0.3703
vn -0.9262 0.2516 -0.2809
vn 0.6843 0.2517 0.6843
vn 0.7481 0.2516 0.6140
vn -0.9491 0.2520 -0.1888
vn -0.9677 -0.2335 -0.0954
vn -0.9632 0.2516 -0.0949
vn 0.7286 0.4817 0.4869
vn 0.7732 0.4810 0.4132
vn -0.5470 0.8354 0.0539
vn -0.8763 0.4817 -0.0000
vn -0.8725 0.4810 0.0860
vn -0.9632 0.2516 0.0949
vn -0.9677 0.2520 -0.0000
vn 0.8535 0.2516 0.4562
vn 0.8047 0.2518 0.5377
vn -0.8595 0.4817 -0.1710
vn -0.8725 0.4810 -0.0859
vn 0.4251 0.8353 0.3487
vn 0.6196 0.4817 0.6197
vn 0.6777 0.4810 0.5561
vn -0.5261 0.8353 -0.1596
vn -0.8096 0.4817 -0.3354
vn -0.8390 0.4810 -0.2544
vn 0.4868 0.4817 0.7287
vn 0.5562 0.4810 0.6777
vn -0.7732 0.4810 -0.4133
vn 0.2593 0.8353 0.4848
vn 0.3353 0.4817 0.8096
vn 0.4133 0.4810 0.7732
vn -0.4250 0.8353 -0.3488
vn -0.6197 0.4817 -0.6197
vn -0.6777 0.4810 -0.5562
vn 0.1709 0.4817 0.8595
vn 0.2545 0.4810 0.8389
vn -0.4868 0.4817 -0.7287
vn -0.5560 0.4815 -0.6775
vn 0.0540 0.8353 0.5471
vn -0.0000 0.4817 0.8763
vn 0.0859 0.4814 0.8723
vn -0.2587 0.8359 -0.4840
vn -0.3354 0.4817 -0.8096
vn -0.4133 0.4810 -0.7732
vn -0.1710 0.4817 0.8595
vn -0.0859 0.4810 0.8725
vn -0.1709 0.4817 -0.8595
vn -0.2545 0.4810 -0.8389
vn -0.1595 0.8353 0.5261
vn -0.3354 0.4817 0.8096
vn -0.2544 0.4810 0.8390
vn 0.7482 0.2516 -0.6140
vn 0.8046 0.2519 -0.5377
vn -0.0539 0.8353 -0.5472
vn -0.0000 0.4817 -0.8763
vn -0.0860 0.4810 -0.8725
vn -0.4869 0.4817 0.7286
vn -0.4132 0.4810 0.7732
vn 0.4849 0.8353 -0.2592
vn 0.8097 0.4817 -0.3353
vn 0.7732 0.4810 -0.4133
vn 0.1710 0.4817 -0.8595
vn 0.0859 0.4810 -0.8725
vn -0.3485 0.8355 0.4249
vn -0.6197 0.4817 0.6196
vn -0.5561 0.4810 0.6777
vn 0.8597 0.4812 -0.1710
vn 0.8389 0.4810 -0.2546
vn 0.1596 0.8352 -0.5262
vn 0.3354 0.4817 -0.8096
vn 0.2545 0.4810 -0.8390
vn -0.4247 0.8355 0.3486
vn -0.7287 0.4817 0.4868
vn -0.6777 0.4810 0.5562
vn 0.5466 0.8356 -0.0539
vn 0.8763 0.4817 -0.0000
vn 0.8725 0.4810 -0.0860
vn 0.4869 0.4817 -0.7286
vn 0.4132 0.4810 -0.7732
vn -0.4840 0.8359 0.2588
vn -0.8096 0.4817 0.3354
vn -0.7732 0.4810 0.4133
vn 0.8595 0.4817 0.1710
vn 0.8725 0.4810 0.0859
vn 0.3883 0.8357 -0.3883
vn 0.5562 0.4810 -0.6777
vn 0.3483 0.8358 -0.4245
vn -0.8595 0.4817 0.1709
vn -0.8389 0.4810 0.2545
vn 0.5262 0.8352 0.1595
vn 0.8096 0.4817 0.3354
vn 0.8390 0.4810 0.2545
vn 0.7517 -0.2335 -0.6168
vn 0.8575 -0.2335 0.4584
vn -0.9725 -0.2330 0.0001
vn 0.6197 0.4817 -0.6197
vn 0.5066 0.8363 -0.2097
vn 0.6876 -0.2331 -0.6877
vn 0.3721 -0.2330 -0.8985
vn 0.2099 0.8363 -0.5065
vn -0.0000 -0.2330 -0.9725
vn -0.6877 -0.2331 -0.6876
vn -0.2098 0.8363 -0.5066
vn -0.3877 0.8363 -0.3877
vn -0.8985 -0.2330 -0.3721
vn -0.5066 0.8363 -0.2098
vn -0.5484 0.8362 -0.0000
vn -0.8984 -0.2330 0.3722
vn -0.5068 0.8361 0.2099
vn -0.6876 -0.2333 0.6876
vn -0.3875 0.8365 0.3875
vn -0.3722 -0.2330 0.8984
vn -0.2100 0.8362 0.5066
vn -0.0000 -0.2330 0.9725
vn -0.0001 0.8363 0.5483
vn 0.3721 -0.2330 0.8985
vn 0.2102 0.8356 0.5075
vn 0.6876 -0.2330 0.6876
vn 0.3876 0.8363 0.3877
vn 0.8984 -0.2331 0.3721
vn 0.5079 0.8353 0.2103
vn 0.9724 -0.2333 -0.0000
vn 0.5483 0.8363 0.0001
vn 0.8984 -0.2331 -0.3722
vn -0.3722 -0.2330 -0.8984
vn -0.0000 0.8355 -0.5495
vn -0.7287 0.4817 -0.4868
vt 0.500004 0.500000
vt 0.500002 0.500000
vt 0.500004 0.500001
vt 0.499996 0.499998
vt 0.499996 0.499999
vt 0.500001 0.500000
vt 0.500001 0.499999
vt 0.499997 0.499997
vt 0.499998 0.500000
vt 0.499997 0.499996
vt 0.499999 0.500001
vt 0.499999 0.499999
vt 0.499996 0.500001
vt 0.499997 0.500004
vt 0.499998 0.499996
vt 0.499999 0.499997
vt 0.499996 0.500002
vt 0.499998 0.500004
vt 0.499997 0.500003
vt 0.499999 0.500003
vt 0.500004 0.499999
vt 0.500004 0.499997
vt 0.500001 0.500001
vt 0.500003 0.499996
vt 0.500001 0.500003
vt 0.500002 0.500004
vt 0.500004 0.500003
vt 0.500002 0.499996
vt 0.500004 0.500002
vt 0.500003 0.500004
vt 0.499999 0.500002
vt 0.500001 0.499997
vt 0.499996 0.500003
vt 0.500001 0.499998
vt 0.499999 0.499998
vt 0.499996 0.500000
vt 0.499996 0.499997
vt 0.499999 0.500000
vt 0.500001 0.500002
s 1
usemtl None.018
f 137/1/1 3/2/2 1/3/3
f 6/4/4 132/5/5 129/5/6
f 201/6/7 3/2/2 9/7/8
f 247/8/9 14/9/10 12/10/11
f 200/11/12 14/9/10 16/11/13
f 207/12/14 14/9/10 19/12/15
f 133/5/16 14/9/10 21/5/17
f 143/13/18 14/9/10 25/13/19
f 167/14/20 14/9/10 27/14/21
f 222/15/22 14/9/10 30/16/23
f 149/17/24 14/9/10 32/17/25
f 174/18/26 14/9/10 34/18/27
f 229/15/28 14/9/10 36/15/29
f 154/14/30 14/9/10 38/19/31
f 184/20/32 14/9/10 39/18/33
f 238/10/34 14/9/10 41/10/35
f 132/5/5 3/2/2 8/21/36
f 252/22/37 3/2/2 42/22/38
f 193/23/39 3/2/2 44/23/40
f 242/24/41 3/2/2 46/24/42
f 185/25/43 3/2/2 48/25/44
f 235/24/45 3/2/2 50/24/46
f 177/26/47 3/2/2 52/26/48
f 158/27/49 3/2/2 54/27/50
f 225/28/51 3/2/2 57/28/52
f 172/26/53 3/2/2 59/26/54
f 148/29/55 3/2/2 61/29/56
f 161/30/57 3/2/2 62/30/58
f 256/4/59 14/9/10 64/4/60
f 190/31/61 14/9/10 65/31/62
f 218/32/63 3/2/2 66/32/64
f 68/12/65 205/12/66 206/12/67
f 70/33/68 158/27/49 159/33/69
f 5/5/70 135/5/71 134/5/72
f 67/12/73 211/34/74 209/35/75
f 69/19/76 155/14/77 156/14/78
f 71/36/79 137/1/1 138/36/80
f 72/35/81 216/16/82 213/16/83
f 73/14/84 161/30/57 163/14/85
f 74/13/86 141/13/87 144/13/88
f 75/16/89 218/32/63 219/16/90
f 76/14/91 168/14/92 165/14/93
f 77/13/94 148/29/55 147/17/95
f 78/16/96 223/15/97 224/15/98
f 79/14/99 172/26/53 170/18/100
f 149/17/24 84/17/101 150/17/102
f 81/15/103 225/28/51 226/15/104
f 82/18/105 173/18/106 175/18/107
f 85/15/108 232/15/109 231/15/110
f 86/18/111 177/26/47 180/18/112
f 87/15/113 235/24/45 233/10/114
f 88/18/115 181/20/116 182/20/117
f 89/10/118 240/10/119 239/10/120
f 90/20/121 185/25/43 188/20/122
f 91/10/123 242/24/41 241/10/124
f 92/20/125 189/31/126 192/31/127
f 93/10/128 248/8/129 246/8/130
f 94/31/131 193/23/39 196/11/132
f 95/37/133 252/22/37 250/37/134
f 96/11/135 198/11/136 199/11/137
f 256/4/59 100/4/138 253/4/139
f 202/38/140 102/38/141 204/38/142
f 203/38/143 102/38/141 98/38/144
f 254/4/145 100/4/138 97/37/146
f 200/11/12 103/11/147 197/11/148
f 249/37/149 104/37/150 251/37/151
f 195/11/152 105/31/153 194/11/154
f 247/8/9 106/10/155 245/8/156
f 65/31/62 191/31/157 190/31/61
f 243/10/158 108/10/159 244/10/160
f 186/20/161 109/20/162 187/20/163
f 238/10/34 110/10/164 237/10/165
f 184/20/32 111/18/166 183/20/167
f 234/10/168 112/15/169 236/10/170
f 179/18/171 113/18/172 178/18/173
f 229/15/28 114/15/174 230/15/175
f 174/18/26 115/18/176 176/18/177
f 227/15/178 116/15/179 228/15/180
f 152/33/181 84/17/101 80/17/182
f 169/18/183 117/14/184 171/18/185
f 222/15/22 118/16/186 221/15/187
f 146/17/188 119/13/189 145/17/190
f 167/14/20 120/14/191 166/14/192
f 217/16/193 121/16/194 220/16/195
f 143/13/18 122/13/196 142/13/197
f 164/14/198 123/14/199 162/14/200
f 215/35/201 124/35/202 214/35/203
f 139/36/204 125/36/205 140/36/206
f 154/14/30 126/19/207 153/14/208
f 212/35/209 127/12/210 210/35/211
f 133/5/16 128/5/212 136/5/213
f 33/33/214 157/33/215 160/33/216
f 207/12/14 101/12/217 208/12/218
f 130/5/219 99/4/220 131/5/221
f 151/33/222 80/17/182 61/29/56
f 255/4/223 97/37/146 42/22/38
f 201/6/7 98/38/144 10/6/224
f 103/11/147 199/11/137 197/11/148
f 104/37/150 250/37/134 251/37/151
f 105/31/153 196/11/132 194/11/154
f 106/10/155 246/8/130 245/8/156
f 191/31/157 92/20/125 192/31/127
f 108/10/159 241/10/124 244/10/160
f 187/20/163 90/20/121 188/20/122
f 110/10/164 239/10/120 237/10/165
f 111/18/166 182/20/117 183/20/167
f 236/10/170 87/15/113 233/10/114
f 178/18/173 86/18/111 180/18/112
f 114/15/174 231/15/110 230/15/175
f 115/18/176 175/18/107 176/18/177
f 116/15/179 226/15/104 228/15/180
f 117/14/184 170/18/100 171/18/185
f 118/16/186 224/15/98 221/15/187
f 119/13/189 147/17/95 145/17/190
f 120/14/191 165/14/93 166/14/192
f 121/16/194 219/16/90 220/16/195
f 122/13/196 144/13/88 142/13/197
f 162/14/200 73/14/84 163/14/85
f 124/35/202 213/16/83 214/35/203
f 125/36/205 138/36/80 140/36/206
f 126/19/207 156/14/78 153/14/208
f 210/35/211 67/12/73 209/35/75
f 136/5/213 5/5/70 134/5/72
f 83/33/225 159/33/69 157/33/215
f 101/12/217 206/12/67 208/12/218
f 99/4/220 129/5/6 131/5/221
f 146/17/188 14/9/10 26/13/226
f 151/33/222 3/2/2 55/27/227
f 155/14/77 3/2/2 56/30/228
f 160/33/216 14/9/10 33/33/214
f 164/14/198 14/9/10 29/14/229
f 168/14/92 3/2/2 60/30/230
f 181/20/116 3/2/2 49/25/231
f 179/18/171 14/9/10 35/18/232
f 186/20/161 14/9/10 40/20/233
f 189/31/126 3/2/2 45/39/234
f 195/11/152 14/9/10 18/31/235
f 198/11/136 3/2/2 10/6/224
f 202/38/140 14/9/10 17/38/236
f 205/12/66 3/2/2 11/7/237
f 212/35/209 14/9/10 20/12/238
f 216/16/82 3/2/2 63/32/239
f 217/16/193 14/9/10 24/16/240
f 223/15/97 3/2/2 58/28/241
f 227/15/178 14/9/10 31/15/242
f 232/15/109 3/2/2 51/28/243
f 234/10/168 14/9/10 37/15/244
f 240/10/119 3/2/2 47/24/245
f 243/10/158 14/9/10 15/10/246
f 248/8/129 3/2/2 43/22/247
f 249/37/149 14/9/10 13/37/248
f 255/4/223 3/2/2 7/4/249
f 130/5/219 14/9/10 23/4/250
f 135/5/71 3/2/2 2/1/251
f 139/36/204 14/9/10 22/36/252
f 141/13/87 3/2/2 4/3/253
f 173/18/106 3/2/2 53/26/254
f 169/18/183 14/9/10 28/14/255
f 128/5/212 129/5/6 5/5/70
f 21/5/17 131/5/221 128/5/212
f 129/5/6 8/21/36 5/5/70
f 125/36/205 134/5/72 71/36/79
f 22/36/252 136/5/213 125/36/205
f 134/5/72 2/1/251 71/36/79
f 140/36/206 74/13/86 122/13/196
f 25/13/19 140/36/206 122/13/196
f 138/36/80 1/3/3 74/13/86
f 142/13/197 77/13/94 119/13/189
f 26/13/226 142/13/197 119/13/189
f 144/13/88 4/3/253 77/13/94
f 84/17/101 147/17/95 80/17/182
f 32/17/25 145/17/190 84/17/101
f 147/17/95 61/29/56 80/17/182
f 55/27/227 152/33/181 151/33/222
f 83/33/225 152/33/181 70/33/68
f 33/33/214 150/17/102 83/33/225
f 153/14/208 73/14/84 123/14/199
f 29/14/229 153/14/208 123/14/199
f 156/14/78 56/30/228 73/14/84
f 126/19/207 159/33/69 69/19/76
f 38/19/31 157/33/215 126/19/207
f 69/19/76 158/27/49 54/27/50
f 120/14/191 163/14/85 76/14/91
f 27/14/21 162/14/200 120/14/191
f 163/14/85 62/30/58 76/14/91
f 117/14/184 165/14/93 79/14/99
f 28/14/255 166/14/192 117/14/184
f 165/14/93 60/30/230 79/14/99
f 115/18/176 170/18/100 82/18/105
f 34/18/27 171/18/185 115/18/176
f 170/18/100 59/26/54 82/18/105
f 113/18/172 175/18/107 86/18/111
f 35/18/232 176/18/177 113/18/172
f 175/18/107 53/26/254 86/18/111
f 111/18/166 180/18/112 88/18/115
f 39/18/33 178/18/173 111/18/166
f 180/18/112 52/26/48 88/18/115
f 109/20/162 182/20/117 90/20/121
f 40/20/233 183/20/167 109/20/162
f 182/20/117 49/25/231 90/20/121
f 107/31/256 188/20/122 92/20/125
f 65/31/62 187/20/163 107/31/256
f 188/20/122 48/25/44 92/20/125
f 105/31/153 192/31/127 94/31/131
f 18/31/235 191/31/157 105/31/153
f 94/31/131 189/31/126 45/39/234
f 194/11/154 96/11/135 103/11/147
f 16/11/13 194/11/154 103/11/147
f 196/11/132 44/23/40 96/11/135
f 102/38/141 199/11/137 98/38/144
f 17/38/236 197/11/148 102/38/141
f 199/11/137 10/6/224 98/38/144
f 9/7/8 203/38/143 201/6/7
f 101/12/217 203/38/143 68/12/65
f 19/12/15 204/38/142 101/12/217
f 127/12/210 206/12/67 67/12/73
f 20/12/238 208/12/218 127/12/210
f 206/12/67 11/7/237 67/12/73
f 124/35/202 209/35/75 72/35/81
f 14/35/10 210/35/211 124/35/202
f 209/35/75 3/34/2 72/35/81
f 121/16/194 213/16/83 75/16/89
f 24/16/240 214/35/203 121/16/194
f 213/16/83 63/32/239 75/16/89
f 118/16/186 219/16/90 78/16/96
f 30/16/23 220/16/195 118/16/186
f 219/16/90 66/32/64 78/16/96
f 221/15/187 81/15/103 116/15/179
f 31/15/242 221/15/187 116/15/179
f 224/15/98 58/28/241 81/15/103
f 228/15/180 85/15/108 114/15/174
f 36/15/29 228/15/180 114/15/174
f 226/15/104 57/28/52 85/15/108
f 112/15/169 231/15/110 87/15/113
f 37/15/244 230/15/175 112/15/169
f 231/15/110 51/28/243 87/15/113
f 110/10/164 233/10/114 89/10/118
f 41/10/35 236/10/170 110/10/164
f 233/10/114 50/24/46 89/10/118
f 108/10/159 239/10/120 91/10/123
f 15/10/246 237/10/165 108/10/159
f 239/10/120 47/24/245 91/10/123
f 244/10/160 93/10/128 106/10/155
f 12/10/11 244/10/160 106/10/155
f 241/10/124 46/24/42 93/10/128
f 104/37/150 246/8/130 95/37/133
f 13/37/248 245/8/156 104/37/150
f 246/8/130 43/22/247 95/37/133
f 100/4/138 250/37/134 97/37/146
f 64/4/60 251/37/151 100/4/138
f 250/37/134 42/22/38 97/37/146
f 7/4/249 254/4/145 255/4/223
f 99/4/220 254/4/145 6/4/4
f 23/4/250 253/4/139 99/4/220
f 137/1/1 2/1/251 3/2/2
f 6/4/4 7/4/249 132/5/5
f 201/6/7 10/6/224 3/2/2
f 247/8/9 13/37/248 14/9/10
f 200/11/12 17/38/236 14/9/10
f 207/12/14 20/12/238 14/9/10
f 133/5/16 22/36/252 14/9/10
f 215/35/201 24/16/240 14/9/10
f 143/13/18 26/13/226 14/9/10
f 167/14/20 28/14/255 14/9/10
f 222/15/22 31/15/242 14/9/10
f 149/17/24 33/33/214 14/9/10
f 174/18/26 35/18/232 14/9/10
f 229/15/28 37/15/244 14/9/10
f 154/14/30 29/14/229 14/9/10
f 184/20/32 40/20/233 14/9/10
f 238/10/34 15/10/246 14/9/10
f 132/5/5 7/4/249 3/2/2
f 252/22/37 43/22/247 3/2/2
f 193/23/39 45/39/234 3/2/2
f 242/24/41 47/24/245 3/2/2
f 185/25/43 49/25/231 3/2/2
f 235/24/45 51/28/243 3/2/2
f 177/26/47 53/26/254 3/2/2
f 158/27/49 55/27/227 3/2/2
f 225/28/51 58/28/241 3/2/2
f 172/26/53 60/30/230 3/2/2
f 148/29/55 4/3/253 3/2/2
f 161/30/57 56/30/228 3/2/2
f 211/34/74 11/7/237 3/2/2
f 256/4/59 23/4/250 14/9/10
f 190/31/61 18/31/235 14/9/10
f 218/32/63 63/32/239 3/2/2
f 68/12/65 9/7/8 205/12/66
f 70/33/68 55/27/227 158/27/49
f 5/5/70 8/21/36 135/5/71
f 67/12/73 11/7/237 211/34/74
f 69/19/76 54/27/50 155/14/77
f 71/36/79 2/1/251 137/1/1
f 72/35/81 3/34/2 216/16/82
f 73/14/84 56/30/228 161/30/57
f 74/13/86 1/3/3 141/13/87
f 75/16/89 63/32/239 218/32/63
f 76/14/91 62/30/58 168/14/92
f 77/13/94 4/3/253 148/29/55
f 78/16/96 66/32/64 223/15/97
f 79/14/99 60/30/230 172/26/53
f 149/17/24 32/17/25 84/17/101
f 81/15/103 58/28/241 225/28/51
f 82/18/105 59/26/54 173/18/106
f 85/15/108 57/28/52 232/15/109
f 86/18/111 53/26/254 177/26/47
f 87/15/113 51/28/243 235/24/45
f 88/18/115 52/26/48 181/20/116
f 89/10/118 50/24/46 240/10/119
f 90/20/121 49/25/231 185/25/43
f 91/10/123 47/24/245 242/24/41
f 92/20/125 48/25/44 189/31/126
f 93/10/128 46/24/42 248/8/129
f 94/31/131 45/39/234 193/23/39
f 95/37/133 43/22/247 252/22/37
f 96/11/135 44/23/40 198/11/136
f 256/4/59 64/4/60 100/4/138
f 202/38/140 17/38/236 102/38/141
f 203/38/143 204/38/142 102/38/141
f 254/4/145 253/4/139 100/4/138
f 200/11/12 16/11/13 103/11/147
f 249/37/149 13/37/248 104/37/150
f 195/11/152 18/31/235 105/31/153
f 247/8/9 12/10/11 106/10/155
f 65/31/62 107/31/256 191/31/157
f 243/10/158 15/10/246 108/10/159
f 186/20/161 40/20/233 109/20/162
f 238/10/34 41/10/35 110/10/164
f 184/20/32 39/18/33 111/18/166
f 234/10/168 37/15/244 112/15/169
f 179/18/171 35/18/232 113/18/172
f 229/15/28 36/15/29 114/15/174
f 174/18/26 34/18/27 115/18/176
f 227/15/178 31/15/242 116/15/179
f 152/33/181 150/17/102 84/17/101
f 169/18/183 28/14/255 117/14/184
f 222/15/22 30/16/23 118/16/186
f 146/17/188 26/13/226 119/13/189
f 167/14/20 27/14/21 120/14/191
f 217/16/193 24/16/240 121/16/194
f 143/13/18 25/13/19 122/13/196
f 164/14/198 29/14/229 123/14/199
f 215/35/201 14/35/10 124/35/202
f 139/36/204 22/36/252 125/36/205
f 154/14/30 38/19/31 126/19/207
f 212/35/209 20/12/238 127/12/210
f 133/5/16 21/5/17 128/5/212
f 33/33/214 83/33/225 157/33/215
f 207/12/14 19/12/15 101/12/217
f 130/5/219 23/4/250 99/4/220
f 151/33/222 152/33/181 80/17/182
f 255/4/223 254/4/145 97/37/146
f 201/6/7 203/38/143 98/38/144
f 103/11/147 96/11/135 199/11/137
f 104/37/150 95/37/133 250/37/134
f 105/31/153 94/31/131 196/11/132
f 106/10/155 93/10/128 246/8/130
f 191/31/157 107/31/256 92/20/125
f 108/10/159 91/10/123 241/10/124
f 187/20/163 109/20/162 90/20/121
f 110/10/164 89/10/118 239/10/120
f 111/18/166 88/18/115 182/20/117
f 236/10/170 112/15/169 87/15/113
f 178/18/173 113/18/172 86/18/111
f 114/15/174 85/15/108 231/15/110
f 115/18/176 82/18/105 175/18/107
f 116/15/179 81/15/103 226/15/104
f 117/14/184 79/14/99 170/18/100
f 118/16/186 78/16/96 224/15/98
f 119/13/189 77/13/94 147/17/95
f 120/14/191 76/14/91 165/14/93
f 121/16/194 75/16/89 219/16/90
f 122/13/196 74/13/86 144/13/88
f 162/14/200 123/14/199 73/14/84
f 124/35/202 72/35/81 213/16/83
f 125/36/205 71/36/79 138/36/80
f 126/19/207 69/19/76 156/14/78
f 210/35/211 127/12/210 67/12/73
f 136/5/213 128/5/212 5/5/70
f 83/33/225 70/33/68 159/33/69
f 101/12/217 68/12/65 206/12/67
f 99/4/220 6/4/4 129/5/6
f 146/17/188 32/17/25 14/9/10
f 151/33/222 61/29/56 3/2/2
f 155/14/77 54/27/50 3/2/2
f 160/33/216 38/19/31 14/9/10
f 164/14/198 27/14/21 14/9/10
f 168/14/92 62/30/58 3/2/2
f 181/20/116 52/26/48 3/2/2
f 179/18/171 39/18/33 14/9/10
f 186/20/161 65/31/62 14/9/10
f 189/31/126 48/25/44 3/2/2
f 195/11/152 16/11/13 14/9/10
f 198/11/136 44/23/40 3/2/2
f 202/38/140 19/12/15 14/9/10
f 205/12/66 9/7/8 3/2/2
f 217/16/193 30/16/23 14/9/10
f 223/15/97 66/32/64 3/2/2
f 227/15/178 36/15/29 14/9/10
f 232/15/109 57/28/52 3/2/2
f 234/10/168 41/10/35 14/9/10
f 240/10/119 50/24/46 3/2/2
f 243/10/158 12/10/11 14/9/10
f 248/8/129 46/24/42 3/2/2
f 249/37/149 64/4/60 14/9/10
f 255/4/223 42/22/38 3/2/2
f 130/5/219 21/5/17 14/9/10
f 135/5/71 8/21/36 3/2/2
f 139/36/204 25/13/19 14/9/10
f 141/13/87 1/3/3 3/2/2
f 173/18/106 59/26/54 3/2/2
f 169/18/183 34/18/27 14/9/10
f 128/5/212 131/5/221 129/5/6
f 21/5/17 130/5/219 131/5/221
f 129/5/6 132/5/5 8/21/36
f 125/36/205 136/5/213 134/5/72
f 22/36/252 133/5/16 136/5/213
f 134/5/72 135/5/71 2/1/251
f 140/36/206 138/36/80 74/13/86
f 25/13/19 139/36/204 140/36/206
f 138/36/80 137/1/1 1/3/3
f 142/13/197 144/13/88 77/13/94
f 26/13/226 143/13/18 142/13/197
f 144/13/88 141/13/87 4/3/253
f 84/17/101 145/17/190 147/17/95
f 32/17/25 146/17/188 145/17/190
f 147/17/95 148/29/55 61/29/56
f 55/27/227 70/33/68 152/33/181
f 83/33/225 150/17/102 152/33/181
f 33/33/214 149/17/24 150/17/102
f 153/14/208 156/14/78 73/14/84
f 29/14/229 154/14/30 153/14/208
f 156/14/78 155/14/77 56/30/228
f 126/19/207 157/33/215 159/33/69
f 38/19/31 160/33/216 157/33/215
f 69/19/76 159/33/69 158/27/49
f 120/14/191 162/14/200 163/14/85
f 27/14/21 164/14/198 162/14/200
f 163/14/85 161/30/57 62/30/58
f 117/14/184 166/14/192 165/14/93
f 28/14/255 167/14/20 166/14/192
f 165/14/93 168/14/92 60/30/230
f 115/18/176 171/18/185 170/18/100
f 34/18/27 169/18/183 171/18/185
f 170/18/100 172/26/53 59/26/54
f 113/18/172 176/18/177 175/18/107
f 35/18/232 174/18/26 176/18/177
f 175/18/107 173/18/106 53/26/254
f 111/18/166 178/18/173 180/18/112
f 39/18/33 179/18/171 178/18/173
f 180/18/112 177/26/47 52/26/48
f 109/20/162 183/20/167 182/20/117
f 40/20/233 184/20/32 183/20/167
f 182/20/117 181/20/116 49/25/231
f 107/31/256 187/20/163 188/20/122
f 65/31/62 186/20/161 187/20/163
f 188/20/122 185/25/43 48/25/44
f 105/31/153 191/31/157 192/31/127
f 18/31/235 190/31/61 191/31/157
f 94/31/131 192/31/127 189/31/126
f 194/11/154 196/11/132 96/11/135
f 16/11/13 195/11/152 194/11/154
f 196/11/132 193/23/39 44/23/40
f 102/38/141 197/11/148 199/11/137
f 17/38/236 200/11/12 197/11/148
f 199/11/137 198/11/136 10/6/224
f 9/7/8 68/12/65 203/38/143
f 101/12/217 204/38/142 203/38/143
f 19/12/15 202/38/140 204/38/142
f 127/12/210 208/12/218 206/12/67
f 20/12/238 207/12/14 208/12/218
f 206/12/67 205/12/66 11/7/237
f 124/35/202 210/35/211 209/35/75
f 14/35/10 212/35/209 210/35/211
f 209/35/75 211/34/74 3/34/2
f 121/16/194 214/35/203 213/16/83
f 24/16/240 215/35/201 214/35/203
f 213/16/83 216/16/82 63/32/239
f 118/16/186 220/16/195 219/16/90
f 30/16/23 217/16/193 220/16/195
f 219/16/90 218/32/63 66/32/64
f 221/15/187 224/15/98 81/15/103
f 31/15/242 222/15/22 221/15/187
f 224/15/98 223/15/97 58/28/241
f 228/15/180 226/15/104 85/15/108
f 36/15/29 227/15/178 228/15/180
f 226/15/104 225/28/51 57/28/52
f 112/15/169 230/15/175 231/15/110
f 37/15/244 229/15/28 230/15/175
f 231/15/110 232/15/109 51/28/243
f 110/10/164 236/10/170 233/10/114
f 41/10/35 234/10/168 236/10/170
f 233/10/114 235/24/45 50/24/46
f 108/10/159 237/10/165 239/10/120
f 15/10/246 238/10/34 237/10/165
f 239/10/120 240/10/119 47/24/245
f 244/10/160 241/10/124 93/10/128
f 12/10/11 243/10/158 244/10/160
f 241/10/124 242/24/41 46/24/42
f 104/37/150 245/8/156 246/8/130
f 13/37/248 247/8/9 245/8/156
f 246/8/130 248/8/129 43/22/247
f 100/4/138 251/37/151 250/37/134
f 64/4/60 249/37/149 251/37/151
f 250/37/134 252/22/37 42/22/38
f 7/4/249 6/4/4 254/4/145
f 99/4/220 253/4/139 254/4/145
f 23/4/250 256/4/59 253/4/139
