# Blender 4.1.1
# www.blender.org
mtllib 80mm.mtl
o 80mm
v 1.542502 0.000015 -0.306956
v 1.572720 0.000015 -0.000149
v 0.000081 -0.000000 -0.000148
v 1.453009 0.000015 -0.601972
v 1.540599 0.009817 0.306277
v 1.451218 0.009816 0.600930
v 1.453010 0.000015 0.601674
v 1.542502 0.000015 0.306658
v -1.542340 0.000014 0.306658
v -1.572558 0.000015 -0.000148
v -1.452848 0.000014 0.601674
v 0.842613 0.127601 1.260789
v 1.072420 0.127601 1.072191
v 0.000081 0.127609 -0.000148
v 0.580427 0.127601 1.400930
v -1.487297 0.127601 -0.296006
v -1.516436 0.127601 -0.000148
v -1.400998 0.127601 -0.580494
v -1.487297 0.127601 0.295710
v -1.400998 0.127601 0.580198
v 1.487458 0.127602 0.295709
v 1.516598 0.127602 -0.000149
v 1.401160 0.127602 0.580197
v -1.260856 0.127601 0.842383
v -1.072259 0.127601 1.072191
v 1.487458 0.127602 -0.296007
v 1.401159 0.127602 -0.580495
v 0.295938 0.127602 -1.487526
v 0.000081 0.127602 -1.516665
v 0.580427 0.127602 -1.401227
v -0.842450 0.127601 1.260789
v -0.580265 0.127601 1.400930
v 1.261018 0.127602 -0.842680
v 1.072420 0.127602 -1.072488
v -0.295777 0.127602 -1.487526
v -0.580265 0.127602 -1.401227
v -0.295777 0.127601 1.487229
v 0.000081 0.127601 1.516368
v 0.842612 0.127602 -1.261087
v -0.842451 0.127601 -1.261086
v -1.072259 0.127601 -1.072488
v 0.295939 0.127601 1.487229
v 1.307682 0.000015 0.873563
v 1.112105 0.000015 1.111874
v -1.542340 0.000015 -0.306955
v -1.452848 0.000015 -0.601971
v 0.873792 0.000015 1.307453
v 0.601904 0.000015 1.452780
v -1.307521 0.000015 -0.873860
v -1.111943 0.000015 -1.112172
v 0.306888 0.000015 1.542273
v 0.000081 0.000015 1.572490
v -0.873631 0.000015 -1.307750
v -0.601742 0.000015 -1.453078
v 0.873792 0.000015 -1.307750
v 1.112104 0.000015 -1.112172
v 0.601904 0.000015 -1.453078
v -0.306725 0.000014 1.542273
v -0.601742 0.000014 1.452780
v -0.306726 0.000015 -1.542570
v 0.000081 0.000015 -1.572787
v 1.307682 0.000015 -0.873860
v 0.306887 0.000015 -1.542570
v -1.307521 0.000014 0.873563
v -1.111943 0.000014 1.111875
v 1.261019 0.127601 0.842383
v -1.260857 0.127601 -0.842680
v -0.873630 0.000014 1.307453
v -1.451055 0.009816 0.600933
v -1.540437 0.009816 0.306280
v 0.872714 0.009817 -1.306137
v 1.110732 0.009817 -1.110801
v 1.570779 0.009817 -0.000151
v -1.305907 0.009816 0.872486
v 0.601161 0.009817 -1.451285
v 1.540599 0.009817 -0.306579
v -1.110570 0.009816 1.110504
v 0.306508 0.009817 -1.540667
v 1.451216 0.009817 -0.601231
v -0.872551 0.009816 1.305840
v 0.000080 0.009817 -1.570847
v 1.306067 0.009817 -0.872785
v -0.600998 0.009816 1.450988
v -0.306348 0.009817 -1.540666
v 1.077173 0.120115 -1.077242
v 1.266607 0.120115 -0.846417
v -0.306346 0.009816 1.540370
v -0.601000 0.009816 -1.451284
v 0.000082 0.009816 1.570550
v -0.872553 0.009816 -1.306136
v 0.306510 0.009816 1.540369
v -1.110572 0.009816 -1.110800
v 0.601162 0.009816 1.450987
v -1.305908 0.009816 -0.872781
v 0.872716 0.009816 1.305839
v -1.451056 0.009816 -0.601229
v 1.110734 0.009816 1.110502
v -1.540437 0.009816 -0.306576
v 1.306070 0.009816 0.872483
v -1.570618 0.009816 -0.000148
v 1.407371 0.120114 0.582768
v 1.266608 0.120114 0.846116
v -1.493890 0.120114 0.297021
v -1.523158 0.120114 -0.000148
v -1.493890 0.120114 -0.297317
v 1.077175 0.120114 1.076943
v -1.407209 0.120114 -0.583067
v 0.846348 0.120114 1.266377
v -1.266447 0.120114 -0.846414
v 0.583000 0.120114 1.407140
v -1.077012 0.120114 -1.077241
v 0.297251 0.120114 1.493822
v -0.846186 0.120114 -1.266675
v 0.000082 0.120114 1.523091
v -0.582838 0.120114 -1.407438
v -0.297087 0.120114 1.493822
v -0.297089 0.120114 -1.494119
v -0.582836 0.120114 1.407141
v 0.000080 0.120115 -1.523388
v -0.846185 0.120114 1.266379
v 1.407369 0.120115 -0.583069
v 0.297249 0.120115 -1.494119
v -1.077011 0.120114 1.076945
v 1.494051 0.120115 -0.297320
v 0.582999 0.120115 -1.407438
v -1.266446 0.120114 0.846119
v 1.523320 0.120115 -0.000151
v 0.846346 0.120115 -1.266676
v -1.407208 0.120114 0.582771
v 1.494051 0.120114 0.297018
v 1.503146 0.009840 0.455799
v 1.451297 0.127620 0.440073
v 1.457730 0.120096 0.442023
v 1.505003 -0.000009 0.456364
v 1.509295 0.127620 0.148496
v 1.563216 0.009840 0.153804
v 1.565147 -0.000009 0.153996
v 1.515985 0.120096 0.149153
v 1.565147 -0.000008 -0.154295
v 1.563216 0.009840 -0.154106
v 1.509295 0.127620 -0.148794
v 1.515985 0.120096 -0.149454
v 1.505002 -0.000008 -0.456662
v 1.457729 0.120096 -0.442324
v 1.451297 0.127620 -0.440371
v 1.503145 0.009840 -0.456101
v 1.343457 0.120097 -0.718201
v 1.337529 0.127620 -0.715030
v 1.385312 0.009841 -0.740573
v 1.387024 -0.000008 -0.741486
v 1.172364 0.127620 -0.962217
v 1.177559 0.120097 -0.966482
v 1.215747 -0.000008 -0.997821
v 1.214246 0.009841 -0.996591
v 0.718131 0.120097 -1.343526
v 0.714962 0.127620 -1.337597
v 0.741418 -0.000008 -1.387093
v 0.740503 0.009841 -1.385381
v 0.966413 0.120097 -1.177629
v 0.997752 -0.000008 -1.215815
v 0.996521 0.009841 -1.214315
v 0.962149 0.127620 -1.172432
v 0.456593 -0.000008 -1.505070
v 0.442253 0.120096 -1.457798
v 0.456030 0.009840 -1.503214
v 0.440302 0.127620 -1.451365
v 0.154035 0.009840 -1.563284
v 0.149383 0.120096 -1.516053
v 0.148725 0.127620 -1.509363
v 0.154226 -0.000008 -1.565215
v -0.148564 0.127620 -1.509363
v -0.153875 0.009840 -1.563283
v -0.149223 0.120096 -1.516053
v -0.154065 -0.000009 -1.565215
v -0.456433 -0.000009 -1.505070
v -0.440141 0.127620 -1.451365
v -0.455870 0.009840 -1.503213
v -0.442093 0.120096 -1.457797
v -0.741256 -0.000009 -1.387092
v -0.717970 0.120096 -1.343526
v -0.714800 0.127620 -1.337597
v -0.740342 0.009840 -1.385381
v -0.997591 -0.000009 -1.215815
v -0.996360 0.009840 -1.214314
v -0.966252 0.120096 -1.177628
v -0.961987 0.127619 -1.172432
v -1.215586 -0.000009 -0.997820
v -1.172203 0.127619 -0.962216
v -1.177399 0.120096 -0.966481
v -1.214086 0.009840 -0.996588
v -1.386863 -0.000009 -0.741485
v -1.337368 0.127619 -0.715029
v -1.343297 0.120096 -0.718198
v -1.385152 0.009840 -0.740570
v -1.504841 -0.000009 -0.456661
v -1.457569 0.120096 -0.442321
v -1.451136 0.127619 -0.440370
v -1.502984 0.009840 -0.456098
v -1.515824 0.120096 -0.149451
v -1.564986 -0.000009 -0.154294
v -1.563055 0.009840 -0.154103
v -1.509134 0.127619 -0.148793
v -1.564986 -0.000009 0.153997
v -1.509134 0.127619 0.148497
v -1.563054 0.009840 0.153808
v -1.515823 0.120096 0.149156
v -1.504840 -0.000009 0.456365
v -1.502984 0.009840 0.455802
v -1.451136 0.127619 0.440073
v -1.457568 0.120096 0.442026
v -1.385151 0.009840 0.740275
v -1.343296 0.120096 0.717902
v -1.386863 -0.000009 0.741188
v -1.337367 0.127619 0.714733
v -1.214085 0.009840 0.996293
v -1.177398 0.120096 0.966185
v -1.172203 0.127619 0.961919
v -1.215586 -0.000009 0.997523
v -0.961987 0.127619 1.172135
v -0.997590 -0.000009 1.215518
v -0.996359 0.009840 1.214018
v -0.966251 0.120096 1.177332
v -0.717968 0.120096 1.343229
v -0.714800 0.127619 1.337300
v -0.741256 -0.000009 1.386795
v -0.740340 0.009840 1.385084
v -0.456432 -0.000009 1.504773
v -0.455868 0.009840 1.502916
v -0.440141 0.127619 1.451068
v -0.442091 0.120096 1.457501
v -0.148564 0.127619 1.509066
v -0.149221 0.120096 1.515756
v -0.153873 0.009840 1.562986
v -0.154064 -0.000009 1.564918
v 0.154038 0.009840 1.562986
v 0.148726 0.127619 1.509066
v 0.154227 -0.000009 1.564918
v 0.149385 0.120096 1.515756
v 0.442255 0.120096 1.457500
v 0.440302 0.127619 1.451068
v 0.456032 0.009840 1.502916
v 0.456594 -0.000009 1.504773
v 0.740504 0.009840 1.385083
v 0.741418 -0.000009 1.386795
v 0.714962 0.127619 1.337300
v 0.718132 0.120096 1.343228
v 0.966415 0.120096 1.177330
v 0.996523 0.009840 1.214017
v 0.962149 0.127619 1.172135
v 0.997753 -0.000009 1.215518
v 1.172364 0.127619 0.961919
v 1.214248 0.009840 0.996291
v 1.177562 0.120096 0.966183
v 1.215747 -0.000009 0.997523
v 1.343459 0.120096 0.717900
v 1.385314 0.009840 0.740272
v 1.387025 -0.000009 0.741188
v 1.337529 0.127620 0.714732
vn 0.9466 -0.3085 -0.0932
vn -0.0000 -1.0000 -0.0000
vn 0.9329 -0.3086 -0.1856
vn 0.8849 0.2873 0.3666
vn 0.9103 -0.3084 0.2761
vn 0.9166 0.2873 0.2780
vn -0.9466 -0.3088 0.0932
vn -0.9329 -0.3086 0.1856
vn 0.3004 0.8808 0.3660
vn -0.0000 1.0000 -0.0000
vn 0.2629 0.8810 0.3934
vn -0.4719 0.8804 -0.0464
vn -0.4641 0.8810 -0.0923
vn -0.4533 0.8807 0.1375
vn -0.4636 0.8812 0.0922
vn 0.4715 0.8807 0.0464
vn 0.4641 0.8809 0.0924
vn -0.3665 0.8804 0.3009
vn -0.3937 0.8808 0.2631
vn 0.4531 0.8808 -0.1375
vn 0.4640 0.8810 -0.0923
vn 0.0464 0.8804 -0.4720
vn 0.0923 0.8810 -0.4641
vn -0.2235 0.8804 0.4182
vn -0.2630 0.8809 0.3936
vn 0.3662 0.8807 -0.3006
vn 0.3930 0.8812 -0.2626
vn -0.1377 0.8804 -0.4538
vn -0.0922 0.8812 -0.4637
vn -0.0464 0.8804 0.4719
vn -0.0923 0.8810 0.4641
vn 0.2232 0.8808 -0.4176
vn 0.2630 0.8809 -0.3936
vn -0.3006 0.8807 -0.3662
vn -0.2626 0.8812 -0.3931
vn 0.1374 0.8809 0.4529
vn 0.0923 0.8809 0.4643
vn 0.9330 -0.3083 0.1856
vn 0.7352 -0.3088 0.6034
vn 0.7910 -0.3083 0.5285
vn -0.9102 -0.3088 -0.2761
vn -0.9330 -0.3083 -0.1856
vn 0.4484 -0.3086 0.8389
vn 0.5285 -0.3086 0.7909
vn -0.7352 -0.3088 -0.6034
vn -0.7910 -0.3082 -0.5285
vn 0.0932 -0.3088 0.9466
vn 0.1856 -0.3085 0.9329
vn -0.4484 -0.3085 -0.8389
vn -0.5285 -0.3085 -0.7909
vn 0.6034 -0.3088 -0.7352
vn 0.5285 -0.3086 -0.7909
vn -0.2761 -0.3085 0.9103
vn -0.1856 -0.3086 0.9329
vn -0.0932 -0.3088 -0.9466
vn -0.1856 -0.3083 -0.9330
vn 0.8388 -0.3088 -0.4483
vn 0.7910 -0.3083 -0.5285
vn 0.2761 -0.3088 -0.9102
vn 0.1856 -0.3083 -0.9330
vn -0.8388 -0.3088 0.4483
vn -0.7909 -0.3085 0.5285
vn 0.4182 0.8804 0.2235
vn 0.3930 0.8812 0.2627
vn -0.4174 0.8809 -0.2231
vn -0.3936 0.8808 -0.2630
vn -0.6034 -0.3088 0.7352
vn -0.5285 -0.3086 0.7909
vn -0.9394 0.2876 0.1869
vn -0.9103 -0.3085 0.2761
vn -0.9167 0.2871 0.2781
vn 0.6772 0.2876 -0.6773
vn 0.6076 0.2874 -0.7404
vn 0.9394 0.2874 0.1869
vn 0.9465 -0.3088 0.0933
vn 0.9533 0.2871 0.0939
vn -0.8849 0.2875 0.3665
vn -0.8448 0.2871 0.4515
vn 0.5322 0.2873 -0.7964
vn 0.4484 -0.3088 -0.8388
vn 0.4515 0.2871 -0.8448
vn 0.9578 0.2876 -0.0000
vn 0.9533 0.2871 -0.0939
vn -0.7963 0.2876 0.5321
vn -0.7353 -0.3088 0.6034
vn -0.7405 0.2871 0.6077
vn 0.3665 0.2874 -0.8849
vn 0.2781 0.2871 -0.9166
vn 0.9394 0.2873 -0.1869
vn 0.9102 -0.3088 -0.2761
vn 0.9166 0.2873 -0.2780
vn -0.6772 0.2876 0.6773
vn -0.6077 0.2871 0.7405
vn 0.1869 0.2874 -0.9394
vn 0.0933 -0.3088 -0.9466
vn 0.0939 0.2871 -0.9533
vn 0.8848 0.2876 -0.3665
vn 0.8447 0.2873 -0.4515
vn -0.5321 0.2876 0.7964
vn -0.4484 -0.3086 0.8389
vn -0.4515 0.2871 0.8448
vn -0.0000 0.2876 -0.9578
vn -0.0939 0.2874 -0.9532
vn 0.7107 0.5191 -0.4748
vn 0.6609 0.5187 -0.5424
vn -0.3665 0.2876 0.8849
vn -0.2781 0.2871 0.9166
vn -0.1869 0.2873 -0.9394
vn -0.2761 -0.3085 -0.9103
vn -0.2780 0.2871 -0.9166
vn -0.1868 0.2876 0.9394
vn -0.0933 -0.3088 0.9465
vn -0.0939 0.2874 0.9532
vn -0.3665 0.2876 -0.8848
vn -0.4515 0.2871 -0.8448
vn -0.0000 0.2874 0.9578
vn 0.0939 0.2871 0.9533
vn -0.5321 0.2876 -0.7963
vn -0.6034 -0.3088 -0.7353
vn -0.6076 0.2874 -0.7404
vn 0.1869 0.2876 0.9393
vn 0.2761 -0.3088 0.9102
vn 0.2780 0.2871 0.9166
vn -0.6773 0.2876 -0.6772
vn -0.7404 0.2872 -0.6077
vn 0.3665 0.2873 0.8849
vn 0.4515 0.2871 0.8448
vn -0.7964 0.2876 -0.5321
vn -0.8388 -0.3088 -0.4484
vn -0.8447 0.2874 -0.4515
vn 0.5321 0.2874 0.7964
vn 0.6035 -0.3084 0.7353
vn 0.6076 0.2873 0.7404
vn -0.8849 0.2876 -0.3665
vn -0.9166 0.2871 -0.2781
vn 0.6773 0.2872 0.6773
vn 0.7405 0.2871 0.6077
vn -0.9394 0.2874 -0.1869
vn -0.9466 -0.3086 -0.0932
vn -0.9532 0.2873 -0.0939
vn 0.7106 0.5191 0.4749
vn 0.7542 0.5184 0.4031
vn -0.4719 0.8804 0.0465
vn -0.8547 0.5191 -0.0000
vn -0.8508 0.5187 0.0838
vn -0.9532 0.2874 0.0939
vn -0.9578 0.2876 -0.0000
vn 0.8448 0.2871 0.4516
vn 0.7964 0.2876 0.5321
vn -0.8383 0.5191 -0.1668
vn -0.8508 0.5187 -0.0838
vn 0.3662 0.8807 0.3005
vn 0.6043 0.5191 0.6044
vn 0.6608 0.5188 0.5423
vn -0.4533 0.8807 -0.1375
vn -0.7896 0.5191 -0.3271
vn -0.8183 0.5184 -0.2482
vn 0.4748 0.5191 0.7107
vn 0.5425 0.5184 0.6610
vn -0.7541 0.5184 -0.4031
vn 0.2236 0.8804 0.4182
vn 0.3271 0.5188 0.7898
vn 0.4030 0.5188 0.7539
vn -0.3662 0.8807 -0.3005
vn -0.6044 0.5191 -0.6044
vn -0.6609 0.5188 -0.5423
vn 0.1668 0.5187 0.8385
vn 0.2483 0.5184 0.8183
vn -0.4748 0.5191 -0.7107
vn -0.5425 0.5184 -0.6610
vn 0.0464 0.8808 0.4712
vn -0.0000 0.5191 0.8547
vn 0.0838 0.5184 0.8510
vn -0.2232 0.8808 -0.4176
vn -0.3271 0.5191 -0.7897
vn -0.4031 0.5184 -0.7542
vn -0.1668 0.5191 0.8383
vn -0.0838 0.5187 0.8508
vn -0.1668 0.5188 -0.8385
vn -0.2483 0.5184 -0.8183
vn -0.1376 0.8804 0.4538
vn -0.3271 0.5191 0.7896
vn -0.2482 0.5188 0.8181
vn 0.7404 0.2874 -0.6076
vn 0.7964 0.2873 -0.5321
vn -0.0465 0.8804 -0.4719
vn -0.0000 0.5191 -0.8547
vn -0.0838 0.5188 -0.8508
vn -0.4750 0.5188 0.7108
vn -0.4030 0.5187 0.7540
vn 0.4182 0.8804 -0.2236
vn 0.7899 0.5187 -0.3272
vn 0.7541 0.5184 -0.4031
vn 0.1668 0.5187 -0.8385
vn 0.0838 0.5187 -0.8509
vn -0.3004 0.8808 0.3660
vn -0.6044 0.5191 0.6043
vn -0.5425 0.5184 0.6610
vn 0.8384 0.5189 -0.1668
vn 0.8183 0.5184 -0.2483
vn 0.1809 0.8812 -0.4367
vn 0.2483 0.5184 -0.8183
vn 0.1375 0.8808 -0.4532
vn -0.7107 0.5191 0.4748
vn -0.6610 0.5184 0.5425
vn 0.4713 0.8808 -0.0464
vn 0.8547 0.5191 -0.0000
vn 0.8510 0.5184 -0.0839
vn 0.4749 0.5191 -0.7106
vn 0.4030 0.5188 -0.7539
vn -0.4182 0.8804 0.2236
vn -0.7897 0.5191 0.3271
vn -0.7539 0.5188 0.4030
vn 0.8383 0.5191 0.1668
vn 0.8510 0.5184 0.0838
vn 0.3343 0.8812 -0.3343
vn 0.5425 0.5184 -0.6610
vn 0.3004 0.8808 -0.3660
vn -0.8384 0.5188 0.1668
vn -0.8183 0.5184 0.2483
vn 0.4531 0.8808 0.1375
vn 0.7899 0.5187 0.3272
vn 0.8182 0.5187 0.2482
vn 0.7353 -0.3086 -0.6034
vn 0.8388 -0.3088 0.4484
vn -0.9513 -0.3082 -0.0000
vn 0.6045 0.5187 -0.6045
vn 0.4367 0.8812 -0.1808
vn 0.6727 -0.3083 -0.6727
vn 0.3640 -0.3083 -0.8789
vn -0.0000 -0.3083 -0.9513
vn -0.6726 -0.3085 -0.6726
vn -0.1809 0.8812 -0.4368
vn -0.3342 0.8812 -0.3343
vn -0.8788 -0.3085 -0.3640
vn -0.4371 0.8810 -0.1811
vn -0.4727 0.8812 -0.0001
vn -0.8788 -0.3086 0.3640
vn -0.4374 0.8809 0.1811
vn -0.6726 -0.3086 0.6726
vn -0.3343 0.8812 0.3342
vn -0.3640 -0.3086 0.8788
vn -0.1811 0.8810 0.4371
vn -0.0000 -0.3083 0.9513
vn -0.0001 0.8812 0.4727
vn 0.3641 -0.3083 0.8789
vn 0.1811 0.8809 0.4374
vn 0.6726 -0.3086 0.6726
vn 0.3345 0.8810 0.3346
vn 0.8788 -0.3085 0.3640
vn 0.4372 0.8810 0.1811
vn 0.9513 -0.3083 -0.0000
vn 0.4734 0.8809 -0.0000
vn 0.8788 -0.3086 -0.3640
vn -0.3640 -0.3085 -0.8788
vn -0.0000 0.8809 -0.4734
vn 0.3271 0.5191 -0.7897
vn -0.7107 0.5191 -0.4748
vt 0.500004 0.500000
vt 0.500002 0.500000
vt 0.500004 0.500001
vt 0.499996 0.499998
vt 0.499996 0.499999
vt 0.500001 0.500000
vt 0.500001 0.499999
vt 0.499997 0.499997
vt 0.499998 0.500000
vt 0.499997 0.499996
vt 0.499999 0.500001
vt 0.499999 0.499999
vt 0.499999 0.499998
vt 0.499996 0.500001
vt 0.499997 0.500004
vt 0.499998 0.499996
vt 0.499999 0.499997
vt 0.499996 0.500002
vt 0.499998 0.500004
vt 0.499997 0.500003
vt 0.499999 0.500003
vt 0.500004 0.499999
vt 0.500004 0.499997
vt 0.500001 0.500001
vt 0.500003 0.499996
vt 0.500001 0.500003
vt 0.500002 0.500004
vt 0.500004 0.500003
vt 0.500002 0.499996
vt 0.500004 0.500002
vt 0.500003 0.500004
vt 0.500001 0.499998
vt 0.499999 0.500002
vt 0.500001 0.499997
vt 0.499996 0.500003
vt 0.499996 0.500000
vt 0.499996 0.499997
vt 0.499999 0.500000
vt 0.500001 0.500002
s 1
usemtl None.006
f 139/1/1 3/2/2 1/3/3
f 6/4/4 134/5/5 131/5/6
f 203/6/7 3/2/2 9/7/8
f 249/8/9 14/9/10 12/10/11
f 202/11/12 14/9/10 16/11/13
f 209/12/14 14/9/10 19/12/15
f 135/5/16 14/9/10 21/5/17
f 217/13/18 14/9/10 24/13/19
f 145/14/20 14/9/10 26/14/21
f 169/15/22 14/9/10 28/15/23
f 224/16/24 14/9/10 31/17/25
f 151/18/26 14/9/10 33/18/27
f 176/19/28 14/9/10 35/19/29
f 231/16/30 14/9/10 37/16/31
f 156/15/32 14/9/10 39/20/33
f 186/21/34 14/9/10 40/19/35
f 240/10/36 14/9/10 42/10/37
f 134/5/5 3/2/2 8/22/38
f 254/23/39 3/2/2 43/23/40
f 195/24/41 3/2/2 45/24/42
f 244/25/43 3/2/2 47/25/44
f 187/26/45 3/2/2 49/26/46
f 237/25/47 3/2/2 51/25/48
f 179/27/49 3/2/2 53/27/50
f 160/28/51 3/2/2 55/28/52
f 227/29/53 3/2/2 58/29/54
f 174/27/55 3/2/2 60/27/56
f 150/30/57 3/2/2 62/30/58
f 163/31/59 3/2/2 63/31/60
f 213/32/61 3/2/2 64/32/62
f 258/4/63 14/9/10 66/4/64
f 192/33/65 14/9/10 67/33/66
f 220/34/67 3/2/2 68/34/68
f 70/12/69 207/12/70 208/12/71
f 72/35/72 160/28/51 161/35/73
f 5/5/74 137/5/75 136/5/76
f 69/12/77 213/32/61 211/13/78
f 71/20/79 157/15/80 158/15/81
f 73/36/82 139/1/1 140/36/83
f 74/13/84 218/17/85 215/17/86
f 75/15/87 163/31/59 165/15/88
f 76/14/89 143/14/90 146/14/91
f 77/17/92 220/34/67 221/17/93
f 78/15/94 170/15/95 167/15/96
f 79/14/97 150/30/57 149/18/98
f 80/17/99 225/16/100 226/16/101
f 81/15/102 174/27/55 172/19/103
f 151/18/26 86/18/104 152/18/105
f 83/16/106 227/29/53 228/16/107
f 84/19/108 175/19/109 177/19/110
f 87/16/111 234/16/112 233/16/113
f 88/19/114 179/27/49 182/19/115
f 89/16/116 237/25/47 235/10/117
f 90/19/118 183/21/119 184/21/120
f 91/10/121 242/10/122 241/10/123
f 92/21/124 187/26/45 190/21/125
f 93/10/126 244/25/43 243/10/127
f 94/21/128 191/33/129 194/33/130
f 95/10/131 250/8/132 248/8/133
f 96/33/134 195/24/41 198/11/135
f 97/37/136 254/23/39 252/37/137
f 98/11/138 200/11/139 201/11/140
f 258/4/63 102/4/141 255/4/142
f 204/38/143 104/38/144 206/38/145
f 205/38/146 104/38/144 100/38/147
f 256/4/148 102/4/141 99/37/149
f 202/11/12 105/11/150 199/11/151
f 251/37/152 106/37/153 253/37/154
f 197/11/155 107/33/156 196/11/157
f 249/8/9 108/10/158 247/8/159
f 67/33/66 193/33/160 192/33/65
f 245/10/161 110/10/162 246/10/163
f 188/21/164 111/21/165 189/21/166
f 240/10/36 112/10/167 239/10/168
f 186/21/34 113/19/169 185/21/170
f 236/10/171 114/16/172 238/10/173
f 181/19/174 115/19/175 180/19/176
f 231/16/30 116/16/177 232/16/178
f 176/19/28 117/19/179 178/19/180
f 229/16/181 118/16/182 230/16/183
f 154/35/184 86/18/104 82/18/185
f 171/19/186 119/15/187 173/19/188
f 224/16/24 120/17/189 223/16/190
f 148/18/191 121/14/192 147/18/193
f 169/15/22 122/15/194 168/15/195
f 219/17/196 123/17/197 222/17/198
f 145/14/20 124/14/199 144/14/200
f 30/15/201 164/15/202 166/15/203
f 217/13/18 126/13/204 216/13/205
f 141/36/206 127/36/207 142/36/208
f 156/15/32 128/20/209 155/15/210
f 214/13/211 129/12/212 212/13/213
f 135/5/16 130/5/214 138/5/215
f 34/35/216 159/35/217 162/35/218
f 209/12/14 103/12/219 210/12/220
f 132/5/221 101/4/222 133/5/223
f 153/35/224 82/18/185 62/30/58
f 257/4/225 99/37/149 43/23/40
f 203/6/7 100/38/147 10/6/226
f 105/11/150 201/11/140 199/11/151
f 106/37/153 252/37/137 253/37/154
f 107/33/156 198/11/135 196/11/157
f 108/10/158 248/8/133 247/8/159
f 193/33/160 94/21/128 194/33/130
f 110/10/162 243/10/127 246/10/163
f 189/21/166 92/21/124 190/21/125
f 112/10/167 241/10/123 239/10/168
f 113/19/169 184/21/120 185/21/170
f 238/10/173 89/16/116 235/10/117
f 180/19/176 88/19/114 182/19/115
f 116/16/177 233/16/113 232/16/178
f 117/19/179 177/19/110 178/19/180
f 118/16/182 228/16/107 230/16/183
f 119/15/187 172/19/103 173/19/188
f 120/17/189 226/16/101 223/16/190
f 121/14/192 149/18/98 147/18/193
f 122/15/194 167/15/96 168/15/195
f 123/17/197 221/17/93 222/17/198
f 124/14/199 146/14/91 144/14/200
f 164/15/202 75/15/87 165/15/88
f 126/13/204 215/17/86 216/13/205
f 127/36/207 140/36/83 142/36/208
f 128/20/209 158/15/81 155/15/210
f 129/12/212 211/13/78 212/13/213
f 138/5/215 5/5/74 136/5/76
f 85/35/227 161/35/73 159/35/217
f 103/12/219 208/12/71 210/12/220
f 101/4/222 131/5/6 133/5/223
f 148/18/191 14/9/10 27/14/228
f 153/35/224 3/2/2 56/28/229
f 157/15/80 3/2/2 57/31/230
f 162/35/218 14/9/10 34/35/216
f 166/15/203 14/9/10 30/15/201
f 170/15/95 3/2/2 61/31/231
f 183/21/119 3/2/2 50/26/232
f 181/19/174 14/9/10 36/19/233
f 188/21/164 14/9/10 41/21/234
f 191/33/129 3/2/2 46/39/235
f 197/11/155 14/9/10 18/33/236
f 200/11/139 3/2/2 10/6/226
f 204/38/143 14/9/10 17/38/237
f 207/12/70 3/2/2 11/7/238
f 214/13/211 14/9/10 20/12/239
f 218/17/85 3/2/2 65/34/240
f 219/17/196 14/9/10 25/17/241
f 225/16/100 3/2/2 59/29/242
f 229/16/181 14/9/10 32/16/243
f 234/16/112 3/2/2 52/29/244
f 236/10/171 14/9/10 38/16/245
f 242/10/122 3/2/2 48/25/246
f 245/10/161 14/9/10 15/10/247
f 250/8/132 3/2/2 44/23/248
f 251/37/152 14/9/10 13/37/249
f 257/4/225 3/2/2 7/4/250
f 132/5/221 14/9/10 23/4/251
f 137/5/75 3/2/2 2/1/252
f 141/36/206 14/9/10 22/36/253
f 143/14/90 3/2/2 4/3/254
f 175/19/109 3/2/2 54/27/255
f 171/19/186 14/9/10 29/15/256
f 133/5/223 5/5/74 130/5/214
f 21/5/17 133/5/223 130/5/214
f 131/5/6 8/22/38 5/5/74
f 127/36/207 136/5/76 73/36/82
f 22/36/253 138/5/215 127/36/207
f 136/5/76 2/1/252 73/36/82
f 124/14/199 140/36/83 76/14/89
f 26/14/21 142/36/208 124/14/199
f 140/36/83 1/3/3 76/14/89
f 121/14/192 146/14/91 79/14/97
f 27/14/228 144/14/200 121/14/192
f 146/14/91 4/3/254 79/14/97
f 86/18/104 149/18/98 82/18/185
f 33/18/27 147/18/193 86/18/104
f 149/18/98 62/30/58 82/18/185
f 56/28/229 154/35/184 153/35/224
f 85/35/227 154/35/184 72/35/72
f 34/35/216 152/18/105 85/35/227
f 125/15/257 158/15/81 75/15/87
f 30/15/201 155/15/210 125/15/257
f 75/15/87 157/15/80 57/31/230
f 128/20/209 161/35/73 71/20/79
f 39/20/33 159/35/217 128/20/209
f 71/20/79 160/28/51 55/28/52
f 122/15/194 165/15/88 78/15/94
f 28/15/23 164/15/202 122/15/194
f 165/15/88 63/31/60 78/15/94
f 119/15/187 167/15/96 81/15/102
f 29/15/256 168/15/195 119/15/187
f 167/15/96 61/31/231 81/15/102
f 117/19/179 172/19/103 84/19/108
f 35/19/29 173/19/188 117/19/179
f 172/19/103 60/27/56 84/19/108
f 115/19/175 177/19/110 88/19/114
f 36/19/233 178/19/180 115/19/175
f 177/19/110 54/27/255 88/19/114
f 113/19/169 182/19/115 90/19/118
f 40/19/35 180/19/176 113/19/169
f 182/19/115 53/27/50 90/19/118
f 111/21/165 184/21/120 92/21/124
f 41/21/234 185/21/170 111/21/165
f 184/21/120 50/26/232 92/21/124
f 109/33/258 190/21/125 94/21/128
f 67/33/66 189/21/166 109/33/258
f 190/21/125 49/26/46 94/21/128
f 107/33/156 194/33/130 96/33/134
f 18/33/236 193/33/160 107/33/156
f 96/33/134 191/33/129 46/39/235
f 196/11/157 98/11/138 105/11/150
f 16/11/13 196/11/157 105/11/150
f 198/11/135 45/24/42 98/11/138
f 104/38/144 201/11/140 100/38/147
f 17/38/237 199/11/151 104/38/144
f 201/11/140 10/6/226 100/38/147
f 9/7/8 205/38/146 203/6/7
f 103/12/219 205/38/146 70/12/69
f 19/12/15 206/38/145 103/12/219
f 129/12/212 208/12/71 69/12/77
f 20/12/239 210/12/220 129/12/212
f 208/12/71 11/7/238 69/12/77
f 126/13/204 211/13/78 74/13/84
f 24/13/19 212/13/213 126/13/204
f 211/13/78 64/32/62 74/13/84
f 123/17/197 215/17/86 77/17/92
f 25/17/241 216/13/205 123/17/197
f 215/17/86 65/34/240 77/17/92
f 120/17/189 221/17/93 80/17/99
f 31/17/25 222/17/198 120/17/189
f 221/17/93 68/34/68 80/17/99
f 223/16/190 83/16/106 118/16/182
f 32/16/243 223/16/190 118/16/182
f 226/16/101 59/29/242 83/16/106
f 230/16/183 87/16/111 116/16/177
f 37/16/31 230/16/183 116/16/177
f 228/16/107 58/29/54 87/16/111
f 114/16/172 233/16/113 89/16/116
f 38/16/245 232/16/178 114/16/172
f 233/16/113 52/29/244 89/16/116
f 112/10/167 235/10/117 91/10/121
f 42/10/37 238/10/173 112/10/167
f 235/10/117 51/25/48 91/10/121
f 110/10/162 241/10/123 93/10/126
f 15/10/247 239/10/168 110/10/162
f 241/10/123 48/25/246 93/10/126
f 108/10/158 243/10/127 95/10/131
f 12/10/11 246/10/163 108/10/158
f 243/10/127 47/25/44 95/10/131
f 106/37/153 248/8/133 97/37/136
f 13/37/249 247/8/159 106/37/153
f 248/8/133 44/23/248 97/37/136
f 102/4/141 252/37/137 99/37/149
f 66/4/64 253/37/154 102/4/141
f 252/37/137 43/23/40 99/37/149
f 7/4/250 256/4/148 257/4/225
f 101/4/222 256/4/148 6/4/4
f 23/4/251 255/4/142 101/4/222
f 139/1/1 2/1/252 3/2/2
f 6/4/4 7/4/250 134/5/5
f 203/6/7 10/6/226 3/2/2
f 249/8/9 13/37/249 14/9/10
f 202/11/12 17/38/237 14/9/10
f 209/12/14 20/12/239 14/9/10
f 135/5/16 22/36/253 14/9/10
f 217/13/18 25/17/241 14/9/10
f 145/14/20 27/14/228 14/9/10
f 169/15/22 29/15/256 14/9/10
f 224/16/24 32/16/243 14/9/10
f 151/18/26 34/35/216 14/9/10
f 176/19/28 36/19/233 14/9/10
f 231/16/30 38/16/245 14/9/10
f 156/15/32 30/15/201 14/9/10
f 186/21/34 41/21/234 14/9/10
f 240/10/36 15/10/247 14/9/10
f 134/5/5 7/4/250 3/2/2
f 254/23/39 44/23/248 3/2/2
f 195/24/41 46/39/235 3/2/2
f 244/25/43 48/25/246 3/2/2
f 187/26/45 50/26/232 3/2/2
f 237/25/47 52/29/244 3/2/2
f 179/27/49 54/27/255 3/2/2
f 160/28/51 56/28/229 3/2/2
f 227/29/53 59/29/242 3/2/2
f 174/27/55 61/31/231 3/2/2
f 150/30/57 4/3/254 3/2/2
f 163/31/59 57/31/230 3/2/2
f 213/32/61 11/7/238 3/2/2
f 258/4/63 23/4/251 14/9/10
f 192/33/65 18/33/236 14/9/10
f 220/34/67 65/34/240 3/2/2
f 70/12/69 9/7/8 207/12/70
f 72/35/72 56/28/229 160/28/51
f 5/5/74 8/22/38 137/5/75
f 69/12/77 11/7/238 213/32/61
f 71/20/79 55/28/52 157/15/80
f 73/36/82 2/1/252 139/1/1
f 74/13/84 64/32/62 218/17/85
f 75/15/87 57/31/230 163/31/59
f 76/14/89 1/3/3 143/14/90
f 77/17/92 65/34/240 220/34/67
f 78/15/94 63/31/60 170/15/95
f 79/14/97 4/3/254 150/30/57
f 80/17/99 68/34/68 225/16/100
f 81/15/102 61/31/231 174/27/55
f 151/18/26 33/18/27 86/18/104
f 83/16/106 59/29/242 227/29/53
f 84/19/108 60/27/56 175/19/109
f 87/16/111 58/29/54 234/16/112
f 88/19/114 54/27/255 179/27/49
f 89/16/116 52/29/244 237/25/47
f 90/19/118 53/27/50 183/21/119
f 91/10/121 51/25/48 242/10/122
f 92/21/124 50/26/232 187/26/45
f 93/10/126 48/25/246 244/25/43
f 94/21/128 49/26/46 191/33/129
f 95/10/131 47/25/44 250/8/132
f 96/33/134 46/39/235 195/24/41
f 97/37/136 44/23/248 254/23/39
f 98/11/138 45/24/42 200/11/139
f 258/4/63 66/4/64 102/4/141
f 204/38/143 17/38/237 104/38/144
f 205/38/146 206/38/145 104/38/144
f 256/4/148 255/4/142 102/4/141
f 202/11/12 16/11/13 105/11/150
f 251/37/152 13/37/249 106/37/153
f 197/11/155 18/33/236 107/33/156
f 249/8/9 12/10/11 108/10/158
f 67/33/66 109/33/258 193/33/160
f 245/10/161 15/10/247 110/10/162
f 188/21/164 41/21/234 111/21/165
f 240/10/36 42/10/37 112/10/167
f 186/21/34 40/19/35 113/19/169
f 236/10/171 38/16/245 114/16/172
f 181/19/174 36/19/233 115/19/175
f 231/16/30 37/16/31 116/16/177
f 176/19/28 35/19/29 117/19/179
f 229/16/181 32/16/243 118/16/182
f 154/35/184 152/18/105 86/18/104
f 171/19/186 29/15/256 119/15/187
f 224/16/24 31/17/25 120/17/189
f 148/18/191 27/14/228 121/14/192
f 169/15/22 28/15/23 122/15/194
f 219/17/196 25/17/241 123/17/197
f 145/14/20 26/14/21 124/14/199
f 30/15/201 125/15/257 164/15/202
f 217/13/18 24/13/19 126/13/204
f 141/36/206 22/36/253 127/36/207
f 156/15/32 39/20/33 128/20/209
f 214/13/211 20/12/239 129/12/212
f 135/5/16 21/5/17 130/5/214
f 34/35/216 85/35/227 159/35/217
f 209/12/14 19/12/15 103/12/219
f 132/5/221 23/4/251 101/4/222
f 153/35/224 154/35/184 82/18/185
f 257/4/225 256/4/148 99/37/149
f 203/6/7 205/38/146 100/38/147
f 105/11/150 98/11/138 201/11/140
f 106/37/153 97/37/136 252/37/137
f 107/33/156 96/33/134 198/11/135
f 108/10/158 95/10/131 248/8/133
f 193/33/160 109/33/258 94/21/128
f 110/10/162 93/10/126 243/10/127
f 189/21/166 111/21/165 92/21/124
f 112/10/167 91/10/121 241/10/123
f 113/19/169 90/19/118 184/21/120
f 238/10/173 114/16/172 89/16/116
f 180/19/176 115/19/175 88/19/114
f 116/16/177 87/16/111 233/16/113
f 117/19/179 84/19/108 177/19/110
f 118/16/182 83/16/106 228/16/107
f 119/15/187 81/15/102 172/19/103
f 120/17/189 80/17/99 226/16/101
f 121/14/192 79/14/97 149/18/98
f 122/15/194 78/15/94 167/15/96
f 123/17/197 77/17/92 221/17/93
f 124/14/199 76/14/89 146/14/91
f 164/15/202 125/15/257 75/15/87
f 126/13/204 74/13/84 215/17/86
f 127/36/207 73/36/82 140/36/83
f 128/20/209 71/20/79 158/15/81
f 129/12/212 69/12/77 211/13/78
f 138/5/215 130/5/214 5/5/74
f 85/35/227 72/35/72 161/35/73
f 103/12/219 70/12/69 208/12/71
f 101/4/222 6/4/4 131/5/6
f 148/18/191 33/18/27 14/9/10
f 153/35/224 62/30/58 3/2/2
f 157/15/80 55/28/52 3/2/2
f 162/35/218 39/20/33 14/9/10
f 166/15/203 28/15/23 14/9/10
f 170/15/95 63/31/60 3/2/2
f 183/21/119 53/27/50 3/2/2
f 181/19/174 40/19/35 14/9/10
f 188/21/164 67/33/66 14/9/10
f 191/33/129 49/26/46 3/2/2
f 197/11/155 16/11/13 14/9/10
f 200/11/139 45/24/42 3/2/2
f 204/38/143 19/12/15 14/9/10
f 207/12/70 9/7/8 3/2/2
f 214/13/211 24/13/19 14/9/10
f 218/17/85 64/32/62 3/2/2
f 219/17/196 31/17/25 14/9/10
f 225/16/100 68/34/68 3/2/2
f 229/16/181 37/16/31 14/9/10
f 234/16/112 58/29/54 3/2/2
f 236/10/171 42/10/37 14/9/10
f 242/10/122 51/25/48 3/2/2
f 245/10/161 12/10/11 14/9/10
f 250/8/132 47/25/44 3/2/2
f 251/37/152 66/4/64 14/9/10
f 257/4/225 43/23/40 3/2/2
f 132/5/221 21/5/17 14/9/10
f 137/5/75 8/22/38 3/2/2
f 141/36/206 26/14/21 14/9/10
f 143/14/90 1/3/3 3/2/2
f 175/19/109 60/27/56 3/2/2
f 171/19/186 35/19/29 14/9/10
f 133/5/223 131/5/6 5/5/74
f 21/5/17 132/5/221 133/5/223
f 131/5/6 134/5/5 8/22/38
f 127/36/207 138/5/215 136/5/76
f 22/36/253 135/5/16 138/5/215
f 136/5/76 137/5/75 2/1/252
f 124/14/199 142/36/208 140/36/83
f 26/14/21 141/36/206 142/36/208
f 140/36/83 139/1/1 1/3/3
f 121/14/192 144/14/200 146/14/91
f 27/14/228 145/14/20 144/14/200
f 146/14/91 143/14/90 4/3/254
f 86/18/104 147/18/193 149/18/98
f 33/18/27 148/18/191 147/18/193
f 149/18/98 150/30/57 62/30/58
f 56/28/229 72/35/72 154/35/184
f 85/35/227 152/18/105 154/35/184
f 34/35/216 151/18/26 152/18/105
f 125/15/257 155/15/210 158/15/81
f 30/15/201 156/15/32 155/15/210
f 75/15/87 158/15/81 157/15/80
f 128/20/209 159/35/217 161/35/73
f 39/20/33 162/35/218 159/35/217
f 71/20/79 161/35/73 160/28/51
f 122/15/194 164/15/202 165/15/88
f 28/15/23 166/15/203 164/15/202
f 165/15/88 163/31/59 63/31/60
f 119/15/187 168/15/195 167/15/96
f 29/15/256 169/15/22 168/15/195
f 167/15/96 170/15/95 61/31/231
f 117/19/179 173/19/188 172/19/103
f 35/19/29 171/19/186 173/19/188
f 172/19/103 174/27/55 60/27/56
f 115/19/175 178/19/180 177/19/110
f 36/19/233 176/19/28 178/19/180
f 177/19/110 175/19/109 54/27/255
f 113/19/169 180/19/176 182/19/115
f 40/19/35 181/19/174 180/19/176
f 182/19/115 179/27/49 53/27/50
f 111/21/165 185/21/170 184/21/120
f 41/21/234 186/21/34 185/21/170
f 184/21/120 183/21/119 50/26/232
f 109/33/258 189/21/166 190/21/125
f 67/33/66 188/21/164 189/21/166
f 190/21/125 187/26/45 49/26/46
f 107/33/156 193/33/160 194/33/130
f 18/33/236 192/33/65 193/33/160
f 96/33/134 194/33/130 191/33/129
f 196/11/157 198/11/135 98/11/138
f 16/11/13 197/11/155 196/11/157
f 198/11/135 195/24/41 45/24/42
f 104/38/144 199/11/151 201/11/140
f 17/38/237 202/11/12 199/11/151
f 201/11/140 200/11/139 10/6/226
f 9/7/8 70/12/69 205/38/146
f 103/12/219 206/38/145 205/38/146
f 19/12/15 204/38/143 206/38/145
f 129/12/212 210/12/220 208/12/71
f 20/12/239 209/12/14 210/12/220
f 208/12/71 207/12/70 11/7/238
f 126/13/204 212/13/213 211/13/78
f 24/13/19 214/13/211 212/13/213
f 211/13/78 213/32/61 64/32/62
f 123/17/197 216/13/205 215/17/86
f 25/17/241 217/13/18 216/13/205
f 215/17/86 218/17/85 65/34/240
f 120/17/189 222/17/198 221/17/93
f 31/17/25 219/17/196 222/17/198
f 221/17/93 220/34/67 68/34/68
f 223/16/190 226/16/101 83/16/106
f 32/16/243 224/16/24 223/16/190
f 226/16/101 225/16/100 59/29/242
f 230/16/183 228/16/107 87/16/111
f 37/16/31 229/16/181 230/16/183
f 228/16/107 227/29/53 58/29/54
f 114/16/172 232/16/178 233/16/113
f 38/16/245 231/16/30 232/16/178
f 233/16/113 234/16/112 52/29/244
f 112/10/167 238/10/173 235/10/117
f 42/10/37 236/10/171 238/10/173
f 235/10/117 237/25/47 51/25/48
f 110/10/162 239/10/168 241/10/123
f 15/10/247 240/10/36 239/10/168
f 241/10/123 242/10/122 48/25/246
f 108/10/158 246/10/163 243/10/127
f 12/10/11 245/10/161 246/10/163
f 243/10/127 244/25/43 47/25/44
f 106/37/153 247/8/159 248/8/133
f 13/37/249 249/8/9 247/8/159
f 248/8/133 250/8/132 44/23/248
f 102/4/141 253/37/154 252/37/137
f 66/4/64 251/37/152 253/37/154
f 252/37/137 254/23/39 43/23/40
f 7/4/250 6/4/4 256/4/148
f 101/4/222 255/4/142 256/4/148
f 23/4/251 258/4/63 255/4/142
