# Blender v2.91.0 OBJ File: '3dbase.blend'
# www.blender.org
mtllib 25x.mtl
o 25_Circle.019
v -0.272229 0.000000 0.407420
v -0.346482 0.000000 0.346483
v 0.000000 0.000000 0.000000
v -0.187514 0.000000 0.452701
v -0.409390 0.119773 0.169575
v -0.368441 0.119773 0.246185
v -0.365959 0.127400 0.244527
v -0.406632 0.127400 0.168433
v 0.246185 0.119773 -0.368441
v 0.169575 0.119773 -0.409390
v 0.168433 0.127400 -0.406632
v 0.244526 0.127400 -0.365959
v 0.000000 0.119773 0.443121
v 0.086449 0.119773 0.434606
v 0.085866 0.127400 0.431678
v 0.000000 0.127400 0.440136
v -0.313333 0.119773 0.313334
v -0.311222 0.127400 0.311223
v 0.086448 0.119773 -0.434606
v 0.085866 0.127400 -0.431678
v 0.169575 0.119773 0.409390
v 0.168433 0.127400 0.406632
v -0.246184 0.119773 0.368442
v -0.244526 0.127400 0.365960
v -0.000000 0.119773 -0.443121
v -0.000000 0.127400 -0.440136
v 0.246185 0.119773 0.368441
v 0.244526 0.127400 0.365959
v -0.169574 0.119773 0.409390
v -0.168432 0.127400 0.406632
v -0.086449 0.119773 -0.434606
v -0.085866 0.127400 -0.431678
v 0.313334 0.119773 0.313334
v 0.311223 0.127400 0.311223
v -0.086448 0.119773 0.434606
v -0.085866 0.127400 0.431679
v -0.169575 0.119773 -0.409390
v -0.168433 0.127400 -0.406632
v 0.368441 0.119773 0.246185
v 0.365959 0.127400 0.244526
v -0.246185 0.119773 -0.368441
v -0.244526 0.127400 -0.365959
v 0.409390 0.119773 0.169575
v 0.406632 0.127400 0.168433
v -0.313334 0.119773 -0.313333
v -0.311223 0.127400 -0.311223
v 0.434606 0.119773 0.086449
v 0.431678 0.127400 0.085866
v -0.368442 0.119773 -0.246184
v -0.365959 0.127400 -0.244526
v 0.443121 0.119773 -0.000000
v 0.440136 0.127400 -0.000000
v -0.409390 0.119773 -0.169575
v -0.406632 0.127400 -0.168432
v 0.434606 0.119773 -0.086448
v 0.431678 0.127400 -0.085866
v -0.434606 0.119773 -0.086448
v -0.431679 0.127400 -0.085866
v 0.409390 0.119773 -0.169575
v 0.406632 0.127400 -0.168432
v -0.443121 0.119773 0.000000
v -0.440136 0.127400 0.000000
v 0.368441 0.119773 -0.246185
v 0.365959 0.127400 -0.244526
v -0.434606 0.119773 0.086449
v -0.431678 0.127400 0.085867
v 0.313334 0.119773 -0.313334
v 0.311223 0.127400 -0.311223
v 0.272229 -0.000000 -0.407420
v 0.346482 -0.000000 -0.346482
v 0.187515 -0.000000 -0.452701
v -0.000000 0.127400 -0.000000
v -0.407420 0.000000 0.272230
v -0.452701 0.000000 0.187515
v -0.480585 0.000000 0.095595
v -0.490000 0.000000 0.000000
v 0.407420 -0.000000 -0.272229
v 0.452701 -0.000000 -0.187515
v -0.480585 -0.000000 -0.095594
v -0.452701 -0.000000 -0.187515
v 0.480585 -0.000000 -0.095594
v 0.490000 0.000000 -0.000000
v -0.407420 -0.000000 -0.272229
v -0.346483 -0.000000 -0.346482
v 0.480585 0.000000 0.095594
v 0.452701 0.000000 0.187515
v 0.095594 0.000000 0.480585
v 0.000000 0.000000 0.490000
v 0.187515 0.000000 0.452701
v -0.272230 -0.000000 -0.407420
v -0.187515 -0.000000 -0.452701
v 0.407420 0.000000 0.272229
v 0.346482 0.000000 0.346482
v -0.095594 0.000000 0.480585
v 0.272229 0.000000 0.407420
v 0.095594 -0.000000 -0.480585
v -0.000000 -0.000000 -0.490000
v -0.095594 -0.000000 -0.480585
v 0.343688 0.010098 -0.343688
v 0.270034 0.010098 -0.404134
v -0.476708 0.010098 0.094824
v -0.449049 0.010098 0.186003
v 0.404134 0.010098 -0.270034
v -0.486048 0.010098 0.000000
v 0.449050 0.010098 -0.186002
v -0.476709 0.010098 -0.094823
v 0.476709 0.010098 -0.094823
v -0.449050 0.010098 -0.186002
v 0.486048 0.010098 -0.000000
v -0.404134 0.010098 -0.270033
v 0.476708 0.010098 0.094823
v -0.343688 0.010098 -0.343687
v 0.449050 0.010098 0.186002
v -0.270034 0.010098 -0.404134
v 0.404134 0.010098 0.270034
v -0.186003 0.010098 -0.449049
v -0.094822 0.010098 0.476709
v 0.000000 0.010098 0.486048
v 0.343688 0.010098 0.343688
v -0.094823 0.010098 -0.476708
v -0.186002 0.010098 0.449050
v 0.270034 0.010098 0.404134
v -0.000000 0.010098 -0.486048
v -0.270033 0.010098 0.404134
v 0.186002 0.010098 0.449050
v 0.094823 0.010098 -0.476709
v -0.343687 0.010098 0.343688
v 0.094823 0.010098 0.476708
v 0.186002 0.010098 -0.449050
v -0.404134 0.010098 0.270034
vt 0.499999 0.500003
vt 0.500000 0.500003
vt 0.500000 0.500002
vt 0.499998 0.500003
vt 0.499998 0.499997
vt 0.499997 0.499998
vt 0.499997 0.499998
vt 0.499998 0.499997
vt 0.500003 0.499998
vt 0.500003 0.499998
vt 0.500003 0.499998
vt 0.500003 0.499998
vt 0.499997 0.499999
vt 0.499998 0.499999
vt 0.499998 0.499999
vt 0.499997 0.499999
vt 0.499997 0.499998
vt 0.499997 0.499998
vt 0.500003 0.499998
vt 0.500003 0.499998
vt 0.499998 0.499999
vt 0.499998 0.499999
vt 0.499997 0.499998
vt 0.499997 0.499998
vt 0.500003 0.499998
vt 0.500003 0.499998
vt 0.499999 0.499999
vt 0.499999 0.499999
vt 0.499997 0.499998
vt 0.499997 0.499998
vt 0.500002 0.499997
vt 0.500002 0.499997
vt 0.499999 0.499999
vt 0.499999 0.499999
vt 0.499997 0.499998
vt 0.499997 0.499998
vt 0.500002 0.499997
vt 0.500002 0.499997
vt 0.500000 0.499999
vt 0.500000 0.499999
vt 0.500001 0.499997
vt 0.500001 0.499997
vt 0.500000 0.499999
vt 0.500000 0.499999
vt 0.500001 0.499997
vt 0.500001 0.499997
vt 0.500001 0.499999
vt 0.500001 0.499999
vt 0.500000 0.499997
vt 0.500000 0.499997
vt 0.500001 0.499999
vt 0.500001 0.499999
vt 0.500000 0.499997
vt 0.500000 0.499997
vt 0.500002 0.499999
vt 0.500002 0.499999
vt 0.499999 0.499997
vt 0.499999 0.499997
vt 0.500002 0.499999
vt 0.500002 0.499999
vt 0.499999 0.499997
vt 0.499999 0.499997
vt 0.500003 0.499999
vt 0.500003 0.499999
vt 0.499998 0.499997
vt 0.499998 0.499997
vt 0.500003 0.499998
vt 0.500003 0.499998
vt 0.500001 0.500001
vt 0.500000 0.500001
vt 0.500002 0.500001
vt 0.500000 0.499998
vt 0.500000 0.500003
vt 0.500001 0.500003
vt 0.500002 0.500003
vt 0.500002 0.500003
vt 0.500000 0.500001
vt 0.499999 0.500001
vt 0.500003 0.500003
vt 0.500003 0.500003
vt 0.499998 0.500001
vt 0.499998 0.500001
vt 0.500003 0.500002
vt 0.500003 0.500002
vt 0.499997 0.500001
vt 0.499997 0.500001
vt 0.499997 0.500003
vt 0.499997 0.500003
vt 0.499997 0.500002
vt 0.500003 0.500002
vt 0.500003 0.500001
vt 0.499997 0.500001
vt 0.499997 0.500002
vt 0.499998 0.500003
vt 0.499997 0.500002
vt 0.500002 0.500001
vt 0.500003 0.500001
vt 0.500003 0.500001
vt 0.500003 0.499998
vt 0.500003 0.499998
vt 0.499998 0.499997
vt 0.499997 0.499997
vt 0.500003 0.499999
vt 0.499998 0.499997
vt 0.500003 0.499999
vt 0.499999 0.499997
vt 0.500002 0.499999
vt 0.500000 0.499997
vt 0.500002 0.499999
vt 0.500000 0.499997
vt 0.500001 0.499999
vt 0.500001 0.499997
vt 0.500000 0.499999
vt 0.500002 0.499997
vt 0.500000 0.499999
vt 0.500002 0.499997
vt 0.499997 0.499998
vt 0.499997 0.499999
vt 0.499999 0.499999
vt 0.500003 0.499997
vt 0.499997 0.499998
vt 0.499998 0.499999
vt 0.500003 0.499997
vt 0.499997 0.499998
vt 0.499998 0.499999
vt 0.500003 0.499998
vt 0.499997 0.499998
vt 0.499997 0.499999
vt 0.500003 0.499998
vt 0.499997 0.499997
vn -0.4673 -0.5409 0.6993
vn -0.5947 -0.5409 0.5947
vn 0.0000 -1.0000 0.0000
vn -0.3219 -0.5409 0.7770
vn -0.8603 0.3645 0.3564
vn -0.7743 0.3645 0.5174
vn -0.4879 0.8097 0.3260
vn -0.5421 0.8097 0.2246
vn 0.5174 0.3645 -0.7743
vn 0.3564 0.3645 -0.8603
vn 0.2246 0.8097 -0.5421
vn 0.3260 0.8097 -0.4879
vn 0.0000 0.3645 0.9312
vn 0.1817 0.3645 0.9133
vn 0.1145 0.8097 0.5755
vn 0.0000 0.8097 0.5868
vn -0.6585 0.3645 0.6585
vn -0.4149 0.8097 0.4149
vn 0.1817 0.3645 -0.9133
vn 0.1145 0.8097 -0.5755
vn 0.3564 0.3645 0.8603
vn 0.2246 0.8097 0.5421
vn -0.5174 0.3645 0.7743
vn -0.3260 0.8097 0.4879
vn -0.0000 0.3645 -0.9312
vn -0.0000 0.8097 -0.5868
vn 0.5174 0.3645 0.7743
vn 0.3260 0.8097 0.4879
vn -0.3564 0.3645 0.8603
vn -0.2246 0.8097 0.5422
vn -0.1817 0.3645 -0.9133
vn -0.1145 0.8097 -0.5755
vn 0.6585 0.3645 0.6585
vn 0.4149 0.8097 0.4149
vn -0.1817 0.3645 0.9133
vn -0.1145 0.8097 0.5756
vn -0.3564 0.3645 -0.8603
vn -0.2246 0.8097 -0.5421
vn 0.7743 0.3645 0.5174
vn 0.4879 0.8097 0.3260
vn -0.5174 0.3645 -0.7743
vn -0.3260 0.8097 -0.4879
vn 0.8603 0.3645 0.3564
vn 0.5421 0.8097 0.2246
vn -0.6585 0.3645 -0.6585
vn -0.4149 0.8097 -0.4149
vn 0.9133 0.3645 0.1817
vn 0.5755 0.8097 0.1145
vn -0.7743 0.3645 -0.5173
vn -0.4879 0.8097 -0.3260
vn 0.9312 0.3645 0.0000
vn 0.5868 0.8097 -0.0000
vn -0.8603 0.3645 -0.3564
vn -0.5421 0.8097 -0.2246
vn 0.9133 0.3645 -0.1817
vn 0.5755 0.8097 -0.1145
vn -0.9133 0.3645 -0.1817
vn -0.5756 0.8097 -0.1145
vn 0.8603 0.3645 -0.3564
vn 0.5421 0.8097 -0.2246
vn -0.9312 0.3645 0.0000
vn -0.5868 0.8097 0.0000
vn 0.7743 0.3645 -0.5174
vn 0.4879 0.8097 -0.3260
vn -0.9133 0.3645 0.1817
vn -0.5755 0.8097 0.1145
vn 0.6585 0.3645 -0.6585
vn 0.4149 0.8097 -0.4149
vn 0.4673 -0.5409 -0.6993
vn 0.5947 -0.5409 -0.5947
vn 0.3219 -0.5409 -0.7770
vn -0.0000 1.0000 -0.0000
vn -0.6993 -0.5409 0.4673
vn -0.7771 -0.5409 0.3219
vn -0.8249 -0.5409 0.1641
vn -0.8411 -0.5409 0.0000
vn 0.6993 -0.5409 -0.4673
vn 0.7770 -0.5409 -0.3219
vn -0.8249 -0.5409 -0.1641
vn -0.7771 -0.5409 -0.3219
vn 0.8249 -0.5409 -0.1641
vn 0.8411 -0.5409 0.0000
vn -0.6993 -0.5409 -0.4673
vn -0.5947 -0.5409 -0.5947
vn 0.8249 -0.5409 0.1641
vn 0.7771 -0.5409 0.3219
vn 0.1641 -0.5409 0.8249
vn 0.0000 -0.5409 0.8411
vn 0.3219 -0.5409 0.7771
vn -0.4673 -0.5409 -0.6993
vn -0.3219 -0.5409 -0.7771
vn 0.6993 -0.5409 0.4673
vn 0.5947 -0.5409 0.5947
vn -0.1641 -0.5409 0.8249
vn 0.4673 -0.5409 0.6993
vn 0.1641 -0.5409 -0.8249
vn -0.0000 -0.5409 -0.8411
vn -0.1641 -0.5409 -0.8249
vn 0.6585 0.3644 -0.6585
vn -0.7743 0.3645 -0.5174
vn 0.6585 0.3644 0.6585
usemtl None.018
s 1
f 1/1/1 2/2/2 3/3/3 4/4/4
f 5/5/5 6/6/6 7/7/7 8/8/8
f 9/9/9 10/10/10 11/11/11 12/12/12
f 13/13/13 14/14/14 15/15/15 16/16/16
f 6/6/6 17/17/17 18/18/18 7/7/7
f 10/10/10 19/19/19 20/20/20 11/11/11
f 14/14/14 21/21/21 22/22/22 15/15/15
f 17/17/17 23/23/23 24/24/24 18/18/18
f 19/19/19 25/25/25 26/26/26 20/20/20
f 21/21/21 27/27/27 28/28/28 22/22/22
f 23/23/23 29/29/29 30/30/30 24/24/24
f 25/25/25 31/31/31 32/32/32 26/26/26
f 27/27/27 33/33/33 34/34/34 28/28/28
f 29/29/29 35/35/35 36/36/36 30/30/30
f 31/31/31 37/37/37 38/38/38 32/32/32
f 33/33/33 39/39/39 40/40/40 34/34/34
f 35/35/35 13/13/13 16/16/16 36/36/36
f 37/37/37 41/41/41 42/42/42 38/38/38
f 39/39/39 43/43/43 44/44/44 40/40/40
f 41/41/41 45/45/45 46/46/46 42/42/42
f 43/43/43 47/47/47 48/48/48 44/44/44
f 45/45/45 49/49/49 50/50/50 46/46/46
f 47/47/47 51/51/51 52/52/52 48/48/48
f 49/49/49 53/53/53 54/54/54 50/50/50
f 51/51/51 55/55/55 56/56/56 52/52/52
f 53/53/53 57/57/57 58/58/58 54/54/54
f 55/55/55 59/59/59 60/60/60 56/56/56
f 57/57/57 61/61/61 62/62/62 58/58/58
f 59/59/59 63/63/63 64/64/64 60/60/60
f 61/61/61 65/65/65 66/66/66 62/62/62
f 63/63/63 67/67/67 68/68/68 64/64/64
f 65/65/65 5/5/5 8/8/8 66/66/66
f 67/67/67 9/9/9 12/12/12 68/68/68
f 69/69/69 70/70/70 3/3/3 71/71/71
f 58/58/58 62/62/62 72/72/72 54/54/54
f 64/64/64 68/68/68 72/72/72 60/60/60
f 12/12/12 11/11/11 72/72/72 68/68/68
f 7/7/7 18/18/18 72/72/72 8/8/8
f 20/20/20 26/26/26 72/72/72 11/11/11
f 24/24/24 30/30/30 72/72/72 18/18/18
f 28/28/28 34/34/34 72/72/72 22/22/22
f 32/32/32 38/38/38 72/72/72 26/26/26
f 36/36/36 16/16/16 72/72/72 30/30/30
f 40/40/40 44/44/44 72/72/72 34/34/34
f 42/42/42 46/46/46 72/72/72 38/38/38
f 15/15/15 22/22/22 72/72/72 16/16/16
f 44/44/44 48/48/48 52/52/52 72/72/72
f 46/46/46 50/50/50 54/54/54 72/72/72
f 2/2/2 73/73/73 74/74/74 3/3/3
f 74/74/74 75/75/75 76/76/76 3/3/3
f 77/77/77 78/78/78 3/3/3 70/70/70
f 79/79/79 80/80/80 3/3/3 76/76/76
f 81/81/81 82/82/82 3/3/3 78/78/78
f 83/83/83 84/84/84 3/3/3 80/80/80
f 85/85/85 86/86/86 3/3/3 82/82/82
f 87/87/87 88/88/88 3/3/3 89/89/89
f 90/90/90 91/91/91 3/3/3 84/84/84
f 92/92/92 93/93/93 3/3/3 86/86/86
f 94/94/94 4/4/4 3/3/3 88/88/88
f 95/95/95 89/89/89 3/3/3 93/93/93
f 96/96/96 71/71/71 3/3/3 97/97/97
f 66/66/66 8/8/8 72/72/72 62/62/62
f 56/56/56 60/60/60 72/72/72 52/52/52
f 98/98/98 97/97/97 3/3/3 91/91/91
f 99/99/99 100/100/9 9/9/9 67/67/67
f 101/101/65 102/102/5 5/5/5 65/65/65
f 103/103/63 99/99/99 67/67/67 63/63/63
f 104/104/61 101/101/65 65/65/65 61/61/61
f 105/105/59 103/103/63 63/63/63 59/59/59
f 106/106/57 104/104/61 61/61/61 57/57/57
f 107/107/55 105/105/59 59/59/59 55/55/55
f 108/108/53 106/106/57 57/57/57 53/53/53
f 109/109/51 107/107/55 55/55/55 51/51/51
f 110/110/100 108/108/53 53/53/53 49/49/49
f 111/111/47 109/109/51 51/51/51 47/47/47
f 112/112/45 110/110/100 49/49/49 45/45/45
f 113/113/43 111/111/47 47/47/47 43/43/43
f 114/114/41 112/112/45 45/45/45 41/41/41
f 115/115/39 113/113/43 43/43/43 39/39/39
f 116/116/37 114/114/41 41/41/41 37/37/37
f 117/117/35 118/118/13 13/13/13 35/35/35
f 119/119/101 115/115/39 39/39/39 33/33/33
f 120/120/31 116/116/37 37/37/37 31/31/31
f 121/121/29 117/117/35 35/35/35 29/29/29
f 122/122/27 119/119/101 33/33/33 27/27/27
f 123/123/25 120/120/31 31/31/31 25/25/25
f 124/124/23 121/121/29 29/29/29 23/23/23
f 125/125/21 122/122/27 27/27/27 21/21/21
f 126/126/19 123/123/25 25/25/25 19/19/19
f 127/127/17 124/124/23 23/23/23 17/17/17
f 128/128/14 125/125/21 21/21/21 14/14/14
f 129/129/10 126/126/19 19/19/19 10/10/10
f 130/130/6 127/127/17 17/17/17 6/6/6
f 118/118/13 128/128/14 14/14/14 13/13/13
f 100/100/9 129/129/10 10/10/10 9/9/9
f 102/102/5 130/130/6 6/6/6 5/5/5
f 74/74/74 73/73/73 130/130/6 102/102/5
f 69/69/69 71/71/71 129/129/10 100/100/9
f 88/88/88 87/87/87 128/128/14 118/118/13
f 73/73/73 2/2/2 127/127/17 130/130/6
f 71/71/71 96/96/96 126/126/19 129/129/10
f 87/87/87 89/89/89 125/125/21 128/128/14
f 2/2/2 1/1/1 124/124/23 127/127/17
f 96/96/96 97/97/97 123/123/25 126/126/19
f 89/89/89 95/95/95 122/122/27 125/125/21
f 1/1/1 4/4/4 121/121/29 124/124/23
f 97/97/97 98/98/98 120/120/31 123/123/25
f 95/95/95 93/93/93 119/119/101 122/122/27
f 4/4/4 94/94/94 117/117/35 121/121/29
f 98/98/98 91/91/91 116/116/37 120/120/31
f 93/93/93 92/92/92 115/115/39 119/119/101
f 94/94/94 88/88/88 118/118/13 117/117/35
f 91/91/91 90/90/90 114/114/41 116/116/37
f 92/92/92 86/86/86 113/113/43 115/115/39
f 90/90/90 84/84/84 112/112/45 114/114/41
f 86/86/86 85/85/85 111/111/47 113/113/43
f 84/84/84 83/83/83 110/110/100 112/112/45
f 85/85/85 82/82/82 109/109/51 111/111/47
f 83/83/83 80/80/80 108/108/53 110/110/100
f 82/82/82 81/81/81 107/107/55 109/109/51
f 80/80/80 79/79/79 106/106/57 108/108/53
f 81/81/81 78/78/78 105/105/59 107/107/55
f 79/79/79 76/76/76 104/104/61 106/106/57
f 78/78/78 77/77/77 103/103/63 105/105/59
f 76/76/76 75/75/75 101/101/65 104/104/61
f 77/77/77 70/70/70 99/99/99 103/103/63
f 75/75/75 74/74/74 102/102/5 101/101/65
f 70/70/70 69/69/69 100/100/9 99/99/99
