# Blender v2.82 (sub 7) OBJ File: 'BASE_50.blend'
# www.blender.org
mtllib BASE_50.mtl
o Circle
v 0.000000 0.000000 -0.980000
v -0.191189 0.000000 -0.961170
v -0.375030 0.000000 -0.905402
v -0.544459 0.000000 -0.814840
v -0.692965 0.000000 -0.692965
v -0.814840 0.000000 -0.544459
v -0.905402 0.000000 -0.375030
v -0.961170 0.000000 -0.191189
v -0.980000 0.000000 -0.000000
v -0.961170 0.000000 0.191188
v -0.905402 0.000000 0.375030
v -0.814840 0.000000 0.544459
v -0.692965 0.000000 0.692965
v -0.544459 0.000000 0.814840
v -0.375030 0.000000 0.905402
v -0.191188 0.000000 0.961170
v 0.000000 0.000000 0.980000
v 0.191189 0.000000 0.961169
v 0.375030 0.000000 0.905402
v 0.544459 0.000000 0.814840
v 0.692965 0.000000 0.692964
v 0.814841 0.000000 0.544458
v 0.905402 0.000000 0.375029
v 0.961170 0.000000 0.191188
v 0.980000 0.000000 -0.000001
v 0.961169 0.000000 -0.191190
v 0.905402 0.000000 -0.375031
v 0.814840 0.000000 -0.544460
v 0.692964 0.000000 -0.692966
v 0.544458 0.000000 -0.814841
v 0.375028 0.000000 -0.905403
v 0.191187 0.000000 -0.961170
v -0.000000 0.127400 -0.929864
v -0.181407 0.127400 -0.911997
v -0.355844 0.127400 -0.859082
v -0.516605 0.127400 -0.773154
v -0.657513 0.127400 -0.657513
v -0.773154 0.127400 -0.516605
v -0.859082 0.127400 -0.355844
v -0.911997 0.127400 -0.181408
v -0.929864 0.127400 -0.000000
v -0.911997 0.127400 0.181407
v -0.859082 0.127400 0.355843
v -0.773154 0.127400 0.516605
v -0.657513 0.127400 0.657513
v -0.516605 0.127400 0.773154
v -0.355843 0.127400 0.859082
v -0.181407 0.127400 0.911997
v 0.000000 0.127400 0.929864
v 0.181408 0.127400 0.911997
v 0.355844 0.127400 0.859082
v 0.516605 0.127400 0.773153
v 0.657514 0.127400 0.657513
v 0.773154 0.127400 0.516604
v 0.859083 0.127400 0.355843
v 0.911997 0.127400 0.181407
v 0.929864 0.127400 -0.000001
v 0.911997 0.127400 -0.181408
v 0.859082 0.127400 -0.355845
v 0.773153 0.127400 -0.516606
v 0.657512 0.127400 -0.657514
v 0.516604 0.127400 -0.773154
v 0.355842 0.127400 -0.859083
v 0.181406 0.127400 -0.911997
v -0.000000 0.127400 -0.000000
v -0.000000 0.000000 -0.000000
v 0.861759 0.120036 -0.356954
v -0.518215 0.120036 0.775563
v -0.000000 0.120036 -0.932762
v 0.775563 0.120036 -0.518216
v -0.356952 0.120036 0.861760
v -0.181973 0.120036 -0.914839
v 0.659562 0.120036 -0.659563
v -0.181973 0.120036 0.914839
v -0.356953 0.120036 -0.861760
v 0.518214 0.120036 -0.775564
v 0.000000 0.120036 0.932762
v -0.518215 0.120036 -0.775563
v 0.356951 0.120036 -0.861760
v 0.181973 0.120036 0.914839
v -0.659562 0.120036 -0.659562
v 0.181971 0.120036 -0.914840
v 0.356953 0.120036 0.861760
v -0.775563 0.120036 -0.518215
v 0.518215 0.120036 0.775563
v -0.861760 0.120036 -0.356953
v 0.659563 0.120036 0.659562
v -0.914839 0.120036 -0.181973
v 0.775564 0.120036 0.518214
v -0.932762 0.120036 -0.000000
v 0.861760 0.120036 0.356952
v -0.914839 0.120036 0.181973
v 0.914839 0.120036 0.181972
v -0.861760 0.120036 0.356952
v 0.932762 0.120036 -0.000001
v -0.775563 0.120036 0.518215
v 0.914839 0.120036 -0.181974
v -0.659562 0.120036 0.659562
v 0.901791 0.009932 -0.373535
v -0.542287 0.009932 0.811591
v -0.000000 0.009932 -0.976092
v 0.811590 0.009932 -0.542288
v -0.373534 0.009932 0.901791
v -0.190426 0.009932 -0.957336
v 0.690200 0.009932 -0.690202
v -0.190426 0.009932 0.957336
v -0.373534 0.009932 -0.901791
v 0.542286 0.009932 -0.811591
v 0.000000 0.009932 0.976092
v -0.542287 0.009932 -0.811590
v 0.373533 0.009932 -0.901792
v 0.190426 0.009932 0.957336
v -0.690201 0.009932 -0.690201
v 0.190425 0.009932 -0.957337
v 0.373535 0.009932 0.901791
v -0.811591 0.009932 -0.542287
v 0.542288 0.009932 0.811590
v -0.901791 0.009932 -0.373534
v 0.690202 0.009932 0.690201
v -0.957336 0.009932 -0.190426
v 0.811591 0.009932 0.542287
v -0.976092 0.009932 -0.000000
v 0.901791 0.009932 0.373533
v -0.957336 0.009932 0.190426
v 0.957336 0.009932 0.190425
v -0.901791 0.009932 0.373534
v 0.976092 0.009932 -0.000001
v -0.811591 0.009932 0.542287
v 0.957336 0.009932 -0.190427
v -0.690201 0.009932 0.690201
vt 0.231294 0.513126
vt 0.181727 0.503266
vt 0.256563 0.256563
vt 0.281832 0.513125
vt 0.520593 0.760698
vt 0.524243 0.807203
vt 0.518658 0.807688
vt 0.514994 0.760996
vt 0.281832 0.000000
vt 0.331399 0.009860
vt 0.231293 0.000000
vt 0.945653 0.398620
vt 0.911745 0.432527
vt 0.756563 0.243437
vt 0.972294 0.358748
vt 0.732586 0.000000
vt 0.780539 0.000000
vt 0.685555 0.009355
vt 0.827571 0.009355
vt 0.871873 0.027706
vt 0.780539 0.486875
vt 0.732586 0.486874
vt 0.827571 0.477519
vt 0.911745 0.054347
vt 0.945653 0.088255
vt 0.685555 0.477519
vt 0.641252 0.459168
vt 0.513126 0.267414
vt 0.513126 0.219461
vt 0.522481 0.314445
vt 0.972294 0.128126
vt 0.990645 0.172429
vt 0.601380 0.432527
vt 0.567473 0.398620
vt 0.522481 0.172429
vt 0.540831 0.128127
vt 1.000000 0.219461
vt 1.000000 0.267414
vt 0.540832 0.358748
vt 0.567473 0.088255
vt 0.601380 0.054347
vt 0.990645 0.314445
vt 0.135035 0.483926
vt 0.093014 0.455848
vt 0.057278 0.420112
vt 0.029200 0.378091
vt 0.378091 0.029200
vt 0.420112 0.057277
vt 0.009860 0.331400
vt 0.000000 0.281832
vt 0.455848 0.093014
vt 0.483926 0.135035
vt 0.000000 0.231294
vt 0.009859 0.181726
vt 0.503266 0.181726
vt 0.513126 0.231294
vt 0.420112 0.455848
vt 0.378091 0.483926
vt 0.455848 0.420112
vt 0.029200 0.135035
vt 0.057277 0.093014
vt 0.513126 0.281832
vt 0.503266 0.331399
vt 0.331400 0.503266
vt 0.483926 0.378091
vt 0.181726 0.009860
vt 0.135035 0.029200
vt 0.871873 0.459169
vt 0.641252 0.027706
vt 0.093013 0.057278
vt 0.007467 0.602137
vt 0.005607 0.651506
vt 0.000000 0.651406
vt 0.001868 0.601838
vt 0.536285 0.487669
vt 0.529541 0.523263
vt 0.523978 0.522611
vt 0.530749 0.486875
vt 0.518732 0.711328
vt 0.513126 0.711429
vt 0.011117 0.555631
vt 0.005533 0.555147
vt 0.701187 0.807269
vt 0.707265 0.849016
vt 0.701715 0.849772
vt 0.695612 0.807858
vt 0.518732 0.660991
vt 0.513126 0.660890
vt 0.016416 0.513778
vt 0.010852 0.513126
vt 0.696670 0.760840
vt 0.691077 0.761243
vt 0.520593 0.611621
vt 0.514994 0.611323
vt 0.615615 0.848971
vt 0.621693 0.884685
vt 0.616143 0.885376
vt 0.610040 0.849520
vt 0.693888 0.711513
vt 0.688284 0.711719
vt 0.524243 0.565116
vt 0.518658 0.564632
vt 0.611098 0.807026
vt 0.605505 0.807407
vt 0.692949 0.661185
vt 0.687341 0.661189
vt 0.591220 0.530494
vt 0.595345 0.530978
vt 0.590297 0.570849
vt 0.586156 0.570489
vt 0.608316 0.760461
vt 0.602712 0.760655
vt 0.693888 0.611789
vt 0.688284 0.611596
vt 0.607377 0.711065
vt 0.601769 0.711061
vt 0.696670 0.565224
vt 0.691077 0.564844
vt 0.608316 0.660737
vt 0.602712 0.660532
vt 0.701187 0.523279
vt 0.695612 0.522731
vt 0.611098 0.611410
vt 0.605505 0.611008
vt 0.707265 0.487566
vt 0.701715 0.486875
vt 0.615615 0.564981
vt 0.610040 0.564393
vt 0.011117 0.797718
vt 0.016416 0.839572
vt 0.010852 0.840224
vt 0.005533 0.798203
vt 0.621693 0.523234
vt 0.616143 0.522478
vt 0.007467 0.751213
vt 0.001868 0.751511
vt 0.629100 0.487772
vt 0.623580 0.486875
vt 0.005607 0.701843
vt 0.000000 0.701944
vt 0.586156 0.801830
vt 0.590297 0.801470
vt 0.595345 0.841342
vt 0.591220 0.841825
vt 0.067765 0.652624
vt 0.071922 0.652698
vt 0.071922 0.700651
vt 0.067765 0.700726
vt 0.529541 0.849057
vt 0.073695 0.747683
vt 0.069543 0.747904
vt 0.601769 0.875250
vt 0.597664 0.875839
vt 0.077172 0.791986
vt 0.073031 0.792345
vt 0.687341 0.532175
vt 0.681551 0.571946
vt 0.677417 0.571509
vt 0.683226 0.531615
vt 0.082219 0.831857
vt 0.078094 0.832341
vt 0.677248 0.616176
vt 0.673101 0.615877
vt 0.772913 0.495743
vt 0.767123 0.529765
vt 0.762989 0.529358
vt 0.768798 0.495230
vt 0.674598 0.663166
vt 0.670443 0.663014
vt 0.762820 0.569723
vt 0.758673 0.569441
vt 0.673703 0.711111
vt 0.669545 0.711108
vt 0.760170 0.614083
vt 0.756015 0.613940
vt 0.674598 0.758167
vt 0.670443 0.758311
vt 0.759275 0.661140
vt 0.755117 0.661143
vt 0.677248 0.802527
vt 0.673101 0.802809
vt 0.760170 0.709084
vt 0.756015 0.709237
vt 0.681551 0.842486
vt 0.677417 0.842892
vt 0.586820 0.615152
vt 0.582668 0.614930
vt 0.762820 0.756075
vt 0.758673 0.756373
vt 0.687341 0.876508
vt 0.683226 0.877020
vt 0.585048 0.662183
vt 0.580890 0.662108
vt 0.767123 0.800305
vt 0.762989 0.800741
vt 0.082219 0.521493
vt 0.077172 0.561364
vt 0.073031 0.561005
vt 0.078094 0.521009
vt 0.585048 0.710136
vt 0.580890 0.710211
vt 0.772913 0.840075
vt 0.768798 0.840636
vt 0.073695 0.605667
vt 0.069543 0.605445
vt 0.586820 0.757168
vt 0.582668 0.757389
vt 0.601769 0.497070
vt 0.597664 0.496480
vt 0.523978 0.849709
vt 0.536285 0.884650
vn 0.4675 -0.5401 -0.6997
vn 0.5950 -0.5401 -0.5950
vn 0.0000 -1.0000 0.0000
vn 0.3220 -0.5401 -0.7775
vn 0.7737 0.3662 -0.5170
vn 0.8597 0.3662 -0.3561
vn 0.7775 -0.5401 -0.3220
vn 0.6997 -0.5401 -0.4675
vn -0.4675 -0.5401 0.6997
vn -0.5950 -0.5401 0.5950
vn -0.3220 -0.5401 0.7775
vn 0.5748 0.8103 0.1143
vn 0.5860 0.8103 0.0000
vn 0.0000 1.0000 0.0000
vn 0.5414 0.8103 0.2243
vn -0.4873 0.8103 0.3256
vn -0.4144 0.8103 0.4144
vn -0.5414 0.8103 0.2243
vn -0.3256 0.8103 0.4873
vn -0.2243 0.8103 0.5414
vn 0.4873 0.8103 -0.3256
vn 0.4144 0.8103 -0.4144
vn 0.5414 0.8103 -0.2243
vn -0.1143 0.8103 0.5748
vn 0.0000 0.8103 0.5860
vn 0.3256 0.8103 -0.4873
vn 0.2243 0.8103 -0.5414
vn -0.3256 0.8103 -0.4873
vn -0.4144 0.8103 -0.4144
vn -0.2243 0.8103 -0.5414
vn 0.1143 0.8103 0.5748
vn 0.2243 0.8103 0.5414
vn 0.1143 0.8103 -0.5748
vn 0.0000 0.8103 -0.5860
vn -0.4873 0.8103 -0.3256
vn -0.5414 0.8103 -0.2243
vn 0.3256 0.8103 0.4873
vn 0.4144 0.8103 0.4144
vn -0.1143 0.8103 -0.5748
vn -0.5748 0.8103 -0.1143
vn -0.5860 0.8103 0.0000
vn 0.4873 0.8103 0.3256
vn 0.8254 -0.5401 -0.1642
vn 0.8415 -0.5401 0.0000
vn -0.6997 -0.5401 0.4675
vn -0.7775 -0.5401 0.3220
vn 0.8254 -0.5401 0.1642
vn 0.7775 -0.5401 0.3220
vn -0.8254 -0.5401 0.1642
vn -0.8415 -0.5401 0.0000
vn 0.6997 -0.5401 0.4675
vn 0.5950 -0.5401 0.5950
vn -0.8254 -0.5401 -0.1642
vn -0.7775 -0.5401 -0.3220
vn -0.1642 -0.5401 -0.8254
vn 0.0000 -0.5401 -0.8415
vn -0.3220 -0.5401 -0.7775
vn 0.4675 -0.5401 0.6997
vn 0.3220 -0.5401 0.7775
vn -0.6997 -0.5401 -0.4675
vn -0.5950 -0.5401 -0.5950
vn 0.1642 -0.5401 -0.8254
vn -0.4675 -0.5401 -0.6997
vn -0.1642 -0.5401 0.8254
vn 0.0000 -0.5401 0.8415
vn 0.5748 0.8103 -0.1143
vn -0.5748 0.8103 0.1143
vn 0.1642 -0.5401 0.8254
vn -0.3561 0.3662 0.8597
vn -0.5170 0.3662 0.7737
vn -0.1815 0.3662 -0.9127
vn 0.0000 0.3662 -0.9305
vn 0.6580 0.3662 -0.6580
vn -0.1815 0.3662 0.9127
vn -0.3561 0.3662 -0.8597
vn 0.5170 0.3662 -0.7737
vn 0.0000 0.3662 0.9305
vn -0.5170 0.3662 -0.7737
vn 0.3561 0.3662 -0.8597
vn 0.1815 0.3662 0.9127
vn -0.6580 0.3662 -0.6580
vn 0.1815 0.3662 -0.9127
vn 0.3561 0.3662 0.8597
vn -0.7737 0.3662 -0.5170
vn 0.5170 0.3662 0.7737
vn -0.8597 0.3662 -0.3561
vn 0.6580 0.3662 0.6580
vn -0.9127 0.3662 -0.1815
vn 0.7737 0.3662 0.5170
vn -0.9305 0.3662 0.0000
vn 0.8597 0.3662 0.3561
vn -0.9127 0.3662 0.1815
vn 0.9127 0.3662 0.1815
vn -0.8597 0.3662 0.3561
vn 0.9305 0.3662 0.0000
vn -0.7737 0.3662 0.5170
vn 0.9127 0.3662 -0.1815
vn -0.6580 0.3662 0.6580
usemtl None
s 1
f 30/1/1 29/2/2 66/3/3 31/4/4
f 102/5/5 99/6/6 27/7/7 28/8/8
f 14/9/9 13/10/10 66/3/3 15/11/11
f 56/12/12 57/13/13 65/14/14 55/15/15
f 44/16/16 45/17/17 65/14/14 43/18/18
f 46/19/19 47/20/20 65/14/14 45/17/17
f 60/21/21 61/22/22 65/14/14 59/23/23
f 48/24/24 49/25/25 65/14/14 47/20/20
f 62/26/26 63/27/27 65/14/14 61/22/22
f 36/28/28 37/29/29 65/14/14 35/30/30
f 50/31/31 51/32/32 65/14/14 49/25/25
f 64/33/33 33/34/34 65/14/14 63/27/27
f 38/35/35 39/36/36 65/14/14 37/29/29
f 52/37/37 53/38/38 65/14/14 51/32/32
f 34/39/39 35/30/30 65/14/14 33/34/34
f 39/36/36 40/40/40 41/41/41 65/14/14
f 53/38/38 54/42/42 55/15/15 65/14/14
f 29/2/2 28/43/8 27/44/7 66/3/3
f 27/44/7 26/45/43 25/46/44 66/3/3
f 12/47/45 11/48/46 66/3/3 13/10/10
f 24/49/47 23/50/48 66/3/3 25/46/44
f 10/51/49 9/52/50 66/3/3 11/48/46
f 22/53/51 21/54/52 66/3/3 23/50/48
f 8/55/53 7/56/54 66/3/3 9/52/50
f 2/57/55 1/58/56 66/3/3 3/59/57
f 20/60/58 19/61/59 66/3/3 21/54/52
f 6/62/60 5/63/61 66/3/3 7/56/54
f 32/64/62 31/4/4 66/3/3 1/58/56
f 4/65/63 3/59/57 66/3/3 5/63/61
f 16/66/64 15/11/11 66/3/3 17/67/65
f 58/68/66 59/23/23 65/14/14 57/13/13
f 42/69/67 43/18/18 65/14/14 41/41/41
f 18/70/68 17/67/65 66/3/3 19/61/59
f 103/71/69 100/72/70 14/73/9 15/74/11
f 104/75/71 101/76/72 1/77/56 2/78/55
f 105/79/73 102/5/5 28/8/8 29/80/2
f 106/81/74 103/71/69 15/74/11 16/82/64
f 107/83/75 104/84/71 2/85/55 3/86/57
f 108/87/76 105/79/73 29/80/2 30/88/1
f 109/89/77 106/81/74 16/82/64 17/90/65
f 110/91/78 107/83/75 3/86/57 4/92/63
f 111/93/79 108/87/76 30/88/1 31/94/4
f 112/95/80 109/96/77 17/97/65 18/98/68
f 113/99/81 110/91/78 4/92/63 5/100/61
f 114/101/82 111/93/79 31/94/4 32/102/62
f 115/103/83 112/95/80 18/98/68 19/104/59
f 116/105/84 113/99/81 5/100/61 6/106/60
f 69/107/72 33/108/34 64/109/33 82/110/82
f 117/111/85 115/103/83 19/104/59 20/112/58
f 118/113/86 116/105/84 6/106/60 7/114/54
f 119/115/87 117/111/85 20/112/58 21/116/52
f 120/117/88 118/113/86 7/114/54 8/118/53
f 121/119/89 119/115/87 21/116/52 22/120/51
f 122/121/90 120/117/88 8/118/53 9/122/50
f 123/123/91 121/119/89 22/120/51 23/124/48
f 124/125/92 122/121/90 9/122/50 10/126/49
f 125/127/93 123/123/91 23/124/48 24/128/47
f 126/129/94 124/130/92 10/131/49 11/132/46
f 127/133/95 125/127/93 24/128/47 25/134/44
f 128/135/96 126/129/94 11/132/46 12/136/45
f 129/137/97 127/133/95 25/134/44 26/138/43
f 130/139/98 128/135/96 12/136/45 13/140/10
f 67/141/6 59/142/23 58/143/66 97/144/97
f 68/145/70 46/146/19 45/147/17 98/148/98
f 100/72/70 68/145/70 98/148/98 130/139/98
f 99/6/6 67/141/6 97/144/97 129/149/97
f 45/147/17 44/150/16 96/151/96 98/148/98
f 58/143/66 57/152/13 95/153/95 97/144/97
f 44/150/16 43/154/18 94/155/94 96/151/96
f 57/156/13 56/157/12 93/158/93 95/159/95
f 43/154/18 42/160/67 92/161/92 94/155/94
f 56/157/12 55/162/15 91/163/91 93/158/93
f 42/164/67 41/165/41 90/166/90 92/167/92
f 55/162/15 54/168/42 89/169/89 91/163/91
f 41/165/41 40/170/40 88/171/88 90/166/90
f 54/168/42 53/172/38 87/173/87 89/169/89
f 40/170/40 39/174/36 86/175/86 88/171/88
f 53/172/38 52/176/37 85/177/85 87/173/87
f 39/174/36 38/178/35 84/179/84 86/175/86
f 52/176/37 51/180/32 83/181/83 85/177/85
f 101/76/72 69/107/72 82/110/82 114/101/82
f 38/178/35 37/182/29 81/183/81 84/179/84
f 51/180/32 50/184/31 80/185/80 83/181/83
f 64/109/33 63/186/27 79/187/79 82/110/82
f 37/182/29 36/188/28 78/189/78 81/183/81
f 50/184/31 49/190/25 77/191/77 80/185/80
f 63/186/27 62/192/26 76/193/76 79/187/79
f 36/188/28 35/194/30 75/195/75 78/189/78
f 49/196/25 48/197/24 74/198/74 77/199/77
f 62/192/26 61/200/22 73/201/73 76/193/76
f 35/194/30 34/202/39 72/203/71 75/195/75
f 48/197/24 47/204/20 71/205/69 74/198/74
f 61/200/22 60/206/21 70/207/5 73/201/73
f 34/208/39 33/108/34 69/107/72 72/209/71
f 47/204/20 46/146/19 68/145/70 71/205/69
f 60/206/21 59/142/23 67/141/6 70/207/5
f 1/77/56 101/76/72 114/101/82 32/102/62
f 27/7/7 99/6/6 129/149/97 26/210/43
f 14/73/9 100/72/70 130/139/98 13/140/10
f 98/148/98 96/151/96 128/135/96 130/139/98
f 97/144/97 95/153/95 127/211/95 129/149/97
f 96/151/96 94/155/94 126/129/94 128/135/96
f 95/159/95 93/158/93 125/127/93 127/133/95
f 94/155/94 92/161/92 124/130/92 126/129/94
f 93/158/93 91/163/91 123/123/91 125/127/93
f 92/167/92 90/166/90 122/121/90 124/125/92
f 91/163/91 89/169/89 121/119/89 123/123/91
f 90/166/90 88/171/88 120/117/88 122/121/90
f 89/169/89 87/173/87 119/115/87 121/119/89
f 88/171/88 86/175/86 118/113/86 120/117/88
f 87/173/87 85/177/85 117/111/85 119/115/87
f 86/175/86 84/179/84 116/105/84 118/113/86
f 85/177/85 83/181/83 115/103/83 117/111/85
f 84/179/84 81/183/81 113/99/81 116/105/84
f 83/181/83 80/185/80 112/95/80 115/103/83
f 82/110/82 79/187/79 111/93/79 114/101/82
f 81/183/81 78/189/78 110/91/78 113/99/81
f 80/185/80 77/191/77 109/96/77 112/95/80
f 79/187/79 76/193/76 108/87/76 111/93/79
f 78/189/78 75/195/75 107/83/75 110/91/78
f 77/199/77 74/198/74 106/81/74 109/89/77
f 76/193/76 73/201/73 105/79/73 108/87/76
f 75/195/75 72/203/71 104/84/71 107/83/75
f 74/198/74 71/205/69 103/71/69 106/81/74
f 73/201/73 70/207/5 102/5/5 105/79/73
f 72/209/71 69/107/72 101/76/72 104/75/71
f 71/205/69 68/145/70 100/72/70 103/71/69
f 70/207/5 67/141/6 99/6/6 102/5/5
