# Blender v2.82 (sub 7) OBJ File: 'BASE_40.blend'
# www.blender.org
mtllib BASE_40.mtl
o Circle
v 0.000000 0.000000 -0.784000
v -0.152951 0.000000 -0.768936
v -0.300024 0.000000 -0.724322
v -0.435567 0.000000 -0.651872
v -0.554372 0.000000 -0.554372
v -0.651872 0.000000 -0.435567
v -0.724322 0.000000 -0.300024
v -0.768936 0.000000 -0.152951
v -0.784000 0.000000 -0.000000
v -0.768936 0.000000 0.152951
v -0.724322 0.000000 0.300024
v -0.651872 0.000000 0.435567
v -0.554372 0.000000 0.554372
v -0.435567 0.000000 0.651872
v -0.300024 0.000000 0.724322
v -0.152951 0.000000 0.768936
v 0.000000 0.000000 0.784000
v 0.152951 0.000000 0.768936
v 0.300024 0.000000 0.724321
v 0.435567 0.000000 0.651872
v 0.554372 0.000000 0.554371
v 0.651873 0.000000 0.435567
v 0.724322 0.000000 0.300023
v 0.768936 0.000000 0.152950
v 0.784000 0.000000 -0.000001
v 0.768936 0.000000 -0.152952
v 0.724321 0.000000 -0.300025
v 0.651872 0.000000 -0.435568
v 0.554371 0.000000 -0.554372
v 0.435566 0.000000 -0.651873
v 0.300023 0.000000 -0.724322
v 0.152950 0.000000 -0.768936
v -0.000000 0.127400 -0.733484
v -0.143096 0.127400 -0.719391
v -0.280692 0.127400 -0.677651
v -0.407502 0.127400 -0.609870
v -0.518652 0.127400 -0.518652
v -0.609870 0.127400 -0.407502
v -0.677651 0.127400 -0.280692
v -0.719391 0.127400 -0.143096
v -0.733484 0.127400 -0.000000
v -0.719391 0.127400 0.143096
v -0.677651 0.127400 0.280692
v -0.609870 0.127400 0.407502
v -0.518652 0.127400 0.518652
v -0.407502 0.127400 0.609870
v -0.280692 0.127400 0.677651
v -0.143096 0.127400 0.719391
v 0.000000 0.127400 0.733484
v 0.143096 0.127400 0.719391
v 0.280693 0.127400 0.677651
v 0.407502 0.127400 0.609870
v 0.518652 0.127400 0.518651
v 0.609870 0.127400 0.407502
v 0.677651 0.127400 0.280692
v 0.719391 0.127400 0.143095
v 0.733484 0.127400 -0.000001
v 0.719390 0.127400 -0.143096
v 0.677651 0.127400 -0.280693
v 0.609869 0.127400 -0.407503
v 0.518651 0.127400 -0.518652
v 0.407501 0.127400 -0.609870
v 0.280691 0.127400 -0.677652
v 0.143095 0.127400 -0.719391
v -0.000000 0.127400 -0.000000
v -0.000000 0.000000 -0.000000
v 0.680472 0.119698 -0.281862
v -0.409199 0.119698 0.612409
v -0.000000 0.119698 -0.736538
v 0.612409 0.119698 -0.409199
v -0.281861 0.119698 0.680473
v -0.143691 0.119698 -0.722386
v 0.520810 0.119698 -0.520812
v -0.143691 0.119698 0.722386
v -0.281861 0.119698 -0.680473
v 0.409198 0.119698 -0.612410
v 0.000000 0.119698 0.736538
v -0.409199 0.119698 -0.612409
v 0.281860 0.119698 -0.680473
v 0.143692 0.119698 0.722386
v -0.520811 0.119698 -0.520811
v 0.143690 0.119698 -0.722386
v 0.281861 0.119698 0.680472
v -0.612409 0.119698 -0.409199
v 0.409199 0.119698 0.612409
v -0.680473 0.119698 -0.281861
v 0.520811 0.119698 0.520811
v -0.722386 0.119698 -0.143692
v 0.612409 0.119698 0.409198
v -0.736538 0.119698 -0.000000
v 0.680473 0.119698 0.281860
v -0.722386 0.119698 0.143691
v 0.722386 0.119698 0.143691
v -0.680473 0.119698 0.281861
v 0.736538 0.119698 -0.000001
v -0.612409 0.119698 0.409199
v 0.722386 0.119698 -0.143692
v -0.520811 0.119698 0.520811
v 0.720694 0.009901 -0.298522
v -0.433386 0.009901 0.648608
v -0.000000 0.009901 -0.780074
v 0.648607 0.009901 -0.433387
v -0.298521 0.009901 0.720695
v -0.152185 0.009901 -0.765085
v 0.551595 0.009901 -0.551596
v -0.152185 0.009901 0.765085
v -0.298521 0.009901 -0.720694
v 0.433385 0.009901 -0.648608
v 0.000000 0.009901 0.780074
v -0.433386 0.009901 -0.648608
v 0.298520 0.009901 -0.720695
v 0.152185 0.009901 0.765085
v -0.551596 0.009901 -0.551596
v 0.152184 0.009901 -0.765085
v 0.298522 0.009901 0.720694
v -0.648608 0.009901 -0.433386
v 0.433386 0.009901 0.648608
v -0.720694 0.009901 -0.298521
v 0.551596 0.009901 0.551595
v -0.765085 0.009901 -0.152185
v 0.648608 0.009901 0.433385
v -0.780074 0.009901 -0.000000
v 0.720695 0.009901 0.298521
v -0.765085 0.009901 0.152185
v 0.765085 0.009901 0.152184
v -0.720695 0.009901 0.298521
v 0.780074 0.009901 -0.000001
v -0.648608 0.009901 0.433386
v 0.765085 0.009901 -0.152186
v -0.551596 0.009901 0.551596
vt 0.232880 0.516645
vt 0.182973 0.506718
vt 0.258322 0.258322
vt 0.283765 0.516645
vt 0.711234 0.722783
vt 0.714853 0.769660
vt 0.709194 0.770137
vt 0.705557 0.723024
vt 0.283765 0.000000
vt 0.333672 0.009927
vt 0.232880 0.000000
vt 0.516645 0.265481
vt 0.516645 0.217874
vt 0.758322 0.241678
vt 0.525932 0.312172
vt 0.946046 0.395738
vt 0.912383 0.429401
vt 0.972494 0.356155
vt 0.872800 0.455850
vt 0.828817 0.474068
vt 0.570599 0.087617
vt 0.604262 0.053954
vt 0.544150 0.127200
vt 0.782125 0.483355
vt 0.734519 0.483355
vt 0.643845 0.027506
vt 0.687828 0.009287
vt 0.912383 0.053954
vt 0.946046 0.087617
vt 0.872800 0.027506
vt 0.687827 0.474068
vt 0.643845 0.455850
vt 0.734519 0.000000
vt 0.782125 0.000000
vt 0.972494 0.127200
vt 0.990712 0.171183
vt 0.604262 0.429401
vt 0.570599 0.395738
vt 0.828817 0.009288
vt 1.000000 0.217875
vt 1.000000 0.265481
vt 0.544150 0.356155
vt 0.135961 0.487245
vt 0.093652 0.458974
vt 0.057670 0.422993
vt 0.029400 0.380684
vt 0.380684 0.029400
vt 0.422993 0.057670
vt 0.009927 0.333672
vt 0.000000 0.283765
vt 0.458974 0.093651
vt 0.487245 0.135961
vt 0.000000 0.232880
vt 0.009927 0.182973
vt 0.506717 0.182972
vt 0.516645 0.232880
vt 0.422993 0.458974
vt 0.380684 0.487245
vt 0.458974 0.422993
vt 0.029400 0.135961
vt 0.057670 0.093652
vt 0.516645 0.283765
vt 0.506717 0.333672
vt 0.333673 0.506717
vt 0.487245 0.380684
vt 0.182972 0.009927
vt 0.135961 0.029400
vt 0.525932 0.171183
vt 0.990712 0.312172
vt 0.093651 0.057670
vt 0.529628 0.549016
vt 0.524792 0.591399
vt 0.519123 0.591062
vt 0.523983 0.548465
vt 0.012852 0.803064
vt 0.019747 0.845162
vt 0.014136 0.845986
vt 0.007206 0.803677
vt 0.710012 0.673082
vt 0.704329 0.673072
vt 0.536650 0.512830
vt 0.531040 0.512097
vt 0.008103 0.756288
vt 0.002433 0.756665
vt 0.711234 0.622466
vt 0.705557 0.622202
vt 0.545586 0.484232
vt 0.540022 0.483355
vt 0.005682 0.706631
vt 0.000000 0.706758
vt 0.714853 0.572882
vt 0.709194 0.572368
vt 0.629771 0.847793
vt 0.638133 0.883692
vt 0.632555 0.884633
vt 0.624150 0.848553
vt 0.005682 0.656000
vt 0.000000 0.655873
vt 0.720730 0.526234
vt 0.715101 0.525485
vt 0.623361 0.805619
vt 0.617708 0.806166
vt 0.008103 0.606343
vt 0.002433 0.605966
vt 0.790622 0.494959
vt 0.794970 0.495705
vt 0.787534 0.535120
vt 0.783155 0.534538
vt 0.619150 0.758791
vt 0.613477 0.759103
vt 0.012852 0.559567
vt 0.007206 0.558954
vt 0.617301 0.709109
vt 0.611618 0.709171
vt 0.019747 0.517469
vt 0.014136 0.516645
vt 0.617883 0.658482
vt 0.612203 0.658289
vt 0.536650 0.834607
vt 0.545586 0.876319
vt 0.540022 0.877416
vt 0.531040 0.835494
vt 0.620876 0.608856
vt 0.615211 0.608413
vt 0.529628 0.788118
vt 0.523983 0.788771
vt 0.626163 0.562137
vt 0.620525 0.561460
vt 0.524791 0.738638
vt 0.519123 0.739041
vt 0.633542 0.520122
vt 0.627941 0.519233
vt 0.522326 0.688067
vt 0.516645 0.688217
vt 0.642729 0.484424
vt 0.637174 0.483355
vt 0.522326 0.638351
vt 0.516645 0.638250
vt 0.777606 0.764379
vt 0.782008 0.764008
vt 0.787534 0.803736
vt 0.783155 0.804272
vt 0.587655 0.595137
vt 0.592065 0.595399
vt 0.589747 0.639547
vt 0.585327 0.639468
vt 0.720730 0.811912
vt 0.589747 0.686294
vt 0.585327 0.686410
vt 0.794970 0.837588
vt 0.790622 0.838265
vt 0.592065 0.733844
vt 0.587655 0.734158
vt 0.700012 0.530673
vt 0.693074 0.570179
vt 0.688688 0.569652
vt 0.695655 0.529982
vt 0.596613 0.780369
vt 0.592222 0.780877
vt 0.688102 0.614107
vt 0.683696 0.613763
vt 0.603215 0.824082
vt 0.598852 0.824772
vt 0.685289 0.660770
vt 0.680870 0.660620
vt 0.611618 0.863303
vt 0.607289 0.864156
vt 0.684741 0.708373
vt 0.680320 0.708421
vt 0.086334 0.527255
vt 0.079851 0.566838
vt 0.075459 0.566361
vt 0.081969 0.526613
vt 0.686480 0.755088
vt 0.682066 0.755331
vt 0.075385 0.610821
vt 0.070975 0.610527
vt 0.690439 0.799119
vt 0.686042 0.799545
vt 0.728639 0.484315
vt 0.073109 0.657512
vt 0.068689 0.657413
vt 0.696466 0.838774
vt 0.692094 0.839365
vt 0.782008 0.578982
vt 0.777606 0.578582
vt 0.073109 0.705119
vt 0.068689 0.705218
vt 0.704329 0.872530
vt 0.699990 0.873261
vt 0.778605 0.625605
vt 0.774189 0.625399
vt 0.075385 0.751810
vt 0.070975 0.752104
vt 0.611618 0.494632
vt 0.603215 0.521522
vt 0.598852 0.520952
vt 0.607289 0.493951
vt 0.777456 0.673198
vt 0.773035 0.673190
vt 0.079851 0.795793
vt 0.075459 0.796269
vt 0.596613 0.555547
vt 0.592222 0.555119
vt 0.778605 0.719931
vt 0.774189 0.720118
vt 0.086334 0.835376
vt 0.081969 0.836017
vt 0.723049 0.483355
vt 0.715101 0.812601
vt 0.704329 0.496276
vn 0.4679 -0.5391 -0.7003
vn 0.5955 -0.5391 -0.5955
vn 0.0000 -1.0000 0.0000
vn 0.3223 -0.5391 -0.7781
vn 0.7729 0.3686 -0.5164
vn 0.8588 0.3686 -0.3557
vn 0.7781 -0.5391 -0.3223
vn 0.7003 -0.5391 -0.4679
vn -0.4679 -0.5391 0.7003
vn -0.5955 -0.5391 0.5955
vn -0.3223 -0.5391 0.7781
vn 0.5737 0.8110 0.1141
vn 0.5849 0.8110 0.0000
vn 0.0000 1.0000 0.0000
vn 0.5404 0.8110 0.2239
vn -0.4864 0.8110 0.3250
vn -0.4136 0.8110 0.4136
vn -0.5404 0.8110 0.2239
vn -0.3250 0.8110 0.4864
vn -0.2239 0.8110 0.5404
vn 0.4864 0.8110 -0.3250
vn 0.4136 0.8110 -0.4136
vn 0.5404 0.8110 -0.2239
vn -0.1141 0.8110 0.5737
vn 0.0000 0.8110 0.5849
vn 0.3250 0.8110 -0.4864
vn 0.2239 0.8110 -0.5404
vn -0.3250 0.8110 -0.4864
vn -0.4136 0.8110 -0.4136
vn -0.2239 0.8110 -0.5404
vn 0.1141 0.8110 0.5737
vn 0.2239 0.8110 0.5404
vn 0.1141 0.8110 -0.5737
vn 0.0000 0.8110 -0.5849
vn -0.4864 0.8110 -0.3250
vn -0.5404 0.8110 -0.2239
vn 0.3250 0.8110 0.4864
vn 0.4136 0.8110 0.4136
vn -0.1141 0.8110 -0.5737
vn -0.5737 0.8110 -0.1141
vn -0.5849 0.8110 0.0000
vn 0.4864 0.8110 0.3250
vn 0.8260 -0.5391 -0.1643
vn 0.8422 -0.5391 0.0000
vn -0.7003 -0.5391 0.4679
vn -0.7781 -0.5391 0.3223
vn 0.8260 -0.5391 0.1643
vn 0.7781 -0.5391 0.3223
vn -0.8260 -0.5391 0.1643
vn -0.8422 -0.5391 0.0000
vn 0.7003 -0.5391 0.4679
vn 0.5955 -0.5391 0.5955
vn -0.8260 -0.5391 -0.1643
vn -0.7781 -0.5391 -0.3223
vn -0.1643 -0.5391 -0.8260
vn 0.0000 -0.5391 -0.8422
vn -0.3223 -0.5391 -0.7781
vn 0.4679 -0.5391 0.7003
vn 0.3223 -0.5391 0.7781
vn -0.7003 -0.5391 -0.4679
vn -0.5955 -0.5391 -0.5955
vn 0.1643 -0.5391 -0.8260
vn -0.4679 -0.5391 -0.7003
vn -0.1643 -0.5391 0.8260
vn 0.0000 -0.5391 0.8422
vn 0.5737 0.8110 -0.1141
vn -0.5737 0.8110 0.1141
vn 0.1643 -0.5391 0.8260
vn -0.3557 0.3686 0.8588
vn -0.5164 0.3686 0.7729
vn -0.1813 0.3686 -0.9117
vn 0.0000 0.3686 -0.9296
vn 0.6573 0.3686 -0.6573
vn -0.1813 0.3686 0.9117
vn -0.3557 0.3686 -0.8588
vn 0.5164 0.3686 -0.7729
vn 0.0000 0.3686 0.9296
vn -0.5164 0.3686 -0.7729
vn 0.3557 0.3686 -0.8588
vn 0.1813 0.3686 0.9117
vn -0.6573 0.3686 -0.6573
vn 0.1813 0.3686 -0.9117
vn 0.3557 0.3686 0.8588
vn -0.7729 0.3686 -0.5164
vn 0.5164 0.3686 0.7729
vn -0.8588 0.3686 -0.3557
vn 0.6573 0.3686 0.6573
vn -0.9117 0.3686 -0.1813
vn 0.7729 0.3686 0.5164
vn -0.9296 0.3686 0.0000
vn 0.8588 0.3686 0.3557
vn -0.9117 0.3686 0.1813
vn 0.9117 0.3686 0.1813
vn -0.8588 0.3686 0.3557
vn 0.9296 0.3686 0.0000
vn -0.7729 0.3686 0.5164
vn 0.9117 0.3686 -0.1813
vn -0.6573 0.3686 0.6573
usemtl None
s 1
f 30/1/1 29/2/2 66/3/3 31/4/4
f 102/5/5 99/6/6 27/7/7 28/8/8
f 14/9/9 13/10/10 66/3/3 15/11/11
f 56/12/12 57/13/13 65/14/14 55/15/15
f 44/16/16 45/17/17 65/14/14 43/18/18
f 46/19/19 47/20/20 65/14/14 45/17/17
f 60/21/21 61/22/22 65/14/14 59/23/23
f 48/24/24 49/25/25 65/14/14 47/20/20
f 62/26/26 63/27/27 65/14/14 61/22/22
f 36/28/28 37/29/29 65/14/14 35/30/30
f 50/31/31 51/32/32 65/14/14 49/25/25
f 64/33/33 33/34/34 65/14/14 63/27/27
f 38/35/35 39/36/36 65/14/14 37/29/29
f 52/37/37 53/38/38 65/14/14 51/32/32
f 34/39/39 35/30/30 65/14/14 33/34/34
f 39/36/36 40/40/40 41/41/41 65/14/14
f 53/38/38 54/42/42 55/15/15 65/14/14
f 29/2/2 28/43/8 27/44/7 66/3/3
f 27/44/7 26/45/43 25/46/44 66/3/3
f 12/47/45 11/48/46 66/3/3 13/10/10
f 24/49/47 23/50/48 66/3/3 25/46/44
f 10/51/49 9/52/50 66/3/3 11/48/46
f 22/53/51 21/54/52 66/3/3 23/50/48
f 8/55/53 7/56/54 66/3/3 9/52/50
f 2/57/55 1/58/56 66/3/3 3/59/57
f 20/60/58 19/61/59 66/3/3 21/54/52
f 6/62/60 5/63/61 66/3/3 7/56/54
f 32/64/62 31/4/4 66/3/3 1/58/56
f 4/65/63 3/59/57 66/3/3 5/63/61
f 16/66/64 15/11/11 66/3/3 17/67/65
f 58/68/66 59/23/23 65/14/14 57/13/13
f 42/69/67 43/18/18 65/14/14 41/41/41
f 18/70/68 17/67/65 66/3/3 19/61/59
f 103/71/69 100/72/70 14/73/9 15/74/11
f 104/75/71 101/76/72 1/77/56 2/78/55
f 105/79/73 102/5/5 28/8/8 29/80/2
f 106/81/74 103/71/69 15/74/11 16/82/64
f 107/83/75 104/75/71 2/78/55 3/84/57
f 108/85/76 105/79/73 29/80/2 30/86/1
f 109/87/77 106/81/74 16/82/64 17/88/65
f 110/89/78 107/83/75 3/84/57 4/90/63
f 111/91/79 108/85/76 30/86/1 31/92/4
f 112/93/80 109/94/77 17/95/65 18/96/68
f 113/97/81 110/89/78 4/90/63 5/98/61
f 114/99/82 111/91/79 31/92/4 32/100/62
f 115/101/83 112/93/80 18/96/68 19/102/59
f 116/103/84 113/97/81 5/98/61 6/104/60
f 69/105/72 33/106/34 64/107/33 82/108/82
f 117/109/85 115/101/83 19/102/59 20/110/58
f 118/111/86 116/103/84 6/104/60 7/112/54
f 119/113/87 117/109/85 20/110/58 21/114/52
f 120/115/88 118/111/86 7/112/54 8/116/53
f 121/117/89 119/113/87 21/114/52 22/118/51
f 122/119/90 120/120/88 8/121/53 9/122/50
f 123/123/91 121/117/89 22/118/51 23/124/48
f 124/125/92 122/119/90 9/122/50 10/126/49
f 125/127/93 123/123/91 23/124/48 24/128/47
f 126/129/94 124/125/92 10/126/49 11/130/46
f 127/131/95 125/127/93 24/128/47 25/132/44
f 128/133/96 126/129/94 11/130/46 12/134/45
f 129/135/97 127/131/95 25/132/44 26/136/43
f 130/137/98 128/133/96 12/134/45 13/138/10
f 67/139/6 59/140/23 58/141/66 97/142/97
f 68/143/70 46/144/19 45/145/17 98/146/98
f 100/72/70 68/143/70 98/146/98 130/137/98
f 99/6/6 67/139/6 97/142/97 129/147/97
f 45/145/17 44/148/16 96/149/96 98/146/98
f 58/141/66 57/150/13 95/151/95 97/142/97
f 44/148/16 43/152/18 94/153/94 96/149/96
f 57/154/13 56/155/12 93/156/93 95/157/95
f 43/152/18 42/158/67 92/159/92 94/153/94
f 56/155/12 55/160/15 91/161/91 93/156/93
f 42/158/67 41/162/41 90/163/90 92/159/92
f 55/160/15 54/164/42 89/165/89 91/161/91
f 41/162/41 40/166/40 88/167/88 90/163/90
f 54/164/42 53/168/38 87/169/87 89/165/89
f 40/170/40 39/171/36 86/172/86 88/173/88
f 53/168/38 52/174/37 85/175/85 87/169/87
f 39/171/36 38/176/35 84/177/84 86/172/86
f 52/174/37 51/178/32 83/179/83 85/175/85
f 101/180/72 69/105/72 82/108/82 114/99/82
f 38/176/35 37/181/29 81/182/81 84/177/84
f 51/178/32 50/183/31 80/184/80 83/179/83
f 64/107/33 63/185/27 79/186/79 82/108/82
f 37/181/29 36/187/28 78/188/78 81/182/81
f 50/183/31 49/189/25 77/190/77 80/184/80
f 63/185/27 62/191/26 76/192/76 79/186/79
f 36/187/28 35/193/30 75/194/75 78/188/78
f 49/195/25 48/196/24 74/197/74 77/198/77
f 62/191/26 61/199/22 73/200/73 76/192/76
f 35/193/30 34/201/39 72/202/71 75/194/75
f 48/196/24 47/203/20 71/204/69 74/197/74
f 61/199/22 60/205/21 70/206/5 73/200/73
f 34/201/39 33/207/34 69/208/72 72/202/71
f 47/203/20 46/144/19 68/143/70 71/204/69
f 60/205/21 59/140/23 67/139/6 70/206/5
f 1/209/56 101/180/72 114/99/82 32/100/62
f 27/7/7 99/6/6 129/147/97 26/210/43
f 14/73/9 100/72/70 130/137/98 13/138/10
f 98/146/98 96/149/96 128/133/96 130/137/98
f 97/211/97 95/157/95 127/131/95 129/135/97
f 96/149/96 94/153/94 126/129/94 128/133/96
f 95/157/95 93/156/93 125/127/93 127/131/95
f 94/153/94 92/159/92 124/125/92 126/129/94
f 93/156/93 91/161/91 123/123/91 125/127/93
f 92/159/92 90/163/90 122/119/90 124/125/92
f 91/161/91 89/165/89 121/117/89 123/123/91
f 90/163/90 88/167/88 120/120/88 122/119/90
f 89/165/89 87/169/87 119/113/87 121/117/89
f 88/173/88 86/172/86 118/111/86 120/115/88
f 87/169/87 85/175/85 117/109/85 119/113/87
f 86/172/86 84/177/84 116/103/84 118/111/86
f 85/175/85 83/179/83 115/101/83 117/109/85
f 84/177/84 81/182/81 113/97/81 116/103/84
f 83/179/83 80/184/80 112/93/80 115/101/83
f 82/108/82 79/186/79 111/91/79 114/99/82
f 81/182/81 78/188/78 110/89/78 113/97/81
f 80/184/80 77/190/77 109/94/77 112/93/80
f 79/186/79 76/192/76 108/85/76 111/91/79
f 78/188/78 75/194/75 107/83/75 110/89/78
f 77/198/77 74/197/74 106/81/74 109/87/77
f 76/192/76 73/200/73 105/79/73 108/85/76
f 75/194/75 72/202/71 104/75/71 107/83/75
f 74/197/74 71/204/69 103/71/69 106/81/74
f 73/200/73 70/206/5 102/5/5 105/79/73
f 72/202/71 69/208/72 101/76/72 104/75/71
f 71/204/69 68/143/70 100/72/70 103/71/69
f 70/206/5 67/139/6 99/6/6 102/5/5
