# Blender v2.82 (sub 7) OBJ File: 'Bases.blend'
# www.blender.org
mtllib 25mm.mtl
o Base.001_Cylinder.001
v 0.500000 0.000000 -0.000000
v 0.000000 0.103857 -0.474344
v 0.092540 0.103857 -0.465230
v 0.181524 0.103857 -0.438237
v 0.263531 0.103857 -0.394403
v 0.335412 0.103857 -0.335412
v 0.394403 0.103857 -0.263531
v 0.438237 0.103857 -0.181524
v 0.465230 0.103857 -0.092540
v 0.474344 0.103857 -0.000000
v 0.465230 0.103857 0.092540
v 0.438237 0.103857 0.181524
v 0.394403 0.103857 0.263531
v 0.335412 0.103857 0.335412
v 0.263531 0.103857 0.394403
v 0.181524 0.103857 0.438237
v 0.092540 0.103857 0.465230
v -0.000000 0.103857 0.474344
v -0.092540 0.103857 0.465230
v -0.181524 0.103857 0.438237
v -0.263532 0.103857 0.394403
v -0.335412 0.103857 0.335412
v -0.394403 0.103857 0.263531
v -0.438237 0.103857 0.181523
v -0.465230 0.103857 0.092540
v -0.474344 0.103857 -0.000000
v -0.465230 0.103857 -0.092540
v -0.438237 0.103857 -0.181524
v -0.394402 0.103857 -0.263532
v -0.335412 0.103857 -0.335412
v -0.263531 0.103857 -0.394403
v -0.181523 0.103857 -0.438237
v -0.092539 0.103857 -0.465230
v 0.000000 0.000000 -0.500000
v 0.097545 0.000000 -0.490393
v 0.191342 0.000000 -0.461940
v 0.277785 0.000000 -0.415735
v 0.353553 0.000000 -0.353553
v 0.415735 0.000000 -0.277785
v 0.461940 0.000000 -0.191342
v 0.490393 0.000000 -0.097545
v 0.490393 0.000000 0.097545
v 0.461940 0.000000 0.191342
v 0.415735 0.000000 0.277785
v 0.353553 0.000000 0.353553
v 0.277785 0.000000 0.415735
v 0.191342 0.000000 0.461940
v 0.097545 0.000000 0.490393
v -0.000000 0.000000 0.500000
v -0.097545 0.000000 0.490393
v -0.191342 0.000000 0.461940
v -0.277785 0.000000 0.415735
v -0.353554 0.000000 0.353553
v -0.415735 0.000000 0.277785
v -0.461940 0.000000 0.191341
v -0.490393 0.000000 0.097545
v -0.500000 0.000000 -0.000000
v -0.490393 0.000000 -0.097546
v -0.461940 0.000000 -0.191342
v -0.415734 0.000000 -0.277786
v -0.353553 0.000000 -0.353554
v -0.277785 0.000000 -0.415735
v -0.191341 0.000000 -0.461940
v -0.097544 0.000000 -0.490393
v 0.000000 0.112988 -0.468736
v 0.091446 0.112988 -0.459729
v 0.179377 0.112988 -0.433055
v 0.260416 0.112988 -0.389739
v 0.331446 0.112988 -0.331446
v 0.389739 0.112988 -0.260416
v 0.433055 0.112988 -0.179377
v 0.459729 0.112988 -0.091446
v 0.468736 0.112988 -0.000000
v 0.459729 0.112988 0.091446
v 0.433055 0.112988 0.179377
v 0.389739 0.112988 0.260415
v 0.331446 0.112988 0.331446
v 0.260415 0.112988 0.389739
v 0.179377 0.112988 0.433055
v 0.091446 0.112988 0.459729
v -0.000000 0.112988 0.468736
v -0.091446 0.112988 0.459729
v -0.179378 0.112988 0.433055
v -0.260416 0.112988 0.389739
v -0.331446 0.112988 0.331446
v -0.389740 0.112988 0.260415
v -0.433055 0.112988 0.179377
v -0.459729 0.112988 0.091445
v -0.468736 0.112988 -0.000000
v -0.459729 0.112988 -0.091446
v -0.433055 0.112988 -0.179378
v -0.389739 0.112988 -0.260416
v -0.331446 0.112988 -0.331446
v -0.260415 0.112988 -0.389740
v -0.179377 0.112988 -0.433055
v -0.091445 0.112988 -0.459729
v 0.000000 0.118045 -0.458928
v 0.089532 0.118045 -0.450110
v 0.175624 0.118045 -0.423995
v 0.254967 0.118045 -0.381585
v 0.324511 0.118045 -0.324511
v 0.381585 0.118045 -0.254967
v 0.423995 0.118045 -0.175624
v 0.450110 0.118045 -0.089533
v 0.458928 0.118045 -0.000000
v 0.450110 0.118045 0.089532
v 0.423995 0.118045 0.175624
v 0.381585 0.118045 0.254967
v 0.324511 0.118045 0.324511
v 0.254967 0.118045 0.381585
v 0.175624 0.118045 0.423995
v 0.089532 0.118045 0.450110
v -0.000000 0.118045 0.458928
v -0.089533 0.118045 0.450110
v -0.175624 0.118045 0.423994
v -0.254967 0.118045 0.381585
v -0.324512 0.118045 0.324511
v -0.381585 0.118045 0.254967
v -0.423995 0.118045 0.175624
v -0.450110 0.118045 0.089532
v -0.458928 0.118045 -0.000000
v -0.450110 0.118045 -0.089533
v -0.423994 0.118045 -0.175625
v -0.381585 0.118045 -0.254967
v -0.324511 0.118045 -0.324512
v -0.254966 0.118045 -0.381585
v -0.175624 0.118045 -0.423995
v -0.089532 0.118045 -0.450110
vt 0.193781 0.732796
vt 0.210850 0.708319
vt 0.222043 0.736307
vt 0.205984 0.763959
vt 0.234542 0.762431
vt 0.219640 0.793092
vt 0.248271 0.786449
vt 0.234667 0.819926
vt 0.263141 0.808130
vt 0.250969 0.844204
vt 0.279056 0.827263
vt 0.268435 0.865683
vt 0.295911 0.843657
vt 0.286942 0.884137
vt 0.313625 0.857111
vt 0.306330 0.899388
vt 0.332279 0.867296
vt 0.326393 0.911455
vt 0.331358 0.088545
vt 0.333044 0.123045
vt 0.318286 0.126202
vt 0.315594 0.092376
vt 0.303912 0.132134
vt 0.299793 0.098615
vt 0.289784 0.140655
vt 0.284160 0.107670
vt 0.275977 0.151727
vt 0.268849 0.119572
vt 0.262597 0.165317
vt 0.253995 0.134276
vt 0.249760 0.181367
vt 0.239726 0.151711
vt 0.237576 0.199792
vt 0.226167 0.171785
vt 0.226156 0.220489
vt 0.213438 0.194384
vt 0.215606 0.243330
vt 0.201658 0.219371
vt 0.206025 0.268171
vt 0.190937 0.246590
vt 0.197508 0.294849
vt 0.181380 0.275860
vt 0.190142 0.323183
vt 0.173085 0.306986
vt 0.184007 0.352974
vt 0.166141 0.339748
vt 0.179174 0.384010
vt 0.160628 0.373915
vt 0.175705 0.416063
vt 0.156616 0.409237
vt 0.173652 0.448896
vt 0.154164 0.445451
vt 0.173058 0.482258
vt 0.153320 0.482282
vt 0.173953 0.515891
vt 0.154118 0.519446
vt 0.176357 0.549530
vt 0.156583 0.556651
vt 0.180277 0.582905
vt 0.160724 0.593599
vt 0.185709 0.615744
vt 0.166537 0.629988
vt 0.192637 0.647773
vt 0.174007 0.665518
vt 0.191836 0.324750
vt 0.185779 0.354245
vt 0.201031 0.678720
vt 0.183103 0.699886
vt 0.732436 0.509502
vt 0.713391 0.493725
vt 0.658313 0.287636
vt 0.844245 0.441668
vt 0.829669 0.470820
vt 0.752654 0.517545
vt 0.713391 0.122775
vt 0.732436 0.106998
vt 0.855698 0.407388
vt 0.696251 0.145680
vt 0.863586 0.369299
vt 0.681675 0.174833
vt 0.867608 0.328863
vt 0.670223 0.209112
vt 0.867608 0.287636
vt 0.662335 0.247201
vt 0.863586 0.247201
vt 0.855698 0.209111
vt 0.844245 0.174832
vt 0.662335 0.369299
vt 0.658313 0.328864
vt 0.829669 0.145680
vt 0.670223 0.407388
vt 0.812530 0.122775
vt 0.773267 0.517545
vt 0.681675 0.441668
vt 0.793485 0.106998
vt 0.793485 0.509502
vt 0.696252 0.470820
vt 0.773267 0.098955
vt 0.812530 0.493725
vt 0.752653 0.098955
vt 0.280087 0.823442
vt 0.264327 0.804540
vt 0.265548 0.800845
vt 0.281149 0.819511
vt 0.314305 0.852902
vt 0.332758 0.862888
vt 0.181012 0.384970
vt 0.333137 0.126511
vt 0.318552 0.129575
vt 0.177595 0.416700
vt 0.304335 0.135452
vt 0.175580 0.449198
vt 0.290357 0.143907
vt 0.175009 0.482216
vt 0.276697 0.154891
vt 0.212525 0.705866
vt 0.223616 0.733542
vt 0.175912 0.515500
vt 0.263463 0.168368
vt 0.178308 0.548787
vt 0.250766 0.184278
vt 0.235999 0.759371
vt 0.182204 0.581809
vt 0.238718 0.202538
vt 0.249599 0.783112
vt 0.187597 0.614297
vt 0.227427 0.223043
vt 0.194469 0.645981
vt 0.216997 0.245670
vt 0.202792 0.676593
vt 0.207527 0.270274
vt 0.199112 0.296694
vt 0.296777 0.839629
vt 0.693135 0.560717
vt 0.708867 0.539693
vt 0.763825 0.517830
vt 0.204606 0.674404
vt 0.214250 0.703342
vt 0.209073 0.272440
vt 0.200762 0.298594
vt 0.297668 0.835483
vt 0.193579 0.326364
vt 0.315007 0.848552
vt 0.187603 0.355556
vt 0.333166 0.858302
vt 0.182904 0.385961
vt 0.333166 0.130049
vt 0.318821 0.133039
vt 0.179540 0.417357
vt 0.304769 0.138867
vt 0.177565 0.449510
vt 0.290946 0.147255
vt 0.177017 0.482175
vt 0.277439 0.158149
vt 0.177928 0.515100
vt 0.264353 0.171510
vt 0.180316 0.548024
vt 0.251801 0.187276
vt 0.225236 0.730698
vt 0.184188 0.580683
vt 0.239892 0.205365
vt 0.237500 0.756223
vt 0.189540 0.612811
vt 0.228733 0.225674
vt 0.250966 0.779680
vt 0.196356 0.644140
vt 0.218427 0.248080
vt 0.782382 0.894653
vt 0.763825 0.902036
vt 0.679757 0.587474
vt 0.799862 0.880172
vt 0.669245 0.618938
vt 0.850416 0.691012
vt 0.850416 0.728853
vt 0.815594 0.859149
vt 0.662004 0.653898
vt 0.846725 0.653898
vt 0.828973 0.832391
vt 0.658313 0.691012
vt 0.839484 0.618938
vt 0.839484 0.800927
vt 0.658313 0.728853
vt 0.828973 0.587474
vt 0.846725 0.765967
vt 0.662004 0.765967
vt 0.815594 0.560717
vt 0.669245 0.800927
vt 0.799862 0.539693
vt 0.679756 0.832391
vt 0.782382 0.525212
vt 0.693135 0.859149
vt 0.708867 0.880172
vt 0.726347 0.894653
vt 0.726348 0.525212
vt 0.744904 0.517830
vt 0.744904 0.902036
vn 0.0000 -0.5937 -0.8047
vn 0.0000 0.3828 -0.9238
vn 0.1802 0.3828 -0.9061
vn 0.1570 -0.5937 -0.7892
vn 0.3535 0.3828 -0.8535
vn 0.3079 -0.5937 -0.7434
vn 0.5132 0.3828 -0.7681
vn 0.4470 -0.5937 -0.6691
vn 0.6532 0.3828 -0.6532
vn 0.5690 -0.5937 -0.5690
vn 0.7681 0.3828 -0.5132
vn 0.6691 -0.5937 -0.4470
vn 0.8535 0.3828 -0.3535
vn 0.7434 -0.5937 -0.3079
vn 0.9061 0.3828 -0.1802
vn 0.7892 -0.5937 -0.1570
vn 0.9238 0.3828 0.0000
vn 0.8047 -0.5937 0.0000
vn 0.9061 0.3828 0.1802
vn 0.7892 -0.5937 0.1570
vn 0.8535 0.3828 0.3535
vn 0.7434 -0.5937 0.3079
vn 0.7681 0.3828 0.5132
vn 0.6691 -0.5937 0.4470
vn 0.6532 0.3828 0.6532
vn 0.5690 -0.5937 0.5690
vn 0.5132 0.3828 0.7681
vn 0.4470 -0.5937 0.6691
vn 0.3535 0.3828 0.8535
vn 0.3079 -0.5937 0.7434
vn 0.1802 0.3828 0.9061
vn 0.1570 -0.5937 0.7892
vn 0.0000 0.3828 0.9238
vn 0.0000 -0.5937 0.8047
vn -0.1802 0.3828 0.9061
vn -0.1570 -0.5937 0.7892
vn -0.3535 0.3828 0.8535
vn -0.3079 -0.5937 0.7434
vn -0.5132 0.3828 0.7681
vn -0.4470 -0.5937 0.6691
vn -0.6532 0.3828 0.6532
vn -0.5690 -0.5937 0.5690
vn -0.7681 0.3828 0.5132
vn -0.6691 -0.5937 0.4470
vn -0.8535 0.3828 0.3535
vn -0.7434 -0.5937 0.3079
vn -0.9061 0.3828 0.1802
vn -0.7892 -0.5937 0.1570
vn -0.9238 0.3828 0.0000
vn -0.8047 -0.5937 0.0000
vn -0.9061 0.3828 -0.1802
vn -0.7892 -0.5937 -0.1570
vn -0.8535 0.3828 -0.3535
vn -0.7434 -0.5937 -0.3079
vn -0.7681 0.3828 -0.5132
vn -0.6691 -0.5937 -0.4470
vn -0.6532 0.3828 -0.6532
vn -0.5690 -0.5937 -0.5690
vn -0.5132 0.3828 -0.7681
vn -0.4470 -0.5937 -0.6691
vn -0.3535 0.3828 -0.8535
vn -0.3079 -0.5937 -0.7434
vn -0.4872 0.7247 0.4872
vn -0.5729 0.7247 0.3828
vn -0.1802 0.3828 -0.9061
vn -0.1570 -0.5937 -0.7892
vn 0.5729 0.7247 -0.3828
vn 0.4872 0.7247 -0.4872
vn 0.1765 0.9683 -0.1765
vn 0.2075 0.9683 -0.1387
vn 0.6758 0.7247 -0.1344
vn 0.6890 0.7247 0.0000
vn -0.6366 0.7247 0.2636
vn 0.6758 0.7247 0.1344
vn -0.6758 0.7247 0.1344
vn 0.6366 0.7247 0.2636
vn -0.6890 0.7247 0.0000
vn 0.5729 0.7247 0.3828
vn -0.6758 0.7247 -0.1344
vn 0.4872 0.7247 0.4872
vn 0.0000 0.7247 -0.6890
vn 0.1344 0.7247 -0.6758
vn -0.6366 0.7247 -0.2636
vn 0.3828 0.7247 0.5729
vn -0.5729 0.7247 -0.3828
vn 0.2636 0.7247 0.6366
vn 0.2636 0.7247 -0.6366
vn -0.4872 0.7247 -0.4872
vn 0.1344 0.7247 0.6758
vn 0.3828 0.7247 -0.5729
vn -0.3828 0.7247 -0.5729
vn 0.0000 0.7247 0.6890
vn -0.2636 0.7247 -0.6366
vn -0.1344 0.7247 0.6758
vn -0.1344 0.7247 -0.6758
vn -0.2636 0.7247 0.6366
vn -0.3828 0.7247 0.5729
vn 0.6366 0.7247 -0.2636
vn 0.1765 0.9683 0.1765
vn 0.2075 0.9683 0.1387
vn 0.2496 0.9683 0.0000
vn -0.0487 0.9683 -0.2448
vn 0.0000 0.9683 -0.2496
vn -0.0955 0.9683 0.2306
vn -0.1387 0.9683 0.2075
vn 0.2306 0.9683 -0.0955
vn -0.1765 0.9683 0.1765
vn 0.2448 0.9683 -0.0487
vn -0.2075 0.9683 0.1387
vn -0.2306 0.9683 0.0955
vn 0.2448 0.9683 0.0487
vn -0.2448 0.9683 0.0487
vn 0.2306 0.9683 0.0955
vn -0.2496 0.9683 0.0000
vn -0.2448 0.9683 -0.0487
vn -0.2306 0.9683 -0.0955
vn 0.1387 0.9683 0.2075
vn -0.2075 0.9683 -0.1387
vn 0.0955 0.9683 0.2306
vn 0.0487 0.9683 -0.2448
vn -0.1765 0.9683 -0.1765
vn 0.0487 0.9683 0.2448
vn 0.0955 0.9683 -0.2306
vn -0.1387 0.9683 -0.2075
vn 0.0000 0.9683 0.2496
vn 0.1387 0.9683 -0.2075
vn -0.0955 0.9683 -0.2306
vn -0.0487 0.9683 0.2448
usemtl None
s 1
f 34/1/1 2/2/2 3/3/3 35/4/4
f 35/4/4 3/3/3 4/5/5 36/6/6
f 36/6/6 4/5/5 5/7/7 37/8/8
f 37/8/8 5/7/7 6/9/9 38/10/10
f 38/10/10 6/9/9 7/11/11 39/12/12
f 39/12/12 7/11/11 8/13/13 40/14/14
f 40/14/14 8/13/13 9/15/15 41/16/16
f 41/16/16 9/15/15 10/17/17 1/18/18
f 1/19/18 10/20/17 11/21/19 42/22/20
f 42/22/20 11/21/19 12/23/21 43/24/22
f 43/24/22 12/23/21 13/25/23 44/26/24
f 44/26/24 13/25/23 14/27/25 45/28/26
f 45/28/26 14/27/25 15/29/27 46/30/28
f 46/30/28 15/29/27 16/31/29 47/32/30
f 47/32/30 16/31/29 17/33/31 48/34/32
f 48/34/32 17/33/31 18/35/33 49/36/34
f 49/36/34 18/35/33 19/37/35 50/38/36
f 50/38/36 19/37/35 20/39/37 51/40/38
f 51/40/38 20/39/37 21/41/39 52/42/40
f 52/42/40 21/41/39 22/43/41 53/44/42
f 53/44/42 22/43/41 23/45/43 54/46/44
f 54/46/44 23/45/43 24/47/45 55/48/46
f 55/48/46 24/47/45 25/49/47 56/50/48
f 56/50/48 25/49/47 26/51/49 57/52/50
f 57/52/50 26/51/49 27/53/51 58/54/52
f 58/54/52 27/53/51 28/55/53 59/56/54
f 59/56/54 28/55/53 29/57/55 60/58/56
f 60/58/56 29/57/55 30/59/57 61/60/58
f 61/60/58 30/59/57 31/61/59 62/62/60
f 62/62/60 31/61/59 32/63/61 63/64/62
f 23/45/43 22/43/41 85/65/63 86/66/64
f 63/64/62 32/63/61 33/67/65 64/68/66
f 64/68/66 33/67/65 2/2/2 34/1/1
f 35/69/4 36/70/6 1/71/18
f 60/72/56 61/73/58 1/71/18
f 34/74/1 35/69/4 1/71/18
f 46/75/28 47/76/30 1/71/18
f 59/77/54 60/72/56 1/71/18
f 45/78/26 46/75/28 1/71/18
f 58/79/52 59/77/54 1/71/18
f 44/80/24 45/78/26 1/71/18
f 57/81/50 58/79/52 1/71/18
f 43/82/22 44/80/24 1/71/18
f 56/83/48 57/81/50 1/71/18
f 42/84/20 43/82/22 1/71/18
f 55/85/46 56/83/48 1/71/18
f 54/86/44 55/85/46 1/71/18
f 53/87/42 54/86/44 1/71/18
f 40/88/14 41/89/16 1/71/18
f 52/90/40 53/87/42 1/71/18
f 39/91/12 40/88/14 1/71/18
f 51/92/38 52/90/40 1/71/18
f 64/93/66 34/74/1 1/71/18
f 38/94/10 39/91/12 1/71/18
f 50/95/36 51/92/38 1/71/18
f 63/96/62 64/93/66 1/71/18
f 37/97/8 38/94/10 1/71/18
f 49/98/34 50/95/36 1/71/18
f 62/99/60 63/96/62 1/71/18
f 36/70/6 37/97/8 1/71/18
f 48/100/32 49/98/34 1/71/18
f 61/73/58 62/99/60 1/71/18
f 47/76/30 48/100/32 1/71/18
f 70/101/67 69/102/68 101/103/69 102/104/70
f 10/17/17 9/15/15 72/105/71 73/106/72
f 24/47/45 23/45/43 86/66/64 87/107/73
f 11/21/19 10/20/17 73/108/72 74/109/74
f 25/49/47 24/47/45 87/107/73 88/110/75
f 12/23/21 11/21/19 74/109/74 75/111/76
f 26/51/49 25/49/47 88/110/75 89/112/77
f 13/25/23 12/23/21 75/111/76 76/113/78
f 27/53/51 26/51/49 89/112/77 90/114/79
f 14/27/25 13/25/23 76/113/78 77/115/80
f 3/3/3 2/2/2 65/116/81 66/117/82
f 28/55/53 27/53/51 90/114/79 91/118/83
f 15/29/27 14/27/25 77/115/80 78/119/84
f 29/57/55 28/55/53 91/118/83 92/120/85
f 16/31/29 15/29/27 78/119/84 79/121/86
f 4/5/5 3/3/3 66/117/82 67/122/87
f 30/59/57 29/57/55 92/120/85 93/123/88
f 17/33/31 16/31/29 79/121/86 80/124/89
f 5/7/7 4/5/5 67/122/87 68/125/90
f 31/61/59 30/59/57 93/123/88 94/126/91
f 18/35/33 17/33/31 80/124/89 81/127/92
f 32/63/61 31/61/59 94/126/91 95/128/93
f 19/37/35 18/35/33 81/127/92 82/129/94
f 6/9/9 5/7/7 68/125/90 69/102/68
f 33/67/65 32/63/61 95/128/93 96/130/95
f 20/39/37 19/37/35 82/129/94 83/131/96
f 7/11/11 6/9/9 69/102/68 70/101/67
f 2/2/2 33/67/65 96/130/95 65/116/81
f 21/41/39 20/39/37 83/131/96 84/132/97
f 8/13/13 7/11/11 70/101/67 71/133/98
f 22/43/41 21/41/39 84/132/97 85/65/63
f 9/15/15 8/13/13 71/133/98 72/105/71
f 109/134/99 108/135/100 105/136/101
f 65/116/81 96/130/95 128/137/102 97/138/103
f 84/132/97 83/131/96 115/139/104 116/140/105
f 71/133/98 70/101/67 102/104/70 103/141/106
f 85/65/63 84/132/97 116/140/105 117/142/107
f 72/105/71 71/133/98 103/141/106 104/143/108
f 86/66/64 85/65/63 117/142/107 118/144/109
f 73/106/72 72/105/71 104/143/108 105/145/101
f 87/107/73 86/66/64 118/144/109 119/146/110
f 74/109/74 73/108/72 105/147/101 106/148/111
f 88/110/75 87/107/73 119/146/110 120/149/112
f 75/111/76 74/109/74 106/148/111 107/150/113
f 89/112/77 88/110/75 120/149/112 121/151/114
f 76/113/78 75/111/76 107/150/113 108/152/100
f 90/114/79 89/112/77 121/151/114 122/153/115
f 77/115/80 76/113/78 108/152/100 109/154/99
f 91/118/83 90/114/79 122/153/115 123/155/116
f 78/119/84 77/115/80 109/154/99 110/156/117
f 92/120/85 91/118/83 123/155/116 124/157/118
f 79/121/86 78/119/84 110/156/117 111/158/119
f 66/117/82 65/116/81 97/138/103 98/159/120
f 93/123/88 92/120/85 124/157/118 125/160/121
f 80/124/89 79/121/86 111/158/119 112/161/122
f 67/122/87 66/117/82 98/159/120 99/162/123
f 94/126/91 93/123/88 125/160/121 126/163/124
f 81/127/92 80/124/89 112/161/122 113/164/125
f 68/125/90 67/122/87 99/162/123 100/165/126
f 95/128/93 94/126/91 126/163/124 127/166/127
f 82/129/94 81/127/92 113/164/125 114/167/128
f 69/102/68 68/125/90 100/165/126 101/103/69
f 96/130/95 95/128/93 127/166/127 128/137/102
f 83/131/96 82/129/94 114/167/128 115/139/104
f 123/168/116 122/169/115 105/136/101
f 110/170/117 109/134/99 105/136/101
f 124/171/118 123/168/116 105/136/101
f 111/172/119 110/170/117 105/136/101
f 98/173/120 97/174/103 105/136/101
f 125/175/121 124/171/118 105/136/101
f 112/176/122 111/172/119 105/136/101
f 99/177/123 98/173/120 105/136/101
f 126/178/124 125/175/121 105/136/101
f 113/179/125 112/176/122 105/136/101
f 100/180/126 99/177/123 105/136/101
f 127/181/127 126/178/124 105/136/101
f 114/182/128 113/179/125 105/136/101
f 101/183/69 100/180/126 105/136/101
f 128/184/102 127/181/127 105/136/101
f 115/185/104 114/182/128 105/136/101
f 102/186/70 101/183/69 105/136/101
f 97/174/103 128/184/102 105/136/101
f 116/187/105 115/185/104 105/136/101
f 103/188/106 102/186/70 105/136/101
f 117/189/107 116/187/105 105/136/101
f 104/190/108 103/188/106 105/136/101
f 118/191/109 117/189/107 105/136/101
f 119/192/110 118/191/109 105/136/101
f 120/193/112 119/192/110 105/136/101
f 107/194/113 106/195/111 105/136/101
f 121/196/114 120/193/112 105/136/101
f 108/135/100 107/194/113 105/136/101
f 122/169/115 121/196/114 105/136/101
