# Blender 5.0.1
# www.blender.org
mtllib orb.mtl
o Chronomancer_L
v 0.997438 1.434315 0.435126
v 1.045420 1.446576 0.445983
v 1.029650 1.335996 0.374078
v 0.966623 1.427607 0.481183
v 1.018370 1.362825 0.379856
v 1.132509 1.372624 0.450306
v 0.977578 1.430528 0.500960
v 0.963831 1.381057 0.414259
v 1.127553 1.406863 0.476802
v 1.071057 1.396796 0.399704
v 1.044424 1.391195 0.581820
v 1.030438 1.457375 0.492330
v 0.972169 1.383161 0.562272
v 1.016752 1.378334 0.585675
v 1.110711 1.374810 0.563339
v 1.134147 1.369171 0.525092
v 0.988530 1.378028 0.396549
v 0.943822 1.374648 0.444586
v 1.029910 1.423779 0.569293
v 1.085888 1.420690 0.428065
v 1.121683 1.354054 0.428279
v 1.057776 1.453800 0.512708
v 1.070103 1.450644 0.467614
v 1.053028 1.328552 0.376599
v 1.111060 1.382558 0.418592
v 0.940027 1.383348 0.502853
v 1.118659 1.407436 0.447352
v 1.081539 1.428749 0.553520
v 0.942399 1.403906 0.450923
v 0.965220 1.349870 0.398817
v 1.114788 1.414025 0.524264
v 1.039981 1.420487 0.408929
v 1.004149 1.344976 0.384870
v 0.997852 1.445697 0.464015
v 0.968932 1.418794 0.520686
v 1.090231 1.442784 0.489522
v 1.002512 1.433425 0.542458
v 1.143407 1.353588 0.486484
v 1.097981 1.325240 0.399539
v 1.131750 1.295785 0.451359
v 1.043989 1.279766 0.388443
v 0.932126 1.278923 0.533937
v 1.014340 1.409113 0.423213
v 0.947571 1.397860 0.484067
v 1.001366 1.222903 0.467318
v 0.958631 1.299157 0.565319
v 1.008314 1.247580 0.559707
v 1.028162 1.362993 0.599955
v 1.124776 1.306718 0.548707
v 1.074954 1.237386 0.529707
v 0.937979 1.346540 0.435403
v 1.073998 1.416851 0.516435
v 1.020028 1.428749 0.499498
v 0.984696 1.249215 0.426490
v 1.092617 1.311942 0.572936
v 0.929744 1.363464 0.521694
v 1.027007 1.301236 0.601713
v 0.947012 1.257559 0.452728
v 1.057851 1.230613 0.443113
v 0.989547 1.334664 0.587247
v 1.092237 1.246725 0.450978
v 1.082308 1.334548 0.592508
v 1.141288 1.293505 0.490839
v 1.103092 1.401411 0.473265
v 1.015019 1.217071 0.494271
v 0.970746 1.232389 0.493484
v 1.094189 1.285468 0.414216
v 0.969519 1.369229 0.577064
v 1.064993 1.225600 0.482425
v 0.923830 1.280647 0.494386
v 0.978205 1.419853 0.486518
v 1.053373 1.317580 0.591341
v 1.136205 1.324075 0.501574
v 1.069205 1.376506 0.404806
v 1.092885 1.285400 0.572303
v 0.997582 1.276362 0.396325
v 0.963171 1.287379 0.407563
v 0.925118 1.337802 0.468644
v 0.939216 1.337620 0.541399
v 0.983451 1.233490 0.525308
v 1.089209 1.356187 0.576472
v 0.931182 1.303240 0.441430
v 1.097455 1.243695 0.497056
v 1.027742 1.342245 0.602987
v 1.117433 1.341812 0.545290
v 1.053946 1.422921 0.478217
v 1.032719 1.236539 0.426379
v 1.070325 1.292262 0.592604
v 0.948928 1.354909 0.562190
v 0.963380 1.277253 0.576735
v 1.070662 1.256800 0.419393
v 1.119781 1.287437 0.540784
v 0.989072 1.281676 0.582974
v 1.140352 1.299808 0.522132
v 0.969973 1.412181 0.457993
v 1.032204 1.223499 0.521785
v 1.038869 1.249109 0.565031
vn 0.9557 0.2735 -0.1087
vn 0.9047 0.2013 -0.3754
vn 0.8383 0.5397 -0.0774
vn 0.1642 0.9531 0.2540
vn -0.2971 0.7902 0.5360
vn -0.1254 0.6823 0.7202
vn 0.3944 0.7393 0.5457
vn 0.1867 0.5911 0.7847
vn -0.2150 0.6518 -0.7273
vn -0.5260 0.1099 -0.8434
vn -0.1152 0.3823 -0.9168
vn -0.3813 0.4339 -0.8163
vn 0.0091 0.6595 -0.7516
vn -0.8159 0.5749 0.0611
vn -0.7412 0.6591 -0.1271
vn -0.9399 0.2053 0.2727
vn 0.7330 0.5563 -0.3915
vn 0.6814 0.2993 -0.6679
vn 0.4396 0.6916 -0.5731
vn -0.4089 0.6282 0.6619
vn 0.0631 0.8977 -0.4362
vn -0.3547 0.7682 -0.5330
vn -0.3561 0.8956 -0.2667
vn -0.0837 0.9958 0.0384
vn -0.8470 0.3311 0.4159
vn 0.7340 0.6201 0.2770
vn 0.8666 0.4391 0.2369
vn -0.8590 0.4092 -0.3078
vn 0.3199 0.9163 -0.2410
vn -0.1833 -0.3500 -0.9186
vn -0.6309 0.4152 -0.6554
vn 0.3175 0.4539 -0.8326
vn 0.4693 0.2227 -0.8545
vn 0.5495 0.8355 0.0103
vn 0.6694 0.5041 0.5457
vn -0.9476 -0.0650 -0.3128
vn 0.6465 0.1398 -0.7500
vn 0.8587 0.0721 -0.5074
vn -0.0433 0.6443 0.7635
vn 0.5934 -0.3952 0.7012
vn -0.0163 -0.1009 0.9948
vn 0.1193 -0.7188 0.6849
vn 0.5874 -0.0025 -0.8093
vn 0.1731 -0.4599 -0.8709
vn 0.4986 -0.1977 -0.8440
vn 0.5461 0.2896 -0.7861
vn 0.5873 -0.0021 -0.8093
vn -0.8930 0.1801 -0.4124
vn -0.6949 -0.6377 -0.3323
vn -0.9366 -0.3500 0.0158
vn -0.8979 -0.1642 -0.4084
vn -0.1087 0.9917 0.0680
vn -0.0134 0.9999 0.0049
vn 0.1855 0.9798 0.0750
vn 0.0455 0.7296 0.6824
vn 0.6439 0.2837 0.7105
vn 0.4197 0.8820 0.2142
vn 0.6440 0.2836 0.7105
vn 0.8773 -0.2798 -0.3900
vn 0.5913 -0.4096 -0.6947
vn 0.9602 0.2570 -0.1094
vn 0.7858 0.3542 -0.5069
vn 0.6542 0.7517 -0.0831
vn -0.5309 -0.8469 0.0305
vn -0.9835 0.1117 -0.1421
vn -0.3673 -0.7381 -0.5660
vn 0.0030 -0.8125 -0.5830
vn -0.2366 -0.9367 -0.2579
vn 0.6062 -0.7185 -0.3411
vn 0.9584 -0.2792 -0.0598
vn 0.6376 -0.7659 0.0833
vn 0.9008 0.3178 0.2960
vn 0.6891 -0.5387 0.4847
vn -0.8514 -0.3677 0.3742
vn -0.4954 -0.2583 0.8294
vn -0.8312 -0.0152 0.5557
vn -0.3814 -0.8525 0.3575
vn -0.9093 0.3109 0.2766
vn -0.1536 -0.7602 0.6313
vn 0.3311 -0.9430 -0.0325
vn -0.0762 -0.9960 0.0473
vn 0.2654 -0.8809 -0.3919
vn -0.2680 -0.3287 0.9056
vn -0.4419 0.2482 0.8621
vn -0.4438 -0.0373 0.8954
vn 0.8515 0.0317 0.5234
vn 0.9903 0.0742 0.1175
vn 0.7861 0.3529 -0.5074
vn 0.9606 0.2556 -0.1090
vn 0.7713 -0.0996 0.6286
vn 0.4949 0.3286 0.8045
vn 0.0273 0.5607 0.8276
vn 0.5447 -0.0397 0.8377
vn 0.4305 -0.8181 0.3814
vn 0.0664 -0.9410 0.3320
vn -0.5731 -0.3646 -0.7339
vn 0.1959 0.9749 -0.1059
vn -0.2668 -0.4847 -0.8330
vn 0.7252 0.2821 -0.6281
vn 0.6328 -0.0713 0.7710
vn -0.7649 0.0609 0.6413
vn -0.4654 0.4845 0.7408
vn -0.1104 -0.1696 0.9793
vn 0.2006 -0.0491 0.9784
vn 0.4138 -0.6296 -0.6576
vn 0.2518 -0.5308 0.8092
vn 0.9343 -0.1916 0.3006
vn -0.3752 0.8401 0.3917
vn -0.3630 0.9291 -0.0707
vt 0.924137 0.712625
vt 0.921125 0.697048
vt 0.935869 0.696630
vt 0.903671 0.416486
vt 0.884499 0.419117
vt 0.886612 0.408576
vt 0.900056 0.400273
vt 0.886146 0.391430
vt 0.734282 0.047999
vt 0.747888 0.051407
vt 0.731032 0.054696
vt 0.165639 0.987344
vt 0.157102 0.976031
vt 0.177623 0.968480
vt 0.884097 0.431693
vt 0.883504 0.438655
vt 0.878419 0.429084
vt 0.207255 0.971994
vt 0.200156 0.983173
vt 0.193956 0.968494
vt 0.867555 0.420161
vt 0.913272 0.435887
vt 0.900930 0.447567
vt 0.897279 0.438527
vt 0.901212 0.426052
vt 0.868333 0.439851
vt 0.949244 0.706827
vt 0.939132 0.716388
vt 0.744710 0.060487
vt 0.766336 0.065462
vt 0.752074 0.078731
vt 0.915861 0.424886
vt 0.723449 0.046947
vt 0.754079 0.059974
vt 0.185450 0.978638
vt 0.947253 0.665527
vt 0.949967 0.676387
vt 0.932438 0.674568
vt 0.930056 0.687988
vt 0.179553 0.999787
vt 0.168978 0.997161
vt 0.950982 0.686754
vt 0.860597 0.412486
vt 0.949452 0.722268
vt 0.964292 0.711571
vt 0.183409 0.954669
vt 0.761415 0.055789
vt 0.684260 0.173993
vt 0.675502 0.183592
vt 0.671847 0.157967
vt 0.777667 0.076333
vt 0.782772 0.059168
vt 0.689273 0.158249
vt 0.964135 0.728329
vt 0.681832 0.148919
vt 0.695461 0.141285
vt 0.872396 0.396466
vt 0.916526 0.414401
vt 0.166246 0.955839
vt 0.881294 0.453169
vt 0.669663 0.144938
vt 0.915144 0.397597
vt 0.930308 0.403597
vt 0.709494 0.145734
vt 0.701227 0.162741
vt 0.718923 0.165100
vt 0.872973 0.383887
vt 0.860013 0.386776
vt 0.861681 0.373512
vt 0.197704 0.428068
vt 0.185655 0.409696
vt 0.209971 0.412073
vt 0.165590 0.405647
vt 0.165285 0.377455
vt 0.181414 0.393369
vt 0.782851 0.026220
vt 0.779775 0.040509
vt 0.750301 0.031245
vt 0.191069 0.366567
vt 0.203937 0.371424
vt 0.193762 0.384231
vt 0.926919 0.729168
vt 0.920032 0.727109
vt 0.179373 0.369687
vt 0.677948 0.209627
vt 0.682351 0.192653
vt 0.689565 0.205449
vt 0.704171 0.180785
vt 0.694530 0.192761
vt 0.739467 0.036705
vt 0.721297 0.035659
vt 0.755263 0.037663
vt 0.773815 0.045700
vt 0.756759 0.047012
vt 0.946717 0.738750
vt 0.192070 0.399478
vt 0.703925 0.172772
vt 0.861820 0.426356
vt 0.793105 0.049482
vt 0.771819 0.051510
vt 0.928508 0.744374
vt 0.817317 0.051521
vt 0.810400 0.039834
vt 0.796168 0.043431
vt 0.670924 0.194112
vt 0.856146 0.399711
vt 0.880537 0.372113
vt 0.732043 0.026220
vt 0.800927 0.055613
vt 0.186763 0.436689
vt 0.188172 0.423382
s 1
usemtl Chronomancer_L
f 38/1/1 6/2/2 9/3/3
f 22/4/4 37/5/5 19/6/6
f 28/7/7 19/6/6 11/8/8
f 33/9/9 30/10/10 5/11/11
f 5/12/11 17/13/12 32/14/13
f 7/15/14 4/16/15 35/17/16
f 27/18/17 25/19/18 20/20/19
f 37/5/5 7/15/14 13/21/20
f 2/22/21 1/23/22 34/24/23
f 12/25/24 37/5/5 22/4/4
f 13/21/20 35/17/16 26/26/25
f 9/3/3 31/27/26 16/28/27
f 17/29/12 29/30/28 1/31/22
f 23/32/29 2/22/21 12/25/24
f 3/33/30 33/9/9 5/11/11
f 30/10/10 8/34/31 17/29/12
f 17/29/12 8/34/31 29/30/28
f 7/15/14 35/17/16 13/21/20
f 10/35/32 20/20/19 25/19/18
f 2/36/21 23/37/29 20/38/19
f 6/2/2 27/39/17 9/3/3
f 10/35/32 32/14/13 20/20/19
f 24/40/33 3/41/30 5/12/11
f 12/25/24 22/4/4 23/32/29
f 36/42/34 9/3/3 27/39/17
f 13/43/20 19/6/6 37/5/5
f 4/16/15 26/26/25 35/17/16
f 15/44/35 31/27/26 28/45/7
f 34/24/23 4/16/15 7/15/14
f 1/23/22 4/16/15 34/24/23
f 32/14/13 2/46/21 20/20/19
f 30/10/10 18/47/36 8/34/31
f 18/47/36 29/30/28 8/34/31
f 27/39/17 23/37/29 36/42/34
f 39/48/37 24/49/33 25/50/18
f 16/28/27 31/27/26 15/44/35
f 10/35/32 5/12/11 32/14/13
f 4/51/15 29/30/28 26/52/25
f 39/48/37 25/50/18 21/53/38
f 15/44/35 28/45/7 11/54/8
f 6/55/2 38/56/1 21/53/38
f 19/6/6 13/43/20 14/57/39
f 20/38/19 23/37/29 27/39/17
f 38/1/1 9/3/3 16/28/27
f 36/58/34 22/4/4 28/7/7
f 12/25/24 34/24/23 7/15/14
f 32/14/13 1/59/22 2/46/21
f 32/14/13 17/13/12 1/59/22
f 30/10/10 17/29/12 5/11/11
f 1/23/22 29/60/28 4/16/15
f 25/19/18 24/40/33 10/35/32
f 12/25/24 7/15/14 37/5/5
f 24/40/33 5/12/11 10/35/32
f 6/55/2 25/50/18 27/61/17
f 11/8/8 19/6/6 14/57/39
f 26/52/25 29/30/28 18/47/36
f 22/4/4 19/6/6 28/7/7
f 31/62/26 36/58/34 28/7/7
f 22/4/4 36/58/34 23/32/29
f 31/62/26 9/63/3 36/58/34
f 2/22/21 34/24/23 12/25/24
f 21/53/38 25/50/18 6/55/2
f 75/29/40 57/30/41 97/31/42
f 24/64/33 39/65/43 41/56/44
f 24/64/45 74/66/46 39/65/47
f 51/67/48 18/68/36 30/69/10
f 58/7/49 70/6/50 82/8/51
f 95/70/52 53/71/53 43/72/54
f 11/73/55 15/74/56 52/75/57
f 11/76/8 14/77/39 15/78/58
f 39/65/43 40/48/59 67/53/60
f 38/79/61 21/80/62 64/81/63
f 3/82/30 24/83/33 41/1/44
f 66/4/64 70/6/50 58/7/49
f 82/8/51 70/6/50 78/57/65
f 54/62/66 87/63/67 45/58/68
f 61/19/69 63/40/70 83/35/71
f 52/75/57 15/74/56 16/84/72
f 63/40/70 92/12/73 83/35/71
f 42/5/74 90/15/75 79/21/76
f 80/25/77 90/15/75 42/5/74
f 70/6/50 56/43/78 78/57/65
f 80/25/77 47/24/79 90/15/75
f 69/38/80 65/37/81 59/39/82
f 97/23/42 57/60/41 93/16/83
f 79/21/76 46/17/84 60/26/85
f 85/85/86 73/86/87 16/87/72
f 21/88/88 38/89/89 40/48/59
f 85/90/86 49/9/90 73/91/87
f 81/92/91 48/93/92 62/94/93
f 50/14/94 75/13/40 97/59/42
f 50/14/94 97/59/42 96/46/95
f 82/54/51 30/95/10 77/44/96
f 64/81/63 52/75/57 16/84/72
f 52/75/57 53/71/53 11/73/55
f 86/96/97 52/75/57 64/81/63
f 41/1/44 76/28/98 3/82/30
f 77/44/96 30/95/10 3/82/30
f 74/66/46 21/97/99 39/65/47
f 21/97/88 40/48/59 39/65/43
f 49/9/90 81/92/91 55/10/100
f 92/12/73 75/13/40 50/14/94
f 60/26/85 89/98/101 79/21/76
f 68/99/102 60/52/85 84/100/103
f 72/47/104 84/100/103 60/52/85
f 54/62/66 45/58/68 58/7/49
f 77/44/96 58/45/49 82/54/51
f 41/1/44 87/3/67 76/28/98
f 40/48/59 61/50/69 67/53/60
f 93/51/83 57/30/41 60/52/85
f 60/52/85 57/30/41 72/47/104
f 91/55/105 61/50/69 59/61/82
f 59/18/82 61/19/69 69/20/80
f 48/93/92 81/92/91 14/77/39
f 48/93/92 14/77/39 68/99/102
f 81/92/91 62/94/93 55/10/100
f 72/47/104 57/30/41 88/34/106
f 40/48/59 63/49/70 61/50/69
f 73/86/87 40/48/59 38/89/89
f 59/39/82 65/37/81 45/42/68
f 45/58/68 66/4/64 58/7/49
f 66/4/64 45/58/68 65/32/81
f 96/22/95 47/24/79 80/25/77
f 33/101/9 3/82/30 30/95/10
f 41/56/44 39/65/43 67/53/60
f 41/1/44 91/2/105 87/3/67
f 56/102/78 68/99/102 26/103/25
f 68/99/102 14/77/39 13/104/20
f 50/14/94 96/46/95 69/20/80
f 83/35/71 92/12/73 50/14/94
f 56/43/78 70/6/50 42/5/74
f 66/4/64 42/5/74 70/6/50
f 55/10/100 62/94/93 72/47/104
f 62/94/93 84/100/103 72/47/104
f 94/105/107 63/49/70 73/86/87
f 63/49/70 40/48/59 73/86/87
f 16/84/72 38/79/61 64/81/63
f 38/89/89 16/87/72 73/86/87
f 78/57/65 56/43/78 26/106/25
f 55/10/100 75/29/40 92/11/73
f 55/10/100 72/47/104 88/34/106
f 87/3/67 54/27/66 76/28/98
f 77/44/96 54/27/66 58/45/49
f 3/82/30 76/28/98 77/44/96
f 76/28/98 54/27/66 77/44/96
f 51/67/48 78/57/65 18/68/36
f 18/68/36 78/57/65 26/106/25
f 56/43/78 79/21/76 89/98/101
f 56/43/78 42/5/74 79/21/76
f 80/25/77 66/4/64 65/32/81
f 80/25/77 42/5/74 66/4/64
f 81/92/91 49/9/90 85/90/86
f 15/78/58 14/77/39 81/92/91
f 78/57/65 51/67/48 82/8/51
f 82/8/51 51/67/48 30/107/10
f 83/35/71 50/14/94 69/20/80
f 83/35/71 69/20/80 61/19/69
f 48/93/92 68/99/102 84/100/103
f 48/93/92 84/100/103 62/94/93
f 16/108/72 15/78/58 85/90/86
f 15/78/58 81/92/91 85/90/86
f 26/103/25 68/99/102 13/104/20
f 86/96/97 53/71/53 52/75/57
f 45/42/68 87/3/67 59/39/82
f 91/2/105 59/39/82 87/3/67
f 75/29/40 88/34/106 57/30/41
f 55/10/100 88/34/106 75/29/40
f 89/109/101 60/52/85 68/99/102
f 89/109/101 68/99/102 56/102/78
f 47/24/79 93/16/83 90/15/75
f 90/15/75 46/17/84 79/21/76
f 67/53/60 61/50/69 91/55/105
f 91/55/105 41/56/44 67/53/60
f 49/9/90 55/10/100 92/11/73
f 63/40/70 94/41/107 92/12/73
f 93/16/83 60/26/85 46/17/84
f 90/15/75 93/16/83 46/17/84
f 94/33/107 49/9/90 92/11/73
f 73/91/87 49/9/90 94/33/107
f 44/110/108 71/111/109 95/70/52
f 53/71/53 95/70/52 71/111/109
f 65/32/81 96/22/95 80/25/77
f 96/36/95 65/37/81 69/38/80
f 96/22/95 97/23/42 47/24/79
f 97/23/42 93/16/83 47/24/79
l 44 26
