# Blender 4.1.1
# www.blender.org
mtllib 40mm.mtl
o 40mm
v -0.438294 0.000000 0.655955
v -0.557843 0.000000 0.557845
v 0.000000 0.000000 0.000000
v -0.301902 0.000000 0.728859
v -0.651856 0.009774 0.435557
v -0.724304 0.009774 0.300017
v -0.728858 0.000000 0.301904
v -0.655954 0.000000 0.438296
v 0.438296 -0.000000 -0.655955
v 0.557843 -0.000000 -0.557843
v 0.301903 -0.000000 -0.728858
v -0.719836 0.127400 -0.143183
v -0.733938 0.127400 0.000001
v 0.000000 0.127400 -0.000000
v -0.678071 0.127400 -0.280866
v 0.610247 0.127400 -0.407754
v 0.518973 0.127400 -0.518973
v 0.678071 0.127400 -0.280866
v 0.407754 0.127400 -0.610247
v 0.280866 0.127400 -0.678071
v -0.610247 0.127400 0.407755
v -0.518972 0.127400 0.518973
v -0.678070 0.127400 0.280867
v 0.143184 0.127400 -0.719836
v 0.000000 0.127400 -0.733938
v -0.407754 0.127400 0.610249
v -0.280866 0.127400 0.678071
v 0.407754 0.127400 0.610247
v 0.518973 0.127400 0.518973
v 0.280866 0.127400 0.678070
v -0.143184 0.127400 -0.719836
v -0.280867 0.127400 -0.678070
v -0.143183 0.127400 0.719836
v 0.000000 0.127400 0.733938
v 0.610247 0.127400 0.407754
v 0.678070 0.127400 0.280866
v -0.407755 0.127400 -0.610247
v -0.518973 0.127400 -0.518973
v 0.143184 0.127400 0.719836
v 0.719836 0.127400 0.143184
v 0.733938 0.127400 -0.000000
v -0.610247 0.127400 -0.407754
v -0.773751 0.000000 0.153909
v -0.788910 0.000000 0.000001
v 0.655955 -0.000000 -0.438296
v 0.728858 -0.000000 -0.301903
v -0.773752 -0.000000 -0.153908
v -0.728858 -0.000000 -0.301903
v 0.773752 -0.000000 -0.153909
v 0.788910 0.000000 0.000000
v -0.655955 -0.000000 -0.438294
v -0.557845 -0.000000 -0.557843
v 0.773752 0.000000 0.153909
v 0.728858 0.000000 0.301903
v 0.153909 0.000000 0.773752
v 0.000000 0.000000 0.788910
v 0.301903 0.000000 0.728858
v -0.438296 -0.000000 -0.655955
v -0.301903 -0.000000 -0.728858
v 0.655955 0.000000 0.438296
v 0.557843 0.000000 0.557843
v -0.153908 0.000000 0.773752
v 0.438296 0.000000 0.655955
v 0.153909 -0.000000 -0.773752
v 0.000000 -0.000000 -0.788910
v -0.719836 0.127400 0.143184
v 0.719836 0.127400 -0.143184
v -0.153909 -0.000000 -0.773751
v 0.300016 0.009774 -0.724304
v 0.435557 0.009774 -0.651857
v 0.152947 0.009774 0.768917
v 0.000000 0.009774 0.783981
v -0.554358 0.009774 0.554359
v 0.152947 0.009774 -0.768917
v 0.300016 0.009774 0.724304
v -0.435556 0.009774 0.651857
v 0.000000 0.009774 -0.783981
v 0.435557 0.009774 0.651857
v -0.300016 0.009774 0.724304
v -0.152947 0.009774 -0.768917
v 0.554358 0.009774 0.554358
v -0.152946 0.009774 0.768917
v -0.300017 0.009774 -0.724304
v 0.651857 0.009774 0.435557
v 0.000000 0.119900 0.737769
v -0.143931 0.119900 0.723593
v -0.435557 0.009774 -0.651856
v 0.724304 0.009774 0.300016
v -0.554359 0.009774 -0.554358
v 0.768917 0.009774 0.152947
v -0.651857 0.009774 -0.435556
v 0.783981 0.009774 0.000000
v -0.724304 0.009774 -0.300016
v 0.768917 0.009774 -0.152947
v -0.768917 0.009774 -0.152947
v 0.724304 0.009774 -0.300016
v -0.783981 0.009774 0.000001
v 0.651857 0.009774 -0.435557
v -0.768917 0.009774 0.152948
v 0.554358 0.009774 -0.554358
v -0.681609 0.119900 0.282333
v -0.723593 0.119900 0.143932
v 0.409883 0.119900 -0.613432
v 0.521681 0.119900 -0.521681
v 0.613432 0.119900 -0.409883
v -0.737769 0.119900 0.000001
v 0.681610 0.119900 -0.282332
v -0.723593 0.119900 -0.143931
v 0.723593 0.119900 -0.143931
v -0.681610 0.119900 -0.282332
v 0.737769 0.119900 -0.000000
v -0.613432 0.119900 -0.409881
v 0.723593 0.119900 0.143932
v -0.521681 0.119900 -0.521681
v 0.681610 0.119900 0.282332
v -0.409883 0.119900 -0.613432
v 0.613432 0.119900 0.409883
v -0.282332 0.119900 -0.681609
v 0.521681 0.119900 0.521681
v -0.143932 0.119900 -0.723593
v -0.282331 0.119900 0.681610
v 0.409883 0.119900 0.613432
v 0.000000 0.119900 -0.737769
v -0.409881 0.119900 0.613433
v 0.282332 0.119900 0.681610
v 0.143931 0.119900 -0.723593
v -0.521681 0.119900 0.521683
v 0.143931 0.119900 0.723593
v 0.282332 0.119900 -0.681610
v -0.613432 0.119900 0.409883
vn -0.4305 -0.6322 0.6442
vn -0.5479 -0.6322 0.5479
vn -0.0000 -1.0000 -0.0000
vn -0.2965 -0.6322 0.7159
vn -0.7547 0.4197 0.5043
vn -0.8386 0.4197 0.3473
vn -0.7158 -0.6322 0.2965
vn -0.6442 -0.6322 0.4305
vn 0.4305 -0.6322 -0.6442
vn 0.5479 -0.6322 -0.5479
vn 0.2965 -0.6322 -0.7158
vn -0.4817 0.8711 -0.0958
vn -0.4911 0.8711 -0.0000
vn -0.0000 1.0000 -0.0000
vn -0.4538 0.8711 -0.1880
vn 0.4084 0.8711 -0.2729
vn 0.3473 0.8711 -0.3473
vn 0.4538 0.8711 -0.1880
vn 0.2729 0.8711 -0.4084
vn 0.1880 0.8711 -0.4538
vn -0.4084 0.8711 0.2729
vn -0.3473 0.8711 0.3473
vn -0.4538 0.8711 0.1880
vn 0.0958 0.8711 -0.4817
vn -0.0000 0.8711 -0.4911
vn -0.2729 0.8711 0.4084
vn -0.1880 0.8711 0.4538
vn 0.2729 0.8711 0.4084
vn 0.3473 0.8711 0.3473
vn 0.1879 0.8711 0.4537
vn -0.0958 0.8711 -0.4817
vn -0.1880 0.8711 -0.4538
vn -0.0958 0.8711 0.4817
vn -0.0000 0.8711 0.4911
vn 0.4084 0.8711 0.2729
vn 0.4537 0.8711 0.1879
vn -0.2729 0.8711 -0.4084
vn -0.3473 0.8711 -0.3473
vn 0.0958 0.8711 0.4817
vn 0.4817 0.8711 0.0958
vn 0.4911 0.8711 -0.0000
vn -0.4084 0.8711 -0.2729
vn -0.7599 -0.6322 0.1512
vn -0.7748 -0.6322 -0.0000
vn 0.6442 -0.6322 -0.4305
vn 0.7158 -0.6322 -0.2965
vn -0.7600 -0.6322 -0.1512
vn -0.7158 -0.6322 -0.2965
vn 0.7600 -0.6322 -0.1512
vn 0.7748 -0.6322 -0.0000
vn -0.6442 -0.6322 -0.4305
vn -0.5479 -0.6322 -0.5479
vn 0.7600 -0.6322 0.1512
vn 0.7158 -0.6322 0.2965
vn 0.1512 -0.6322 0.7600
vn -0.0000 -0.6322 0.7748
vn 0.2965 -0.6322 0.7158
vn -0.4305 -0.6322 -0.6443
vn -0.2965 -0.6322 -0.7158
vn 0.6442 -0.6322 0.4305
vn 0.5479 -0.6322 0.5479
vn -0.1512 -0.6321 0.7600
vn 0.4305 -0.6322 0.6442
vn 0.1512 -0.6322 -0.7600
vn -0.0000 -0.6322 -0.7748
vn -0.4817 0.8711 0.0958
vn 0.4817 0.8711 -0.0958
vn -0.1512 -0.6322 -0.7599
vn 0.3473 0.4197 -0.8386
vn 0.5043 0.4197 -0.7547
vn 0.1771 0.4197 0.8902
vn -0.0000 0.4197 0.9076
vn -0.6418 0.4197 0.6418
vn 0.1771 0.4197 -0.8902
vn 0.3473 0.4197 0.8386
vn -0.5043 0.4197 0.7547
vn -0.0000 0.4197 -0.9076
vn 0.5043 0.4197 0.7547
vn -0.3473 0.4197 0.8386
vn -0.1771 0.4197 -0.8902
vn 0.6418 0.4197 0.6418
vn -0.1771 0.4197 0.8902
vn -0.3473 0.4197 -0.8386
vn 0.7547 0.4197 0.5043
vn -0.0000 0.4207 0.9072
vn -0.1770 0.4207 0.8898
vn -0.5043 0.4197 -0.7547
vn 0.8386 0.4197 0.3473
vn -0.6418 0.4197 -0.6418
vn 0.8902 0.4197 0.1771
vn -0.7547 0.4197 -0.5043
vn 0.9076 0.4197 -0.0000
vn -0.8386 0.4197 -0.3473
vn 0.8902 0.4197 -0.1771
vn -0.8902 0.4197 -0.1771
vn 0.8386 0.4197 -0.3473
vn -0.9076 0.4197 -0.0000
vn 0.7547 0.4197 -0.5043
vn -0.8902 0.4197 0.1771
vn 0.6418 0.4197 -0.6418
vn -0.8382 0.4207 0.3472
vn -0.8898 0.4207 0.1770
vn 0.5040 0.4207 -0.7543
vn 0.6415 0.4207 -0.6415
vn 0.7543 0.4207 -0.5040
vn -0.9072 0.4207 -0.0000
vn 0.8382 0.4207 -0.3472
vn -0.8898 0.4207 -0.1770
vn 0.8898 0.4207 -0.1770
vn -0.8382 0.4207 -0.3472
vn 0.9072 0.4207 -0.0000
vn -0.7543 0.4207 -0.5040
vn 0.8898 0.4207 0.1770
vn -0.6415 0.4206 -0.6415
vn 0.8381 0.4207 0.3472
vn -0.5040 0.4206 -0.7543
vn 0.7543 0.4207 0.5040
vn -0.3472 0.4207 -0.8382
vn 0.6415 0.4207 0.6415
vn -0.1770 0.4207 -0.8898
vn -0.3472 0.4207 0.8382
vn 0.5040 0.4207 0.7543
vn -0.0000 0.4207 -0.9072
vn -0.5040 0.4207 0.7543
vn 0.3472 0.4207 0.8381
vn 0.1770 0.4207 -0.8898
vn -0.6415 0.4207 0.6415
vn 0.1770 0.4207 0.8898
vn 0.3472 0.4207 -0.8382
vn -0.7543 0.4207 0.5040
vt 0.500005 0.499990
vt 0.500006 0.500000
vt 0.500006 0.499990
vt 0.499996 0.499991
vt 0.499997 0.499992
vt 0.500006 0.500010
vt 0.500007 0.500010
vt 0.500005 0.500010
vt 0.499998 0.499997
vt 0.499998 0.499996
vt 0.499994 0.500000
vt 0.499998 0.499999
vt 0.499992 0.500008
vt 0.499993 0.500009
vt 0.499992 0.500007
vt 0.499994 0.500009
vt 0.499996 0.499992
vt 0.499995 0.499991
vt 0.499997 0.499993
vt 0.499995 0.500009
vt 0.499996 0.500008
vt 0.499994 0.499991
vt 0.499991 0.499996
vt 0.499990 0.499997
vt 0.499991 0.499994
vt 0.499997 0.500007
vt 0.499997 0.500006
vt 0.499993 0.499991
vt 0.499992 0.499992
vt 0.499990 0.499999
vt 0.499990 0.500001
vt 0.499998 0.500004
vt 0.499998 0.500003
vt 0.499992 0.499993
vt 0.499990 0.500003
vt 0.499991 0.500004
vt 0.499998 0.500001
vt 0.500003 0.499994
vt 0.500002 0.499995
vt 0.500008 0.500009
vt 0.500009 0.500008
vt 0.500002 0.499997
vt 0.500002 0.499999
vt 0.500009 0.500006
vt 0.500010 0.500005
vt 0.500002 0.500001
vt 0.500002 0.500003
vt 0.500010 0.500003
vt 0.500010 0.500001
vt 0.500009 0.499992
vt 0.500008 0.499991
vt 0.500009 0.499994
vt 0.500002 0.500005
vt 0.500003 0.500006
vt 0.500010 0.499999
vt 0.500010 0.499997
vt 0.500007 0.499990
vt 0.500010 0.499995
vt 0.500004 0.500009
vt 0.499997 0.499994
vt 0.499991 0.500006
vt 0.500003 0.500008
vt 0.499995 0.500010
vt 0.499994 0.500010
vt 0.499991 0.499992
vt 0.499992 0.499991
vt 0.499995 0.499990
vt 0.499996 0.500009
vt 0.499990 0.499995
vt 0.499994 0.499990
vt 0.499997 0.500008
vt 0.499993 0.499990
vt 0.499998 0.500005
vt 0.499990 0.500005
vt 0.499991 0.500008
vt 0.499998 0.499995
vt 0.499992 0.500009
vt 0.499993 0.500010
s 1
usemtl None.004
f 1/1/1 2/1/2 3/2/3 4/3/4
f 5/4/5 6/5/6 7/5/7 8/4/8
f 9/6/9 10/7/10 3/2/3 11/8/11
f 12/9/12 13/10/13 14/11/14 15/12/15
f 16/13/16 17/14/17 14/11/14 18/15/18
f 19/16/19 20/16/20 14/11/14 17/14/17
f 21/17/21 22/18/22 14/11/14 23/19/23
f 24/20/24 25/21/25 14/11/14 20/16/20
f 26/22/26 27/22/27 14/11/14 22/18/22
f 28/23/28 29/24/29 14/11/14 30/25/30
f 31/26/31 32/27/32 14/11/14 25/21/25
f 33/28/33 34/29/34 14/11/14 27/22/27
f 35/30/35 36/31/36 14/11/14 29/24/29
f 37/32/37 38/33/38 14/11/14 32/27/32
f 39/34/39 30/25/30 14/11/14 34/29/34
f 36/31/36 40/35/40 41/36/41 14/11/14
f 38/33/38 42/37/42 15/12/15 14/11/14
f 2/1/2 8/4/8 7/5/7 3/2/3
f 7/5/7 43/38/43 44/39/44 3/2/3
f 45/40/45 46/41/46 3/2/3 10/7/10
f 47/42/47 48/43/48 3/2/3 44/39/44
f 49/44/49 50/45/50 3/2/3 46/41/46
f 51/46/51 52/47/52 3/2/3 48/43/48
f 53/48/53 54/49/54 3/2/3 50/45/50
f 55/50/55 56/51/56 3/2/3 57/52/57
f 58/53/58 59/54/59 3/2/3 52/47/52
f 60/55/60 61/56/61 3/2/3 54/49/54
f 62/57/62 4/3/4 3/2/3 56/51/56
f 63/58/63 57/52/57 3/2/3 61/56/61
f 64/8/64 11/8/11 3/2/3 65/59/65
f 66/60/66 23/19/23 14/11/14 13/10/13
f 67/61/67 18/15/18 14/11/14 41/36/41
f 68/62/68 65/59/65 3/2/3 59/54/59
f 69/63/69 70/64/70 9/6/9 11/8/11
f 71/65/71 72/66/72 56/51/56 55/50/55
f 73/67/73 5/4/5 8/4/8 2/1/2
f 74/63/74 69/63/69 11/8/11 64/8/64
f 75/25/75 71/65/71 55/50/55 57/52/57
f 76/67/76 73/67/73 2/1/2 1/1/1
f 77/68/77 74/63/74 64/8/64 65/59/65
f 78/69/78 75/25/75 57/52/57 63/58/63
f 79/70/79 76/67/76 1/1/1 4/3/4
f 80/71/80 77/68/77 65/59/65 68/62/68
f 81/24/81 78/69/78 63/58/63 61/56/61
f 82/72/82 79/70/79 4/3/4 62/57/62
f 83/27/83 80/71/80 68/62/68 59/54/59
f 84/30/84 81/24/81 61/56/61 60/55/60
f 85/29/85 34/29/34 33/28/33 86/28/86
f 87/73/87 83/27/83 59/54/59 58/53/58
f 88/31/88 84/30/84 60/55/60 54/49/54
f 89/33/89 87/73/87 58/53/58 52/47/52
f 90/35/90 88/31/88 54/49/54 53/48/53
f 91/37/91 89/33/89 52/47/52 51/46/51
f 92/74/92 90/35/90 53/48/53 50/45/50
f 93/12/93 91/37/91 51/46/51 48/43/48
f 94/61/94 92/74/92 50/45/50 49/44/49
f 95/9/95 93/12/93 48/43/48 47/42/47
f 96/75/96 94/61/94 49/44/49 46/41/46
f 97/76/97 95/9/95 47/42/47 44/39/44
f 98/77/98 96/75/96 46/41/46 45/40/45
f 99/60/99 97/76/97 44/39/44 43/38/43
f 100/78/100 98/77/98 45/40/45 10/7/10
f 101/19/101 23/19/23 66/60/66 102/60/102
f 103/16/103 19/16/19 17/14/17 104/14/104
f 70/64/70 103/16/103 104/14/104 100/78/100
f 6/5/6 101/19/101 102/60/102 99/60/99
f 17/14/17 16/13/16 105/13/105 104/14/104
f 66/60/66 13/10/13 106/10/106 102/60/102
f 16/13/16 18/15/18 107/15/107 105/13/105
f 13/10/13 12/9/12 108/9/108 106/10/106
f 18/15/18 67/61/67 109/61/109 107/15/107
f 12/9/12 15/12/15 110/12/110 108/9/108
f 67/61/67 41/36/41 111/36/111 109/61/109
f 15/12/15 42/37/42 112/37/112 110/12/110
f 41/36/41 40/35/40 113/35/113 111/36/111
f 42/37/42 38/33/38 114/33/114 112/37/112
f 40/35/40 36/31/36 115/31/115 113/35/113
f 38/33/38 37/32/37 116/32/116 114/33/114
f 36/31/36 35/30/35 117/30/117 115/31/115
f 37/32/37 32/27/32 118/27/118 116/32/116
f 72/66/72 85/29/85 86/28/86 82/72/82
f 35/30/35 29/24/29 119/24/119 117/30/117
f 32/27/32 31/26/31 120/26/120 118/27/118
f 33/28/33 27/22/27 121/22/121 86/28/86
f 29/24/29 28/23/28 122/23/122 119/24/119
f 31/26/31 25/21/25 123/21/123 120/26/120
f 27/22/27 26/22/26 124/18/124 121/22/121
f 28/23/28 30/25/30 125/25/125 122/23/122
f 25/21/25 24/20/24 126/20/126 123/21/123
f 26/22/26 22/18/22 127/18/127 124/18/124
f 30/25/30 39/34/39 128/34/128 125/25/125
f 24/20/24 20/16/20 129/20/129 126/20/126
f 22/18/22 21/17/21 130/17/130 127/18/127
f 39/34/39 34/29/34 85/29/85 128/34/128
f 20/16/20 19/16/19 103/16/103 129/20/129
f 21/17/21 23/19/23 101/19/101 130/17/130
f 56/51/56 72/66/72 82/72/82 62/57/62
f 7/5/7 6/5/6 99/60/99 43/38/43
f 9/6/9 70/64/70 100/78/100 10/7/10
f 104/14/104 105/13/105 98/77/98 100/78/100
f 102/60/102 106/10/106 97/76/97 99/60/99
f 105/13/105 107/15/107 96/75/96 98/77/98
f 106/10/106 108/9/108 95/9/95 97/76/97
f 107/15/107 109/61/109 94/61/94 96/75/96
f 108/9/108 110/12/110 93/12/93 95/9/95
f 109/61/109 111/36/111 92/74/92 94/61/94
f 110/12/110 112/37/112 91/37/91 93/12/93
f 111/36/111 113/35/113 90/35/90 92/74/92
f 112/37/112 114/33/114 89/33/89 91/37/91
f 113/35/113 115/31/115 88/31/88 90/35/90
f 114/33/114 116/32/116 87/73/87 89/33/89
f 115/31/115 117/30/117 84/30/84 88/31/88
f 116/32/116 118/27/118 83/27/83 87/73/87
f 117/30/117 119/24/119 81/24/81 84/30/84
f 118/27/118 120/26/120 80/71/80 83/27/83
f 86/28/86 121/22/121 79/70/79 82/72/82
f 119/24/119 122/23/122 78/69/78 81/24/81
f 120/26/120 123/21/123 77/68/77 80/71/80
f 121/22/121 124/18/124 76/67/76 79/70/79
f 122/23/122 125/25/125 75/25/75 78/69/78
f 123/21/123 126/20/126 74/63/74 77/68/77
f 124/18/124 127/18/127 73/67/73 76/67/76
f 125/25/125 128/34/128 71/65/71 75/25/75
f 126/20/126 129/20/129 69/63/69 74/63/74
f 127/18/127 130/17/130 5/4/5 73/67/73
f 128/34/128 85/29/85 72/66/72 71/65/71
f 129/20/129 103/16/103 70/64/70 69/63/69
f 130/17/130 101/19/101 6/5/6 5/4/5
