v 0.053784 0.13 1.026269
v 0.106656 0.142679 1.014767
v 0.0 0.142679 1.020357
v 0.160764 0.13 1.015025
v 0.052738 0.15 1.006296
v 0.157635 0.15 0.995271
v 0.212144 0.142679 0.998059
v 0.265982 0.13 0.99266
v 0.260806 0.15 0.973341
v 0.315308 0.142679 0.970417
v 0.368287 0.13 0.959419
v 0.361119 0.15 0.940748
v 0.415016 0.142679 0.932142
v 0.466556 0.13 0.915667
v 0.457476 0.15 0.897847
v 0.510178 0.142679 0.883655
v 0.559713 0.13 0.861883
v 0.54882 0.15 0.845109
v 0.599751 0.142679 0.825486
v 0.646738 0.13 0.798655
v 0.634152 0.15 0.783112
v 0.682752 0.142679 0.758273
v 0.726677 0.13 0.726677
v 0.712535 0.15 0.712535
v 0.758273 0.142679 0.682752
v 0.798655 0.13 0.646738
v 0.783112 0.15 0.634152
v 0.825486 0.142679 0.599751
v 0.861883 0.13 0.559713
v 0.845109 0.15 0.54882
v 0.883655 0.142679 0.510178
v 0.915667 0.13 0.466556
v 0.897847 0.15 0.457476
v 0.932142 0.142679 0.415016
v 0.959419 0.13 0.368287
v 0.940748 0.15 0.361119
v 0.970417 0.142679 0.315308
v 0.99266 0.13 0.265982
v 0.973341 0.15 0.260806
v 0.998059 0.142679 0.212144
v 1.015025 0.13 0.160764
v 0.995271 0.15 0.157635
v 1.014767 0.142679 0.106656
v 1.026269 0.13 0.053784
v 1.006296 0.15 0.052738
v 1.020357 0.142679 0.0
v 1.026269 0.13 -0.053784
v 1.006296 0.15 -0.052738
v 1.014767 0.142679 -0.106656
v 1.015025 0.13 -0.160764
v 0.995271 0.15 -0.157635
v 0.998059 0.142679 -0.212144
v 0.99266 0.13 -0.265982
v 0.973341 0.15 -0.260806
v 0.970417 0.142679 -0.315308
v 0.959419 0.13 -0.368287
v 0.940748 0.15 -0.361119
v 0.932142 0.142679 -0.415016
v 0.915667 0.13 -0.466556
v 0.897847 0.15 -0.457476
v 0.883655 0.142679 -0.510178
v 0.861883 0.13 -0.559713
v 0.845109 0.15 -0.54882
v 0.825486 0.142679 -0.599751
v 0.798655 0.13 -0.646738
v 0.783112 0.15 -0.634152
v 0.758273 0.142679 -0.682752
v 0.726677 0.13 -0.726677
v 0.712535 0.15 -0.712535
v 0.682752 0.142679 -0.758273
v 0.646738 0.13 -0.798655
v 0.634152 0.15 -0.783112
v 0.599751 0.142679 -0.825486
v 0.559713 0.13 -0.861883
v 0.54882 0.15 -0.845109
v 0.510178 0.142679 -0.883655
v 0.466556 0.13 -0.915667
v 0.457476 0.15 -0.897847
v 0.415016 0.142679 -0.932142
v 0.368287 0.13 -0.959419
v 0.361119 0.15 -0.940748
v 0.315308 0.142679 -0.970417
v 0.265982 0.13 -0.99266
v 0.260806 0.15 -0.973341
v 0.212144 0.142679 -0.998059
v 0.160764 0.13 -1.015025
v 0.157635 0.15 -0.995271
v 0.106656 0.142679 -1.014767
v 0.053784 0.13 -1.026269
v 0.052738 0.15 -1.006296
v 0.0 0.142679 -1.020357
v -0.053784 0.13 -1.026269
v -0.052738 0.15 -1.006296
v -0.106656 0.142679 -1.014767
v -0.160764 0.13 -1.015025
v -0.157635 0.15 -0.995271
v -0.212144 0.142679 -0.998059
v -0.265982 0.13 -0.99266
v -0.260806 0.15 -0.973341
v -0.315308 0.142679 -0.970417
v -0.368287 0.13 -0.959419
v -0.361119 0.15 -0.940748
v -0.415016 0.142679 -0.932142
v -0.466556 0.13 -0.915667
v -0.457476 0.15 -0.897847
v -0.510178 0.142679 -0.883655
v -0.559713 0.13 -0.861883
v -0.54882 0.15 -0.845109
v -0.599751 0.142679 -0.825486
v -0.646738 0.13 -0.798655
v -0.634152 0.15 -0.783112
v -0.682752 0.142679 -0.758273
v -0.726677 0.13 -0.726677
v -0.712535 0.15 -0.712535
v -0.758273 0.142679 -0.682752
v -0.798655 0.13 -0.646738
v -0.783112 0.15 -0.634152
v -0.825486 0.142679 -0.599751
v -0.861883 0.13 -0.559713
v -0.845109 0.15 -0.54882
v -0.883655 0.142679 -0.510178
v -0.915667 0.13 -0.466556
v -0.897847 0.15 -0.457476
v -0.932142 0.142679 -0.415016
v -0.959419 0.13 -0.368287
v -0.940748 0.15 -0.361119
v -0.970417 0.142679 -0.315308
v -0.99266 0.13 -0.265982
v -0.973341 0.15 -0.260806
v -0.998059 0.142679 -0.212144
v -1.015025 0.13 -0.160764
v -0.995271 0.15 -0.157635
v -1.014767 0.142679 -0.106656
v -1.026269 0.13 -0.053784
v -1.006296 0.15 -0.052738
v -1.020357 0.142679 -0.0
v -1.026269 0.13 0.053784
v -1.006296 0.15 0.052738
v -1.014767 0.142679 0.106656
v -1.015025 0.13 0.160764
v -0.995271 0.15 0.157635
v -0.998059 0.142679 0.212144
v -0.99266 0.13 0.265982
v -0.973341 0.15 0.260806
v -0.970417 0.142679 0.315308
v -0.959419 0.13 0.368287
v -0.940748 0.15 0.361119
v -0.932142 0.142679 0.415016
v -0.915667 0.13 0.466556
v -0.897847 0.15 0.457476
v -0.883655 0.142679 0.510178
v -0.861883 0.13 0.559713
v -0.845109 0.15 0.54882
v -0.825486 0.142679 0.599751
v -0.798655 0.13 0.646738
v -0.783112 0.15 0.634152
v -0.758273 0.142679 0.682752
v -0.726677 0.13 0.726677
v -0.712535 0.15 0.712535
v -0.682752 0.142679 0.758273
v -0.646738 0.13 0.798655
v -0.634152 0.15 0.783112
v -0.599751 0.142679 0.825486
v -0.559713 0.13 0.861883
v -0.54882 0.15 0.845109
v -0.510178 0.142679 0.883655
v -0.466556 0.13 0.915667
v -0.457476 0.15 0.897847
v -0.415016 0.142679 0.932142
v -0.368287 0.13 0.959419
v -0.361119 0.15 0.940748
v -0.315308 0.142679 0.970417
v -0.265982 0.13 0.99266
v -0.260806 0.15 0.973341
v -0.212144 0.142679 0.998059
v -0.160764 0.13 1.015025
v -0.157635 0.15 0.995271
v -0.106656 0.142679 1.014767
v -0.053784 0.13 1.026269
v -0.052738 0.15 1.006296

vt 0.526168 0.000685
vt 0.551526 0.00976
vt 0.5 0.00706
vt 0.578217 0.006156
vt 0.525429 0.014785
vt 0.576009 0.020101
vt 0.602488 0.017832
vt 0.62941 0.017037
vt 0.625755 0.030675
vt 0.652327 0.031186
vt 0.679184 0.03321
vt 0.674124 0.046391
vt 0.700497 0.049677
vt 0.726995 0.054497
vt 0.720585 0.067077
vt 0.74647 0.073101
vt 0.77232 0.080665
vt 0.76463 0.092506
vt 0.789743 0.101203
vt 0.81466 0.111427
vt 0.805775 0.1224
vt 0.829842 0.133674
vt 0.853553 0.146447
vt 0.84357 0.15643
vt 0.866326 0.170158
vt 0.888573 0.18534
vt 0.8776 0.194225
vt 0.898797 0.210257
vt 0.919335 0.22768
vt 0.907494 0.23537
vt 0.926899 0.25353
vt 0.945503 0.273005
vt 0.932923 0.279415
vt 0.950323 0.299503
vt 0.96679 0.320816
vt 0.953609 0.325876
vt 0.968814 0.347673
vt 0.982963 0.37059
vt 0.969325 0.374245
vt 0.982168 0.397512
vt 0.993844 0.421783
vt 0.979899 0.423991
vt 0.99024 0.448474
vt 0.999315 0.473832
vt 0.985215 0.474571
vt 0.99294 0.5
vt 0.999315 0.526168
vt 0.985215 0.525429
vt 0.99024 0.551526
vt 0.993844 0.578217
vt 0.979899 0.576009
vt 0.982168 0.602488
vt 0.982963 0.62941
vt 0.969325 0.625755
vt 0.968814 0.652327
vt 0.96679 0.679184
vt 0.953609 0.674124
vt 0.950323 0.700497
vt 0.945503 0.726995
vt 0.932923 0.720585
vt 0.926899 0.74647
vt 0.919335 0.77232
vt 0.907494 0.76463
vt 0.898797 0.789743
vt 0.888573 0.81466
vt 0.8776 0.805775
vt 0.866326 0.829842
vt 0.853553 0.853553
vt 0.84357 0.84357
vt 0.829842 0.866326
vt 0.81466 0.888573
vt 0.805775 0.8776
vt 0.789743 0.898797
vt 0.77232 0.919335
vt 0.76463 0.907494
vt 0.74647 0.926899
vt 0.726995 0.945503
vt 0.720585 0.932923
vt 0.700497 0.950323
vt 0.679184 0.96679
vt 0.674124 0.953609
vt 0.652327 0.968814
vt 0.62941 0.982963
vt 0.625755 0.969325
vt 0.602488 0.982168
vt 0.578217 0.993844
vt 0.576009 0.979899
vt 0.551526 0.99024
vt 0.526168 0.999315
vt 0.525429 0.985215
vt 0.5 0.99294
vt 0.473832 0.999315
vt 0.474571 0.985215
vt 0.448474 0.99024
vt 0.421783 0.993844
vt 0.423991 0.979899
vt 0.397512 0.982168
vt 0.37059 0.982963
vt 0.374245 0.969325
vt 0.347673 0.968814
vt 0.320816 0.96679
vt 0.325876 0.953609
vt 0.299503 0.950323
vt 0.273005 0.945503
vt 0.279415 0.932923
vt 0.25353 0.926899
vt 0.22768 0.919335
vt 0.23537 0.907494
vt 0.210257 0.898797
vt 0.18534 0.888573
vt 0.194225 0.8776
vt 0.170158 0.866326
vt 0.146447 0.853553
vt 0.15643 0.84357
vt 0.133674 0.829842
vt 0.111427 0.81466
vt 0.1224 0.805775
vt 0.101203 0.789743
vt 0.080665 0.77232
vt 0.092506 0.76463
vt 0.073101 0.74647
vt 0.054497 0.726995
vt 0.067077 0.720585
vt 0.049677 0.700497
vt 0.03321 0.679184
vt 0.046391 0.674124
vt 0.031186 0.652327
vt 0.017037 0.62941
vt 0.030675 0.625755
vt 0.017832 0.602488
vt 0.006156 0.578217
vt 0.020101 0.576009
vt 0.00976 0.551526
vt 0.000685 0.526168
vt 0.014785 0.525429
vt 0.00706 0.5
vt 0.000685 0.473832
vt 0.014785 0.474571
vt 0.00976 0.448474
vt 0.006156 0.421783
vt 0.020101 0.423991
vt 0.017832 0.397512
vt 0.017037 0.37059
vt 0.030675 0.374245
vt 0.031186 0.347673
vt 0.03321 0.320816
vt 0.046391 0.325876
vt 0.049677 0.299503
vt 0.054497 0.273005
vt 0.067077 0.279415
vt 0.073101 0.25353
vt 0.080665 0.22768
vt 0.092506 0.23537
vt 0.101203 0.210257
vt 0.111427 0.18534
vt 0.1224 0.194225
vt 0.133674 0.170158
vt 0.146447 0.146447
vt 0.15643 0.15643
vt 0.170158 0.133674
vt 0.18534 0.111427
vt 0.194225 0.1224
vt 0.210257 0.101203
vt 0.22768 0.080665
vt 0.23537 0.092506
vt 0.25353 0.073101
vt 0.273005 0.054497
vt 0.279415 0.067077
vt 0.299503 0.049677
vt 0.320816 0.03321
vt 0.325876 0.046391
vt 0.347673 0.031186
vt 0.37059 0.017037
vt 0.374245 0.030675
vt 0.397512 0.017832
vt 0.421783 0.006156
vt 0.423991 0.020101
vt 0.448474 0.00976
vt 0.473832 0.000685
vt 0.474571 0.014785

vn 0.0 1.0 0.0
vn 0.073913 0.707107 0.703233
vn 0.0 0.707107 0.707107
vn 0.0 1.0 0.0
vn 0.0 1.0 0.0
vn 0.0 1.0 0.0
vn 0.147016 0.707107 0.691655
vn 0.0 1.0 0.0
vn 0.0 1.0 0.0
vn 0.218508 0.707107 0.672499
vn 0.0 1.0 0.0
vn 0.0 1.0 0.0
vn 0.287606 0.707107 0.645974
vn 0.0 1.0 0.0
vn 0.0 1.0 0.0
vn 0.353553 0.707107 0.612372
vn 0.0 1.0 0.0
vn 0.0 1.0 0.0
vn 0.415627 0.707107 0.572061
vn 0.0 1.0 0.0
vn 0.0 1.0 0.0
vn 0.473147 0.707107 0.525483
vn 0.0 1.0 0.0
vn 0.0 1.0 0.0
vn 0.525483 0.707107 0.473147
vn 0.0 1.0 0.0
vn 0.0 1.0 0.0
vn 0.572061 0.707107 0.415627
vn 0.0 1.0 0.0
vn 0.0 1.0 0.0
vn 0.612372 0.707107 0.353553
vn 0.0 1.0 0.0
vn 0.0 1.0 0.0
vn 0.645974 0.707107 0.287606
vn 0.0 1.0 0.0
vn 0.0 1.0 0.0
vn 0.672499 0.707107 0.218508
vn 0.0 1.0 0.0
vn 0.0 1.0 0.0
vn 0.691655 0.707107 0.147016
vn 0.0 1.0 0.0
vn 0.0 1.0 0.0
vn 0.703233 0.707107 0.073913
vn 0.0 1.0 0.0
vn 0.0 1.0 0.0
vn 0.707107 0.707107 0.0
vn 0.0 1.0 -0.0
vn 0.0 1.0 -0.0
vn 0.703233 0.707107 -0.073913
vn 0.0 1.0 -0.0
vn 0.0 1.0 -0.0
vn 0.691655 0.707107 -0.147016
vn 0.0 1.0 -0.0
vn 0.0 1.0 -0.0
vn 0.672499 0.707107 -0.218508
vn 0.0 1.0 -0.0
vn 0.0 1.0 -0.0
vn 0.645974 0.707107 -0.287606
vn 0.0 1.0 -0.0
vn 0.0 1.0 -0.0
vn 0.612372 0.707107 -0.353553
vn 0.0 1.0 -0.0
vn 0.0 1.0 -0.0
vn 0.572061 0.707107 -0.415627
vn 0.0 1.0 -0.0
vn 0.0 1.0 -0.0
vn 0.525483 0.707107 -0.473147
vn 0.0 1.0 -0.0
vn 0.0 1.0 -0.0
vn 0.473147 0.707107 -0.525483
vn 0.0 1.0 -0.0
vn 0.0 1.0 -0.0
vn 0.415627 0.707107 -0.572061
vn 0.0 1.0 -0.0
vn 0.0 1.0 -0.0
vn 0.353553 0.707107 -0.612372
vn 0.0 1.0 -0.0
vn 0.0 1.0 -0.0
vn 0.287606 0.707107 -0.645974
vn 0.0 1.0 -0.0
vn 0.0 1.0 -0.0
vn 0.218508 0.707107 -0.672499
vn 0.0 1.0 -0.0
vn 0.0 1.0 -0.0
vn 0.147016 0.707107 -0.691655
vn 0.0 1.0 -0.0
vn 0.0 1.0 -0.0
vn 0.073913 0.707107 -0.703233
vn 0.0 1.0 -0.0
vn 0.0 1.0 -0.0
vn 0.0 0.707107 -0.707107
vn -0.0 1.0 -0.0
vn -0.0 1.0 -0.0
vn -0.073913 0.707107 -0.703233
vn -0.0 1.0 -0.0
vn -0.0 1.0 -0.0
vn -0.147016 0.707107 -0.691655
vn -0.0 1.0 -0.0
vn -0.0 1.0 -0.0
vn -0.218508 0.707107 -0.672499
vn -0.0 1.0 -0.0
vn -0.0 1.0 -0.0
vn -0.287606 0.707107 -0.645974
vn -0.0 1.0 -0.0
vn -0.0 1.0 -0.0
vn -0.353553 0.707107 -0.612372
vn -0.0 1.0 -0.0
vn -0.0 1.0 -0.0
vn -0.415627 0.707107 -0.572061
vn -0.0 1.0 -0.0
vn -0.0 1.0 -0.0
vn -0.473147 0.707107 -0.525483
vn -0.0 1.0 -0.0
vn -0.0 1.0 -0.0
vn -0.525483 0.707107 -0.473147
vn -0.0 1.0 -0.0
vn -0.0 1.0 -0.0
vn -0.572061 0.707107 -0.415627
vn -0.0 1.0 -0.0
vn -0.0 1.0 -0.0
vn -0.612372 0.707107 -0.353553
vn -0.0 1.0 -0.0
vn -0.0 1.0 -0.0
vn -0.645974 0.707107 -0.287606
vn -0.0 1.0 -0.0
vn -0.0 1.0 -0.0
vn -0.672499 0.707107 -0.218508
vn -0.0 1.0 -0.0
vn -0.0 1.0 -0.0
vn -0.691655 0.707107 -0.147016
vn -0.0 1.0 -0.0
vn -0.0 1.0 -0.0
vn -0.703233 0.707107 -0.073913
vn -0.0 1.0 -0.0
vn -0.0 1.0 -0.0
vn -0.707107 0.707107 -0.0
vn -0.0 1.0 0.0
vn -0.0 1.0 0.0
vn -0.703233 0.707107 0.073913
vn -0.0 1.0 0.0
vn -0.0 1.0 0.0
vn -0.691655 0.707107 0.147016
vn -0.0 1.0 0.0
vn -0.0 1.0 0.0
vn -0.672499 0.707107 0.218508
vn -0.0 1.0 0.0
vn -0.0 1.0 0.0
vn -0.645974 0.707107 0.287606
vn -0.0 1.0 0.0
vn -0.0 1.0 0.0
vn -0.612372 0.707107 0.353553
vn -0.0 1.0 0.0
vn -0.0 1.0 0.0
vn -0.572061 0.707107 0.415627
vn -0.0 1.0 0.0
vn -0.0 1.0 0.0
vn -0.525483 0.707107 0.473147
vn -0.0 1.0 0.0
vn -0.0 1.0 0.0
vn -0.473147 0.707107 0.525483
vn -0.0 1.0 0.0
vn -0.0 1.0 0.0
vn -0.415627 0.707107 0.572061
vn -0.0 1.0 0.0
vn -0.0 1.0 0.0
vn -0.353553 0.707107 0.612372
vn -0.0 1.0 0.0
vn -0.0 1.0 0.0
vn -0.287606 0.707107 0.645974
vn -0.0 1.0 0.0
vn -0.0 1.0 0.0
vn -0.218508 0.707107 0.672499
vn -0.0 1.0 0.0
vn -0.0 1.0 0.0
vn -0.147016 0.707107 0.691655
vn -0.0 1.0 0.0
vn -0.0 1.0 0.0
vn -0.073913 0.707107 0.703233
vn -0.0 1.0 0.0
vn -0.0 1.0 0.0

f 1/1/1 2/2/2 3/3/3
f 1/1/1 4/4/4 2/2/2
f 5/5/5 3/3/3 2/2/2
f 5/5/5 2/2/2 6/6/6
f 4/4/4 7/7/7 2/2/2
f 4/4/4 8/8/8 7/7/7
f 6/6/6 2/2/2 7/7/7
f 6/6/6 7/7/7 9/9/9
f 6/6/6 9/9/9 5/5/5
f 8/8/8 10/10/10 7/7/7
f 8/8/8 11/11/11 10/10/10
f 9/9/9 7/7/7 10/10/10
f 9/9/9 10/10/10 12/12/12
f 9/9/9 12/12/12 5/5/5
f 11/11/11 13/13/13 10/10/10
f 11/11/11 14/14/14 13/13/13
f 12/12/12 10/10/10 13/13/13
f 12/12/12 13/13/13 15/15/15
f 12/12/12 15/15/15 5/5/5
f 14/14/14 16/16/16 13/13/13
f 14/14/14 17/17/17 16/16/16
f 15/15/15 13/13/13 16/16/16
f 15/15/15 16/16/16 18/18/18
f 15/15/15 18/18/18 5/5/5
f 17/17/17 19/19/19 16/16/16
f 17/17/17 20/20/20 19/19/19
f 18/18/18 16/16/16 19/19/19
f 18/18/18 19/19/19 21/21/21
f 18/18/18 21/21/21 5/5/5
f 20/20/20 22/22/22 19/19/19
f 20/20/20 23/23/23 22/22/22
f 21/21/21 19/19/19 22/22/22
f 21/21/21 22/22/22 24/24/24
f 21/21/21 24/24/24 5/5/5
f 23/23/23 25/25/25 22/22/22
f 23/23/23 26/26/26 25/25/25
f 24/24/24 22/22/22 25/25/25
f 24/24/24 25/25/25 27/27/27
f 24/24/24 27/27/27 5/5/5
f 26/26/26 28/28/28 25/25/25
f 26/26/26 29/29/29 28/28/28
f 27/27/27 25/25/25 28/28/28
f 27/27/27 28/28/28 30/30/30
f 27/27/27 30/30/30 5/5/5
f 29/29/29 31/31/31 28/28/28
f 29/29/29 32/32/32 31/31/31
f 30/30/30 28/28/28 31/31/31
f 30/30/30 31/31/31 33/33/33
f 30/30/30 33/33/33 5/5/5
f 32/32/32 34/34/34 31/31/31
f 32/32/32 35/35/35 34/34/34
f 33/33/33 31/31/31 34/34/34
f 33/33/33 34/34/34 36/36/36
f 33/33/33 36/36/36 5/5/5
f 35/35/35 37/37/37 34/34/34
f 35/35/35 38/38/38 37/37/37
f 36/36/36 34/34/34 37/37/37
f 36/36/36 37/37/37 39/39/39
f 36/36/36 39/39/39 5/5/5
f 38/38/38 40/40/40 37/37/37
f 38/38/38 41/41/41 40/40/40
f 39/39/39 37/37/37 40/40/40
f 39/39/39 40/40/40 42/42/42
f 39/39/39 42/42/42 5/5/5
f 41/41/41 43/43/43 40/40/40
f 41/41/41 44/44/44 43/43/43
f 42/42/42 40/40/40 43/43/43
f 42/42/42 43/43/43 45/45/45
f 42/42/42 45/45/45 5/5/5
f 44/44/44 46/46/46 43/43/43
f 44/44/44 47/47/47 46/46/46
f 45/45/45 43/43/43 46/46/46
f 45/45/45 46/46/46 48/48/48
f 45/45/45 48/48/48 5/5/5
f 47/47/47 49/49/49 46/46/46
f 47/47/47 50/50/50 49/49/49
f 48/48/48 46/46/46 49/49/49
f 48/48/48 49/49/49 51/51/51
f 48/48/48 51/51/51 5/5/5
f 50/50/50 52/52/52 49/49/49
f 50/50/50 53/53/53 52/52/52
f 51/51/51 49/49/49 52/52/52
f 51/51/51 52/52/52 54/54/54
f 51/51/51 54/54/54 5/5/5
f 53/53/53 55/55/55 52/52/52
f 53/53/53 56/56/56 55/55/55
f 54/54/54 52/52/52 55/55/55
f 54/54/54 55/55/55 57/57/57
f 54/54/54 57/57/57 5/5/5
f 56/56/56 58/58/58 55/55/55
f 56/56/56 59/59/59 58/58/58
f 57/57/57 55/55/55 58/58/58
f 57/57/57 58/58/58 60/60/60
f 57/57/57 60/60/60 5/5/5
f 59/59/59 61/61/61 58/58/58
f 59/59/59 62/62/62 61/61/61
f 60/60/60 58/58/58 61/61/61
f 60/60/60 61/61/61 63/63/63
f 60/60/60 63/63/63 5/5/5
f 62/62/62 64/64/64 61/61/61
f 62/62/62 65/65/65 64/64/64
f 63/63/63 61/61/61 64/64/64
f 63/63/63 64/64/64 66/66/66
f 63/63/63 66/66/66 5/5/5
f 65/65/65 67/67/67 64/64/64
f 65/65/65 68/68/68 67/67/67
f 66/66/66 64/64/64 67/67/67
f 66/66/66 67/67/67 69/69/69
f 66/66/66 69/69/69 5/5/5
f 68/68/68 70/70/70 67/67/67
f 68/68/68 71/71/71 70/70/70
f 69/69/69 67/67/67 70/70/70
f 69/69/69 70/70/70 72/72/72
f 69/69/69 72/72/72 5/5/5
f 71/71/71 73/73/73 70/70/70
f 71/71/71 74/74/74 73/73/73
f 72/72/72 70/70/70 73/73/73
f 72/72/72 73/73/73 75/75/75
f 72/72/72 75/75/75 5/5/5
f 74/74/74 76/76/76 73/73/73
f 74/74/74 77/77/77 76/76/76
f 75/75/75 73/73/73 76/76/76
f 75/75/75 76/76/76 78/78/78
f 75/75/75 78/78/78 5/5/5
f 77/77/77 79/79/79 76/76/76
f 77/77/77 80/80/80 79/79/79
f 78/78/78 76/76/76 79/79/79
f 78/78/78 79/79/79 81/81/81
f 78/78/78 81/81/81 5/5/5
f 80/80/80 82/82/82 79/79/79
f 80/80/80 83/83/83 82/82/82
f 81/81/81 79/79/79 82/82/82
f 81/81/81 82/82/82 84/84/84
f 81/81/81 84/84/84 5/5/5
f 83/83/83 85/85/85 82/82/82
f 83/83/83 86/86/86 85/85/85
f 84/84/84 82/82/82 85/85/85
f 84/84/84 85/85/85 87/87/87
f 84/84/84 87/87/87 5/5/5
f 86/86/86 88/88/88 85/85/85
f 86/86/86 89/89/89 88/88/88
f 87/87/87 85/85/85 88/88/88
f 87/87/87 88/88/88 90/90/90
f 87/87/87 90/90/90 5/5/5
f 89/89/89 91/91/91 88/88/88
f 89/89/89 92/92/92 91/91/91
f 90/90/90 88/88/88 91/91/91
f 90/90/90 91/91/91 93/93/93
f 90/90/90 93/93/93 5/5/5
f 92/92/92 94/94/94 91/91/91
f 92/92/92 95/95/95 94/94/94
f 93/93/93 91/91/91 94/94/94
f 93/93/93 94/94/94 96/96/96
f 93/93/93 96/96/96 5/5/5
f 95/95/95 97/97/97 94/94/94
f 95/95/95 98/98/98 97/97/97
f 96/96/96 94/94/94 97/97/97
f 96/96/96 97/97/97 99/99/99
f 96/96/96 99/99/99 5/5/5
f 98/98/98 100/100/100 97/97/97
f 98/98/98 101/101/101 100/100/100
f 99/99/99 97/97/97 100/100/100
f 99/99/99 100/100/100 102/102/102
f 99/99/99 102/102/102 5/5/5
f 101/101/101 103/103/103 100/100/100
f 101/101/101 104/104/104 103/103/103
f 102/102/102 100/100/100 103/103/103
f 102/102/102 103/103/103 105/105/105
f 102/102/102 105/105/105 5/5/5
f 104/104/104 106/106/106 103/103/103
f 104/104/104 107/107/107 106/106/106
f 105/105/105 103/103/103 106/106/106
f 105/105/105 106/106/106 108/108/108
f 105/105/105 108/108/108 5/5/5
f 107/107/107 109/109/109 106/106/106
f 107/107/107 110/110/110 109/109/109
f 108/108/108 106/106/106 109/109/109
f 108/108/108 109/109/109 111/111/111
f 108/108/108 111/111/111 5/5/5
f 110/110/110 112/112/112 109/109/109
f 110/110/110 113/113/113 112/112/112
f 111/111/111 109/109/109 112/112/112
f 111/111/111 112/112/112 114/114/114
f 111/111/111 114/114/114 5/5/5
f 113/113/113 115/115/115 112/112/112
f 113/113/113 116/116/116 115/115/115
f 114/114/114 112/112/112 115/115/115
f 114/114/114 115/115/115 117/117/117
f 114/114/114 117/117/117 5/5/5
f 116/116/116 118/118/118 115/115/115
f 116/116/116 119/119/119 118/118/118
f 117/117/117 115/115/115 118/118/118
f 117/117/117 118/118/118 120/120/120
f 117/117/117 120/120/120 5/5/5
f 119/119/119 121/121/121 118/118/118
f 119/119/119 122/122/122 121/121/121
f 120/120/120 118/118/118 121/121/121
f 120/120/120 121/121/121 123/123/123
f 120/120/120 123/123/123 5/5/5
f 122/122/122 124/124/124 121/121/121
f 122/122/122 125/125/125 124/124/124
f 123/123/123 121/121/121 124/124/124
f 123/123/123 124/124/124 126/126/126
f 123/123/123 126/126/126 5/5/5
f 125/125/125 127/127/127 124/124/124
f 125/125/125 128/128/128 127/127/127
f 126/126/126 124/124/124 127/127/127
f 126/126/126 127/127/127 129/129/129
f 126/126/126 129/129/129 5/5/5
f 128/128/128 130/130/130 127/127/127
f 128/128/128 131/131/131 130/130/130
f 129/129/129 127/127/127 130/130/130
f 129/129/129 130/130/130 132/132/132
f 129/129/129 132/132/132 5/5/5
f 131/131/131 133/133/133 130/130/130
f 131/131/131 134/134/134 133/133/133
f 132/132/132 130/130/130 133/133/133
f 132/132/132 133/133/133 135/135/135
f 132/132/132 135/135/135 5/5/5
f 134/134/134 136/136/136 133/133/133
f 134/134/134 137/137/137 136/136/136
f 135/135/135 133/133/133 136/136/136
f 135/135/135 136/136/136 138/138/138
f 135/135/135 138/138/138 5/5/5
f 137/137/137 139/139/139 136/136/136
f 137/137/137 140/140/140 139/139/139
f 138/138/138 136/136/136 139/139/139
f 138/138/138 139/139/139 141/141/141
f 138/138/138 141/141/141 5/5/5
f 140/140/140 142/142/142 139/139/139
f 140/140/140 143/143/143 142/142/142
f 141/141/141 139/139/139 142/142/142
f 141/141/141 142/142/142 144/144/144
f 141/141/141 144/144/144 5/5/5
f 143/143/143 145/145/145 142/142/142
f 143/143/143 146/146/146 145/145/145
f 144/144/144 142/142/142 145/145/145
f 144/144/144 145/145/145 147/147/147
f 144/144/144 147/147/147 5/5/5
f 146/146/146 148/148/148 145/145/145
f 146/146/146 149/149/149 148/148/148
f 147/147/147 145/145/145 148/148/148
f 147/147/147 148/148/148 150/150/150
f 147/147/147 150/150/150 5/5/5
f 149/149/149 151/151/151 148/148/148
f 149/149/149 152/152/152 151/151/151
f 150/150/150 148/148/148 151/151/151
f 150/150/150 151/151/151 153/153/153
f 150/150/150 153/153/153 5/5/5
f 152/152/152 154/154/154 151/151/151
f 152/152/152 155/155/155 154/154/154
f 153/153/153 151/151/151 154/154/154
f 153/153/153 154/154/154 156/156/156
f 153/153/153 156/156/156 5/5/5
f 155/155/155 157/157/157 154/154/154
f 155/155/155 158/158/158 157/157/157
f 156/156/156 154/154/154 157/157/157
f 156/156/156 157/157/157 159/159/159
f 156/156/156 159/159/159 5/5/5
f 158/158/158 160/160/160 157/157/157
f 158/158/158 161/161/161 160/160/160
f 159/159/159 157/157/157 160/160/160
f 159/159/159 160/160/160 162/162/162
f 159/159/159 162/162/162 5/5/5
f 161/161/161 163/163/163 160/160/160
f 161/161/161 164/164/164 163/163/163
f 162/162/162 160/160/160 163/163/163
f 162/162/162 163/163/163 165/165/165
f 162/162/162 165/165/165 5/5/5
f 164/164/164 166/166/166 163/163/163
f 164/164/164 167/167/167 166/166/166
f 165/165/165 163/163/163 166/166/166
f 165/165/165 166/166/166 168/168/168
f 165/165/165 168/168/168 5/5/5
f 167/167/167 169/169/169 166/166/166
f 167/167/167 170/170/170 169/169/169
f 168/168/168 166/166/166 169/169/169
f 168/168/168 169/169/169 171/171/171
f 168/168/168 171/171/171 5/5/5
f 170/170/170 172/172/172 169/169/169
f 170/170/170 173/173/173 172/172/172
f 171/171/171 169/169/169 172/172/172
f 171/171/171 172/172/172 174/174/174
f 171/171/171 174/174/174 5/5/5
f 173/173/173 175/175/175 172/172/172
f 173/173/173 176/176/176 175/175/175
f 174/174/174 172/172/172 175/175/175
f 174/174/174 175/175/175 177/177/177
f 174/174/174 177/177/177 5/5/5
f 176/176/176 178/178/178 175/175/175
f 176/176/176 179/179/179 178/178/178
f 177/177/177 175/175/175 178/178/178
f 177/177/177 178/178/178 180/180/180
f 177/177/177 180/180/180 5/5/5
f 179/179/179 3/3/3 178/178/178
f 179/179/179 1/1/1 3/3/3
f 180/180/180 178/178/178 3/3/3
f 180/180/180 3/3/3 5/5/5
