v 0.038969 0.1144 0.594546
v 0.0 0.0 0.629921
v 0.082221 0.0 0.624532
v 0.116239 0.1144 0.584373
v 0.076765 0.1248 0.58309
v 0.0 0.1248 0.588121
v 0.037602 0.13 0.57369
v 0.112162 0.13 0.563874
v 0.163036 0.0 0.608457
v 0.19152 0.1144 0.564201
v 0.152217 0.1248 0.568082
v 0.184802 0.13 0.54441
v 0.112162 0.13 0.563874
v 0.184802 0.13 0.54441
v 0.037602 0.13 0.57369
v 0.082221 0.0 0.624532
v 0.0 0.0 0.629921
v 0.163036 0.0 0.608457
v 0.24106 0.0 0.581971
v 0.263525 0.1144 0.534376
v 0.225064 0.1248 0.543353
v 0.254281 0.13 0.515631
v 0.254281 0.13 0.515631
v 0.24106 0.0 0.581971
v 0.314961 0.0 0.545528
v 0.331021 0.1144 0.495407
v 0.294061 0.1248 0.509328
v 0.319409 0.13 0.47803
v 0.319409 0.13 0.47803
v 0.314961 0.0 0.545528
v 0.383472 0.0 0.49975
v 0.392852 0.1144 0.447962
v 0.358026 0.1248 0.466588
v 0.379072 0.13 0.432249
v 0.379072 0.13 0.432249
v 0.383472 0.0 0.49975
v 0.445422 0.0 0.445422
v 0.447962 0.1144 0.392852
v 0.415865 0.1248 0.415865
v 0.432249 0.13 0.379072
v 0.432249 0.13 0.379072
v 0.445422 0.0 0.445422
v 0.49975 0.0 0.383472
v 0.495407 0.1144 0.331021
v 0.466588 0.1248 0.358026
v 0.47803 0.13 0.319409
v 0.47803 0.13 0.319409
v 0.49975 0.0 0.383472
v 0.545528 0.0 0.314961
v 0.534376 0.1144 0.263525
v 0.509328 0.1248 0.294061
v 0.515631 0.13 0.254281
v 0.515631 0.13 0.254281
v 0.545528 0.0 0.314961
v 0.581971 0.0 0.24106
v 0.564201 0.1144 0.19152
v 0.543353 0.1248 0.225064
v 0.54441 0.13 0.184802
v 0.54441 0.13 0.184802
v 0.581971 0.0 0.24106
v 0.608457 0.0 0.163036
v 0.584373 0.1144 0.116239
v 0.568082 0.1248 0.152217
v 0.563874 0.13 0.112162
v 0.563874 0.13 0.112162
v 0.608457 0.0 0.163036
v 0.624532 0.0 0.082221
v 0.594546 0.1144 0.038969
v 0.58309 0.1248 0.076765
v 0.57369 0.13 0.037602
v 0.57369 0.13 0.037602
v 0.624532 0.0 0.082221
v 0.629921 0.0 0.0
v 0.594546 0.1144 -0.038969
v 0.588121 0.1248 0.0
v 0.57369 0.13 -0.037602
v 0.57369 0.13 -0.037602
v 0.629921 0.0 0.0
v 0.624532 0.0 -0.082221
v 0.584373 0.1144 -0.116239
v 0.58309 0.1248 -0.076765
v 0.563874 0.13 -0.112162
v 0.563874 0.13 -0.112162
v 0.624532 0.0 -0.082221
v 0.608457 0.0 -0.163036
v 0.564201 0.1144 -0.19152
v 0.568082 0.1248 -0.152217
v 0.54441 0.13 -0.184802
v 0.54441 0.13 -0.184802
v 0.608457 0.0 -0.163036
v 0.581971 0.0 -0.24106
v 0.534376 0.1144 -0.263525
v 0.543353 0.1248 -0.225064
v 0.515631 0.13 -0.254281
v 0.515631 0.13 -0.254281
v 0.581971 0.0 -0.24106
v 0.545528 0.0 -0.314961
v 0.495407 0.1144 -0.331021
v 0.509328 0.1248 -0.294061
v 0.47803 0.13 -0.319409
v 0.47803 0.13 -0.319409
v 0.545528 0.0 -0.314961
v 0.49975 0.0 -0.383472
v 0.447962 0.1144 -0.392852
v 0.466588 0.1248 -0.358026
v 0.432249 0.13 -0.379072
v 0.432249 0.13 -0.379072
v 0.49975 0.0 -0.383472
v 0.445422 0.0 -0.445422
v 0.392852 0.1144 -0.447962
v 0.415865 0.1248 -0.415865
v 0.379072 0.13 -0.432249
v 0.379072 0.13 -0.432249
v 0.445422 0.0 -0.445422
v 0.383472 0.0 -0.49975
v 0.331021 0.1144 -0.495407
v 0.358026 0.1248 -0.466588
v 0.319409 0.13 -0.47803
v 0.319409 0.13 -0.47803
v 0.383472 0.0 -0.49975
v 0.314961 0.0 -0.545528
v 0.263525 0.1144 -0.534376
v 0.294061 0.1248 -0.509328
v 0.254281 0.13 -0.515631
v 0.254281 0.13 -0.515631
v 0.314961 0.0 -0.545528
v 0.24106 0.0 -0.581971
v 0.19152 0.1144 -0.564201
v 0.225064 0.1248 -0.543353
v 0.184802 0.13 -0.54441
v 0.184802 0.13 -0.54441
v 0.24106 0.0 -0.581971
v 0.163036 0.0 -0.608457
v 0.116239 0.1144 -0.584373
v 0.152217 0.1248 -0.568082
v 0.112162 0.13 -0.563874
v 0.112162 0.13 -0.563874
v 0.163036 0.0 -0.608457
v 0.082221 0.0 -0.624532
v 0.038969 0.1144 -0.594546
v 0.076765 0.1248 -0.58309
v 0.037602 0.13 -0.57369
v 0.037602 0.13 -0.57369
v 0.082221 0.0 -0.624532
v 0.0 0.0 -0.629921
v -0.038969 0.1144 -0.594546
v 0.0 0.1248 -0.588121
v -0.037602 0.13 -0.57369
v -0.037602 0.13 -0.57369
v 0.0 0.0 -0.629921
v -0.082221 0.0 -0.624532
v -0.116239 0.1144 -0.584373
v -0.076765 0.1248 -0.58309
v -0.112162 0.13 -0.563874
v -0.112162 0.13 -0.563874
v -0.082221 0.0 -0.624532
v -0.163036 0.0 -0.608457
v -0.19152 0.1144 -0.564201
v -0.152217 0.1248 -0.568082
v -0.184802 0.13 -0.54441
v -0.184802 0.13 -0.54441
v -0.163036 0.0 -0.608457
v -0.24106 0.0 -0.581971
v -0.263525 0.1144 -0.534376
v -0.225064 0.1248 -0.543353
v -0.254281 0.13 -0.515631
v -0.254281 0.13 -0.515631
v -0.24106 0.0 -0.581971
v -0.314961 0.0 -0.545528
v -0.331021 0.1144 -0.495407
v -0.294061 0.1248 -0.509328
v -0.319409 0.13 -0.47803
v -0.319409 0.13 -0.47803
v -0.314961 0.0 -0.545528
v -0.383472 0.0 -0.49975
v -0.392852 0.1144 -0.447962
v -0.358026 0.1248 -0.466588
v -0.379072 0.13 -0.432249
v -0.379072 0.13 -0.432249
v -0.383472 0.0 -0.49975
v -0.445422 0.0 -0.445422
v -0.447962 0.1144 -0.392852
v -0.415865 0.1248 -0.415865
v -0.432249 0.13 -0.379072
v -0.432249 0.13 -0.379072
v -0.445422 0.0 -0.445422
v -0.49975 0.0 -0.383472
v -0.495407 0.1144 -0.331021
v -0.466588 0.1248 -0.358026
v -0.47803 0.13 -0.319409
v -0.47803 0.13 -0.319409
v -0.49975 0.0 -0.383472
v -0.545528 0.0 -0.314961
v -0.534376 0.1144 -0.263525
v -0.509328 0.1248 -0.294061
v -0.515631 0.13 -0.254281
v -0.515631 0.13 -0.254281
v -0.545528 0.0 -0.314961
v -0.581971 0.0 -0.24106
v -0.564201 0.1144 -0.19152
v -0.543353 0.1248 -0.225064
v -0.54441 0.13 -0.184802
v -0.54441 0.13 -0.184802
v -0.581971 0.0 -0.24106
v -0.608457 0.0 -0.163036
v -0.584373 0.1144 -0.116239
v -0.568082 0.1248 -0.152217
v -0.563874 0.13 -0.112162
v -0.563874 0.13 -0.112162
v -0.608457 0.0 -0.163036
v -0.624532 0.0 -0.082221
v -0.594546 0.1144 -0.038969
v -0.58309 0.1248 -0.076765
v -0.57369 0.13 -0.037602
v -0.57369 0.13 -0.037602
v -0.624532 0.0 -0.082221
v -0.629921 0.0 -0.0
v -0.594546 0.1144 0.038969
v -0.588121 0.1248 -0.0
v -0.57369 0.13 0.037602
v -0.57369 0.13 0.037602
v -0.629921 0.0 -0.0
v -0.624532 0.0 0.082221
v -0.584373 0.1144 0.116239
v -0.58309 0.1248 0.076765
v -0.563874 0.13 0.112162
v -0.563874 0.13 0.112162
v -0.624532 0.0 0.082221
v -0.608457 0.0 0.163036
v -0.564201 0.1144 0.19152
v -0.568082 0.1248 0.152217
v -0.54441 0.13 0.184802
v -0.54441 0.13 0.184802
v -0.608457 0.0 0.163036
v -0.581971 0.0 0.24106
v -0.534376 0.1144 0.263525
v -0.543353 0.1248 0.225064
v -0.515631 0.13 0.254281
v -0.515631 0.13 0.254281
v -0.581971 0.0 0.24106
v -0.545528 0.0 0.314961
v -0.495407 0.1144 0.331021
v -0.509328 0.1248 0.294061
v -0.47803 0.13 0.319409
v -0.47803 0.13 0.319409
v -0.545528 0.0 0.314961
v -0.49975 0.0 0.383472
v -0.447962 0.1144 0.392852
v -0.466588 0.1248 0.358026
v -0.432249 0.13 0.379072
v -0.432249 0.13 0.379072
v -0.49975 0.0 0.383472
v -0.445422 0.0 0.445422
v -0.392852 0.1144 0.447962
v -0.415865 0.1248 0.415865
v -0.379072 0.13 0.432249
v -0.379072 0.13 0.432249
v -0.445422 0.0 0.445422
v -0.383472 0.0 0.49975
v -0.331021 0.1144 0.495407
v -0.358026 0.1248 0.466588
v -0.319409 0.13 0.47803
v -0.319409 0.13 0.47803
v -0.383472 0.0 0.49975
v -0.314961 0.0 0.545528
v -0.263525 0.1144 0.534376
v -0.294061 0.1248 0.509328
v -0.254281 0.13 0.515631
v -0.254281 0.13 0.515631
v -0.314961 0.0 0.545528
v -0.24106 0.0 0.581971
v -0.19152 0.1144 0.564201
v -0.225064 0.1248 0.543353
v -0.184802 0.13 0.54441
v -0.184802 0.13 0.54441
v -0.24106 0.0 0.581971
v -0.163036 0.0 0.608457
v -0.116239 0.1144 0.584373
v -0.152217 0.1248 0.568082
v -0.112162 0.13 0.563874
v -0.112162 0.13 0.563874
v -0.163036 0.0 0.608457
v -0.082221 0.0 0.624532
v -0.038969 0.1144 0.594546
v -0.076765 0.1248 0.58309
v -0.037602 0.13 0.57369
v -0.037602 0.13 0.57369
v -0.082221 0.0 0.624532


vn 0.056641 0.5 0.864171
vn 0.0 0.0 1.0
vn 0.130526 0.0 0.991445
vn 0.168953 0.5 0.849385
vn 0.065263 0.866025 0.495722
vn 0.0 0.866025 0.5
vn 0.0 1.0 0.0
vn 0.0 1.0 0.0
vn 0.258819 0.0 0.965926
vn 0.278375 0.5 0.820066
vn 0.12941 0.866025 0.482963
vn 0.0 1.0 0.0
vn 0.0 1.0 0.0
vn 0.0 1.0 0.0
vn 0.0 1.0 0.0
vn 0.0 -1.0 0.0
vn 0.0 -1.0 0.0
vn 0.0 -1.0 0.0
vn 0.382683 0.0 0.92388
vn 0.383033 0.5 0.776715
vn 0.191342 0.866025 0.46194
vn 0.0 1.0 0.0
vn 0.0 1.0 0.0
vn 0.0 -1.0 0.0
vn 0.5 0.0 0.866025
vn 0.481138 0.5 0.720074
vn 0.25 0.866025 0.433013
vn 0.0 1.0 0.0
vn 0.0 1.0 0.0
vn 0.0 -1.0 0.0
vn 0.608761 0.0 0.793353
vn 0.57101 0.5 0.651112
vn 0.304381 0.866025 0.396677
vn 0.0 1.0 0.0
vn 0.0 1.0 0.0
vn 0.0 -1.0 0.0
vn 0.707107 0.0 0.707107
vn 0.651112 0.5 0.57101
vn 0.353553 0.866025 0.353553
vn 0.0 1.0 0.0
vn 0.0 1.0 0.0
vn 0.0 -1.0 0.0
vn 0.793353 0.0 0.608761
vn 0.720074 0.5 0.481138
vn 0.396677 0.866025 0.304381
vn 0.0 1.0 0.0
vn 0.0 1.0 0.0
vn 0.0 -1.0 0.0
vn 0.866025 0.0 0.5
vn 0.776715 0.5 0.383033
vn 0.433013 0.866025 0.25
vn 0.0 1.0 0.0
vn 0.0 1.0 0.0
vn 0.0 -1.0 0.0
vn 0.92388 0.0 0.382683
vn 0.820066 0.5 0.278375
vn 0.46194 0.866025 0.191342
vn 0.0 1.0 0.0
vn 0.0 1.0 0.0
vn 0.0 -1.0 0.0
vn 0.965926 0.0 0.258819
vn 0.849385 0.5 0.168953
vn 0.482963 0.866025 0.12941
vn 0.0 1.0 0.0
vn 0.0 1.0 0.0
vn 0.0 -1.0 0.0
vn 0.991445 0.0 0.130526
vn 0.864171 0.5 0.056641
vn 0.495722 0.866025 0.065263
vn 0.0 1.0 0.0
vn 0.0 1.0 0.0
vn 0.0 -1.0 0.0
vn 1.0 0.0 0.0
vn 0.864171 0.5 -0.056641
vn 0.5 0.866025 0.0
vn 0.0 1.0 -0.0
vn 0.0 1.0 -0.0
vn 0.0 -1.0 0.0
vn 0.991445 0.0 -0.130526
vn 0.849385 0.5 -0.168953
vn 0.495722 0.866025 -0.065263
vn 0.0 1.0 -0.0
vn 0.0 1.0 -0.0
vn 0.0 -1.0 -0.0
vn 0.965926 0.0 -0.258819
vn 0.820066 0.5 -0.278375
vn 0.482963 0.866025 -0.12941
vn 0.0 1.0 -0.0
vn 0.0 1.0 -0.0
vn 0.0 -1.0 -0.0
vn 0.92388 0.0 -0.382683
vn 0.776715 0.5 -0.383033
vn 0.46194 0.866025 -0.191342
vn 0.0 1.0 -0.0
vn 0.0 1.0 -0.0
vn 0.0 -1.0 -0.0
vn 0.866025 0.0 -0.5
vn 0.720074 0.5 -0.481138
vn 0.433013 0.866025 -0.25
vn 0.0 1.0 -0.0
vn 0.0 1.0 -0.0
vn 0.0 -1.0 -0.0
vn 0.793353 0.0 -0.608761
vn 0.651112 0.5 -0.57101
vn 0.396677 0.866025 -0.304381
vn 0.0 1.0 -0.0
vn 0.0 1.0 -0.0
vn 0.0 -1.0 -0.0
vn 0.707107 0.0 -0.707107
vn 0.57101 0.5 -0.651112
vn 0.353553 0.866025 -0.353553
vn 0.0 1.0 -0.0
vn 0.0 1.0 -0.0
vn 0.0 -1.0 -0.0
vn 0.608761 0.0 -0.793353
vn 0.481138 0.5 -0.720074
vn 0.304381 0.866025 -0.396677
vn 0.0 1.0 -0.0
vn 0.0 1.0 -0.0
vn 0.0 -1.0 -0.0
vn 0.5 0.0 -0.866025
vn 0.383033 0.5 -0.776715
vn 0.25 0.866025 -0.433013
vn 0.0 1.0 -0.0
vn 0.0 1.0 -0.0
vn 0.0 -1.0 -0.0
vn 0.382683 0.0 -0.92388
vn 0.278375 0.5 -0.820066
vn 0.191342 0.866025 -0.46194
vn 0.0 1.0 -0.0
vn 0.0 1.0 -0.0
vn 0.0 -1.0 -0.0
vn 0.258819 0.0 -0.965926
vn 0.168953 0.5 -0.849385
vn 0.12941 0.866025 -0.482963
vn 0.0 1.0 -0.0
vn 0.0 1.0 -0.0
vn 0.0 -1.0 -0.0
vn 0.130526 0.0 -0.991445
vn 0.056641 0.5 -0.864171
vn 0.065263 0.866025 -0.495722
vn 0.0 1.0 -0.0
vn 0.0 1.0 -0.0
vn 0.0 -1.0 -0.0
vn 0.0 0.0 -1.0
vn -0.056641 0.5 -0.864171
vn 0.0 0.866025 -0.5
vn -0.0 1.0 -0.0
vn -0.0 1.0 -0.0
vn 0.0 -1.0 -0.0
vn -0.130526 0.0 -0.991445
vn -0.168953 0.5 -0.849385
vn -0.065263 0.866025 -0.495722
vn -0.0 1.0 -0.0
vn -0.0 1.0 -0.0
vn -0.0 -1.0 -0.0
vn -0.258819 0.0 -0.965926
vn -0.278375 0.5 -0.820066
vn -0.12941 0.866025 -0.482963
vn -0.0 1.0 -0.0
vn -0.0 1.0 -0.0
vn -0.0 -1.0 -0.0
vn -0.382683 0.0 -0.92388
vn -0.383033 0.5 -0.776715
vn -0.191342 0.866025 -0.46194
vn -0.0 1.0 -0.0
vn -0.0 1.0 -0.0
vn -0.0 -1.0 -0.0
vn -0.5 0.0 -0.866025
vn -0.481138 0.5 -0.720074
vn -0.25 0.866025 -0.433013
vn -0.0 1.0 -0.0
vn -0.0 1.0 -0.0
vn -0.0 -1.0 -0.0
vn -0.608761 0.0 -0.793353
vn -0.57101 0.5 -0.651112
vn -0.304381 0.866025 -0.396677
vn -0.0 1.0 -0.0
vn -0.0 1.0 -0.0
vn -0.0 -1.0 -0.0
vn -0.707107 0.0 -0.707107
vn -0.651112 0.5 -0.57101
vn -0.353553 0.866025 -0.353553
vn -0.0 1.0 -0.0
vn -0.0 1.0 -0.0
vn -0.0 -1.0 -0.0
vn -0.793353 0.0 -0.608761
vn -0.720074 0.5 -0.481138
vn -0.396677 0.866025 -0.304381
vn -0.0 1.0 -0.0
vn -0.0 1.0 -0.0
vn -0.0 -1.0 -0.0
vn -0.866025 0.0 -0.5
vn -0.776715 0.5 -0.383033
vn -0.433013 0.866025 -0.25
vn -0.0 1.0 -0.0
vn -0.0 1.0 -0.0
vn -0.0 -1.0 -0.0
vn -0.92388 0.0 -0.382683
vn -0.820066 0.5 -0.278375
vn -0.46194 0.866025 -0.191342
vn -0.0 1.0 -0.0
vn -0.0 1.0 -0.0
vn -0.0 -1.0 -0.0
vn -0.965926 0.0 -0.258819
vn -0.849385 0.5 -0.168953
vn -0.482963 0.866025 -0.12941
vn -0.0 1.0 -0.0
vn -0.0 1.0 -0.0
vn -0.0 -1.0 -0.0
vn -0.991445 0.0 -0.130526
vn -0.864171 0.5 -0.056641
vn -0.495722 0.866025 -0.065263
vn -0.0 1.0 -0.0
vn -0.0 1.0 -0.0
vn -0.0 -1.0 -0.0
vn -1.0 0.0 -0.0
vn -0.864171 0.5 0.056641
vn -0.5 0.866025 -0.0
vn -0.0 1.0 0.0
vn -0.0 1.0 0.0
vn -0.0 -1.0 -0.0
vn -0.991445 0.0 0.130526
vn -0.849385 0.5 0.168953
vn -0.495722 0.866025 0.065263
vn -0.0 1.0 0.0
vn -0.0 1.0 0.0
vn -0.0 -1.0 0.0
vn -0.965926 0.0 0.258819
vn -0.820066 0.5 0.278375
vn -0.482963 0.866025 0.12941
vn -0.0 1.0 0.0
vn -0.0 1.0 0.0
vn -0.0 -1.0 0.0
vn -0.92388 0.0 0.382683
vn -0.776715 0.5 0.383033
vn -0.46194 0.866025 0.191342
vn -0.0 1.0 0.0
vn -0.0 1.0 0.0
vn -0.0 -1.0 0.0
vn -0.866025 0.0 0.5
vn -0.720074 0.5 0.481138
vn -0.433013 0.866025 0.25
vn -0.0 1.0 0.0
vn -0.0 1.0 0.0
vn -0.0 -1.0 0.0
vn -0.793353 0.0 0.608761
vn -0.651112 0.5 0.57101
vn -0.396677 0.866025 0.304381
vn -0.0 1.0 0.0
vn -0.0 1.0 0.0
vn -0.0 -1.0 0.0
vn -0.707107 0.0 0.707107
vn -0.57101 0.5 0.651112
vn -0.353553 0.866025 0.353553
vn -0.0 1.0 0.0
vn -0.0 1.0 0.0
vn -0.0 -1.0 0.0
vn -0.608761 0.0 0.793353
vn -0.481138 0.5 0.720074
vn -0.304381 0.866025 0.396677
vn -0.0 1.0 0.0
vn -0.0 1.0 0.0
vn -0.0 -1.0 0.0
vn -0.5 0.0 0.866025
vn -0.383033 0.5 0.776715
vn -0.25 0.866025 0.433013
vn -0.0 1.0 0.0
vn -0.0 1.0 0.0
vn -0.0 -1.0 0.0
vn -0.382683 0.0 0.92388
vn -0.278375 0.5 0.820066
vn -0.191342 0.866025 0.46194
vn -0.0 1.0 0.0
vn -0.0 1.0 0.0
vn -0.0 -1.0 0.0
vn -0.258819 0.0 0.965926
vn -0.168953 0.5 0.849385
vn -0.12941 0.866025 0.482963
vn -0.0 1.0 0.0
vn -0.0 1.0 0.0
vn -0.0 -1.0 0.0
vn -0.130526 0.0 0.991445
vn -0.056641 0.5 0.864171
vn -0.065263 0.866025 0.495722
vn -0.0 1.0 0.0
vn -0.0 1.0 0.0
vn -0.0 -1.0 0.0

f 1//1 2//2 3//3
f 1//1 3//3 4//4
f 1//1 5//5 6//6
f 1//1 4//4 5//5
f 7//7 6//6 5//5
f 7//7 5//5 8//8
f 4//4 3//3 9//9
f 4//4 9//9 10//10
f 4//4 11//11 5//5
f 4//4 10//10 11//11
f 8//8 5//5 11//11
f 8//8 11//11 12//12
f 13//13 14//14 15//15
f 16//16 17//17 18//18
f 10//10 9//9 19//19
f 10//10 19//19 20//20
f 10//10 21//21 11//11
f 10//10 20//20 21//21
f 12//12 11//11 21//21
f 12//12 21//21 22//22
f 14//14 23//23 15//15
f 18//18 17//17 24//24
f 20//20 19//19 25//25
f 20//20 25//25 26//26
f 20//20 27//27 21//21
f 20//20 26//26 27//27
f 22//22 21//21 27//27
f 22//22 27//27 28//28
f 23//23 29//29 15//15
f 24//24 17//17 30//30
f 26//26 25//25 31//31
f 26//26 31//31 32//32
f 26//26 33//33 27//27
f 26//26 32//32 33//33
f 28//28 27//27 33//33
f 28//28 33//33 34//34
f 29//29 35//35 15//15
f 30//30 17//17 36//36
f 32//32 31//31 37//37
f 32//32 37//37 38//38
f 32//32 39//39 33//33
f 32//32 38//38 39//39
f 34//34 33//33 39//39
f 34//34 39//39 40//40
f 35//35 41//41 15//15
f 36//36 17//17 42//42
f 38//38 37//37 43//43
f 38//38 43//43 44//44
f 38//38 45//45 39//39
f 38//38 44//44 45//45
f 40//40 39//39 45//45
f 40//40 45//45 46//46
f 41//41 47//47 15//15
f 42//42 17//17 48//48
f 44//44 43//43 49//49
f 44//44 49//49 50//50
f 44//44 51//51 45//45
f 44//44 50//50 51//51
f 46//46 45//45 51//51
f 46//46 51//51 52//52
f 47//47 53//53 15//15
f 48//48 17//17 54//54
f 50//50 49//49 55//55
f 50//50 55//55 56//56
f 50//50 57//57 51//51
f 50//50 56//56 57//57
f 52//52 51//51 57//57
f 52//52 57//57 58//58
f 53//53 59//59 15//15
f 54//54 17//17 60//60
f 56//56 55//55 61//61
f 56//56 61//61 62//62
f 56//56 63//63 57//57
f 56//56 62//62 63//63
f 58//58 57//57 63//63
f 58//58 63//63 64//64
f 59//59 65//65 15//15
f 60//60 17//17 66//66
f 62//62 61//61 67//67
f 62//62 67//67 68//68
f 62//62 69//69 63//63
f 62//62 68//68 69//69
f 64//64 63//63 69//69
f 64//64 69//69 70//70
f 65//65 71//71 15//15
f 66//66 17//17 72//72
f 68//68 67//67 73//73
f 68//68 73//73 74//74
f 68//68 75//75 69//69
f 68//68 74//74 75//75
f 70//70 69//69 75//75
f 70//70 75//75 76//76
f 71//71 77//77 15//15
f 72//72 17//17 78//78
f 74//74 73//73 79//79
f 74//74 79//79 80//80
f 74//74 81//81 75//75
f 74//74 80//80 81//81
f 76//76 75//75 81//81
f 76//76 81//81 82//82
f 77//77 83//83 15//15
f 78//78 17//17 84//84
f 80//80 79//79 85//85
f 80//80 85//85 86//86
f 80//80 87//87 81//81
f 80//80 86//86 87//87
f 82//82 81//81 87//87
f 82//82 87//87 88//88
f 83//83 89//89 15//15
f 84//84 17//17 90//90
f 86//86 85//85 91//91
f 86//86 91//91 92//92
f 86//86 93//93 87//87
f 86//86 92//92 93//93
f 88//88 87//87 93//93
f 88//88 93//93 94//94
f 89//89 95//95 15//15
f 90//90 17//17 96//96
f 92//92 91//91 97//97
f 92//92 97//97 98//98
f 92//92 99//99 93//93
f 92//92 98//98 99//99
f 94//94 93//93 99//99
f 94//94 99//99 100//100
f 95//95 101//101 15//15
f 96//96 17//17 102//102
f 98//98 97//97 103//103
f 98//98 103//103 104//104
f 98//98 105//105 99//99
f 98//98 104//104 105//105
f 100//100 99//99 105//105
f 100//100 105//105 106//106
f 101//101 107//107 15//15
f 102//102 17//17 108//108
f 104//104 103//103 109//109
f 104//104 109//109 110//110
f 104//104 111//111 105//105
f 104//104 110//110 111//111
f 106//106 105//105 111//111
f 106//106 111//111 112//112
f 107//107 113//113 15//15
f 108//108 17//17 114//114
f 110//110 109//109 115//115
f 110//110 115//115 116//116
f 110//110 117//117 111//111
f 110//110 116//116 117//117
f 112//112 111//111 117//117
f 112//112 117//117 118//118
f 113//113 119//119 15//15
f 114//114 17//17 120//120
f 116//116 115//115 121//121
f 116//116 121//121 122//122
f 116//116 123//123 117//117
f 116//116 122//122 123//123
f 118//118 117//117 123//123
f 118//118 123//123 124//124
f 119//119 125//125 15//15
f 120//120 17//17 126//126
f 122//122 121//121 127//127
f 122//122 127//127 128//128
f 122//122 129//129 123//123
f 122//122 128//128 129//129
f 124//124 123//123 129//129
f 124//124 129//129 130//130
f 125//125 131//131 15//15
f 126//126 17//17 132//132
f 128//128 127//127 133//133
f 128//128 133//133 134//134
f 128//128 135//135 129//129
f 128//128 134//134 135//135
f 130//130 129//129 135//135
f 130//130 135//135 136//136
f 131//131 137//137 15//15
f 132//132 17//17 138//138
f 134//134 133//133 139//139
f 134//134 139//139 140//140
f 134//134 141//141 135//135
f 134//134 140//140 141//141
f 136//136 135//135 141//141
f 136//136 141//141 142//142
f 137//137 143//143 15//15
f 138//138 17//17 144//144
f 140//140 139//139 145//145
f 140//140 145//145 146//146
f 140//140 147//147 141//141
f 140//140 146//146 147//147
f 142//142 141//141 147//147
f 142//142 147//147 148//148
f 143//143 149//149 15//15
f 144//144 17//17 150//150
f 146//146 145//145 151//151
f 146//146 151//151 152//152
f 146//146 153//153 147//147
f 146//146 152//152 153//153
f 148//148 147//147 153//153
f 148//148 153//153 154//154
f 149//149 155//155 15//15
f 150//150 17//17 156//156
f 152//152 151//151 157//157
f 152//152 157//157 158//158
f 152//152 159//159 153//153
f 152//152 158//158 159//159
f 154//154 153//153 159//159
f 154//154 159//159 160//160
f 155//155 161//161 15//15
f 156//156 17//17 162//162
f 158//158 157//157 163//163
f 158//158 163//163 164//164
f 158//158 165//165 159//159
f 158//158 164//164 165//165
f 160//160 159//159 165//165
f 160//160 165//165 166//166
f 161//161 167//167 15//15
f 162//162 17//17 168//168
f 164//164 163//163 169//169
f 164//164 169//169 170//170
f 164//164 171//171 165//165
f 164//164 170//170 171//171
f 166//166 165//165 171//171
f 166//166 171//171 172//172
f 167//167 173//173 15//15
f 168//168 17//17 174//174
f 170//170 169//169 175//175
f 170//170 175//175 176//176
f 170//170 177//177 171//171
f 170//170 176//176 177//177
f 172//172 171//171 177//177
f 172//172 177//177 178//178
f 173//173 179//179 15//15
f 174//174 17//17 180//180
f 176//176 175//175 181//181
f 176//176 181//181 182//182
f 176//176 183//183 177//177
f 176//176 182//182 183//183
f 178//178 177//177 183//183
f 178//178 183//183 184//184
f 179//179 185//185 15//15
f 180//180 17//17 186//186
f 182//182 181//181 187//187
f 182//182 187//187 188//188
f 182//182 189//189 183//183
f 182//182 188//188 189//189
f 184//184 183//183 189//189
f 184//184 189//189 190//190
f 185//185 191//191 15//15
f 186//186 17//17 192//192
f 188//188 187//187 193//193
f 188//188 193//193 194//194
f 188//188 195//195 189//189
f 188//188 194//194 195//195
f 190//190 189//189 195//195
f 190//190 195//195 196//196
f 191//191 197//197 15//15
f 192//192 17//17 198//198
f 194//194 193//193 199//199
f 194//194 199//199 200//200
f 194//194 201//201 195//195
f 194//194 200//200 201//201
f 196//196 195//195 201//201
f 196//196 201//201 202//202
f 197//197 203//203 15//15
f 198//198 17//17 204//204
f 200//200 199//199 205//205
f 200//200 205//205 206//206
f 200//200 207//207 201//201
f 200//200 206//206 207//207
f 202//202 201//201 207//207
f 202//202 207//207 208//208
f 203//203 209//209 15//15
f 204//204 17//17 210//210
f 206//206 205//205 211//211
f 206//206 211//211 212//212
f 206//206 213//213 207//207
f 206//206 212//212 213//213
f 208//208 207//207 213//213
f 208//208 213//213 214//214
f 209//209 215//215 15//15
f 210//210 17//17 216//216
f 212//212 211//211 217//217
f 212//212 217//217 218//218
f 212//212 219//219 213//213
f 212//212 218//218 219//219
f 214//214 213//213 219//219
f 214//214 219//219 220//220
f 215//215 221//221 15//15
f 216//216 17//17 222//222
f 218//218 217//217 223//223
f 218//218 223//223 224//224
f 218//218 225//225 219//219
f 218//218 224//224 225//225
f 220//220 219//219 225//225
f 220//220 225//225 226//226
f 221//221 227//227 15//15
f 222//222 17//17 228//228
f 224//224 223//223 229//229
f 224//224 229//229 230//230
f 224//224 231//231 225//225
f 224//224 230//230 231//231
f 226//226 225//225 231//231
f 226//226 231//231 232//232
f 227//227 233//233 15//15
f 228//228 17//17 234//234
f 230//230 229//229 235//235
f 230//230 235//235 236//236
f 230//230 237//237 231//231
f 230//230 236//236 237//237
f 232//232 231//231 237//237
f 232//232 237//237 238//238
f 233//233 239//239 15//15
f 234//234 17//17 240//240
f 236//236 235//235 241//241
f 236//236 241//241 242//242
f 236//236 243//243 237//237
f 236//236 242//242 243//243
f 238//238 237//237 243//243
f 238//238 243//243 244//244
f 239//239 245//245 15//15
f 240//240 17//17 246//246
f 242//242 241//241 247//247
f 242//242 247//247 248//248
f 242//242 249//249 243//243
f 242//242 248//248 249//249
f 244//244 243//243 249//249
f 244//244 249//249 250//250
f 245//245 251//251 15//15
f 246//246 17//17 252//252
f 248//248 247//247 253//253
f 248//248 253//253 254//254
f 248//248 255//255 249//249
f 248//248 254//254 255//255
f 250//250 249//249 255//255
f 250//250 255//255 256//256
f 251//251 257//257 15//15
f 252//252 17//17 258//258
f 254//254 253//253 259//259
f 254//254 259//259 260//260
f 254//254 261//261 255//255
f 254//254 260//260 261//261
f 256//256 255//255 261//261
f 256//256 261//261 262//262
f 257//257 263//263 15//15
f 258//258 17//17 264//264
f 260//260 259//259 265//265
f 260//260 265//265 266//266
f 260//260 267//267 261//261
f 260//260 266//266 267//267
f 262//262 261//261 267//267
f 262//262 267//267 268//268
f 263//263 269//269 15//15
f 264//264 17//17 270//270
f 266//266 265//265 271//271
f 266//266 271//271 272//272
f 266//266 273//273 267//267
f 266//266 272//272 273//273
f 268//268 267//267 273//273
f 268//268 273//273 274//274
f 269//269 275//275 15//15
f 270//270 17//17 276//276
f 272//272 271//271 277//277
f 272//272 277//277 278//278
f 272//272 279//279 273//273
f 272//272 278//278 279//279
f 274//274 273//273 279//279
f 274//274 279//279 280//280
f 275//275 281//281 15//15
f 276//276 17//17 282//282
f 278//278 277//277 283//283
f 278//278 283//283 284//284
f 278//278 285//285 279//279
f 278//278 284//284 285//285
f 280//280 279//279 285//285
f 280//280 285//285 286//286
f 281//281 287//287 15//15
f 282//282 17//17 288//288
f 284//284 283//283 2//2
f 284//284 2//2 1//1
f 284//284 6//6 285//285
f 284//284 1//1 6//6
f 286//286 285//285 6//6
f 286//286 6//6 7//7
