# Blender v2.82 (sub 7) OBJ File: 'BASE_160.blend'
# www.blender.org
mtllib BASE_160.mtl
o Circle
v 0.000000 0.000000 -3.136000
v -0.611803 0.000000 -3.075742
v -1.200095 0.000000 -2.897286
v -1.742268 0.000000 -2.607489
v -2.217487 0.000000 -2.217487
v -2.607489 0.000000 -1.742268
v -2.897286 0.000000 -1.200095
v -3.075742 0.000000 -0.611803
v -3.136000 0.000000 -0.000000
v -3.075743 0.000000 0.611803
v -2.897286 0.000000 1.200095
v -2.607489 0.000000 1.742268
v -2.217487 0.000000 2.217487
v -1.742268 0.000000 2.607489
v -1.200095 0.000000 2.897286
v -0.611803 0.000000 3.075743
v 0.000001 0.000000 3.136000
v 0.611804 0.000000 3.075742
v 1.200097 0.000000 2.897285
v 1.742270 0.000000 2.607488
v 2.217488 0.000000 2.217485
v 2.607490 0.000000 1.742266
v 2.897287 0.000000 1.200093
v 3.075743 0.000000 0.611801
v 3.136000 0.000000 -0.000003
v 3.075742 0.000000 -0.611806
v 2.897285 0.000000 -1.200099
v 2.607486 0.000000 -1.742271
v 2.217484 0.000000 -2.217489
v 1.742265 0.000000 -2.607491
v 1.200091 0.000000 -2.897288
v 0.611799 0.000000 -3.075743
v -0.000000 0.127400 -3.085321
v -0.601916 0.127400 -3.026037
v -1.180701 0.127400 -2.850465
v -1.714113 0.127400 -2.565351
v -2.181651 0.127400 -2.181651
v -2.565351 0.127400 -1.714112
v -2.850465 0.127400 -1.180701
v -3.026037 0.127400 -0.601916
v -3.085321 0.127400 -0.000000
v -3.026037 0.127400 0.601916
v -2.850465 0.127400 1.180701
v -2.565351 0.127400 1.714113
v -2.181651 0.127400 2.181651
v -1.714112 0.127400 2.565351
v -1.180701 0.127400 2.850465
v -0.601915 0.127400 3.026037
v 0.000001 0.127400 3.085321
v 0.601917 0.127400 3.026037
v 1.180702 0.127400 2.850464
v 1.714114 0.127400 2.565350
v 2.181653 0.127400 2.181650
v 2.565352 0.127400 1.714111
v 2.850466 0.127400 1.180699
v 3.026038 0.127400 0.601914
v 3.085321 0.127400 -0.000003
v 3.026037 0.127400 -0.601919
v 2.850463 0.127400 -1.180704
v 2.565349 0.127400 -1.714116
v 2.181648 0.127400 -2.181654
v 1.714109 0.127400 -2.565353
v 1.180697 0.127400 -2.850467
v 0.601912 0.127400 -3.026038
v -0.000000 0.127400 -0.000000
v -0.000000 0.000000 -0.000000
v 2.853217 0.119907 -1.181845
v -1.715768 0.119907 2.567829
v -0.000000 0.119907 -3.088301
v 2.567827 0.119907 -1.715772
v -1.181841 0.119907 2.853219
v -0.602498 0.119907 -3.028961
v 2.183756 0.119907 -2.183762
v -0.602497 0.119907 3.028961
v -1.181842 0.119907 -2.853219
v 1.715765 0.119907 -2.567832
v 0.000001 0.119907 3.088302
v -1.715769 0.119907 -2.567829
v 1.181838 0.119907 -2.853220
v 0.602499 0.119907 3.028960
v -2.183759 0.119907 -2.183759
v 0.602493 0.119907 -3.028961
v 1.181843 0.119907 2.853218
v -2.567829 0.119907 -1.715768
v 1.715770 0.119907 2.567828
v -2.853219 0.119907 -1.181842
v 2.183760 0.119907 2.183758
v -3.028961 0.119907 -0.602498
v 2.567830 0.119907 1.715767
v -3.088301 0.119907 -0.000000
v 2.853220 0.119907 1.181840
v -3.028961 0.119907 0.602497
v 3.028961 0.119907 0.602495
v -2.853219 0.119907 1.181841
v 3.088302 0.119907 -0.000003
v -2.567829 0.119907 1.715769
v 3.028960 0.119907 -0.602501
v -2.183759 0.119907 2.183759
v 2.893680 0.009809 -1.198605
v -1.740100 0.009809 2.604244
v -0.000000 0.009809 -3.132098
v 2.604242 0.009809 -1.740104
v -1.198601 0.009809 2.893682
v -0.611042 0.009809 -3.071916
v 2.214725 0.009809 -2.214731
v -0.611041 0.009809 3.071916
v -1.198602 0.009809 -2.893681
v 1.740097 0.009809 -2.604247
v 0.000001 0.009809 3.132098
v -1.740101 0.009809 -2.604244
v 1.198598 0.009809 -2.893683
v 0.611043 0.009809 3.071915
v -2.214728 0.009809 -2.214728
v 0.611037 0.009809 -3.071917
v 1.198603 0.009809 2.893681
v -2.604244 0.009809 -1.740100
v 1.740102 0.009809 2.604244
v -2.893681 0.009809 -1.198602
v 2.214729 0.009809 2.214726
v -3.071916 0.009809 -0.611042
v 2.604246 0.009809 1.740099
v -3.132098 0.009809 -0.000000
v 2.893682 0.009809 1.198600
v -3.071916 0.009809 0.611042
v 3.071916 0.009809 0.611039
v -2.893682 0.009809 1.198601
v 3.132098 0.009809 -0.000003
v -2.604244 0.009809 1.740100
v 3.071915 0.009809 -0.611045
v -2.214728 0.009809 2.214728
vt 0.227213 0.504073
vt 0.178521 0.494388
vt 0.252037 0.252037
vt 0.276860 0.504073
vt 0.510019 0.765121
vt 0.511174 0.810932
vt 0.505818 0.811080
vt 0.504662 0.765213
vt 0.276860 0.000000
vt 0.325553 0.009686
vt 0.227213 0.000000
vt 0.869491 0.467706
vt 0.824365 0.486398
vt 0.752037 0.247964
vt 0.910104 0.440569
vt 0.824365 0.009529
vt 0.869491 0.028221
vt 0.776459 0.000000
vt 0.910104 0.055358
vt 0.944642 0.089896
vt 0.679708 0.486398
vt 0.634582 0.467706
vt 0.727614 0.495927
vt 0.971779 0.130509
vt 0.990471 0.175635
vt 0.593969 0.440569
vt 0.559430 0.406031
vt 0.513602 0.175635
vt 0.532294 0.130509
vt 0.504073 0.223541
vt 1.000000 0.223541
vt 1.000000 0.272386
vt 0.532294 0.365418
vt 0.513602 0.320292
vt 0.559431 0.089896
vt 0.593969 0.055358
vt 0.990471 0.320292
vt 0.971779 0.365418
vt 0.504073 0.272386
vt 0.634582 0.028221
vt 0.679708 0.009529
vt 0.944642 0.406031
vt 0.132653 0.475389
vt 0.091373 0.447806
vt 0.056267 0.412701
vt 0.028685 0.371421
vt 0.371421 0.028685
vt 0.412700 0.056267
vt 0.009686 0.325553
vt 0.000000 0.276860
vt 0.447806 0.091373
vt 0.475388 0.132652
vt 0.000000 0.227213
vt 0.009686 0.178520
vt 0.494387 0.178520
vt 0.504073 0.227213
vt 0.412700 0.447806
vt 0.371421 0.475388
vt 0.447806 0.412700
vt 0.028685 0.132653
vt 0.056267 0.091373
vt 0.504073 0.276860
vt 0.494387 0.325553
vt 0.325553 0.494387
vt 0.475388 0.371421
vt 0.178520 0.009686
vt 0.132652 0.028685
vt 0.776459 0.495927
vt 0.727614 0.000000
vt 0.091373 0.056267
vt 0.659715 0.583180
vt 0.658835 0.631808
vt 0.653478 0.631745
vt 0.654359 0.583056
vt 0.514983 0.496171
vt 0.512850 0.531233
vt 0.507496 0.531033
vt 0.509632 0.495927
vt 0.509431 0.716489
vt 0.504073 0.716520
vt 0.661144 0.537377
vt 0.655790 0.537196
vt 0.734332 0.810932
vt 0.736008 0.852161
vt 0.730654 0.852361
vt 0.728976 0.811081
vt 0.509431 0.666904
vt 0.504073 0.666873
vt 0.663068 0.496159
vt 0.657715 0.495927
vt 0.733177 0.765121
vt 0.727820 0.765213
vt 0.510019 0.618271
vt 0.504662 0.618180
vt 0.587094 0.817081
vt 0.589017 0.852156
vt 0.583665 0.852367
vt 0.581740 0.817249
vt 0.732589 0.716489
vt 0.727231 0.716520
vt 0.511174 0.572461
vt 0.505818 0.572312
vt 0.585665 0.775844
vt 0.580309 0.775960
vt 0.732589 0.666904
vt 0.727231 0.666873
vt 0.572939 0.533476
vt 0.577029 0.533629
vt 0.575378 0.574242
vt 0.571287 0.574128
vt 0.584785 0.730027
vt 0.579428 0.730086
vt 0.733177 0.618272
vt 0.727820 0.618180
vt 0.584488 0.681392
vt 0.579130 0.681391
vt 0.734332 0.572461
vt 0.728976 0.572313
vt 0.584785 0.631808
vt 0.579428 0.631745
vt 0.736008 0.531233
vt 0.730654 0.531033
vt 0.585665 0.583180
vt 0.580309 0.583056
vt 0.738141 0.496171
vt 0.732790 0.495927
vt 0.587094 0.537377
vt 0.581740 0.537196
vt 0.659715 0.775844
vt 0.661144 0.817081
vt 0.655790 0.817249
vt 0.654359 0.775960
vt 0.589017 0.496159
vt 0.583665 0.495927
vt 0.658835 0.730027
vt 0.653478 0.730086
vt 0.512850 0.852160
vt 0.514983 0.887222
vt 0.509632 0.887466
vt 0.507496 0.852360
vt 0.658538 0.681392
vt 0.653181 0.681391
vt 0.571287 0.809265
vt 0.575378 0.809151
vt 0.577029 0.849764
vt 0.572939 0.849917
vt 0.718970 0.632515
vt 0.723062 0.632563
vt 0.722769 0.681406
vt 0.718677 0.681405
vt 0.723062 0.729315
vt 0.718970 0.729360
vt 0.579130 0.884302
vt 0.575043 0.884488
vt 0.723929 0.774448
vt 0.719837 0.774537
vt 0.653181 0.498940
vt 0.651286 0.539542
vt 0.647196 0.539404
vt 0.649092 0.498763
vt 0.725337 0.815069
vt 0.721246 0.815198
vt 0.649879 0.584661
vt 0.645787 0.584567
vt 0.727231 0.849620
vt 0.723142 0.849781
vt 0.649012 0.632563
vt 0.644919 0.632515
vt 0.800187 0.533629
vt 0.798536 0.574242
vt 0.794445 0.574128
vt 0.796097 0.533476
vt 0.648719 0.681406
vt 0.644626 0.681406
vt 0.797398 0.619368
vt 0.793306 0.619298
vt 0.649012 0.729315
vt 0.644919 0.729360
vt 0.796819 0.667274
vt 0.792726 0.667251
vt 0.649879 0.774448
vt 0.645787 0.774537
vt 0.796819 0.716119
vt 0.792726 0.716142
vt 0.651286 0.815069
vt 0.647196 0.815198
vt 0.574241 0.619368
vt 0.570148 0.619298
vt 0.797398 0.764025
vt 0.793306 0.764095
vt 0.653181 0.849620
vt 0.649092 0.849781
vt 0.573661 0.667274
vt 0.569568 0.667251
vt 0.798536 0.809151
vt 0.794445 0.809265
vt 0.727231 0.498940
vt 0.725337 0.539542
vt 0.721246 0.539404
vt 0.723142 0.498763
vt 0.573661 0.716119
vt 0.569568 0.716142
vt 0.800187 0.849764
vt 0.796097 0.849917
vt 0.723929 0.584661
vt 0.719837 0.584567
vt 0.574240 0.764025
vt 0.570148 0.764095
vt 0.579130 0.499091
vt 0.575043 0.498905
vt 0.798201 0.498905
vn 0.4681 -0.5386 -0.7005
vn 0.5958 -0.5386 -0.5958
vn 0.0000 -1.0000 0.0000
vn 0.3224 -0.5386 -0.7784
vn 0.7726 0.3696 -0.5162
vn 0.8584 0.3696 -0.3556
vn 0.7784 -0.5386 -0.3224
vn 0.7005 -0.5386 -0.4681
vn -0.4681 -0.5386 0.7005
vn -0.5958 -0.5386 0.5958
vn -0.3224 -0.5386 0.7784
vn 0.5733 0.8114 0.1140
vn 0.5845 0.8114 0.0000
vn 0.0000 1.0000 0.0000
vn 0.5400 0.8114 0.2237
vn -0.4860 0.8114 0.3247
vn -0.4133 0.8114 0.4133
vn -0.5400 0.8114 0.2237
vn -0.3247 0.8114 0.4860
vn -0.2237 0.8114 0.5400
vn 0.4860 0.8114 -0.3247
vn 0.4133 0.8114 -0.4133
vn 0.5400 0.8114 -0.2237
vn -0.1140 0.8114 0.5733
vn 0.0000 0.8114 0.5845
vn 0.3247 0.8114 -0.4860
vn 0.2237 0.8114 -0.5400
vn -0.3247 0.8114 -0.4860
vn -0.4133 0.8114 -0.4133
vn -0.2237 0.8114 -0.5400
vn 0.1140 0.8114 0.5733
vn 0.2237 0.8114 0.5400
vn 0.1140 0.8114 -0.5733
vn 0.0000 0.8114 -0.5845
vn -0.4860 0.8114 -0.3247
vn -0.5400 0.8114 -0.2237
vn 0.3247 0.8114 0.4860
vn 0.4133 0.8114 0.4133
vn -0.1140 0.8114 -0.5733
vn -0.5733 0.8114 -0.1140
vn -0.5845 0.8114 0.0000
vn 0.4860 0.8114 0.3247
vn 0.8263 -0.5386 -0.1643
vn 0.8425 -0.5386 0.0000
vn -0.7005 -0.5386 0.4681
vn -0.7784 -0.5386 0.3224
vn 0.8263 -0.5386 0.1643
vn 0.7784 -0.5386 0.3224
vn -0.8263 -0.5386 0.1643
vn -0.8425 -0.5386 0.0000
vn 0.7005 -0.5386 0.4681
vn 0.5958 -0.5386 0.5958
vn -0.8263 -0.5386 -0.1643
vn -0.7784 -0.5386 -0.3224
vn -0.1643 -0.5386 -0.8263
vn 0.0000 -0.5386 -0.8425
vn -0.3224 -0.5386 -0.7784
vn 0.4681 -0.5386 0.7005
vn 0.3224 -0.5386 0.7784
vn -0.7005 -0.5386 -0.4681
vn -0.5958 -0.5386 -0.5958
vn 0.1643 -0.5386 -0.8263
vn -0.4681 -0.5386 -0.7005
vn -0.1643 -0.5386 0.8263
vn 0.0000 -0.5386 0.8425
vn 0.5733 0.8114 -0.1140
vn -0.5733 0.8114 0.1140
vn 0.1643 -0.5386 0.8263
vn -0.3556 0.3696 0.8584
vn -0.5162 0.3696 0.7726
vn -0.1812 0.3696 -0.9113
vn 0.0000 0.3696 -0.9292
vn 0.6570 0.3696 -0.6570
vn -0.1812 0.3696 0.9113
vn -0.3556 0.3696 -0.8584
vn 0.5162 0.3696 -0.7726
vn 0.0000 0.3696 0.9292
vn -0.5162 0.3696 -0.7726
vn 0.3556 0.3696 -0.8584
vn 0.1812 0.3696 0.9113
vn -0.6570 0.3696 -0.6570
vn 0.1812 0.3696 -0.9113
vn 0.3556 0.3696 0.8584
vn -0.7726 0.3696 -0.5162
vn 0.5162 0.3696 0.7726
vn -0.8584 0.3696 -0.3556
vn 0.6570 0.3696 0.6570
vn -0.9113 0.3696 -0.1812
vn 0.7726 0.3696 0.5162
vn -0.9292 0.3696 0.0000
vn 0.8584 0.3696 0.3556
vn -0.9113 0.3696 0.1812
vn 0.9113 0.3696 0.1812
vn -0.8584 0.3696 0.3556
vn 0.9292 0.3696 0.0000
vn -0.7726 0.3696 0.5162
vn 0.9113 0.3696 -0.1812
vn -0.6570 0.3696 0.6570
vn 0.8585 0.3696 0.3556
usemtl None
s 1
f 30/1/1 29/2/2 66/3/3 31/4/4
f 102/5/5 99/6/6 27/7/7 28/8/8
f 14/9/9 13/10/10 66/3/3 15/11/11
f 56/12/12 57/13/13 65/14/14 55/15/15
f 44/16/16 45/17/17 65/14/14 43/18/18
f 46/19/19 47/20/20 65/14/14 45/17/17
f 60/21/21 61/22/22 65/14/14 59/23/23
f 48/24/24 49/25/25 65/14/14 47/20/20
f 62/26/26 63/27/27 65/14/14 61/22/22
f 36/28/28 37/29/29 65/14/14 35/30/30
f 50/31/31 51/32/32 65/14/14 49/25/25
f 64/33/33 33/34/34 65/14/14 63/27/27
f 38/35/35 39/36/36 65/14/14 37/29/29
f 52/37/37 53/38/38 65/14/14 51/32/32
f 34/39/39 35/30/30 65/14/14 33/34/34
f 39/36/36 40/40/40 41/41/41 65/14/14
f 53/38/38 54/42/42 55/15/15 65/14/14
f 29/2/2 28/43/8 27/44/7 66/3/3
f 27/44/7 26/45/43 25/46/44 66/3/3
f 12/47/45 11/48/46 66/3/3 13/10/10
f 24/49/47 23/50/48 66/3/3 25/46/44
f 10/51/49 9/52/50 66/3/3 11/48/46
f 22/53/51 21/54/52 66/3/3 23/50/48
f 8/55/53 7/56/54 66/3/3 9/52/50
f 2/57/55 1/58/56 66/3/3 3/59/57
f 20/60/58 19/61/59 66/3/3 21/54/52
f 6/62/60 5/63/61 66/3/3 7/56/54
f 32/64/62 31/4/4 66/3/3 1/58/56
f 4/65/63 3/59/57 66/3/3 5/63/61
f 16/66/64 15/11/11 66/3/3 17/67/65
f 58/68/66 59/23/23 65/14/14 57/13/13
f 42/69/67 43/18/18 65/14/14 41/41/41
f 18/70/68 17/67/65 66/3/3 19/61/59
f 103/71/69 100/72/70 14/73/9 15/74/11
f 104/75/71 101/76/72 1/77/56 2/78/55
f 105/79/73 102/5/5 28/8/8 29/80/2
f 106/81/74 103/71/69 15/74/11 16/82/64
f 107/83/75 104/84/71 2/85/55 3/86/57
f 108/87/76 105/79/73 29/80/2 30/88/1
f 109/89/77 106/81/74 16/82/64 17/90/65
f 110/91/78 107/83/75 3/86/57 4/92/63
f 111/93/79 108/87/76 30/88/1 31/94/4
f 112/95/80 109/96/77 17/97/65 18/98/68
f 113/99/81 110/91/78 4/92/63 5/100/61
f 114/101/82 111/93/79 31/94/4 32/102/62
f 115/103/83 112/95/80 18/98/68 19/104/59
f 116/105/84 113/99/81 5/100/61 6/106/60
f 69/107/72 33/108/34 64/109/33 82/110/82
f 117/111/85 115/103/83 19/104/59 20/112/58
f 118/113/86 116/105/84 6/106/60 7/114/54
f 119/115/87 117/111/85 20/112/58 21/116/52
f 120/117/88 118/113/86 7/114/54 8/118/53
f 121/119/89 119/115/87 21/116/52 22/120/51
f 122/121/90 120/117/88 8/118/53 9/122/50
f 123/123/91 121/119/89 22/120/51 23/124/48
f 124/125/92 122/121/90 9/122/50 10/126/49
f 125/127/93 123/123/91 23/124/48 24/128/47
f 126/129/94 124/130/92 10/131/49 11/132/46
f 127/133/95 125/127/93 24/128/47 25/134/44
f 128/135/96 126/129/94 11/132/46 12/136/45
f 129/137/97 127/138/95 25/139/44 26/140/43
f 130/141/98 128/135/96 12/136/45 13/142/10
f 67/143/6 59/144/23 58/145/66 97/146/97
f 68/147/70 46/148/19 45/149/17 98/150/98
f 100/72/70 68/147/70 98/150/98 130/141/98
f 99/6/6 67/143/6 97/146/97 129/137/97
f 45/149/17 44/151/16 96/152/96 98/150/98
f 58/145/66 57/153/13 95/154/95 97/146/97
f 44/151/16 43/155/18 94/156/94 96/152/96
f 57/157/13 56/158/12 93/159/93 95/160/95
f 43/155/18 42/161/67 92/162/92 94/156/94
f 56/158/12 55/163/15 91/164/99 93/159/93
f 42/161/67 41/165/41 90/166/90 92/162/92
f 55/163/15 54/167/42 89/168/89 91/164/99
f 41/169/41 40/170/40 88/171/88 90/172/90
f 54/167/42 53/173/38 87/174/87 89/168/89
f 40/170/40 39/175/36 86/176/86 88/171/88
f 53/173/38 52/177/37 85/178/85 87/174/87
f 39/175/36 38/179/35 84/180/84 86/176/86
f 52/177/37 51/181/32 83/182/83 85/178/85
f 101/76/72 69/107/72 82/110/82 114/101/82
f 38/179/35 37/183/29 81/184/81 84/180/84
f 51/181/32 50/185/31 80/186/80 83/182/83
f 64/109/33 63/187/27 79/188/79 82/110/82
f 37/183/29 36/189/28 78/190/78 81/184/81
f 50/185/31 49/191/25 77/192/77 80/186/80
f 63/187/27 62/193/26 76/194/76 79/188/79
f 36/189/28 35/195/30 75/196/75 78/190/78
f 49/197/25 48/198/24 74/199/74 77/200/77
f 62/193/26 61/201/22 73/202/73 76/194/76
f 35/195/30 34/203/39 72/204/71 75/196/75
f 48/198/24 47/205/20 71/206/69 74/199/74
f 61/201/22 60/207/21 70/208/5 73/202/73
f 34/209/39 33/108/34 69/107/72 72/210/71
f 47/205/20 46/148/19 68/147/70 71/206/69
f 60/207/21 59/144/23 67/143/6 70/208/5
f 1/77/56 101/76/72 114/101/82 32/102/62
f 27/7/7 99/6/6 129/137/97 26/140/43
f 14/73/9 100/72/70 130/141/98 13/142/10
f 98/150/98 96/152/96 128/135/96 130/141/98
f 97/146/97 95/154/95 127/138/95 129/137/97
f 96/152/96 94/156/94 126/129/94 128/135/96
f 95/160/95 93/159/93 125/127/93 127/133/95
f 94/156/94 92/162/92 124/130/92 126/129/94
f 93/159/93 91/164/99 123/123/91 125/127/93
f 92/211/92 90/172/90 122/121/90 124/125/92
f 91/164/99 89/168/89 121/119/89 123/123/91
f 90/172/90 88/171/88 120/117/88 122/121/90
f 89/168/89 87/174/87 119/115/87 121/119/89
f 88/171/88 86/176/86 118/113/86 120/117/88
f 87/174/87 85/178/85 117/111/85 119/115/87
f 86/176/86 84/180/84 116/105/84 118/113/86
f 85/178/85 83/182/83 115/103/83 117/111/85
f 84/180/84 81/184/81 113/99/81 116/105/84
f 83/182/83 80/186/80 112/95/80 115/103/83
f 82/110/82 79/188/79 111/93/79 114/101/82
f 81/184/81 78/190/78 110/91/78 113/99/81
f 80/186/80 77/192/77 109/96/77 112/95/80
f 79/188/79 76/194/76 108/87/76 111/93/79
f 78/190/78 75/196/75 107/83/75 110/91/78
f 77/200/77 74/199/74 106/81/74 109/89/77
f 76/194/76 73/202/73 105/79/73 108/87/76
f 75/196/75 72/204/71 104/84/71 107/83/75
f 74/199/74 71/206/69 103/71/69 106/81/74
f 73/202/73 70/208/5 102/5/5 105/79/73
f 72/210/71 69/107/72 101/76/72 104/75/71
f 71/206/69 68/147/70 100/72/70 103/71/69
f 70/208/5 67/143/6 99/6/6 102/5/5
