# Blender v2.82 (sub 7) OBJ File: ''
# www.blender.org
mtllib base_28_5.mtl
o 28.5mm_Circle.002
v 0.310188 0.000234 -0.464230
v 0.394795 0.000234 -0.394796
v 0.000000 0.000234 0.000000
v 0.213661 0.000234 -0.515826
v 0.461329 0.008934 -0.308251
v 0.512602 0.008934 -0.212327
v 0.515825 0.000234 -0.213662
v 0.464229 0.000234 -0.310189
v -0.310189 0.000234 0.464230
v -0.394795 0.000234 0.394795
v -0.213662 0.000234 0.515825
v 0.503001 0.113643 0.100052
v 0.512856 0.113643 -0.000001
v 0.000000 0.113643 0.000000
v 0.473818 0.113643 0.196261
v -0.426424 0.113643 0.284927
v -0.362644 0.113643 0.362644
v -0.473818 0.113643 0.196261
v -0.284927 0.113643 0.426424
v -0.196261 0.113643 0.473818
v 0.426424 0.113643 -0.284928
v 0.362643 0.113643 -0.362644
v 0.473817 0.113643 -0.196262
v -0.100053 0.113643 0.503001
v 0.000000 0.113643 0.512856
v 0.284927 0.113643 -0.426425
v 0.196261 0.113643 -0.473818
v -0.284927 0.113643 -0.426424
v -0.362644 0.113643 -0.362644
v -0.196261 0.113643 -0.473817
v 0.100053 0.113643 0.503001
v 0.196262 0.113643 0.473817
v 0.100052 0.113643 -0.503001
v 0.000000 0.113643 -0.512856
v -0.426424 0.113643 -0.284927
v -0.473817 0.113643 -0.196261
v 0.284928 0.113643 0.426424
v 0.362644 0.113643 0.362644
v -0.100053 0.113643 -0.503001
v -0.503001 0.113643 -0.100053
v -0.512856 0.113643 0.000000
v 0.426424 0.113643 0.284927
v 0.547596 0.000234 -0.108924
v 0.558325 0.000234 -0.000001
v -0.464230 0.000234 0.310189
v -0.515825 0.000234 0.213662
v 0.547597 0.000234 0.108923
v 0.515825 0.000234 0.213662
v -0.547597 0.000234 0.108924
v -0.558325 0.000234 0.000000
v 0.464230 0.000234 0.310188
v 0.394796 0.000234 0.394795
v -0.547597 0.000234 -0.108924
v -0.515825 0.000234 -0.213662
v -0.108924 0.000234 -0.547597
v 0.000000 0.000234 -0.558325
v -0.213662 0.000234 -0.515825
v 0.310189 0.000234 0.464230
v 0.213662 0.000234 0.515825
v -0.464230 0.000234 -0.310189
v -0.394795 0.000234 -0.394795
v 0.108923 0.000234 -0.547597
v -0.310189 0.000234 -0.464230
v -0.108924 0.000234 0.547597
v 0.000000 0.000234 0.558325
v 0.503001 0.113643 -0.100053
v -0.503001 0.113643 0.100053
v 0.108924 0.000234 0.547596
v -0.212326 0.008934 0.512602
v -0.308251 0.008934 0.461330
v -0.108243 0.008934 -0.544175
v 0.000000 0.008934 -0.554836
v 0.392328 0.008934 -0.392329
v -0.108243 0.008934 0.544175
v -0.212326 0.008934 -0.512602
v 0.308250 0.008934 -0.461330
v 0.000000 0.008934 0.554836
v -0.308251 0.008934 -0.461330
v 0.212326 0.008934 -0.512602
v 0.108243 0.008934 0.544175
v -0.392328 0.008934 -0.392328
v 0.108242 0.008934 -0.544175
v 0.212327 0.008934 0.512602
v -0.461330 0.008934 -0.308251
v 0.000000 0.106967 -0.515533
v 0.100575 0.106967 -0.505627
v 0.308251 0.008934 0.461329
v -0.512602 0.008934 -0.212326
v 0.392329 0.008934 0.392328
v -0.544175 0.008934 -0.108243
v 0.461330 0.008934 0.308250
v -0.554836 0.008934 0.000000
v 0.512602 0.008934 0.212326
v -0.544175 0.008934 0.108243
v 0.544175 0.008934 0.108243
v -0.512602 0.008934 0.212326
v 0.554836 0.008934 -0.000001
v -0.461330 0.008934 0.308251
v 0.544175 0.008934 -0.108244
v -0.392328 0.008934 0.392328
v 0.476290 0.106967 -0.197287
v 0.505627 0.106967 -0.100576
v -0.286415 0.106967 0.428650
v -0.364537 0.106967 0.364537
v -0.428650 0.106967 0.286415
v 0.515533 0.106967 -0.000001
v -0.476291 0.106967 0.197286
v 0.505627 0.106967 0.100575
v -0.505627 0.106967 0.100575
v 0.476291 0.106967 0.197286
v -0.515533 0.106967 0.000000
v 0.428650 0.106967 0.286414
v -0.505627 0.106967 -0.100576
v 0.364537 0.106967 0.364537
v -0.476291 0.106967 -0.197286
v 0.286415 0.106967 0.428650
v -0.428650 0.106967 -0.286415
v 0.197286 0.106967 0.476290
v -0.364537 0.106967 -0.364537
v 0.100576 0.106967 0.505627
v 0.197285 0.106967 -0.476291
v -0.286415 0.106967 -0.428650
v 0.000000 0.106967 0.515533
v 0.286414 0.106967 -0.428650
v -0.197286 0.106967 -0.476291
v -0.100575 0.106967 0.505627
v 0.364537 0.106967 -0.364537
v -0.100575 0.106967 -0.505627
v -0.197286 0.106967 0.476291
v 0.428650 0.106967 -0.286415
vt 0.234944 0.521224
vt 0.260612 0.260612
vt 0.286280 0.521224
vt 0.645315 0.656376
vt 0.639571 0.706690
vt 0.639571 0.656248
vt 0.286280 0.000000
vt 0.234944 0.000000
vt 0.530423 0.169561
vt 0.760612 0.239388
vt 0.521224 0.215810
vt 0.874005 0.451531
vt 0.913213 0.425333
vt 0.784190 0.478776
vt 0.830439 0.469577
vt 0.647219 0.027245
vt 0.608011 0.053443
vt 0.690785 0.469577
vt 0.737034 0.478776
vt 0.737034 0.000000
vt 0.690785 0.009200
vt 0.972755 0.125995
vt 0.946557 0.086787
vt 0.608011 0.425333
vt 0.647219 0.451531
vt 0.830439 0.009200
vt 0.784190 0.000000
vt 1.000000 0.215811
vt 0.990800 0.169561
vt 0.548469 0.352781
vt 0.574667 0.391989
vt 0.913213 0.053443
vt 0.874005 0.027245
vt 0.990800 0.309215
vt 1.000000 0.262966
vt 0.521224 0.262966
vt 0.530423 0.309215
vt 0.137166 0.491563
vt 0.184595 0.511209
vt 0.058182 0.426742
vt 0.094482 0.463042
vt 0.384058 0.029661
vt 0.336629 0.010015
vt 0.010015 0.336630
vt 0.029661 0.384058
vt 0.463042 0.094481
vt 0.426742 0.058181
vt 0.000000 0.234944
vt 0.000000 0.286280
vt 0.511209 0.184594
vt 0.491563 0.137166
vt 0.426742 0.463042
vt 0.463042 0.426742
vt 0.029661 0.137166
vt 0.010015 0.184594
vt 0.521224 0.286280
vt 0.521224 0.234944
vt 0.336630 0.511208
vt 0.384058 0.491563
vt 0.491563 0.384058
vt 0.511209 0.336629
vt 0.184594 0.010015
vt 0.137166 0.029661
vt 0.574667 0.086787
vt 0.548469 0.125995
vt 0.946557 0.391989
vt 0.972755 0.352781
vt 0.094481 0.058181
vt 0.058181 0.094482
vt 0.772632 0.845972
vt 0.759570 0.803915
vt 0.765279 0.803315
vt 0.560399 0.939095
vt 0.568514 0.960519
vt 0.554862 0.940321
vt 0.648399 0.608971
vt 0.642674 0.608545
vt 0.755014 0.756329
vt 0.760752 0.756026
vt 0.548613 0.910266
vt 0.543002 0.911311
vt 0.648760 0.565414
vt 0.654446 0.566109
vt 0.753476 0.705911
vt 0.759223 0.705923
vt 0.539061 0.873788
vt 0.533391 0.874604
vt 0.663227 0.529438
vt 0.657595 0.528512
vt 0.760752 0.654930
vt 0.755014 0.654598
vt 0.532111 0.831064
vt 0.526396 0.831611
vt 0.674402 0.500367
vt 0.668840 0.499258
vt 0.765279 0.605008
vt 0.759570 0.604362
vt 0.528028 0.783735
vt 0.522288 0.783984
vt 0.749272 0.493949
vt 0.741330 0.513712
vt 0.737063 0.512861
vt 0.766969 0.557134
vt 0.772632 0.558075
vt 0.521224 0.733553
vt 0.526971 0.733619
vt 0.776925 0.514729
vt 0.782526 0.515935
vt 0.523245 0.682257
vt 0.528979 0.682643
vt 0.789058 0.478776
vt 0.794582 0.480207
vt 0.528273 0.632066
vt 0.533975 0.632766
vt 0.687542 0.931034
vt 0.668840 0.897067
vt 0.674402 0.895691
vt 0.541769 0.585905
vt 0.536115 0.584910
vt 0.663227 0.853872
vt 0.657595 0.854985
vt 0.552059 0.543860
vt 0.546470 0.542601
vt 0.654446 0.807185
vt 0.648760 0.808005
vt 0.564451 0.508246
vt 0.558939 0.506764
vt 0.642674 0.757932
vt 0.648399 0.757425
vt 0.573045 0.478776
vt 0.578468 0.480434
vt 0.714445 0.704250
vt 0.712902 0.751709
vt 0.710037 0.704394
vt 0.836437 0.836185
vt 0.849929 0.869151
vt 0.845631 0.869993
vt 0.782526 0.882358
vt 0.645315 0.706502
vt 0.856833 0.896676
vt 0.717294 0.751320
vt 0.718521 0.797944
vt 0.630776 0.526092
vt 0.615033 0.558044
vt 0.626547 0.524954
vt 0.731000 0.840469
vt 0.722885 0.797315
vt 0.609810 0.597874
vt 0.619322 0.559010
vt 0.741330 0.879124
vt 0.726679 0.841324
vt 0.602607 0.641190
vt 0.605472 0.597111
vt 0.749272 0.913020
vt 0.737062 0.880180
vt 0.597988 0.687293
vt 0.598231 0.640653
vt 0.861073 0.497428
vt 0.845631 0.529527
vt 0.856833 0.496330
vt 0.596132 0.734412
vt 0.593588 0.686997
vt 0.840783 0.569405
vt 0.849929 0.530453
vt 0.597109 0.780736
vt 0.591722 0.734362
vt 0.833987 0.612786
vt 0.836437 0.568682
vt 0.687542 0.480013
vt 0.600883 0.824484
vt 0.592705 0.780927
vt 0.829802 0.658931
vt 0.829606 0.612291
vt 0.726679 0.539873
vt 0.602956 0.864602
vt 0.596498 0.824904
vt 0.823979 0.706056
vt 0.825399 0.658676
vt 0.731001 0.540583
vt 0.718521 0.573946
vt 0.607308 0.863976
vt 0.611831 0.898495
vt 0.828389 0.706065
vt 0.825399 0.752610
vt 0.722885 0.574480
vt 0.712902 0.613771
vt 0.627031 0.924341
vt 0.616137 0.897693
vt 0.829802 0.752378
vt 0.829606 0.796549
vt 0.714445 0.657916
vt 0.717295 0.614098
vt 0.639571 0.942895
vt 0.622782 0.925282
vt 0.840783 0.835518
vt 0.833987 0.796089
vt 0.710037 0.657818
vt 0.682063 0.478776
vt 0.766969 0.846841
vt 0.776925 0.883456
vt 0.639571 0.499112
vt 0.573966 0.959167
vt 0.753476 0.494898
vt 0.682063 0.932633
vt 0.861073 0.895695
vt 0.753476 0.911794
vt 0.635388 0.943932
vn 0.4685 -0.5375 -0.7011
vn -0.0000 -1.0000 -0.0000
vn 0.3227 -0.5375 -0.7791
vn 0.7718 0.3721 -0.5157
vn 0.7791 -0.5375 -0.3227
vn 0.7011 -0.5375 -0.4685
vn -0.4685 -0.5375 0.7011
vn -0.3227 -0.5375 0.7791
vn 0.5722 0.8122 0.1138
vn 0.0000 1.0000 0.0000
vn 0.5390 0.8122 0.2233
vn -0.4851 0.8122 0.3241
vn -0.5390 0.8122 0.2233
vn -0.3241 0.8122 0.4851
vn -0.4125 0.8122 0.4125
vn 0.4851 0.8122 -0.3241
vn 0.5390 0.8122 -0.2233
vn -0.1138 0.8122 0.5722
vn -0.2233 0.8122 0.5390
vn 0.3241 0.8122 -0.4851
vn 0.4125 0.8122 -0.4125
vn -0.3241 0.8122 -0.4851
vn -0.2232 0.8122 -0.5389
vn 0.1138 0.8122 0.5722
vn -0.0000 0.8122 0.5834
vn 0.1138 0.8122 -0.5722
vn 0.2233 0.8122 -0.5390
vn -0.4851 0.8122 -0.3241
vn -0.4125 0.8122 -0.4125
vn 0.3241 0.8122 0.4851
vn 0.2233 0.8122 0.5390
vn -0.1138 0.8122 -0.5722
vn -0.0000 0.8122 -0.5834
vn -0.5722 0.8122 -0.1138
vn -0.5390 0.8122 -0.2232
vn 0.4851 0.8122 0.3241
vn 0.4125 0.8122 0.4125
vn 0.5963 -0.5375 -0.5963
vn 0.8270 -0.5375 -0.1645
vn -0.7011 -0.5375 0.4685
vn -0.5963 -0.5375 0.5963
vn 0.8271 -0.5375 0.1645
vn 0.8433 -0.5375 -0.0000
vn -0.8271 -0.5375 0.1645
vn -0.7791 -0.5375 0.3227
vn 0.7011 -0.5375 0.4685
vn 0.7791 -0.5375 0.3227
vn -0.8271 -0.5375 -0.1645
vn -0.8433 -0.5375 -0.0000
vn -0.1645 -0.5375 -0.8271
vn -0.3227 -0.5375 -0.7791
vn 0.4685 -0.5375 0.7011
vn 0.5963 -0.5375 0.5963
vn -0.7011 -0.5375 -0.4685
vn -0.7791 -0.5375 -0.3227
vn 0.1645 -0.5375 -0.8271
vn 0.0000 -0.5375 -0.8433
vn -0.4685 -0.5375 -0.7011
vn -0.5963 -0.5375 -0.5963
vn -0.1645 -0.5375 0.8271
vn 0.0000 -0.5375 0.8433
vn 0.5722 0.8122 -0.1138
vn 0.5834 0.8122 -0.0000
vn -0.5722 0.8122 0.1138
vn -0.5834 0.8122 0.0000
vn 0.1645 -0.5375 0.8270
vn 0.3227 -0.5375 0.7790
vn -0.5157 0.3721 0.7718
vn -0.3552 0.3721 0.8575
vn -0.1811 0.3722 -0.9103
vn 0.6563 0.3721 -0.6563
vn -0.1811 0.3722 0.9103
vn -0.3552 0.3721 -0.8575
vn 0.5157 0.3721 -0.7718
vn -0.0000 0.3721 0.9282
vn -0.5157 0.3721 -0.7718
vn 0.3552 0.3721 -0.8575
vn 0.1811 0.3721 0.9103
vn -0.6563 0.3721 -0.6563
vn 0.1811 0.3722 -0.9103
vn 0.3552 0.3721 0.8575
vn -0.7718 0.3721 -0.5157
vn -0.0000 0.3721 -0.9282
vn 0.1811 0.3721 -0.9103
vn 0.5157 0.3722 0.7717
vn -0.8575 0.3721 -0.3552
vn 0.6563 0.3721 0.6563
vn -0.9103 0.3722 -0.1811
vn 0.7718 0.3721 0.5157
vn -0.9282 0.3721 0.0000
vn 0.8575 0.3721 0.3552
vn -0.9103 0.3722 0.1811
vn 0.9103 0.3722 0.1811
vn -0.8575 0.3721 0.3552
vn 0.9282 0.3721 -0.0000
vn -0.7718 0.3721 0.5157
vn 0.9104 0.3721 -0.1811
vn -0.6563 0.3721 0.6563
vn 0.9103 0.3721 -0.1811
vn 0.8575 0.3721 -0.3552
vn -0.5157 0.3721 0.7717
vn -0.7717 0.3721 0.5157
vn 0.9103 0.3721 0.1811
vn -0.9104 0.3721 0.1811
vn -0.9103 0.3721 -0.1811
vn -0.8575 0.3722 -0.3552
vn 0.5157 0.3721 0.7718
vn -0.7717 0.3721 -0.5157
vn -0.5157 0.3721 -0.7717
vn -0.3552 0.3722 -0.8575
vn -0.1811 0.3721 0.9104
vn 0.6563 0.3722 -0.6563
vn -0.1811 0.3721 -0.9104
usemtl None.002
s 1
f 1/1/1 3/2/2 4/3/3
f 5/4/4 7/5/5 8/6/6
f 9/7/7 3/2/2 11/8/8
f 12/9/9 14/10/10 15/11/11
f 16/12/12 14/10/10 18/13/13
f 19/14/14 14/10/10 17/15/15
f 21/16/16 14/10/10 23/17/17
f 24/18/18 14/10/10 20/19/19
f 26/20/20 14/10/10 22/21/21
f 28/22/22 14/10/10 30/23/23
f 31/24/24 14/10/10 25/25/25
f 33/26/26 14/10/10 27/27/27
f 35/28/28 14/10/10 29/29/29
f 37/30/30 14/10/10 32/31/31
f 39/32/32 14/10/10 34/33/33
f 40/34/34 14/10/10 36/35/35
f 42/36/36 14/10/10 38/37/37
f 8/38/6 3/2/2 2/39/38
f 43/40/39 3/2/2 7/41/5
f 45/42/40 3/2/2 10/43/41
f 47/44/42 3/2/2 44/45/43
f 49/46/44 3/2/2 46/47/45
f 51/48/46 3/2/2 48/49/47
f 53/50/48 3/2/2 50/51/49
f 55/52/50 3/2/2 57/53/51
f 58/54/52 3/2/2 52/55/53
f 60/56/54 3/2/2 54/57/55
f 62/58/56 3/2/2 56/59/57
f 63/60/58 3/2/2 61/61/59
f 64/62/60 3/2/2 65/63/61
f 66/64/62 14/10/10 13/65/63
f 67/66/64 14/10/10 41/67/65
f 68/68/66 3/2/2 59/69/67
f 70/70/68 11/71/8 69/72/69
f 71/73/70 56/74/57 55/75/50
f 73/76/71 8/6/6 2/77/38
f 69/72/69 64/78/60 74/79/72
f 75/80/73 55/75/50 57/81/51
f 73/76/71 1/82/1 76/83/74
f 74/79/72 65/84/61 77/85/75
f 78/86/76 57/81/51 63/87/58
f 79/88/77 1/82/1 4/89/3
f 80/90/78 65/84/61 68/91/66
f 81/92/79 63/87/58 61/93/59
f 82/94/80 4/89/3 62/95/56
f 83/96/81 68/91/66 59/97/67
f 84/98/82 61/93/59 60/99/54
f 85/100/83 33/101/26 86/102/84
f 83/96/81 58/103/52 87/104/85
f 84/98/82 54/105/55 88/106/86
f 87/104/85 52/107/53 89/108/87
f 88/106/86 53/109/48 90/110/88
f 89/108/87 51/111/46 91/112/89
f 90/110/88 50/113/49 92/114/90
f 91/115/89 48/116/47 93/117/91
f 94/118/92 50/113/49 49/119/44
f 95/120/93 48/116/47 47/121/42
f 96/122/94 49/119/44 46/123/45
f 97/124/95 47/121/42 44/125/43
f 98/126/96 46/123/45 45/127/40
f 97/124/95 43/128/39 99/129/97
f 98/126/96 10/130/41 100/131/98
f 23/132/17 102/133/99 101/134/100
f 103/135/101 17/136/15 104/137/98
f 103/135/101 100/138/98 70/70/68
f 6/139/100 102/133/99 99/129/97
f 17/136/15 105/140/102 104/137/98
f 66/141/62 106/142/95 102/133/99
f 16/143/12 107/144/94 105/145/102
f 12/146/9 106/142/95 13/147/63
f 67/148/64 107/144/94 18/149/13
f 15/150/11 108/151/103 12/146/9
f 41/152/65 109/153/104 67/148/64
f 15/150/11 112/154/89 110/155/91
f 40/156/34 111/157/90 41/152/65
f 42/158/36 114/159/87 112/160/89
f 36/161/35 113/162/105 40/156/34
f 37/163/30 114/159/87 38/164/37
f 35/165/28 115/166/106 36/161/35
f 32/167/31 116/168/107 37/163/30
f 85/100/83 82/94/80 72/169/83
f 29/170/29 117/171/108 35/165/28
f 31/172/24 118/173/81 32/167/31
f 33/101/26 121/174/77 86/102/84
f 29/170/29 122/175/109 119/176/79
f 31/172/24 123/177/75 120/178/78
f 27/179/27 124/180/74 121/174/77
f 28/181/22 125/182/110 122/175/109
f 25/183/25 126/184/111 123/177/75
f 26/185/20 127/186/112 124/180/74
f 39/187/32 125/182/110 30/188/23
f 24/189/18 129/190/69 126/184/111
f 21/191/16 127/186/112 22/192/21
f 34/193/33 128/194/113 39/187/32
f 19/195/14 129/190/69 20/196/19
f 23/132/17 130/197/4 21/191/16
f 56/198/57 82/94/80 62/95/56
f 6/139/100 43/128/39 7/5/5
f 9/199/7 100/138/98 10/200/41
f 105/145/102 100/131/98 104/201/98
f 102/133/99 97/124/95 99/129/97
f 107/144/94 98/126/96 105/145/102
f 108/151/103 97/124/95 106/142/95
f 107/144/94 94/118/92 96/122/94
f 110/155/91 95/120/93 108/151/103
f 109/153/104 92/114/90 94/118/92
f 110/155/91 91/115/89 93/117/91
f 111/157/90 90/110/88 92/114/90
f 112/160/89 89/108/87 91/112/89
f 113/162/105 88/106/86 90/110/88
f 114/159/87 87/104/85 89/108/87
f 115/166/106 84/98/82 88/106/86
f 116/168/107 83/96/81 87/104/85
f 117/171/108 81/92/79 84/98/82
f 120/178/78 83/96/81 118/173/81
f 121/174/77 82/94/80 86/102/84
f 122/175/109 81/92/79 119/176/79
f 123/177/75 80/90/78 120/178/78
f 124/180/74 79/88/77 121/174/77
f 125/182/110 78/86/76 122/175/109
f 126/184/111 77/85/75 123/177/75
f 127/186/112 76/83/74 124/180/74
f 125/182/110 71/73/70 75/80/73
f 129/190/69 74/79/72 126/184/111
f 127/186/112 5/4/4 73/76/71
f 128/194/113 72/202/83 71/73/70
f 129/190/69 70/70/68 69/72/69
f 101/134/100 5/4/4 130/197/4
f 1/1/1 2/39/38 3/2/2
f 5/4/4 6/139/100 7/5/5
f 9/7/7 10/43/41 3/2/2
f 12/9/9 13/65/63 14/10/10
f 16/12/12 17/15/15 14/10/10
f 19/14/14 20/19/19 14/10/10
f 21/16/16 22/21/21 14/10/10
f 24/18/18 25/25/25 14/10/10
f 26/20/20 27/27/27 14/10/10
f 28/22/22 29/29/29 14/10/10
f 31/24/24 32/31/31 14/10/10
f 33/26/26 34/33/33 14/10/10
f 35/28/28 36/35/35 14/10/10
f 37/30/30 38/37/37 14/10/10
f 39/32/32 30/23/23 14/10/10
f 40/34/34 41/67/65 14/10/10
f 42/36/36 15/11/11 14/10/10
f 8/38/6 7/41/5 3/2/2
f 43/40/39 44/45/43 3/2/2
f 45/42/40 46/47/45 3/2/2
f 47/44/42 48/49/47 3/2/2
f 49/46/44 50/51/49 3/2/2
f 51/48/46 52/55/53 3/2/2
f 53/50/48 54/57/55 3/2/2
f 55/52/50 56/59/57 3/2/2
f 58/54/52 59/69/67 3/2/2
f 60/56/54 61/61/59 3/2/2
f 62/58/56 4/3/3 3/2/2
f 63/60/58 57/53/51 3/2/2
f 64/62/60 11/8/8 3/2/2
f 66/64/62 23/17/17 14/10/10
f 67/66/64 18/13/13 14/10/10
f 68/68/66 65/63/61 3/2/2
f 70/70/68 9/199/7 11/71/8
f 71/73/70 72/202/83 56/74/57
f 73/76/71 5/4/4 8/6/6
f 69/72/69 11/71/8 64/78/60
f 75/80/73 71/73/70 55/75/50
f 73/76/71 2/77/38 1/82/1
f 74/79/72 64/78/60 65/84/61
f 78/86/76 75/80/73 57/81/51
f 79/88/77 76/83/74 1/82/1
f 80/90/78 77/85/75 65/84/61
f 81/92/79 78/86/76 63/87/58
f 82/94/80 79/88/77 4/89/3
f 83/96/81 80/90/78 68/91/66
f 84/98/82 81/92/79 61/93/59
f 85/100/83 34/203/33 33/101/26
f 83/96/81 59/97/67 58/103/52
f 84/98/82 60/99/54 54/105/55
f 87/104/85 58/103/52 52/107/53
f 88/106/86 54/105/55 53/109/48
f 89/108/87 52/107/53 51/111/46
f 90/110/88 53/109/48 50/113/49
f 91/115/89 51/204/46 48/116/47
f 94/118/92 92/114/90 50/113/49
f 95/120/93 93/117/91 48/116/47
f 96/122/94 94/118/92 49/119/44
f 97/124/95 95/120/93 47/121/42
f 98/126/96 96/122/94 46/123/45
f 97/124/95 44/125/43 43/128/39
f 98/126/96 45/127/40 10/130/41
f 23/132/17 66/141/62 102/133/99
f 103/135/101 19/195/14 17/136/15
f 103/135/101 104/137/98 100/138/98
f 6/139/100 101/134/100 102/133/99
f 17/136/15 16/205/12 105/140/102
f 66/141/62 13/147/63 106/142/95
f 16/143/12 18/149/13 107/144/94
f 12/146/9 108/151/103 106/142/95
f 67/148/64 109/153/104 107/144/94
f 15/150/11 110/155/91 108/151/103
f 41/152/65 111/157/90 109/153/104
f 15/150/11 42/206/36 112/154/89
f 40/156/34 113/162/105 111/157/90
f 42/158/36 38/164/37 114/159/87
f 36/161/35 115/166/106 113/162/105
f 37/163/30 116/168/107 114/159/87
f 35/165/28 117/171/108 115/166/106
f 32/167/31 118/173/81 116/168/107
f 85/100/83 86/102/84 82/94/80
f 29/170/29 119/176/79 117/171/108
f 31/172/24 120/178/78 118/173/81
f 33/101/26 27/179/27 121/174/77
f 29/170/29 28/181/22 122/175/109
f 31/172/24 25/183/25 123/177/75
f 27/179/27 26/185/20 124/180/74
f 28/181/22 30/188/23 125/182/110
f 25/183/25 24/189/18 126/184/111
f 26/185/20 22/192/21 127/186/112
f 39/187/32 128/194/113 125/182/110
f 24/189/18 20/196/19 129/190/69
f 21/191/16 130/197/4 127/186/112
f 34/193/33 85/207/83 128/194/113
f 19/195/14 103/135/101 129/190/69
f 23/132/17 101/134/100 130/197/4
f 56/198/57 72/169/83 82/94/80
f 6/139/100 99/129/97 43/128/39
f 9/199/7 70/70/68 100/138/98
f 105/145/102 98/126/96 100/131/98
f 102/133/99 106/142/95 97/124/95
f 107/144/94 96/122/94 98/126/96
f 108/151/103 95/120/93 97/124/95
f 107/144/94 109/153/104 94/118/92
f 110/155/91 93/117/91 95/120/93
f 109/153/104 111/157/90 92/114/90
f 110/155/91 112/154/89 91/115/89
f 111/157/90 113/162/105 90/110/88
f 112/160/89 114/159/87 89/108/87
f 113/162/105 115/166/106 88/106/86
f 114/159/87 116/168/107 87/104/85
f 115/166/106 117/171/108 84/98/82
f 116/168/107 118/173/81 83/96/81
f 117/171/108 119/176/79 81/92/79
f 120/178/78 80/90/78 83/96/81
f 121/174/77 79/88/77 82/94/80
f 122/175/109 78/86/76 81/92/79
f 123/177/75 77/85/75 80/90/78
f 124/180/74 76/83/74 79/88/77
f 125/182/110 75/80/73 78/86/76
f 126/184/111 74/79/72 77/85/75
f 127/186/112 73/76/71 76/83/74
f 125/182/110 128/194/113 71/73/70
f 129/190/69 69/72/69 74/79/72
f 127/186/112 130/197/4 5/4/4
f 128/194/113 85/207/83 72/202/83
f 129/190/69 103/135/101 70/70/68
f 101/134/100 6/139/100 5/4/4
