# Blender v2.82 (sub 7) OBJ File: 'BASE_25.blend'
# www.blender.org
mtllib BASE_25.mtl
o Circle
v 0.000000 0.000000 -0.490000
v -0.095594 0.000000 -0.480585
v -0.187515 0.000000 -0.452701
v -0.272229 0.000000 -0.407420
v -0.346482 0.000000 -0.346482
v -0.407420 0.000000 -0.272229
v -0.452701 0.000000 -0.187515
v -0.480585 0.000000 -0.095594
v -0.490000 0.000000 -0.000000
v -0.480585 0.000000 0.095594
v -0.452701 0.000000 0.187515
v -0.407420 0.000000 0.272229
v -0.346482 0.000000 0.346482
v -0.272229 0.000000 0.407420
v -0.187515 0.000000 0.452701
v -0.095594 0.000000 0.480585
v 0.000000 0.000000 0.490000
v 0.095594 0.000000 0.480585
v 0.187515 0.000000 0.452701
v 0.272230 0.000000 0.407420
v 0.346483 0.000000 0.346482
v 0.407420 0.000000 0.272229
v 0.452701 0.000000 0.187515
v 0.480585 0.000000 0.095594
v 0.490000 0.000000 -0.000000
v 0.480585 0.000000 -0.095595
v 0.452701 0.000000 -0.187515
v 0.407420 0.000000 -0.272230
v 0.346482 0.000000 -0.346483
v 0.272229 0.000000 -0.407420
v 0.187514 0.000000 -0.452701
v 0.095594 0.000000 -0.480585
v -0.000000 0.127400 -0.440136
v -0.085866 0.127400 -0.431678
v -0.168433 0.127400 -0.406632
v -0.244526 0.127400 -0.365959
v -0.311223 0.127400 -0.311223
v -0.365959 0.127400 -0.244526
v -0.406632 0.127400 -0.168433
v -0.431678 0.127400 -0.085866
v -0.440136 0.127400 -0.000000
v -0.431678 0.127400 0.085866
v -0.406632 0.127400 0.168432
v -0.365959 0.127400 0.244526
v -0.311223 0.127400 0.311223
v -0.244526 0.127400 0.365959
v -0.168433 0.127400 0.406632
v -0.085866 0.127400 0.431678
v 0.000000 0.127400 0.440136
v 0.085866 0.127400 0.431678
v 0.168433 0.127400 0.406632
v 0.244526 0.127400 0.365959
v 0.311223 0.127400 0.311223
v 0.365959 0.127400 0.244526
v 0.406632 0.127400 0.168432
v 0.431679 0.127400 0.085866
v 0.440136 0.127400 -0.000000
v 0.431678 0.127400 -0.085867
v 0.406632 0.127400 -0.168433
v 0.365959 0.127400 -0.244527
v 0.311222 0.127400 -0.311223
v 0.244526 0.127400 -0.365960
v 0.168432 0.127400 -0.406632
v 0.085866 0.127400 -0.431679
v -0.000000 0.127400 -0.000000
v -0.000000 0.000000 -0.000000
v 0.368441 0.119773 -0.246185
v 0.409390 0.119773 -0.169575
v -0.169575 0.119773 0.409390
v -0.246185 0.119773 0.368441
v -0.086449 0.119773 -0.434606
v -0.000000 0.119773 -0.443121
v 0.313333 0.119773 -0.313334
v -0.086448 0.119773 0.434606
v -0.169575 0.119773 -0.409390
v 0.246184 0.119773 -0.368442
v 0.000000 0.119773 0.443121
v -0.246185 0.119773 -0.368441
v 0.169574 0.119773 -0.409390
v 0.086449 0.119773 0.434606
v -0.313334 0.119773 -0.313334
v 0.086448 0.119773 -0.434606
v 0.169575 0.119773 0.409390
v -0.368441 0.119773 -0.246185
v 0.246185 0.119773 0.368441
v -0.409390 0.119773 -0.169575
v 0.313334 0.119773 0.313333
v -0.434606 0.119773 -0.086449
v 0.368442 0.119773 0.246184
v -0.443121 0.119773 -0.000000
v 0.409390 0.119773 0.169575
v -0.434606 0.119773 0.086448
v 0.434606 0.119773 0.086448
v -0.409390 0.119773 0.169575
v 0.443121 0.119773 -0.000000
v -0.368441 0.119773 0.246185
v 0.434606 0.119773 -0.086449
v -0.313334 0.119773 0.313334
v 0.449049 0.010098 -0.186003
v -0.270034 0.010098 0.404134
v -0.000000 0.010098 -0.486048
v 0.404134 0.010098 -0.270034
v -0.186002 0.010098 0.449050
v -0.094823 0.010098 -0.476708
v 0.343687 0.010098 -0.343688
v -0.094823 0.010098 0.476709
v -0.186002 0.010098 -0.449050
v 0.270033 0.010098 -0.404134
v 0.000000 0.010098 0.486048
v -0.270034 0.010098 -0.404134
v 0.186002 0.010098 -0.449050
v 0.094823 0.010098 0.476708
v -0.343688 0.010098 -0.343688
v 0.094822 0.010098 -0.476709
v 0.186003 0.010098 0.449049
v -0.404134 0.010098 -0.270034
v 0.270034 0.010098 0.404134
v -0.449050 0.010098 -0.186002
v 0.343688 0.010098 0.343687
v -0.476708 0.010098 -0.094823
v 0.404134 0.010098 0.270033
v -0.486048 0.010098 -0.000000
v 0.449050 0.010098 0.186002
v -0.476709 0.010098 0.094823
v 0.476709 0.010098 0.094823
v -0.449050 0.010098 0.186002
v 0.486048 0.010098 -0.000000
v -0.404134 0.010098 0.270034
v 0.476708 0.010098 -0.094824
v -0.343688 0.010098 0.343688
vt 0.237460 0.526805
vt 0.186571 0.516683
vt 0.263403 0.263402
vt 0.289346 0.526805
vt 0.605130 0.489286
vt 0.612794 0.446102
vt 0.617339 0.446968
vt 0.609726 0.489861
vt 0.619259 0.336869
vt 0.609592 0.297855
vt 0.614156 0.297095
vt 0.623758 0.335846
vt 0.708754 0.565857
vt 0.710467 0.518967
vt 0.715090 0.519294
vt 0.713389 0.565868
vt 0.623365 0.407323
vt 0.627839 0.408450
vt 0.602933 0.254505
vt 0.607542 0.254037
vt 0.715539 0.473101
vt 0.720128 0.473737
vt 0.734861 0.728481
vt 0.723776 0.694875
vt 0.728309 0.694017
vt 0.739319 0.727396
vt 0.599538 0.208485
vt 0.604170 0.208327
vt 0.723776 0.430023
vt 0.728309 0.430949
vt 0.715539 0.655534
vt 0.720128 0.654941
vt 0.599538 0.161563
vt 0.604170 0.161721
vt 0.734861 0.391388
vt 0.739319 0.392574
vt 0.710467 0.611970
vt 0.715090 0.611671
vt 0.602933 0.115543
vt 0.607542 0.116011
vt 0.734861 0.354124
vt 0.723776 0.315488
vt 0.728309 0.314562
vt 0.739319 0.352937
vt 0.609592 0.072193
vt 0.614156 0.072953
vt 0.715539 0.272410
vt 0.720128 0.271774
vt 0.619259 0.033179
vt 0.623758 0.034202
vt 0.710467 0.226545
vt 0.715090 0.226218
vt 0.631563 0.000000
vt 0.635979 0.001246
vt 0.708754 0.179654
vt 0.713389 0.179643
vt 0.616309 0.710931
vt 0.607551 0.671703
vt 0.612131 0.671049
vt 0.620830 0.710013
vt 0.710467 0.133541
vt 0.715090 0.133840
vt 0.601901 0.628210
vt 0.606519 0.627849
vt 0.715539 0.089977
vt 0.720128 0.090570
vt 0.599576 0.582124
vt 0.604210 0.582073
vt 0.723776 0.050636
vt 0.728309 0.051494
vt 0.600667 0.535214
vt 0.605293 0.535480
vt 0.734861 0.017030
vt 0.739319 0.018115
vt 0.631563 0.370048
vt 0.635979 0.368801
vt 0.289345 0.000000
vt 0.340234 0.010122
vt 0.237460 0.000000
vt 0.213295 0.526805
vt 0.259900 0.526805
vt 0.236598 0.763403
vt 0.167585 0.535897
vt 0.085776 0.947180
vt 0.052820 0.914225
vt 0.124527 0.973073
vt 0.026928 0.875473
vt 0.009092 0.832416
vt 0.387420 0.579625
vt 0.420375 0.612580
vt 0.348669 0.553733
vt 0.000000 0.786705
vt 0.000000 0.740100
vt 0.446268 0.651332
vt 0.464103 0.694390
vt 0.420375 0.914225
vt 0.387420 0.947180
vt 0.446268 0.875473
vt 0.009092 0.694390
vt 0.026928 0.651332
vt 0.473195 0.740100
vt 0.473195 0.786705
vt 0.348669 0.973072
vt 0.305611 0.990908
vt 0.052820 0.612580
vt 0.085775 0.579625
vt 0.464103 0.832415
vt 0.259900 1.000000
vt 0.213295 1.000000
vt 0.124527 0.553732
vt 0.138635 0.496827
vt 0.095493 0.468001
vt 0.058805 0.431312
vt 0.029978 0.388171
vt 0.388170 0.029978
vt 0.431312 0.058804
vt 0.010122 0.340234
vt 0.000000 0.289346
vt 0.468001 0.095493
vt 0.496827 0.138635
vt 0.000000 0.237460
vt 0.010122 0.186571
vt 0.516683 0.186571
vt 0.526805 0.237460
vt 0.431312 0.468001
vt 0.388170 0.496827
vt 0.468001 0.431312
vt 0.029978 0.138635
vt 0.058804 0.095493
vt 0.526805 0.289345
vt 0.516683 0.340234
vt 0.340235 0.516682
vt 0.496827 0.388170
vt 0.186571 0.010122
vt 0.138635 0.029978
vt 0.305611 0.535897
vt 0.167585 0.990908
vt 0.095493 0.058804
vt 0.568064 0.387972
vt 0.554568 0.351579
vt 0.534136 0.531395
vt 0.539031 0.481017
vt 0.658591 0.038297
vt 0.670750 0.001436
vt 0.532940 0.582848
vt 0.649556 0.081449
vt 0.535490 0.633399
vt 0.643993 0.129233
vt 0.541687 0.681106
vt 0.642114 0.179814
vt 0.551293 0.724134
vt 0.643993 0.231247
vt 0.563940 0.760831
vt 0.627839 0.744387
vt 0.649556 0.281556
vt 0.543964 0.061262
vt 0.554568 0.018469
vt 0.658591 0.328807
vt 0.536660 0.108812
vt 0.643993 0.616278
vt 0.642114 0.565697
vt 0.670750 0.371185
vt 0.532937 0.159290
vt 0.649556 0.664062
vt 0.658591 0.416704
vt 0.670749 0.374326
vt 0.532937 0.210757
vt 0.658591 0.707214
vt 0.649556 0.463956
vt 0.536660 0.261236
vt 0.670750 0.744075
vt 0.643993 0.514264
vt 0.543964 0.308785
vt 0.547438 0.433650
vt 0.559033 0.391114
vt 0.532946 0.480255
vt 0.541421 0.432503
vt 0.548612 0.352933
vt 0.537922 0.309792
vt 0.635979 0.565683
vt 0.637873 0.513831
vt 0.553110 0.389622
vt 0.530559 0.261855
vt 0.643481 0.463114
vt 0.664847 0.745511
vt 0.652589 0.708350
vt 0.526805 0.210967
vt 0.652589 0.415478
vt 0.643481 0.664847
vt 0.526805 0.159081
vt 0.664847 0.372756
vt 0.637873 0.616674
vt 0.530559 0.108192
vt 0.652589 0.330033
vt 0.537922 0.060256
vt 0.643481 0.282398
vt 0.548612 0.017114
vt 0.637873 0.231680
vt 0.558057 0.762345
vt 0.545308 0.725350
vt 0.635979 0.179829
vt 0.535623 0.681972
vt 0.637873 0.128837
vt 0.529375 0.633877
vt 0.643481 0.080664
vt 0.526805 0.582915
vt 0.652589 0.037161
vt 0.528010 0.531043
vt 0.664847 0.000000
vt 0.562218 0.389622
vn 0.4673 -0.5409 -0.6993
vn 0.5947 -0.5409 -0.5947
vn 0.0000 -1.0000 0.0000
vn 0.3218 -0.5409 -0.7770
vn 0.8603 0.3645 -0.3563
vn 0.7743 0.3645 -0.5173
vn 0.4879 0.8097 -0.3260
vn 0.5421 0.8097 -0.2246
vn -0.5173 0.3645 0.7743
vn -0.3563 0.3645 0.8603
vn -0.2246 0.8097 0.5421
vn -0.3260 0.8097 0.4879
vn 0.0000 0.3645 -0.9312
vn -0.1816 0.3645 -0.9133
vn -0.1145 0.8097 -0.5755
vn 0.0000 0.8097 -0.5868
vn 0.6584 0.3645 -0.6584
vn 0.4149 0.8097 -0.4149
vn -0.1816 0.3645 0.9133
vn -0.1145 0.8097 0.5755
vn -0.3563 0.3645 -0.8603
vn -0.2246 0.8097 -0.5421
vn 0.5173 0.3645 -0.7743
vn 0.3260 0.8097 -0.4879
vn 0.0000 0.3645 0.9312
vn 0.0000 0.8097 0.5868
vn -0.5173 0.3645 -0.7743
vn -0.3260 0.8097 -0.4879
vn 0.3563 0.3645 -0.8603
vn 0.2246 0.8097 -0.5421
vn 0.1816 0.3645 0.9133
vn 0.1145 0.8097 0.5755
vn -0.6584 0.3645 -0.6584
vn -0.4149 0.8097 -0.4149
vn 0.1816 0.3645 -0.9133
vn 0.1145 0.8097 -0.5755
vn 0.3563 0.3645 0.8603
vn 0.2246 0.8097 0.5421
vn -0.7743 0.3645 -0.5173
vn -0.4879 0.8097 -0.3260
vn 0.5173 0.3645 0.7743
vn 0.3260 0.8097 0.4879
vn -0.8603 0.3645 -0.3563
vn -0.5421 0.8097 -0.2246
vn 0.6584 0.3645 0.6584
vn 0.4149 0.8097 0.4149
vn -0.9133 0.3645 -0.1816
vn -0.5755 0.8097 -0.1145
vn 0.7743 0.3645 0.5173
vn 0.4879 0.8097 0.3260
vn -0.9312 0.3645 0.0000
vn -0.5868 0.8097 0.0000
vn 0.8603 0.3645 0.3563
vn 0.5421 0.8097 0.2246
vn -0.9133 0.3645 0.1816
vn -0.5755 0.8097 0.1145
vn 0.9133 0.3645 0.1816
vn 0.5755 0.8097 0.1145
vn -0.8603 0.3645 0.3563
vn -0.5421 0.8097 0.2246
vn 0.9312 0.3645 0.0000
vn 0.5868 0.8097 0.0000
vn -0.7743 0.3645 0.5173
vn -0.4879 0.8097 0.3260
vn 0.9133 0.3645 -0.1816
vn 0.5755 0.8097 -0.1145
vn -0.6584 0.3645 0.6584
vn -0.4149 0.8097 0.4149
vn -0.4673 -0.5409 0.6993
vn -0.5947 -0.5409 0.5947
vn -0.3218 -0.5409 0.7770
vn 0.0000 1.0000 0.0000
vn 0.6993 -0.5409 -0.4673
vn 0.7770 -0.5409 -0.3218
vn 0.8249 -0.5409 -0.1641
vn 0.8411 -0.5409 0.0000
vn -0.6993 -0.5409 0.4673
vn -0.7770 -0.5409 0.3218
vn 0.8249 -0.5409 0.1641
vn 0.7770 -0.5409 0.3218
vn -0.8249 -0.5409 0.1641
vn -0.8411 -0.5409 0.0000
vn 0.6993 -0.5409 0.4673
vn 0.5947 -0.5409 0.5947
vn -0.8249 -0.5409 -0.1641
vn -0.7770 -0.5409 -0.3218
vn -0.1641 -0.5409 -0.8249
vn 0.0000 -0.5409 -0.8411
vn -0.3218 -0.5409 -0.7770
vn 0.4673 -0.5409 0.6993
vn 0.3218 -0.5409 0.7770
vn -0.6993 -0.5409 -0.4673
vn -0.5947 -0.5409 -0.5947
vn 0.1641 -0.5409 -0.8249
vn -0.4673 -0.5409 -0.6993
vn -0.1641 -0.5409 0.8249
vn 0.0000 -0.5409 0.8411
vn 0.1641 -0.5409 0.8249
vn 0.6584 0.3645 -0.6585
usemtl None
s 1
f 30/1/1 29/2/2 66/3/3 31/4/4
f 68/5/5 67/6/6 60/7/7 59/8/8
f 70/9/9 69/10/10 47/11/11 46/12/12
f 72/13/13 71/14/14 34/15/15 33/16/16
f 67/6/6 73/17/17 61/18/18 60/7/7
f 69/10/10 74/19/19 48/20/20 47/11/11
f 71/14/14 75/21/21 35/22/22 34/15/15
f 73/23/17 76/24/23 62/25/24 61/26/18
f 74/19/19 77/27/25 49/28/26 48/20/20
f 75/21/21 78/29/27 36/30/28 35/22/22
f 76/24/23 79/31/29 63/32/30 62/25/24
f 77/27/25 80/33/31 50/34/32 49/28/26
f 78/29/27 81/35/33 37/36/34 36/30/28
f 79/31/29 82/37/35 64/38/36 63/32/30
f 80/33/31 83/39/37 51/40/38 50/34/32
f 81/41/33 84/42/39 38/43/40 37/44/34
f 82/37/35 72/13/13 33/16/16 64/38/36
f 83/39/37 85/45/41 52/46/42 51/40/38
f 84/42/39 86/47/43 39/48/44 38/43/40
f 85/45/41 87/49/45 53/50/46 52/46/42
f 86/47/43 88/51/47 40/52/48 39/48/44
f 87/49/45 89/53/49 54/54/50 53/50/46
f 88/51/47 90/55/51 41/56/52 40/52/48
f 89/57/49 91/58/53 55/59/54 54/60/50
f 90/55/51 92/61/55 42/62/56 41/56/52
f 91/58/53 93/63/57 56/64/58 55/59/54
f 92/61/55 94/65/59 43/66/60 42/62/56
f 93/63/57 95/67/61 57/68/62 56/64/58
f 94/65/59 96/69/63 44/70/64 43/66/60
f 95/67/61 97/71/65 58/72/66 57/68/62
f 96/69/63 98/73/67 45/74/68 44/70/64
f 97/71/65 68/5/5 59/8/8 58/72/66
f 98/75/67 70/9/9 46/12/12 45/76/68
f 14/77/69 13/78/70 66/3/3 15/79/71
f 56/80/58 57/81/62 65/82/72 55/83/54
f 44/84/64 45/85/68 65/82/72 43/86/60
f 46/87/12 47/88/11 65/82/72 45/85/68
f 60/89/7 61/90/18 65/82/72 59/91/8
f 48/92/20 49/93/26 65/82/72 47/88/11
f 62/94/24 63/95/30 65/82/72 61/90/18
f 36/96/28 37/97/34 65/82/72 35/98/22
f 50/99/32 51/100/38 65/82/72 49/93/26
f 64/101/36 33/102/16 65/82/72 63/95/30
f 38/103/40 39/104/44 65/82/72 37/97/34
f 52/105/42 53/106/46 65/82/72 51/100/38
f 34/107/15 35/98/22 65/82/72 33/102/16
f 39/104/44 40/108/48 41/109/52 65/82/72
f 53/106/46 54/110/50 55/83/54 65/82/72
f 29/2/2 28/111/73 27/112/74 66/3/3
f 27/112/74 26/113/75 25/114/76 66/3/3
f 12/115/77 11/116/78 66/3/3 13/78/70
f 24/117/79 23/118/80 66/3/3 25/114/76
f 10/119/81 9/120/82 66/3/3 11/116/78
f 22/121/83 21/122/84 66/3/3 23/118/80
f 8/123/85 7/124/86 66/3/3 9/120/82
f 2/125/87 1/126/88 66/3/3 3/127/89
f 20/128/90 19/129/91 66/3/3 21/122/84
f 6/130/92 5/131/93 66/3/3 7/124/86
f 32/132/94 31/4/4 66/3/3 1/126/88
f 4/133/95 3/127/89 66/3/3 5/131/93
f 16/134/96 15/79/71 66/3/3 17/135/97
f 58/136/66 59/91/8 65/82/72 57/81/62
f 42/137/56 43/86/60 65/82/72 41/109/52
f 18/138/98 17/135/97 66/3/3 19/129/91
f 130/139/67 100/140/9 70/9/9 98/75/67
f 129/141/65 99/142/5 68/5/5 97/71/65
f 128/143/63 130/144/67 98/73/67 96/69/63
f 127/145/61 129/141/65 97/71/65 95/67/61
f 126/146/59 128/143/63 96/69/63 94/65/59
f 125/147/57 127/145/61 95/67/61 93/63/57
f 124/148/55 126/146/59 94/65/59 92/61/55
f 123/149/53 125/147/57 93/63/57 91/58/53
f 122/150/51 124/148/55 92/61/55 90/55/51
f 121/151/49 123/149/53 91/58/53 89/57/49
f 120/152/47 122/150/51 90/55/51 88/51/47
f 119/153/45 121/151/49 89/57/49 87/154/45
f 118/155/43 120/152/47 88/51/47 86/47/43
f 117/156/41 119/157/45 87/49/45 85/45/41
f 116/158/39 118/155/43 86/47/43 84/42/39
f 115/159/37 117/156/41 85/45/41 83/39/37
f 114/160/35 101/161/13 72/13/13 82/37/35
f 113/162/33 116/158/39 84/42/39 81/41/33
f 112/163/31 115/159/37 83/39/37 80/33/31
f 111/164/29 114/160/35 82/37/35 79/31/29
f 110/165/27 113/166/33 81/35/33 78/29/27
f 109/167/25 112/163/31 80/33/31 77/27/25
f 108/168/23 111/164/29 79/31/29 76/24/23
f 107/169/21 110/165/27 78/29/27 75/21/21
f 106/170/19 109/167/25 77/27/25 74/19/19
f 105/171/99 108/168/23 76/24/23 73/23/17
f 104/172/14 107/169/21 75/21/21 71/14/14
f 103/173/10 106/170/19 74/19/19 69/10/10
f 102/174/6 105/175/99 73/17/17 67/6/6
f 101/161/13 104/172/14 71/14/14 72/13/13
f 100/140/9 103/173/10 69/10/10 70/9/9
f 99/142/5 102/174/6 67/6/6 68/5/5
f 27/176/74 28/177/73 102/174/6 99/142/5
f 14/178/69 15/179/71 103/173/10 100/140/9
f 1/180/88 2/181/87 104/172/14 101/161/13
f 28/177/73 29/182/2 105/175/99 102/174/6
f 15/179/71 16/183/96 106/170/19 103/173/10
f 2/181/87 3/184/89 107/169/21 104/172/14
f 29/185/2 30/186/1 108/168/23 105/171/99
f 16/183/96 17/187/97 109/167/25 106/170/19
f 3/184/89 4/188/95 110/165/27 107/169/21
f 30/186/1 31/189/4 111/164/29 108/168/23
f 17/187/97 18/190/98 112/163/31 109/167/25
f 4/188/95 5/191/93 113/166/33 110/165/27
f 31/189/4 32/192/94 114/160/35 111/164/29
f 18/190/98 19/193/91 115/159/37 112/163/31
f 5/191/93 6/194/92 116/158/39 113/162/33
f 32/192/94 1/180/88 101/161/13 114/160/35
f 19/193/91 20/195/90 117/156/41 115/159/37
f 6/194/92 7/196/86 118/155/43 116/158/39
f 20/195/90 21/197/84 119/157/45 117/156/41
f 7/196/86 8/198/85 120/152/47 118/155/43
f 21/199/84 22/200/83 121/151/49 119/153/45
f 8/198/85 9/201/82 122/150/51 120/152/47
f 22/200/83 23/202/80 123/149/53 121/151/49
f 9/201/82 10/203/81 124/148/55 122/150/51
f 23/202/80 24/204/79 125/147/57 123/149/53
f 10/203/81 11/205/78 126/146/59 124/148/55
f 24/204/79 25/206/76 127/145/61 125/147/57
f 11/205/78 12/207/77 128/143/63 126/146/59
f 25/206/76 26/208/75 129/141/65 127/145/61
f 12/207/77 13/209/70 130/144/67 128/143/63
f 26/208/75 27/176/74 99/142/5 129/141/65
f 13/210/70 14/178/69 100/140/9 130/139/67
