# Blender v2.82 (sub 7) OBJ File: 'BASE_60.blend'
# www.blender.org
mtllib BASE_60.mtl
o Circle
v 0.000000 0.000000 -1.176000
v -0.229426 0.000000 -1.153403
v -0.450036 0.000000 -1.086482
v -0.653351 0.000000 -0.977808
v -0.831558 0.000000 -0.831558
v -0.977808 0.000000 -0.653351
v -1.086482 0.000000 -0.450036
v -1.153403 0.000000 -0.229426
v -1.176000 0.000000 -0.000000
v -1.153404 0.000000 0.229426
v -1.086482 0.000000 0.450036
v -0.977808 0.000000 0.653351
v -0.831558 0.000000 0.831558
v -0.653351 0.000000 0.977808
v -0.450036 0.000000 1.086482
v -0.229426 0.000000 1.153404
v 0.000000 0.000000 1.176000
v 0.229427 0.000000 1.153403
v 0.450036 0.000000 1.086482
v 0.653351 0.000000 0.977808
v 0.831558 0.000000 0.831557
v 0.977809 0.000000 0.653350
v 1.086483 0.000000 0.450035
v 1.153404 0.000000 0.229425
v 1.176000 0.000000 -0.000001
v 1.153403 0.000000 -0.229427
v 1.086482 0.000000 -0.450037
v 0.977807 0.000000 -0.653352
v 0.831556 0.000000 -0.831559
v 0.653349 0.000000 -0.977809
v 0.450034 0.000000 -1.086483
v 0.229424 0.000000 -1.153404
v -0.000000 0.127400 -1.125328
v -0.219541 0.127400 -1.103705
v -0.430644 0.127400 -1.039667
v -0.625199 0.127400 -0.935676
v -0.795727 0.127400 -0.795727
v -0.935676 0.127400 -0.625199
v -1.039667 0.127400 -0.430644
v -1.103705 0.127400 -0.219541
v -1.125328 0.127400 -0.000000
v -1.103705 0.127400 0.219540
v -1.039667 0.127400 0.430644
v -0.935676 0.127400 0.625199
v -0.795727 0.127400 0.795727
v -0.625199 0.127400 0.935676
v -0.430644 0.127400 1.039667
v -0.219540 0.127400 1.103705
v 0.000000 0.127400 1.125328
v 0.219541 0.127400 1.103705
v 0.430645 0.127400 1.039667
v 0.625199 0.127400 0.935675
v 0.795727 0.127400 0.795726
v 0.935676 0.127400 0.625198
v 1.039668 0.127400 0.430643
v 1.103705 0.127400 0.219540
v 1.125328 0.127400 -0.000001
v 1.103705 0.127400 -0.219542
v 1.039667 0.127400 -0.430645
v 0.935675 0.127400 -0.625200
v 0.795726 0.127400 -0.795728
v 0.625197 0.127400 -0.935677
v 0.430643 0.127400 -1.039668
v 0.219539 0.127400 -1.103705
v -0.000000 0.127400 -0.000000
v -0.000000 0.000000 -0.000000
v 1.042351 0.120094 -0.431757
v -0.626813 0.120094 0.938092
v -0.000000 0.120094 -1.128233
v 0.938091 0.120094 -0.626814
v -0.431756 0.120094 1.042352
v -0.220107 0.120094 -1.106555
v 0.797780 0.120094 -0.797782
v -0.220107 0.120094 1.106555
v -0.431756 0.120094 -1.042352
v 0.626812 0.120094 -0.938093
v 0.000000 0.120094 1.128234
v -0.626813 0.120094 -0.938092
v 0.431755 0.120094 -1.042352
v 0.220108 0.120094 1.106555
v -0.797781 0.120094 -0.797781
v 0.220106 0.120094 -1.106555
v 0.431757 0.120094 1.042351
v -0.938092 0.120094 -0.626813
v 0.626813 0.120094 0.938091
v -1.042352 0.120094 -0.431756
v 0.797782 0.120094 0.797781
v -1.106555 0.120094 -0.220107
v 0.938092 0.120094 0.626812
v -1.128233 0.120094 -0.000000
v 1.042352 0.120094 0.431755
v -1.106555 0.120094 0.220107
v 1.106555 0.120094 0.220106
v -1.042352 0.120094 0.431756
v 1.128234 0.120094 -0.000001
v -0.938092 0.120094 0.626813
v 1.106555 0.120094 -0.220109
v -0.797781 0.120094 0.797781
v 1.082804 0.010008 -0.448514
v -0.651139 0.010008 0.974499
v -0.000000 0.010008 -1.172019
v 0.974498 0.010008 -0.651140
v -0.448512 0.010008 1.082805
v -0.228650 0.010008 -1.149499
v 0.828742 0.010008 -0.828744
v -0.228649 0.010008 1.149500
v -0.448512 0.010008 -1.082805
v 0.651138 0.010008 -0.974499
v 0.000000 0.010008 1.172019
v -0.651139 0.010008 -0.974499
v 0.448511 0.010008 -1.082806
v 0.228650 0.010008 1.149499
v -0.828743 0.010008 -0.828743
v 0.228648 0.010008 -1.149500
v 0.448513 0.010008 1.082805
v -0.974499 0.010008 -0.651139
v 0.651140 0.010008 0.974498
v -1.082805 0.010008 -0.448512
v 0.828743 0.010008 0.828742
v -1.149499 0.010008 -0.228650
v 0.974499 0.010008 0.651138
v -1.172019 0.010008 -0.000000
v 1.082805 0.010008 0.448512
v -1.149500 0.010008 0.228650
v 1.149500 0.010008 0.228649
v -1.082805 0.010008 0.448512
v 1.172019 0.010008 -0.000001
v -0.974499 0.010008 0.651139
v 1.149499 0.010008 -0.228651
v -0.828743 0.010008 0.828743
vt 0.230340 0.511009
vt 0.180977 0.501191
vt 0.255505 0.255505
vt 0.280670 0.511009
vt 0.518178 0.272739
vt 0.521258 0.319080
vt 0.515674 0.319490
vt 0.512585 0.272991
vt 0.280670 0.000000
vt 0.330033 0.009819
vt 0.230340 0.000000
vt 0.360307 0.972174
vt 0.315812 0.990604
vt 0.244495 0.755505
vt 0.400352 0.945417
vt 0.315812 0.520405
vt 0.360307 0.538836
vt 0.268576 0.511009
vt 0.400352 0.565593
vt 0.434407 0.599648
vt 0.173178 0.990604
vt 0.128683 0.972174
vt 0.220414 1.000000
vt 0.461164 0.639693
vt 0.479595 0.684188
vt 0.088638 0.945416
vt 0.054583 0.911361
vt 0.009396 0.684188
vt 0.027826 0.639693
vt 0.000000 0.731424
vt 0.488991 0.731424
vt 0.488991 0.779585
vt 0.027826 0.871316
vt 0.009396 0.826821
vt 0.054583 0.599648
vt 0.088639 0.565593
vt 0.479595 0.826821
vt 0.461164 0.871317
vt 0.000000 0.779585
vt 0.128683 0.538836
vt 0.173179 0.520405
vt 0.434407 0.911361
vt 0.134478 0.481930
vt 0.092630 0.453968
vt 0.057041 0.418380
vt 0.029079 0.376532
vt 0.376532 0.029079
vt 0.418379 0.057041
vt 0.009819 0.330033
vt 0.000000 0.280670
vt 0.453968 0.092630
vt 0.481930 0.134478
vt 0.000000 0.230340
vt 0.009819 0.180977
vt 0.501190 0.180977
vt 0.511009 0.230340
vt 0.418379 0.453968
vt 0.376532 0.481930
vt 0.453968 0.418379
vt 0.029079 0.134478
vt 0.057041 0.092630
vt 0.511009 0.280670
vt 0.501190 0.330033
vt 0.330033 0.501190
vt 0.481930 0.376532
vt 0.180977 0.009819
vt 0.134478 0.029079
vt 0.268576 1.000000
vt 0.220415 0.511009
vt 0.092630 0.057041
vt 0.602312 0.526645
vt 0.602107 0.576804
vt 0.596507 0.576867
vt 0.596713 0.526537
vt 0.531418 0.000672
vt 0.525728 0.036140
vt 0.520160 0.035589
vt 0.525869 0.000000
vt 0.516609 0.223543
vt 0.511009 0.223628
vt 0.604082 0.477456
vt 0.598489 0.477181
vt 0.611226 0.352726
vt 0.616916 0.388194
vt 0.611367 0.388866
vt 0.605658 0.353277
vt 0.516609 0.173383
vt 0.511009 0.173298
vt 0.607350 0.431127
vt 0.601769 0.430695
vt 0.606756 0.311019
vt 0.601172 0.311429
vt 0.518178 0.124187
vt 0.512585 0.123935
vt 0.611991 0.389440
vt 0.606425 0.388866
vt 0.603676 0.264678
vt 0.598083 0.264930
vt 0.521258 0.077846
vt 0.515674 0.077436
vt 0.687528 0.707946
vt 0.691999 0.749653
vt 0.686431 0.750204
vt 0.681945 0.708356
vt 0.602107 0.215482
vt 0.596507 0.215567
vt 0.586980 0.042204
vt 0.591044 0.042607
vt 0.586752 0.082651
vt 0.582676 0.082352
vt 0.684449 0.661605
vt 0.678855 0.661857
vt 0.602107 0.165322
vt 0.596507 0.165237
vt 0.682879 0.612409
vt 0.677280 0.612494
vt 0.603676 0.116127
vt 0.598083 0.115874
vt 0.682879 0.562249
vt 0.677280 0.562164
vt 0.606756 0.069785
vt 0.601172 0.069375
vt 0.684449 0.513053
vt 0.678855 0.512801
vt 0.611226 0.028079
vt 0.605658 0.027528
vt 0.687528 0.466712
vt 0.681945 0.466302
vt 0.610667 0.714084
vt 0.616212 0.749575
vt 0.610660 0.750224
vt 0.605096 0.714613
vt 0.691999 0.425006
vt 0.686431 0.424454
vt 0.606366 0.672360
vt 0.600781 0.672747
vt 0.697689 0.389537
vt 0.692140 0.388866
vt 0.603476 0.626006
vt 0.597881 0.626236
vt 0.582676 0.314574
vt 0.586752 0.314275
vt 0.591044 0.354320
vt 0.586980 0.354722
vt 0.663702 0.576119
vt 0.667790 0.576073
vt 0.669104 0.623315
vt 0.665020 0.623482
vt 0.525728 0.360787
vt 0.671879 0.667822
vt 0.667803 0.668104
vt 0.596507 0.388375
vt 0.592457 0.388866
vt 0.676008 0.707884
vt 0.671942 0.708270
vt 0.757315 0.431472
vt 0.753023 0.471517
vt 0.748947 0.471218
vt 0.753250 0.431070
vt 0.682005 0.000490
vt 0.676542 0.034546
vt 0.672478 0.034143
vt 0.677955 0.000000
vt 0.750066 0.516012
vt 0.745983 0.515828
vt 0.672250 0.074590
vt 0.668174 0.074291
vt 0.748559 0.563248
vt 0.744471 0.563186
vt 0.669293 0.119086
vt 0.665210 0.118901
vt 0.748559 0.611410
vt 0.744471 0.611472
vt 0.667786 0.166322
vt 0.663699 0.166259
vt 0.750066 0.658646
vt 0.745983 0.658830
vt 0.667786 0.214483
vt 0.663699 0.214545
vt 0.753023 0.703141
vt 0.748947 0.703440
vt 0.669293 0.261719
vt 0.665210 0.261903
vt 0.757315 0.743186
vt 0.753250 0.743588
vt 0.583795 0.127147
vt 0.579712 0.126962
vt 0.672250 0.306214
vt 0.668174 0.306513
vt 0.677280 0.396173
vt 0.672824 0.436200
vt 0.668750 0.435884
vt 0.673217 0.395754
vt 0.582288 0.174383
vt 0.578201 0.174320
vt 0.676542 0.346259
vt 0.672478 0.346661
vt 0.669686 0.480683
vt 0.665604 0.480482
vt 0.582288 0.222544
vt 0.578201 0.222606
vt 0.682005 0.380314
vt 0.677955 0.380805
vt 0.667986 0.527912
vt 0.663899 0.527833
vt 0.583795 0.269780
vt 0.579712 0.269964
vt 0.596507 0.008552
vt 0.592457 0.008061
vt 0.520160 0.361338
vt 0.531418 0.396255
vt 0.677280 0.742435
vn 0.4681 -0.5387 -0.7005
vn 0.5958 -0.5387 -0.5958
vn 0.0000 -1.0000 0.0000
vn 0.3224 -0.5387 -0.7784
vn 0.7726 0.3696 -0.5162
vn 0.8585 0.3696 -0.3556
vn 0.7784 -0.5387 -0.3224
vn 0.7005 -0.5387 -0.4681
vn -0.4681 -0.5387 0.7005
vn -0.5958 -0.5387 0.5958
vn -0.3224 -0.5387 0.7784
vn 0.5733 0.8114 0.1140
vn 0.5845 0.8113 0.0000
vn 0.0000 1.0000 0.0000
vn 0.5400 0.8114 0.2237
vn -0.4860 0.8113 0.3247
vn -0.4133 0.8114 0.4133
vn -0.5400 0.8114 0.2237
vn -0.3247 0.8114 0.4860
vn -0.2237 0.8114 0.5400
vn 0.4860 0.8113 -0.3247
vn 0.4133 0.8113 -0.4133
vn 0.5400 0.8113 -0.2237
vn -0.1140 0.8114 0.5733
vn 0.0000 0.8114 0.5845
vn 0.3247 0.8113 -0.4860
vn 0.2237 0.8114 -0.5400
vn -0.3247 0.8114 -0.4860
vn -0.4133 0.8114 -0.4133
vn -0.2237 0.8114 -0.5400
vn 0.1140 0.8114 0.5733
vn 0.2237 0.8114 0.5400
vn 0.1140 0.8114 -0.5733
vn 0.0000 0.8114 -0.5845
vn -0.4860 0.8114 -0.3247
vn -0.5400 0.8114 -0.2237
vn 0.3247 0.8114 0.4860
vn 0.4133 0.8114 0.4133
vn -0.1140 0.8114 -0.5733
vn -0.5733 0.8114 -0.1140
vn -0.5845 0.8114 0.0000
vn 0.4860 0.8114 0.3247
vn 0.8263 -0.5387 -0.1643
vn 0.8425 -0.5387 0.0000
vn -0.7005 -0.5387 0.4681
vn -0.7784 -0.5387 0.3224
vn 0.8263 -0.5387 0.1643
vn 0.7784 -0.5387 0.3224
vn -0.8263 -0.5387 0.1643
vn -0.8425 -0.5387 0.0000
vn 0.7005 -0.5387 0.4681
vn 0.5958 -0.5387 0.5958
vn -0.8263 -0.5386 -0.1643
vn -0.7784 -0.5387 -0.3224
vn -0.1643 -0.5387 -0.8263
vn 0.0000 -0.5387 -0.8425
vn -0.3224 -0.5387 -0.7784
vn 0.4681 -0.5387 0.7005
vn 0.3224 -0.5387 0.7784
vn -0.7005 -0.5387 -0.4681
vn -0.5958 -0.5387 -0.5958
vn 0.1643 -0.5387 -0.8263
vn -0.4681 -0.5387 -0.7005
vn -0.1643 -0.5387 0.8263
vn 0.0000 -0.5387 0.8425
vn 0.5733 0.8113 -0.1140
vn -0.5733 0.8114 0.1140
vn 0.1643 -0.5387 0.8263
vn -0.3556 0.3696 0.8585
vn -0.5162 0.3696 0.7726
vn -0.1812 0.3696 -0.9113
vn 0.0000 0.3696 -0.9292
vn 0.6570 0.3696 -0.6570
vn -0.1812 0.3696 0.9113
vn -0.3556 0.3696 -0.8585
vn 0.5162 0.3696 -0.7726
vn 0.0000 0.3696 0.9292
vn -0.5162 0.3696 -0.7726
vn 0.3556 0.3696 -0.8585
vn 0.1812 0.3696 0.9113
vn -0.6570 0.3696 -0.6570
vn 0.1812 0.3696 -0.9113
vn 0.3556 0.3696 0.8585
vn -0.7726 0.3696 -0.5162
vn 0.5162 0.3696 0.7726
vn -0.8585 0.3696 -0.3556
vn 0.6570 0.3696 0.6570
vn -0.9113 0.3696 -0.1812
vn 0.7726 0.3696 0.5162
vn -0.9292 0.3696 0.0000
vn 0.8585 0.3696 0.3556
vn -0.9113 0.3696 0.1812
vn 0.9113 0.3696 0.1812
vn -0.8585 0.3696 0.3556
vn 0.9292 0.3696 0.0000
vn -0.7726 0.3696 0.5162
vn 0.9113 0.3696 -0.1812
vn -0.6570 0.3696 0.6570
vn 0.8585 0.3695 -0.3556
vn 0.9113 0.3695 -0.1812
vn -0.7726 0.3695 0.5162
vn 0.9292 0.3695 0.0000
vn -0.8585 0.3695 0.3556
vn 0.9113 0.3695 0.1812
vn -0.8585 0.3695 -0.3556
vn -0.7726 0.3695 -0.5162
vn 0.3556 0.3695 -0.8585
vn 0.5162 0.3695 -0.7726
vn 0.6570 0.3695 -0.6570
vn 0.7726 0.3695 -0.5162
usemtl None
s 1
f 30/1/1 29/2/2 66/3/3 31/4/4
f 102/5/5 99/6/6 27/7/7 28/8/8
f 14/9/9 13/10/10 66/3/3 15/11/11
f 56/12/12 57/13/13 65/14/14 55/15/15
f 44/16/16 45/17/17 65/14/14 43/18/18
f 46/19/19 47/20/20 65/14/14 45/17/17
f 60/21/21 61/22/22 65/14/14 59/23/23
f 48/24/24 49/25/25 65/14/14 47/20/20
f 62/26/26 63/27/27 65/14/14 61/22/22
f 36/28/28 37/29/29 65/14/14 35/30/30
f 50/31/31 51/32/32 65/14/14 49/25/25
f 64/33/33 33/34/34 65/14/14 63/27/27
f 38/35/35 39/36/36 65/14/14 37/29/29
f 52/37/37 53/38/38 65/14/14 51/32/32
f 34/39/39 35/30/30 65/14/14 33/34/34
f 39/36/36 40/40/40 41/41/41 65/14/14
f 53/38/38 54/42/42 55/15/15 65/14/14
f 29/2/2 28/43/8 27/44/7 66/3/3
f 27/44/7 26/45/43 25/46/44 66/3/3
f 12/47/45 11/48/46 66/3/3 13/10/10
f 24/49/47 23/50/48 66/3/3 25/46/44
f 10/51/49 9/52/50 66/3/3 11/48/46
f 22/53/51 21/54/52 66/3/3 23/50/48
f 8/55/53 7/56/54 66/3/3 9/52/50
f 2/57/55 1/58/56 66/3/3 3/59/57
f 20/60/58 19/61/59 66/3/3 21/54/52
f 6/62/60 5/63/61 66/3/3 7/56/54
f 32/64/62 31/4/4 66/3/3 1/58/56
f 4/65/63 3/59/57 66/3/3 5/63/61
f 16/66/64 15/11/11 66/3/3 17/67/65
f 58/68/66 59/23/23 65/14/14 57/13/13
f 42/69/67 43/18/18 65/14/14 41/41/41
f 18/70/68 17/67/65 66/3/3 19/61/59
f 103/71/69 100/72/70 14/73/9 15/74/11
f 104/75/71 101/76/72 1/77/56 2/78/55
f 105/79/73 102/5/5 28/8/8 29/80/2
f 106/81/74 103/71/69 15/74/11 16/82/64
f 107/83/75 104/84/71 2/85/55 3/86/57
f 108/87/76 105/79/73 29/80/2 30/88/1
f 109/89/77 106/81/74 16/82/64 17/90/65
f 110/91/78 107/83/75 3/86/57 4/92/63
f 111/93/79 108/87/76 30/88/1 31/94/4
f 112/95/80 109/89/77 17/90/65 18/96/68
f 113/97/81 110/91/78 4/92/63 5/98/61
f 114/99/82 111/93/79 31/94/4 32/100/62
f 115/101/83 112/102/80 18/103/68 19/104/59
f 116/105/84 113/97/81 5/98/61 6/106/60
f 69/107/72 33/108/34 64/109/33 82/110/82
f 117/111/85 115/101/83 19/104/59 20/112/58
f 118/113/86 116/105/84 6/106/60 7/114/54
f 119/115/87 117/111/85 20/112/58 21/116/52
f 120/117/88 118/113/86 7/114/54 8/118/53
f 121/119/89 119/115/87 21/116/52 22/120/51
f 122/121/90 120/117/88 8/118/53 9/122/50
f 123/123/91 121/119/89 22/120/51 23/124/48
f 124/125/92 122/121/90 9/122/50 10/126/49
f 125/127/93 123/123/91 23/124/48 24/128/47
f 126/129/94 124/130/92 10/131/49 11/132/46
f 127/133/95 125/127/93 24/128/47 25/134/44
f 128/135/96 126/129/94 11/132/46 12/136/45
f 129/137/97 127/133/95 25/134/44 26/138/43
f 130/139/98 128/135/96 12/136/45 13/140/10
f 67/141/99 59/142/23 58/143/66 97/144/100
f 68/145/70 46/146/19 45/147/17 98/148/98
f 100/72/70 68/145/70 98/148/98 130/139/98
f 99/6/6 67/141/99 97/144/100 129/149/97
f 45/147/17 44/150/16 96/151/101 98/148/98
f 58/143/66 57/152/13 95/153/102 97/144/100
f 44/150/16 43/154/18 94/155/103 96/151/101
f 57/156/13 56/157/12 93/158/104 95/159/102
f 43/160/18 42/161/67 92/162/92 94/163/103
f 56/157/12 55/164/15 91/165/91 93/158/104
f 42/161/67 41/166/41 90/167/90 92/162/92
f 55/164/15 54/168/42 89/169/89 91/165/91
f 41/166/41 40/170/40 88/171/88 90/167/90
f 54/168/42 53/172/38 87/173/87 89/169/89
f 40/170/40 39/174/36 86/175/105 88/171/88
f 53/172/38 52/176/37 85/177/85 87/173/87
f 39/174/36 38/178/35 84/179/106 86/175/105
f 52/176/37 51/180/32 83/181/83 85/177/85
f 101/76/72 69/107/72 82/110/82 114/99/82
f 38/178/35 37/182/29 81/183/81 84/179/106
f 51/180/32 50/184/31 80/185/80 83/181/83
f 64/109/33 63/186/27 79/187/107 82/110/82
f 37/182/29 36/188/28 78/189/78 81/183/81
f 50/190/31 49/191/25 77/192/77 80/193/80
f 63/186/27 62/194/26 76/195/108 79/187/107
f 36/188/28 35/196/30 75/197/75 78/189/78
f 49/191/25 48/198/24 74/199/74 77/192/77
f 62/194/26 61/200/22 73/201/109 76/195/108
f 35/196/30 34/202/39 72/203/71 75/197/75
f 48/198/24 47/204/20 71/205/69 74/199/74
f 61/200/22 60/206/21 70/207/110 73/201/109
f 34/208/39 33/108/34 69/107/72 72/209/71
f 47/204/20 46/146/19 68/145/70 71/205/69
f 60/206/21 59/142/23 67/141/99 70/207/110
f 1/77/56 101/76/72 114/99/82 32/100/62
f 27/7/7 99/6/6 129/149/97 26/210/43
f 14/73/9 100/72/70 130/139/98 13/140/10
f 98/148/98 96/151/101 128/135/96 130/139/98
f 97/144/100 95/153/102 127/211/95 129/149/97
f 96/151/101 94/155/103 126/129/94 128/135/96
f 95/159/102 93/158/104 125/127/93 127/133/95
f 94/155/103 92/212/92 124/130/92 126/129/94
f 93/158/104 91/165/91 123/123/91 125/127/93
f 92/162/92 90/167/90 122/121/90 124/125/92
f 91/165/91 89/169/89 121/119/89 123/123/91
f 90/167/90 88/171/88 120/117/88 122/121/90
f 89/169/89 87/173/87 119/115/87 121/119/89
f 88/171/88 86/175/105 118/113/86 120/117/88
f 87/173/87 85/177/85 117/111/85 119/115/87
f 86/175/105 84/179/106 116/105/84 118/113/86
f 85/177/85 83/181/83 115/101/83 117/111/85
f 84/179/106 81/183/81 113/97/81 116/105/84
f 83/181/83 80/185/80 112/102/80 115/101/83
f 82/110/82 79/187/107 111/93/79 114/99/82
f 81/183/81 78/189/78 110/91/78 113/97/81
f 80/193/80 77/192/77 109/89/77 112/95/80
f 79/187/107 76/195/108 108/87/76 111/93/79
f 78/189/78 75/197/75 107/83/75 110/91/78
f 77/192/77 74/199/74 106/81/74 109/89/77
f 76/195/108 73/201/109 105/79/73 108/87/76
f 75/197/75 72/203/71 104/84/71 107/83/75
f 74/199/74 71/205/69 103/71/69 106/81/74
f 73/201/109 70/207/110 102/5/5 105/79/73
f 72/209/71 69/107/72 101/76/72 104/75/71
f 71/205/69 68/145/70 100/72/70 103/71/69
f 70/207/110 67/141/99 99/6/6 102/5/5
