# Blender 4.1.1
# www.blender.org
mtllib 120x92mm.mtl
o 120x92mm
v 1.774304 0.000015 -0.460757
v 1.809063 0.000015 -0.000226
v 0.000093 -0.000000 -0.000225
v 1.671363 0.000015 -0.903591
v 1.772115 0.009817 0.459734
v 1.669302 0.009816 0.902022
v 1.671363 0.000015 0.903139
v 1.774304 0.000015 0.460305
v -1.774117 0.000014 0.460306
v -1.808875 0.000015 -0.000225
v -1.671176 0.000014 0.903139
v 0.975200 0.127601 1.914598
v 1.241169 0.127601 1.628198
v 0.000093 0.127609 -0.000225
v 0.671759 0.127601 2.127412
v -1.721327 0.127601 -0.449506
v -1.755052 0.127601 -0.000225
v -1.621449 0.127601 -0.881521
v -1.721327 0.127601 0.449056
v -1.621449 0.127601 0.881072
v 1.721514 0.127602 0.449055
v 1.755239 0.127602 -0.000226
v 1.621636 0.127602 0.881070
v -1.459256 0.127601 1.279219
v -1.240982 0.127601 1.628199
v 1.721514 0.127602 -0.449507
v 1.621636 0.127602 -0.881523
v 0.342505 0.127602 -2.258914
v 0.000093 0.127602 -2.303164
v 0.671758 0.127602 -2.127863
v -0.975013 0.127601 1.914599
v -0.671571 0.127601 2.127412
v 1.459443 0.127602 -1.279670
v 1.241168 0.127602 -1.628650
v -0.342318 0.127602 -2.258914
v -0.671572 0.127602 -2.127863
v -0.342318 0.127601 2.258463
v 0.000094 0.127601 2.302713
v 0.975200 0.127602 -1.915050
v -0.975013 0.127601 -1.915049
v -1.240982 0.127601 -1.628649
v 0.342506 0.127601 2.258463
v 1.504196 0.000015 1.311256
v 1.279228 0.000015 1.668974
v -1.774117 0.000015 -0.460756
v -1.671176 0.000015 -0.903589
v 1.005103 0.000015 1.962546
v 0.692356 0.000015 2.180689
v -1.504010 0.000015 -1.311707
v -1.279041 0.000015 -1.669425
v 0.353006 0.000015 2.315022
v 0.000094 0.000015 2.360380
v -1.004916 0.000015 -1.962997
v -0.692169 0.000015 -2.181140
v 1.005102 0.000015 -1.962998
v 1.279228 0.000015 -1.669426
v 0.692356 0.000015 -2.181140
v -0.352818 0.000014 2.315022
v -0.692169 0.000014 2.180689
v -0.352820 0.000015 -2.315473
v 0.000093 0.000015 -2.360831
v 1.504196 0.000015 -1.311708
v 0.353005 0.000015 -2.315473
v -1.504009 0.000014 1.311257
v -1.279040 0.000014 1.668974
v 1.459443 0.127601 1.279218
v -1.459257 0.127601 -1.279669
v -1.004915 0.000014 1.962546
v -1.669114 0.009816 0.902026
v -1.771927 0.009816 0.459739
v 1.003863 0.009817 -1.960575
v 1.277649 0.009817 -1.667367
v 1.806831 0.009817 -0.000229
v -1.502152 0.009816 1.309640
v 0.691501 0.009817 -2.178450
v 1.772114 0.009817 -0.460192
v -1.277461 0.009816 1.666916
v 0.352569 0.009817 -2.312616
v 1.669300 0.009817 -0.902479
v -1.003674 0.009816 1.960125
v 0.000093 0.009817 -2.357918
v 1.502339 0.009817 -1.310093
v -0.691314 0.009816 2.177998
v -0.352385 0.009817 -2.312616
v 1.245865 0.120115 -1.634813
v 1.464965 0.120115 -1.284516
v -0.352382 0.009816 2.312165
v -0.691316 0.009816 -2.178449
v 0.000095 0.009816 2.357467
v -1.003677 0.009816 -1.960574
v 0.352572 0.009816 2.312165
v -1.277464 0.009816 -1.667365
v 0.691503 0.009816 2.177998
v -1.502154 0.009816 -1.310088
v 1.003864 0.009816 1.960123
v -1.669114 0.009816 -0.902475
v 1.277651 0.009816 1.666913
v -1.771927 0.009816 -0.460188
v 1.502341 0.009816 1.309636
v -1.806643 0.009816 -0.000224
v 1.627774 0.120114 0.884403
v 1.464967 0.120114 1.284058
v -1.727842 0.120114 0.450757
v -1.761694 0.120114 -0.000224
v -1.727842 0.120114 -0.451205
v 1.245867 0.120114 1.634359
v -1.627586 0.120114 -0.884857
v 0.978892 0.120114 1.921843
v -1.464780 0.120114 -1.284511
v 0.674301 0.120114 2.135464
v -1.245679 0.120114 -1.634811
v 0.343803 0.120114 2.267011
v -0.978704 0.120114 -1.922295
v 0.000094 0.120114 2.311429
v -0.674114 0.120114 -2.135915
v -0.343613 0.120114 2.267011
v -0.343615 0.120114 -2.267462
v -0.674112 0.120114 2.135465
v 0.000093 0.120115 -2.311880
v -0.978702 0.120114 1.921846
v 1.627771 0.120115 -0.884860
v 0.343800 0.120115 -2.267462
v -1.245677 0.120114 1.634362
v 1.728028 0.120115 -0.451211
v 0.674300 0.120115 -2.135916
v -1.464779 0.120114 1.284062
v 1.761881 0.120115 -0.000229
v 0.978889 0.120115 -1.922297
v -1.627585 0.120114 0.884408
v 1.728029 0.120114 0.450753
v 1.729034 0.009840 0.684174
v 1.679663 0.127620 0.668282
v 1.686020 0.120096 0.670810
v 1.731169 -0.000009 0.685022
v 1.746787 0.127620 0.225501
v 1.798131 0.009840 0.230865
v 1.800352 -0.000009 0.231153
v 1.753398 0.120096 0.226353
v 1.800352 -0.000008 -0.231606
v 1.798130 0.009840 -0.231323
v 1.746787 0.127620 -0.225954
v 1.753397 0.120096 -0.226810
v 1.731169 -0.000008 -0.685474
v 1.686018 0.120096 -0.671267
v 1.679662 0.127620 -0.668734
v 1.729032 0.009840 -0.684631
v 1.553850 0.120097 -1.089935
v 1.547993 0.127620 -1.085824
v 1.593492 0.009841 -1.111638
v 1.595461 -0.000008 -1.113008
v 1.356838 0.127620 -1.461195
v 1.361972 0.120097 -1.466725
v 1.398445 -0.000008 -1.497778
v 1.396719 0.009841 -1.495932
v 0.830594 0.120097 -2.038923
v 0.827463 0.127620 -2.031237
v 0.852835 -0.000008 -2.082094
v 0.851783 0.009841 -2.079525
v 1.117759 0.120097 -1.787159
v 1.147691 -0.000008 -1.824999
v 1.146275 0.009841 -1.822747
v 1.113546 0.127620 -1.780422
v 0.525209 -0.000008 -2.259184
v 0.511513 0.120096 -2.212341
v 0.524561 0.009840 -2.256397
v 0.509585 0.127620 -2.204001
v 0.177183 0.009840 -2.346565
v 0.172778 0.120096 -2.300748
v 0.172128 0.127620 -2.292076
v 0.177403 -0.000008 -2.349464
v -0.171941 0.127620 -2.292075
v -0.176999 0.009840 -2.346565
v -0.172593 0.120096 -2.300748
v -0.177217 -0.000009 -2.349464
v -0.525023 -0.000009 -2.259184
v -0.509399 0.127620 -2.204001
v -0.524376 0.009840 -2.256396
v -0.511328 0.120096 -2.212341
v -0.852649 -0.000009 -2.082093
v -0.830408 0.120096 -2.038923
v -0.827276 0.127620 -2.031236
v -0.851598 0.009840 -2.079525
v -1.147505 -0.000009 -1.824998
v -1.146089 0.009840 -1.822745
v -1.117573 0.120096 -1.787157
v -1.113359 0.127619 -1.780421
v -1.398259 -0.000009 -1.497778
v -1.356652 0.127619 -1.461194
v -1.361787 0.120096 -1.466722
v -1.396534 0.009840 -1.495929
v -1.595275 -0.000009 -1.113006
v -1.547807 0.127619 -1.085823
v -1.553665 0.120096 -1.089931
v -1.593307 0.009840 -1.111633
v -1.730982 -0.000009 -0.685473
v -1.685832 0.120096 -0.671262
v -1.679476 0.127619 -0.668733
v -1.728846 0.009840 -0.684627
v -1.753210 0.120096 -0.226806
v -1.800165 -0.000009 -0.231605
v -1.797944 0.009840 -0.231319
v -1.746600 0.127619 -0.225952
v -1.800165 -0.000009 0.231155
v -1.746600 0.127619 0.225503
v -1.797943 0.009840 0.230870
v -1.753210 0.120096 0.226358
v -1.730981 -0.000009 0.685022
v -1.728846 0.009840 0.684178
v -1.679476 0.127619 0.668283
v -1.685831 0.120096 0.670814
v -1.593306 0.009840 1.111185
v -1.553664 0.120096 1.089482
v -1.595275 -0.000009 1.112556
v -1.547806 0.127619 1.085373
v -1.396532 0.009840 1.495480
v -1.361786 0.120096 1.466274
v -1.356652 0.127619 1.460743
v -1.398258 -0.000009 1.497327
v -1.113358 0.127619 1.779971
v -1.147504 -0.000009 1.824548
v -1.146088 0.009840 1.822297
v -1.117571 0.120096 1.786708
v -0.830406 0.120096 2.038473
v -0.827276 0.127619 2.030786
v -0.852648 -0.000009 2.081642
v -0.851595 0.009840 2.079074
v -0.525022 -0.000009 2.258733
v -0.524373 0.009840 2.255946
v -0.509398 0.127619 2.203550
v -0.511325 0.120096 2.211890
v -0.171941 0.127619 2.291624
v -0.172590 0.120096 2.300297
v -0.176996 0.009840 2.346114
v -0.177216 -0.000009 2.349013
v 0.177186 0.009840 2.346114
v 0.172128 0.127619 2.291624
v 0.177404 -0.000009 2.349013
v 0.172780 0.120096 2.300297
v 0.511515 0.120096 2.211889
v 0.509585 0.127619 2.203550
v 0.524563 0.009840 2.255945
v 0.525210 -0.000009 2.258733
v 0.851785 0.009840 2.079073
v 0.852836 -0.000009 2.081642
v 0.827464 0.127619 2.030786
v 0.830596 0.120096 2.038471
v 1.117761 0.120096 1.786706
v 1.146277 0.009840 1.822294
v 1.113546 0.127619 1.779970
v 1.147691 -0.000009 1.824547
v 1.356839 0.127619 1.460743
v 1.396721 0.009840 1.495477
v 1.361975 0.120096 1.466271
v 1.398446 -0.000009 1.497326
v 1.553852 0.120096 1.089479
v 1.593494 0.009840 1.111181
v 1.595462 -0.000009 1.112556
v 1.547993 0.127620 1.085372
vn 0.9244 -0.3544 -0.1409
vn 0.9332 -0.3525 -0.0704
vn 0.9361 -0.3518 -0.0000
vn -0.0000 -1.0000 -0.0000
vn 0.9299 0.2982 0.2155
vn 0.9095 0.2998 0.2878
vn 0.8885 -0.3619 0.2820
vn 0.9097 -0.3575 0.2114
vn -0.9244 -0.3544 0.1409
vn -0.9332 -0.3524 0.0704
vn -0.9361 -0.3518 -0.0000
vn 0.2697 0.9125 0.3076
vn 0.3065 0.9083 0.2847
vn 0.3400 0.9040 0.2592
vn -0.0000 1.0000 -0.0000
vn -0.4615 0.8844 -0.0700
vn -0.4676 0.8832 -0.0351
vn -0.4697 0.8828 -0.0000
vn -0.4615 0.8844 0.0700
vn -0.4512 0.8863 0.1043
vn -0.4369 0.8889 0.1379
vn 0.4615 0.8844 0.0700
vn 0.4676 0.8832 0.0351
vn 0.4697 0.8828 -0.0000
vn -0.3962 0.8957 0.2018
vn -0.3700 0.8998 0.2314
vn -0.3401 0.9040 0.2592
vn 0.4615 0.8844 -0.0700
vn 0.4512 0.8863 -0.1043
vn 0.4369 0.8889 -0.1379
vn 0.0960 0.9249 -0.3678
vn 0.0483 0.9263 -0.3738
vn -0.0000 0.9267 -0.3757
vn -0.2697 0.9125 0.3076
vn -0.2298 0.9164 0.3277
vn -0.1873 0.9199 0.3446
vn 0.3962 0.8957 -0.2018
vn 0.3700 0.8998 -0.2314
vn 0.3401 0.9040 -0.2592
vn -0.0960 0.9249 -0.3678
vn -0.1425 0.9228 -0.3580
vn -0.1873 0.9199 -0.3446
vn -0.0960 0.9249 0.3678
vn -0.0483 0.9263 0.3737
vn -0.0000 0.9267 0.3757
vn 0.2697 0.9125 -0.3076
vn 0.2298 0.9164 -0.3277
vn 0.1873 0.9199 -0.3446
vn -0.2697 0.9125 -0.3076
vn -0.3065 0.9083 -0.2847
vn -0.3401 0.9040 -0.2592
vn 0.0960 0.9249 0.3678
vn 0.1425 0.9228 0.3580
vn 0.1873 0.9199 0.3446
vn 0.9244 -0.3543 0.1409
vn 0.8255 -0.3740 0.4226
vn 0.7825 -0.3816 0.4920
vn 0.7309 -0.3900 0.5600
vn -0.9244 -0.3544 -0.1409
vn -0.9097 -0.3575 -0.2114
vn -0.8885 -0.3619 -0.2820
vn 0.6000 -0.4081 0.6881
vn 0.5200 -0.4171 0.7454
vn 0.4304 -0.4254 0.7961
vn -0.8255 -0.3740 -0.4226
vn -0.7825 -0.3816 -0.4920
vn -0.7309 -0.3900 -0.5600
vn 0.2258 -0.4383 0.8700
vn 0.1144 -0.4419 0.8897
vn -0.0000 -0.4431 0.8965
vn -0.6000 -0.4081 -0.6881
vn -0.5200 -0.4171 -0.7454
vn -0.4304 -0.4255 -0.7961
vn 0.6000 -0.4081 -0.6881
vn 0.6703 -0.3989 -0.6258
vn 0.7309 -0.3900 -0.5600
vn -0.2259 -0.4383 0.8700
vn -0.3319 -0.4327 0.8382
vn -0.4304 -0.4255 0.7961
vn -0.2259 -0.4383 -0.8700
vn -0.1144 -0.4419 -0.8897
vn -0.0000 -0.4431 -0.8965
vn 0.8255 -0.3741 -0.4226
vn 0.8607 -0.3674 -0.3525
vn 0.8886 -0.3619 -0.2820
vn 0.2259 -0.4383 -0.8700
vn 0.3319 -0.4327 -0.8382
vn 0.4304 -0.4255 -0.7961
vn -0.8255 -0.3740 0.4226
vn -0.8607 -0.3674 0.3525
vn -0.8885 -0.3619 0.2820
vn 0.3962 0.8957 0.2018
vn 0.4185 0.8921 0.1705
vn 0.4369 0.8889 0.1379
vn -0.3962 0.8957 -0.2018
vn -0.4185 0.8921 -0.1705
vn -0.4369 0.8889 -0.1379
vn -0.6000 -0.4081 0.6881
vn -0.6703 -0.3989 0.6258
vn -0.7309 -0.3900 0.5600
vn -0.9299 0.2982 0.2155
vn -0.9440 0.2970 0.1435
vn -0.9097 -0.3575 0.2114
vn 0.6948 0.3144 -0.6468
vn 0.7553 0.3107 -0.5770
vn 0.9524 0.2963 0.0717
vn 0.9440 0.2970 0.1435
vn 0.9332 -0.3525 0.0704
vn -0.8826 0.3019 0.3604
vn -0.9096 0.2998 0.2879
vn 0.5427 0.3222 -0.7757
vn 0.6241 0.3182 -0.7136
vn 0.5200 -0.4171 -0.7454
vn 0.9524 0.2963 -0.0717
vn 0.9552 0.2961 -0.0000
vn -0.8062 0.3074 0.5055
vn -0.8484 0.3044 0.4331
vn -0.7825 -0.3816 0.4920
vn 0.3485 0.3292 -0.8776
vn 0.4507 0.3259 -0.8311
vn 0.9299 0.2982 -0.2155
vn 0.9440 0.2970 -0.1435
vn 0.9097 -0.3575 -0.2114
vn -0.6948 0.3144 0.6468
vn -0.7553 0.3107 0.5770
vn 0.1206 0.3335 -0.9350
vn 0.2377 0.3318 -0.9129
vn 0.1144 -0.4419 -0.8897
vn 0.8826 0.3019 -0.3604
vn 0.9095 0.2998 -0.2879
vn -0.5427 0.3221 0.7757
vn -0.6241 0.3182 0.7136
vn -0.5200 -0.4171 0.7454
vn -0.1206 0.3335 -0.9350
vn -0.0000 0.3341 -0.9426
vn 0.7187 0.5289 -0.4515
vn 0.7583 0.5240 -0.3878
vn -0.3485 0.3292 0.8776
vn -0.4506 0.3259 0.8311
vn -0.3485 0.3292 -0.8776
vn -0.2377 0.3318 -0.9129
vn -0.3319 -0.4327 -0.8382
vn -0.1206 0.3335 0.9350
vn -0.2377 0.3318 0.9129
vn -0.1144 -0.4419 0.8897
vn -0.5427 0.3221 -0.7757
vn -0.4507 0.3259 -0.8311
vn 0.1206 0.3335 0.9350
vn -0.0000 0.3341 0.9426
vn -0.6948 0.3144 -0.6468
vn -0.6241 0.3182 -0.7136
vn -0.6703 -0.3989 -0.6258
vn 0.3485 0.3292 0.8776
vn 0.2377 0.3318 0.9129
vn 0.3319 -0.4327 0.8382
vn -0.8062 0.3074 -0.5055
vn -0.7553 0.3107 -0.5770
vn 0.5427 0.3222 0.7757
vn 0.4507 0.3259 0.8311
vn -0.8826 0.3019 -0.3604
vn -0.8484 0.3044 -0.4331
vn -0.8607 -0.3674 -0.3525
vn 0.6948 0.3144 0.6468
vn 0.6241 0.3182 0.7136
vn 0.6703 -0.3989 0.6258
vn -0.9299 0.2982 -0.2155
vn -0.9095 0.2998 -0.2879
vn 0.8062 0.3074 0.5055
vn 0.7553 0.3107 0.5770
vn -0.9524 0.2963 -0.0717
vn -0.9440 0.2970 -0.1435
vn -0.9332 -0.3525 -0.0704
vn 0.7907 0.5198 0.3235
vn 0.7583 0.5240 0.3878
vn -0.8574 0.5106 0.0646
vn -0.4676 0.8832 0.0351
vn -0.8600 0.5103 -0.0000
vn -0.9524 0.2963 0.0717
vn -0.9552 0.2961 -0.0000
vn 0.8826 0.3019 0.3604
vn 0.8484 0.3044 0.4331
vn -0.8493 0.5118 -0.1293
vn -0.8574 0.5106 -0.0646
vn 0.3700 0.8998 0.2314
vn 0.6712 0.5343 0.5138
vn 0.7187 0.5289 0.4515
vn -0.4512 0.8863 -0.1043
vn -0.8163 0.5164 -0.2588
vn -0.8357 0.5137 -0.1940
vn 0.5507 0.5464 0.6310
vn 0.6154 0.5402 0.5740
vn -0.7583 0.5240 -0.3878
vn -0.7907 0.5198 -0.3235
vn 0.2298 0.9164 0.3277
vn 0.3948 0.5584 0.7296
vn 0.4771 0.5526 0.6834
vn -0.3700 0.8998 -0.2314
vn -0.6712 0.5343 -0.5138
vn -0.7187 0.5289 -0.4515
vn 0.2071 0.5675 0.7969
vn 0.3043 0.5635 0.7680
vn -0.5507 0.5464 -0.6310
vn -0.6154 0.5402 -0.5740
vn 0.0483 0.9263 0.3737
vn -0.0000 0.5709 0.8210
vn 0.1048 0.5700 0.8149
vn -0.2298 0.9164 -0.3277
vn -0.3948 0.5584 -0.7296
vn -0.4771 0.5526 -0.6834
vn -0.2070 0.5675 0.7969
vn -0.1048 0.5700 0.8149
vn -0.2071 0.5675 -0.7969
vn -0.3043 0.5635 -0.7680
vn -0.1425 0.9228 0.3580
vn -0.3948 0.5584 0.7296
vn -0.3043 0.5635 0.7680
vn 0.8062 0.3073 -0.5055
vn 0.8484 0.3044 -0.4331
vn -0.0483 0.9263 -0.3737
vn -0.0000 0.5709 -0.8210
vn -0.1048 0.5700 -0.8149
vn -0.5507 0.5464 0.6310
vn -0.4771 0.5526 0.6834
vn 0.4185 0.8921 -0.1705
vn 0.8163 0.5164 -0.2588
vn 0.7907 0.5198 -0.3235
vn 0.2070 0.5675 -0.7969
vn 0.1048 0.5700 -0.8149
vn -0.3065 0.9083 0.2847
vn -0.6712 0.5343 0.5138
vn -0.6154 0.5402 0.5740
vn 0.8493 0.5118 -0.1293
vn 0.8357 0.5137 -0.1941
vn 0.1425 0.9228 -0.3580
vn 0.3948 0.5584 -0.7296
vn 0.3043 0.5635 -0.7680
vn -0.7583 0.5240 0.3878
vn -0.7187 0.5289 0.4515
vn 0.4676 0.8832 -0.0351
vn 0.8600 0.5102 -0.0000
vn 0.8574 0.5106 -0.0646
vn 0.5507 0.5464 -0.6310
vn 0.4771 0.5526 -0.6834
vn -0.4185 0.8921 0.1705
vn -0.8163 0.5164 0.2588
vn -0.7907 0.5198 0.3235
vn 0.8493 0.5118 0.1293
vn 0.8574 0.5106 0.0646
vn 0.3065 0.9083 -0.2847
vn 0.6712 0.5343 -0.5138
vn 0.6154 0.5402 -0.5740
vn -0.8493 0.5118 0.1293
vn -0.8357 0.5137 0.1941
vn 0.4512 0.8863 0.1043
vn 0.8163 0.5164 0.2588
vn 0.8358 0.5137 0.1940
vn 0.7825 -0.3817 -0.4920
vn 0.8607 -0.3674 0.3525
vt 0.500004 0.500001
vt 0.500004 0.500000
vt 0.500002 0.500000
vt 0.499996 0.499999
vt 0.499996 0.499998
vt 0.500001 0.499999
vt 0.500001 0.500000
vt 0.499997 0.499996
vt 0.499997 0.499997
vt 0.499996 0.499997
vt 0.499998 0.500000
vt 0.499999 0.500001
vt 0.499999 0.500000
vt 0.499999 0.499999
vt 0.499996 0.500000
vt 0.499999 0.499998
vt 0.499999 0.499997
vt 0.499996 0.500001
vt 0.499997 0.500004
vt 0.499998 0.499996
vt 0.499996 0.500002
vt 0.499996 0.500003
vt 0.499998 0.500004
vt 0.499997 0.500003
vt 0.499999 0.500003
vt 0.500004 0.499999
vt 0.500004 0.499997
vt 0.500001 0.500001
vt 0.500001 0.500002
vt 0.500003 0.499996
vt 0.500001 0.500003
vt 0.500002 0.499996
vt 0.500002 0.500004
vt 0.500004 0.500003
vt 0.500003 0.500004
vt 0.500004 0.500002
vt 0.500001 0.499998
vt 0.499999 0.500002
vt 0.500001 0.499997
s 1
usemtl None.015
f 1/1/1 139/2/2 2/2/3 3/3/4
f 131/4/5 6/5/6 7/5/7 134/4/8
f 9/6/9 203/7/10 10/7/11 3/3/4
f 12/8/12 249/9/13 13/10/14 14/11/15
f 16/12/16 202/12/17 17/13/18 14/11/15
f 19/14/19 209/14/20 20/14/21 14/11/15
f 21/4/22 135/4/23 22/15/24 14/11/15
f 24/16/25 217/16/26 25/17/27 14/11/15
f 26/18/28 145/18/29 27/18/30 14/11/15
f 28/19/31 169/19/32 29/19/33 14/11/15
f 31/17/34 224/20/35 32/20/36 14/11/15
f 33/21/37 151/21/38 34/22/39 14/11/15
f 35/23/40 176/23/41 36/23/42 14/11/15
f 37/20/43 231/20/44 38/20/45 14/11/15
f 39/24/46 156/19/47 30/19/48 14/11/15
f 40/23/49 186/25/50 41/25/51 14/11/15
f 42/8/52 240/8/53 15/8/54 14/11/15
f 8/26/55 134/4/8 7/5/7 3/3/4
f 43/27/56 254/27/57 44/27/58 3/3/4
f 45/28/59 195/28/60 46/29/61 3/3/4
f 47/30/62 244/30/63 48/30/64 3/3/4
f 49/31/65 187/31/66 50/31/67 3/3/4
f 51/30/68 237/30/69 52/32/70 3/3/4
f 53/33/71 179/33/72 54/33/73 3/3/4
f 55/34/74 160/34/75 56/34/76 3/3/4
f 58/32/77 227/32/78 59/32/79 3/3/4
f 60/33/80 174/33/81 61/35/82 3/3/4
f 62/36/83 150/36/84 4/1/85 3/3/4
f 63/35/86 163/35/87 57/35/88 3/3/4
f 64/37/89 213/37/90 11/6/91 3/3/4
f 66/5/92 258/5/93 23/5/94 14/11/15
f 67/38/95 192/38/96 18/38/97 14/11/15
f 68/39/98 220/39/99 65/39/100 3/3/4
f 208/14/101 70/14/102 9/6/9 207/14/103
f 161/22/104 72/22/105 56/34/76 160/34/75
f 136/4/106 5/4/107 8/26/55 137/4/108
f 211/16/109 69/14/110 11/6/91 213/37/90
f 158/19/111 71/24/112 55/34/74 157/19/113
f 140/15/114 73/15/115 2/2/3 139/2/2
f 215/17/116 74/16/117 64/37/89 218/17/118
f 165/19/119 75/19/120 57/35/88 163/35/87
f 146/18/121 76/18/122 1/1/1 143/18/123
f 221/17/124 77/17/125 65/39/100 220/39/99
f 167/19/126 78/19/127 63/35/86 170/19/128
f 149/21/129 79/18/130 4/1/85 150/36/84
f 226/20/131 80/17/132 68/39/98 225/20/133
f 172/23/134 81/19/135 61/35/82 174/33/81
f 152/21/136 151/21/38 33/21/37 86/21/137
f 228/20/138 83/20/139 59/32/79 227/32/78
f 177/23/140 84/23/141 60/33/80 175/23/142
f 233/20/143 87/20/144 58/32/77 234/20/145
f 182/23/146 88/23/147 54/33/73 179/33/72
f 235/8/148 89/20/149 52/32/70 237/30/69
f 184/25/150 90/23/151 53/33/71 183/25/152
f 241/8/153 91/8/154 51/30/68 242/8/155
f 190/25/156 92/25/157 50/31/67 187/31/66
f 243/8/158 93/8/159 48/30/64 244/30/63
f 194/38/160 94/25/161 49/31/65 191/38/162
f 248/9/163 95/8/164 47/30/62 250/9/165
f 198/12/166 96/38/167 46/29/61 195/28/60
f 252/10/168 97/10/169 44/27/58 254/27/57
f 201/12/170 98/12/171 45/28/59 200/12/172
f 255/5/173 258/5/93 66/5/92 102/5/174
f 206/13/175 204/13/176 17/13/18 104/13/177
f 205/13/178 206/13/175 104/13/177 100/13/179
f 256/5/180 255/5/173 102/5/174 99/10/181
f 202/12/17 16/12/16 105/12/182 199/12/183
f 251/10/184 13/10/14 106/10/185 253/10/186
f 197/12/187 18/38/97 107/38/188 196/12/189
f 249/9/13 12/8/12 108/8/190 247/9/191
f 192/38/96 67/38/95 109/38/192 193/38/193
f 245/8/194 15/8/54 110/8/195 246/8/196
f 188/25/197 41/25/51 111/25/198 189/25/199
f 240/8/53 42/8/52 112/8/200 239/8/201
f 186/25/50 40/23/49 113/23/202 185/25/203
f 236/8/204 38/20/45 114/20/205 238/8/206
f 181/23/207 36/23/42 115/23/208 180/23/209
f 231/20/44 37/20/43 116/20/210 232/20/211
f 176/23/41 35/23/40 117/23/212 178/23/213
f 229/20/214 32/20/36 118/20/215 230/20/216
f 154/22/217 152/21/136 86/21/137 82/21/218
f 171/23/219 29/19/33 119/19/220 173/23/221
f 224/20/35 31/17/34 120/17/222 223/20/223
f 148/21/224 27/18/30 121/18/225 147/21/226
f 169/19/32 28/19/31 122/19/227 168/19/228
f 219/17/229 25/17/27 123/17/230 222/17/231
f 145/18/29 26/18/28 124/18/232 144/18/233
f 166/19/234 30/19/48 125/19/235 164/19/236
f 217/16/26 24/16/25 126/16/237 216/16/238
f 141/15/239 22/15/24 127/15/240 142/15/241
f 156/19/47 39/24/46 128/24/242 155/19/243
f 214/16/244 20/14/21 129/14/245 212/16/246
f 135/4/23 21/4/22 130/4/247 138/4/248
f 162/22/249 34/22/39 85/22/250 159/22/251
f 209/14/20 19/14/19 103/14/252 210/14/253
f 132/4/254 23/5/94 101/5/255 133/4/256
f 153/22/257 154/22/217 82/21/218 62/36/83
f 257/5/258 256/5/180 99/10/181 43/27/56
f 203/7/10 205/13/178 100/13/179 10/7/11
f 199/12/183 105/12/182 98/12/171 201/12/170
f 253/10/186 106/10/185 97/10/169 252/10/168
f 196/12/189 107/38/188 96/38/167 198/12/166
f 247/9/191 108/8/190 95/8/164 248/9/163
f 193/38/193 109/38/192 94/25/161 194/38/160
f 246/8/196 110/8/195 93/8/159 243/8/158
f 189/25/199 111/25/198 92/25/157 190/25/156
f 239/8/201 112/8/200 91/8/154 241/8/153
f 185/25/203 113/23/202 90/23/151 184/25/150
f 238/8/206 114/20/205 89/20/149 235/8/148
f 180/23/209 115/23/208 88/23/147 182/23/146
f 232/20/211 116/20/210 87/20/144 233/20/143
f 178/23/213 117/23/212 84/23/141 177/23/140
f 230/20/216 118/20/215 83/20/139 228/20/138
f 173/23/221 119/19/220 81/19/135 172/23/134
f 223/20/223 120/17/222 80/17/132 226/20/131
f 147/21/226 121/18/225 79/18/130 149/21/129
f 168/19/228 122/19/227 78/19/127 167/19/126
f 222/17/231 123/17/230 77/17/125 221/17/124
f 144/18/233 124/18/232 76/18/122 146/18/121
f 164/19/236 125/19/235 75/19/120 165/19/119
f 216/16/238 126/16/237 74/16/117 215/17/116
f 142/15/241 127/15/240 73/15/115 140/15/114
f 155/19/243 128/24/242 71/24/112 158/19/111
f 212/16/246 129/14/245 69/14/110 211/16/109
f 138/4/248 130/4/247 5/4/107 136/4/106
f 159/22/251 85/22/250 72/22/105 161/22/104
f 210/14/253 103/14/252 70/14/102 208/14/101
f 133/4/256 101/5/255 6/5/6 131/4/5
f 27/18/30 148/21/224 33/21/37 14/11/15
f 56/34/76 153/22/257 62/36/83 3/3/4
f 57/35/88 157/19/113 55/34/74 3/3/4
f 34/22/39 162/22/249 39/24/46 14/11/15
f 30/19/48 166/19/234 28/19/31 14/11/15
f 61/35/82 170/19/128 63/35/86 3/3/4
f 50/31/67 183/25/152 53/33/71 3/3/4
f 36/23/42 181/23/207 40/23/49 14/11/15
f 41/25/51 188/25/197 67/38/95 14/11/15
f 46/29/61 191/38/162 49/31/65 3/3/4
f 18/38/97 197/12/187 16/12/16 14/11/15
f 10/7/11 200/12/172 45/28/59 3/3/4
f 17/13/18 204/13/176 19/14/19 14/11/15
f 11/6/91 207/14/103 9/6/9 3/3/4
f 20/14/21 214/16/244 24/16/25 14/11/15
f 65/39/100 218/17/118 64/37/89 3/3/4
f 25/17/27 219/17/229 31/17/34 14/11/15
f 59/32/79 225/20/133 68/39/98 3/3/4
f 32/20/36 229/20/214 37/20/43 14/11/15
f 52/32/70 234/20/145 58/32/77 3/3/4
f 38/20/45 236/8/204 42/8/52 14/11/15
f 48/30/64 242/8/155 51/30/68 3/3/4
f 15/8/54 245/8/194 12/8/12 14/11/15
f 44/27/58 250/9/165 47/30/62 3/3/4
f 13/10/14 251/10/184 66/5/92 14/11/15
f 7/5/7 257/5/258 43/27/56 3/3/4
f 23/5/94 132/4/254 21/4/22 14/11/15
f 2/2/3 137/4/108 8/26/55 3/3/4
f 22/15/24 141/15/239 26/18/28 14/11/15
f 4/1/85 143/18/123 1/1/1 3/3/4
f 54/33/73 175/23/142 60/33/80 3/3/4
f 29/19/33 171/23/219 35/23/40 14/11/15
f 130/4/247 133/4/256 131/4/5 5/4/107
f 21/4/22 132/4/254 133/4/256 130/4/247
f 5/4/107 131/4/5 134/4/8 8/26/55
f 127/15/240 138/4/248 136/4/106 73/15/115
f 22/15/24 135/4/23 138/4/248 127/15/240
f 73/15/115 136/4/106 137/4/108 2/2/3
f 124/18/232 142/15/241 140/15/114 76/18/122
f 26/18/28 141/15/239 142/15/241 124/18/232
f 76/18/122 140/15/114 139/2/2 1/1/1
f 121/18/225 144/18/233 146/18/121 79/18/130
f 27/18/30 145/18/29 144/18/233 121/18/225
f 79/18/130 146/18/121 143/18/123 4/1/85
f 86/21/137 147/21/226 149/21/129 82/21/218
f 33/21/37 148/21/224 147/21/226 86/21/137
f 82/21/218 149/21/129 150/36/84 62/36/83
f 56/34/76 72/22/105 154/22/217 153/22/257
f 72/22/105 85/22/250 152/21/136 154/22/217
f 85/22/250 34/22/39 151/21/38 152/21/136
f 125/19/235 155/19/243 158/19/111 75/19/120
f 30/19/48 156/19/47 155/19/243 125/19/235
f 75/19/120 158/19/111 157/19/113 57/35/88
f 128/24/242 159/22/251 161/22/104 71/24/112
f 39/24/46 162/22/249 159/22/251 128/24/242
f 71/24/112 161/22/104 160/34/75 55/34/74
f 122/19/227 164/19/236 165/19/119 78/19/127
f 28/19/31 166/19/234 164/19/236 122/19/227
f 78/19/127 165/19/119 163/35/87 63/35/86
f 119/19/220 168/19/228 167/19/126 81/19/135
f 29/19/33 169/19/32 168/19/228 119/19/220
f 81/19/135 167/19/126 170/19/128 61/35/82
f 117/23/212 173/23/221 172/23/134 84/23/141
f 35/23/40 171/23/219 173/23/221 117/23/212
f 84/23/141 172/23/134 174/33/81 60/33/80
f 115/23/208 178/23/213 177/23/140 88/23/147
f 36/23/42 176/23/41 178/23/213 115/23/208
f 88/23/147 177/23/140 175/23/142 54/33/73
f 113/23/202 180/23/209 182/23/146 90/23/151
f 40/23/49 181/23/207 180/23/209 113/23/202
f 90/23/151 182/23/146 179/33/72 53/33/71
f 111/25/198 185/25/203 184/25/150 92/25/157
f 41/25/51 186/25/50 185/25/203 111/25/198
f 92/25/157 184/25/150 183/25/152 50/31/67
f 109/38/192 189/25/199 190/25/156 94/25/161
f 67/38/95 188/25/197 189/25/199 109/38/192
f 94/25/161 190/25/156 187/31/66 49/31/65
f 107/38/188 193/38/193 194/38/160 96/38/167
f 18/38/97 192/38/96 193/38/193 107/38/188
f 96/38/167 194/38/160 191/38/162 46/29/61
f 105/12/182 196/12/189 198/12/166 98/12/171
f 16/12/16 197/12/187 196/12/189 105/12/182
f 98/12/171 198/12/166 195/28/60 45/28/59
f 104/13/177 199/12/183 201/12/170 100/13/179
f 17/13/18 202/12/17 199/12/183 104/13/177
f 100/13/179 201/12/170 200/12/172 10/7/11
f 9/6/9 70/14/102 205/13/178 203/7/10
f 70/14/102 103/14/252 206/13/175 205/13/178
f 103/14/252 19/14/19 204/13/176 206/13/175
f 129/14/245 210/14/253 208/14/101 69/14/110
f 20/14/21 209/14/20 210/14/253 129/14/245
f 69/14/110 208/14/101 207/14/103 11/6/91
f 126/16/237 212/16/246 211/16/109 74/16/117
f 24/16/25 214/16/244 212/16/246 126/16/237
f 74/16/117 211/16/109 213/37/90 64/37/89
f 123/17/230 216/16/238 215/17/116 77/17/125
f 25/17/27 217/16/26 216/16/238 123/17/230
f 77/17/125 215/17/116 218/17/118 65/39/100
f 120/17/222 222/17/231 221/17/124 80/17/132
f 31/17/34 219/17/229 222/17/231 120/17/222
f 80/17/132 221/17/124 220/39/99 68/39/98
f 118/20/215 223/20/223 226/20/131 83/20/139
f 32/20/36 224/20/35 223/20/223 118/20/215
f 83/20/139 226/20/131 225/20/133 59/32/79
f 116/20/210 230/20/216 228/20/138 87/20/144
f 37/20/43 229/20/214 230/20/216 116/20/210
f 87/20/144 228/20/138 227/32/78 58/32/77
f 114/20/205 232/20/211 233/20/143 89/20/149
f 38/20/45 231/20/44 232/20/211 114/20/205
f 89/20/149 233/20/143 234/20/145 52/32/70
f 112/8/200 238/8/206 235/8/148 91/8/154
f 42/8/52 236/8/204 238/8/206 112/8/200
f 91/8/154 235/8/148 237/30/69 51/30/68
f 110/8/195 239/8/201 241/8/153 93/8/159
f 15/8/54 240/8/53 239/8/201 110/8/195
f 93/8/159 241/8/153 242/8/155 48/30/64
f 108/8/190 246/8/196 243/8/158 95/8/164
f 12/8/12 245/8/194 246/8/196 108/8/190
f 95/8/164 243/8/158 244/30/63 47/30/62
f 106/10/185 247/9/191 248/9/163 97/10/169
f 13/10/14 249/9/13 247/9/191 106/10/185
f 97/10/169 248/9/163 250/9/165 44/27/58
f 102/5/174 253/10/186 252/10/168 99/10/181
f 66/5/92 251/10/184 253/10/186 102/5/174
f 99/10/181 252/10/168 254/27/57 43/27/56
f 7/5/7 6/5/6 256/5/180 257/5/258
f 6/5/6 101/5/255 255/5/173 256/5/180
f 101/5/255 23/5/94 258/5/93 255/5/173
