# Blender 5.0.1
# www.blender.org
mtllib flame 1.mtl
o Flamewraith_with_Balefire_Torches
v 0.661717 3.377589 0.853242
v 0.653376 3.342360 0.859363
v 0.685393 3.369228 0.861872
v 0.666549 3.335633 0.865604
v 0.692437 3.405257 0.819328
v 0.712344 3.382163 0.838539
v 0.719117 3.374155 0.822513
v 0.728226 3.382781 0.790146
v 0.723999 3.353858 0.793543
v 0.634262 3.324458 0.850801
v 0.685140 3.333909 0.849961
v 0.637339 3.338211 0.812591
v 0.686687 3.329307 0.813913
v 0.666782 3.300350 0.820442
v 0.698474 3.524282 0.660275
v 0.685385 3.541402 0.654987
v 0.668536 3.519993 0.678537
v 0.705217 3.515318 0.654434
v 0.700822 3.510255 0.634821
v 0.713265 3.470434 0.635022
v 0.650872 3.452160 0.693065
v 0.627098 3.469396 0.653414
v 0.744678 3.496037 0.694075
v 0.742564 3.494356 0.669082
v 0.736820 3.482486 0.653421
v 0.752148 3.464517 0.680550
v 0.709108 3.401855 0.710524
v 0.700257 3.381155 0.728469
v 0.687285 3.505122 0.616813
v 0.676662 3.467362 0.627307
v 0.693900 3.444461 0.642799
v 0.644400 3.458236 0.626331
v 0.723949 3.435972 0.650903
v 0.717646 3.411551 0.669683
v 0.695658 3.399657 0.734441
v 0.673286 3.356782 0.756091
v 0.761092 3.441462 0.711435
v 0.751122 3.425760 0.700054
v 0.746500 3.407372 0.711336
v 0.715635 3.369722 0.721470
v 0.771060 3.397497 0.716389
v 0.795842 3.385945 0.722469
v 0.799309 3.352016 0.727138
v 0.809733 3.392822 0.632246
v 0.765810 3.389307 0.706583
v 0.775886 3.384607 0.671156
v 0.754492 3.353610 0.645513
v 0.760875 3.361363 0.669963
v 0.810432 3.397382 0.666874
v 0.821469 3.388333 0.690092
v 0.831396 3.367297 0.694320
v 0.838958 3.398720 0.654351
v 0.862369 3.389461 0.629369
v 0.847995 3.366604 0.657453
v 0.812922 3.334865 0.708740
v 0.791070 3.299357 0.723674
v 0.816281 3.328382 0.677113
v 0.686884 3.345420 0.727981
v 0.678164 3.336624 0.774228
v 0.655303 3.329252 0.781340
v 0.695275 3.324095 0.784188
v 0.686840 3.313475 0.714989
v 0.743980 3.329135 0.781988
v 0.763414 3.320471 0.752506
v 0.755154 3.297041 0.772828
v 0.730614 3.289438 0.785934
v 0.731749 3.267115 0.804312
v 0.706242 3.281573 0.763982
v 0.712574 3.265795 0.778804
v 0.758871 3.256845 0.793696
v 0.738627 3.358388 0.706310
v 0.703551 3.315316 0.697893
v 0.746597 3.337050 0.658597
v 0.692838 3.254978 0.737751
v 0.689105 3.284891 0.694264
v 0.690898 3.255186 0.706634
v 0.786984 3.269607 0.731632
v 0.798161 3.289512 0.669517
v 0.799263 3.270317 0.688520
v 0.753184 3.283982 0.743145
v 0.770384 3.248607 0.835714
v 0.812474 3.377750 0.609406
v 0.782237 3.372787 0.633793
v 0.761564 3.333774 0.629207
v 0.787044 3.347149 0.620324
v 0.834428 3.389013 0.601425
v 0.849065 3.384063 0.606054
v 0.842920 3.361180 0.624878
v 0.819057 3.365594 0.609030
v 0.806050 3.329509 0.637156
v 0.804724 3.313995 0.659147
v 0.770021 3.300448 0.638141
v 0.800414 3.255530 0.627892
v 0.697047 3.284847 0.664915
v 0.736609 3.311013 0.641637
v 0.711946 3.264182 0.631348
v 0.687598 3.256792 0.681029
v 0.792234 3.278994 0.653083
v 0.756398 3.271145 0.641153
v 0.819506 3.256088 0.684945
v 0.819021 3.260553 0.653247
v -0.341889 3.366781 0.433315
v -0.384269 3.394756 0.485271
v -0.324271 3.353003 0.497643
v -0.281214 3.341088 0.501583
v -0.330229 3.357577 0.472026
v -0.324673 3.408169 0.485746
v -0.350897 3.431875 0.448031
v -0.252518 3.353134 0.456109
v -0.275819 3.391282 0.481672
v -0.265719 3.374249 0.440572
v -0.267411 3.401590 0.431928
v -0.268272 3.460839 0.447720
v -0.259897 3.445475 0.442166
v -0.259140 3.370399 0.421380
v -0.252729 3.425220 0.418012
v -0.391767 3.397479 0.458816
v -0.345591 3.397863 0.384514
v -0.345698 3.442819 0.409398
v -0.339841 3.399100 0.395612
v -0.318254 3.400102 0.360330
v -0.334620 3.402450 0.375086
v -0.318368 3.430026 0.363153
v -0.229323 3.363811 0.420280
v -0.241121 3.394697 0.423080
v -0.222871 3.393437 0.394982
v -0.227559 3.389040 0.376771
v -0.198884 3.358438 0.301568
v -0.240472 3.378701 0.356009
v -0.238326 3.425089 0.355180
v -0.273074 3.431311 0.336985
v -0.267081 3.395891 0.336909
v -0.248859 3.444124 0.323653
v -0.243177 3.381049 0.288487
v -0.174951 3.340589 0.250828
v -0.209398 3.400518 0.245816
v -0.188589 3.349150 0.220533
v -0.232704 3.397233 0.255282
v -0.254687 3.401956 0.227767
v -0.246312 3.425366 0.217457
v -0.240488 3.451692 0.237635
v -0.203457 3.456818 0.236717
v -0.266818 3.379594 0.236876
v -0.269598 3.387126 0.193113
v 0.638163 3.305177 0.807748
v -0.241201 3.359474 0.151282
v -0.262622 3.453542 0.160733
v -0.243254 3.404033 0.139507
v -0.184018 3.378459 0.221952
v -0.183938 3.429190 0.214225
v -0.163188 3.412472 0.183430
v -0.194539 3.372536 0.175847
v -0.152726 3.433135 0.136783
v -0.224690 3.340841 0.155764
v -0.169970 3.425183 0.112931
v -0.226506 3.371531 0.135790
v -0.203748 3.421185 0.103945
v -0.173165 3.488439 0.099674
v -0.230024 3.455732 0.117523
v -0.208559 3.457888 0.103333
v -0.322154 3.470382 0.437344
v -0.265590 3.474248 0.397598
v -0.312314 3.496808 0.410408
v -0.296355 3.500631 0.400768
v -0.304280 3.484514 0.376803
v -0.266724 3.492386 0.379693
v -0.288396 3.523031 0.350949
v -0.306927 3.459643 0.343485
v -0.236295 3.470254 0.383436
v -0.223878 3.459285 0.369679
v -0.227342 3.508712 0.349693
v -0.228215 3.457824 0.348464
v -0.258351 3.454741 0.275033
v -0.243390 3.527245 0.352555
v -0.222290 3.466385 0.312378
v -0.194123 3.510824 0.265047
v -0.233945 3.534013 0.306797
v -0.309597 3.529843 0.297797
v -0.295886 3.476638 0.271831
v -0.308809 3.489298 0.313493
v -0.296592 3.498171 0.234932
v -0.274353 3.480792 0.233750
v -0.299716 3.524348 0.240834
v -0.242643 3.571652 0.279032
v -0.278517 3.566049 0.302097
v -0.300426 3.565683 0.250361
v -0.263944 3.597021 0.253865
v -0.186293 3.471759 0.211998
v -0.264374 3.476280 0.202003
v -0.217010 3.551861 0.253738
v -0.238712 3.561114 0.263149
v -0.187940 3.533822 0.246970
v -0.213569 3.576508 0.224752
v -0.254073 3.576344 0.230983
v -0.248900 3.593117 0.198345
v -0.272802 3.564975 0.223406
v -0.234546 3.611236 0.192598
v -0.219919 3.588277 0.191102
v -0.285656 3.503933 0.208663
v -0.264515 3.514436 0.192084
v -0.241649 3.489721 0.164284
v -0.239914 3.529987 0.157183
v -0.222599 3.528580 0.157601
v -0.272819 3.533301 0.199386
v -0.275864 3.575016 0.168141
v -0.268497 3.544975 0.163559
v -0.262809 3.562685 0.136573
v -0.261722 3.595698 0.139139
v -0.216521 3.626974 0.195913
v -0.200518 3.588444 0.181151
v -0.234751 3.648256 0.182374
v -0.254397 3.623254 0.174369
v -0.253074 3.656872 0.143500
v -0.179307 3.457090 0.187403
v -0.186135 3.504527 0.208258
v -0.191607 3.479297 0.148881
v -0.207379 3.488082 0.161545
v -0.205547 3.504199 0.175973
v -0.178115 3.483770 0.130903
v -0.158038 3.465747 0.110181
v -0.192778 3.574832 0.203643
v -0.184093 3.540654 0.190166
v -0.184823 3.571425 0.169242
v -0.225271 3.476660 0.133132
v -0.194250 3.497563 0.103464
v -0.245592 3.623045 0.140139
v -0.215690 3.577882 0.123409
v -0.200591 3.629670 0.186226
v -0.205955 3.610861 0.151310
v -0.201651 3.663839 0.159295
v -0.223325 3.665556 0.115548
v -0.217362 3.707792 0.115362
v -0.209508 3.687156 0.143253
v -0.240500 3.705809 0.122499
v 0.716009 3.408092 0.815695
v 0.681909 3.398108 0.844458
v 0.779141 3.406558 0.737718
v 0.771380 3.390434 0.770701
v 0.739302 3.414740 0.800674
v 0.742010 3.446741 0.785126
v 0.764707 3.452222 0.749037
v 0.634390 3.367355 0.803446
v 0.657534 3.384463 0.790133
v 0.641342 3.353450 0.833726
v 0.680571 3.400376 0.772454
v 0.685787 3.406993 0.797305
v 0.660023 3.390115 0.822443
v 0.695805 3.427393 0.788929
v 0.685621 3.434225 0.729118
v 0.682008 3.441201 0.757328
v 0.702567 3.476801 0.731117
v 0.709631 3.449242 0.775800
v 0.740463 3.457655 0.762524
v 0.737015 3.470144 0.740817
v 0.730551 3.488576 0.726410
v 0.713832 3.498039 0.714528
v 0.718229 3.517094 0.688132
v 0.682701 3.459264 0.723141
v 0.669623 3.491367 0.702938
v 0.637447 3.501545 0.693801
v 0.690594 3.511107 0.690886
v 0.851062 3.406636 0.620116
v 0.717684 3.549242 0.621939
v 0.753072 3.579597 0.645402
v 0.705009 3.552159 0.642732
v 0.752708 3.579017 0.618951
v 0.776531 3.603430 0.618542
v 0.720204 3.571603 0.602800
v 0.769918 3.620820 0.601137
v 0.716834 3.583595 0.656008
v 0.805143 3.641135 0.621374
v 0.760119 3.615969 0.653232
v 0.768603 3.663317 0.612204
v 0.771052 3.650978 0.637277
v 0.636310 3.509124 0.601031
v 0.663669 3.510618 0.590640
v 0.660534 3.548579 0.580612
v 0.625039 3.488277 0.682456
v 0.618358 3.505003 0.644080
v 0.637910 3.546774 0.658596
v 0.623250 3.555539 0.622526
v 0.643732 3.580914 0.633759
v 0.686833 3.543863 0.586812
v 0.696840 3.573848 0.585001
v 0.713768 3.589422 0.603005
v 0.645054 3.558886 0.596078
v 0.674571 3.589526 0.597175
v 0.686404 3.577159 0.641967
v 0.661492 3.562485 0.650704
v 0.709784 3.603837 0.641188
v 0.639913 3.579373 0.611032
v 0.677656 3.594918 0.626266
v 0.718585 3.612804 0.622146
v 0.633236 3.259460 0.832047
v 0.640315 3.284146 0.813633
v 0.662753 3.272994 0.867631
v 0.604998 3.286639 0.861269
v 0.662637 3.285289 0.843280
v 0.608303 3.285578 0.831254
v 0.626780 3.300191 0.819306
v 0.648184 3.287135 0.880632
v 0.654613 3.307508 0.869226
v 0.639550 3.266505 0.924031
v 0.662576 3.281954 0.904338
v 0.684020 3.268938 0.934851
v 0.619012 3.280370 0.897873
v 0.597865 3.296053 0.907247
v 0.648044 3.249431 0.916298
v 0.677163 3.266285 0.928234
vn 0.9786 -0.1282 0.1609
vn 0.8279 -0.1828 0.5303
vn 0.6950 -0.4780 -0.5371
vn 0.7903 -0.3693 -0.4888
vn 0.4051 0.4573 -0.7917
vn 0.8136 0.2539 -0.5231
vn -0.0924 0.7226 0.6851
vn -0.0561 0.5630 0.8246
vn -0.2804 0.6788 0.6787
vn -0.1198 0.8143 0.5679
vn -0.2783 0.6983 0.6595
vn -0.0837 0.5061 0.8584
vn -0.5542 0.2698 0.7874
vn 0.4266 0.6981 0.5750
vn -0.1524 0.6573 0.7380
vn 0.2769 0.9027 0.3293
vn 0.4088 0.8176 0.4054
vn 0.6881 0.5810 0.4347
vn 0.8624 0.3695 0.3461
vn -0.5343 0.6791 0.5033
vn -0.0058 0.8507 0.5256
vn -0.0566 0.8975 0.4373
vn -0.1815 0.5884 0.7880
vn -0.5416 0.6575 0.5238
vn -0.1123 0.5872 0.8016
vn -0.6959 0.6407 0.3244
vn -0.9862 -0.1371 -0.0924
vn 0.0284 0.8684 0.4951
vn -0.4151 0.9059 0.0838
vn -0.5984 0.7301 0.3299
vn -0.8619 0.2026 0.4648
vn -0.8853 0.4607 0.0631
vn -0.4002 0.8962 0.1915
vn -0.6031 0.7931 -0.0853
vn -0.6026 0.7935 -0.0848
vn -0.6114 0.7861 -0.0901
vn -0.6120 0.7857 -0.0903
vn -0.9252 -0.1028 -0.3653
vn -0.9251 -0.1041 -0.3652
vn -0.9245 -0.1101 -0.3649
vn -0.9569 -0.2858 -0.0519
vn -0.7102 0.3483 -0.6118
vn -0.8036 0.3221 -0.5004
vn -0.8299 0.4994 0.2487
vn -0.6243 0.7763 -0.0877
vn -0.7564 0.5110 0.4084
vn -0.9773 -0.0333 0.2091
vn -0.6614 0.4021 -0.6331
vn -0.7782 -0.0647 -0.6247
vn -0.8712 -0.2251 -0.4363
vn 0.5786 0.7677 -0.2753
vn -0.2353 0.6954 0.6790
vn 0.4287 0.3652 0.8264
vn 0.3972 0.8368 0.3769
vn 0.7943 0.2756 0.5414
vn 0.7527 0.2351 0.6150
vn 0.9228 0.3376 -0.1853
vn 0.9230 0.2122 0.3209
vn 0.8353 0.3902 0.3873
vn -0.0790 0.9671 0.2419
vn 0.4314 0.5613 0.7063
vn -0.1355 0.4996 0.8556
vn 0.4125 0.5063 0.7572
vn -0.2539 0.2463 0.9353
vn -0.8163 0.2810 0.5047
vn -0.3158 0.2345 0.9194
vn 0.6981 -0.2333 0.6770
vn 0.6080 -0.2576 0.7510
vn -0.0066 0.8087 0.5882
vn -0.8090 0.5142 0.2848
vn 0.4853 0.2147 0.8476
vn 0.9154 -0.3697 0.1591
vn 0.9353 0.1500 0.3203
vn 0.7984 -0.3311 0.5029
vn 0.9639 -0.1126 0.2413
vn 0.4340 -0.4140 0.8002
vn 0.4032 0.0484 0.9138
vn 0.4603 -0.0425 0.8868
vn 0.5078 -0.6630 0.5500
vn 0.0799 -0.3683 0.9263
vn -0.6928 0.4840 0.5345
vn -0.9702 0.2423 0.0091
vn 0.7952 -0.5962 0.1102
vn 0.9080 -0.4061 -0.1030
vn -0.5810 -0.8135 -0.0252
vn 0.2350 -0.9456 -0.2248
vn -0.8591 0.0532 -0.5091
vn 0.6038 -0.5460 -0.5808
vn 0.1419 -0.7757 -0.6150
vn 0.7384 -0.5949 0.3176
vn 0.8304 -0.5471 0.1055
vn 0.1072 0.3131 0.9436
vn 0.1320 0.6847 0.7168
vn 0.3856 0.5285 0.7563
vn 0.6430 0.6943 -0.3233
vn 0.1272 0.8988 0.4196
vn -0.2089 0.9775 0.0291
vn 0.8409 0.3838 0.3816
vn 0.5471 0.7978 -0.2533
vn 0.5563 0.7659 -0.3224
vn 0.6613 0.4609 -0.5919
vn 0.7454 0.2298 -0.6258
vn 0.2210 -0.3184 -0.9218
vn -0.5634 -0.1652 0.8095
vn -0.6520 -0.1882 0.7345
vn -0.8188 -0.5061 0.2710
vn -0.5643 -0.8253 -0.0204
vn -0.2477 -0.9667 -0.0640
vn 0.6337 0.7664 -0.1051
vn 0.9579 0.2696 -0.0991
vn 0.9613 0.2630 -0.0820
vn 0.8699 -0.2399 -0.4310
vn 0.8970 0.1252 -0.4239
vn 0.5519 0.1683 -0.8168
vn 0.7960 -0.1891 -0.5750
vn 0.6531 -0.1404 -0.7441
vn 0.8153 -0.2774 -0.5083
vn -0.6945 0.0894 0.7139
vn -0.6727 -0.6693 0.3154
vn -0.8156 -0.3119 -0.4873
vn -0.8680 -0.0565 -0.4933
vn -0.5741 -0.7250 -0.3804
vn -0.5702 -0.7645 -0.3007
vn 0.4708 -0.8754 -0.1094
vn 0.6769 -0.5505 -0.4886
vn 0.2207 -0.4271 -0.8769
vn 0.1588 -0.4684 -0.8691
vn 0.1399 -0.3783 -0.9150
vn 0.0385 -0.6154 -0.7873
vn -0.9243 -0.1120 -0.3647
vn -0.8021 0.3072 -0.5122
vn -0.3258 0.1347 -0.9358
vn 0.7875 -0.0550 -0.6139
vn 0.8306 0.3244 -0.4525
vn -0.0319 -0.5169 -0.8555
vn 0.1159 -0.6785 -0.7254
vn 0.0976 -0.5382 -0.8371
vn 0.3848 0.5966 -0.7043
vn -0.3764 0.0597 -0.9245
vn -0.2711 -0.0367 -0.9619
vn -0.3894 0.3498 -0.8521
vn 0.4642 0.7382 -0.4895
vn 0.4348 0.5629 -0.7029
vn -0.3623 0.9049 -0.2231
vn -0.7179 0.6337 -0.2883
vn 0.0027 0.9793 0.2022
vn 0.2341 0.9383 0.2545
vn 0.8873 0.1507 0.4360
vn 0.7676 0.1637 0.6196
vn 0.5514 0.4066 0.7284
vn 0.7380 -0.1255 0.6631
vn 0.6557 -0.1512 0.7397
vn -0.1024 0.9865 -0.1278
vn -0.3571 0.9270 -0.1149
vn -0.7083 0.4838 -0.5140
vn -0.6846 0.7251 -0.0744
vn -0.0663 0.9824 -0.1745
vn -0.5321 0.6759 -0.5099
vn -0.5929 0.7994 -0.0975
vn -0.5905 0.8014 -0.0955
vn -0.5897 0.8020 -0.0950
vn -0.7527 0.5076 -0.4192
vn -0.5936 0.7987 -0.0983
vn -0.8750 0.4779 0.0769
vn -0.8867 0.0606 -0.4583
vn -0.5733 0.3886 -0.7214
vn -0.6839 0.5974 -0.4187
vn 0.0968 0.9421 0.3211
vn 0.8277 0.2799 0.4864
vn 0.8145 0.4563 0.3582
vn 0.6631 0.6430 0.3831
vn 0.7505 0.2695 0.6034
vn 0.8260 -0.5625 -0.0350
vn 0.7663 -0.6423 -0.0125
vn 0.7781 -0.6281 0.0024
vn 0.8870 -0.4247 0.1812
vn 0.7996 -0.4737 0.3690
vn 0.7183 -0.1570 0.6778
vn 0.8698 -0.4570 0.1860
vn 0.7687 -0.6394 0.0176
vn 0.9682 -0.1911 0.1615
vn -0.3354 0.4363 -0.8349
vn -0.8800 -0.4415 0.1750
vn -0.8475 0.2010 -0.4912
vn -0.5312 0.4334 -0.7280
vn -0.7031 0.2687 -0.6584
vn -0.0144 -0.6707 -0.7416
vn -0.0683 -0.6764 -0.7334
vn 0.0360 0.0869 0.9956
vn -0.9340 -0.3182 0.1627
vn -0.5002 -0.4735 0.7250
vn -0.9132 0.0631 0.4027
vn 0.7766 -0.2399 0.5825
vn 0.6970 -0.2538 0.6707
vn 0.8452 0.1476 0.5137
vn 0.4884 -0.0780 0.8691
vn 0.5363 -0.3477 0.7691
vn 0.9568 -0.2840 0.0615
vn -0.7412 0.4038 0.5363
vn 0.2061 0.6281 0.7503
vn 0.4670 0.4411 0.7664
vn 0.3793 0.9221 0.0769
vn -0.6883 0.3304 0.6458
vn 0.9951 0.0470 -0.0867
vn -0.6847 0.6294 -0.3676
vn -0.6947 0.5603 -0.4511
vn -0.7672 0.4219 -0.4831
vn -0.6777 0.3957 -0.6198
vn -0.6102 0.7746 -0.1662
vn -0.9976 -0.0671 -0.0165
vn -0.9950 -0.0781 0.0615
vn -0.9508 0.1723 -0.2575
vn -0.9918 -0.0068 0.1274
vn 0.3874 0.1882 0.9025
vn 0.9603 -0.0590 0.2725
vn 0.9827 0.1557 0.1004
vn -0.2825 -0.1235 -0.9513
vn -0.3319 0.3892 -0.8593
vn -0.7670 0.4894 -0.4150
vn -0.2700 -0.1166 -0.9558
vn -0.4644 0.3421 -0.8169
vn 0.3316 -0.4394 -0.8349
vn -0.7162 0.5525 -0.4264
vn -0.1925 -0.2994 -0.9345
vn -0.1724 -0.2956 -0.9396
vn 0.7989 -0.4953 -0.3412
vn 0.1531 -0.3947 -0.9060
vn 0.3329 -0.6508 -0.6824
vn 0.2424 -0.7767 -0.5813
vn 0.2044 -0.5515 -0.8088
vn 0.4682 -0.7351 -0.4903
vn 0.4735 -0.6086 -0.6368
vn 0.9312 -0.3220 -0.1710
vn 0.7464 0.4048 -0.5283
vn 0.4601 0.6631 -0.5904
vn 0.4924 0.7108 -0.5022
vn -0.6580 0.4749 -0.5844
vn -0.1186 -0.0468 -0.9918
vn 0.3555 -0.2577 -0.8985
vn 0.1976 0.1099 -0.9741
vn 0.8412 0.4040 0.3594
vn 0.0608 0.7402 -0.6697
vn 0.3118 0.5507 0.7743
vn 0.3117 0.5508 0.7742
vn 0.3117 0.5508 0.7743
vn -0.2897 0.8543 0.4316
vn -0.2898 0.8543 0.4315
vn -0.2898 0.8542 0.4316
vn 0.7369 0.2031 0.6448
vn 0.7369 0.2032 0.6448
vn 0.4755 0.2104 0.8542
vn 0.6397 0.3434 0.6876
vn 0.6405 0.4094 0.6498
vn 0.6405 0.4093 0.6498
vn 0.1600 0.7723 0.6148
vn -0.3761 0.7727 0.5114
vn -0.3762 0.7726 0.5114
vn 0.3680 0.6146 0.6978
vn -0.0642 0.5497 0.8329
vn -0.0642 0.5498 0.8328
vn 0.8837 0.3895 -0.2597
vn 0.9718 0.2070 0.1131
vn 0.9718 0.2071 0.1131
vn 0.8982 -0.1955 -0.3937
vn 0.9666 -0.2536 -0.0377
vn 0.9666 -0.2537 -0.0377
vn 0.9605 0.1511 -0.2336
vn 0.6946 -0.2503 0.6744
vn 0.6947 -0.2503 0.6744
vn 0.7729 0.2881 0.5653
vn 0.7787 0.4410 0.4462
vn 0.7787 0.4411 0.4462
vn -0.6259 0.7437 0.2349
vn -0.5976 0.6582 0.4580
vn -0.5976 0.6581 0.4581
vn -0.5976 0.6581 0.4580
vn -0.8707 0.2426 -0.4278
vn -0.8707 0.2425 -0.4278
vn -0.9389 0.0704 -0.3369
vn -0.8783 0.3774 0.2934
vn -0.8784 0.3773 0.2934
vn -0.9411 0.3341 -0.0509
vn -0.9412 0.3340 -0.0509
vn -0.9412 0.3341 -0.0509
vn -0.8178 0.0841 -0.5693
vn -0.8178 0.0842 -0.5693
vn -0.8702 -0.0823 -0.4857
vn -0.8702 -0.0822 -0.4857
vn -0.8106 -0.3618 -0.4605
vn 0.9642 0.2641 0.0250
vn 0.9249 0.3796 0.0192
vn 0.9250 0.3796 0.0192
vn 0.9249 0.3797 0.0192
vn 0.9590 0.2246 0.1730
vn 0.9590 0.2247 0.1730
vn 0.9731 0.2233 0.0569
vn 0.7129 -0.0743 -0.6974
vn 0.7129 -0.0742 -0.6974
vn 0.4029 -0.1005 -0.9097
vn 0.4747 -0.0488 -0.8788
vn 0.4747 -0.0489 -0.8788
vn 0.0612 -0.0409 -0.9973
vn 0.0612 -0.0408 -0.9973
vn -0.0442 0.0820 -0.9956
vn -0.0442 0.0821 -0.9956
vn -0.0442 0.0820 -0.9957
vn -0.1622 -0.8270 -0.5383
vn 0.4453 -0.3473 -0.8253
vn 0.5420 -0.1181 -0.8321
vn 0.5419 -0.1182 -0.8321
vn 0.5419 -0.1181 -0.8321
vn 0.4930 0.7958 0.3516
vn 0.8314 0.4999 -0.2425
vn 0.2822 0.8901 0.3580
vn 0.2822 0.8900 0.3580
vn 0.8725 0.4835 -0.0708
vn 0.8724 0.4836 -0.0708
vn -0.3482 0.8108 0.4705
vn -0.3483 0.8108 0.4705
vn -0.3482 0.8108 0.4704
vn -0.2184 0.5586 0.8001
vn -0.2184 0.5586 0.8002
vn 0.6605 0.4818 0.5758
vn 0.6605 0.4819 0.5758
vn -0.2448 0.4817 0.8415
vn -0.4062 0.2750 0.8714
vn -0.4016 0.2699 0.8752
vn 0.5349 0.0023 0.8449
vn 0.5348 0.0023 0.8449
vn 0.9727 0.1022 0.2086
vn 0.9726 0.1023 0.2086
vn 0.7048 0.5274 0.4745
vn 0.7048 0.5274 0.4744
vn 0.8147 -0.3433 0.4674
vn 0.8145 -0.3354 0.4733
vn 0.9917 0.0755 0.1042
vn 0.9917 0.0754 0.1042
vn -0.6512 0.5162 0.5563
vn -0.6512 0.5161 0.5563
vn 0.5842 0.8049 0.1044
vn -0.6082 0.0804 0.7897
vn -0.8271 0.1261 0.5478
vn -0.8809 0.0078 0.4733
vn -0.8808 0.0077 0.4734
vn -0.9856 -0.1657 0.0350
vn -0.9855 -0.1658 0.0350
vn -0.9894 -0.1384 0.0431
vn -0.9894 -0.1385 0.0431
vn 0.7268 -0.1413 -0.6721
vn 0.4802 -0.5033 -0.7184
vn 0.4785 -0.5071 -0.7169
vn 0.4784 -0.5071 -0.7169
vn 0.6282 -0.5991 -0.4965
vn 0.6320 -0.6039 -0.4856
vn 0.6271 -0.6022 -0.4940
vn 0.9967 0.0789 0.0174
vn 0.9967 0.0790 0.0174
vn 0.9596 0.2722 -0.0717
vn 0.9595 0.2723 -0.0717
vn 0.6328 -0.6043 -0.4842
vn 0.4514 -0.6614 -0.5990
vn 0.9393 0.2943 -0.1764
vn 0.3358 -0.3353 -0.8803
vn 0.3358 -0.3352 -0.8803
vn -0.7188 -0.5203 -0.4611
vn -0.7188 -0.5204 -0.4611
vn 0.2494 -0.7388 -0.6261
vn -0.9139 -0.2284 -0.3357
vn -0.1526 -0.6046 -0.7818
vn -0.1526 -0.6045 -0.7818
vn -0.2512 -0.1841 -0.9503
vn -0.9927 -0.0528 -0.1082
vn -0.8949 -0.1977 -0.4001
vn -0.9299 -0.1890 -0.3157
vn -0.9299 -0.1889 -0.3157
vn -0.8954 -0.0852 -0.4370
vn -0.8954 -0.0851 -0.4370
vn 0.4461 -0.2753 -0.8516
vn 0.4460 -0.2753 -0.8516
vn 0.3523 0.7153 0.6036
vn 0.3523 0.7153 0.6035
vn 0.4354 0.7982 0.4163
vn 0.4355 0.7981 0.4164
vn 0.8516 0.2746 -0.4466
vn 0.8465 0.4266 -0.3186
vn 0.6729 0.7271 -0.1359
vn 0.6711 0.6567 0.3441
vn 0.6711 0.6567 0.3440
vn 0.6710 0.6568 0.3440
vn -0.6445 0.6086 0.4629
vn -0.6149 0.5128 0.5991
vn -0.6148 0.5128 0.5991
vn -0.6148 0.5129 0.5991
vn -0.9598 0.1607 -0.2300
vn -0.9599 0.1606 -0.2300
vn -0.8650 0.4939 0.0883
vn -0.8651 0.4939 0.0883
vn -0.8651 0.4938 0.0883
vn -0.5780 0.8073 -0.1192
vn 0.7796 0.5955 0.1940
vn 0.7796 0.5954 0.1940
vn -0.3849 0.8424 -0.3772
vn -0.3849 0.8423 -0.3772
vn 0.2411 0.5993 0.7634
vn 0.2411 0.5992 0.7634
vn -0.8841 0.2792 0.3748
vn -0.8841 0.2791 0.3748
vn -0.8840 0.2792 0.3748
vn -0.8186 0.0086 0.5744
vn -0.8185 0.0092 0.5744
vn -0.8185 0.0096 0.5744
vn -0.8185 0.0084 0.5744
vn -0.4503 0.5550 0.6995
vn -0.4503 0.5549 0.6995
vn 0.7126 -0.3223 -0.6231
vn 0.6450 0.4851 0.5905
vn 0.6449 0.4852 0.5904
vn 0.6450 0.4852 0.5905
vn 0.3136 0.6478 0.6942
vn 0.9633 0.2670 0.0286
vn 0.9633 0.2671 0.0286
vn 0.8671 0.4329 0.2465
vn 0.7380 -0.0120 -0.6747
vn 0.7380 -0.0119 -0.6747
vn 0.4879 -0.7810 -0.3898
vn 0.9277 -0.0207 -0.3726
vn 0.9277 -0.0208 -0.3726
vn 0.8169 0.1653 -0.5526
vn 0.8169 0.1652 -0.5526
vn -0.7923 -0.5887 -0.1602
vn 0.1517 -0.9051 -0.3972
vn 0.1516 -0.9051 -0.3972
vn 0.3237 -0.7911 -0.5191
vn 0.9726 0.1824 0.1443
vn 0.7707 0.6126 -0.1753
vn 0.2519 0.7565 0.6035
vn 0.8885 0.3836 -0.2517
vn 0.4293 0.8385 0.3355
vn 0.4293 0.8385 0.3356
vn 0.8562 0.2671 -0.4421
vn 0.8563 0.2671 -0.4422
vn 0.2007 -0.9775 0.0643
vn 0.9231 -0.2979 -0.2431
vn 0.9231 -0.2980 -0.2431
vn 0.7668 0.6357 -0.0888
vn 0.7855 0.4666 0.4067
vn 0.7854 0.4666 0.4067
vn -0.7595 -0.5489 0.3490
vn -0.9558 -0.1196 0.2686
vn -0.9558 -0.1195 0.2686
vn -0.5816 -0.8037 -0.1262
vn -0.5816 -0.8036 -0.1262
vn -0.5815 -0.8037 -0.1262
vn -0.5639 -0.8233 -0.0641
vn -0.5640 -0.8233 -0.0641
vn -0.8868 -0.2025 0.4154
vn -0.9272 -0.0806 0.3658
vn -0.9272 -0.0807 0.3658
vn -0.7020 -0.7104 -0.0500
vn -0.7010 -0.7117 -0.0467
vn -0.7002 -0.7126 -0.0440
vn -0.7000 -0.7128 -0.0436
vn -0.9951 0.0367 -0.0914
vn -0.9951 0.0368 -0.0914
vn -0.3639 0.9007 0.2375
vn -0.3638 0.9007 0.2375
vn -0.9879 -0.1423 -0.0612
vn -0.4367 0.5812 0.6867
vn -0.4367 0.5811 0.6867
vn -0.4756 0.5981 0.6451
vn 0.5086 0.7793 0.3661
vn 0.5091 0.7787 0.3667
vn -0.9336 0.0230 0.3577
vn -0.9336 0.0229 0.3577
vn -0.9550 0.1517 -0.2548
vn -0.9550 0.1516 -0.2548
vn -0.9375 0.3468 0.0293
vn -0.9375 0.3467 0.0293
vn -0.4141 0.7182 0.5592
vn -0.4820 0.7024 -0.5237
vn -0.4820 0.7024 -0.5238
vn -0.7224 0.6610 -0.2032
vn -0.7224 0.6609 -0.2032
vn 0.2126 -0.9758 0.0521
vn 0.2126 -0.9757 0.0521
vn -0.6505 -0.7505 0.1168
vn 0.9306 -0.3488 -0.1110
vn 0.9205 0.0110 -0.3906
vn 0.9176 -0.1424 -0.3711
vn 0.9176 -0.1423 -0.3711
vn -0.5996 -0.7604 0.2496
vn -0.4483 -0.0437 0.8928
vn -0.4483 -0.0438 0.8928
vn -0.7738 -0.5750 0.2657
vn 0.8053 0.4820 0.3452
vn 0.6298 0.5411 -0.5573
vn 0.6299 0.5410 -0.5573
vn 0.6391 0.5457 -0.5420
vn 0.4900 0.8691 -0.0669
vn 0.4180 0.7525 0.5089
vn 0.7490 0.6188 0.2368
vn 0.7490 0.6189 0.2367
vn 0.7684 0.6221 0.1503
vn 0.7684 0.6220 0.1503
vn 0.2969 0.8830 0.3636
vn 0.2968 0.8830 0.3636
vn -0.3452 0.7580 0.5535
vn -0.3451 0.7580 0.5535
vn -0.4904 0.7209 0.4898
vn 0.3510 0.9359 0.0309
vn 0.4325 0.8649 0.2547
vn -0.5044 -0.8014 -0.3215
vn 0.7145 0.1011 0.6923
vn -0.8787 -0.2145 -0.4265
vn -0.8532 0.4994 0.1504
vn -0.8813 0.4569 -0.1206
vn -0.8813 0.4570 -0.1206
vn -0.9882 -0.1455 -0.0468
vn -0.9882 -0.1456 -0.0468
vn -0.9925 -0.0705 -0.0995
vn -0.7183 -0.6346 -0.2852
vn -0.4979 -0.1740 -0.8496
vn -0.4979 -0.1741 -0.8496
vn -0.9017 -0.3220 0.2884
vn -0.9017 -0.3221 0.2884
vn -0.9018 -0.3220 0.2884
vn -0.8312 -0.0364 0.5548
vn -0.9185 -0.2077 0.3364
vn -0.4039 0.2836 0.8697
vn -0.4039 0.2837 0.8697
vn -0.4040 0.2836 0.8697
vn -0.8421 0.4176 0.3413
vn -0.8420 0.4177 0.3413
vn -0.6949 -0.6832 -0.2244
vn -0.6949 -0.6831 -0.2244
vn -0.9611 -0.1805 0.2089
vn -0.9611 -0.1806 0.2089
vn -0.9903 0.0614 0.1249
vn -0.9903 0.0613 0.1250
vn -0.9903 0.0614 0.1250
vn -0.4698 -0.5580 -0.6840
vn -0.4698 -0.5580 -0.6841
vn -0.4698 -0.5581 -0.6840
vn -0.7409 0.0837 -0.6664
vn -0.7409 0.0838 -0.6664
vn -0.7409 0.0836 -0.6664
vn 0.0704 0.5353 0.8417
vn 0.0704 0.5354 0.8417
vn 0.1350 0.2446 0.9602
vn 0.1350 0.2445 0.9602
vn 0.4395 -0.1160 0.8907
vn 0.8399 -0.1490 0.5218
vn 0.5958 0.6823 0.4236
vn 0.5975 0.6794 0.4258
vn 0.5975 0.6795 0.4258
vn -0.1034 0.2122 0.9717
vn -0.1034 0.2123 0.9717
vn -0.8302 0.5017 0.2429
vn -0.8303 0.5017 0.2429
vn -0.9417 -0.1863 0.2802
vn -0.4185 0.4527 0.7873
vn -0.4185 0.4527 0.7874
vn 0.9529 0.0660 -0.2959
vn 0.9529 0.0659 -0.2959
vn 0.9615 0.0249 -0.2738
vn 0.6479 0.7539 -0.1092
vn 0.4460 0.3296 -0.8321
vn 0.4389 0.3441 -0.8300
vn 0.4520 -0.2921 -0.8428
vn 0.5200 0.2820 -0.8062
vn 0.5200 0.2820 -0.8063
vn 0.5200 0.2821 -0.8062
vn 0.1840 -0.0990 -0.9779
vn 0.4422 0.8695 0.2202
vn 0.4422 0.8694 0.2202
vn 0.4422 0.8694 0.2203
vn 0.8160 0.5541 -0.1646
vn 0.9028 0.3761 -0.2087
vn 0.8890 -0.0240 -0.4573
vn 0.8817 0.2113 -0.4218
vn 0.9338 0.1636 -0.3183
vn 0.9338 0.1635 -0.3183
vn 0.2436 -0.4115 -0.8783
vn 0.2435 -0.4116 -0.8782
vn 0.7193 0.6285 -0.2960
vn 0.7193 0.6284 -0.2961
vn 0.7193 0.6285 -0.2961
vn 0.8179 0.5465 -0.1802
vn 0.8179 0.5464 -0.1802
vn -0.1093 0.8859 -0.4508
vn -0.8684 0.4958 0.0120
vn -0.8684 0.4957 0.0120
vn -0.5809 -0.1282 -0.8038
vn -0.1835 0.9247 -0.3335
vn -0.0504 0.9803 0.1908
vn -0.0504 0.9803 0.1909
vn 0.7652 0.6082 -0.2110
vn -0.6527 0.0150 -0.7575
vn -0.6527 0.0149 -0.7575
vn -0.4787 -0.0113 -0.8779
vn 0.1633 0.8619 0.4801
vn 0.4617 0.8859 -0.0447
vn -0.8475 0.5262 -0.0692
vn -0.8476 0.5262 -0.0692
vn -0.8903 0.2025 -0.4078
vn -0.8903 0.2024 -0.4078
vn 0.3239 -0.4708 -0.8206
vn 0.3239 -0.4708 -0.8207
vn -0.4456 -0.5672 -0.6927
vn -0.4456 -0.5672 -0.6926
vn 0.4369 0.2025 -0.8764
vn -0.7054 0.1842 -0.6844
vn -0.7054 0.1841 -0.6845
vn -0.1468 -0.1720 -0.9741
vn 0.8870 -0.1027 0.4502
vn 0.7621 0.0218 -0.6470
vn 0.7892 -0.0627 -0.6110
vn 0.5986 0.6050 0.5250
vn -0.3695 -0.5287 -0.7641
vn -0.3695 -0.5288 -0.7641
vn -0.0666 0.5308 -0.8449
vn -0.0666 0.5308 -0.8448
vn -0.0303 0.9253 0.3781
vn 0.1536 0.4628 0.8731
vn 0.1536 0.4627 0.8731
vn 0.5387 -0.0055 -0.8425
vn 0.5383 -0.0054 -0.8428
vn 0.5412 -0.0050 -0.8409
vn -0.9547 -0.0752 -0.2878
vn -0.9547 -0.0751 -0.2878
vn -0.9417 -0.1506 -0.3008
vn -0.9417 -0.1505 -0.3008
vn 0.1763 0.4404 0.8803
vn 0.1763 0.4404 0.8804
vn 0.6089 -0.1321 -0.7822
vn -0.7455 0.0378 -0.6654
vn 0.3853 0.8134 0.4358
vn 0.2701 0.4667 0.8422
vn 0.6481 -0.7615 0.0078
vn 0.2059 -0.4454 0.8713
vn 0.4418 -0.8112 0.3831
vn 0.4604 -0.6066 -0.6481
vn 0.7157 -0.6983 0.0055
vn 0.6223 -0.4227 -0.6588
vn 0.5066 -0.5060 -0.6981
vn 0.4739 -0.5031 -0.7227
vn -0.4006 0.3765 -0.8353
vn 0.3731 0.2446 -0.8950
vn 0.8306 -0.2662 0.4892
vn 0.6656 -0.5435 0.5114
vn 0.2466 -0.2494 0.9365
vn -0.3126 0.4878 0.8150
vn 0.4667 0.2420 0.8507
vn -0.5384 0.7341 0.4139
vn -0.3112 0.4729 0.8243
vn 0.4127 0.8326 0.3694
vn -0.8504 -0.3364 -0.4047
vn 0.1932 -0.6000 -0.7763
vn -0.2926 -0.4626 -0.8369
vn 0.6507 -0.3677 -0.6644
vn -0.3295 -0.2665 -0.9058
vn -0.8650 -0.3148 -0.3908
vn -0.9728 -0.2195 0.0737
vn -0.8144 0.4665 0.3451
vn -0.8866 0.2897 0.3605
vn -0.9175 -0.0775 -0.3900
vn -0.6894 0.0492 -0.7228
vn -0.7740 0.0734 -0.6289
vn -0.8701 0.2622 0.4174
vn -0.7631 0.2451 -0.5981
vn -0.7865 0.4454 0.4279
vn -0.7945 0.6002 0.0928
vn 0.0231 0.6139 0.7890
vn 0.5946 -0.4879 -0.6390
vn 0.1825 -0.2370 -0.9542
vn 0.6799 -0.5196 -0.5175
vn 0.2059 -0.1273 -0.9703
vn 0.5738 -0.2388 -0.7834
vn 0.6039 0.2269 -0.7641
vn -0.1871 0.4228 -0.8867
vn -0.4711 0.4399 -0.7646
vn -0.4426 0.4625 -0.7682
vn 0.3771 0.3074 0.8737
vn 0.1293 0.3360 0.9329
vn -0.3635 -0.2430 0.8993
vn -0.1014 0.6304 0.7696
vn -0.4758 0.4393 0.7620
vn 0.2943 0.5684 -0.7684
vn -0.3660 0.8957 0.2526
vn -0.4021 0.9070 -0.1255
vn -0.4050 0.9057 -0.1249
vn -0.2872 0.9577 -0.0167
vn -0.1338 0.5978 0.7904
vn -0.0879 0.6270 0.7740
vn 0.0662 0.6690 -0.7403
vn -0.4078 0.9046 -0.1244
vn 0.7832 0.2892 -0.5504
vn -0.3987 0.2195 -0.8904
vn -0.4520 0.4191 0.7875
vn -0.7103 0.7039 0.0032
vn -0.6612 -0.3174 -0.6797
vn 0.5518 -0.7387 -0.3870
vn -0.3158 -0.3285 -0.8902
vn 0.3652 -0.2160 -0.9055
vn -0.6257 -0.2689 -0.7322
vn -0.7275 0.0817 -0.6812
vn 0.8993 -0.3887 -0.2005
vn 0.6542 -0.0211 0.7560
vn -0.2775 0.5345 0.7983
vn -0.8865 0.4050 0.2238
vn 0.6435 -0.0065 0.7654
vn -0.3079 0.2489 0.9183
vn -0.3598 0.4970 0.7897
vn -0.8005 0.5893 -0.1090
vn -0.7062 0.6320 -0.3192
vn -0.9624 0.2708 0.0200
vn -0.5555 0.2081 0.8050
vn 0.5864 0.8094 -0.0314
vn -0.4626 -0.5464 0.6982
vn -0.6184 -0.5582 0.5532
vn -0.2738 -0.5065 0.8176
vn -0.1016 -0.4520 0.8862
vn -0.0729 0.9642 0.2550
vn -0.1094 0.8402 0.5312
vt 0.924594 0.833174
vt 0.917073 0.827098
vt 0.922799 0.827207
vt 0.914123 0.832222
vt 0.915519 0.843117
vt 0.925810 0.839342
vt 0.358950 0.058688
vt 0.357400 0.065344
vt 0.353902 0.060914
vt 0.352362 0.057798
vt 0.910030 0.023414
vt 0.914851 0.027183
vt 0.909223 0.033190
vt 0.905183 0.027086
vt 0.895514 0.023424
vt 0.901065 0.019865
vt 0.907518 0.017855
vt 0.960948 0.861130
vt 0.951078 0.865418
vt 0.963173 0.850708
vt 0.968624 0.854150
vt 0.935800 0.811916
vt 0.939157 0.816660
vt 0.930112 0.819496
vt 0.895418 0.018698
vt 0.941101 0.809757
vt 0.306496 0.071323
vt 0.312224 0.068808
vt 0.308866 0.077147
vt 0.947161 0.807950
vt 0.952736 0.817105
vt 0.292166 0.075480
vt 0.298446 0.070625
vt 0.301987 0.083637
vt 0.304198 0.065826
vt 0.293682 0.065404
vt 0.889682 0.018011
vt 0.969906 0.844954
vt 0.963405 0.844012
vt 0.091596 0.974941
vt 0.095913 0.979814
vt 0.089322 0.980448
vt 0.099949 0.974951
vt 0.084161 0.980514
vt 0.081221 0.983744
vt 0.077515 0.975746
vt 0.085526 0.977907
vt 0.082780 0.972078
vt 0.967196 0.836270
vt 0.976042 0.839542
vt 0.073037 0.966194
vt 0.065126 0.974725
vt 0.096342 0.969087
vt 0.088347 0.968875
vt 0.091635 0.965970
vt 0.082844 0.962455
vt 0.319899 0.071747
vt 0.296084 0.055623
vt 0.302315 0.057277
vt 0.313427 0.053324
vt 0.319657 0.060139
vt 0.326296 0.055843
vt 0.290747 0.057490
vt 0.285752 0.053490
vt 0.291691 0.048347
vt 0.283804 0.046134
vt 0.279380 0.049988
vt 0.280265 0.039460
vt 0.103540 0.969359
vt 0.107393 0.969907
vt 0.285088 0.038282
vt 0.295581 0.046406
vt 0.303053 0.048641
vt 0.302513 0.041361
vt 0.309465 0.036977
vt 0.298694 0.032508
vt 0.103981 0.964978
vt 0.292072 0.035001
vt 0.277402 0.029868
vt 0.287233 0.026224
vt 0.077192 0.956320
vt 0.084024 0.955663
vt 0.077204 0.961044
vt 0.093206 0.961340
vt 0.091427 0.957496
vt 0.921992 0.023135
vt 0.926850 0.029109
vt 0.922562 0.034666
vt 0.917490 0.019845
vt 0.925208 0.827789
vt 0.915421 0.019093
vt 0.935190 0.822682
vt 0.936077 0.826970
vt 0.935390 0.833848
vt 0.935229 0.842697
vt 0.952560 0.851410
vt 0.947734 0.861993
vt 0.942342 0.857467
vt 0.937802 0.850612
vt 0.941736 0.838863
vt 0.943956 0.821699
vt 0.954118 0.821815
vt 0.944197 0.831829
vt 0.961618 0.832663
vt 0.968314 0.832719
vt 0.951265 0.832528
vt 0.064600 0.964772
vt 0.060203 0.973272
vt 0.323271 0.071100
vt 0.324186 0.062570
vt 0.325912 0.068107
vt 0.959585 0.823374
vt 0.327171 0.063815
vt 0.054488 0.985162
vt 0.049010 0.983467
vt 0.052555 0.973323
vt 0.034879 0.990709
vt 0.040151 0.982156
vt 0.338557 0.062409
vt 0.336002 0.057204
vt 0.326558 0.047317
vt 0.336902 0.051809
vt 0.333197 0.044234
vt 0.330147 0.035275
vt 0.318319 0.036927
vt 0.344822 0.067901
vt 0.344568 0.060897
vt 0.027529 0.986778
vt 0.042070 0.975036
vt 0.022011 0.983500
vt 0.017512 0.988903
vt 0.031438 0.978400
vt 0.036958 0.971428
vt 0.040704 0.967237
vt 0.032194 0.967400
vt 0.054537 0.959672
vt 0.345946 0.053147
vt 0.354657 0.051999
vt 0.341163 0.043053
vt 0.345703 0.039008
vt 0.343590 0.033698
vt 0.060426 0.957405
vt 0.308923 0.027917
vt 0.070654 0.947240
vt 0.303460 0.024612
vt 0.655319 0.028043
vt 0.646879 0.027484
vt 0.650388 0.014975
vt 0.314806 0.030038
vt 0.322505 0.029222
vt 0.744850 0.381453
vt 0.739639 0.386711
vt 0.740239 0.380782
vt 0.737203 0.376394
vt 0.733388 0.383992
vt 0.733570 0.394588
vt 0.743189 0.376647
vt 0.318985 0.020690
vt 0.037623 0.959805
vt 0.053527 0.951864
vt 0.046243 0.950875
vt 0.656942 0.015913
vt 0.660023 0.022740
vt 0.663442 0.017635
vt 0.660729 0.010289
vt 0.331122 0.027213
vt 0.340599 0.029693
vt 0.019563 0.981488
vt 0.026882 0.973199
vt 0.020882 0.968987
vt 0.028475 0.959738
vt 0.013317 0.988855
vt 0.012929 0.980598
vt 0.351564 0.041540
vt 0.018623 0.957455
vt 0.021528 0.954606
vt 0.014625 0.950719
vt 0.017548 0.947383
vt 0.036339 0.946431
vt 0.029226 0.951549
vt 0.349486 0.027251
vt 0.112852 0.186313
vt 0.104085 0.194109
vt 0.099406 0.186231
vt 0.106046 0.199389
vt 0.094761 0.194619
vt 0.105602 0.178927
vt 0.109465 0.170863
vt 0.117066 0.176647
vt 0.126667 0.183028
vt 0.114711 0.195109
vt 0.122976 0.191700
vt 0.125912 0.173147
vt 0.118943 0.167227
vt 0.127163 0.179938
vt 0.130550 0.174038
vt 0.125249 0.167401
vt 0.123074 0.169441
vt 0.129595 0.168127
vt 0.134741 0.182199
vt 0.138935 0.177618
vt 0.111755 0.205108
vt 0.120191 0.198913
vt 0.992176 0.071214
vt 0.988829 0.078596
vt 0.983411 0.074353
vt 0.978751 0.074406
vt 0.977461 0.079401
vt 0.973543 0.073926
vt 0.985668 0.087982
vt 0.960512 0.077608
vt 0.966436 0.083883
vt 0.977357 0.085558
vt 0.134210 0.165057
vt 0.126833 0.162319
vt 0.949214 0.091298
vt 0.957204 0.097305
vt 0.954925 0.102051
vt 0.951093 0.087460
vt 0.958238 0.088289
vt 0.952550 0.081846
vt 0.963844 0.090899
vt 0.960176 0.096595
vt 0.655620 0.384829
vt 0.650974 0.388460
vt 0.651641 0.378897
vt 0.950312 0.067501
vt 0.941817 0.072110
vt 0.940305 0.059904
vt 0.931102 0.065890
vt 0.945020 0.060607
vt 0.932241 0.059055
vt 0.949768 0.055360
vt 0.937937 0.406298
vt 0.934588 0.404417
vt 0.935097 0.401021
vt 0.934223 0.405820
vt 0.929713 0.399971
vt 0.866900 0.342697
vt 0.874517 0.343664
vt 0.868779 0.345135
vt 0.861099 0.334077
vt 0.872186 0.337307
vt 0.862667 0.339091
vt 0.877946 0.340824
vt 0.938556 0.400909
vt 0.345182 0.025827
vt 0.933926 0.392698
vt 0.936089 0.385408
vt 0.926811 0.383548
vt 0.665908 0.401668
vt 0.665581 0.411043
vt 0.661552 0.409044
vt 0.658800 0.421855
vt 0.656600 0.395375
vt 0.666276 0.396135
vt 0.648136 0.399944
vt 0.642705 0.398529
vt 0.639415 0.405538
vt 0.648993 0.407164
vt 0.652515 0.408124
vt 0.660968 0.404269
vt 0.654885 0.410482
vt 0.648679 0.413745
vt 0.656483 0.414325
vt 0.653555 0.413479
vt 0.647893 0.411369
vt 0.129416 0.191725
vt 0.132269 0.189525
vt 0.137475 0.184290
vt 0.992018 0.084859
vt 0.991542 0.087586
vt 0.991963 0.090300
vt 0.988150 0.094964
vt 0.978866 0.091871
vt 0.980987 0.099433
vt 0.955058 0.110104
vt 0.950051 0.105150
vt 0.996835 0.093990
vt 0.958779 0.105734
vt 0.964500 0.100938
vt 0.963163 0.112131
vt 0.969003 0.095893
vt 0.872139 0.354887
vt 0.883597 0.354136
vt 0.882591 0.363034
vt 0.990823 0.102846
vt 0.893216 0.364034
vt 0.878657 0.367633
vt 0.894587 0.373848
vt 0.895820 0.360553
vt 0.889954 0.353695
vt 0.893922 0.357473
vt 0.973663 0.094950
vt 0.914198 0.389780
vt 0.921105 0.386011
vt 0.919359 0.396532
vt 0.901194 0.383000
vt 0.915524 0.381100
vt 0.913361 0.375653
vt 0.919606 0.378836
vt 0.921319 0.374185
vt 0.918537 0.369414
vt 0.905425 0.370418
vt 0.901234 0.364432
vt 0.911119 0.364848
vt 0.904442 0.359859
vt 0.865070 0.347593
vt 0.925161 0.394521
vt 0.885837 0.346757
vt 0.899623 0.354636
vt 0.899813 0.351005
vt 0.909820 0.356216
vt 0.921243 0.360387
vt 0.905197 0.350727
vt 0.930695 0.903011
vt 0.924068 0.894548
vt 0.927621 0.897913
vt 0.932397 0.899245
vt 0.930861 0.375827
vt 0.648115 0.424350
vt 0.648970 0.420729
vt 0.931097 0.367357
vt 0.924846 0.365214
vt 0.934960 0.366683
vt 0.920166 0.351402
vt 0.928305 0.353269
vt 0.928490 0.359344
vt 0.939698 0.353816
vt 0.937975 0.901819
vt 0.938343 0.895891
vt 0.932833 0.894852
vt 0.932223 0.891791
vt 0.929137 0.346662
vt 0.932279 0.741525
vt 0.941790 0.745911
vt 0.933889 0.748552
vt 0.946075 0.897341
vt 0.636159 0.403083
vt 0.632677 0.408394
vt 0.641720 0.414646
vt 0.639215 0.415788
vt 0.635540 0.415656
vt 0.629531 0.414099
vt 0.633230 0.421361
vt 0.644311 0.414032
vt 0.894287 0.346722
vt 0.901387 0.346976
vt 0.627499 0.421025
vt 0.623199 0.430111
vt 0.624154 0.423432
vt 0.649997 0.416011
vt 0.939338 0.371429
vt 0.629099 0.429262
vt 0.927401 0.885735
vt 0.939964 0.888493
vt 0.933837 0.757982
vt 0.943291 0.752039
vt 0.621520 0.436175
vt 0.945287 0.886235
vt 0.952612 0.757221
vt 0.954197 0.750053
vt 0.952536 0.889335
vt 0.951298 0.752792
vt 0.925781 0.018428
vt 0.902735 0.830439
vt 0.904093 0.826234
vt 0.934522 0.015937
vt 0.935907 0.007444
vt 0.906776 0.835524
vt 0.895252 0.828897
vt 0.891866 0.831914
vt 0.885161 0.827452
vt 0.896484 0.838103
vt 0.878844 0.833095
vt 0.894612 0.822915
vt 0.944297 0.006675
vt 0.939052 0.018425
vt 0.881332 0.821817
vt 0.953638 0.005188
vt 0.958295 0.006623
vt 0.926312 0.855693
vt 0.923537 0.848171
vt 0.915307 0.850284
vt 0.938296 0.865018
vt 0.937457 0.875170
vt 0.929503 0.870718
vt 0.935969 0.055029
vt 0.938498 0.043231
vt 0.943860 0.045368
vt 0.929466 0.042381
vt 0.935711 0.038280
vt 0.931862 0.034190
vt 0.908563 0.842416
vt 0.903345 0.838667
vt 0.904626 0.847987
vt 0.941984 0.032604
vt 0.931670 0.023609
vt 0.936782 0.027004
vt 0.943963 0.019149
vt 0.638748 0.057787
vt 0.630971 0.056713
vt 0.634351 0.053483
vt 0.277746 0.024402
vt 0.780871 0.395083
vt 0.777713 0.391032
vt 0.783386 0.390062
vt 0.097655 0.958147
vt 0.097403 0.960908
vt 0.271917 0.031968
vt 0.120338 0.965561
vt 0.111590 0.974484
vt 0.115677 0.963928
vt 0.110156 0.966396
vt 0.771701 0.394913
vt 0.779203 0.401521
vt 0.766735 0.404715
vt 0.774053 0.408976
vt 0.780306 0.411582
vt 0.767640 0.415217
vt 0.779461 0.417791
vt 0.773550 0.428065
vt 0.762740 0.409683
s 1
f 19/1/1 265/2/1 15/3/1
f 19/1/2 263/4/2 265/2/2
f 19/1/3 283/5/3 263/4/3
f 283/5/4 19/1/4 29/6/4
f 87/7/5 86/8/5 262/9/5
f 87/7/6 262/9/6 53/10/6
f 261/11/7 17/12/7 260/13/7
f 259/14/8 261/11/8 260/13/8
f 259/14/9 251/15/9 256/16/9
f 256/16/10 257/17/10 261/11/10
f 256/16/11 261/11/11 259/14/11
f 259/18/12 260/19/12 258/20/12
f 251/21/13 259/18/13 258/20/13
f 256/22/14 23/23/14 257/24/14
f 255/25/15 256/16/15 251/15/15
f 23/23/16 256/22/16 255/26/16
f 253/27/17 241/28/17 254/29/17
f 254/30/18 23/23/18 255/26/18
f 23/23/19 254/30/19 37/31/19
f 250/32/20 252/33/20 251/34/20
f 253/27/21 251/34/21 252/33/21
f 253/27/22 252/33/22 240/35/22
f 248/36/23 240/35/23 252/33/23
f 248/36/24 252/33/24 250/32/24
f 254/37/25 255/25/25 251/15/25
f 251/21/26 258/20/26 250/38/26
f 250/38/27 258/20/27 249/39/27
f 253/27/28 254/29/28 251/34/28
f 247/40/29 236/41/29 5/42/29
f 1/43/30 236/41/30 247/40/30
f 248/44/31 250/45/31 245/46/31
f 246/47/32 248/44/32 245/46/32
f 5/42/33 246/47/33 247/40/33
f 247/40/34 246/47/35 245/46/36
f 247/40/34 245/46/36 243/48/37
f 250/38/38 35/49/39 245/50/40
f 35/49/41 250/38/41 249/39/41
f 36/51/42 243/48/42 245/46/42
f 36/51/43 245/46/43 28/52/43
f 1/43/44 247/40/44 244/53/44
f 242/54/45 247/40/45 243/48/45
f 244/53/46 247/40/46 242/54/46
f 242/54/47 12/55/47 244/53/47
f 242/54/48 243/48/48 36/51/48
f 60/56/49 242/54/49 36/51/49
f 12/55/50 242/54/50 60/56/50
f 37/57/51 254/29/51 241/28/51
f 235/58/52 240/35/52 248/36/52
f 235/58/53 239/59/53 240/35/53
f 241/28/54 253/27/54 240/35/54
f 241/28/55 240/35/55 238/60/55
f 240/35/56 239/59/56 238/60/56
f 37/57/57 241/28/57 237/61/57
f 237/61/58 241/28/58 238/60/58
f 237/61/59 238/60/59 42/62/59
f 235/58/60 5/63/60 236/64/60
f 235/58/61 236/64/61 6/65/61
f 3/66/62 236/64/62 1/67/62
f 6/65/63 236/64/63 3/66/63
f 4/68/64 3/66/64 1/67/64
f 244/53/65 2/69/65 1/43/65
f 4/70/66 1/43/66 2/69/66
f 3/66/67 11/71/67 6/65/67
f 11/71/68 3/66/68 4/68/68
f 5/63/69 235/58/69 248/36/69
f 246/47/70 5/42/70 248/44/70
f 239/59/71 235/58/71 7/72/71
f 8/73/72 239/59/72 7/72/72
f 7/72/73 235/58/73 6/65/73
f 7/72/74 6/65/74 11/71/74
f 9/74/75 8/73/75 7/72/75
f 8/73/76 238/60/76 239/59/76
f 9/74/77 238/60/77 8/73/77
f 9/74/78 63/75/78 238/60/78
f 61/76/79 9/74/79 7/72/79
f 9/74/80 61/76/80 63/75/80
f 10/77/81 2/69/81 244/53/81
f 12/55/82 10/77/82 244/53/82
f 13/78/83 7/72/83 11/71/83
f 298/79/84 14/80/84 11/71/84
f 61/81/85 13/82/85 59/83/85
f 60/56/86 59/83/86 13/82/86
f 60/56/87 145/84/87 12/55/87
f 60/56/88 13/82/88 14/85/88
f 14/85/89 145/84/89 60/56/89
f 61/76/90 7/72/90 13/78/90
f 14/80/91 13/78/91 11/71/91
f 16/86/92 289/87/92 280/88/92
f 17/12/93 16/86/93 280/88/93
f 15/89/94 16/86/94 17/12/94
f 15/3/95 18/90/95 19/1/95
f 15/89/96 17/12/96 261/11/96
f 18/91/97 261/11/97 257/17/97
f 18/91/98 15/89/98 261/11/98
f 24/92/99 18/90/99 257/24/99
f 19/1/100 18/90/100 24/92/100
f 25/93/101 19/1/101 24/92/101
f 20/94/102 29/6/102 19/1/102
f 30/95/103 29/6/103 20/94/103
f 21/96/104 260/19/104 278/97/104
f 258/20/105 260/19/105 21/96/105
f 22/98/106 21/96/106 278/97/106
f 21/96/107 22/98/107 32/99/107
f 32/99/108 31/100/108 21/96/108
f 24/92/109 257/24/109 23/23/109
f 24/92/110 23/23/110 26/101/110
f 26/101/111 23/23/111 37/31/111
f 26/101/112 37/31/112 38/102/112
f 24/92/113 26/101/113 25/93/113
f 20/94/114 19/1/114 25/93/114
f 25/93/115 26/101/115 33/103/115
f 33/103/116 20/94/116 25/93/116
f 38/102/117 33/103/117 26/101/117
f 249/39/118 258/20/118 21/96/118
f 27/104/119 249/39/119 21/96/119
f 35/49/120 249/39/120 27/104/120
f 35/49/121 27/104/121 28/105/121
f 34/106/122 21/96/122 31/100/122
f 27/104/123 21/96/123 34/106/123
f 27/104/124 34/106/124 38/102/124
f 33/103/125 38/102/125 34/106/125
f 31/100/126 30/95/126 20/94/126
f 32/99/127 30/95/127 31/100/127
f 33/103/128 31/100/128 20/94/128
f 34/106/129 31/100/129 33/103/129
f 28/105/130 245/50/40 35/49/39
f 58/107/131 36/51/131 28/52/131
f 58/107/132 28/52/132 40/108/132
f 237/61/133 38/109/133 37/57/133
f 41/110/134 38/109/134 237/61/134
f 41/110/135 39/111/135 38/109/135
f 28/105/136 27/104/136 39/112/136
f 27/104/137 38/102/137 39/112/137
f 41/110/138 45/113/138 39/111/138
f 28/52/139 39/114/139 40/108/139
f 40/108/140 39/114/140 45/115/140
f 40/108/141 45/115/141 71/116/141
f 42/62/142 41/110/142 237/61/142
f 45/113/143 41/110/143 42/62/143
f 45/115/144 49/117/144 46/118/144
f 71/116/145 45/115/145 46/118/145
f 45/113/146 42/62/146 49/119/146
f 49/119/147 42/62/147 50/120/147
f 43/121/148 42/62/148 238/60/148
f 43/121/149 50/120/149 42/62/149
f 51/122/150 50/120/150 43/121/150
f 55/123/151 51/122/151 43/121/151
f 56/124/152 43/121/152 64/125/152
f 44/126/153 49/119/153 52/127/153
f 44/128/154 46/118/154 49/117/154
f 48/129/155 46/118/155 44/128/155
f 86/8/156 52/127/156 262/9/156
f 86/8/157 44/126/157 52/127/157
f 82/130/158 44/128/158 86/131/158
f 83/132/159 48/129/160 44/128/161
f 71/116/162 46/118/162 48/129/162
f 83/132/159 47/133/163 48/129/160
f 73/134/164 48/129/164 47/133/164
f 84/135/165 73/134/165 47/133/165
f 83/132/166 84/135/166 47/133/166
f 72/136/167 48/129/167 73/134/167
f 49/119/168 50/120/168 52/127/168
f 54/137/169 52/127/169 50/120/169
f 51/122/170 54/137/170 50/120/170
f 262/9/171 52/127/171 53/10/171
f 54/137/172 53/10/172 52/127/172
f 53/10/173 54/137/173 88/138/173
f 88/138/174 54/137/174 57/139/174
f 91/140/175 88/138/175 57/139/175
f 57/139/176 51/122/176 55/123/176
f 57/139/177 54/137/177 51/122/177
f 55/123/178 43/121/178 56/124/178
f 56/124/179 57/139/179 55/123/179
f 57/139/180 56/124/180 91/140/180
f 78/141/181 91/140/181 56/124/181
f 72/136/182 40/108/182 71/116/182
f 62/142/183 61/81/183 36/51/183
f 62/142/184 36/51/184 58/107/184
f 58/107/185 40/108/185 72/136/185
f 62/142/186 58/107/186 72/136/186
f 36/51/187 59/83/187 60/56/187
f 61/81/188 59/83/188 36/51/188
f 61/76/189 66/143/189 63/75/189
f 68/144/190 61/81/190 62/142/190
f 68/145/191 66/143/191 61/76/191
f 74/146/192 68/147/192 62/148/192
f 64/125/193 238/60/193 63/75/193
f 43/121/194 238/60/194 64/125/194
f 63/75/195 65/149/195 64/125/195
f 66/143/196 65/149/196 63/75/196
f 80/150/197 56/124/197 64/125/197
f 80/150/198 64/125/198 65/149/198
f 69/151/199 67/152/199 66/153/199
f 67/152/200 65/154/200 66/153/200
f 70/155/201 65/154/201 67/152/201
f 70/155/202 67/152/202 81/156/202
f 66/153/203 68/157/203 69/151/203
f 80/150/204 65/149/204 70/158/204
f 72/136/205 71/116/205 48/129/205
f 72/136/206 73/134/206 95/159/206
f 75/160/207 72/136/207 95/159/207
f 62/142/208 72/136/208 75/160/208
f 94/161/209 75/160/209 95/159/209
f 75/162/210 76/163/210 62/148/210
f 76/163/211 74/146/211 62/148/211
f 97/164/212 75/162/212 94/165/212
f 97/164/213 76/163/213 75/162/213
f 80/150/214 77/166/214 56/124/214
f 79/167/215 56/124/215 77/166/215
f 78/141/216 56/124/216 79/167/216
f 89/168/217 82/130/217 86/131/217
f 44/128/218 85/169/218 83/132/218
f 44/128/219 82/130/219 85/169/219
f 85/169/220 82/130/220 89/168/220
f 83/132/221 85/169/221 84/135/221
f 85/169/222 90/170/222 92/171/222
f 95/159/223 73/134/223 84/135/223
f 95/159/224 84/135/224 92/171/224
f 84/135/225 85/169/225 92/171/225
f 88/138/226 87/7/226 53/10/226
f 89/168/227 86/131/227 87/172/227
f 88/173/228 89/168/228 87/172/228
f 85/169/229 89/168/229 88/173/229
f 90/170/230 85/169/230 88/173/230
f 90/174/231 88/138/231 91/140/231
f 78/175/232 92/171/232 90/170/232
f 90/174/233 91/140/233 78/141/233
f 78/175/234 98/176/234 92/171/234
f 101/177/235 98/176/235 78/175/235
f 93/178/236 98/176/236 101/177/236
f 96/179/237 94/161/237 95/159/237
f 99/180/238 95/159/238 92/171/238
f 99/180/239 92/171/239 98/176/239
f 95/159/240 99/180/240 96/179/240
f 101/181/241 78/141/241 79/167/241
f 93/178/242 99/180/242 98/176/242
f 107/182/243 103/183/244 106/184/245
f 103/183/246 117/185/247 102/186/248
f 104/187/249 107/182/250 106/184/249
f 104/187/251 105/188/251 107/182/251
f 105/188/252 110/189/252 107/182/252
f 110/189/253 113/190/254 107/182/253
f 107/182/255 108/191/255 103/183/255
f 108/191/256 117/185/257 103/183/256
f 161/192/258 107/182/258 113/190/258
f 107/182/259 161/192/259 108/191/260
f 112/193/261 110/189/261 109/194/261
f 114/195/262 113/190/262 110/189/263
f 110/189/264 112/193/264 114/195/264
f 116/196/265 114/195/266 112/193/265
f 115/197/267 112/193/267 111/198/267
f 112/193/268 115/197/268 125/199/269
f 112/193/270 125/199/270 116/196/270
f 162/200/271 116/196/272 169/201/272
f 108/191/273 118/202/273 117/185/273
f 119/203/274 118/202/275 108/191/276
f 118/204/277 119/205/277 120/206/278
f 122/207/279 123/208/279 121/209/279
f 120/206/280 165/210/280 122/207/281
f 122/207/282 165/210/283 123/208/284
f 121/209/285 123/208/286 132/211/285
f 123/208/287 131/212/288 132/211/288
f 168/213/289 131/212/289 123/208/289
f 126/214/290 125/199/290 124/215/290
f 116/196/291 125/199/292 126/214/293
f 169/201/294 116/196/295 126/214/294
f 126/216/296 170/217/296 169/218/296
f 126/216/297 127/219/298 170/217/298
f 127/219/299 130/220/299 170/217/299
f 129/221/300 130/220/301 127/219/301
f 129/221/302 132/211/302 130/220/303
f 131/212/304 130/220/305 132/211/306
f 130/220/307 131/212/307 133/222/307
f 130/220/308 133/222/308 172/223/308
f 137/224/309 149/225/310 135/226/311
f 134/227/312 128/228/312 136/229/312
f 136/229/313 128/228/313 135/230/313
f 134/227/314 136/229/314 138/231/315
f 135/230/316 149/232/317 136/229/316
f 138/231/318 143/233/319 134/227/320
f 143/234/321 138/235/322 139/236/321
f 138/235/323 136/237/324 140/238/323
f 138/235/325 140/238/326 139/236/327
f 140/239/328 142/240/329 141/241/328
f 149/242/330 150/243/330 136/244/331
f 136/244/332 150/243/332 140/239/333
f 150/243/334 142/240/334 140/239/335
f 142/240/336 150/243/337 188/245/337
f 139/236/338 144/246/339 143/234/338
f 101/181/340 79/167/340 100/247/340
f 144/246/341 139/236/327 140/248/326
f 144/246/342 140/248/342 147/249/342
f 140/248/343 189/250/343 147/249/344
f 146/251/345 144/252/346 148/253/345
f 147/254/347 148/253/348 144/252/347
f 137/224/349 152/255/349 149/225/349
f 137/224/350 154/256/351 152/255/352
f 149/225/353 152/255/354 151/257/355
f 149/225/356 151/257/357 150/258/357
f 214/259/358 150/258/359 151/257/359
f 152/255/354 153/260/360 151/257/355
f 152/255/361 155/261/361 153/260/361
f 153/260/362 214/259/362 151/257/362
f 154/256/363 156/262/363 152/255/364
f 154/256/365 146/251/366 156/262/366
f 155/261/367 152/255/367 156/262/367
f 148/253/368 156/262/368 146/251/368
f 156/262/369 157/263/370 155/261/370
f 157/263/371 158/264/371 155/261/371
f 147/254/372 159/265/372 148/253/372
f 148/253/373 159/265/373 156/262/373
f 156/262/374 159/265/375 157/263/375
f 160/266/376 157/263/377 159/265/376
f 155/261/378 220/267/378 153/260/379
f 161/192/380 113/190/380 163/268/381
f 164/269/382 163/268/383 113/190/382
f 116/196/384 162/200/384 114/195/384
f 162/200/385 113/190/385 114/195/385
f 113/190/386 162/200/386 164/269/386
f 162/200/387 169/201/388 166/270/389
f 161/192/390 119/203/390 108/191/390
f 119/203/391 161/192/392 163/268/393
f 120/206/394 119/205/395 165/210/395
f 119/205/396 163/271/397 165/210/398
f 163/271/399 164/272/399 165/210/399
f 164/269/400 162/200/400 166/270/401
f 166/273/402 165/210/403 164/272/402
f 167/274/404 165/210/404 166/273/405
f 165/210/406 168/213/407 123/208/408
f 165/210/409 180/275/410 168/213/411
f 178/276/412 180/275/410 165/210/409
f 165/210/413 167/274/414 178/276/414
f 130/220/415 172/223/415 170/217/415
f 174/277/416 166/278/417 169/218/418
f 166/273/419 174/279/419 167/274/419
f 170/217/420 171/280/420 169/218/421
f 169/218/422 171/280/422 174/277/422
f 172/223/423 171/280/424 170/217/423
f 175/281/425 172/223/425 133/222/425
f 172/223/426 175/281/426 171/280/427
f 177/282/428 171/280/428 175/281/429
f 131/212/430 168/213/430 180/275/430
f 131/212/431 173/283/431 133/222/432
f 133/222/433 173/283/433 175/281/433
f 175/284/434 176/285/434 177/286/434
f 174/277/435 171/280/435 177/282/435
f 185/287/436 167/274/436 174/279/436
f 177/286/437 184/288/437 174/289/437
f 174/289/438 184/288/438 185/290/439
f 177/286/440 191/291/440 184/288/441
f 141/241/442 142/240/442 175/284/442
f 175/284/443 142/240/444 176/285/444
f 176/285/445 191/291/445 177/286/445
f 176/285/446 192/292/447 190/293/447
f 180/275/448 179/294/448 131/212/448
f 180/275/449 178/276/449 179/294/450
f 131/212/451 179/294/452 173/283/453
f 179/295/454 182/296/455 173/297/455
f 178/298/456 181/299/456 179/295/456
f 178/298/457 183/300/458 181/299/457
f 179/295/459 181/299/460 182/296/461
f 181/299/460 199/301/462 182/296/461
f 181/299/463 183/300/464 200/302/463
f 200/302/465 199/301/466 181/299/466
f 183/300/467 204/303/467 200/302/467
f 185/287/468 178/276/469 167/274/468
f 185/290/470 186/304/470 178/298/470
f 184/288/471 187/305/471 185/290/472
f 178/298/473 186/304/473 183/300/474
f 186/304/475 196/306/475 183/300/476
f 196/306/477 204/303/478 183/300/477
f 187/305/479 186/304/479 185/290/479
f 194/307/480 196/306/481 187/305/480
f 187/305/482 196/306/483 186/304/483
f 173/308/484 141/241/485 175/284/484
f 173/297/486 182/296/486 141/309/486
f 142/240/487 188/245/487 176/285/487
f 188/245/488 215/310/488 176/285/488
f 192/292/489 176/285/489 215/310/490
f 141/309/491 182/296/491 189/250/491
f 141/309/492 189/250/492 140/248/493
f 189/250/494 182/296/494 199/301/494
f 176/285/495 190/293/495 191/291/495
f 184/288/496 191/291/496 187/305/497
f 194/307/498 187/305/498 191/291/498
f 194/307/499 191/291/499 190/293/499
f 190/293/500 193/311/500 194/307/500
f 192/292/501 193/311/501 190/293/502
f 192/292/503 221/312/504 193/311/503
f 194/307/505 193/311/505 195/313/506
f 194/307/507 195/313/508 196/306/508
f 195/313/509 205/314/509 196/306/509
f 193/311/510 221/312/510 195/313/510
f 221/312/511 210/315/511 195/313/511
f 195/316/512 210/317/512 198/318/512
f 195/316/513 198/318/513 197/319/513
f 200/302/514 189/250/514 199/301/514
f 147/249/515 189/250/515 201/320/515
f 147/254/516 201/321/517 224/322/516
f 189/250/518 200/302/518 201/320/519
f 200/302/520 202/323/520 201/320/520
f 202/323/521 200/302/521 206/324/521
f 201/320/522 202/323/522 203/325/523
f 200/302/524 204/303/525 206/324/526
f 196/306/527 205/314/527 204/303/527
f 204/303/528 205/314/528 206/324/528
f 195/313/529 212/326/530 205/314/531
f 205/314/532 212/326/532 208/327/533
f 206/324/534 207/328/535 202/323/534
f 207/328/536 206/324/537 205/314/536
f 205/314/538 208/327/539 207/328/540
f 227/329/541 202/323/542 207/328/543
f 207/328/544 208/327/545 227/329/546
f 212/330/547 195/316/547 197/319/548
f 211/331/549 197/319/550 209/332/550
f 209/332/551 197/319/551 198/318/551
f 198/318/552 210/317/552 209/332/552
f 209/332/553 228/333/554 211/331/555
f 211/331/556 212/330/557 197/319/557
f 212/326/558 226/334/559 208/327/559
f 212/335/560 213/336/560 226/337/560
f 211/331/561 213/338/561 212/330/562
f 214/259/563 188/339/564 150/258/564
f 214/259/565 215/340/565 188/339/565
f 216/341/566 217/342/566 214/259/566
f 214/259/567 217/342/567 215/340/567
f 215/340/568 217/342/568 218/343/568
f 218/343/569 222/344/569 215/340/569
f 217/342/570 203/345/571 218/343/572
f 218/343/573 203/345/573 222/344/573
f 216/341/574 214/259/575 219/346/576
f 219/346/577 214/259/577 220/267/577
f 153/260/578 220/267/578 214/259/578
f 215/310/579 222/347/579 192/292/579
f 222/347/580 221/312/580 192/292/580
f 223/348/581 221/312/582 222/347/582
f 223/349/583 222/344/584 203/345/583
f 210/315/585 221/312/586 223/348/587
f 223/349/588 229/350/589 210/351/589
f 217/342/590 216/341/590 224/322/590
f 224/322/591 225/352/592 159/265/591
f 201/320/593 203/325/593 217/353/593
f 201/321/594 217/342/594 224/322/594
f 219/346/595 224/322/595 216/341/596
f 158/264/597 219/346/597 220/267/597
f 157/263/598 225/352/598 158/264/599
f 160/266/600 225/352/600 157/263/600
f 225/352/601 224/322/601 219/346/601
f 219/346/602 158/264/602 225/352/602
f 224/322/603 159/265/604 147/254/603
f 225/352/605 160/266/606 159/265/605
f 227/354/607 223/349/608 203/345/607
f 203/325/609 202/323/610 227/329/610
f 223/349/611 227/354/611 229/350/611
f 227/329/612 208/327/613 226/334/613
f 155/261/614 158/264/614 220/267/614
f 210/317/615 228/333/615 209/332/615
f 228/333/616 210/317/616 229/355/616
f 230/356/617 228/333/617 229/355/617
f 230/356/618 211/331/618 228/333/618
f 229/357/619 226/337/619 231/358/620
f 226/359/621 229/350/621 227/354/622
f 213/338/623 211/331/623 230/356/623
f 233/360/624 213/338/624 230/356/625
f 229/355/626 233/360/626 230/356/627
f 233/361/626 229/357/626 231/358/628
f 226/337/629 213/336/629 231/358/630
f 213/336/631 234/362/632 231/358/631
f 234/363/633 213/338/634 233/360/634
f 231/358/635 232/364/635 233/361/635
f 231/358/636 234/362/636 232/364/636
f 234/362/637 233/361/637 232/364/637
f 265/365/638 16/86/638 15/89/638
f 263/4/639 266/366/639 264/367/639
f 270/368/640 265/365/640 264/369/640
f 265/2/641 263/4/641 264/367/641
f 263/4/642 268/370/642 266/366/642
f 264/367/643 266/366/643 267/371/643
f 267/371/644 269/372/644 271/373/644
f 266/366/645 269/372/645 267/371/645
f 268/370/646 269/372/646 266/366/646
f 268/370/647 293/374/647 269/372/647
f 269/372/648 273/375/648 271/373/648
f 267/371/649 272/376/649 264/367/649
f 267/371/650 271/373/650 272/376/650
f 272/377/651 270/368/651 264/369/651
f 272/377/652 290/378/652 270/368/652
f 272/376/653 271/373/653 274/379/653
f 274/380/654 273/381/654 290/378/654
f 272/377/655 274/380/655 290/378/655
f 273/375/656 274/379/656 271/373/656
f 275/382/657 32/99/657 22/98/657
f 32/99/658 276/383/658 30/95/658
f 276/383/659 32/99/659 275/382/659
f 30/95/660 276/383/660 29/6/660
f 275/382/661 277/384/661 276/383/661
f 22/98/662 279/385/662 275/382/662
f 279/385/663 22/98/663 278/97/663
f 278/97/664 260/19/664 279/385/664
f 279/385/665 260/19/665 280/386/665
f 279/385/666 281/387/666 275/382/666
f 275/388/667 286/389/667 277/390/667
f 275/388/668 281/391/668 286/389/668
f 280/386/669 281/387/669 279/385/669
f 281/391/670 291/392/670 286/389/670
f 282/393/671 281/391/671 280/88/671
f 281/391/672 282/393/672 291/392/672
f 17/12/673 280/88/673 260/13/673
f 29/6/674 276/383/674 283/5/674
f 276/383/675 277/384/675 283/5/675
f 263/4/676 283/5/676 268/370/676
f 277/384/677 284/394/677 283/5/677
f 284/394/678 268/370/678 283/5/678
f 268/370/679 284/394/679 285/395/679
f 277/384/680 287/396/680 284/394/680
f 286/389/681 291/392/681 277/390/681
f 291/392/682 287/397/682 277/390/682
f 16/86/683 265/365/683 288/398/683
f 288/398/684 289/87/684 16/86/684
f 270/368/685 288/398/685 265/365/685
f 288/398/686 292/399/686 289/87/686
f 290/378/687 292/399/687 288/398/687
f 285/395/688 284/394/688 293/374/688
f 293/400/689 292/399/689 290/378/689
f 282/393/690 292/399/691 287/397/691
f 287/397/692 291/392/692 282/393/692
f 289/87/693 282/393/693 280/88/693
f 289/87/694 292/399/694 282/393/694
f 284/394/695 287/396/695 293/374/695
f 293/400/696 287/397/691 292/399/691
f 285/395/697 293/374/697 268/370/697
f 293/374/698 273/375/698 269/372/698
f 288/398/699 270/368/699 290/378/699
f 290/378/700 273/381/700 293/400/700
f 294/401/701 300/402/701 295/403/701
f 298/79/702 295/404/702 14/80/702
f 299/405/703 300/406/703 294/407/703
f 295/408/704 145/84/704 14/85/704
f 300/409/705 145/84/705 295/408/705
f 300/409/706 12/55/706 145/84/706
f 11/71/707 296/410/707 298/79/707
f 296/411/708 11/412/708 301/413/708
f 302/414/709 10/77/709 301/413/709
f 302/414/710 301/413/710 4/70/710
f 301/413/711 11/412/711 4/70/711
f 4/70/712 2/69/712 302/414/712
f 10/415/713 297/416/713 301/417/713
f 299/405/714 297/416/714 10/415/714
f 10/415/715 300/406/715 299/405/715
f 300/409/716 10/77/716 12/55/716
f 10/77/717 302/414/717 2/69/717
f 306/418/718 307/419/718 303/420/718
f 303/420/719 307/419/720 308/421/721
f 303/420/719 308/421/721 309/422/722
f 301/417/723 306/418/723 304/423/723
f 306/418/724 303/420/724 304/423/724
l 304 305
