# Blender v2.82 (sub 7) OBJ File: 'BASE_100.blend'
# www.blender.org
mtllib BASE_100.mtl
o Circle
v 0.000000 0.000000 -1.960000
v -0.382377 0.000000 -1.922339
v -0.750060 0.000000 -1.810804
v -1.088918 0.000000 -1.629680
v -1.385929 0.000000 -1.385929
v -1.629681 0.000000 -1.088917
v -1.810804 0.000000 -0.750059
v -1.922339 0.000000 -0.382377
v -1.960000 0.000000 -0.000000
v -1.922339 0.000000 0.382377
v -1.810804 0.000000 0.750059
v -1.629681 0.000000 1.088917
v -1.385929 0.000000 1.385929
v -1.088917 0.000000 1.629681
v -0.750059 0.000000 1.810804
v -0.382377 0.000000 1.922339
v 0.000001 0.000000 1.960000
v 0.382378 0.000000 1.922339
v 0.750060 0.000000 1.810803
v 1.088919 0.000000 1.629680
v 1.385930 0.000000 1.385928
v 1.629681 0.000000 1.088916
v 1.810804 0.000000 0.750058
v 1.922339 0.000000 0.382375
v 1.960000 0.000000 -0.000002
v 1.922339 0.000000 -0.382379
v 1.810803 0.000000 -0.750062
v 1.629679 0.000000 -1.088920
v 1.385927 0.000000 -1.385931
v 1.088915 0.000000 -1.629682
v 0.750057 0.000000 -1.810805
v 0.382374 0.000000 -1.922340
v -0.000000 0.127400 -1.910394
v -0.372699 0.127400 -1.873687
v -0.731076 0.127400 -1.764974
v -1.061358 0.127400 -1.588435
v -1.350853 0.127400 -1.350853
v -1.588435 0.127400 -1.061358
v -1.764974 0.127400 -0.731076
v -1.873687 0.127400 -0.372700
v -1.910394 0.127400 -0.000000
v -1.873687 0.127400 0.372699
v -1.764975 0.127400 0.731076
v -1.588435 0.127400 1.061358
v -1.350853 0.127400 1.350853
v -1.061358 0.127400 1.588435
v -0.731076 0.127400 1.764975
v -0.372699 0.127400 1.873687
v 0.000001 0.127400 1.910395
v 0.372700 0.127400 1.873687
v 0.731077 0.127400 1.764974
v 1.061359 0.127400 1.588434
v 1.350854 0.127400 1.350852
v 1.588436 0.127400 1.061357
v 1.764975 0.127400 0.731075
v 1.873687 0.127400 0.372698
v 1.910395 0.127400 -0.000002
v 1.873687 0.127400 -0.372701
v 1.764974 0.127400 -0.731078
v 1.588434 0.127400 -1.061360
v 1.350851 0.127400 -1.350855
v 1.061356 0.127400 -1.588436
v 0.731074 0.127400 -1.764976
v 0.372697 0.127400 -1.873687
v -0.000000 0.127400 -0.000000
v -0.000000 0.000000 -0.000000
v 1.767696 0.119832 -0.732206
v -1.062995 0.119832 1.590885
v -0.000000 0.119832 -1.913341
v 1.590884 0.119832 -1.062997
v -0.732204 0.119832 1.767697
v -0.373274 0.119832 -1.876577
v 1.352935 0.119832 -1.352938
v -0.373274 0.119832 1.876577
v -0.732204 0.119832 -1.767697
v 1.062993 0.119832 -1.590887
v 0.000001 0.119832 1.913341
v -1.062995 0.119832 -1.590885
v 0.732201 0.119832 -1.767698
v 0.373275 0.119832 1.876577
v -1.352937 0.119832 -1.352937
v 0.373271 0.119832 -1.876577
v 0.732205 0.119832 1.767696
v -1.590885 0.119832 -1.062995
v 1.062996 0.119832 1.590885
v -1.767697 0.119832 -0.732204
v 1.352937 0.119832 1.352936
v -1.876577 0.119832 -0.373274
v 1.590886 0.119832 1.062994
v -1.913341 0.119832 -0.000000
v 1.767697 0.119832 0.732203
v -1.876577 0.119832 0.373274
v 1.876577 0.119832 0.373273
v -1.767697 0.119832 0.732204
v 1.913341 0.119832 -0.000002
v -1.590885 0.119832 1.062995
v 1.876577 0.119832 -0.373276
v -1.352937 0.119832 1.352937
v 1.807224 0.009948 -0.748579
v -1.086766 0.009948 1.626460
v -0.000000 0.009948 -1.956126
v 1.626458 0.009948 -1.086768
v -0.748577 0.009948 1.807225
v -0.381621 0.009948 -1.918540
v 1.383188 0.009948 -1.383192
v -0.381621 0.009948 1.918540
v -0.748577 0.009948 -1.807225
v 1.086763 0.009948 -1.626461
v 0.000001 0.009948 1.956126
v -1.086766 0.009948 -1.626460
v 0.748574 0.009948 -1.807226
v 0.381622 0.009948 1.918540
v -1.383190 0.009948 -1.383190
v 0.381618 0.009948 -1.918540
v 0.748578 0.009948 1.807225
v -1.626460 0.009948 -1.086766
v 1.086766 0.009948 1.626459
v -1.807225 0.009948 -0.748577
v 1.383191 0.009948 1.383189
v -1.918540 0.009948 -0.381621
v 1.626460 0.009948 1.086764
v -1.956126 0.009948 -0.000000
v 1.807226 0.009948 0.748576
v -1.918540 0.009948 0.381621
v 1.918540 0.009948 0.381620
v -1.807225 0.009948 0.748577
v 1.956126 0.009948 -0.000002
v -1.626460 0.009948 1.086766
v 1.918540 0.009948 -0.381623
v -1.383190 0.009948 1.383190
vt 0.228266 0.506408
vt 0.179348 0.496678
vt 0.253204 0.253204
vt 0.278143 0.506408
vt 0.514614 0.316376
vt 0.517242 0.357766
vt 0.511780 0.358085
vt 0.509147 0.316613
vt 0.278143 0.000000
vt 0.327061 0.009730
vt 0.228266 0.000000
vt 0.438495 0.910527
vt 0.404119 0.944903
vt 0.246796 0.753204
vt 0.465504 0.870106
vt 0.222488 0.506408
vt 0.271103 0.506408
vt 0.174808 0.515893
vt 0.318783 0.515892
vt 0.363697 0.534496
vt 0.271103 1.000000
vt 0.222489 1.000000
vt 0.318784 0.990516
vt 0.404119 0.561505
vt 0.438495 0.595881
vt 0.174808 0.990516
vt 0.129894 0.971912
vt 0.000000 0.777512
vt 0.000000 0.728897
vt 0.009484 0.825192
vt 0.465503 0.636302
vt 0.484107 0.681216
vt 0.089473 0.944903
vt 0.055097 0.910528
vt 0.009484 0.681217
vt 0.028088 0.636303
vt 0.493592 0.728897
vt 0.493592 0.777511
vt 0.028088 0.870106
vt 0.055097 0.595881
vt 0.089472 0.561505
vt 0.484107 0.825192
vt 0.133267 0.477591
vt 0.091796 0.449881
vt 0.056528 0.414613
vt 0.028818 0.373141
vt 0.373141 0.028818
vt 0.414612 0.056528
vt 0.009731 0.327061
vt 0.000000 0.278143
vt 0.449881 0.091796
vt 0.477591 0.133267
vt 0.000000 0.228266
vt 0.009730 0.179347
vt 0.496678 0.179347
vt 0.506408 0.228266
vt 0.414612 0.449881
vt 0.373141 0.477591
vt 0.449881 0.414612
vt 0.028817 0.133267
vt 0.056528 0.091796
vt 0.506408 0.278143
vt 0.496678 0.327061
vt 0.327061 0.496678
vt 0.477591 0.373141
vt 0.179347 0.009731
vt 0.133267 0.028818
vt 0.363697 0.971912
vt 0.129894 0.534497
vt 0.091796 0.056528
vt 0.590467 0.186290
vt 0.590933 0.235119
vt 0.585461 0.235213
vt 0.584994 0.186288
vt 0.517242 0.035587
vt 0.514614 0.076976
vt 0.509147 0.076739
vt 0.511780 0.035268
vt 0.512804 0.270387
vt 0.507333 0.270533
vt 0.590933 0.136514
vt 0.585461 0.136414
vt 0.520587 0.000389
vt 0.515132 0.000000
vt 0.511881 0.221565
vt 0.506408 0.221615
vt 0.592313 0.087703
vt 0.586844 0.087506
vt 0.594554 0.674468
vt 0.597569 0.715831
vt 0.592110 0.716201
vt 0.589089 0.674756
vt 0.511881 0.171787
vt 0.506408 0.171738
vt 0.594554 0.041733
vt 0.589089 0.041445
vt 0.592313 0.628498
vt 0.586844 0.628695
vt 0.512804 0.122965
vt 0.507333 0.122819
vt 0.597569 0.000370
vt 0.592110 0.000000
vt 0.590933 0.579687
vt 0.585461 0.579787
vt 0.575002 0.079595
vt 0.579161 0.079775
vt 0.577393 0.124689
vt 0.573231 0.124578
vt 0.514614 0.674461
vt 0.517242 0.715850
vt 0.511780 0.716169
vt 0.509147 0.674698
vt 0.590467 0.529911
vt 0.584994 0.529913
vt 0.512804 0.628472
vt 0.507333 0.628618
vt 0.590933 0.481082
vt 0.585461 0.480988
vt 0.511881 0.579650
vt 0.506408 0.579699
vt 0.592313 0.435078
vt 0.586844 0.434893
vt 0.511881 0.529872
vt 0.506408 0.529823
vt 0.594554 0.393666
vt 0.589089 0.393399
vt 0.512804 0.481050
vt 0.507333 0.480904
vt 0.597569 0.358438
vt 0.592110 0.358101
vt 0.514614 0.435061
vt 0.509147 0.434824
vt 0.594554 0.322535
vt 0.597569 0.357763
vt 0.589089 0.322802
vt 0.517242 0.393672
vt 0.511780 0.393353
vt 0.592313 0.281123
vt 0.586844 0.281309
vt 0.577573 0.354242
vt 0.581728 0.353999
vt 0.584994 0.388375
vt 0.580844 0.388671
vt 0.651373 0.234072
vt 0.655536 0.234000
vt 0.656883 0.278928
vt 0.652723 0.279070
vt 0.520587 0.392964
vt 0.659072 0.319372
vt 0.654914 0.319576
vt 0.581728 0.397438
vt 0.579161 0.437859
vt 0.575002 0.437679
vt 0.577573 0.397195
vt 0.662016 0.353777
vt 0.657864 0.354034
vt 0.577393 0.482773
vt 0.573231 0.482662
vt 0.662016 0.362424
vt 0.659072 0.396829
vt 0.654914 0.396625
vt 0.657864 0.362167
vt 0.576492 0.530454
vt 0.572329 0.530416
vt 0.656883 0.437273
vt 0.652723 0.437131
vt 0.576492 0.579068
vt 0.572329 0.579106
vt 0.655536 0.482201
vt 0.651373 0.482129
vt 0.577393 0.626749
vt 0.573231 0.626860
vt 0.655081 0.529888
vt 0.650917 0.529889
vt 0.579161 0.671663
vt 0.575002 0.671843
vt 0.655536 0.578500
vt 0.651373 0.578577
vt 0.581728 0.712084
vt 0.577573 0.712327
vt 0.656883 0.626170
vt 0.652723 0.626320
vt 0.662016 0.004740
vt 0.659072 0.045135
vt 0.654914 0.044916
vt 0.657864 0.004458
vt 0.576492 0.172369
vt 0.572329 0.172331
vt 0.659072 0.671066
vt 0.654914 0.671285
vt 0.656883 0.090031
vt 0.652723 0.089881
vt 0.576492 0.220984
vt 0.572329 0.221021
vt 0.662016 0.711461
vt 0.657864 0.711743
vt 0.655536 0.137701
vt 0.651373 0.137624
vt 0.577393 0.268664
vt 0.573231 0.268775
vt 0.584994 0.004978
vt 0.581728 0.039353
vt 0.577573 0.039111
vt 0.580844 0.004682
vt 0.655081 0.186313
vt 0.650917 0.186312
vt 0.579161 0.313578
vt 0.575002 0.313758
vt 0.515132 0.393353
vn 0.4670 -0.5416 -0.6989
vn 0.5944 -0.5416 -0.5944
vn 0.0000 -1.0000 0.0000
vn 0.3217 -0.5416 -0.7766
vn 0.7748 0.3628 -0.5177
vn 0.8609 0.3628 -0.3566
vn 0.7766 -0.5416 -0.3217
vn 0.6989 -0.5416 -0.4670
vn -0.4670 -0.5416 0.6989
vn -0.5944 -0.5416 0.5944
vn -0.3217 -0.5416 0.7766
vn 0.5762 0.8092 0.1146
vn 0.5875 0.8092 0.0000
vn 0.0000 1.0000 0.0000
vn 0.5428 0.8092 0.2248
vn -0.4885 0.8092 0.3264
vn -0.4154 0.8092 0.4154
vn -0.5428 0.8092 0.2248
vn -0.3264 0.8092 0.4885
vn -0.2248 0.8092 0.5428
vn 0.4885 0.8092 -0.3264
vn 0.4154 0.8092 -0.4154
vn 0.5428 0.8092 -0.2248
vn -0.1146 0.8092 0.5762
vn 0.0000 0.8092 0.5875
vn 0.3264 0.8092 -0.4885
vn 0.2248 0.8092 -0.5428
vn -0.3264 0.8092 -0.4885
vn -0.4154 0.8092 -0.4154
vn -0.2248 0.8092 -0.5428
vn 0.1146 0.8092 0.5762
vn 0.2248 0.8092 0.5428
vn 0.1146 0.8092 -0.5762
vn 0.0000 0.8092 -0.5875
vn -0.4885 0.8092 -0.3264
vn -0.5428 0.8092 -0.2248
vn 0.3264 0.8092 0.4885
vn 0.4154 0.8092 0.4154
vn -0.1146 0.8092 -0.5762
vn -0.5762 0.8092 -0.1146
vn -0.5875 0.8092 0.0000
vn 0.4885 0.8092 0.3264
vn 0.8245 -0.5416 -0.1640
vn 0.8406 -0.5416 0.0000
vn -0.6989 -0.5416 0.4670
vn -0.7766 -0.5416 0.3217
vn 0.8245 -0.5416 0.1640
vn 0.7766 -0.5416 0.3217
vn -0.8245 -0.5416 0.1640
vn -0.8406 -0.5416 0.0000
vn 0.6989 -0.5416 0.4670
vn 0.5944 -0.5416 0.5944
vn -0.8245 -0.5416 -0.1640
vn -0.7766 -0.5416 -0.3217
vn -0.1640 -0.5416 -0.8245
vn 0.0000 -0.5416 -0.8406
vn -0.3217 -0.5416 -0.7766
vn 0.4670 -0.5416 0.6989
vn 0.3217 -0.5416 0.7766
vn -0.6989 -0.5416 -0.4670
vn -0.5944 -0.5416 -0.5944
vn 0.1640 -0.5416 -0.8245
vn -0.4670 -0.5416 -0.6989
vn -0.1640 -0.5416 0.8245
vn 0.0000 -0.5416 0.8406
vn 0.5762 0.8092 -0.1146
vn -0.5762 0.8092 0.1146
vn 0.1640 -0.5416 0.8245
vn -0.3566 0.3628 0.8609
vn -0.5177 0.3628 0.7748
vn -0.1818 0.3628 -0.9139
vn 0.0000 0.3628 -0.9319
vn 0.6589 0.3628 -0.6589
vn -0.1818 0.3628 0.9139
vn -0.3566 0.3628 -0.8609
vn 0.5177 0.3628 -0.7748
vn 0.0000 0.3628 0.9319
vn -0.5177 0.3628 -0.7748
vn 0.3566 0.3628 -0.8609
vn 0.1818 0.3628 0.9139
vn -0.6589 0.3628 -0.6589
vn 0.1818 0.3628 -0.9139
vn 0.3566 0.3628 0.8609
vn -0.7748 0.3628 -0.5177
vn 0.0000 0.3628 -0.9318
vn 0.5177 0.3628 0.7748
vn -0.8609 0.3628 -0.3566
vn 0.6589 0.3628 0.6589
vn -0.9139 0.3628 -0.1818
vn 0.7748 0.3628 0.5177
vn -0.9319 0.3628 0.0000
vn 0.8609 0.3628 0.3566
vn -0.9139 0.3628 0.1818
vn 0.9139 0.3628 0.1818
vn -0.8609 0.3628 0.3566
vn 0.9319 0.3628 0.0000
vn -0.7748 0.3628 0.5177
vn 0.9139 0.3628 -0.1818
vn -0.6589 0.3628 0.6589
vn 0.9318 0.3628 0.0000
vn -0.9318 0.3628 0.0000
usemtl None
s 1
f 30/1/1 29/2/2 66/3/3 31/4/4
f 102/5/5 99/6/6 27/7/7 28/8/8
f 14/9/9 13/10/10 66/3/3 15/11/11
f 56/12/12 57/13/13 65/14/14 55/15/15
f 44/16/16 45/17/17 65/14/14 43/18/18
f 46/19/19 47/20/20 65/14/14 45/17/17
f 60/21/21 61/22/22 65/14/14 59/23/23
f 48/24/24 49/25/25 65/14/14 47/20/20
f 62/26/26 63/27/27 65/14/14 61/22/22
f 36/28/28 37/29/29 65/14/14 35/30/30
f 50/31/31 51/32/32 65/14/14 49/25/25
f 64/33/33 33/34/34 65/14/14 63/27/27
f 38/35/35 39/36/36 65/14/14 37/29/29
f 52/37/37 53/38/38 65/14/14 51/32/32
f 34/39/39 35/30/30 65/14/14 33/34/34
f 39/36/36 40/40/40 41/41/41 65/14/14
f 53/38/38 54/42/42 55/15/15 65/14/14
f 29/2/2 28/43/8 27/44/7 66/3/3
f 27/44/7 26/45/43 25/46/44 66/3/3
f 12/47/45 11/48/46 66/3/3 13/10/10
f 24/49/47 23/50/48 66/3/3 25/46/44
f 10/51/49 9/52/50 66/3/3 11/48/46
f 22/53/51 21/54/52 66/3/3 23/50/48
f 8/55/53 7/56/54 66/3/3 9/52/50
f 2/57/55 1/58/56 66/3/3 3/59/57
f 20/60/58 19/61/59 66/3/3 21/54/52
f 6/62/60 5/63/61 66/3/3 7/56/54
f 32/64/62 31/4/4 66/3/3 1/58/56
f 4/65/63 3/59/57 66/3/3 5/63/61
f 16/66/64 15/11/11 66/3/3 17/67/65
f 58/68/66 59/23/23 65/14/14 57/13/13
f 42/69/67 43/18/18 65/14/14 41/41/41
f 18/70/68 17/67/65 66/3/3 19/61/59
f 103/71/69 100/72/70 14/73/9 15/74/11
f 104/75/71 101/76/72 1/77/56 2/78/55
f 105/79/73 102/5/5 28/8/8 29/80/2
f 106/81/74 103/71/69 15/74/11 16/82/64
f 107/83/75 104/75/71 2/78/55 3/84/57
f 108/85/76 105/79/73 29/80/2 30/86/1
f 109/87/77 106/81/74 16/82/64 17/88/65
f 110/89/78 107/90/75 3/91/57 4/92/63
f 111/93/79 108/85/76 30/86/1 31/94/4
f 112/95/80 109/87/77 17/88/65 18/96/68
f 113/97/81 110/89/78 4/92/63 5/98/61
f 114/99/82 111/93/79 31/94/4 32/100/62
f 115/101/83 112/95/80 18/96/68 19/102/59
f 116/103/84 113/97/81 5/98/61 6/104/60
f 69/105/85 33/106/34 64/107/33 82/108/82
f 117/109/86 115/110/83 19/111/59 20/112/58
f 118/113/87 116/103/84 6/104/60 7/114/54
f 119/115/88 117/109/86 20/112/58 21/116/52
f 120/117/89 118/113/87 7/114/54 8/118/53
f 121/119/90 119/115/88 21/116/52 22/120/51
f 122/121/91 120/117/89 8/118/53 9/122/50
f 123/123/92 121/119/90 22/120/51 23/124/48
f 124/125/93 122/121/91 9/122/50 10/126/49
f 125/127/94 123/123/92 23/124/48 24/128/47
f 126/129/95 124/125/93 10/126/49 11/130/46
f 127/131/96 125/127/94 24/128/47 25/132/44
f 128/133/97 126/134/95 11/130/46 12/135/45
f 129/136/98 127/131/96 25/132/44 26/137/43
f 130/138/99 128/133/97 12/135/45 13/139/10
f 67/140/6 59/141/23 58/142/66 97/143/98
f 68/144/70 46/145/19 45/146/17 98/147/99
f 100/72/70 68/144/70 98/147/99 130/138/99
f 99/6/6 67/140/6 97/143/98 129/148/98
f 45/146/17 44/149/16 96/150/97 98/147/99
f 58/151/66 57/152/13 95/153/100 97/154/98
f 44/149/16 43/155/18 94/156/95 96/150/97
f 57/152/13 56/157/12 93/158/94 95/153/100
f 43/159/18 42/160/67 92/161/93 94/162/95
f 56/157/12 55/163/15 91/164/92 93/158/94
f 42/160/67 41/165/41 90/166/101 92/161/93
f 55/163/15 54/167/42 89/168/90 91/164/92
f 41/165/41 40/169/40 88/170/89 90/166/101
f 54/167/42 53/171/38 87/172/88 89/168/90
f 40/169/40 39/173/36 86/174/87 88/170/89
f 53/171/38 52/175/37 85/176/86 87/172/88
f 39/173/36 38/177/35 84/178/84 86/174/87
f 52/175/37 51/179/32 83/180/83 85/176/86
f 101/76/72 69/105/85 82/108/82 114/99/82
f 38/177/35 37/181/29 81/182/81 84/178/84
f 51/183/32 50/184/31 80/185/80 83/186/83
f 64/107/33 63/187/27 79/188/79 82/108/82
f 37/181/29 36/189/28 78/190/78 81/182/81
f 50/184/31 49/191/25 77/192/77 80/185/80
f 63/187/27 62/193/26 76/194/76 79/188/79
f 36/189/28 35/195/30 75/196/75 78/190/78
f 49/191/25 48/197/24 74/198/74 77/192/77
f 62/193/26 61/199/22 73/200/73 76/194/76
f 35/201/30 34/202/39 72/203/71 75/204/75
f 48/197/24 47/205/20 71/206/69 74/198/74
f 61/199/22 60/207/21 70/208/5 73/200/73
f 34/202/39 33/106/34 69/105/85 72/203/71
f 47/205/20 46/145/19 68/144/70 71/206/69
f 60/207/21 59/141/23 67/140/6 70/208/5
f 1/77/56 101/76/72 114/99/82 32/100/62
f 27/7/7 99/6/6 129/148/98 26/209/43
f 14/73/9 100/72/70 130/138/99 13/139/10
f 98/147/99 96/150/97 128/133/97 130/138/99
f 97/154/98 95/153/100 127/131/96 129/136/98
f 96/150/97 94/156/95 126/134/95 128/133/97
f 95/153/100 93/158/94 125/127/94 127/131/96
f 94/162/95 92/161/93 124/125/93 126/129/95
f 93/158/94 91/164/92 123/123/92 125/127/94
f 92/161/93 90/166/101 122/121/91 124/125/93
f 91/164/92 89/168/90 121/119/90 123/123/92
f 90/166/101 88/170/89 120/117/89 122/121/91
f 89/168/90 87/172/88 119/115/88 121/119/90
f 88/170/89 86/174/87 118/113/87 120/117/89
f 87/172/88 85/176/86 117/109/86 119/115/88
f 86/174/87 84/178/84 116/103/84 118/113/87
f 85/176/86 83/180/83 115/110/83 117/109/86
f 84/178/84 81/182/81 113/97/81 116/103/84
f 83/186/83 80/185/80 112/95/80 115/101/83
f 82/108/82 79/188/79 111/93/79 114/99/82
f 81/182/81 78/190/78 110/89/78 113/97/81
f 80/185/80 77/192/77 109/87/77 112/95/80
f 79/188/79 76/194/76 108/85/76 111/93/79
f 78/190/78 75/196/75 107/90/75 110/89/78
f 77/192/77 74/198/74 106/81/74 109/87/77
f 76/194/76 73/200/73 105/79/73 108/85/76
f 75/204/75 72/203/71 104/75/71 107/83/75
f 74/198/74 71/206/69 103/71/69 106/81/74
f 73/200/73 70/208/5 102/5/5 105/79/73
f 72/203/71 69/105/85 101/76/72 104/75/71
f 71/206/69 68/144/70 100/72/70 103/71/69
f 70/208/5 67/140/6 99/6/6 102/5/5
