# Blender v2.91.0 OBJ File: '3dbase.blend'
# www.blender.org
mtllib 120x92x.mtl
o 120x92_Circle.045
v 1.500035 0.000000 1.306699
v 1.275785 0.000000 1.663113
v 0.000728 0.000000 0.000000
v 1.666669 0.000000 0.900068
v 1.000330 0.009962 1.952365
v 0.689267 0.009962 2.169352
v 0.690785 0.000000 2.172964
v 1.002534 0.000000 1.955615
v -1.498578 -0.000000 -1.306701
v -1.274327 -0.000000 -1.663115
v -1.665212 -0.000000 -0.900071
v -0.341160 0.127400 2.257776
v 0.000730 0.127400 2.302008
v 0.000728 0.127400 0.000000
v -0.669912 0.127400 2.126779
v -0.972892 0.127400 -1.914050
v -1.238455 0.127400 -1.627765
v -0.669913 0.127400 -2.126778
v -1.456397 0.127400 -1.278927
v -1.618343 0.127400 -0.880940
v 0.974350 0.127400 1.914048
v 1.239912 0.127400 1.627763
v 0.671371 0.127400 2.126777
v -1.718068 0.127400 -0.449099
v -1.751742 0.127400 0.000001
v 1.457855 0.127400 1.278925
v 1.619800 0.127400 0.880937
v 1.457853 0.127400 -1.278927
v 1.239911 0.127400 -1.627765
v 1.619799 0.127400 -0.880940
v -1.718068 0.127400 0.449100
v -1.618343 0.127400 0.880941
v 1.719525 0.127400 0.449096
v 1.753198 0.127400 -0.000000
v 0.974348 0.127400 -1.914050
v 0.671369 0.127400 -2.126778
v -1.456397 0.127400 1.278928
v -1.238454 0.127400 1.627766
v 1.719524 0.127400 -0.449100
v 0.342618 0.127400 -2.257776
v 0.000728 0.127400 -2.302008
v -0.972891 0.127400 1.914051
v 0.352517 0.000000 2.306807
v 0.000730 0.000000 2.352000
v -1.001076 -0.000000 -1.955617
v -0.689326 -0.000000 -2.172965
v -0.351057 -0.000000 2.306807
v -0.689325 -0.000000 2.172966
v -0.351059 -0.000000 -2.306807
v 0.000728 0.000000 -2.352000
v -1.001075 -0.000000 1.955617
v -1.274326 -0.000000 1.663116
v 0.352515 0.000000 -2.306807
v 0.690783 0.000000 -2.172965
v 1.769280 0.000000 -0.458852
v 1.803928 0.000000 -0.000000
v 1.666668 0.000000 -0.900072
v -1.498577 -0.000000 1.306702
v -1.665211 -0.000000 0.900072
v 1.002532 0.000000 -1.955617
v 1.275783 0.000000 -1.663115
v 1.769281 0.000000 0.458849
v 1.500034 0.000000 -1.306701
v -1.767824 -0.000000 -0.458852
v -1.802472 -0.000000 0.000001
v 0.342620 0.127400 2.257775
v -0.341162 0.127400 -2.257776
v -1.767824 -0.000000 0.458853
v -1.661547 0.009962 -0.898575
v -1.495280 0.009962 -1.304529
v 1.765389 0.009962 -0.458090
v 1.799961 0.009962 -0.000000
v 1.272980 0.009962 1.660349
v -1.763934 0.009962 -0.458089
v 1.663003 0.009962 -0.898576
v 1.496737 0.009962 1.304527
v -1.798505 0.009962 0.000001
v 1.496736 0.009962 -1.304530
v 1.663004 0.009962 0.898572
v -1.763933 0.009962 0.458091
v 1.272978 0.009962 -1.660351
v 1.765390 0.009962 0.458086
v -1.661546 0.009962 0.898577
v 1.000328 0.009962 -1.952366
v 1.756173 0.119928 -0.000000
v 1.722443 0.119928 0.449668
v -1.495279 0.009962 1.304531
v 0.689265 0.009962 -2.169353
v -1.271521 0.009962 1.660352
v 0.351741 0.009962 -2.302973
v -0.998871 0.009962 1.952367
v 0.000728 0.009962 -2.348091
v -0.687807 0.009962 2.169354
v -0.350285 0.009962 -2.302973
v -0.350283 0.009962 2.302974
v -0.687808 0.009962 -2.169353
v 0.000730 0.009962 2.348091
v -0.998872 0.009962 -1.952366
v 0.351743 0.009962 2.302973
v -1.271522 0.009962 -1.660351
v 0.672509 0.119928 2.129486
v 0.343200 0.119928 2.260651
v -1.458871 0.119928 -1.280556
v -1.240559 0.119928 -1.629838
v -0.974545 0.119928 -1.916488
v 0.000730 0.119928 2.304940
v -0.671051 0.119928 -2.129487
v -0.341741 0.119928 2.260651
v -0.341742 0.119928 -2.260651
v -0.671050 0.119928 2.129488
v 0.000728 0.119928 -2.304940
v -0.974544 0.119928 1.916489
v 0.343198 0.119928 -2.260651
v -1.240558 0.119928 1.629839
v 0.672508 0.119928 -2.129487
v -1.458870 0.119928 1.280557
v 0.976001 0.119928 -1.916488
v -1.621091 0.119928 0.882063
v 1.242015 0.119928 -1.629838
v -1.720986 0.119928 0.449672
v 1.622549 0.119928 0.882059
v 1.460327 0.119928 -1.280556
v -1.754717 0.119928 0.000001
v 1.460328 0.119928 1.280553
v 1.622548 0.119928 -0.882062
v -1.720986 0.119928 -0.449671
v 1.242016 0.119928 1.629836
v 1.722442 0.119928 -0.449672
v -1.621092 0.119928 -0.882062
v 0.976003 0.119928 1.916486
vt 0.500000 0.500000
vt 0.500000 0.500000
vt 0.500000 0.500000
vt 0.500000 0.500000
vt 0.500000 0.500000
vt 0.500000 0.500000
vt 0.500000 0.500000
vt 0.500000 0.500000
vt 0.500000 0.500000
vt 0.500000 0.500000
vt 0.500000 0.500000
vt 0.500000 0.500000
vt 0.500000 0.500000
vt 0.500000 0.500000
vt 0.500000 0.500000
vt 0.500000 0.500000
vt 0.500000 0.500000
vt 0.500000 0.500000
vt 0.500000 0.500000
vt 0.500000 0.500000
vt 0.500000 0.500000
vt 0.500000 0.500000
vt 0.500000 0.500000
vt 0.500000 0.500000
vt 0.500000 0.500000
vt 0.500000 0.500000
vt 0.500000 0.500000
vt 0.500000 0.500000
vt 0.500000 0.500000
vt 0.500000 0.500000
vt 0.500000 0.500000
vt 0.500000 0.500000
vt 0.500000 0.500000
vt 0.500000 0.500000
vt 0.500000 0.500000
vt 0.500000 0.500000
vt 0.500000 0.500000
vt 0.500000 0.500000
vt 0.500000 0.500000
vt 0.500000 0.500000
vt 0.500000 0.500000
vt 0.500000 0.500000
vt 0.500000 0.500000
vt 0.500000 0.500000
vt 0.500000 0.500000
vt 0.500000 0.500000
vt 0.500000 0.500000
vt 0.500000 0.500000
vt 0.500000 0.500000
vt 0.500000 0.500000
vt 0.500000 0.500000
vt 0.500000 0.500000
vt 0.500000 0.500000
vt 0.500000 0.500000
vt 0.500000 0.500000
vt 0.500000 0.500000
vt 0.500000 0.500000
vt 0.500000 0.500000
vt 0.500000 0.500000
vt 0.500000 0.500000
vt 0.500000 0.500000
vt 0.500000 0.500000
vt 0.500000 0.500000
vt 0.500000 0.500000
vt 0.500000 0.500000
vt 0.500000 0.500000
vt 0.500000 0.500000
vt 0.500000 0.500000
vt 0.500000 0.500000
vt 0.500000 0.500000
vt 0.500000 0.500000
vt 0.500000 0.500000
vt 0.500000 0.500000
vt 0.500000 0.500000
vt 0.500000 0.500000
vt 0.500000 0.500000
vt 0.500000 0.500000
vt 0.500000 0.500000
vt 0.500000 0.500000
vt 0.500000 0.500000
vt 0.500000 0.500000
vt 0.500000 0.500000
vt 0.500000 0.500000
vt 0.500000 0.500000
vt 0.500000 0.500000
vt 0.500000 0.500000
vt 0.500000 0.500000
vt 0.500000 0.500000
vt 0.500000 0.500000
vt 0.500000 0.500000
vt 0.500000 0.500000
vt 0.500000 0.500000
vt 0.500000 0.500000
vt 0.500000 0.500000
vt 0.500000 0.500000
vt 0.500000 0.500000
vt 0.500000 0.500000
vt 0.500000 0.500000
vt 0.500000 0.500000
vt 0.500000 0.500000
vt 0.500000 0.500000
vt 0.500000 0.500000
vt 0.500000 0.500000
vt 0.500000 0.500000
vt 0.500000 0.500000
vt 0.500000 0.500000
vt 0.500000 0.500000
vt 0.500000 0.500000
vt 0.500000 0.500000
vt 0.500000 0.500000
vt 0.500000 0.500000
vt 0.500000 0.500000
vt 0.500000 0.500000
vt 0.500000 0.500000
vt 0.500000 0.500000
vt 0.500000 0.500000
vt 0.500000 0.500000
vt 0.500000 0.500000
vt 0.500000 0.500000
vt 0.500000 0.500000
vt 0.500000 0.500000
vt 0.500000 0.500000
vt 0.500000 0.500000
vt 0.500000 0.500000
vt 0.500000 0.500000
vt 0.500000 0.500000
vt 0.500000 0.500000
vt 0.500000 0.500000
vt 0.500000 0.500000
vt 0.500000 0.500000
vn 0.7460 -0.5427 0.3859
vn 0.6647 -0.5413 0.5149
vn 0.0000 -1.0000 0.0000
vn 0.7994 -0.5435 0.2562
vn 0.6105 0.3647 0.7031
vn 0.4411 0.3651 0.8198
vn 0.3973 -0.5367 0.7444
vn 0.5498 -0.5392 0.6380
vn -0.7460 -0.5427 -0.3859
vn -0.6647 -0.5413 -0.5149
vn -0.7993 -0.5435 -0.2562
vn -0.1496 0.8058 0.5730
vn -0.0000 0.8054 0.5928
vn -0.0000 1.0000 -0.0000
vn -0.2822 0.8069 0.5189
vn -0.3881 0.8086 -0.4422
vn -0.4661 0.8105 -0.3548
vn -0.2822 0.8069 -0.5189
vn -0.5199 0.8123 -0.2644
vn -0.5543 0.8138 -0.1747
vn 0.3881 0.8086 0.4422
vn 0.4661 0.8105 0.3548
vn 0.2822 0.8069 0.5188
vn -0.5733 0.8147 -0.0868
vn -0.5794 0.8150 0.0000
vn 0.5200 0.8123 0.2644
vn 0.5544 0.8137 0.1747
vn 0.5199 0.8123 -0.2644
vn 0.4661 0.8105 -0.3548
vn 0.5543 0.8138 -0.1747
vn -0.5734 0.8147 0.0868
vn -0.5544 0.8137 0.1747
vn 0.5733 0.8147 0.0868
vn 0.5794 0.8150 -0.0000
vn 0.3881 0.8086 -0.4422
vn 0.2822 0.8069 -0.5188
vn -0.5199 0.8123 0.2644
vn -0.4661 0.8105 0.3548
vn 0.5733 0.8147 -0.0868
vn 0.1496 0.8058 -0.5730
vn -0.0000 0.8054 -0.5928
vn -0.3881 0.8086 0.4422
vn 0.2097 -0.5345 0.8187
vn 0.0000 -0.5337 0.8457
vn -0.5498 -0.5392 -0.6380
vn -0.3973 -0.5367 -0.7444
vn -0.2097 -0.5345 0.8187
vn -0.3973 -0.5367 0.7444
vn -0.2097 -0.5345 -0.8187
vn 0.0000 -0.5337 -0.8457
vn -0.5498 -0.5392 0.6380
vn -0.6647 -0.5413 0.5149
vn 0.2097 -0.5345 -0.8187
vn 0.3973 -0.5367 -0.7444
vn 0.8294 -0.5438 -0.1276
vn 0.8391 -0.5439 -0.0000
vn 0.7994 -0.5435 -0.2562
vn -0.7460 -0.5428 0.3859
vn -0.7994 -0.5435 0.2562
vn 0.5498 -0.5392 -0.6380
vn 0.6647 -0.5413 -0.5149
vn 0.8294 -0.5438 0.1276
vn 0.7460 -0.5428 -0.3859
vn -0.8294 -0.5438 -0.1276
vn -0.8391 -0.5439 -0.0000
vn 0.1496 0.8058 0.5730
vn -0.1496 0.8058 -0.5730
vn -0.8294 -0.5438 0.1276
vn -0.8861 0.3677 -0.2821
vn -0.8277 0.3663 -0.4252
vn 0.9188 0.3688 -0.1404
vn 0.9293 0.3692 -0.0000
vn 0.7379 0.3651 0.5676
vn -0.9188 0.3688 -0.1404
vn 0.8861 0.3677 -0.2821
vn 0.8277 0.3663 0.4252
vn -0.9294 0.3692 0.0000
vn 0.8277 0.3663 -0.4252
vn 0.8861 0.3677 0.2821
vn -0.9188 0.3688 0.1404
vn 0.7379 0.3651 -0.5676
vn 0.9188 0.3688 0.1404
vn -0.8861 0.3677 0.2821
vn 0.6105 0.3647 -0.7031
vn 0.9294 0.3692 -0.0000
vn 0.9189 0.3688 0.1400
vn -0.8277 0.3663 0.4252
vn 0.4411 0.3651 -0.8198
vn -0.7379 0.3651 0.5676
vn 0.2327 0.3659 -0.9011
vn -0.6105 0.3647 0.7031
vn 0.0000 0.3663 -0.9305
vn -0.4411 0.3651 0.8199
vn -0.2327 0.3659 -0.9011
vn -0.2327 0.3659 0.9011
vn -0.4411 0.3651 -0.8198
vn 0.0000 0.3663 0.9305
vn -0.6105 0.3647 -0.7031
vn 0.2327 0.3659 0.9011
vn -0.7379 0.3651 -0.5676
vn 0.4422 0.3651 0.8193
vn 0.2334 0.3659 0.9009
vn -0.8283 0.3662 -0.4241
vn -0.7388 0.3651 -0.5664
vn -0.6116 0.3647 -0.7021
vn -0.4422 0.3651 -0.8193
vn -0.2334 0.3659 0.9009
vn -0.2334 0.3659 -0.9009
vn -0.4422 0.3651 0.8193
vn -0.6116 0.3647 0.7021
vn 0.2334 0.3659 -0.9009
vn -0.7388 0.3651 0.5664
vn 0.4422 0.3651 -0.8193
vn -0.8283 0.3662 0.4241
vn 0.6116 0.3647 -0.7021
vn -0.8864 0.3676 0.2813
vn 0.7388 0.3651 -0.5664
vn -0.9189 0.3687 0.1400
vn 0.8864 0.3676 0.2813
vn 0.8283 0.3662 -0.4241
vn 0.8283 0.3662 0.4241
vn 0.8864 0.3676 -0.2813
vn -0.9189 0.3688 -0.1400
vn 0.7388 0.3651 0.5664
vn 0.9189 0.3688 -0.1400
vn -0.8864 0.3676 -0.2813
vn 0.6116 0.3647 0.7021
usemtl None.041
s 1
f 1/1/1 2/2/2 3/3/3 4/4/4
f 5/5/5 6/6/6 7/7/7 8/8/8
f 9/9/9 10/10/10 3/3/3 11/11/11
f 12/12/12 13/13/13 14/14/14 15/15/15
f 16/16/16 17/17/17 14/14/14 18/18/18
f 19/19/19 20/20/20 14/14/14 17/17/17
f 21/21/21 22/22/22 14/14/14 23/23/23
f 24/24/24 25/25/25 14/14/14 20/20/20
f 26/26/26 27/27/27 14/14/14 22/22/22
f 28/28/28 29/29/29 14/14/14 30/30/30
f 31/31/31 32/32/32 14/14/14 25/25/25
f 33/33/33 34/34/34 14/14/14 27/27/27
f 35/35/35 36/36/36 14/14/14 29/29/29
f 37/37/37 38/38/38 14/14/14 32/32/32
f 39/39/39 30/30/30 14/14/14 34/34/34
f 36/36/36 40/40/40 41/41/41 14/14/14
f 38/38/38 42/42/42 15/15/15 14/14/14
f 2/2/2 8/8/8 7/7/7 3/3/3
f 7/7/7 43/43/43 44/44/44 3/3/3
f 45/45/45 46/46/46 3/3/3 10/10/10
f 47/47/47 48/48/48 3/3/3 44/44/44
f 49/49/49 50/50/50 3/3/3 46/46/46
f 51/51/51 52/52/52 3/3/3 48/48/48
f 53/53/53 54/54/54 3/3/3 50/50/50
f 55/55/55 56/56/56 3/3/3 57/57/57
f 58/58/58 59/59/59 3/3/3 52/52/52
f 60/60/60 61/61/61 3/3/3 54/54/54
f 62/62/62 4/4/4 3/3/3 56/56/56
f 63/63/63 57/57/57 3/3/3 61/61/61
f 64/64/64 11/11/11 3/3/3 65/65/65
f 66/66/66 23/23/23 14/14/14 13/13/13
f 67/67/67 18/18/18 14/14/14 41/41/41
f 68/68/68 65/65/65 3/3/3 59/59/59
f 69/69/69 70/70/70 9/9/9 11/11/11
f 71/71/71 72/72/72 56/56/56 55/55/55
f 73/73/73 5/5/5 8/8/8 2/2/2
f 74/74/74 69/69/69 11/11/11 64/64/64
f 75/75/75 71/71/71 55/55/55 57/57/57
f 76/76/76 73/73/73 2/2/2 1/1/1
f 77/77/77 74/74/74 64/64/64 65/65/65
f 78/78/78 75/75/75 57/57/57 63/63/63
f 79/79/79 76/76/76 1/1/1 4/4/4
f 80/80/80 77/77/77 65/65/65 68/68/68
f 81/81/81 78/78/78 63/63/63 61/61/61
f 82/82/82 79/79/79 4/4/4 62/62/62
f 83/83/83 80/80/80 68/68/68 59/59/59
f 84/84/84 81/81/81 61/61/61 60/60/60
f 85/85/85 34/34/34 33/33/33 86/86/86
f 87/87/87 83/83/83 59/59/59 58/58/58
f 88/88/88 84/84/84 60/60/60 54/54/54
f 89/89/89 87/87/87 58/58/58 52/52/52
f 90/90/90 88/88/88 54/54/54 53/53/53
f 91/91/91 89/89/89 52/52/52 51/51/51
f 92/92/92 90/90/90 53/53/53 50/50/50
f 93/93/93 91/91/91 51/51/51 48/48/48
f 94/94/94 92/92/92 50/50/50 49/49/49
f 95/95/95 93/93/93 48/48/48 47/47/47
f 96/96/96 94/94/94 49/49/49 46/46/46
f 97/97/97 95/95/95 47/47/47 44/44/44
f 98/98/98 96/96/96 46/46/46 45/45/45
f 99/99/99 97/97/97 44/44/44 43/43/43
f 100/100/100 98/98/98 45/45/45 10/10/10
f 101/101/101 23/23/23 66/66/66 102/102/102
f 103/103/103 19/19/19 17/17/17 104/104/104
f 70/70/70 103/103/103 104/104/104 100/100/100
f 6/6/6 101/101/101 102/102/102 99/99/99
f 17/17/17 16/16/16 105/105/105 104/104/104
f 66/66/66 13/13/13 106/106/97 102/102/102
f 16/16/16 18/18/18 107/107/106 105/105/105
f 13/13/13 12/12/12 108/108/107 106/106/97
f 18/18/18 67/67/67 109/109/108 107/107/106
f 12/12/12 15/15/15 110/110/109 108/108/107
f 67/67/67 41/41/41 111/111/92 109/109/108
f 15/15/15 42/42/42 112/112/110 110/110/109
f 41/41/41 40/40/40 113/113/111 111/111/92
f 42/42/42 38/38/38 114/114/112 112/112/110
f 40/40/40 36/36/36 115/115/113 113/113/111
f 38/38/38 37/37/37 116/116/114 114/114/112
f 36/36/36 35/35/35 117/117/115 115/115/113
f 37/37/37 32/32/32 118/118/116 116/116/114
f 72/72/72 85/85/85 86/86/86 82/82/82
f 35/35/35 29/29/29 119/119/117 117/117/115
f 32/32/32 31/31/31 120/120/118 118/118/116
f 33/33/33 27/27/27 121/121/119 86/86/86
f 29/29/29 28/28/28 122/122/120 119/119/117
f 31/31/31 25/25/25 123/123/77 120/120/118
f 27/27/27 26/26/26 124/124/121 121/121/119
f 28/28/28 30/30/30 125/125/122 122/122/120
f 25/25/25 24/24/24 126/126/123 123/123/77
f 26/26/26 22/22/22 127/127/124 124/124/121
f 30/30/30 39/39/39 128/128/125 125/125/122
f 24/24/24 20/20/20 129/129/126 126/126/123
f 22/22/22 21/21/21 130/130/127 127/127/124
f 39/39/39 34/34/34 85/85/85 128/128/125
f 20/20/20 19/19/19 103/103/103 129/129/126
f 21/21/21 23/23/23 101/101/101 130/130/127
f 56/56/56 72/72/72 82/82/82 62/62/62
f 7/7/7 6/6/6 99/99/99 43/43/43
f 9/9/9 70/70/70 100/100/100 10/10/10
f 104/104/104 105/105/105 98/98/98 100/100/100
f 102/102/102 106/106/97 97/97/97 99/99/99
f 105/105/105 107/107/106 96/96/96 98/98/98
f 106/106/97 108/108/107 95/95/95 97/97/97
f 107/107/106 109/109/108 94/94/94 96/96/96
f 108/108/107 110/110/109 93/93/93 95/95/95
f 109/109/108 111/111/92 92/92/92 94/94/94
f 110/110/109 112/112/110 91/91/91 93/93/93
f 111/111/92 113/113/111 90/90/90 92/92/92
f 112/112/110 114/114/112 89/89/89 91/91/91
f 113/113/111 115/115/113 88/88/88 90/90/90
f 114/114/112 116/116/114 87/87/87 89/89/89
f 115/115/113 117/117/115 84/84/84 88/88/88
f 116/116/114 118/118/116 83/83/83 87/87/87
f 117/117/115 119/119/117 81/81/81 84/84/84
f 118/118/116 120/120/118 80/80/80 83/83/83
f 86/86/86 121/121/119 79/79/79 82/82/82
f 119/119/117 122/122/120 78/78/78 81/81/81
f 120/120/118 123/123/77 77/77/77 80/80/80
f 121/121/119 124/124/121 76/76/76 79/79/79
f 122/122/120 125/125/122 75/75/75 78/78/78
f 123/123/77 126/126/123 74/74/74 77/77/77
f 124/124/121 127/127/124 73/73/73 76/76/76
f 125/125/122 128/128/125 71/71/71 75/75/75
f 126/126/123 129/129/126 69/69/69 74/74/74
f 127/127/124 130/130/127 5/5/5 73/73/73
f 128/128/125 85/85/85 72/72/72 71/71/71
f 129/129/126 103/103/103 70/70/70 69/69/69
f 130/130/127 101/101/101 6/6/6 5/5/5
