# Blender 4.1.1
# www.blender.org
mtllib 105x70mm.mtl
o 105x70mm
v 1.349537 0.000015 -0.403470
v 1.375975 0.000015 -0.000197
v 0.000070 -0.000000 -0.000196
v 1.271240 0.000015 -0.791246
v 1.347872 0.009817 0.402576
v 1.269673 0.009816 0.789874
v 1.271240 0.000015 0.790852
v 1.349537 0.000015 0.403076
v -1.349396 0.000014 0.403077
v -1.375834 0.000015 -0.000196
v -1.271099 0.000014 0.790852
v 0.733426 0.127601 1.667273
v 0.933455 0.127601 1.417870
v 0.000070 0.127609 -0.000196
v 0.505215 0.127601 1.852597
v -1.294571 0.127601 -0.391440
v -1.319934 0.127601 -0.000196
v -1.219455 0.127601 -0.767648
v -1.294571 0.127601 0.391048
v -1.219455 0.127601 0.767256
v 1.294712 0.127602 0.391047
v 1.320075 0.127602 -0.000197
v 1.219596 0.127602 0.767255
v -1.097473 0.127601 1.113971
v -0.933314 0.127601 1.417871
v 1.294711 0.127602 -0.391441
v 1.219595 0.127602 -0.767650
v 0.257590 0.127602 -1.967112
v 0.000070 0.127602 -2.005646
v 0.505214 0.127602 -1.852990
v -0.733285 0.127601 1.667274
v -0.505073 0.127601 1.852597
v 1.097614 0.127602 -1.114365
v 0.933454 0.127602 -1.418264
v -0.257450 0.127602 -1.967112
v -0.505074 0.127602 -1.852990
v -0.257449 0.127601 1.966719
v 0.000071 0.127601 2.005253
v 0.733426 0.127602 -1.667667
v -0.733285 0.127601 -1.667667
v -0.933314 0.127601 -1.418263
v 0.257591 0.127601 1.966719
v 1.144093 0.000015 1.148227
v 0.972982 0.000015 1.461470
v -1.349396 0.000015 -0.403469
v -1.271099 0.000015 -0.791244
v 0.764482 0.000015 1.718541
v 0.526607 0.000015 1.909563
v -1.143952 0.000015 -1.148621
v -0.972841 0.000015 -1.461863
v 0.268496 0.000015 2.027194
v 0.000071 0.000015 2.066912
v -0.764341 0.000015 -1.718935
v -0.526466 0.000015 -1.909956
v 0.764482 0.000015 -1.718935
v 0.972982 0.000015 -1.461864
v 0.526606 0.000015 -1.909956
v -0.268355 0.000014 2.027194
v -0.526465 0.000014 1.909563
v -0.268356 0.000015 -2.027587
v 0.000070 0.000015 -2.067306
v 1.144093 0.000015 -1.148621
v 0.268496 0.000015 -2.027587
v -1.143952 0.000014 1.148228
v -0.972841 0.000014 1.461470
v 1.097614 0.127601 1.113971
v -1.097474 0.127601 -1.114364
v -0.764341 0.000014 1.718542
v -1.269531 0.009816 0.789877
v -1.347731 0.009816 0.402580
v 0.763539 0.009817 -1.716814
v 0.971781 0.009817 -1.460061
v 1.374277 0.009817 -0.000199
v -1.142540 0.009816 1.146812
v 0.525956 0.009817 -1.907600
v 1.347872 0.009817 -0.402975
v -0.971640 0.009816 1.459668
v 0.268164 0.009817 -2.025086
v 1.269671 0.009817 -0.790272
v -0.763397 0.009816 1.716422
v 0.000070 0.009817 -2.064755
v 1.142680 0.009817 -1.147207
v -0.525815 0.009816 1.907207
v -0.268025 0.009817 -2.025085
v 0.938215 0.120115 -1.425496
v 1.103210 0.120115 -1.120050
v -0.268023 0.009816 2.024693
v -0.525817 0.009816 -1.907599
v 0.000072 0.009816 2.064362
v -0.763399 0.009816 -1.716813
v 0.268166 0.009816 2.024692
v -0.971641 0.009816 -1.460059
v 0.525957 0.009816 1.907206
v -1.142541 0.009816 -1.147203
v 0.763540 0.009816 1.716420
v -1.269531 0.009816 -0.790269
v 0.971782 0.009816 1.459665
v -1.347731 0.009816 -0.402971
v 1.142682 0.009816 1.146809
v -1.374136 0.009816 -0.000195
v 1.225816 0.120114 0.771167
v 1.103212 0.120114 1.119652
v -1.301173 0.120114 0.393044
v -1.326666 0.120114 -0.000195
v -1.301173 0.120114 -0.393434
v 0.938216 0.120114 1.425101
v -1.225675 0.120114 -0.771562
v 0.737167 0.120114 1.675776
v -1.103071 0.120114 -1.120046
v 0.507791 0.120114 1.862046
v -0.938075 0.120114 -1.425495
v 0.258905 0.120114 1.976750
v -0.737025 0.120114 -1.676170
v 0.000071 0.120114 2.015481
v -0.507650 0.120114 -1.862439
v -0.258762 0.120114 1.976750
v -0.258764 0.120114 -1.977143
v -0.507649 0.120114 1.862047
v 0.000070 0.120115 -2.015874
v -0.737024 0.120114 1.675779
v 1.225814 0.120115 -0.771566
v 0.258903 0.120115 -1.977143
v -0.938073 0.120114 1.425103
v 1.301314 0.120115 -0.393439
v 0.507790 0.120115 -1.862440
v -1.103070 0.120114 1.119655
v 1.326807 0.120115 -0.000199
v 0.737165 0.120115 -1.676172
v -1.225674 0.120114 0.771171
v 1.301314 0.120114 0.393040
v 1.315105 0.009840 0.599111
v 1.263236 0.127620 0.581954
v 1.269679 0.120096 0.584921
v 1.316729 -0.000009 0.599853
v 1.313719 0.127620 0.196371
v 1.367660 0.009840 0.202162
v 1.369350 -0.000009 0.202415
v 1.320419 0.120096 0.197372
v 1.369349 -0.000008 -0.202809
v 1.367660 0.009840 -0.202562
v 1.313719 0.127620 -0.196766
v 1.320418 0.120096 -0.197770
v 1.316729 -0.000008 -0.600247
v 1.269677 0.120096 -0.585320
v 1.263236 0.127620 -0.582348
v 1.315104 0.009840 -0.599510
v 1.170146 0.120097 -0.950383
v 1.164210 0.127620 -0.945560
v 1.212011 0.009841 -0.973426
v 1.213509 -0.000008 -0.974626
v 1.020447 0.127620 -1.272440
v 1.025651 0.120097 -1.278930
v 1.063658 -0.000008 -1.311557
v 1.062346 0.009841 -1.309941
v 0.625490 0.120097 -1.777866
v 0.622316 0.127620 -1.768846
v 0.648667 -0.000008 -1.823224
v 0.647867 0.009841 -1.820975
v 0.841743 0.120097 -1.558336
v 0.872934 -0.000008 -1.598094
v 0.871857 0.009841 -1.596122
v 0.837472 0.127620 -1.550431
v 0.399474 -0.000008 -1.978297
v 0.385201 0.120096 -1.929080
v 0.398981 0.009840 -1.975857
v 0.383247 0.127620 -1.919293
v 0.134765 0.009840 -2.054814
v 0.130112 0.120096 -2.006168
v 0.129453 0.127620 -1.995990
v 0.134932 -0.000008 -2.057352
v -0.129313 0.127620 -1.995989
v -0.134626 0.009840 -2.054813
v -0.129973 0.120096 -2.006168
v -0.134792 -0.000009 -2.057352
v -0.399334 -0.000009 -1.978297
v -0.383107 0.127620 -1.919292
v -0.398842 0.009840 -1.975856
v -0.385062 0.120096 -1.929079
v -0.648527 -0.000009 -1.823224
v -0.625350 0.120096 -1.777865
v -0.622176 0.127620 -1.768845
v -0.647727 0.009840 -1.820974
v -0.872795 -0.000009 -1.598093
v -0.871718 0.009840 -1.596121
v -0.841603 0.120096 -1.558335
v -0.837332 0.127619 -1.550430
v -1.063518 -0.000009 -1.311557
v -1.020307 0.127619 -1.272440
v -1.025511 0.120096 -1.278928
v -1.062206 0.009840 -1.309937
v -1.213369 -0.000009 -0.974625
v -1.164070 0.127619 -0.945558
v -1.170007 0.120096 -0.950380
v -1.211872 0.009840 -0.973422
v -1.316588 -0.000009 -0.600247
v -1.269538 0.120096 -0.585316
v -1.263095 0.127619 -0.582348
v -1.314964 0.009840 -0.599506
v -1.320278 0.120096 -0.197766
v -1.369209 -0.000009 -0.202808
v -1.367519 0.009840 -0.202558
v -1.313578 0.127619 -0.196765
v -1.369209 -0.000009 0.202416
v -1.313578 0.127619 0.196372
v -1.367519 0.009840 0.202167
v -1.320277 0.120096 0.197376
v -1.316588 -0.000009 0.599854
v -1.314963 0.009840 0.599115
v -1.263095 0.127619 0.581955
v -1.269537 0.120096 0.584925
v -1.211871 0.009840 0.973031
v -1.170007 0.120096 0.949988
v -1.213369 -0.000009 0.974232
v -1.164070 0.127619 0.945166
v -1.062205 0.009840 1.309547
v -1.025510 0.120096 1.278536
v -1.020307 0.127619 1.272047
v -1.063518 -0.000009 1.311164
v -0.837331 0.127619 1.550037
v -0.872794 -0.000009 1.597701
v -0.871716 0.009840 1.595729
v -0.841601 0.120096 1.557944
v -0.625348 0.120096 1.777473
v -0.622175 0.127619 1.768452
v -0.648526 -0.000009 1.822830
v -0.647725 0.009840 1.820582
v -0.399333 -0.000009 1.977904
v -0.398840 0.009840 1.975463
v -0.383107 0.127619 1.918900
v -0.385060 0.120096 1.928686
v -0.129312 0.127619 1.995596
v -0.129971 0.120096 2.005774
v -0.134624 0.009840 2.054420
v -0.134791 -0.000009 2.056959
v 0.134767 0.009840 2.054420
v 0.129454 0.127619 1.995596
v 0.134933 -0.000009 2.056959
v 0.130114 0.120096 2.005774
v 0.385203 0.120096 1.928686
v 0.383248 0.127619 1.918899
v 0.398983 0.009840 1.975462
v 0.399474 -0.000009 1.977904
v 0.647868 0.009840 1.820580
v 0.648668 -0.000009 1.822830
v 0.622317 0.127619 1.768452
v 0.625491 0.120096 1.777471
v 0.841744 0.120096 1.557942
v 0.871859 0.009840 1.595727
v 0.837473 0.127619 1.550036
v 0.872935 -0.000009 1.597700
v 1.020448 0.127619 1.272046
v 1.062347 0.009840 1.309543
v 1.025653 0.120096 1.278534
v 1.063659 -0.000009 1.311163
v 1.170148 0.120096 0.949985
v 1.212013 0.009840 0.973027
v 1.213510 -0.000009 0.974232
v 1.164210 0.127620 0.945165
vn 0.9534 -0.2742 -0.1262
vn 0.9602 -0.2721 -0.0629
vn 0.9625 -0.2714 -0.0000
vn -0.0000 -1.0000 -0.0000
vn 0.9429 0.2739 0.1894
vn 0.9270 0.2758 0.2542
vn 0.9247 -0.2828 0.2549
vn 0.9416 -0.2778 0.1901
vn -0.9534 -0.2742 0.1262
vn -0.9602 -0.2721 0.0629
vn -0.9625 -0.2714 -0.0000
vn 0.2787 0.9203 0.2745
vn 0.3161 0.9142 0.2535
vn 0.3500 0.9080 0.2304
vn -0.0000 1.0000 -0.0000
vn -0.4706 0.8802 -0.0616
vn -0.4766 0.8786 -0.0309
vn -0.4786 0.8780 -0.0000
vn -0.4706 0.8802 0.0616
vn -0.4605 0.8829 0.0919
vn -0.4464 0.8865 0.1217
vn 0.4706 0.8802 0.0616
vn 0.4766 0.8786 0.0309
vn 0.4786 0.8780 -0.0000
vn -0.4062 0.8962 0.1786
vn -0.3800 0.9019 0.2053
vn -0.3500 0.9080 0.2304
vn 0.4706 0.8802 -0.0616
vn 0.4605 0.8829 -0.0920
vn 0.4465 0.8865 -0.1217
vn 0.0998 0.9386 -0.3303
vn 0.0503 0.9406 -0.3359
vn -0.0000 0.9412 -0.3377
vn -0.2787 0.9203 0.2745
vn -0.2379 0.9260 0.2930
vn -0.1942 0.9311 0.3086
vn 0.4062 0.8962 -0.1786
vn 0.3800 0.9019 -0.2053
vn 0.3500 0.9080 -0.2304
vn -0.0998 0.9386 -0.3303
vn -0.1480 0.9354 -0.3212
vn -0.1943 0.9311 -0.3087
vn -0.0998 0.9386 0.3303
vn -0.0503 0.9406 0.3358
vn -0.0000 0.9413 0.3377
vn 0.2787 0.9203 -0.2745
vn 0.2379 0.9260 -0.2930
vn 0.1942 0.9311 -0.3087
vn -0.2787 0.9203 -0.2746
vn -0.3161 0.9142 -0.2535
vn -0.3500 0.9080 -0.2304
vn 0.0998 0.9386 0.3303
vn 0.1480 0.9354 0.3211
vn 0.1942 0.9311 0.3086
vn 0.9534 -0.2742 0.1262
vn 0.8724 -0.2973 0.3879
vn 0.8354 -0.3066 0.4562
vn 0.7895 -0.3173 0.5254
vn -0.9534 -0.2742 -0.1262
vn -0.9416 -0.2778 -0.1901
vn -0.9247 -0.2829 -0.2549
vn 0.6659 -0.3417 0.6632
vn 0.5856 -0.3546 0.7290
vn 0.4916 -0.3671 0.7897
vn -0.8724 -0.2973 -0.3879
vn -0.8354 -0.3066 -0.4562
vn -0.7895 -0.3173 -0.5254
vn 0.2640 -0.3874 0.8833
vn 0.1346 -0.3933 0.9095
vn -0.0000 -0.3953 0.9185
vn -0.6659 -0.3416 -0.6632
vn -0.5856 -0.3546 -0.7290
vn -0.4916 -0.3671 -0.7897
vn 0.6659 -0.3416 -0.6632
vn 0.7335 -0.3291 -0.5947
vn 0.7895 -0.3173 -0.5254
vn -0.2640 -0.3874 0.8833
vn -0.3840 -0.3783 0.8423
vn -0.4916 -0.3671 0.7897
vn -0.2640 -0.3874 -0.8833
vn -0.1346 -0.3933 -0.9095
vn -0.0000 -0.3953 -0.9185
vn 0.8724 -0.2973 -0.3879
vn 0.9019 -0.2894 -0.3208
vn 0.9247 -0.2829 -0.2549
vn 0.2640 -0.3874 -0.8833
vn 0.3840 -0.3784 -0.8423
vn 0.4916 -0.3671 -0.7897
vn -0.8724 -0.2973 0.3879
vn -0.9019 -0.2894 0.3208
vn -0.9247 -0.2829 0.2549
vn 0.4062 0.8962 0.1786
vn 0.4283 0.8910 0.1507
vn 0.4465 0.8865 0.1217
vn -0.4062 0.8962 -0.1786
vn -0.4283 0.8910 -0.1507
vn -0.4464 0.8865 -0.1217
vn -0.6659 -0.3416 0.6632
vn -0.7335 -0.3291 0.5947
vn -0.7895 -0.3173 0.5253
vn -0.9429 0.2738 0.1894
vn -0.9539 0.2725 0.1257
vn -0.9416 -0.2778 0.1901
vn 0.7438 0.2948 -0.5998
vn 0.7981 0.2898 -0.5283
vn 0.9604 0.2716 0.0626
vn 0.9539 0.2725 0.1256
vn 0.9602 -0.2721 0.0629
vn -0.9054 0.2784 0.3204
vn -0.9270 0.2758 0.2542
vn 0.5982 0.3062 -0.7405
vn 0.6777 0.3004 -0.6712
vn 0.5856 -0.3546 -0.7290
vn 0.9604 0.2716 -0.0626
vn 0.9625 0.2714 -0.0000
vn -0.8422 0.2853 0.4575
vn -0.8775 0.2815 0.3882
vn -0.8354 -0.3066 0.4562
vn 0.3952 0.3176 -0.8619
vn 0.5041 0.3121 -0.8053
vn 0.9429 0.2739 -0.1894
vn 0.9539 0.2725 -0.1257
vn 0.9416 -0.2778 -0.1901
vn -0.7438 0.2948 0.5999
vn -0.7981 0.2898 0.5283
vn 0.1393 0.3251 -0.9354
vn 0.2726 0.3221 -0.9066
vn 0.1346 -0.3933 -0.9095
vn 0.9054 0.2784 -0.3204
vn 0.9270 0.2758 -0.2542
vn -0.5982 0.3062 0.7405
vn -0.6777 0.3004 0.6712
vn -0.5856 -0.3546 0.7290
vn -0.1393 0.3251 -0.9354
vn -0.0000 0.3262 -0.9453
vn 0.7406 0.5371 -0.4037
vn 0.7745 0.5312 -0.3436
vn -0.3952 0.3176 0.8619
vn -0.5041 0.3121 0.8053
vn -0.3952 0.3176 -0.8619
vn -0.2726 0.3221 -0.9066
vn -0.3840 -0.3783 -0.8423
vn -0.1393 0.3251 0.9354
vn -0.2726 0.3221 0.9066
vn -0.1346 -0.3933 0.9095
vn -0.5982 0.3062 -0.7405
vn -0.5041 0.3121 -0.8053
vn 0.1393 0.3251 0.9354
vn -0.0000 0.3261 0.9453
vn -0.7438 0.2948 -0.5998
vn -0.6777 0.3004 -0.6712
vn -0.7335 -0.3291 -0.5947
vn 0.3952 0.3176 0.8619
vn 0.2726 0.3221 0.9066
vn 0.3840 -0.3783 0.8423
vn -0.8422 0.2854 -0.4575
vn -0.7981 0.2898 -0.5283
vn 0.5982 0.3062 0.7405
vn 0.5041 0.3121 0.8053
vn -0.9054 0.2784 -0.3204
vn -0.8775 0.2815 -0.3882
vn -0.9019 -0.2894 -0.3208
vn 0.7438 0.2948 0.5998
vn 0.6777 0.3004 0.6712
vn 0.7335 -0.3291 0.5947
vn -0.9429 0.2739 -0.1894
vn -0.9270 0.2758 -0.2542
vn 0.8422 0.2854 0.4575
vn 0.7981 0.2898 0.5283
vn -0.9604 0.2716 -0.0626
vn -0.9539 0.2725 -0.1257
vn -0.9602 -0.2721 -0.0629
vn 0.8014 0.5262 0.2844
vn 0.7745 0.5312 0.3436
vn -0.8547 0.5160 0.0559
vn -0.4766 0.8786 0.0309
vn -0.8568 0.5156 -0.0000
vn -0.9604 0.2717 0.0626
vn -0.9625 0.2714 -0.0000
vn 0.9054 0.2784 0.3204
vn 0.8775 0.2815 0.3882
vn -0.8485 0.5173 -0.1120
vn -0.8547 0.5160 -0.0559
vn 0.3800 0.9019 0.2053
vn 0.6989 0.5441 0.4642
vn 0.7406 0.5371 0.4037
vn -0.4605 0.8829 -0.0919
vn -0.8222 0.5223 -0.2261
vn -0.8377 0.5194 -0.1687
vn 0.5871 0.5608 0.5838
vn 0.6481 0.5520 0.5246
vn -0.7745 0.5312 -0.3436
vn -0.8014 0.5262 -0.2844
vn 0.2379 0.9260 0.2930
vn 0.4313 0.5790 0.6919
vn 0.5151 0.5699 0.6403
vn -0.3800 0.9019 -0.2053
vn -0.6989 0.5441 -0.4642
vn -0.7406 0.5371 -0.4037
vn 0.2307 0.5940 0.7707
vn 0.3361 0.5872 0.7363
vn -0.5871 0.5608 -0.5838
vn -0.6481 0.5520 -0.5246
vn 0.0503 0.9406 0.3358
vn -0.0000 0.6000 0.8000
vn 0.1174 0.5984 0.7925
vn -0.2380 0.9260 -0.2930
vn -0.4313 0.5789 -0.6919
vn -0.5151 0.5699 -0.6403
vn -0.2307 0.5940 0.7707
vn -0.1174 0.5984 0.7925
vn -0.2307 0.5940 -0.7707
vn -0.3361 0.5872 -0.7363
vn -0.1480 0.9354 0.3212
vn -0.4313 0.5790 0.6919
vn -0.3361 0.5872 0.7363
vn 0.8422 0.2853 -0.4575
vn 0.8775 0.2815 -0.3882
vn -0.0503 0.9406 -0.3359
vn -0.0000 0.5999 -0.8000
vn -0.1175 0.5984 -0.7925
vn -0.5871 0.5608 0.5838
vn -0.5151 0.5699 0.6403
vn 0.4283 0.8910 -0.1507
vn 0.8222 0.5223 -0.2261
vn 0.8014 0.5262 -0.2844
vn 0.2307 0.5940 -0.7707
vn 0.1174 0.5984 -0.7926
vn -0.3161 0.9142 0.2535
vn -0.6989 0.5441 0.4642
vn -0.6481 0.5520 0.5246
vn 0.8485 0.5173 -0.1120
vn 0.8377 0.5193 -0.1687
vn 0.1480 0.9354 -0.3212
vn 0.4313 0.5790 -0.6919
vn 0.3361 0.5872 -0.7363
vn -0.7745 0.5312 0.3436
vn -0.7406 0.5371 0.4037
vn 0.4766 0.8786 -0.0309
vn 0.8568 0.5156 -0.0000
vn 0.8547 0.5160 -0.0559
vn 0.5871 0.5608 -0.5838
vn 0.5151 0.5699 -0.6403
vn -0.4283 0.8910 0.1507
vn -0.8222 0.5223 0.2261
vn -0.8014 0.5263 0.2844
vn 0.8485 0.5173 0.1120
vn 0.8547 0.5160 0.0559
vn 0.3161 0.9142 -0.2535
vn 0.6989 0.5441 -0.4642
vn 0.6481 0.5520 -0.5246
vn -0.8485 0.5173 0.1120
vn -0.8377 0.5194 0.1687
vn 0.4606 0.8829 0.0920
vn 0.8222 0.5223 0.2261
vn 0.8378 0.5193 0.1687
vn 0.8354 -0.3067 -0.4562
vn 0.9019 -0.2893 0.3208
vt 0.500004 0.500001
vt 0.500004 0.500000
vt 0.500002 0.500000
vt 0.499996 0.499999
vt 0.499996 0.499998
vt 0.500001 0.499999
vt 0.500001 0.500000
vt 0.499997 0.499996
vt 0.499997 0.499997
vt 0.499996 0.499997
vt 0.499998 0.500000
vt 0.499999 0.500001
vt 0.499999 0.500000
vt 0.499999 0.499999
vt 0.499996 0.500000
vt 0.499999 0.499998
vt 0.499999 0.499997
vt 0.499996 0.500001
vt 0.499997 0.500004
vt 0.499998 0.499996
vt 0.499996 0.500002
vt 0.499996 0.500003
vt 0.499998 0.500004
vt 0.499997 0.500003
vt 0.499999 0.500003
vt 0.500004 0.499999
vt 0.500004 0.499997
vt 0.500001 0.500001
vt 0.500001 0.500002
vt 0.500003 0.499996
vt 0.500001 0.500003
vt 0.500002 0.499996
vt 0.500002 0.500004
vt 0.500004 0.500003
vt 0.500003 0.500004
vt 0.500004 0.500002
vt 0.500001 0.499998
vt 0.499999 0.500002
vt 0.500001 0.499997
s 1
usemtl None.014
f 1/1/1 139/2/2 2/2/3 3/3/4
f 131/4/5 6/5/6 7/5/7 134/4/8
f 9/6/9 203/7/10 10/7/11 3/3/4
f 12/8/12 249/9/13 13/10/14 14/11/15
f 16/12/16 202/12/17 17/13/18 14/11/15
f 19/14/19 209/14/20 20/14/21 14/11/15
f 21/4/22 135/4/23 22/15/24 14/11/15
f 24/16/25 217/16/26 25/17/27 14/11/15
f 26/18/28 145/18/29 27/18/30 14/11/15
f 28/19/31 169/19/32 29/19/33 14/11/15
f 31/17/34 224/20/35 32/20/36 14/11/15
f 33/21/37 151/21/38 34/22/39 14/11/15
f 35/23/40 176/23/41 36/23/42 14/11/15
f 37/20/43 231/20/44 38/20/45 14/11/15
f 39/24/46 156/19/47 30/19/48 14/11/15
f 40/23/49 186/25/50 41/25/51 14/11/15
f 42/8/52 240/8/53 15/8/54 14/11/15
f 8/26/55 134/4/8 7/5/7 3/3/4
f 43/27/56 254/27/57 44/27/58 3/3/4
f 45/28/59 195/28/60 46/29/61 3/3/4
f 47/30/62 244/30/63 48/30/64 3/3/4
f 49/31/65 187/31/66 50/31/67 3/3/4
f 51/30/68 237/30/69 52/32/70 3/3/4
f 53/33/71 179/33/72 54/33/73 3/3/4
f 55/34/74 160/34/75 56/34/76 3/3/4
f 58/32/77 227/32/78 59/32/79 3/3/4
f 60/33/80 174/33/81 61/35/82 3/3/4
f 62/36/83 150/36/84 4/1/85 3/3/4
f 63/35/86 163/35/87 57/35/88 3/3/4
f 64/37/89 213/37/90 11/6/91 3/3/4
f 66/5/92 258/5/93 23/5/94 14/11/15
f 67/38/95 192/38/96 18/38/97 14/11/15
f 68/39/98 220/39/99 65/39/100 3/3/4
f 208/14/101 70/14/102 9/6/9 207/14/103
f 161/22/104 72/22/105 56/34/76 160/34/75
f 136/4/106 5/4/107 8/26/55 137/4/108
f 211/16/109 69/14/110 11/6/91 213/37/90
f 158/19/111 71/24/112 55/34/74 157/19/113
f 140/15/114 73/15/115 2/2/3 139/2/2
f 215/17/116 74/16/117 64/37/89 218/17/118
f 165/19/119 75/19/120 57/35/88 163/35/87
f 146/18/121 76/18/122 1/1/1 143/18/123
f 221/17/124 77/17/125 65/39/100 220/39/99
f 167/19/126 78/19/127 63/35/86 170/19/128
f 149/21/129 79/18/130 4/1/85 150/36/84
f 226/20/131 80/17/132 68/39/98 225/20/133
f 172/23/134 81/19/135 61/35/82 174/33/81
f 152/21/136 151/21/38 33/21/37 86/21/137
f 228/20/138 83/20/139 59/32/79 227/32/78
f 177/23/140 84/23/141 60/33/80 175/23/142
f 233/20/143 87/20/144 58/32/77 234/20/145
f 182/23/146 88/23/147 54/33/73 179/33/72
f 235/8/148 89/20/149 52/32/70 237/30/69
f 184/25/150 90/23/151 53/33/71 183/25/152
f 241/8/153 91/8/154 51/30/68 242/8/155
f 190/25/156 92/25/157 50/31/67 187/31/66
f 243/8/158 93/8/159 48/30/64 244/30/63
f 194/38/160 94/25/161 49/31/65 191/38/162
f 248/9/163 95/8/164 47/30/62 250/9/165
f 198/12/166 96/38/167 46/29/61 195/28/60
f 252/10/168 97/10/169 44/27/58 254/27/57
f 201/12/170 98/12/171 45/28/59 200/12/172
f 255/5/173 258/5/93 66/5/92 102/5/174
f 206/13/175 204/13/176 17/13/18 104/13/177
f 205/13/178 206/13/175 104/13/177 100/13/179
f 256/5/180 255/5/173 102/5/174 99/10/181
f 202/12/17 16/12/16 105/12/182 199/12/183
f 251/10/184 13/10/14 106/10/185 253/10/186
f 197/12/187 18/38/97 107/38/188 196/12/189
f 249/9/13 12/8/12 108/8/190 247/9/191
f 192/38/96 67/38/95 109/38/192 193/38/193
f 245/8/194 15/8/54 110/8/195 246/8/196
f 188/25/197 41/25/51 111/25/198 189/25/199
f 240/8/53 42/8/52 112/8/200 239/8/201
f 186/25/50 40/23/49 113/23/202 185/25/203
f 236/8/204 38/20/45 114/20/205 238/8/206
f 181/23/207 36/23/42 115/23/208 180/23/209
f 231/20/44 37/20/43 116/20/210 232/20/211
f 176/23/41 35/23/40 117/23/212 178/23/213
f 229/20/214 32/20/36 118/20/215 230/20/216
f 154/22/217 152/21/136 86/21/137 82/21/218
f 171/23/219 29/19/33 119/19/220 173/23/221
f 224/20/35 31/17/34 120/17/222 223/20/223
f 148/21/224 27/18/30 121/18/225 147/21/226
f 169/19/32 28/19/31 122/19/227 168/19/228
f 219/17/229 25/17/27 123/17/230 222/17/231
f 145/18/29 26/18/28 124/18/232 144/18/233
f 166/19/234 30/19/48 125/19/235 164/19/236
f 217/16/26 24/16/25 126/16/237 216/16/238
f 141/15/239 22/15/24 127/15/240 142/15/241
f 156/19/47 39/24/46 128/24/242 155/19/243
f 214/16/244 20/14/21 129/14/245 212/16/246
f 135/4/23 21/4/22 130/4/247 138/4/248
f 162/22/249 34/22/39 85/22/250 159/22/251
f 209/14/20 19/14/19 103/14/252 210/14/253
f 132/4/254 23/5/94 101/5/255 133/4/256
f 153/22/257 154/22/217 82/21/218 62/36/83
f 257/5/258 256/5/180 99/10/181 43/27/56
f 203/7/10 205/13/178 100/13/179 10/7/11
f 199/12/183 105/12/182 98/12/171 201/12/170
f 253/10/186 106/10/185 97/10/169 252/10/168
f 196/12/189 107/38/188 96/38/167 198/12/166
f 247/9/191 108/8/190 95/8/164 248/9/163
f 193/38/193 109/38/192 94/25/161 194/38/160
f 246/8/196 110/8/195 93/8/159 243/8/158
f 189/25/199 111/25/198 92/25/157 190/25/156
f 239/8/201 112/8/200 91/8/154 241/8/153
f 185/25/203 113/23/202 90/23/151 184/25/150
f 238/8/206 114/20/205 89/20/149 235/8/148
f 180/23/209 115/23/208 88/23/147 182/23/146
f 232/20/211 116/20/210 87/20/144 233/20/143
f 178/23/213 117/23/212 84/23/141 177/23/140
f 230/20/216 118/20/215 83/20/139 228/20/138
f 173/23/221 119/19/220 81/19/135 172/23/134
f 223/20/223 120/17/222 80/17/132 226/20/131
f 147/21/226 121/18/225 79/18/130 149/21/129
f 168/19/228 122/19/227 78/19/127 167/19/126
f 222/17/231 123/17/230 77/17/125 221/17/124
f 144/18/233 124/18/232 76/18/122 146/18/121
f 164/19/236 125/19/235 75/19/120 165/19/119
f 216/16/238 126/16/237 74/16/117 215/17/116
f 142/15/241 127/15/240 73/15/115 140/15/114
f 155/19/243 128/24/242 71/24/112 158/19/111
f 212/16/246 129/14/245 69/14/110 211/16/109
f 138/4/248 130/4/247 5/4/107 136/4/106
f 159/22/251 85/22/250 72/22/105 161/22/104
f 210/14/253 103/14/252 70/14/102 208/14/101
f 133/4/256 101/5/255 6/5/6 131/4/5
f 27/18/30 148/21/224 33/21/37 14/11/15
f 56/34/76 153/22/257 62/36/83 3/3/4
f 57/35/88 157/19/113 55/34/74 3/3/4
f 34/22/39 162/22/249 39/24/46 14/11/15
f 30/19/48 166/19/234 28/19/31 14/11/15
f 61/35/82 170/19/128 63/35/86 3/3/4
f 50/31/67 183/25/152 53/33/71 3/3/4
f 36/23/42 181/23/207 40/23/49 14/11/15
f 41/25/51 188/25/197 67/38/95 14/11/15
f 46/29/61 191/38/162 49/31/65 3/3/4
f 18/38/97 197/12/187 16/12/16 14/11/15
f 10/7/11 200/12/172 45/28/59 3/3/4
f 17/13/18 204/13/176 19/14/19 14/11/15
f 11/6/91 207/14/103 9/6/9 3/3/4
f 20/14/21 214/16/244 24/16/25 14/11/15
f 65/39/100 218/17/118 64/37/89 3/3/4
f 25/17/27 219/17/229 31/17/34 14/11/15
f 59/32/79 225/20/133 68/39/98 3/3/4
f 32/20/36 229/20/214 37/20/43 14/11/15
f 52/32/70 234/20/145 58/32/77 3/3/4
f 38/20/45 236/8/204 42/8/52 14/11/15
f 48/30/64 242/8/155 51/30/68 3/3/4
f 15/8/54 245/8/194 12/8/12 14/11/15
f 44/27/58 250/9/165 47/30/62 3/3/4
f 13/10/14 251/10/184 66/5/92 14/11/15
f 7/5/7 257/5/258 43/27/56 3/3/4
f 23/5/94 132/4/254 21/4/22 14/11/15
f 2/2/3 137/4/108 8/26/55 3/3/4
f 22/15/24 141/15/239 26/18/28 14/11/15
f 4/1/85 143/18/123 1/1/1 3/3/4
f 54/33/73 175/23/142 60/33/80 3/3/4
f 29/19/33 171/23/219 35/23/40 14/11/15
f 130/4/247 133/4/256 131/4/5 5/4/107
f 21/4/22 132/4/254 133/4/256 130/4/247
f 5/4/107 131/4/5 134/4/8 8/26/55
f 127/15/240 138/4/248 136/4/106 73/15/115
f 22/15/24 135/4/23 138/4/248 127/15/240
f 73/15/115 136/4/106 137/4/108 2/2/3
f 124/18/232 142/15/241 140/15/114 76/18/122
f 26/18/28 141/15/239 142/15/241 124/18/232
f 76/18/122 140/15/114 139/2/2 1/1/1
f 121/18/225 144/18/233 146/18/121 79/18/130
f 27/18/30 145/18/29 144/18/233 121/18/225
f 79/18/130 146/18/121 143/18/123 4/1/85
f 86/21/137 147/21/226 149/21/129 82/21/218
f 33/21/37 148/21/224 147/21/226 86/21/137
f 82/21/218 149/21/129 150/36/84 62/36/83
f 56/34/76 72/22/105 154/22/217 153/22/257
f 72/22/105 85/22/250 152/21/136 154/22/217
f 85/22/250 34/22/39 151/21/38 152/21/136
f 125/19/235 155/19/243 158/19/111 75/19/120
f 30/19/48 156/19/47 155/19/243 125/19/235
f 75/19/120 158/19/111 157/19/113 57/35/88
f 128/24/242 159/22/251 161/22/104 71/24/112
f 39/24/46 162/22/249 159/22/251 128/24/242
f 71/24/112 161/22/104 160/34/75 55/34/74
f 122/19/227 164/19/236 165/19/119 78/19/127
f 28/19/31 166/19/234 164/19/236 122/19/227
f 78/19/127 165/19/119 163/35/87 63/35/86
f 119/19/220 168/19/228 167/19/126 81/19/135
f 29/19/33 169/19/32 168/19/228 119/19/220
f 81/19/135 167/19/126 170/19/128 61/35/82
f 117/23/212 173/23/221 172/23/134 84/23/141
f 35/23/40 171/23/219 173/23/221 117/23/212
f 84/23/141 172/23/134 174/33/81 60/33/80
f 115/23/208 178/23/213 177/23/140 88/23/147
f 36/23/42 176/23/41 178/23/213 115/23/208
f 88/23/147 177/23/140 175/23/142 54/33/73
f 113/23/202 180/23/209 182/23/146 90/23/151
f 40/23/49 181/23/207 180/23/209 113/23/202
f 90/23/151 182/23/146 179/33/72 53/33/71
f 111/25/198 185/25/203 184/25/150 92/25/157
f 41/25/51 186/25/50 185/25/203 111/25/198
f 92/25/157 184/25/150 183/25/152 50/31/67
f 109/38/192 189/25/199 190/25/156 94/25/161
f 67/38/95 188/25/197 189/25/199 109/38/192
f 94/25/161 190/25/156 187/31/66 49/31/65
f 107/38/188 193/38/193 194/38/160 96/38/167
f 18/38/97 192/38/96 193/38/193 107/38/188
f 96/38/167 194/38/160 191/38/162 46/29/61
f 105/12/182 196/12/189 198/12/166 98/12/171
f 16/12/16 197/12/187 196/12/189 105/12/182
f 98/12/171 198/12/166 195/28/60 45/28/59
f 104/13/177 199/12/183 201/12/170 100/13/179
f 17/13/18 202/12/17 199/12/183 104/13/177
f 100/13/179 201/12/170 200/12/172 10/7/11
f 9/6/9 70/14/102 205/13/178 203/7/10
f 70/14/102 103/14/252 206/13/175 205/13/178
f 103/14/252 19/14/19 204/13/176 206/13/175
f 129/14/245 210/14/253 208/14/101 69/14/110
f 20/14/21 209/14/20 210/14/253 129/14/245
f 69/14/110 208/14/101 207/14/103 11/6/91
f 126/16/237 212/16/246 211/16/109 74/16/117
f 24/16/25 214/16/244 212/16/246 126/16/237
f 74/16/117 211/16/109 213/37/90 64/37/89
f 123/17/230 216/16/238 215/17/116 77/17/125
f 25/17/27 217/16/26 216/16/238 123/17/230
f 77/17/125 215/17/116 218/17/118 65/39/100
f 120/17/222 222/17/231 221/17/124 80/17/132
f 31/17/34 219/17/229 222/17/231 120/17/222
f 80/17/132 221/17/124 220/39/99 68/39/98
f 118/20/215 223/20/223 226/20/131 83/20/139
f 32/20/36 224/20/35 223/20/223 118/20/215
f 83/20/139 226/20/131 225/20/133 59/32/79
f 116/20/210 230/20/216 228/20/138 87/20/144
f 37/20/43 229/20/214 230/20/216 116/20/210
f 87/20/144 228/20/138 227/32/78 58/32/77
f 114/20/205 232/20/211 233/20/143 89/20/149
f 38/20/45 231/20/44 232/20/211 114/20/205
f 89/20/149 233/20/143 234/20/145 52/32/70
f 112/8/200 238/8/206 235/8/148 91/8/154
f 42/8/52 236/8/204 238/8/206 112/8/200
f 91/8/154 235/8/148 237/30/69 51/30/68
f 110/8/195 239/8/201 241/8/153 93/8/159
f 15/8/54 240/8/53 239/8/201 110/8/195
f 93/8/159 241/8/153 242/8/155 48/30/64
f 108/8/190 246/8/196 243/8/158 95/8/164
f 12/8/12 245/8/194 246/8/196 108/8/190
f 95/8/164 243/8/158 244/30/63 47/30/62
f 106/10/185 247/9/191 248/9/163 97/10/169
f 13/10/14 249/9/13 247/9/191 106/10/185
f 97/10/169 248/9/163 250/9/165 44/27/58
f 102/5/174 253/10/186 252/10/168 99/10/181
f 66/5/92 251/10/184 253/10/186 102/5/174
f 99/10/181 252/10/168 254/27/57 43/27/56
f 7/5/7 6/5/6 256/5/180 257/5/258
f 6/5/6 101/5/255 255/5/173 256/5/180
f 101/5/255 23/5/94 258/5/93 255/5/173
