# Blender v2.82 (sub 7) OBJ File: 'BASE_80.blend'
# www.blender.org
mtllib BASE_80.mtl
o Circle
v 0.000000 0.000000 -1.568000
v -0.305902 0.000000 -1.537871
v -0.600048 0.000000 -1.448643
v -0.871134 0.000000 -1.303744
v -1.108743 0.000000 -1.108743
v -1.303744 0.000000 -0.871134
v -1.448643 0.000000 -0.600048
v -1.537871 0.000000 -0.305902
v -1.568000 0.000000 -0.000000
v -1.537871 0.000000 0.305901
v -1.448643 0.000000 0.600047
v -1.303744 0.000000 0.871134
v -1.108743 0.000000 1.108743
v -0.871134 0.000000 1.303744
v -0.600047 0.000000 1.448643
v -0.305901 0.000000 1.537871
v 0.000001 0.000000 1.568000
v 0.305902 0.000000 1.537871
v 0.600048 0.000000 1.448643
v 0.871135 0.000000 1.303744
v 1.108744 0.000000 1.108743
v 1.303745 0.000000 0.871133
v 1.448643 0.000000 0.600046
v 1.537871 0.000000 0.305900
v 1.568000 0.000000 -0.000002
v 1.537871 0.000000 -0.305903
v 1.448642 0.000000 -0.600049
v 1.303743 0.000000 -0.871136
v 1.108742 0.000000 -1.108745
v 0.871132 0.000000 -1.303745
v 0.600045 0.000000 -1.448644
v 0.305899 0.000000 -1.537872
v -0.000000 0.127400 -1.517117
v -0.295975 0.127400 -1.487966
v -0.580576 0.127400 -1.401633
v -0.842865 0.127400 -1.261437
v -1.072764 0.127400 -1.072764
v -1.261437 0.127400 -0.842865
v -1.401633 0.127400 -0.580576
v -1.487966 0.127400 -0.295975
v -1.517117 0.127400 -0.000000
v -1.487966 0.127400 0.295975
v -1.401633 0.127400 0.580575
v -1.261437 0.127400 0.842865
v -1.072764 0.127400 1.072764
v -0.842865 0.127400 1.261437
v -0.580575 0.127400 1.401633
v -0.295974 0.127400 1.487966
v 0.000000 0.127400 1.517117
v 0.295975 0.127400 1.487966
v 0.580576 0.127400 1.401633
v 0.842866 0.127400 1.261436
v 1.072764 0.127400 1.072763
v 1.261437 0.127400 0.842864
v 1.401634 0.127400 0.580574
v 1.487966 0.127400 0.295974
v 1.517117 0.127400 -0.000001
v 1.487966 0.127400 -0.295976
v 1.401633 0.127400 -0.580577
v 1.261436 0.127400 -0.842867
v 1.072762 0.127400 -1.072765
v 0.842863 0.127400 -1.261438
v 0.580573 0.127400 -1.401634
v 0.295973 0.127400 -1.487966
v -0.000000 0.127400 -0.000000
v -0.000000 0.000000 -0.000000
v 1.404390 0.119927 -0.581719
v -0.844523 0.119927 1.263918
v -0.000000 0.119927 -1.520102
v 1.263917 0.119927 -0.844525
v -0.581717 0.119927 1.404391
v -0.296557 0.119927 -1.490893
v 1.074873 0.119927 -1.074875
v -0.296557 0.119927 1.490893
v -0.581718 0.119927 -1.404391
v 0.844522 0.119927 -1.263920
v 0.000000 0.119927 1.520102
v -0.844523 0.119927 -1.263918
v 0.581716 0.119927 -1.404392
v 0.296558 0.119927 1.490893
v -1.074874 0.119927 -1.074874
v 0.296555 0.119927 -1.490894
v 0.581718 0.119927 1.404391
v -1.263918 0.119927 -0.844523
v 0.844524 0.119927 1.263918
v -1.404391 0.119927 -0.581718
v 1.074875 0.119927 1.074874
v -1.490893 0.119927 -0.296557
v 1.263919 0.119927 0.844522
v -1.520102 0.119927 -0.000000
v 1.404391 0.119927 0.581717
v -1.490893 0.119927 0.296557
v 1.490894 0.119927 0.296556
v -1.404391 0.119927 0.581717
v 1.520102 0.119927 -0.000001
v -1.263918 0.119927 0.844523
v 1.490893 0.119927 -0.296559
v -1.074874 0.119927 1.074874
v 1.445008 0.009848 -0.598544
v -0.868949 0.009848 1.300474
v -0.000000 0.009848 -1.564067
v 1.300473 0.009848 -0.868950
v -0.598542 0.009848 1.445009
v -0.305134 0.009848 -1.534013
v 1.105961 0.009848 -1.105963
v -0.305134 0.009848 1.534014
v -0.598542 0.009848 -1.445009
v 0.868947 0.009848 -1.300475
v 0.000001 0.009848 1.564067
v -0.868949 0.009848 -1.300474
v 0.598540 0.009848 -1.445010
v 0.305135 0.009848 1.534013
v -1.105962 0.009848 -1.105962
v 0.305132 0.009848 -1.534014
v 0.598543 0.009848 1.445009
v -1.300474 0.009848 -0.868949
v 0.868950 0.009848 1.300473
v -1.445009 0.009848 -0.598542
v 1.105963 0.009848 1.105961
v -1.534013 0.009848 -0.305134
v 1.300474 0.009848 0.868948
v -1.564067 0.009848 -0.000000
v 1.445010 0.009848 0.598541
v -1.534014 0.009848 0.305134
v 1.534014 0.009848 0.305133
v -1.445009 0.009848 0.598542
v 1.564067 0.009848 -0.000002
v -1.300474 0.009848 0.868949
v 1.534013 0.009848 -0.305136
v -1.105962 0.009848 1.105962
vt 0.000000 0.000000
vt 0.000000 0.000000
vt 0.000000 0.000000
vt 0.000000 0.000000
vt 0.000000 0.000000
vt 0.000000 0.000000
vt 0.000000 0.000000
vt 0.000000 0.000000
vt 0.000000 0.000000
vt 0.000000 0.000000
vt 0.000000 0.000000
vt 0.000000 0.000000
vt 0.000000 0.000000
vt 0.000000 0.000000
vt 0.000000 0.000000
vt 0.000000 0.000000
vt 0.000000 0.000000
vt 0.000000 0.000000
vt 0.000000 0.000000
vt 0.000000 0.000000
vt 0.000000 0.000000
vt 0.000000 0.000000
vt 0.000000 0.000000
vt 0.000000 0.000000
vt 0.000000 0.000000
vt 0.000000 0.000000
vt 0.000000 0.000000
vt 0.000000 0.000000
vt 0.000000 0.000000
vt 0.000000 0.000000
vt 0.000000 0.000000
vt 0.000000 0.000000
vt 0.000000 0.000000
vt 0.000000 0.000000
vt 0.000000 0.000000
vt 0.000000 0.000000
vt 0.000000 0.000000
vt 0.000000 0.000000
vt 0.000000 0.000000
vt 0.000000 0.000000
vt 0.000000 0.000000
vt 0.000000 0.000000
vt 0.000000 0.000000
vt 0.000000 0.000000
vt 0.000000 0.000000
vt 0.000000 0.000000
vt 0.000000 0.000000
vt 0.000000 0.000000
vt 0.000000 0.000000
vt 0.000000 0.000000
vt 0.000000 0.000000
vt 0.000000 0.000000
vt 0.000000 0.000000
vt 0.000000 0.000000
vt 0.000000 0.000000
vt 0.000000 0.000000
vt 0.000000 0.000000
vt 0.000000 0.000000
vt 0.000000 0.000000
vt 0.000000 0.000000
vt 0.000000 0.000000
vt 0.000000 0.000000
vt 0.000000 0.000000
vt 0.000000 0.000000
vt 0.000000 0.000000
vt 0.000000 0.000000
vt 0.000000 0.000000
vt 0.000000 0.000000
vt 0.000000 0.000000
vt 0.000000 0.000000
vt 0.000000 0.000000
vt 0.000000 0.000000
vt 0.000000 0.000000
vt 0.000000 0.000000
vt 0.000000 0.000000
vt 0.000000 0.000000
vt 0.000000 0.000000
vt 0.000000 0.000000
vt 0.000000 0.000000
vt 0.000000 0.000000
vt 0.000000 0.000000
vt 0.000000 0.000000
vt 0.000000 0.000000
vt 0.000000 0.000000
vt 0.000000 0.000000
vt 0.000000 0.000000
vt 0.000000 0.000000
vt 0.000000 0.000000
vt 0.000000 0.000000
vt 0.000000 0.000000
vt 0.000000 0.000000
vt 0.000000 0.000000
vt 0.000000 0.000000
vt 0.000000 0.000000
vt 0.000000 0.000000
vt 0.000000 0.000000
vt 0.000000 0.000000
vt 0.000000 0.000000
vt 0.000000 0.000000
vt 0.000000 0.000000
vt 0.000000 0.000000
vt 0.000000 0.000000
vt 0.000000 0.000000
vt 0.000000 0.000000
vt 0.000000 0.000000
vt 0.000000 0.000000
vt 0.000000 0.000000
vt 0.000000 0.000000
vt 0.000000 0.000000
vt 0.000000 0.000000
vt 0.000000 0.000000
vt 0.000000 0.000000
vt 0.000000 0.000000
vt 0.000000 0.000000
vt 0.000000 0.000000
vt 0.000000 0.000000
vt 0.000000 0.000000
vt 0.000000 0.000000
vt 0.000000 0.000000
vt 0.000000 0.000000
vt 0.000000 0.000000
vt 0.000000 0.000000
vt 0.000000 0.000000
vt 0.000000 0.000000
vt 0.000000 0.000000
vt 0.000000 0.000000
vt 0.000000 0.000000
vt 0.000000 0.000000
vt 0.000000 0.000000
vt 0.000000 0.000000
vn 0.4683 -0.5380 -0.7008
vn 0.5960 -0.5380 -0.5960
vn 0.0000 -1.0000 0.0000
vn 0.3226 -0.5380 -0.7787
vn 0.7721 0.3709 -0.5159
vn 0.8580 0.3709 -0.3554
vn 0.7787 -0.5380 -0.3226
vn 0.7008 -0.5380 -0.4683
vn -0.4683 -0.5380 0.7008
vn -0.5960 -0.5380 0.5960
vn -0.3226 -0.5380 0.7787
vn 0.5727 0.8118 0.1139
vn 0.5839 0.8118 0.0000
vn 0.0000 1.0000 0.0000
vn 0.5395 0.8118 0.2235
vn -0.4855 0.8118 0.3244
vn -0.4129 0.8118 0.4129
vn -0.5395 0.8118 0.2235
vn -0.3244 0.8118 0.4855
vn -0.2235 0.8118 0.5395
vn 0.4855 0.8118 -0.3244
vn 0.4129 0.8118 -0.4129
vn 0.5395 0.8118 -0.2235
vn -0.1139 0.8118 0.5727
vn 0.0000 0.8118 0.5839
vn 0.3244 0.8118 -0.4855
vn 0.2235 0.8118 -0.5395
vn -0.3244 0.8118 -0.4855
vn -0.4129 0.8118 -0.4129
vn -0.2235 0.8118 -0.5395
vn 0.1139 0.8118 0.5727
vn 0.2235 0.8118 0.5395
vn 0.1139 0.8118 -0.5727
vn 0.0000 0.8118 -0.5839
vn -0.4855 0.8118 -0.3244
vn -0.5395 0.8118 -0.2235
vn 0.3244 0.8118 0.4855
vn 0.4129 0.8118 0.4129
vn -0.1139 0.8118 -0.5727
vn -0.5727 0.8118 -0.1139
vn -0.5839 0.8118 0.0000
vn 0.4855 0.8118 0.3244
vn 0.8267 -0.5380 -0.1644
vn 0.8429 -0.5380 0.0000
vn -0.7008 -0.5380 0.4683
vn -0.7787 -0.5380 0.3226
vn 0.8267 -0.5380 0.1644
vn 0.7787 -0.5380 0.3226
vn -0.8267 -0.5380 0.1644
vn -0.8429 -0.5380 0.0000
vn 0.7008 -0.5380 0.4683
vn 0.5960 -0.5380 0.5960
vn -0.8267 -0.5380 -0.1644
vn -0.7787 -0.5380 -0.3226
vn -0.1644 -0.5380 -0.8267
vn 0.0000 -0.5380 -0.8429
vn -0.3226 -0.5380 -0.7787
vn 0.4683 -0.5380 0.7008
vn 0.3226 -0.5380 0.7787
vn -0.7008 -0.5380 -0.4683
vn -0.5960 -0.5380 -0.5960
vn 0.1644 -0.5380 -0.8267
vn -0.4683 -0.5380 -0.7008
vn -0.1644 -0.5380 0.8267
vn 0.0000 -0.5380 0.8429
vn 0.5727 0.8118 -0.1139
vn -0.5727 0.8118 0.1139
vn 0.1644 -0.5380 0.8267
vn -0.3554 0.3709 0.8580
vn -0.5159 0.3709 0.7721
vn -0.1812 0.3709 -0.9108
vn 0.0000 0.3709 -0.9286
vn 0.6567 0.3709 -0.6567
vn -0.1812 0.3709 0.9108
vn -0.3554 0.3709 -0.8580
vn 0.5159 0.3709 -0.7721
vn 0.0000 0.3709 0.9286
vn -0.5159 0.3709 -0.7721
vn 0.3554 0.3709 -0.8580
vn 0.1812 0.3709 0.9108
vn -0.6567 0.3709 -0.6567
vn 0.1812 0.3709 -0.9108
vn 0.3554 0.3709 0.8580
vn -0.7721 0.3709 -0.5159
vn 0.5159 0.3709 0.7721
vn -0.8580 0.3709 -0.3554
vn 0.6567 0.3709 0.6567
vn -0.9108 0.3709 -0.1812
vn 0.7721 0.3709 0.5159
vn -0.9286 0.3709 0.0000
vn 0.8580 0.3709 0.3554
vn -0.9108 0.3709 0.1812
vn 0.9108 0.3709 0.1812
vn -0.8580 0.3709 0.3554
vn 0.9286 0.3709 0.0000
vn -0.7721 0.3709 0.5159
vn 0.9108 0.3709 -0.1812
vn -0.6567 0.3709 0.6567
vn 0.6566 0.3709 -0.6567
usemtl None
s 1
f 30/1/1 29/2/2 66/3/3 31/4/4
f 102/5/5 99/6/6 27/7/7 28/8/8
f 14/9/9 13/10/10 66/3/3 15/11/11
f 56/12/12 57/13/13 65/14/14 55/15/15
f 44/16/16 45/17/17 65/14/14 43/18/18
f 46/19/19 47/20/20 65/14/14 45/17/17
f 60/21/21 61/22/22 65/14/14 59/23/23
f 48/24/24 49/25/25 65/14/14 47/20/20
f 62/26/26 63/27/27 65/14/14 61/22/22
f 36/28/28 37/29/29 65/14/14 35/30/30
f 50/31/31 51/32/32 65/14/14 49/25/25
f 64/33/33 33/34/34 65/14/14 63/27/27
f 38/35/35 39/36/36 65/14/14 37/29/29
f 52/37/37 53/38/38 65/14/14 51/32/32
f 34/39/39 35/30/30 65/14/14 33/34/34
f 39/36/36 40/40/40 41/41/41 65/14/14
f 53/38/38 54/42/42 55/15/15 65/14/14
f 29/2/2 28/8/8 27/7/7 66/3/3
f 27/7/7 26/43/43 25/44/44 66/3/3
f 12/45/45 11/46/46 66/3/3 13/10/10
f 24/47/47 23/48/48 66/3/3 25/44/44
f 10/49/49 9/50/50 66/3/3 11/46/46
f 22/51/51 21/52/52 66/3/3 23/48/48
f 8/53/53 7/54/54 66/3/3 9/50/50
f 2/55/55 1/56/56 66/3/3 3/57/57
f 20/58/58 19/59/59 66/3/3 21/52/52
f 6/60/60 5/61/61 66/3/3 7/54/54
f 32/62/62 31/4/4 66/3/3 1/56/56
f 4/63/63 3/57/57 66/3/3 5/61/61
f 16/64/64 15/11/11 66/3/3 17/65/65
f 58/66/66 59/23/23 65/14/14 57/13/13
f 42/67/67 43/18/18 65/14/14 41/41/41
f 18/68/68 17/65/65 66/3/3 19/59/59
f 103/69/69 100/70/70 14/9/9 15/11/11
f 104/71/71 101/72/72 1/56/56 2/55/55
f 105/73/73 102/5/5 28/8/8 29/2/2
f 106/74/74 103/69/69 15/11/11 16/64/64
f 107/75/75 104/71/71 2/55/55 3/57/57
f 108/76/76 105/73/73 29/2/2 30/1/1
f 109/77/77 106/74/74 16/64/64 17/65/65
f 110/78/78 107/75/75 3/57/57 4/63/63
f 111/79/79 108/76/76 30/1/1 31/4/4
f 112/80/80 109/77/77 17/65/65 18/68/68
f 113/81/81 110/78/78 4/63/63 5/61/61
f 114/82/82 111/79/79 31/4/4 32/62/62
f 115/83/83 112/80/80 18/68/68 19/59/59
f 116/84/84 113/81/81 5/61/61 6/60/60
f 69/85/72 33/34/34 64/33/33 82/86/82
f 117/87/85 115/83/83 19/59/59 20/58/58
f 118/88/86 116/84/84 6/60/60 7/54/54
f 119/89/87 117/87/85 20/58/58 21/52/52
f 120/90/88 118/88/86 7/54/54 8/53/53
f 121/91/89 119/89/87 21/52/52 22/51/51
f 122/92/90 120/90/88 8/53/53 9/50/50
f 123/93/91 121/91/89 22/51/51 23/48/48
f 124/94/92 122/92/90 9/50/50 10/49/49
f 125/95/93 123/93/91 23/48/48 24/47/47
f 126/96/94 124/94/92 10/49/49 11/46/46
f 127/97/95 125/95/93 24/47/47 25/44/44
f 128/98/96 126/96/94 11/46/46 12/45/45
f 129/99/97 127/97/95 25/44/44 26/43/43
f 130/100/98 128/98/96 12/45/45 13/10/10
f 67/101/6 59/23/23 58/66/66 97/102/97
f 68/103/70 46/19/19 45/17/17 98/104/98
f 100/70/70 68/103/70 98/104/98 130/100/98
f 99/6/6 67/101/6 97/102/97 129/99/97
f 45/17/17 44/16/16 96/105/96 98/104/98
f 58/66/66 57/13/13 95/106/95 97/102/97
f 44/16/16 43/18/18 94/107/94 96/105/96
f 57/13/13 56/12/12 93/108/93 95/106/95
f 43/18/18 42/67/67 92/109/92 94/107/94
f 56/12/12 55/15/15 91/110/91 93/108/93
f 42/67/67 41/41/41 90/111/90 92/109/92
f 55/15/15 54/42/42 89/112/89 91/110/91
f 41/41/41 40/40/40 88/113/88 90/111/90
f 54/42/42 53/38/38 87/114/87 89/112/89
f 40/40/40 39/36/36 86/115/86 88/113/88
f 53/38/38 52/37/37 85/116/85 87/114/87
f 39/36/36 38/35/35 84/117/84 86/115/86
f 52/37/37 51/32/32 83/118/83 85/116/85
f 101/72/72 69/85/72 82/86/82 114/82/82
f 38/35/35 37/29/29 81/119/81 84/117/84
f 51/32/32 50/31/31 80/120/80 83/118/83
f 64/33/33 63/27/27 79/121/79 82/86/82
f 37/29/29 36/28/28 78/122/78 81/119/81
f 50/31/31 49/25/25 77/123/77 80/120/80
f 63/27/27 62/26/26 76/124/76 79/121/79
f 36/28/28 35/30/30 75/125/75 78/122/78
f 49/25/25 48/24/24 74/126/74 77/123/77
f 62/26/26 61/22/22 73/127/99 76/124/76
f 35/30/30 34/39/39 72/128/71 75/125/75
f 48/24/24 47/20/20 71/129/69 74/126/74
f 61/22/22 60/21/21 70/130/5 73/127/99
f 34/39/39 33/34/34 69/85/72 72/128/71
f 47/20/20 46/19/19 68/103/70 71/129/69
f 60/21/21 59/23/23 67/101/6 70/130/5
f 1/56/56 101/72/72 114/82/82 32/62/62
f 27/7/7 99/6/6 129/99/97 26/43/43
f 14/9/9 100/70/70 130/100/98 13/10/10
f 98/104/98 96/105/96 128/98/96 130/100/98
f 97/102/97 95/106/95 127/97/95 129/99/97
f 96/105/96 94/107/94 126/96/94 128/98/96
f 95/106/95 93/108/93 125/95/93 127/97/95
f 94/107/94 92/109/92 124/94/92 126/96/94
f 93/108/93 91/110/91 123/93/91 125/95/93
f 92/109/92 90/111/90 122/92/90 124/94/92
f 91/110/91 89/112/89 121/91/89 123/93/91
f 90/111/90 88/113/88 120/90/88 122/92/90
f 89/112/89 87/114/87 119/89/87 121/91/89
f 88/113/88 86/115/86 118/88/86 120/90/88
f 87/114/87 85/116/85 117/87/85 119/89/87
f 86/115/86 84/117/84 116/84/84 118/88/86
f 85/116/85 83/118/83 115/83/83 117/87/85
f 84/117/84 81/119/81 113/81/81 116/84/84
f 83/118/83 80/120/80 112/80/80 115/83/83
f 82/86/82 79/121/79 111/79/79 114/82/82
f 81/119/81 78/122/78 110/78/78 113/81/81
f 80/120/80 77/123/77 109/77/77 112/80/80
f 79/121/79 76/124/76 108/76/76 111/79/79
f 78/122/78 75/125/75 107/75/75 110/78/78
f 77/123/77 74/126/74 106/74/74 109/77/77
f 76/124/76 73/127/99 105/73/73 108/76/76
f 75/125/75 72/128/71 104/71/71 107/75/75
f 74/126/74 71/129/69 103/69/69 106/74/74
f 73/127/99 70/130/5 102/5/5 105/73/73
f 72/128/71 69/85/72 101/72/72 104/71/71
f 71/129/69 68/103/70 100/70/70 103/69/69
f 70/130/5 67/101/6 99/6/6 102/5/5
