# Blender 4.1.1
# www.blender.org
mtllib 100mm.mtl
o 100mm
v 1.930120 0.000015 -0.384092
v 1.967932 0.000015 -0.000188
v 0.000102 -0.000000 -0.000187
v 1.818139 0.000015 -0.753244
v 1.927739 0.009817 0.383241
v 1.815898 0.009816 0.751938
v 1.818140 0.000015 0.752869
v 1.930120 0.000015 0.383717
v -1.929917 0.000014 0.383718
v -1.967728 0.000015 -0.000187
v -1.817936 0.000014 0.752869
v 1.061480 0.127601 1.588276
v 1.350979 0.127601 1.350690
v 0.000102 0.127609 -0.000187
v 0.731192 0.127601 1.764819
v -1.873619 0.127601 -0.372893
v -1.910327 0.127601 -0.000187
v -1.764904 0.127601 -0.731276
v -1.873619 0.127601 0.372519
v -1.764904 0.127601 0.730903
v 1.873822 0.127602 0.372519
v 1.910530 0.127602 -0.000188
v 1.765108 0.127602 0.730902
v -1.588361 0.127601 1.061190
v -1.350775 0.127601 1.350690
v 1.873822 0.127602 -0.372894
v 1.765107 0.127602 -0.731277
v 0.372808 0.127602 -1.873907
v 0.000102 0.127602 -1.910616
v 0.731191 0.127602 -1.765193
v -1.061275 0.127601 1.588277
v -0.730987 0.127601 1.764819
v 1.588565 0.127602 -1.061564
v 1.350978 0.127602 -1.351065
v -0.372604 0.127602 -1.873907
v -0.730988 0.127602 -1.765193
v -0.372604 0.127601 1.873533
v 0.000102 0.127601 1.910241
v 1.061479 0.127602 -1.588651
v -1.061276 0.127601 -1.588650
v -1.350775 0.127601 -1.351064
v 0.372808 0.127601 1.873533
v 1.636293 0.000015 1.093081
v 1.391568 0.000015 1.391278
v -1.929917 0.000015 -0.384091
v -1.817936 0.000015 -0.753243
v 1.093370 0.000015 1.636003
v 0.753158 0.000015 1.817851
v -1.636090 0.000015 -1.093455
v -1.391365 0.000015 -1.391653
v 0.384007 0.000015 1.929832
v 0.000102 0.000015 1.967643
v -1.093166 0.000015 -1.636378
v -0.752954 0.000015 -1.818225
v 1.093369 0.000015 -1.636378
v 1.391568 0.000015 -1.391653
v 0.753158 0.000015 -1.818225
v -0.383802 0.000014 1.929832
v -0.752954 0.000014 1.817851
v -0.383804 0.000015 -1.930206
v 0.000102 0.000015 -1.968017
v 1.636292 0.000015 -1.093455
v 0.384006 0.000015 -1.930206
v -1.636089 0.000014 1.093081
v -1.391364 0.000014 1.391279
v 1.588565 0.127601 1.061190
v -1.588362 0.127601 -1.061564
v -1.093166 0.000014 1.636004
v -1.815693 0.009816 0.751941
v -1.927535 0.009816 0.383245
v 1.092021 0.009817 -1.634359
v 1.389850 0.009817 -1.389937
v 1.965504 0.009817 -0.000190
v -1.634069 0.009816 1.091733
v 0.752228 0.009817 -1.815982
v 1.927739 0.009817 -0.383621
v -1.389646 0.009816 1.389563
v 0.383532 0.009817 -1.927825
v 1.815896 0.009817 -0.752317
v -1.091816 0.009816 1.633986
v 0.000101 0.009817 -1.965589
v 1.634272 0.009817 -1.092109
v -0.752024 0.009816 1.815608
v -0.383330 0.009817 -1.927824
v 1.356124 0.120115 -1.356210
v 1.594614 0.120115 -1.065610
v -0.383328 0.009816 1.927451
v -0.752026 0.009816 -1.815981
v 0.000103 0.009816 1.965214
v -1.091818 0.009816 -1.634358
v 0.383534 0.009816 1.927450
v -1.389649 0.009816 -1.389936
v 0.752230 0.009816 1.815607
v -1.634071 0.009816 -1.092105
v 1.092022 0.009816 1.633984
v -1.815693 0.009816 -0.752314
v 1.389852 0.009816 1.389561
v -1.927536 0.009816 -0.383617
v 1.634275 0.009816 1.091730
v -1.965300 0.009816 -0.000186
v 1.771832 0.120114 0.733685
v 1.594616 0.120114 1.065231
v -1.880756 0.120114 0.373940
v -1.917604 0.120114 -0.000186
v -1.880756 0.120114 -0.374312
v 1.356126 0.120114 1.355834
v -1.771627 0.120114 -0.734061
v 1.065524 0.120114 1.594325
v -1.594413 0.120114 -1.065607
v 0.733977 0.120114 1.771541
v -1.355922 0.120114 -1.356209
v 0.374229 0.120114 1.880670
v -1.065319 0.120114 -1.594700
v 0.000103 0.120114 1.917519
v -0.733773 0.120114 -1.771915
v -0.374022 0.120114 1.880670
v -0.374025 0.120114 -1.881044
v -0.733771 0.120114 1.771542
v 0.000101 0.120115 -1.917893
v -1.065317 0.120114 1.594328
v 1.771829 0.120115 -0.734064
v 0.374227 0.120115 -1.881044
v -1.355920 0.120114 1.355837
v 1.880959 0.120115 -0.374316
v 0.733975 0.120115 -1.771916
v -1.594412 0.120114 1.065234
v 1.917807 0.120115 -0.000190
v 1.065521 0.120115 -1.594702
v -1.771627 0.120114 0.733688
v 1.880959 0.120114 0.373936
v 1.880875 0.009840 0.570337
v 1.828268 0.127620 0.554381
v 1.835232 0.120096 0.556491
v 1.883198 -0.000009 0.571044
v 1.901331 0.127620 0.187067
v 1.956040 0.009840 0.192453
v 1.958457 -0.000009 0.192693
v 1.908573 0.120096 0.187778
v 1.958456 -0.000008 -0.193069
v 1.956040 0.009840 -0.192833
v 1.901331 0.127620 -0.187443
v 1.908573 0.120096 -0.188158
v 1.883198 -0.000008 -0.571418
v 1.835230 0.120096 -0.556871
v 1.828268 0.127620 -0.554756
v 1.880874 0.009840 -0.570716
v 1.691365 0.120097 -0.904190
v 1.684949 0.127620 -0.900758
v 1.733430 0.009841 -0.926674
v 1.735572 -0.000008 -0.927817
v 1.476883 0.127620 -1.212150
v 1.482507 0.120097 -1.216768
v 1.521255 -0.000008 -1.248566
v 1.519377 0.009841 -1.247027
v 0.904102 0.120097 -1.691453
v 0.900671 0.127620 -1.685035
v 0.927730 -0.000008 -1.735659
v 0.926586 0.009841 -1.733518
v 1.216681 0.120097 -1.482594
v 1.248480 -0.000008 -1.521341
v 1.246939 0.009841 -1.519464
v 1.212065 0.127620 -1.476969
v 0.571332 -0.000008 -1.883283
v 0.556782 0.120096 -1.835317
v 0.570627 0.009840 -1.880960
v 0.554669 0.127620 -1.828354
v 0.192744 0.009840 -1.956125
v 0.188068 0.120096 -1.908658
v 0.187356 0.127620 -1.901417
v 0.192983 -0.000008 -1.958542
v -0.187153 0.127620 -1.901416
v -0.192542 0.009840 -1.956125
v -0.187867 0.120096 -1.908658
v -0.192780 -0.000009 -1.958542
v -0.571130 -0.000009 -1.883283
v -0.554467 0.127620 -1.828353
v -0.570426 0.009840 -1.880959
v -0.556580 0.120096 -1.835317
v -0.927527 -0.000009 -1.735658
v -0.903899 0.120096 -1.691452
v -0.900468 0.127620 -1.685034
v -0.926384 0.009840 -1.733517
v -1.248277 -0.000009 -1.521340
v -1.246737 0.009840 -1.519462
v -1.216478 0.120096 -1.482593
v -1.211861 0.127619 -1.476968
v -1.521052 -0.000009 -1.248565
v -1.476680 0.127619 -1.212150
v -1.482305 0.120096 -1.216766
v -1.519176 0.009840 -1.247024
v -1.735370 -0.000009 -0.927815
v -1.684746 0.127619 -0.900756
v -1.691164 0.120096 -0.904187
v -1.733229 0.009840 -0.926671
v -1.882994 -0.000009 -0.571418
v -1.835029 0.120096 -0.556867
v -1.828065 0.127619 -0.554755
v -1.880671 0.009840 -0.570712
v -1.908370 0.120096 -0.188154
v -1.958253 -0.000009 -0.193068
v -1.955837 0.009840 -0.192829
v -1.901128 0.127619 -0.187441
v -1.958253 -0.000009 0.192695
v -1.901128 0.127619 0.187068
v -1.955836 0.009840 0.192457
v -1.908369 0.120096 0.187782
v -1.882994 -0.000009 0.571044
v -1.880671 0.009840 0.570341
v -1.828065 0.127619 0.554381
v -1.835027 0.120096 0.556495
v -1.733228 0.009840 0.926299
v -1.691163 0.120096 0.903814
v -1.735370 -0.000009 0.927442
v -1.684746 0.127619 0.900383
v -1.519174 0.009840 1.246652
v -1.482304 0.120096 1.216393
v -1.476680 0.127619 1.211776
v -1.521052 -0.000009 1.248192
v -1.211861 0.127619 1.476595
v -1.248276 -0.000009 1.520967
v -1.246735 0.009840 1.519090
v -1.216476 0.120096 1.482220
v -0.903897 0.120096 1.691079
v -0.900468 0.127619 1.684661
v -0.927527 -0.000009 1.735284
v -0.926381 0.009840 1.733143
v -0.571129 -0.000009 1.882909
v -0.570423 0.009840 1.880586
v -0.554466 0.127619 1.827980
v -0.556578 0.120096 1.834943
v -0.187153 0.127619 1.901042
v -0.187865 0.120096 1.908284
v -0.192540 0.009840 1.955751
v -0.192779 -0.000009 1.958167
v 0.192747 0.009840 1.955751
v 0.187357 0.127619 1.901042
v 0.192983 -0.000009 1.958167
v 0.188071 0.120096 1.908284
v 0.556784 0.120096 1.834942
v 0.554670 0.127619 1.827979
v 0.570629 0.009840 1.880585
v 0.571333 -0.000009 1.882909
v 0.926588 0.009840 1.733142
v 0.927731 -0.000009 1.735284
v 0.900672 0.127619 1.684661
v 0.904104 0.120096 1.691077
v 1.216683 0.120096 1.482218
v 1.246941 0.009840 1.519088
v 1.212065 0.127619 1.476594
v 1.248480 -0.000009 1.520966
v 1.476883 0.127619 1.211775
v 1.519379 0.009840 1.246649
v 1.482509 0.120096 1.216391
v 1.521255 -0.000009 1.248191
v 1.691368 0.120096 0.903811
v 1.733433 0.009840 0.926295
v 1.735573 -0.000009 0.927442
v 1.684949 0.127620 0.900382
vn 0.9210 -0.3788 -0.0907
vn -0.0000 -1.0000 -0.0000
vn 0.9078 -0.3785 -0.1806
vn 0.8766 0.3157 0.3631
vn 0.8855 -0.3791 0.2686
vn 0.9081 0.3154 0.2755
vn -0.9209 -0.3791 0.0907
vn -0.9077 -0.3787 0.1806
vn 0.2774 0.8993 0.3380
vn -0.0000 1.0000 -0.0000
vn 0.2427 0.8995 0.3633
vn -0.4358 0.8990 -0.0429
vn -0.4285 0.8995 -0.0853
vn -0.4186 0.8992 0.1270
vn -0.4281 0.8997 0.0851
vn 0.4354 0.8992 0.0429
vn 0.4285 0.8995 0.0853
vn -0.3384 0.8990 0.2778
vn -0.3635 0.8994 0.2429
vn 0.4185 0.8993 -0.1270
vn 0.4285 0.8995 -0.0852
vn 0.0429 0.8990 -0.4358
vn 0.0853 0.8995 -0.4285
vn -0.2064 0.8991 0.3862
vn -0.2428 0.8994 0.3634
vn 0.3382 0.8992 -0.2775
vn 0.3629 0.8997 -0.2424
vn -0.1272 0.8990 -0.4190
vn -0.0851 0.8997 -0.4281
vn -0.0429 0.8990 0.4358
vn -0.0853 0.8995 0.4285
vn 0.2061 0.8993 -0.3856
vn 0.2428 0.8994 -0.3634
vn -0.2776 0.8992 -0.3382
vn -0.2425 0.8997 -0.3630
vn 0.1269 0.8994 0.4182
vn 0.0853 0.8994 0.4287
vn 0.9078 -0.3785 0.1806
vn 0.7154 -0.3787 0.5871
vn 0.7696 -0.3785 0.5142
vn -0.8855 -0.3791 -0.2686
vn -0.9077 -0.3787 -0.1806
vn 0.4363 -0.3788 0.8162
vn 0.5143 -0.3785 0.7696
vn -0.7154 -0.3787 -0.5871
vn -0.7696 -0.3785 -0.5142
vn 0.0907 -0.3791 0.9209
vn 0.1805 -0.3788 0.9077
vn -0.4362 -0.3789 -0.8162
vn -0.5142 -0.3788 -0.7695
vn 0.5871 -0.3791 -0.7153
vn 0.5142 -0.3787 -0.7695
vn -0.2687 -0.3787 0.8857
vn -0.1806 -0.3788 0.9077
vn -0.0907 -0.3791 -0.9209
vn -0.1806 -0.3785 -0.9078
vn 0.8161 -0.3791 -0.4362
vn 0.7695 -0.3788 -0.5142
vn 0.2687 -0.3788 -0.8856
vn 0.1806 -0.3785 -0.9078
vn -0.8162 -0.3787 0.4363
vn -0.7695 -0.3787 0.5142
vn 0.3862 0.8990 0.2064
vn 0.3629 0.8997 0.2425
vn -0.3854 0.8994 -0.2060
vn -0.3634 0.8994 -0.2428
vn -0.5871 -0.3788 0.7154
vn -0.5142 -0.3788 0.7695
vn -0.9305 0.3160 0.1851
vn -0.8856 -0.3789 0.2686
vn -0.9081 0.3154 0.2755
vn 0.6709 0.3159 -0.6709
vn 0.6020 0.3155 -0.7335
vn 0.9306 0.3156 0.1851
vn 0.9209 -0.3791 0.0907
vn 0.9444 0.3155 0.0930
vn -0.8766 0.3159 0.3631
vn -0.8369 0.3154 0.4473
vn 0.5271 0.3159 -0.7889
vn 0.4363 -0.3788 -0.8162
vn 0.4473 0.3154 -0.8369
vn 0.9488 0.3160 -0.0000
vn 0.9443 0.3157 -0.0930
vn -0.7889 0.3160 0.5271
vn -0.7154 -0.3788 0.5871
vn -0.7335 0.3155 0.6020
vn 0.3631 0.3160 -0.8766
vn 0.2755 0.3154 -0.9081
vn 0.9305 0.3160 -0.1851
vn 0.8855 -0.3791 -0.2686
vn 0.9080 0.3157 -0.2754
vn -0.6709 0.3160 0.6709
vn -0.6020 0.3157 0.7335
vn 0.1851 0.3156 -0.9307
vn 0.0907 -0.3787 -0.9211
vn 0.0930 0.3158 -0.9443
vn 0.8766 0.3159 -0.3631
vn 0.8369 0.3154 -0.4473
vn -0.5271 0.3160 0.7889
vn -0.4363 -0.3788 0.8162
vn -0.4473 0.3154 0.8369
vn -0.0000 0.3160 -0.9488
vn -0.0930 0.3155 -0.9444
vn 0.7001 0.5394 -0.4678
vn 0.6513 0.5387 -0.5345
vn -0.3631 0.3160 0.8765
vn -0.2755 0.3155 0.9081
vn -0.1851 0.3160 -0.9305
vn -0.2686 -0.3791 -0.8855
vn -0.2754 0.3158 -0.9080
vn -0.1851 0.3160 0.9305
vn -0.0907 -0.3787 0.9210
vn -0.0930 0.3155 0.9444
vn -0.3631 0.3160 -0.8765
vn -0.4473 0.3154 -0.8369
vn -0.0000 0.3156 0.9489
vn 0.0930 0.3155 0.9444
vn -0.5271 0.3160 -0.7889
vn -0.5871 -0.3787 -0.7154
vn -0.6020 0.3155 -0.7335
vn 0.1851 0.3160 0.9305
vn 0.2686 -0.3791 0.8855
vn 0.2755 0.3155 0.9081
vn -0.6709 0.3159 -0.6709
vn -0.7335 0.3155 -0.6020
vn 0.3631 0.3160 0.8765
vn 0.4473 0.3154 0.8369
vn -0.7889 0.3160 -0.5271
vn -0.8162 -0.3788 -0.4363
vn -0.8368 0.3157 -0.4473
vn 0.5272 0.3156 0.7890
vn 0.5870 -0.3791 0.7153
vn 0.6020 0.3154 0.7335
vn -0.8766 0.3159 -0.3631
vn -0.9081 0.3154 -0.2755
vn 0.6710 0.3156 0.6710
vn 0.7335 0.3155 0.6020
vn -0.9306 0.3157 -0.1851
vn -0.9210 -0.3787 -0.0907
vn -0.9442 0.3159 -0.0930
vn 0.7001 0.5394 0.4678
vn 0.7431 0.5387 0.3971
vn -0.4358 0.8990 0.0430
vn -0.8424 0.5389 -0.0000
vn -0.8383 0.5389 0.0826
vn -0.9444 0.3155 0.0930
vn -0.9489 0.3156 -0.0000
vn 0.8369 0.3155 0.4473
vn 0.7890 0.3156 0.5272
vn -0.8259 0.5394 -0.1643
vn -0.8385 0.5387 -0.0826
vn 0.3382 0.8992 0.2775
vn 0.5955 0.5392 0.5955
vn 0.6513 0.5387 0.5345
vn -0.4186 0.8992 -0.1270
vn -0.7779 0.5394 -0.3223
vn -0.8063 0.5387 -0.2445
vn 0.4679 0.5390 0.7003
vn 0.5345 0.5387 0.6513
vn -0.7430 0.5387 -0.3972
vn 0.2064 0.8990 0.3861
vn 0.3222 0.5394 0.7780
vn 0.3971 0.5389 0.7429
vn -0.3382 0.8992 -0.2775
vn -0.5954 0.5394 -0.5954
vn -0.6513 0.5387 -0.5345
vn 0.1642 0.5394 0.8259
vn 0.2446 0.5387 0.8062
vn -0.4679 0.5391 -0.7003
vn -0.5344 0.5389 -0.6511
vn 0.0429 0.8993 0.4352
vn -0.0000 0.5390 0.8423
vn 0.0826 0.5387 0.8385
vn -0.2061 0.8993 -0.3856
vn -0.3222 0.5394 -0.7780
vn -0.3972 0.5387 -0.7430
vn -0.1643 0.5394 0.8259
vn -0.0826 0.5387 0.8385
vn -0.1642 0.5394 -0.8259
vn -0.2446 0.5386 -0.8062
vn -0.1271 0.8990 0.4190
vn -0.3223 0.5394 0.7779
vn -0.2445 0.5387 0.8063
vn 0.7335 0.3154 -0.6020
vn 0.7889 0.3159 -0.5271
vn -0.0430 0.8990 -0.4358
vn -0.0000 0.5394 -0.8420
vn -0.0826 0.5387 -0.8385
vn -0.4678 0.5394 0.7001
vn -0.3971 0.5387 0.7431
vn 0.3862 0.8990 -0.2064
vn 0.7780 0.5394 -0.3222
vn 0.7429 0.5389 -0.3971
vn 0.1643 0.5394 -0.8259
vn 0.0825 0.5389 -0.8383
vn -0.2774 0.8993 0.3380
vn -0.5956 0.5390 0.5956
vn -0.5345 0.5387 0.6513
vn 0.8259 0.5394 -0.1642
vn 0.8059 0.5392 -0.2445
vn 0.1670 0.8997 -0.4033
vn 0.2446 0.5387 -0.8062
vn 0.1269 0.8993 -0.4185
vn -0.7003 0.5392 0.4679
vn -0.6511 0.5391 0.5343
vn 0.4352 0.8993 -0.0429
vn 0.8422 0.5391 -0.0000
vn 0.8385 0.5387 -0.0826
vn 0.4679 0.5391 -0.7003
vn 0.3971 0.5390 -0.7429
vn -0.3861 0.8990 0.2064
vn -0.7780 0.5394 0.3222
vn -0.7430 0.5387 0.3972
vn 0.8259 0.5394 0.1643
vn 0.8385 0.5386 0.0826
vn 0.3087 0.8997 -0.3087
vn 0.5345 0.5387 -0.6513
vn 0.2774 0.8993 -0.3380
vn -0.8259 0.5394 0.1642
vn -0.8060 0.5391 0.2445
vn 0.4185 0.8993 0.1269
vn 0.7779 0.5394 0.3223
vn 0.8063 0.5387 0.2445
vn 0.7153 -0.3791 -0.5870
vn 0.8162 -0.3788 0.4363
vn -0.9255 -0.3788 -0.0000
vn 0.5955 0.5392 -0.5955
vn 0.4033 0.8997 -0.1670
vn 0.6545 -0.3785 -0.6545
vn 0.3542 -0.3785 -0.8552
vn -0.0000 -0.3785 -0.9256
vn -0.6545 -0.3785 -0.6545
vn -0.1670 0.8997 -0.4033
vn -0.3086 0.8997 -0.3087
vn -0.8551 -0.3787 -0.3542
vn -0.4036 0.8995 -0.1672
vn -0.4365 0.8997 -0.0000
vn -0.8550 -0.3788 0.3542
vn -0.4038 0.8994 0.1673
vn -0.6545 -0.3785 0.6545
vn -0.3087 0.8997 0.3086
vn -0.3542 -0.3787 0.8551
vn -0.1672 0.8995 0.4036
vn -0.0000 -0.3785 0.9256
vn -0.0000 0.8997 0.4365
vn 0.3542 -0.3788 0.8550
vn 0.1673 0.8994 0.4038
vn 0.6544 -0.3788 0.6544
vn 0.3089 0.8995 0.3089
vn 0.8551 -0.3787 0.3542
vn 0.4037 0.8995 0.1672
vn 0.9256 -0.3785 -0.0000
vn 0.4371 0.8994 -0.0000
vn 0.8550 -0.3788 -0.3541
vn -0.3542 -0.3788 -0.8550
vn -0.0000 0.8994 -0.4371
vn 0.3222 0.5394 -0.7779
vn -0.7001 0.5394 -0.4678
vt 0.500004 0.500000
vt 0.500002 0.500000
vt 0.500004 0.500001
vt 0.499996 0.499998
vt 0.499996 0.499999
vt 0.500001 0.500000
vt 0.500001 0.499999
vt 0.499997 0.499997
vt 0.499998 0.500000
vt 0.499997 0.499996
vt 0.499999 0.500001
vt 0.499999 0.499999
vt 0.499999 0.499998
vt 0.499996 0.500001
vt 0.499997 0.500004
vt 0.499998 0.499996
vt 0.499999 0.499997
vt 0.499996 0.500002
vt 0.499998 0.500004
vt 0.499997 0.500003
vt 0.499999 0.500003
vt 0.500004 0.499999
vt 0.500004 0.499997
vt 0.500001 0.500001
vt 0.500003 0.499996
vt 0.500001 0.500003
vt 0.500002 0.500004
vt 0.500004 0.500003
vt 0.500002 0.499996
vt 0.500004 0.500002
vt 0.500003 0.500004
vt 0.500001 0.499998
vt 0.499999 0.500002
vt 0.500001 0.499997
vt 0.499996 0.500003
vt 0.499996 0.500000
vt 0.499996 0.499997
vt 0.499999 0.500000
vt 0.500001 0.500002
s 1
usemtl None.008
f 139/1/1 3/2/2 1/3/3
f 6/4/4 134/5/5 131/5/6
f 203/6/7 3/2/2 9/7/8
f 249/8/9 14/9/10 12/10/11
f 202/11/12 14/9/10 16/11/13
f 209/12/14 14/9/10 19/12/15
f 135/5/16 14/9/10 21/5/17
f 217/13/18 14/9/10 24/13/19
f 145/14/20 14/9/10 26/14/21
f 169/15/22 14/9/10 28/15/23
f 224/16/24 14/9/10 31/17/25
f 151/18/26 14/9/10 33/18/27
f 176/19/28 14/9/10 35/19/29
f 231/16/30 14/9/10 37/16/31
f 156/15/32 14/9/10 39/20/33
f 186/21/34 14/9/10 40/19/35
f 240/10/36 14/9/10 42/10/37
f 134/5/5 3/2/2 8/22/38
f 254/23/39 3/2/2 43/23/40
f 195/24/41 3/2/2 45/24/42
f 244/25/43 3/2/2 47/25/44
f 187/26/45 3/2/2 49/26/46
f 237/25/47 3/2/2 51/25/48
f 179/27/49 3/2/2 53/27/50
f 160/28/51 3/2/2 55/28/52
f 227/29/53 3/2/2 58/29/54
f 174/27/55 3/2/2 60/27/56
f 150/30/57 3/2/2 62/30/58
f 163/31/59 3/2/2 63/31/60
f 213/32/61 3/2/2 64/32/62
f 258/4/63 14/9/10 66/4/64
f 192/33/65 14/9/10 67/33/66
f 220/34/67 3/2/2 68/34/68
f 70/12/69 207/12/70 208/12/71
f 72/35/72 160/28/51 161/35/73
f 5/5/74 137/5/75 136/5/76
f 69/12/77 213/32/61 211/13/78
f 71/20/79 157/15/80 158/15/81
f 73/36/82 139/1/1 140/36/83
f 74/13/84 218/17/85 215/17/86
f 75/15/87 163/31/59 165/15/88
f 76/14/89 143/14/90 146/14/91
f 77/17/92 220/34/67 221/17/93
f 78/15/94 170/15/95 167/15/96
f 79/14/97 150/30/57 149/18/98
f 80/17/99 225/16/100 226/16/101
f 81/15/102 174/27/55 172/19/103
f 151/18/26 86/18/104 152/18/105
f 83/16/106 227/29/53 228/16/107
f 84/19/108 175/19/109 177/19/110
f 87/16/111 234/16/112 233/16/113
f 88/19/114 179/27/49 182/19/115
f 89/16/116 237/25/47 235/10/117
f 90/19/118 183/21/119 184/21/120
f 91/10/121 242/10/122 241/10/123
f 92/21/124 187/26/45 190/21/125
f 93/10/126 244/25/43 243/10/127
f 94/21/128 191/33/129 194/33/130
f 95/10/131 250/8/132 248/8/133
f 96/33/134 195/24/41 198/11/135
f 97/37/136 254/23/39 252/37/137
f 98/11/138 200/11/139 201/11/140
f 258/4/63 102/4/141 255/4/142
f 204/38/143 104/38/144 206/38/145
f 205/38/146 104/38/144 100/38/147
f 256/4/148 102/4/141 99/37/149
f 202/11/12 105/11/150 199/11/151
f 251/37/152 106/37/153 253/37/154
f 197/11/155 107/33/156 196/11/157
f 249/8/9 108/10/158 247/8/159
f 67/33/66 193/33/160 192/33/65
f 245/10/161 110/10/162 246/10/163
f 188/21/164 111/21/165 189/21/166
f 240/10/36 112/10/167 239/10/168
f 186/21/34 113/19/169 185/21/170
f 236/10/171 114/16/172 238/10/173
f 181/19/174 115/19/175 180/19/176
f 231/16/30 116/16/177 232/16/178
f 176/19/28 117/19/179 178/19/180
f 229/16/181 118/16/182 230/16/183
f 154/35/184 86/18/104 82/18/185
f 171/19/186 119/15/187 173/19/188
f 224/16/24 120/17/189 223/16/190
f 148/18/191 121/14/192 147/18/193
f 169/15/22 122/15/194 168/15/195
f 219/17/196 123/17/197 222/17/198
f 145/14/20 124/14/199 144/14/200
f 30/15/201 164/15/202 166/15/203
f 217/13/18 126/13/204 216/13/205
f 141/36/206 127/36/207 142/36/208
f 156/15/32 128/20/209 155/15/210
f 214/13/211 129/12/212 212/13/213
f 135/5/16 130/5/214 138/5/215
f 34/35/216 159/35/217 162/35/218
f 209/12/14 103/12/219 210/12/220
f 132/5/221 101/4/222 133/5/223
f 153/35/224 82/18/185 62/30/58
f 257/4/225 99/37/149 43/23/40
f 203/6/7 100/38/147 10/6/226
f 105/11/150 201/11/140 199/11/151
f 106/37/153 252/37/137 253/37/154
f 107/33/156 198/11/135 196/11/157
f 108/10/158 248/8/133 247/8/159
f 193/33/160 94/21/128 194/33/130
f 110/10/162 243/10/127 246/10/163
f 189/21/166 92/21/124 190/21/125
f 112/10/167 241/10/123 239/10/168
f 113/19/169 184/21/120 185/21/170
f 238/10/173 89/16/116 235/10/117
f 180/19/176 88/19/114 182/19/115
f 116/16/177 233/16/113 232/16/178
f 117/19/179 177/19/110 178/19/180
f 118/16/182 228/16/107 230/16/183
f 119/15/187 172/19/103 173/19/188
f 120/17/189 226/16/101 223/16/190
f 121/14/192 149/18/98 147/18/193
f 122/15/194 167/15/96 168/15/195
f 123/17/197 221/17/93 222/17/198
f 124/14/199 146/14/91 144/14/200
f 164/15/202 75/15/87 165/15/88
f 126/13/204 215/17/86 216/13/205
f 127/36/207 140/36/83 142/36/208
f 128/20/209 158/15/81 155/15/210
f 129/12/212 211/13/78 212/13/213
f 138/5/215 5/5/74 136/5/76
f 85/35/227 161/35/73 159/35/217
f 103/12/219 208/12/71 210/12/220
f 101/4/222 131/5/6 133/5/223
f 148/18/191 14/9/10 27/14/228
f 153/35/224 3/2/2 56/28/229
f 157/15/80 3/2/2 57/31/230
f 162/35/218 14/9/10 34/35/216
f 166/15/203 14/9/10 30/15/201
f 170/15/95 3/2/2 61/31/231
f 183/21/119 3/2/2 50/26/232
f 181/19/174 14/9/10 36/19/233
f 188/21/164 14/9/10 41/21/234
f 191/33/129 3/2/2 46/39/235
f 197/11/155 14/9/10 18/33/236
f 200/11/139 3/2/2 10/6/226
f 204/38/143 14/9/10 17/38/237
f 207/12/70 3/2/2 11/7/238
f 214/13/211 14/9/10 20/12/239
f 218/17/85 3/2/2 65/34/240
f 219/17/196 14/9/10 25/17/241
f 225/16/100 3/2/2 59/29/242
f 229/16/181 14/9/10 32/16/243
f 234/16/112 3/2/2 52/29/244
f 236/10/171 14/9/10 38/16/245
f 242/10/122 3/2/2 48/25/246
f 245/10/161 14/9/10 15/10/247
f 250/8/132 3/2/2 44/23/248
f 251/37/152 14/9/10 13/37/249
f 257/4/225 3/2/2 7/4/250
f 132/5/221 14/9/10 23/4/251
f 137/5/75 3/2/2 2/1/252
f 141/36/206 14/9/10 22/36/253
f 143/14/90 3/2/2 4/3/254
f 175/19/109 3/2/2 54/27/255
f 171/19/186 14/9/10 29/15/256
f 130/5/214 131/5/6 5/5/74
f 21/5/17 133/5/223 130/5/214
f 131/5/6 8/22/38 5/5/74
f 127/36/207 136/5/76 73/36/82
f 22/36/253 138/5/215 127/36/207
f 136/5/76 2/1/252 73/36/82
f 124/14/199 140/36/83 76/14/89
f 26/14/21 142/36/208 124/14/199
f 140/36/83 1/3/3 76/14/89
f 121/14/192 146/14/91 79/14/97
f 27/14/228 144/14/200 121/14/192
f 146/14/91 4/3/254 79/14/97
f 86/18/104 149/18/98 82/18/185
f 33/18/27 147/18/193 86/18/104
f 149/18/98 62/30/58 82/18/185
f 56/28/229 154/35/184 153/35/224
f 85/35/227 154/35/184 72/35/72
f 34/35/216 152/18/105 85/35/227
f 125/15/257 158/15/81 75/15/87
f 30/15/201 155/15/210 125/15/257
f 75/15/87 157/15/80 57/31/230
f 128/20/209 161/35/73 71/20/79
f 39/20/33 159/35/217 128/20/209
f 71/20/79 160/28/51 55/28/52
f 122/15/194 165/15/88 78/15/94
f 28/15/23 164/15/202 122/15/194
f 165/15/88 63/31/60 78/15/94
f 119/15/187 167/15/96 81/15/102
f 29/15/256 168/15/195 119/15/187
f 167/15/96 61/31/231 81/15/102
f 117/19/179 172/19/103 84/19/108
f 35/19/29 173/19/188 117/19/179
f 172/19/103 60/27/56 84/19/108
f 115/19/175 177/19/110 88/19/114
f 36/19/233 178/19/180 115/19/175
f 177/19/110 54/27/255 88/19/114
f 113/19/169 182/19/115 90/19/118
f 40/19/35 180/19/176 113/19/169
f 182/19/115 53/27/50 90/19/118
f 111/21/165 184/21/120 92/21/124
f 41/21/234 185/21/170 111/21/165
f 184/21/120 50/26/232 92/21/124
f 109/33/258 190/21/125 94/21/128
f 67/33/66 189/21/166 109/33/258
f 190/21/125 49/26/46 94/21/128
f 107/33/156 194/33/130 96/33/134
f 18/33/236 193/33/160 107/33/156
f 96/33/134 191/33/129 46/39/235
f 196/11/157 98/11/138 105/11/150
f 16/11/13 196/11/157 105/11/150
f 198/11/135 45/24/42 98/11/138
f 104/38/144 201/11/140 100/38/147
f 17/38/237 199/11/151 104/38/144
f 201/11/140 10/6/226 100/38/147
f 9/7/8 205/38/146 203/6/7
f 103/12/219 205/38/146 70/12/69
f 19/12/15 206/38/145 103/12/219
f 129/12/212 208/12/71 69/12/77
f 20/12/239 210/12/220 129/12/212
f 208/12/71 11/7/238 69/12/77
f 126/13/204 211/13/78 74/13/84
f 24/13/19 212/13/213 126/13/204
f 211/13/78 64/32/62 74/13/84
f 123/17/197 215/17/86 77/17/92
f 25/17/241 216/13/205 123/17/197
f 215/17/86 65/34/240 77/17/92
f 120/17/189 221/17/93 80/17/99
f 31/17/25 222/17/198 120/17/189
f 221/17/93 68/34/68 80/17/99
f 223/16/190 83/16/106 118/16/182
f 32/16/243 223/16/190 118/16/182
f 226/16/101 59/29/242 83/16/106
f 116/16/177 228/16/107 87/16/111
f 37/16/31 230/16/183 116/16/177
f 228/16/107 58/29/54 87/16/111
f 114/16/172 233/16/113 89/16/116
f 38/16/245 232/16/178 114/16/172
f 233/16/113 52/29/244 89/16/116
f 112/10/167 235/10/117 91/10/121
f 42/10/37 238/10/173 112/10/167
f 235/10/117 51/25/48 91/10/121
f 110/10/162 241/10/123 93/10/126
f 15/10/247 239/10/168 110/10/162
f 241/10/123 48/25/246 93/10/126
f 108/10/158 243/10/127 95/10/131
f 12/10/11 246/10/163 108/10/158
f 243/10/127 47/25/44 95/10/131
f 106/37/153 248/8/133 97/37/136
f 13/37/249 247/8/159 106/37/153
f 248/8/133 44/23/248 97/37/136
f 102/4/141 252/37/137 99/37/149
f 66/4/64 253/37/154 102/4/141
f 252/37/137 43/23/40 99/37/149
f 7/4/250 256/4/148 257/4/225
f 101/4/222 256/4/148 6/4/4
f 23/4/251 255/4/142 101/4/222
f 139/1/1 2/1/252 3/2/2
f 6/4/4 7/4/250 134/5/5
f 203/6/7 10/6/226 3/2/2
f 249/8/9 13/37/249 14/9/10
f 202/11/12 17/38/237 14/9/10
f 209/12/14 20/12/239 14/9/10
f 135/5/16 22/36/253 14/9/10
f 217/13/18 25/17/241 14/9/10
f 145/14/20 27/14/228 14/9/10
f 169/15/22 29/15/256 14/9/10
f 224/16/24 32/16/243 14/9/10
f 151/18/26 34/35/216 14/9/10
f 176/19/28 36/19/233 14/9/10
f 231/16/30 38/16/245 14/9/10
f 156/15/32 30/15/201 14/9/10
f 186/21/34 41/21/234 14/9/10
f 240/10/36 15/10/247 14/9/10
f 134/5/5 7/4/250 3/2/2
f 254/23/39 44/23/248 3/2/2
f 195/24/41 46/39/235 3/2/2
f 244/25/43 48/25/246 3/2/2
f 187/26/45 50/26/232 3/2/2
f 237/25/47 52/29/244 3/2/2
f 179/27/49 54/27/255 3/2/2
f 160/28/51 56/28/229 3/2/2
f 227/29/53 59/29/242 3/2/2
f 174/27/55 61/31/231 3/2/2
f 150/30/57 4/3/254 3/2/2
f 163/31/59 57/31/230 3/2/2
f 213/32/61 11/7/238 3/2/2
f 258/4/63 23/4/251 14/9/10
f 192/33/65 18/33/236 14/9/10
f 220/34/67 65/34/240 3/2/2
f 70/12/69 9/7/8 207/12/70
f 72/35/72 56/28/229 160/28/51
f 5/5/74 8/22/38 137/5/75
f 69/12/77 11/7/238 213/32/61
f 71/20/79 55/28/52 157/15/80
f 73/36/82 2/1/252 139/1/1
f 74/13/84 64/32/62 218/17/85
f 75/15/87 57/31/230 163/31/59
f 76/14/89 1/3/3 143/14/90
f 77/17/92 65/34/240 220/34/67
f 78/15/94 63/31/60 170/15/95
f 79/14/97 4/3/254 150/30/57
f 80/17/99 68/34/68 225/16/100
f 81/15/102 61/31/231 174/27/55
f 151/18/26 33/18/27 86/18/104
f 83/16/106 59/29/242 227/29/53
f 84/19/108 60/27/56 175/19/109
f 87/16/111 58/29/54 234/16/112
f 88/19/114 54/27/255 179/27/49
f 89/16/116 52/29/244 237/25/47
f 90/19/118 53/27/50 183/21/119
f 91/10/121 51/25/48 242/10/122
f 92/21/124 50/26/232 187/26/45
f 93/10/126 48/25/246 244/25/43
f 94/21/128 49/26/46 191/33/129
f 95/10/131 47/25/44 250/8/132
f 96/33/134 46/39/235 195/24/41
f 97/37/136 44/23/248 254/23/39
f 98/11/138 45/24/42 200/11/139
f 258/4/63 66/4/64 102/4/141
f 204/38/143 17/38/237 104/38/144
f 205/38/146 206/38/145 104/38/144
f 256/4/148 255/4/142 102/4/141
f 202/11/12 16/11/13 105/11/150
f 251/37/152 13/37/249 106/37/153
f 197/11/155 18/33/236 107/33/156
f 249/8/9 12/10/11 108/10/158
f 67/33/66 109/33/258 193/33/160
f 245/10/161 15/10/247 110/10/162
f 188/21/164 41/21/234 111/21/165
f 240/10/36 42/10/37 112/10/167
f 186/21/34 40/19/35 113/19/169
f 236/10/171 38/16/245 114/16/172
f 181/19/174 36/19/233 115/19/175
f 231/16/30 37/16/31 116/16/177
f 176/19/28 35/19/29 117/19/179
f 229/16/181 32/16/243 118/16/182
f 154/35/184 152/18/105 86/18/104
f 171/19/186 29/15/256 119/15/187
f 224/16/24 31/17/25 120/17/189
f 148/18/191 27/14/228 121/14/192
f 169/15/22 28/15/23 122/15/194
f 219/17/196 25/17/241 123/17/197
f 145/14/20 26/14/21 124/14/199
f 30/15/201 125/15/257 164/15/202
f 217/13/18 24/13/19 126/13/204
f 141/36/206 22/36/253 127/36/207
f 156/15/32 39/20/33 128/20/209
f 214/13/211 20/12/239 129/12/212
f 135/5/16 21/5/17 130/5/214
f 34/35/216 85/35/227 159/35/217
f 209/12/14 19/12/15 103/12/219
f 132/5/221 23/4/251 101/4/222
f 153/35/224 154/35/184 82/18/185
f 257/4/225 256/4/148 99/37/149
f 203/6/7 205/38/146 100/38/147
f 105/11/150 98/11/138 201/11/140
f 106/37/153 97/37/136 252/37/137
f 107/33/156 96/33/134 198/11/135
f 108/10/158 95/10/131 248/8/133
f 193/33/160 109/33/258 94/21/128
f 110/10/162 93/10/126 243/10/127
f 189/21/166 111/21/165 92/21/124
f 112/10/167 91/10/121 241/10/123
f 113/19/169 90/19/118 184/21/120
f 238/10/173 114/16/172 89/16/116
f 180/19/176 115/19/175 88/19/114
f 116/16/177 87/16/111 233/16/113
f 117/19/179 84/19/108 177/19/110
f 118/16/182 83/16/106 228/16/107
f 119/15/187 81/15/102 172/19/103
f 120/17/189 80/17/99 226/16/101
f 121/14/192 79/14/97 149/18/98
f 122/15/194 78/15/94 167/15/96
f 123/17/197 77/17/92 221/17/93
f 124/14/199 76/14/89 146/14/91
f 164/15/202 125/15/257 75/15/87
f 126/13/204 74/13/84 215/17/86
f 127/36/207 73/36/82 140/36/83
f 128/20/209 71/20/79 158/15/81
f 129/12/212 69/12/77 211/13/78
f 138/5/215 130/5/214 5/5/74
f 85/35/227 72/35/72 161/35/73
f 103/12/219 70/12/69 208/12/71
f 101/4/222 6/4/4 131/5/6
f 148/18/191 33/18/27 14/9/10
f 153/35/224 62/30/58 3/2/2
f 157/15/80 55/28/52 3/2/2
f 162/35/218 39/20/33 14/9/10
f 166/15/203 28/15/23 14/9/10
f 170/15/95 63/31/60 3/2/2
f 183/21/119 53/27/50 3/2/2
f 181/19/174 40/19/35 14/9/10
f 188/21/164 67/33/66 14/9/10
f 191/33/129 49/26/46 3/2/2
f 197/11/155 16/11/13 14/9/10
f 200/11/139 45/24/42 3/2/2
f 204/38/143 19/12/15 14/9/10
f 207/12/70 9/7/8 3/2/2
f 214/13/211 24/13/19 14/9/10
f 218/17/85 64/32/62 3/2/2
f 219/17/196 31/17/25 14/9/10
f 225/16/100 68/34/68 3/2/2
f 229/16/181 37/16/31 14/9/10
f 234/16/112 58/29/54 3/2/2
f 236/10/171 42/10/37 14/9/10
f 242/10/122 51/25/48 3/2/2
f 245/10/161 12/10/11 14/9/10
f 250/8/132 47/25/44 3/2/2
f 251/37/152 66/4/64 14/9/10
f 257/4/225 43/23/40 3/2/2
f 132/5/221 21/5/17 14/9/10
f 137/5/75 8/22/38 3/2/2
f 141/36/206 26/14/21 14/9/10
f 143/14/90 1/3/3 3/2/2
f 175/19/109 60/27/56 3/2/2
f 171/19/186 35/19/29 14/9/10
f 130/5/214 133/5/223 131/5/6
f 21/5/17 132/5/221 133/5/223
f 131/5/6 134/5/5 8/22/38
f 127/36/207 138/5/215 136/5/76
f 22/36/253 135/5/16 138/5/215
f 136/5/76 137/5/75 2/1/252
f 124/14/199 142/36/208 140/36/83
f 26/14/21 141/36/206 142/36/208
f 140/36/83 139/1/1 1/3/3
f 121/14/192 144/14/200 146/14/91
f 27/14/228 145/14/20 144/14/200
f 146/14/91 143/14/90 4/3/254
f 86/18/104 147/18/193 149/18/98
f 33/18/27 148/18/191 147/18/193
f 149/18/98 150/30/57 62/30/58
f 56/28/229 72/35/72 154/35/184
f 85/35/227 152/18/105 154/35/184
f 34/35/216 151/18/26 152/18/105
f 125/15/257 155/15/210 158/15/81
f 30/15/201 156/15/32 155/15/210
f 75/15/87 158/15/81 157/15/80
f 128/20/209 159/35/217 161/35/73
f 39/20/33 162/35/218 159/35/217
f 71/20/79 161/35/73 160/28/51
f 122/15/194 164/15/202 165/15/88
f 28/15/23 166/15/203 164/15/202
f 165/15/88 163/31/59 63/31/60
f 119/15/187 168/15/195 167/15/96
f 29/15/256 169/15/22 168/15/195
f 167/15/96 170/15/95 61/31/231
f 117/19/179 173/19/188 172/19/103
f 35/19/29 171/19/186 173/19/188
f 172/19/103 174/27/55 60/27/56
f 115/19/175 178/19/180 177/19/110
f 36/19/233 176/19/28 178/19/180
f 177/19/110 175/19/109 54/27/255
f 113/19/169 180/19/176 182/19/115
f 40/19/35 181/19/174 180/19/176
f 182/19/115 179/27/49 53/27/50
f 111/21/165 185/21/170 184/21/120
f 41/21/234 186/21/34 185/21/170
f 184/21/120 183/21/119 50/26/232
f 109/33/258 189/21/166 190/21/125
f 67/33/66 188/21/164 189/21/166
f 190/21/125 187/26/45 49/26/46
f 107/33/156 193/33/160 194/33/130
f 18/33/236 192/33/65 193/33/160
f 96/33/134 194/33/130 191/33/129
f 196/11/157 198/11/135 98/11/138
f 16/11/13 197/11/155 196/11/157
f 198/11/135 195/24/41 45/24/42
f 104/38/144 199/11/151 201/11/140
f 17/38/237 202/11/12 199/11/151
f 201/11/140 200/11/139 10/6/226
f 9/7/8 70/12/69 205/38/146
f 103/12/219 206/38/145 205/38/146
f 19/12/15 204/38/143 206/38/145
f 129/12/212 210/12/220 208/12/71
f 20/12/239 209/12/14 210/12/220
f 208/12/71 207/12/70 11/7/238
f 126/13/204 212/13/213 211/13/78
f 24/13/19 214/13/211 212/13/213
f 211/13/78 213/32/61 64/32/62
f 123/17/197 216/13/205 215/17/86
f 25/17/241 217/13/18 216/13/205
f 215/17/86 218/17/85 65/34/240
f 120/17/189 222/17/198 221/17/93
f 31/17/25 219/17/196 222/17/198
f 221/17/93 220/34/67 68/34/68
f 223/16/190 226/16/101 83/16/106
f 32/16/243 224/16/24 223/16/190
f 226/16/101 225/16/100 59/29/242
f 116/16/177 230/16/183 228/16/107
f 37/16/31 229/16/181 230/16/183
f 228/16/107 227/29/53 58/29/54
f 114/16/172 232/16/178 233/16/113
f 38/16/245 231/16/30 232/16/178
f 233/16/113 234/16/112 52/29/244
f 112/10/167 238/10/173 235/10/117
f 42/10/37 236/10/171 238/10/173
f 235/10/117 237/25/47 51/25/48
f 110/10/162 239/10/168 241/10/123
f 15/10/247 240/10/36 239/10/168
f 241/10/123 242/10/122 48/25/246
f 108/10/158 246/10/163 243/10/127
f 12/10/11 245/10/161 246/10/163
f 243/10/127 244/25/43 47/25/44
f 106/37/153 247/8/159 248/8/133
f 13/37/249 249/8/9 247/8/159
f 248/8/133 250/8/132 44/23/248
f 102/4/141 253/37/154 252/37/137
f 66/4/64 251/37/152 253/37/154
f 252/37/137 254/23/39 43/23/40
f 7/4/250 6/4/4 256/4/148
f 101/4/222 255/4/142 256/4/148
f 23/4/251 258/4/63 255/4/142
