# Blender v2.83.4 OBJ File: 'broodlord.blend'
# www.blender.org
o tyranid_pillar_trimmed_Mesh_0075.001
v -0.120550 0.909691 0.601061
v -0.049407 0.961056 0.596174
v -0.112543 0.924599 0.499047
v 0.343573 0.178791 -0.216056
v 0.357964 0.073134 -0.226344
v 0.202988 0.707926 -0.135904
v 0.192572 0.706005 -0.115210
v 0.310021 0.565877 -0.048060
v 0.295063 0.542752 -0.015467
v 0.332892 0.400495 0.050094
v 0.292788 0.392467 0.070448
v 0.354018 0.189915 -0.771828
v -0.051041 0.812287 -0.288477
v -0.051831 0.710925 -0.345159
v -0.113358 0.786191 -0.265304
v -0.290809 0.557497 -0.328171
v -0.053938 0.664373 -0.425207
v -0.061905 0.792742 -0.616624
v -0.058403 0.683230 -0.546753
v -0.001778 0.783136 -0.624755
v 0.027859 0.679486 -0.560274
v 0.286768 0.482913 -0.441592
v 0.276045 0.483100 -0.424690
v 0.439600 0.237885 -0.296996
v 0.383880 0.249435 -0.290269
v 0.441184 0.081144 -0.195434
v 0.487495 0.077848 -0.193405
v -0.023407 0.974897 -0.250046
v -0.018595 0.962084 -0.293514
v -0.051280 0.983992 -0.241477
v -0.053101 0.970955 -0.302030
v -0.033932 0.905887 -0.327196
v -0.053612 0.914848 -0.335859
v -0.298364 0.056180 -0.196113
v -0.443364 0.076001 -0.211067
v -0.061905 0.792742 -0.616624
v -0.122327 0.782362 -0.623606
v -0.058403 0.683230 -0.546753
v -0.145413 0.678376 -0.558621
v -0.380144 0.478899 -0.418392
v -0.431116 0.174040 -0.208906
v 0.315781 0.081428 -0.104860
v 0.217268 0.063821 -0.186449
v -0.305557 0.092198 -0.113734
v -0.159763 0.852490 0.606295
v -0.181418 0.761506 0.428078
v -0.179077 0.782915 0.427919
v -0.198563 0.794206 0.422556
v -0.169631 0.806114 0.503265
v -0.163897 0.893812 0.490818
v -0.166036 0.795472 0.611357
v -0.145019 0.904733 0.383518
v -0.032499 0.981333 0.361797
v -0.363318 0.388442 0.076494
v -0.404536 0.395970 0.056889
v -0.343798 0.388045 0.013983
v -0.380618 0.387985 0.013782
v -0.403368 0.313222 -0.107454
v -0.355233 0.309026 -0.115160
v -0.431116 0.174040 -0.208906
v -0.472460 0.174586 -0.204775
v -0.443364 0.076001 -0.211067
v 0.125040 0.763390 0.425251
v 0.169708 0.753975 0.434139
v 0.141148 0.796290 0.419412
v -0.281529 0.701682 -0.112108
v -0.048344 0.869877 -0.183612
v -0.292901 0.708164 -0.128384
v -0.112127 0.871092 -0.199990
v -0.094389 0.942213 -0.242416
v -0.050742 0.951751 -0.234505
v -0.079498 0.974560 -0.249524
v -0.051280 0.983992 -0.241477
v 0.278458 0.231289 -0.814875
v 0.345473 0.227523 -0.788494
v 0.230517 0.335662 -0.669479
v -0.073999 0.338426 -0.917172
v -0.039165 0.302873 -1.148134
v -0.039865 0.053581 -1.404752
v -0.062342 0.452535 -0.741330
v 0.027672 0.534016 -0.612789
v -0.061474 0.589360 -0.668873
v -0.053101 0.970955 -0.302030
v -0.086829 0.961670 -0.292887
v -0.051280 0.983992 -0.241477
v -0.079498 0.974560 -0.249524
v -0.101876 0.827759 -0.636964
v -0.062842 0.838002 -0.629777
v -0.000181 0.971017 0.308556
v -0.034577 0.986085 0.299211
v -0.022361 1.009824 0.302817
v -0.036176 0.947333 0.237138
v 0.084769 0.893458 0.251973
v -0.039998 0.927420 0.112112
v -0.047033 1.009669 0.303047
v -0.034577 0.986085 0.299211
v -0.068018 0.970593 0.309192
v -0.036176 0.947333 0.237138
v -0.154984 0.891993 0.254190
v -0.039998 0.927420 0.112112
v 0.158292 0.835955 0.405361
v 0.101514 0.917677 0.377210
v 0.082887 0.906190 0.381397
v 0.001027 0.990501 0.352669
v -0.032499 0.981333 0.361797
v -0.010192 1.042050 0.341065
v -0.033661 1.044899 0.345961
v -0.066794 0.990095 0.353301
v -0.164140 0.916046 0.379658
v -0.057387 1.041751 0.341504
v -0.053337 1.058117 0.314907
v -0.049179 1.058216 0.341326
v -0.208967 0.805888 0.165118
v -0.073676 1.013743 0.083333
v -0.041698 1.017637 0.087692
v -0.062671 1.036680 0.081147
v -0.041988 1.040512 0.085608
v -0.021568 1.036934 0.080767
v -0.018177 1.033203 0.046298
v -0.041988 1.040512 0.085608
v -0.043544 1.042790 0.038397
v -0.026114 0.963905 0.036892
v -0.042766 0.963804 0.037044
v -0.029683 0.998729 0.014885
v -0.044202 1.008394 0.006898
v -0.029683 0.998729 0.014885
v -0.044202 1.008394 0.006898
v 0.154126 0.395787 0.009878
v 0.252703 0.404627 -0.002681
v 0.196169 0.365452 0.072051
v 0.271634 0.371362 0.059676
v 0.340689 0.354132 0.207662
v -0.385335 0.356039 0.223193
v -0.323535 0.481429 0.021467
v -0.344161 0.367192 0.074388
v -0.324646 0.442804 0.022311
v 0.159776 0.436619 0.057342
v -0.267754 0.361473 0.083389
v -0.227620 0.413032 0.079920
v -0.233785 0.390045 0.020066
v -0.357621 0.465596 0.038246
v -0.323535 0.481429 0.021467
v -0.306574 0.574177 0.115907
v -0.282041 0.571776 0.117171
v -0.287485 0.627793 0.179887
v -0.259056 0.622901 0.186294
v -0.303200 0.617772 0.234982
v -0.272791 0.610419 0.246680
v 0.286536 0.450337 0.037955
v 0.014255 0.656722 0.378695
v -0.074352 0.656177 0.379510
v -0.012204 0.654891 0.285264
v -0.053890 0.654635 0.285652
v 0.343573 0.178791 -0.216056
v 0.433662 0.073397 -0.099071
v -0.029153 0.683386 0.405130
v -0.027527 0.645019 0.420253
v -0.084155 0.641953 0.387157
v 0.025626 0.642625 0.386146
v -0.027527 0.645019 0.420253
v -0.057387 1.041751 0.341504
v -0.033661 1.044899 0.345961
v -0.049179 1.058216 0.341326
v -0.033836 1.061307 0.345868
v -0.016282 1.058348 0.314555
v -0.035158 1.068326 0.307083
v -0.018734 1.058399 0.341039
v -0.033836 1.061307 0.345868
v 0.106551 0.590862 0.275690
v 0.177037 0.627563 0.222399
v 0.123778 0.587698 0.306485
v 0.175983 0.594650 0.303640
v 0.168783 0.612938 0.399820
v -0.225444 0.610204 0.403364
v -0.240704 0.669552 0.242827
v -0.237415 0.592022 0.307373
v -0.243643 0.624984 0.226282
v -0.217398 0.833642 0.408818
v -0.221188 0.802089 0.281391
v -0.267403 0.675233 0.213279
v -0.228874 0.722485 0.317467
v -0.240704 0.669552 0.242827
v -0.259056 0.622901 0.186294
v -0.243643 0.624984 0.226282
v -0.225297 0.751565 0.437788
v 0.173378 0.672098 0.239007
v -0.184917 0.585710 0.309246
v -0.169583 0.589168 0.278235
v -0.146116 0.636828 0.283076
v 0.080879 0.638222 0.280981
v -0.254746 0.689472 0.065996
v -0.310318 0.715630 0.200240
v -0.358014 0.485130 -0.017961
v -0.270437 0.681087 -0.108477
v -0.182297 0.809269 0.014821
v -0.232373 0.835791 0.155101
v -0.088220 0.909702 0.049963
v -0.086938 0.964505 0.107119
v -0.059415 0.963701 0.037198
v -0.068194 1.032894 0.046762
v -0.057984 0.998558 0.015150
v -0.048327 0.825610 -0.189495
v -0.343798 0.388045 0.013983
v -0.051280 0.983992 -0.241477
v -0.050742 0.951751 -0.234505
v -0.023407 0.974897 -0.250046
v -0.007426 0.942761 -0.243224
v -0.048344 0.869877 -0.183612
v 0.014488 0.871864 -0.201166
v -0.391996 0.478567 -0.435077
v -0.528193 0.249259 -0.299109
v -0.496625 0.242071 -0.265754
v -0.573364 0.071066 -0.183222
v -0.514354 0.063368 -0.156768
v -0.028940 0.860906 -0.292391
v -0.051650 0.860767 -0.292193
v -0.033932 0.905887 -0.327196
v -0.053612 0.914848 -0.335859
v 0.240312 0.719324 0.200915
v 0.210691 0.714413 0.216024
v 0.237236 0.621087 0.229998
v 0.207757 0.613366 0.242254
v -0.041698 1.017637 0.087692
v -0.040129 0.958155 0.117724
v -0.009961 1.014136 0.082748
v 0.005851 0.965084 0.106268
v 0.156875 0.838189 0.151505
v 0.139498 0.834898 0.164793
v -0.233785 0.390045 0.020066
v -0.133606 0.444539 0.040004
v -0.227620 0.413032 0.079920
v -0.065585 0.408702 0.153849
v -0.039041 0.439072 -0.023388
v -0.005758 0.410469 0.157006
v 0.052698 0.457434 -0.007934
v 0.159776 0.436619 0.057342
v 0.033385 0.458174 0.190008
v -0.045501 0.845580 -0.085164
v -0.043208 0.872389 -0.005008
v -0.042508 0.930218 0.034916
v -0.279626 0.710069 0.214835
v -0.272791 0.610419 0.246680
v -0.100587 0.457351 0.191235
v -0.323535 0.481429 0.021467
v -0.282041 0.571776 0.117171
v -0.031613 0.474575 0.215122
v 0.154126 0.395787 0.009878
v 0.177037 0.627563 0.222399
v 0.106551 0.590862 0.275690
v 0.186517 0.626012 0.182086
v 0.202705 0.575510 0.112465
v 0.286536 0.450337 0.037955
v -0.100587 0.457351 0.191235
v -0.065585 0.408702 0.153849
v -0.095614 0.396969 0.280084
v -0.051041 0.812287 -0.288477
v 0.012840 0.787188 -0.266501
v -0.051831 0.710925 -0.345159
v 0.150068 0.579417 -0.349545
v -0.053938 0.664373 -0.425207
v -0.057503 0.621933 -0.539694
v 0.279120 0.489038 -0.023837
v 0.181778 0.683859 -0.112645
v -0.048327 0.825610 -0.189495
v 0.033385 0.458174 0.190008
v 0.034917 0.397771 0.278882
v -0.005758 0.410469 0.157006
v -0.431116 0.174040 -0.208906
v -0.418064 0.089707 -0.087828
v -0.129436 0.239983 -0.080523
v 0.051245 0.241092 -0.082192
v 0.315781 0.081428 -0.104860
v 0.053346 0.938533 0.641020
v -0.023155 0.952276 0.650896
v -0.024074 0.938053 0.641744
v -0.074375 0.860628 -0.291978
v -0.051650 0.860767 -0.292193
v -0.099971 0.937593 0.642439
v -0.024074 0.938053 0.641744
v -0.023155 0.952276 0.650896
v -0.024491 0.954008 0.602371
v -0.103168 0.916021 0.600392
v -0.094934 0.921059 0.697720
v -0.018184 0.887338 0.804547
v -0.021997 0.944460 0.692307
v -0.040129 0.958155 0.117724
v -0.214071 0.832735 0.168053
v 0.112999 0.854155 0.603777
v 0.100727 0.826159 0.606323
v 0.120751 0.797215 0.608707
v 0.088642 0.808859 0.601552
v -0.035778 1.046265 0.280810
v -0.022361 1.009824 0.302817
v -0.062596 0.658216 -0.680195
v -0.031091 0.658419 -0.680493
v -0.443761 0.292685 -0.662959
v -0.493646 0.044868 -0.214607
v -0.514354 0.063368 -0.156768
v -0.122443 0.811114 0.766033
v -0.146769 0.824650 0.608606
v -0.131746 0.826883 0.620849
v -0.240704 0.669552 0.242827
v -0.225444 0.610204 0.403364
v -0.146116 0.636828 0.283076
v -0.134627 0.807502 0.603608
v 0.173378 0.672098 0.239007
v 0.080879 0.638222 0.280981
v 0.168783 0.612938 0.399820
v 0.088642 0.808859 0.601552
v 0.100727 0.826159 0.606323
v 0.084473 0.828212 0.618853
v -0.034687 1.009754 0.302931
v 0.084835 0.812392 0.764133
v 0.035577 0.821367 0.619642
v -0.023745 0.835257 0.619486
v 0.050350 0.803887 0.602324
v -0.022456 0.783161 0.611183
v -0.096207 0.802995 0.603678
v -0.082703 0.820649 0.620743
v -0.016930 0.773480 0.810763
v -0.016490 0.801220 0.833512
v -0.122443 0.811114 0.766033
v -0.025784 1.011800 0.580539
v -0.012326 1.011890 0.580413
v -0.026519 1.004524 0.555479
v -0.014016 1.005678 0.601036
v -0.024893 1.006703 0.606886
v -0.026519 1.004524 0.555479
v -0.017196 0.984991 0.561055
v -0.026131 0.984944 0.561130
v 0.082564 0.776808 0.708708
v 0.088642 0.808859 0.601552
v 0.084473 0.828212 0.618853
v 0.117622 0.733261 0.516255
v 0.125040 0.763390 0.425251
v 0.121568 0.784763 0.425142
v -0.035085 0.984882 0.561206
v -0.026131 0.984944 0.561130
v -0.026252 0.971361 0.553220
v -0.168608 0.731331 0.518765
v -0.129626 0.759595 0.401111
v -0.111294 0.773872 0.429608
v 0.013610 0.765184 0.515155
v 0.007525 0.727327 0.545926
v -0.006429 0.749688 0.468237
v 0.053507 0.774882 0.428092
v 0.071554 0.760837 0.399245
v 0.121568 0.784763 0.425142
v 0.053507 0.774882 0.428092
v 0.117622 0.733261 0.516255
v -0.181418 0.761506 0.428078
v -0.179077 0.782915 0.427919
v -0.168608 0.731331 0.518765
v -0.111294 0.773872 0.429608
v -0.179077 0.782915 0.427919
v -0.018826 0.788022 0.756624
v -0.122443 0.811114 0.766033
v -0.042508 0.930218 0.034916
v 0.004270 0.910432 0.049111
v -0.043208 0.872389 -0.005008
v 0.098406 0.810989 0.012225
v -0.045501 0.845580 -0.085164
v -0.048327 0.825610 -0.189495
v 0.186517 0.626012 0.182086
v 0.198915 0.678097 0.208973
v 0.134741 0.807991 0.161935
v -0.039998 0.927420 0.112112
v -0.122854 0.775461 0.710402
v -0.096207 0.802995 0.603678
v -0.082703 0.820649 0.620743
v -0.035778 1.046265 0.280810
v -0.034687 1.009754 0.302931
v 0.035577 0.821367 0.619642
v 0.050350 0.803887 0.602324
v -0.134627 0.807502 0.603608
v -0.042766 0.963804 0.037044
v -0.131746 0.826883 0.620849
v -0.122854 0.775461 0.710402
v -0.082703 0.820649 0.620743
v -0.324646 0.442804 0.022311
v -0.131746 0.826883 0.620849
v 0.286536 0.450337 0.037955
v 0.159776 0.436619 0.057342
v 0.340689 0.354132 0.207662
v -0.323535 0.481429 0.021467
v -0.385335 0.356039 0.223193
v -0.227620 0.413032 0.079920
v 0.084473 0.828212 0.618853
v 0.035577 0.821367 0.619642
v 0.082564 0.776808 0.708708
v -0.246899 0.389784 -0.716917
v -0.446918 0.053303 -0.909833
v -0.352313 0.446641 -0.426584
v -0.451584 0.289548 -0.321553
v -0.493646 0.044868 -0.214607
v -0.363318 0.388442 0.076494
v -0.374186 0.538647 -0.009296
v -0.391363 0.561576 -0.041580
v -0.024086 0.828258 -0.637719
v -0.017299 0.803555 -0.694367
v -0.062842 0.838002 -0.629777
v -0.065013 0.811955 -0.703060
v -0.038204 0.717832 -0.732576
v -0.065367 0.726363 -0.741471
v -0.270437 0.681087 -0.108477
v -0.048327 0.825610 -0.189495
v -0.358014 0.485130 -0.017961
v -0.343798 0.388045 0.013983
v 0.469767 0.057431 -0.245617
v 0.418634 0.050688 -0.223339
v -0.032499 0.981333 0.361797
v -0.066794 0.990095 0.353301
v -0.145019 0.904733 0.383518
v -0.164140 0.916046 0.379658
v -0.198563 0.794206 0.422556
v -0.217398 0.833642 0.408818
v -0.225297 0.751565 0.437788
v -0.181418 0.761506 0.428078
v -0.007934 0.995654 0.597577
v -0.024901 0.996634 0.603488
v -0.000145 0.961367 0.595712
v -0.024491 0.954008 0.602371
v 0.054779 0.916991 0.598935
v 0.072326 0.910873 0.599282
v -0.001372 0.959883 0.557261
v -0.026252 0.971361 0.553220
v -0.028652 0.959562 0.474834
v 0.057428 0.925639 0.497476
v -0.032499 0.981333 0.361797
v -0.000145 0.961367 0.595712
v -0.014016 1.005678 0.601036
v -0.007934 0.995654 0.597577
v -0.012326 1.011890 0.580413
v -0.050616 0.959570 0.557708
v -0.028652 0.959562 0.474834
v -0.241966 0.310199 -0.886950
v -0.073999 0.338426 -0.917172
v -0.039165 0.302873 -1.148134
v -0.039865 0.053581 -1.404752
v -0.508021 0.203284 -0.372032
v -0.388128 0.406127 -0.524122
v -0.145620 0.532907 -0.611120
v -0.094097 0.658014 -0.679898
v -0.111919 0.802950 -0.693464
v -0.091743 0.717488 -0.732062
v 0.494139 0.083835 -0.492970
v 0.354018 0.189915 -0.771828
v 0.413383 0.193194 -0.353102
v 0.243440 0.420827 -0.533102
v -0.062342 0.452535 -0.741330
v -0.061474 0.589360 -0.668873
v -0.298364 0.056180 -0.196113
v -0.041919 0.090685 -0.233752
v -0.167439 0.132127 -0.238611
v 0.082351 0.133660 -0.240921
v 0.217268 0.063821 -0.186449
v -0.038204 0.717832 -0.732576
v -0.017299 0.803555 -0.694367
v -0.024086 0.828258 -0.637719
v -0.017196 0.984991 0.561055
v 0.051448 0.921962 0.696356
v -0.021997 0.944460 0.692307
v -0.018184 0.887338 0.804547
v -0.035085 0.984882 0.561206
v -0.039220 1.011725 0.580665
v -0.026519 1.004524 0.555479
v 0.268206 0.393238 0.010051
v -0.057503 0.621933 -0.539694
v 0.418634 0.050688 -0.223339
v 0.357964 0.073134 -0.226344
v -0.443364 0.076001 -0.211067
v -0.493646 0.044868 -0.214607
v -0.024893 1.006703 0.606886
v -0.014016 1.005678 0.601036
v -0.033836 1.061307 0.345868
v -0.018734 1.058399 0.341039
v -0.033836 1.061307 0.345868
v -0.035158 1.068326 0.307083
v -0.049179 1.058216 0.341326
v -0.053337 1.058117 0.314907
v -0.047033 1.009669 0.303047
v -0.035778 1.046265 0.280810
v -0.044202 1.008394 0.006898
v -0.044202 1.008394 0.006898
v -0.057984 0.998558 0.015150
v -0.043544 1.042790 0.038397
v -0.068194 1.032894 0.046762
v -0.053612 0.914848 -0.335859
v -0.072535 0.905650 -0.326848
v -0.065367 0.726363 -0.741471
v 0.001027 0.990501 0.352669
v 0.101514 0.917677 0.377210
v 0.158292 0.835955 0.405361
v 0.154520 0.804400 0.277919
v 0.169708 0.753975 0.434139
v 0.166156 0.724914 0.313816
v 0.198915 0.678097 0.208973
v 0.173378 0.672098 0.239007
v -0.039998 0.927420 0.112112
v -0.208967 0.805888 0.165118
v 0.292788 0.392467 0.070448
v 0.268206 0.393238 0.010051
v 0.306349 0.392197 0.007436
v 0.273528 0.316273 -0.118036
v 0.322852 0.317675 -0.114160
v 0.343573 0.178791 -0.216056
v 0.381609 0.179965 -0.212413
v 0.357964 0.073134 -0.226344
v -0.053612 0.914848 -0.335859
v -0.072535 0.905650 -0.326848
v -0.065367 0.726363 -0.741471
v -0.062596 0.658216 -0.680195
v -0.065367 0.726363 -0.741471
v -0.091743 0.717488 -0.732062
v -0.065013 0.811955 -0.703060
v -0.111919 0.802950 -0.693464
v -0.062671 1.036680 0.081147
v -0.041988 1.040512 0.085608
v -0.041988 1.040512 0.085608
v -0.021568 1.036934 0.080767
v 0.366473 0.240173 -0.297883
v 0.418634 0.050688 -0.223339
v -0.057503 0.621933 -0.539694
v 0.248367 0.450484 -0.432360
v -0.010192 1.042050 0.341065
v -0.016282 1.058348 0.314555
v -0.018734 1.058399 0.341039
v 0.134741 0.807991 0.161935
v 0.186517 0.626012 0.182086
v 0.177037 0.627563 0.222399
v -0.267403 0.675233 0.213279
v -0.259056 0.622901 0.186294
v -0.062842 0.838002 -0.629777
v -0.101876 0.827759 -0.636964
v -0.062842 0.838002 -0.629777
v 0.176490 0.692116 0.062016
v 0.217799 0.630892 0.175229
v 0.233858 0.577492 0.110922
v 0.279120 0.489038 -0.023837
v 0.280016 0.469405 0.033393
v 0.268206 0.393238 0.010051
v -0.018177 1.033203 0.046298
v 0.181778 0.683859 -0.112645
v 0.013610 0.765184 0.515155
v 0.088642 0.808859 0.601552
v -0.024210 0.760527 0.545444
v 0.050350 0.803887 0.602324
v -0.022456 0.783161 0.611183
v -0.096207 0.802995 0.603678
v -0.134627 0.807502 0.603608
v -0.065204 0.764698 0.515876
v -0.166036 0.795472 0.611357
v -0.169631 0.806114 0.503265
v -0.179077 0.782915 0.427919
v -0.111294 0.773872 0.429608
v -0.048574 0.749432 0.468624
v -0.029494 0.797952 0.396969
v -0.129626 0.759595 0.401111
v -0.027527 0.645019 0.420253
v -0.181418 0.761506 0.428078
v -0.228874 0.722485 0.317467
v -0.225297 0.751565 0.437788
v -0.006429 0.749688 0.468237
v -0.243643 0.624984 0.226282
v -0.259056 0.622901 0.186294
v -0.169583 0.589168 0.278235
v -0.493646 0.044868 -0.214607
v -0.086829 0.961670 -0.292887
v 0.285053 0.535851 -0.090177
v 0.266893 0.452655 -0.235942
v 0.184771 0.673772 -0.187838
v 0.418634 0.050688 -0.223339
v 0.366473 0.240173 -0.297883
v 0.248367 0.450484 -0.432360
v -0.018595 0.962084 -0.293514
v -0.065204 0.764698 0.515876
v -0.056814 0.726937 0.546526
v -0.024210 0.760527 0.545444
v -0.048574 0.749432 0.468624
v -0.024210 0.760527 0.545444
v -0.023433 0.737367 0.579112
v -0.042193 0.995443 0.597895
v -0.024901 0.996634 0.603488
v -0.036110 1.005541 0.601235
v -0.024893 1.006703 0.606886
v 0.112999 0.854155 0.603777
v 0.120751 0.797215 0.608707
v 0.108884 0.895493 0.488299
v 0.117175 0.807874 0.500613
v 0.072326 0.910873 0.599282
v 0.082887 0.906190 0.381397
v 0.141148 0.796290 0.419412
v 0.121568 0.784763 0.425142
v 0.125040 0.763390 0.425251
v 0.286536 0.450337 0.037955
v 0.252703 0.404627 -0.002681
v -0.042193 0.995443 0.597895
v -0.039220 1.011725 0.580665
v -0.036110 1.005541 0.601235
v -0.305557 0.092198 -0.113734
v -0.049407 0.961056 0.596174
v -0.024491 0.954008 0.602371
v -0.103168 0.916021 0.600392
v -0.120550 0.909691 0.601061
v -0.159763 0.852490 0.606295
v -0.146769 0.824650 0.608606
v -0.166036 0.795472 0.611357
v -0.134627 0.807502 0.603608
v -0.032829 0.634295 0.250360
v 0.080879 0.638222 0.280981
v -0.012204 0.654891 0.285264
v 0.025626 0.642625 0.386146
v 0.173378 0.672098 0.239007
v 0.166156 0.724914 0.313816
v 0.125040 0.763390 0.425251
v 0.071554 0.760837 0.399245
v 0.053507 0.774882 0.428092
v 0.121568 0.784763 0.425142
v -0.146116 0.636828 0.283076
v -0.084155 0.641953 0.387157
v -0.240704 0.669552 0.242827
v -0.053890 0.654635 0.285652
v 0.169708 0.753975 0.434139
v 0.120751 0.797215 0.608707
v 0.117175 0.807874 0.500613
v 0.268206 0.393238 0.010051
v 0.252703 0.404627 -0.002681
v -0.129436 0.239983 -0.080523
v -0.036636 0.265042 -0.066740
v -0.282154 0.293550 -0.098887
v 0.315781 0.081428 -0.104860
v -0.305557 0.092198 -0.113734
v -0.418064 0.089707 -0.087828
v -0.431116 0.174040 -0.208906
v -0.355233 0.309026 -0.115160
v -0.343798 0.388045 0.013983
v 0.195633 0.295679 -0.102578
v -0.324646 0.442804 0.022311
v -0.025784 1.011800 0.580539
v -0.036110 1.005541 0.601235
v -0.024893 1.006703 0.606886
v -0.036636 0.265042 -0.066740
v 0.207757 0.613366 0.242254
v 0.186517 0.626012 0.182086
v 0.202705 0.575510 0.112465
v 0.343573 0.178791 -0.216056
v 0.273528 0.316273 -0.118036
v 0.433662 0.073397 -0.099071
v 0.051245 0.241092 -0.082192
v -0.028991 0.426411 0.314915
v -0.031613 0.474575 0.215122
v -0.031613 0.474575 0.215122
v -0.026519 1.004524 0.555479
v -0.015005 0.851039 0.895571
v -0.010860 0.790488 1.005322
v 0.028506 0.822400 0.878962
v 0.042785 0.863796 0.779895
v 0.084835 0.812392 0.764133
v 0.100727 0.826159 0.606323
v 0.054779 0.916991 0.598935
v -0.278477 0.673128 -0.186516
v -0.370665 0.526641 -0.094575
v -0.372700 0.423719 -0.207443
v -0.352313 0.446641 -0.426584
v -0.057503 0.621933 -0.539694
v -0.451584 0.289548 -0.321553
v -0.036636 0.265042 -0.066740
v -0.024491 0.954008 0.602371
v -0.131746 0.826883 0.620849
v -0.080303 0.863035 0.781032
v -0.014872 0.803901 0.884529
v -0.058974 0.821874 0.879766
v -0.010860 0.790488 1.005322
v -0.016930 0.773480 0.810763
v -0.017252 0.767143 0.799289
v -0.018826 0.788022 0.756624
v -0.035778 1.046265 0.280810
v -0.015005 0.851039 0.895571
v -0.058974 0.821874 0.879766
v -0.010860 0.790488 1.005322
v -0.080303 0.863035 0.781032
v -0.122443 0.811114 0.766033
v -0.146769 0.824650 0.608606
v -0.014872 0.803901 0.884529
v -0.016490 0.801220 0.833512
v -0.016930 0.773480 0.810763
v -0.016930 0.773480 0.810763
v -0.017252 0.767143 0.799289
v -0.478025 0.057421 -0.083280
v -0.041798 0.057392 -0.074546
v -0.205823 0.057392 -1.215108
v -0.473396 0.057407 -0.213182
v -0.491488 0.057421 -0.220094
v -0.551134 0.057384 -0.669429
v 0.442550 0.057389 -0.828219
v 0.416785 0.057406 -0.225981
v 0.024108 0.057388 -0.026874
v -0.455458 0.057386 -0.980488
v 0.375811 0.057388 -0.915920
v -0.491601 0.057391 -0.213658
v 0.400503 0.057396 -0.224237
v 0.448571 0.057408 -0.089023
v -0.451650 0.057393 -0.868983
v -0.350872 0.057417 -0.077651
v -0.563435 0.057386 -0.212519
v 0.218804 0.057391 -0.188784
v 0.325207 0.057400 -0.105143
v -0.147066 0.057413 -0.024424
v 0.533509 0.057392 -0.508706
v 0.423596 0.057389 -0.217199
v -0.439810 0.057396 -0.058652
v 0.020949 0.057406 0.126475
v 0.395527 0.057431 -0.161602
v -0.485038 0.057387 -0.852059
v -0.507660 0.057388 -0.175465
v -0.039854 0.057385 -1.400836
v -0.491491 0.057404 -0.220087
v 0.467633 0.057387 -0.930821
v -0.001625 0.057392 -0.058807
v -0.445315 0.057394 -0.910202
v -0.027694 0.057416 0.186147
v -0.547662 0.057391 -0.731038
v -0.505517 0.057412 -0.589443
v -0.445754 0.057393 -0.908048
v 0.400516 0.057391 -0.224236
v -0.431923 0.057392 -1.031077
v -0.330355 0.057415 -0.107426
v 0.016614 0.057397 0.003612
v 0.453328 0.057422 -0.118604
v -0.531745 0.057389 -0.199607
v 0.279726 0.057396 -1.210376
v 0.502465 0.057411 -0.475759
v 0.502082 0.057391 -0.876850
v -0.308718 0.057398 -1.133556
v 0.560973 0.057408 -0.663344
v -0.041150 0.057399 -0.228162
v -0.103560 0.057390 0.117215
v -0.027694 0.057416 0.186147
v 0.423596 0.057389 -0.217199
v 0.370271 0.057409 -0.208859
v -0.072386 0.057388 -0.060345
v -0.370308 0.057391 -1.055587
v -0.478031 0.057407 -0.083265
v 0.503444 0.057387 -0.839256
v 0.453334 0.057415 -0.118598
v 0.016614 0.057396 0.003613
v -0.080866 0.057423 0.126820
v 0.495526 0.057388 -0.867746
v 0.351889 0.057402 -0.089669
v -0.515637 0.057393 -0.759937
v -0.530284 0.057391 -0.429800
v -0.493835 0.057406 -0.217859
v 0.274803 0.057428 -1.052287
v 0.416714 0.057393 -0.222772
v 0.120248 0.057395 -0.030592
v -0.473396 0.057407 -0.213182
v 0.041734 0.057405 0.116821
v 0.315903 0.057388 -0.204519
v -0.550981 0.057409 -0.248024
v -0.507660 0.057388 -0.175465
v 0.227962 0.057411 -0.180210
v 0.503440 0.057391 -0.839254
v -0.447511 0.057404 -0.185785
v -0.350872 0.057417 -0.077651
v -0.548620 0.057426 -0.255865
v -0.087959 0.057417 0.004287
v -0.039854 0.057385 -1.400836
v 0.442552 0.057387 -0.828220
v 0.211031 0.057385 -0.186425
v 0.351889 0.057402 -0.089669
v -0.087959 0.057417 0.004287
v 0.489122 0.057393 -0.882628
v -0.097606 0.057402 -0.027849
v 0.234459 0.057424 -0.181770
v 0.543358 0.057388 -0.530761
v -0.333519 0.057399 -1.091076
v 0.416786 0.057400 -0.225979
v -0.450774 0.057421 -0.139801
vt 0.667100 0.238200
vt 0.685100 0.231300
vt 0.674400 0.266500
vt 0.301700 0.499400
vt 0.304400 0.493600
vt 0.347300 0.513300
vt 0.348600 0.508200
vt 0.379200 0.527300
vt 0.381100 0.521200
vt 0.852100 0.525100
vt 0.846100 0.565300
vt 0.838200 0.523900
vt 0.794600 0.597100
vt 0.848700 0.597900
vt 0.200500 0.610700
vt 0.222000 0.626000
vt 0.194400 0.615200
vt 0.219800 0.631600
vt 0.285500 0.651900
vt 0.288900 0.646100
vt 0.353600 0.676000
vt 0.358600 0.666800
vt 0.400500 0.675500
vt 0.390900 0.682000
vt 0.226700 0.462100
vt 0.221200 0.476000
vt 0.222200 0.459700
vt 0.216100 0.477000
vt 0.223400 0.498100
vt 0.218700 0.500900
vt 0.941000 0.338000
vt 0.911200 0.338300
vt 0.940006 0.330757
vt 0.886600 0.612800
vt 0.889400 0.616800
vt 0.859200 0.634300
vt 0.860700 0.638800
vt 0.800100 0.654600
vt 0.946923 0.310865
vt 0.966600 0.317600
vt 0.957688 0.475003
vt 0.982400 0.454300
vt 0.958200 0.477300
vt 0.650500 0.245100
vt 0.633900 0.322100
vt 0.635700 0.311800
vt 0.642200 0.317500
vt 0.638100 0.282600
vt 0.656200 0.276600
vt 0.635200 0.251700
vt 0.671700 0.305700
vt 0.697600 0.297100
vt 0.701600 0.531400
vt 0.710500 0.528500
vt 0.703800 0.540400
vt 0.711000 0.539900
vt 0.712100 0.594200
vt 0.704500 0.594000
vt 0.695800 0.654200
vt 0.700600 0.656500
vt 0.682000 0.672200
vt 0.470800 0.332100
vt 0.469300 0.336700
vt 0.449300 0.325400
vt 0.788800 0.501600
vt 0.840400 0.486100
vt 0.791300 0.507000
vt 0.843300 0.490200
vt 0.860300 0.479400
vt 0.856800 0.475200
vt 0.866900 0.473300
vt 0.862000 0.472500
vt 0.239100 0.803100
vt 0.243732 0.831922
vt 0.230190 0.842391
vt 0.257300 0.806400
vt 0.250404 0.827301
vt 0.257100 0.747400
vt 0.176800 0.793500
vt 0.145100 0.853700
vt 0.202300 0.726800
vt 0.226000 0.675200
vt 0.200900 0.674400
vt 0.877400 0.484300
vt 0.872200 0.487300
vt 0.870100 0.471900
vt 0.866900 0.473300
vt 0.897200 0.607300
vt 0.892800 0.606300
vt 0.398800 0.326700
vt 0.391400 0.326900
vt 0.389400 0.319500
vt 0.391900 0.353500
vt 0.416000 0.360500
vt 0.385400 0.388200
vt 0.724600 0.320900
vt 0.715400 0.329800
vt 0.708000 0.329500
vt 0.719200 0.354300
vt 0.695000 0.360900
vt 0.724600 0.393900
vt 0.447400 0.329900
vt 0.423700 0.322300
vt 0.425100 0.317900
vt 0.399400 0.311900
vt 0.402000 0.308400
vt 0.387600 0.304400
vt 0.391000 0.301500
vt 0.708400 0.315600
vt 0.687800 0.321400
vt 0.720300 0.308300
vt 0.725500 0.309000
vt 0.723800 0.304800
vt 0.682200 0.405000
vt 0.775200 0.381500
vt 0.771000 0.379200
vt 0.779900 0.376800
vt 0.776100 0.374100
vt 0.312500 0.373400
vt 0.309900 0.380800
vt 0.309200 0.371800
vt 0.306400 0.381800
vt 0.320700 0.399100
vt 0.317700 0.403200
vt 0.311200 0.397000
vt 0.308800 0.400600
vt 0.311200 0.397000
vt 0.308800 0.400600
vt 0.876600 0.467400
vt 0.857000 0.467000
vt 0.874000 0.448900
vt 0.861600 0.447600
vt 0.867300 0.403000
vt 0.804100 0.298300
vt 0.835900 0.341700
vt 0.813400 0.342300
vt 0.818100 0.361200
vt 0.895700 0.450400
vt 0.801000 0.344900
vt 0.777800 0.348800
vt 0.798500 0.363200
vt 0.660800 0.518500
vt 0.654700 0.514300
vt 0.669900 0.468100
vt 0.663200 0.469600
vt 0.665900 0.437000
vt 0.661200 0.438500
vt 0.664600 0.425800
vt 0.659200 0.428100
vt 0.837100 0.449900
vt 0.067900 0.689200
vt 0.084300 0.688200
vt 0.069100 0.729400
vt 0.090000 0.727200
vt 0.991900 0.442700
vt 0.972286 0.414764
vt 0.998700 0.428200
vt 0.074700 0.669500
vt 0.098300 0.674400
vt 0.103900 0.693900
vt 0.049100 0.698100
vt 0.051900 0.677900
vt 0.720300 0.308300
vt 0.718700 0.305300
vt 0.723800 0.304800
vt 0.722200 0.303100
vt 0.381600 0.305900
vt 0.376000 0.306100
vt 0.383500 0.301800
vt 0.380200 0.299200
vt 0.906100 0.416000
vt 0.891400 0.415200
vt 0.904800 0.400900
vt 0.895800 0.399300
vt 0.901300 0.368000
vt 0.869100 0.333900
vt 0.888800 0.368300
vt 0.872600 0.365700
vt 0.874600 0.381600
vt 0.664400 0.329500
vt 0.669100 0.370900
vt 0.646500 0.416300
vt 0.647200 0.375800
vt 0.638400 0.405800
vt 0.632000 0.420200
vt 0.631400 0.413300
vt 0.642800 0.337000
vt 0.877600 0.401800
vt 0.863400 0.366600
vt 0.859800 0.381400
vt 0.845900 0.369000
vt 0.918500 0.405000
vt 0.701600 0.459800
vt 0.690000 0.416600
vt 0.667400 0.528800
vt 0.721600 0.511800
vt 0.738000 0.448300
vt 0.723500 0.404900
vt 0.760300 0.414700
vt 0.764500 0.389100
vt 0.773300 0.405100
vt 0.784100 0.386900
vt 0.782800 0.403100
vt 0.775100 0.498600
vt 0.651900 0.540100
vt 0.229500 0.459900
vt 0.236700 0.464700
vt 0.226700 0.462100
vt 0.233100 0.468400
vt 0.252400 0.473000
vt 0.250000 0.479600
vt 0.803000 0.662100
vt 0.739600 0.678400
vt 0.737500 0.672300
vt 0.693500 0.686400
vt 0.688400 0.680500
vt 0.236500 0.500600
vt 0.230400 0.503700
vt 0.223400 0.498100
vt 0.218700 0.500900
vt 0.403300 0.412500
vt 0.406200 0.406800
vt 0.428700 0.423300
vt 0.432000 0.417100
vt 0.320800 0.373600
vt 0.332700 0.380000
vt 0.317200 0.377200
vt 0.329300 0.385200
vt 0.369900 0.400700
vt 0.373200 0.394600
vt 0.579400 0.315900
vt 0.561200 0.304700
vt 0.572700 0.293400
vt 0.551500 0.287700
vt 0.546400 0.316100
vt 0.543600 0.286800
vt 0.532100 0.303900
vt 0.521700 0.292100
vt 0.534300 0.256500
vt 0.769900 0.468500
vt 0.766600 0.439800
vt 0.770500 0.415200
vt 0.688100 0.413500
vt 0.664200 0.421600
vt 0.561000 0.256500
vt 0.595100 0.293600
vt 0.593200 0.239600
vt 0.547600 0.250200
vt 0.513400 0.314100
vt 0.509500 0.197300
vt 0.522100 0.197400
vt 0.506700 0.209000
vt 0.503500 0.239000
vt 0.499600 0.291600
vt 0.187000 0.735300
vt 0.162500 0.750100
vt 0.161500 0.704800
vt 0.240500 0.514200
vt 0.254300 0.513300
vt 0.245700 0.554600
vt 0.287700 0.587300
vt 0.242600 0.587100
vt 0.238500 0.615900
vt 0.350600 0.503300
vt 0.307100 0.488500
vt 0.255700 0.469200
vt 0.116100 0.723800
vt 0.135900 0.703000
vt 0.134600 0.747300
vt 0.949773 0.289329
vt 0.975800 0.306800
vt 0.966600 0.317600
vt 0.096500 0.932400
vt 0.077055 0.971477
vt 0.076578 0.920106
vt 0.931100 0.480200
vt 0.956224 0.474855
vt 0.007900 0.930900
vt 0.028513 0.918994
vt 0.028535 0.972543
vt 0.976564 0.447061
vt 0.987029 0.438674
vt 0.656800 0.138300
vt 0.642200 0.139800
vt 0.644000 0.134100
vt 0.856400 0.511500
vt 0.860800 0.517700
vt 0.767900 0.133800
vt 0.780700 0.129600
vt 0.782700 0.135200
vt 0.777200 0.150700
vt 0.760900 0.150000
vt 0.763000 0.117200
vt 0.754400 0.083800
vt 0.775400 0.114700
vt 0.761000 0.386100
vt 0.722000 0.401800
vt 0.445800 0.249800
vt 0.449100 0.243200
vt 0.461300 0.256700
vt 0.462800 0.248700
vt 0.383000 0.319200
vt 0.389400 0.319500
vt 0.190300 0.661200
vt 0.196300 0.655400
vt 0.684311 0.694746
vt 0.683600 0.689800
vt 0.731200 0.109700
vt 0.734800 0.158000
vt 0.732100 0.154500
vt 0.888800 0.368300
vt 0.869100 0.333900
vt 0.900900 0.357500
vt 0.731400 0.164100
vt 0.931600 0.391600
vt 0.918500 0.405000
vt 0.901300 0.368000
vt 0.695500 0.165600
vt 0.691700 0.160200
vt 0.694400 0.156100
vt 0.728600 0.323200
vt 0.691700 0.110800
vt 0.703100 0.155800
vt 0.713100 0.152400
vt 0.699900 0.165100
vt 0.713600 0.169000
vt 0.727000 0.164000
vt 0.723500 0.155000
vt 0.710900 0.098100
vt 0.725700 0.085600
vt 0.731200 0.109700
vt 0.395700 0.227800
vt 0.399200 0.230000
vt 0.395800 0.231900
vt 0.401800 0.224800
vt 0.398200 0.222100
vt 0.395800 0.231900
vt 0.405500 0.236400
vt 0.402500 0.237300
vt 0.933000 0.349900
vt 0.933600 0.381800
vt 0.922400 0.377100
vt 0.968800 0.361600
vt 0.963300 0.397100
vt 0.953000 0.387400
vt 0.697300 0.234800
vt 0.701100 0.236400
vt 0.691100 0.241700
vt 0.843300 0.373700
vt 0.835500 0.408700
vt 0.825700 0.399000
vt 0.008500 0.652600
vt 0.024200 0.650100
vt 0.024700 0.680800
vt 0.984200 0.386900
vt 0.974300 0.396900
vt 0.991700 0.377600
vt 0.984200 0.386900
vt 0.968800 0.361600
vt 0.846500 0.409400
vt 0.856800 0.399300
vt 0.843300 0.373700
vt 0.865900 0.391700
vt 0.856800 0.399300
vt 0.711600 0.114000
vt 0.731200 0.109700
vt 0.323500 0.409100
vt 0.333600 0.408700
vt 0.327400 0.433800
vt 0.355800 0.442400
vt 0.323900 0.462500
vt 0.319800 0.487700
vt 0.434200 0.413000
vt 0.408000 0.402700
vt 0.375700 0.390800
vt 0.336800 0.375300
vt 0.818400 0.407100
vt 0.812200 0.438200
vt 0.802000 0.431700
vt 0.383000 0.319200
vt 0.387500 0.322400
vt 0.951500 0.372100
vt 0.942000 0.380600
vt 0.820600 0.439000
vt 0.775800 0.408400
vt 0.831400 0.432300
vt 0.818400 0.407100
vt 0.838200 0.427100
vt 0.647100 0.535800
vt 0.831400 0.432300
vt 0.910100 0.433100
vt 0.895700 0.450400
vt 0.867300 0.403000
vt 0.835900 0.341700
vt 0.804100 0.298300
vt 0.851000 0.325100
vt 0.956100 0.364800
vt 0.951500 0.372100
vt 0.933000 0.349900
vt 0.850400 0.751000
vt 0.871737 0.803751
vt 0.861707 0.796144
vt 0.798300 0.649300
vt 0.736600 0.668100
vt 0.690209 0.677302
vt 0.688174 0.679627
vt 0.708800 0.525300
vt 0.742600 0.514600
vt 0.746000 0.519400
vt 0.186000 0.605900
vt 0.177200 0.620000
vt 0.182300 0.602100
vt 0.171200 0.617000
vt 0.178500 0.650900
vt 0.172600 0.653700
vt 0.785900 0.497300
vt 0.835100 0.479000
vt 0.739900 0.510500
vt 0.706600 0.522400
vt 0.392600 0.695700
vt 0.400032 0.689384
vt 0.707200 0.311400
vt 0.708400 0.315600
vt 0.687200 0.318300
vt 0.687800 0.321400
vt 0.663100 0.326400
vt 0.664400 0.329500
vt 0.642800 0.337000
vt 0.642300 0.333700
vt 0.404100 0.227500
vt 0.407500 0.223500
vt 0.412200 0.232000
vt 0.414800 0.227800
vt 0.431400 0.235100
vt 0.429500 0.240800
vt 0.412000 0.242000
vt 0.406600 0.241900
vt 0.405700 0.268300
vt 0.423100 0.266800
vt 0.399600 0.297200
vt 0.412200 0.232000
vt 0.401800 0.224800
vt 0.404100 0.227500
vt 0.399200 0.230000
vt 0.685700 0.241800
vt 0.691800 0.268100
vt 0.893100 0.804600
vt 0.916500 0.798100
vt 0.921793 0.846900
vt 0.914699 0.847375
vt 0.951100 0.857500
vt 0.693885 0.695304
vt 0.742300 0.704900
vt 0.807600 0.698500
vt 0.861000 0.682100
vt 0.889500 0.661200
vt 0.906700 0.625500
vt 0.906800 0.656000
vt 0.815300 0.766200
vt 0.808965 0.794793
vt 0.779751 0.767324
vt 0.351400 0.761900
vt 0.272900 0.812600
vt 0.258230 0.828243
vt 0.254130 0.827877
vt 0.355495 0.771958
vt 0.351957 0.776543
vt 0.328461 0.810248
vt 0.276185 0.838534
vt 0.352100 0.697200
vt 0.274100 0.688200
vt 0.886400 0.732600
vt 0.885800 0.680200
vt 0.588900 0.472400
vt 0.544500 0.478600
vt 0.564700 0.464700
vt 0.525100 0.464800
vt 0.500200 0.471000
vt 0.178500 0.650900
vt 0.177200 0.620000
vt 0.186000 0.605900
vt 0.405500 0.236400
vt 0.661200 0.122300
vt 0.649200 0.119200
vt 0.663200 0.087400
vt 0.743636 0.729855
vt 0.698717 0.704900
vt 0.697537 0.703006
vt 0.814336 0.798914
vt 0.697300 0.234800
vt 0.698400 0.228000
vt 0.702400 0.227900
vt 0.383100 0.516300
vt 0.854500 0.624400
vt 0.467900 0.485200
vt 0.470111 0.480717
vt 0.484378 0.477956
vt 0.613300 0.474200
vt 0.618198 0.481726
vt 0.404300 0.220800
vt 0.401800 0.224800
vt 0.387700 0.299200
vt 0.383500 0.301800
vt 0.726300 0.302500
vt 0.729800 0.305800
vt 0.723800 0.304800
vt 0.725500 0.309000
vt 0.724600 0.320900
vt 0.731000 0.314200
vt 0.787100 0.406400
vt 0.787100 0.406400
vt 0.782800 0.403100
vt 0.787600 0.385000
vt 0.784100 0.386900
vt 0.874300 0.513300
vt 0.869500 0.509300
vt 0.172600 0.653700
vt 0.501274 0.473139
vt 0.399400 0.311900
vt 0.423700 0.322300
vt 0.447400 0.329900
vt 0.441700 0.371000
vt 0.469300 0.336700
vt 0.463500 0.376300
vt 0.463500 0.416700
vt 0.468800 0.408400
vt 0.758900 0.383600
vt 0.722000 0.399400
vt 0.388400 0.527600
vt 0.387700 0.536500
vt 0.380200 0.535100
vt 0.386800 0.585400
vt 0.379500 0.585400
vt 0.402000 0.642600
vt 0.394700 0.646000
vt 0.414600 0.659000
vt 0.358218 0.762264
vt 0.874300 0.513300
vt 0.869500 0.509300
vt 0.916300 0.660200
vt 0.897800 0.668400
vt 0.916300 0.660200
vt 0.906800 0.656000
vt 0.914000 0.622900
vt 0.906700 0.625500
vt 0.779900 0.376800
vt 0.783000 0.375200
vt 0.315400 0.368400
vt 0.312500 0.373400
vt 0.360400 0.660500
vt 0.395400 0.670000
vt 0.396522 0.671210
vt 0.394160 0.669663
vt 0.227800 0.615900
vt 0.293200 0.640600
vt 0.387600 0.304400
vt 0.381600 0.305900
vt 0.383500 0.301800
vt 0.428000 0.404800
vt 0.471900 0.424100
vt 0.476000 0.419100
vt 0.683600 0.410900
vt 0.661500 0.417300
vt 0.190900 0.602000
vt 0.897200 0.607300
vt 0.905600 0.604400
vt 0.392200 0.453900
vt 0.426600 0.436300
vt 0.423900 0.464500
vt 0.426300 0.522900
vt 0.435500 0.511900
vt 0.448600 0.539400
vt 0.309900 0.380800
vt 0.372200 0.506000
vt 0.543700 0.049500
vt 0.529800 0.017900
vt 0.549700 0.043200
vt 0.536400 0.018200
vt 0.549800 0.017600
vt 0.563200 0.018200
vt 0.569800 0.018000
vt 0.555900 0.049600
vt 0.575600 0.016900
vt 0.575200 0.049800
vt 0.575500 0.078800
vt 0.564300 0.079400
vt 0.553200 0.077000
vt 0.550300 0.100600
vt 0.570600 0.105100
vt 0.549400 0.135200
vt 0.579700 0.105500
vt 0.585400 0.146500
vt 0.585700 0.105000
vt 0.546500 0.076800
vt 0.587400 0.198400
vt 0.590500 0.210300
vt 0.574900 0.197400
vt 0.686777 0.674750
vt 0.683971 0.674888
vt 0.872200 0.487300
vt 0.345600 0.523800
vt 0.336500 0.586500
vt 0.299600 0.514600
vt 0.412335 0.673780
vt 0.411698 0.674648
vt 0.368100 0.656900
vt 0.305400 0.639700
vt 0.221200 0.476000
vt 0.052500 0.650700
vt 0.036800 0.649700
vt 0.046700 0.637100
vt 0.039500 0.679800
vt 0.013100 0.638700
vt 0.029800 0.633200
vt 0.693500 0.225500
vt 0.691300 0.223200
vt 0.695800 0.222800
vt 0.693800 0.220400
vt 0.445800 0.249800
vt 0.461300 0.256700
vt 0.441200 0.277100
vt 0.456500 0.283200
vt 0.429500 0.240800
vt 0.425500 0.306000
vt 0.454900 0.317900
vt 0.459200 0.312100
vt 0.463100 0.322500
vt 0.438100 0.509000
vt 0.446300 0.529900
vt 0.693500 0.225500
vt 0.698400 0.228000
vt 0.695800 0.222800
vt 0.974652 0.286953
vt 0.985800 0.294800
vt 0.685100 0.231300
vt 0.682500 0.228300
vt 0.665800 0.234700
vt 0.667100 0.238200
vt 0.650500 0.245100
vt 0.648700 0.242100
vt 0.635200 0.251700
vt 0.633600 0.247500
vt 0.548100 0.195700
vt 0.530000 0.177900
vt 0.543700 0.176000
vt 0.540500 0.144200
vt 0.513800 0.177300
vt 0.513900 0.145000
vt 0.520700 0.104200
vt 0.529800 0.104200
vt 0.535400 0.079100
vt 0.524400 0.078500
vt 0.567600 0.179000
vt 0.558200 0.145000
vt 0.585400 0.179000
vt 0.554000 0.176600
vt 0.513700 0.103300
vt 0.524600 0.016800
vt 0.523900 0.049700
vt 0.494300 0.324700
vt 0.494600 0.315100
vt 0.566600 0.395600
vt 0.545400 0.384100
vt 0.593500 0.383100
vt 0.509800 0.450800
vt 0.538967 0.449497
vt 0.552944 0.450359
vt 0.557681 0.442799
vt 0.563334 0.442521
vt 0.557110 0.435793
vt 0.581000 0.452000
vt 0.597600 0.432100
vt 0.611800 0.443500
vt 0.603100 0.384600
vt 0.601000 0.327000
vt 0.499200 0.380800
vt 0.598200 0.316000
vt 0.701700 0.224000
vt 0.695800 0.222800
vt 0.699000 0.220500
vt 0.436600 0.425100
vt 0.433500 0.437300
vt 0.428300 0.465600
vt 0.479800 0.441700
vt 0.488300 0.380000
vt 0.494600 0.430700
vt 0.528800 0.395000
vt 0.150200 0.680200
vt 0.122500 0.691300
vt 0.179300 0.690900
vt 0.702400 0.227900
vt 0.669100 0.062000
vt 0.682100 0.032400
vt 0.680000 0.069600
vt 0.675400 0.099000
vt 0.691700 0.110800
vt 0.691700 0.160200
vt 0.664700 0.154100
vt 0.793600 0.528900
vt 0.747200 0.539600
vt 0.746200 0.595200
vt 0.784900 0.649300
vt 0.851500 0.622200
vt 0.735400 0.661900
vt 0.687867 0.675942
vt 0.097300 0.893800
vt 0.008400 0.892800
vt 0.648100 0.155400
vt 0.732100 0.154500
vt 0.745000 0.096900
vt 0.727100 0.070400
vt 0.735500 0.070100
vt 0.726900 0.035600
vt 0.710900 0.098100
vt 0.711100 0.102900
vt 0.711600 0.114000
vt 0.731000 0.314200
vt 0.744400 0.061000
vt 0.735500 0.070100
vt 0.726900 0.035600
vt 0.745000 0.096900
vt 0.731200 0.109700
vt 0.734800 0.158000
vt 0.688700 0.068300
vt 0.693100 0.083700
vt 0.710900 0.098100
vt 0.710900 0.098100
vt 0.711100 0.102900
vt 0.898677 0.314808
vt 0.887600 0.318500
vt 0.267478 0.828021
vt 0.872336 0.804403
vt 0.872000 0.804400
vt 0.500206 0.473877
vt 0.475300 0.470200
vt 0.161335 0.915321
vt 0.099605 0.956015
vt 0.899926 0.845558
vt 0.884296 0.830661
vt 0.413300 0.675300
vt 0.399900 0.693300
vt 0.544407 0.487748
vt 0.689480 0.696163
vt 0.916695 0.435682
vt 0.922765 0.453706
vt 0.903300 0.464100
vt 0.690866 0.677450
vt 0.687700 0.677800
vt 0.194656 0.866677
vt 0.996004 0.960012
vt 0.952301 0.909739
vt 0.045375 0.887671
vt 0.029256 0.909746
vt 0.828113 0.804572
vt 0.621500 0.486800
vt 0.895862 0.305969
vt 0.685300 0.676700
vt 0.545464 0.453872
vt 0.685800 0.705100
vt 0.527303 0.442567
vt 0.536270 0.435243
vt 0.076126 0.910617
vt 0.060739 0.887844
vt 0.854053 0.796546
vt 0.975015 0.452717
vt 0.976564 0.447061
vt 0.932062 0.863009
vt 0.949771 0.289325
vt 0.413688 0.670432
vt 0.276185 0.838533
vt 0.267478 0.828021
vt 0.272900 0.812600
vt 0.967158 0.297171
vt 0.931660 0.474307
vt 0.982400 0.454300
vt 0.535092 0.441997
vn -0.7373 0.6741 0.0447
vn -0.7337 0.6757 -0.0715
vn -0.5990 0.7998 0.0392
vn 0.7115 0.7024 -0.0203
vn 0.1000 0.5246 0.8454
vn 0.9342 0.3551 -0.0337
vn -0.1044 0.4893 0.8658
vn 0.7965 -0.4151 0.4396
vn -0.6926 -0.0604 0.7188
vn 0.2184 0.0579 -0.9741
vn 0.1391 0.6615 -0.7369
vn -0.5912 0.4156 -0.6912
vn -0.6746 0.6154 -0.4077
vn 0.2145 0.8809 -0.4219
vn -0.2313 0.3697 0.8999
vn -0.0416 0.4208 0.9062
vn 0.8148 0.3936 0.4256
vn 0.8246 0.5631 0.0546
vn 0.7103 0.6990 -0.0825
vn -0.0963 0.5576 0.8245
vn 0.8453 0.5032 0.1797
vn -0.1585 0.4404 0.8837
vn -0.0477 -0.1709 0.9841
vn 0.6520 -0.2012 0.7310
vn 0.2294 0.9402 -0.2517
vn 0.2852 0.8127 -0.5082
vn -0.1734 0.9472 -0.2696
vn -0.2244 0.7260 -0.6500
vn 0.3732 0.4449 -0.8141
vn -0.2676 0.5070 -0.8194
vn -0.6690 -0.5109 -0.5398
vn -0.4771 -0.7014 -0.5296
vn -0.9302 -0.0624 -0.3618
vn 0.2469 0.3803 0.8913
vn -0.8038 0.3728 0.4636
vn 0.2091 0.4125 0.8867
vn -0.8179 0.5662 0.1022
vn -0.2506 0.6949 0.6741
vn -0.9773 -0.0143 -0.2114
vn -0.9950 0.0415 -0.0908
vn -0.7642 -0.6386 0.0903
vn -0.5375 -0.2268 0.8122
vn -0.0749 -0.9906 0.1145
vn -0.9258 0.3730 0.0618
vn -0.7977 -0.2750 0.5367
vn -0.8220 -0.4085 0.3967
vn -0.9789 0.0209 0.2032
vn -0.9815 -0.0519 0.1841
vn -0.9183 0.3816 0.1057
vn -0.9930 0.1067 0.0507
vn -0.7443 0.6614 -0.0925
vn 0.2904 0.9262 -0.2403
vn 0.7123 -0.3104 0.6295
vn -0.7767 -0.4268 0.4632
vn -0.0733 -0.8494 0.5227
vn -0.8722 -0.4878 0.0354
vn -0.4528 -0.5620 0.6922
vn -0.2259 -0.6950 0.6826
vn -0.2681 -0.3257 0.9067
vn -0.7346 0.1153 0.6686
vn -0.2270 -0.5855 0.7782
vn -0.1407 0.2394 0.9607
vn -0.0068 0.3089 0.9511
vn -0.0546 0.3010 0.9521
vn -0.0402 0.4824 0.8750
vn 0.2124 0.4819 0.8501
vn -0.6897 0.7158 0.1090
vn -0.7909 0.5962 0.1380
vn -0.8209 0.3505 0.4509
vn 0.3084 0.3432 0.8872
vn -0.6092 0.3936 0.6885
vn 0.3179 0.1502 0.9362
vn 0.2541 0.7721 -0.5824
vn 0.3354 0.8333 -0.4395
vn 0.1499 0.6571 -0.7387
vn 0.6418 0.7466 -0.1753
vn 0.3814 0.7997 -0.4637
vn 0.6008 0.7107 -0.3660
vn -0.2088 0.8944 -0.3955
vn 0.0000 0.8873 -0.4613
vn -0.1273 0.7084 -0.6942
vn 0.5985 0.3592 -0.7161
vn -0.2996 -0.0897 -0.9499
vn 0.1987 0.7281 -0.6560
vn -0.3059 0.8087 -0.5025
vn 0.1538 0.9491 -0.2750
vn -0.2463 0.9396 -0.2377
vn -0.5644 0.4341 0.7021
vn 0.2723 0.2366 0.9327
vn 0.5861 0.6549 -0.4771
vn -0.1910 0.3872 -0.9020
vn 0.6502 0.0225 -0.7594
vn -0.2182 0.9064 -0.3617
vn 0.6536 0.7124 -0.2556
vn -0.0818 0.4686 0.8796
vn -0.6787 0.0092 -0.7343
vn 0.1624 0.3808 -0.9103
vn -0.6184 0.6481 -0.4445
vn 0.1942 0.9058 -0.3766
vn -0.6746 0.7065 -0.2139
vn 0.1314 0.4689 0.8734
vn 0.0053 0.3313 0.9435
vn 0.0081 0.3306 0.9437
vn 0.0793 0.3871 0.9186
vn 0.0486 0.3380 0.9399
vn -0.1617 0.2361 0.9582
vn 0.2003 0.2013 0.9588
vn -0.2089 0.1167 0.9710
vn -0.8252 0.4910 -0.2792
vn -0.7286 0.6519 -0.2102
vn -0.9785 0.1295 -0.1604
vn -0.9865 0.1525 -0.0594
vn -0.8858 0.4431 0.1378
vn -0.1424 0.5303 0.8358
vn -0.7924 0.3275 0.5146
vn 0.2162 0.2351 0.9476
vn -0.5529 0.3141 0.7718
vn 0.2303 0.0538 0.9716
vn 0.1495 0.9845 -0.0921
vn 0.2882 0.9036 -0.3168
vn -0.1495 0.9877 -0.0468
vn -0.2615 0.8393 -0.4766
vn 0.6951 -0.0444 -0.7175
vn -0.0111 -0.3911 -0.9203
vn 0.3886 -0.4910 -0.7797
vn -0.1273 -0.5692 -0.8123
vn 0.5037 0.5370 -0.6767
vn -0.2615 0.6525 -0.7113
vn -0.6740 -0.7380 0.0323
vn 0.2875 -0.7889 -0.5431
vn -0.4364 -0.8979 0.0581
vn 0.5433 -0.7400 -0.3966
vn 0.2026 -0.9771 -0.0649
vn -0.1182 -0.9830 0.1402
vn -0.9368 0.0877 -0.3386
vn -0.7684 -0.4947 -0.4060
vn -0.3881 -0.2375 -0.8905
vn -0.7998 -0.2977 0.5213
vn 0.1782 -0.9794 -0.0950
vn 0.7232 -0.6485 0.2375
vn 0.4216 -0.8429 -0.3342
vn -0.0337 -0.4032 0.9145
vn -0.2822 -0.4219 0.8616
vn -0.7344 -0.2971 0.6102
vn -0.4857 -0.5473 0.6816
vn -0.7854 -0.6181 0.0347
vn -0.4875 -0.8322 0.2643
vn -0.6990 -0.5412 0.4673
vn 0.6714 -0.4593 0.5817
vn 0.8632 -0.2788 -0.4208
vn 0.9121 -0.2373 0.3344
vn -0.8538 -0.5200 0.0252
vn 0.3872 -0.9187 -0.0783
vn -0.5915 -0.7994 -0.1055
vn 0.1653 0.6555 0.7369
vn 0.7558 0.6236 0.1998
vn -0.0460 0.9778 0.2046
vn 0.0333 0.4911 0.8705
vn 0.3198 0.8518 0.4149
vn -0.8688 0.3895 0.3057
vn 0.8764 0.4056 0.2595
vn -0.3240 0.8390 0.4373
vn -0.1833 0.1953 0.9635
vn 0.2280 0.1230 0.9659
vn -0.2141 0.0736 0.9740
vn 0.2567 -0.0422 0.9656
vn 0.7413 0.5873 -0.3249
vn -0.3011 0.9441 -0.1345
vn 0.4054 0.9080 0.1060
vn -0.2218 0.9657 0.1352
vn -0.5968 -0.8023 -0.0121
vn 0.6414 -0.7299 -0.2363
vn -0.2269 -0.9691 0.0967
vn 0.7855 -0.6176 -0.0388
vn 0.1330 -0.8754 0.4647
vn -0.0845 -0.8762 0.4745
vn -0.9943 0.0400 0.0991
vn -0.7711 -0.6367 0.0029
vn -0.6393 -0.7440 -0.1942
vn -0.9358 0.3429 -0.0818
vn -0.9339 0.3573 -0.0109
vn -0.2732 -0.1007 0.9567
vn -0.8095 -0.4054 0.4246
vn -0.7102 -0.4982 0.4975
vn -0.5129 -0.7556 0.4074
vn -0.8548 -0.3468 0.3862
vn -0.9072 -0.3837 0.1724
vn 0.9962 0.0728 0.0474
vn 0.2520 -0.9636 0.0896
vn 0.6157 -0.7869 -0.0416
vn 0.8160 -0.4121 0.4054
vn -0.7816 -0.4415 0.4407
vn -0.9265 0.3532 -0.1298
vn -0.9200 0.3345 0.2044
vn -0.5803 0.6376 0.5067
vn -0.1358 0.6047 0.7848
vn -0.6492 0.6821 -0.3365
vn -0.6855 0.6844 0.2482
vn -0.5895 0.4850 -0.6459
vn -0.7499 0.6306 0.2001
vn -0.7163 -0.0281 -0.6972
vn -0.9904 0.0733 -0.1174
vn -0.4118 -0.5044 -0.7589
vn 0.1414 0.6024 0.7856
vn 0.3197 -0.7560 0.5712
vn -0.2970 0.1451 0.9438
vn -0.2916 0.3317 0.8972
vn 0.6257 0.4123 0.6622
vn 0.8298 0.3799 0.4088
vn -0.1861 0.4828 0.8557
vn 0.7930 0.5999 0.1066
vn -0.7455 0.6510 -0.1432
vn -0.9052 0.4160 0.0875
vn 0.3929 0.3482 0.8511
vn -0.7964 -0.2411 0.5547
vn 0.1965 -0.3560 0.9136
vn 0.6867 -0.1306 -0.7151
vn -0.0086 -0.4950 -0.8689
vn 0.4057 -0.5603 -0.7222
vn -0.0895 -0.6349 -0.7674
vn 0.9314 0.3271 0.1595
vn -0.1716 0.2670 0.9483
vn 0.7155 -0.5450 0.4370
vn -0.6432 -0.1985 0.7395
vn -0.1986 0.2266 0.9535
vn -0.1256 0.3885 0.9129
vn 0.8043 0.3546 0.4768
vn 0.7682 0.6160 0.1744
vn 0.6622 0.7226 0.1984
vn -0.0677 0.3352 0.9397
vn 0.1628 -0.5031 0.8487
vn 0.1998 -0.9233 0.3280
vn -0.2956 -0.5653 0.7701
vn -0.0674 -0.9972 0.0323
vn 0.1263 -0.9041 0.4082
vn 0.1333 -0.9910 -0.0118
vn -0.2119 -0.9115 0.3526
vn -0.0314 -0.5863 0.8095
vn 0.4236 -0.2984 0.8553
vn 0.2076 0.9454 -0.2514
vn 0.1463 0.7629 -0.6298
vn 0.2041 0.1858 -0.9612
vn 0.1651 0.2786 0.9461
vn 0.6818 -0.1731 0.7108
vn -0.5101 -0.1272 0.8507
vn 0.1840 -0.4987 0.8470
vn -0.3675 -0.6235 0.6901
vn 0.0162 -0.3523 0.9357
vn -0.3011 -0.1518 0.9414
vn 0.7780 -0.5938 0.2053
vn 0.5222 -0.6047 0.6013
vn 0.4565 -0.8281 0.3253
vn 0.3642 -0.5051 0.7825
vn 0.5408 0.3183 0.7786
vn -0.9345 0.2588 0.2443
vn -0.5610 -0.7834 -0.2675
vn -0.7500 -0.4906 0.4437
vn -0.2430 0.0569 -0.9684
vn 0.5556 0.4254 -0.7144
vn -0.1717 0.6648 -0.7270
vn 0.6025 0.6439 -0.4715
vn -0.2473 0.8794 -0.4067
vn -0.2242 0.9384 0.2629
vn 0.8272 0.5167 0.2209
vn 0.5041 0.7441 0.4385
vn 0.0806 0.8457 0.5276
vn 0.9476 0.2685 0.1732
vn 0.8722 -0.1964 0.4480
vn 0.3620 -0.9062 -0.2184
vn -0.8628 0.4336 0.2600
vn 0.0919 0.6365 0.7658
vn 0.1155 0.9805 0.1588
vn -0.7378 0.4383 0.5133
vn -0.8599 -0.5069 -0.0604
vn -0.4837 0.6526 0.5832
vn 0.2681 -0.4504 -0.8516
vn -0.0027 -0.6133 -0.7899
vn 0.7502 0.4543 0.4805
vn 0.7664 0.4686 0.4393
vn 0.9658 -0.2359 -0.1078
vn -0.0057 0.5283 0.8491
vn 0.6773 0.5835 0.4481
vn 0.5801 0.8129 0.0523
vn -0.2779 0.4050 0.8710
vn 0.0055 0.5319 0.8468
vn -0.7112 -0.1607 -0.6844
vn 0.0001 -0.4910 -0.8712
vn -0.6058 0.7906 0.0892
vn 0.0055 0.5338 0.8456
vn 0.2930 0.3930 0.8716
vn 0.2231 0.9595 -0.1718
vn -0.6530 0.6767 -0.3401
vn -0.6862 0.6205 0.3798
vn 0.3889 0.7975 0.4612
vn 0.2447 0.9570 0.1557
vn 0.1385 0.3898 0.9104
vn 0.0593 0.3010 0.9518
vn 0.0083 0.0864 0.9962
vn -0.1376 0.0185 0.9903
vn -0.0303 0.0334 0.9990
vn -0.2484 -0.0924 0.9642
vn -0.3435 0.5614 -0.7529
vn 0.8637 0.0137 -0.5039
vn -0.0059 -0.5551 -0.8318
vn 0.7119 -0.2142 -0.6688
vn -0.1905 -0.7367 0.6489
vn 0.1519 -0.4855 0.8609
vn -0.4690 -0.8822 -0.0420
vn 0.2418 -0.5450 0.8028
vn -0.3378 -0.8786 0.3376
vn 0.1824 0.9277 0.3256
vn 0.1025 -0.4084 0.9070
vn -0.1865 0.9238 0.3345
vn 0.0899 -0.8467 0.5245
vn -0.1207 -0.9161 0.3823
vn 0.2895 -0.9381 0.1902
vn -0.0080 -0.1913 -0.9815
vn -0.0716 -0.9904 -0.1181
vn 0.0837 -0.8878 0.4525
vn 0.0352 -0.8973 0.4400
vn 0.2151 -0.7324 0.6460
vn 0.0100 -0.4448 0.8956
vn -0.1914 -0.7390 0.6459
vn -0.0681 -0.8934 0.4441
vn -0.4845 -0.5501 0.6802
vn -0.6650 -0.5395 0.5164
vn -0.5272 -0.0721 0.8467
vn -0.0081 0.9990 0.0443
vn 0.4521 0.8731 -0.1824
vn -0.3995 0.7699 -0.4976
vn -0.0082 0.9770 0.2130
vn -0.1859 0.9705 0.1535
vn -0.0077 -0.2775 -0.9607
vn 0.6596 0.2679 -0.7023
vn -0.0106 0.1226 -0.9924
vn 0.1310 -0.9790 -0.1562
vn 0.8464 -0.5103 -0.1525
vn 0.9872 0.1283 0.0944
vn 0.2014 -0.9655 -0.1649
vn 0.8928 -0.4489 0.0384
vn 0.9886 0.0911 0.1197
vn -0.6903 0.2612 -0.6748
vn -0.0105 0.1235 -0.9923
vn 0.1528 0.7047 -0.6928
vn -0.1751 -0.9724 -0.1543
vn 0.2898 -0.9479 -0.1324
vn 0.6053 -0.7959 0.0094
vn 0.9793 0.0083 0.2023
vn 0.8632 -0.3233 0.3878
vn 0.3934 -0.8581 -0.3301
vn -0.5779 -0.8153 0.0354
vn -0.2796 -0.9532 -0.1151
vn -0.1048 0.8679 0.4856
vn -0.8750 -0.4768 0.0841
vn 0.1041 0.8700 0.4820
vn -0.9855 0.0472 0.1628
vn 0.1023 -0.9239 -0.3688
vn 0.0887 -0.9938 -0.0669
vn -0.2296 0.1870 -0.9552
vn 0.5414 0.5021 -0.6744
vn -0.1745 0.7660 -0.6187
vn 0.6252 0.6871 -0.3703
vn -0.2283 0.9440 -0.2382
vn -0.1388 0.5909 0.7947
vn 0.5815 -0.8062 0.1095
vn 0.6917 -0.0734 0.7185
vn 0.4585 0.7095 0.5351
vn 0.1138 0.7584 0.6418
vn -0.1012 -0.9834 -0.1503
vn 0.5261 -0.8338 -0.1676
vn 0.7784 -0.6269 0.0326
vn -0.0046 -0.5181 -0.8553
vn -0.0077 -0.1947 -0.9808
vn -0.7369 -0.6740 0.0516
vn -0.5030 -0.8509 -0.1513
vn -0.8278 -0.5470 -0.1242
vn -0.0002 -0.3877 -0.9218
vn 0.1117 0.8665 0.4866
vn 0.1117 0.8664 0.4866
vn 0.3293 -0.1395 0.9339
vn -0.9918 0.0396 0.1212
vn -0.0178 0.8674 0.4974
vn -0.5463 0.5194 0.6571
vn -0.3652 0.8515 0.3763
vn -0.5535 0.6175 0.5589
vn -0.1130 0.8635 0.4916
vn -0.4423 0.7593 -0.4773
vn -0.8162 0.5513 -0.1729
vn -0.6282 0.6754 -0.3862
vn -0.2092 0.6022 0.7704
vn -0.8449 0.4364 0.3094
vn 0.2606 -0.9605 -0.0981
vn 0.7372 -0.4977 0.4570
vn 0.7318 -0.0540 0.6794
vn 0.1191 0.4803 0.8690
vn -0.9331 0.3502 0.0820
vn 0.1516 0.9126 -0.3798
vn 0.1924 0.7623 -0.6180
vn -0.1181 0.9180 -0.3786
vn -0.1821 0.6487 -0.7389
vn 0.2605 0.3711 -0.8913
vn -0.2493 0.4044 -0.8800
vn -0.5218 0.7343 0.4341
vn -0.1112 0.8474 0.5192
vn -0.8266 0.5114 0.2348
vn -0.0071 -0.8307 0.5567
vn 0.9842 -0.1767 0.0133
vn 0.4218 -0.8016 0.4237
vn 0.1785 0.2397 0.9543
vn -0.0347 0.3354 0.9414
vn -0.0679 0.3853 0.9203
vn 0.0049 0.3304 0.9438
vn 0.0691 0.3028 0.9506
vn 0.0086 0.3311 0.9435
vn 0.0205 0.3094 0.9507
vn 0.1566 0.2437 0.9571
vn 0.3226 -0.0526 0.9451
vn -0.2200 -0.1103 0.9692
vn 0.1690 0.1004 0.9805
vn -0.1918 0.0517 0.9801
vn 0.0709 0.1536 0.9856
vn 0.0094 0.0845 0.9964
vn 0.5560 0.7957 -0.2403
vn -0.1797 0.7130 -0.6777
vn -0.2614 0.9652 -0.0068
vn 0.5888 0.8082 0.0059
vn -0.3178 0.9197 -0.2308
vn 0.7136 0.6907 -0.1168
vn 0.8667 0.4538 0.2072
vn 0.9618 0.2357 -0.1393
vn 0.9818 0.1707 -0.0827
vn -0.5853 0.7855 -0.2011
vn 0.2443 0.9694 -0.0263
vn -0.3371 0.7294 -0.5953
vn -0.0073 0.8806 -0.4738
vn -0.7299 0.6484 -0.2166
vn -0.3090 0.7456 -0.5905
vn -0.0198 0.9064 -0.4219
vn -0.9033 -0.3969 -0.1628
vn -0.9481 0.2258 -0.2238
vn -0.7251 0.5784 -0.3738
vn -0.6006 0.3978 -0.6936
vn -0.7320 -0.2042 -0.6500
vn -0.9884 0.0599 -0.1398
vn -0.4371 -0.6161 -0.6553
vn -0.7183 0.5869 -0.3736
vn -0.8654 0.4767 0.1547
vn -0.9445 0.3057 0.1201
vn 0.7292 0.6689 0.1445
vn 0.7709 0.5963 0.2239
vn 0.7145 0.6056 0.3504
vn 0.6034 0.7722 -0.1990
vn 0.5482 0.7729 0.3195
vn 0.4552 0.8882 0.0628
vn 0.4593 0.8882 -0.0161
vn 0.6314 0.6275 -0.4556
vn 0.8850 0.3762 -0.2742
vn 0.7337 0.4479 -0.5109
vn 0.1677 0.6982 -0.6960
vn 0.2695 -0.0885 -0.9589
vn 0.4120 -0.6766 0.6103
vn -0.0499 -0.5292 0.8470
vn 0.1506 -0.6362 0.7567
vn -0.1144 -0.5400 0.8339
vn 0.0566 -0.1827 0.9815
vn 0.4134 -0.6013 -0.6837
vn 0.9757 0.0806 -0.2039
vn 0.5794 0.4532 0.6774
vn 0.8129 0.2363 -0.5323
vn 0.6955 0.6363 0.3339
vn -0.2589 0.9513 0.1672
vn -0.3865 0.7851 0.4839
vn -0.9689 0.2144 -0.1237
vn -0.9662 0.1215 -0.2275
vn -0.9455 0.0893 -0.3132
vn -0.7616 0.5375 -0.3620
vn -0.8427 0.2248 -0.4892
vn -0.4743 0.8648 -0.1645
vn 0.3674 0.7742 -0.5154
vn -0.0477 -0.7952 0.6044
vn -0.0320 0.9983 -0.0493
vn 0.0735 0.6020 0.7951
vn 0.2760 0.5418 0.7939
vn 0.2338 0.6996 0.6752
vn -0.1309 -0.6301 0.7654
vn 0.0419 -0.6220 0.7819
vn 0.0485 -0.0662 0.9966
vn -0.2324 -0.3752 0.8973
vn 0.3472 -0.1822 0.9199
vn -0.2344 -0.0459 0.9711
vn 0.2339 0.0784 0.9691
vn 0.2107 0.9693 0.1269
vn 0.2916 0.9448 -0.1496
vn -0.4145 0.9005 0.1313
vn -0.7655 0.5754 -0.2881
vn -0.8896 -0.0039 -0.4567
vn 0.2969 0.5674 -0.7680
vn 0.1197 -0.5652 -0.8162
vn 0.2234 0.6582 -0.7190
vn -0.5354 0.5364 -0.6524
vn 0.2373 0.8407 -0.4867
vn -0.3090 0.8988 -0.3109
vn 0.0828 -0.6322 -0.7704
vn -0.4288 -0.5739 -0.6977
vn -0.0556 -0.6727 -0.7378
vn 0.3389 0.2582 0.9047
vn 0.7997 0.5037 -0.3267
vn 0.7098 0.6567 -0.2547
vn 0.9235 0.3568 -0.1407
vn 0.9240 0.3777 -0.0605
vn 0.9240 -0.3649 0.1141
vn 0.8386 -0.3968 0.3732
vn 0.2990 -0.1388 0.9441
vn 0.7395 -0.5039 0.4464
vn -0.1087 0.7565 0.6449
vn -0.4780 0.6821 0.5534
vn -0.6762 -0.3215 0.6629
vn 0.0097 -0.8214 0.5702
vn 0.7719 -0.6356 -0.0123
vn 0.3346 -0.6348 0.6965
vn 0.5958 -0.4377 0.6734
vn 0.2261 -0.3439 0.9114
vn 0.7640 0.2547 0.5928
vn 0.5304 -0.5764 0.6216
vn 0.8254 0.4841 0.2904
vn 0.2342 0.5116 -0.8267
vn -0.4032 0.4448 -0.7997
vn 0.0500 -0.6711 -0.7396
vn -0.0010 -0.5509 -0.8346
vn 0.2196 0.4081 -0.8862
vn -0.2885 0.3707 -0.8828
vn 0.1558 0.6519 -0.7421
vn -0.2138 0.7580 -0.6163
vn -0.1641 0.9830 -0.0820
vn 0.1344 0.9896 -0.0506
vn -0.2105 0.0502 0.9763
vn 0.5735 0.3315 0.7491
vn -0.1550 0.4500 0.8795
vn 0.6492 -0.4211 0.6335
vn 0.7132 -0.0194 0.7006
vn -0.4920 0.2145 0.8437
vn -0.0005 0.9988 -0.0482
vn 0.7335 0.6341 0.2445
vn 0.9638 0.1477 -0.2220
vn 0.9776 0.1719 -0.1217
vn 0.8834 0.4616 0.0809
vn 0.1473 0.5578 0.8168
vn 0.5378 -0.7628 0.3592
vn 0.9081 -0.3219 0.2679
vn -0.7192 -0.0280 0.6942
vn -0.5902 -0.7903 0.1646
vn -0.2543 0.2310 0.9391
vn -0.1714 0.9129 -0.3704
vn 0.0973 0.9192 -0.3817
vn 0.9102 0.3735 -0.1793
vn 0.7846 -0.6200 -0.0101
vn 0.9191 0.1273 0.3728
vn 0.5848 0.6331 0.5071
vn 0.9451 0.3074 -0.1112
vn 0.2277 -0.7365 0.6369
vn 0.9794 0.0933 -0.1791
vn 0.1391 0.6035 0.7851
vn 0.3711 -0.9164 0.1500
vn 0.4413 -0.8592 0.2589
vn 0.0089 -0.9326 0.3607
vn 0.2505 -0.8199 0.5147
vn 0.0142 -0.7523 0.6587
vn -0.2311 -0.8227 0.5193
vn -0.3205 -0.9285 0.1876
vn -0.3569 -0.9174 0.1762
vn 0.3334 -0.9371 -0.1034
vn -0.0092 -0.9899 0.1417
vn -0.3221 -0.9246 0.2034
vn -0.1260 -0.9920 -0.0076
vn -0.2044 -0.9339 -0.2933
vn 0.0321 -0.8894 0.4560
vn 0.1834 -0.4871 0.8538
vn 0.0144 -0.1569 0.9875
vn -0.5524 -0.6762 0.4875
vn -0.6167 -0.6081 0.4998
vn -0.9567 -0.2803 0.0789
vn 0.2093 -0.9281 -0.3080
vn -0.7510 -0.5822 0.3116
vn -0.4601 -0.8051 0.3744
vn -0.4885 -0.5907 0.6422
vn -0.3479 0.0857 0.9336
vn 0.4993 -0.2837 0.8187
vn -0.9891 0.0663 -0.1313
vn 0.9142 0.1131 -0.3892
vn 0.9129 0.3742 -0.1629
vn 0.7653 0.4304 -0.4786
vn 0.4484 0.1993 0.8714
vn 0.9682 0.1919 -0.1608
vn -0.7314 0.0917 0.6758
vn 0.4260 0.6049 0.6727
vn 0.9774 0.0861 -0.1931
vn -0.9651 -0.0038 0.2620
vn -0.7596 -0.5572 0.3354
vn 0.4165 0.5245 0.7426
vn -0.6298 -0.7097 -0.3158
vn -0.3839 0.5218 0.7618
vn 0.0309 -0.3455 0.9379
vn -0.2997 -0.0587 0.9522
vn 0.2451 -0.1080 0.9635
vn -0.3216 -0.1856 0.9285
vn 0.2610 -0.3729 0.8904
vn 0.9217 0.3879 0.0017
vn 0.9918 0.1268 -0.0131
vn 0.9119 0.4103 -0.0046
vn 0.9916 -0.0391 0.1232
vn 0.7294 0.6841 -0.0031
vn 0.7250 0.6751 -0.1363
vn 0.9881 0.0255 0.1516
vn 0.8310 -0.4066 0.3795
vn 0.8156 -0.2517 0.5211
vn 0.7648 0.3566 0.5366
vn -0.3406 0.8714 -0.3531
vn -0.9730 0.2172 -0.0775
vn -0.9883 0.1515 -0.0202
vn -0.8627 0.4334 0.2607
vn 0.2553 0.5801 0.7735
vn 0.1676 0.5962 0.7852
vn -0.1499 0.0959 0.9840
vn 0.2118 0.0537 0.9758
vn -0.0548 0.1526 0.9868
vn 0.0081 0.0843 0.9964
vn 0.0090 0.0864 0.9962
vn 0.1342 -0.3077 0.9420
vn 0.0496 0.0334 0.9982
vn -0.3480 -0.2350 0.9076
vn -0.0438 -0.8435 0.5353
vn 0.4814 -0.7260 0.4911
vn 0.5368 -0.8398 0.0812
vn 0.6009 -0.5572 0.5730
vn 0.7257 -0.5410 0.4251
vn 0.6356 -0.6164 0.4647
vn 0.5657 -0.6762 0.4719
vn -0.1522 -0.5035 0.8505
vn 0.1400 -0.9900 -0.0168
vn 0.3373 -0.9237 0.1816
vn -0.4689 -0.7216 0.5093
vn -0.5819 -0.5381 0.6097
vn -0.7025 -0.5350 0.4693
vn -0.5322 -0.8404 0.1025
vn 0.9612 -0.2737 0.0337
vn -0.3235 -0.9427 -0.0822
vn 0.0196 -0.9902 0.1379
vn 0.0226 -0.8413 0.5401
vn -0.2767 0.8763 -0.3943
vn -0.1011 -0.3059 0.9467
vn 0.0257 -0.3342 0.9421
vn -0.2752 -0.4424 0.8535
vn -0.5395 -0.7241 0.4298
vn 0.3306 -0.8464 -0.4175
vn -0.3764 -0.9263 0.0169
vn -0.3553 -0.9323 -0.0672
vn 0.0536 -0.6003 0.7980
vn -0.7159 0.1558 0.6806
vn 0.3546 -0.8925 0.2789
vn -0.5131 -0.5914 0.6221
vn -0.1288 -0.4886 0.8630
vn -0.0479 -0.7048 0.7078
vn -0.0473 -0.7535 0.6558
vn 0.1919 -0.4802 0.8559
vn 0.5405 0.0118 0.8412
vn -0.0013 0.9986 0.0519
vn 0.0005 0.9762 0.2167
vn 0.1755 0.9736 0.1458
vn -0.6325 -0.4940 0.5966
vn 0.5081 -0.8295 0.2319
vn 0.4881 -0.4563 0.7440
vn 0.3220 -0.4863 0.8123
vn 0.2431 -0.5374 0.8075
vn 0.6975 -0.6706 0.2525
vn 0.1127 -0.3230 0.9397
vn 0.0239 0.1712 0.9849
vn -0.3600 0.7419 0.5656
vn 0.3773 0.7431 0.5527
vn -0.0083 -0.2771 -0.9608
vn -0.3851 0.8308 0.4019
vn 0.7248 0.0893 0.6831
vn 0.9870 0.0380 0.1559
vn 0.7959 0.1794 0.5782
vn 0.7657 0.3452 0.5427
vn 0.9239 0.3795 0.0481
vn 0.6246 0.6845 -0.3760
vn -0.8007 0.4479 -0.3977
vn -0.9476 0.1357 -0.2891
vn -0.9325 0.3590 -0.0401
vn 0.2109 0.3265 0.9214
vn 0.2286 0.9403 0.2522
vn -0.6227 0.4973 0.6041
vn -0.8197 0.2952 0.4909
vn 0.3321 0.8903 0.3115
vn -0.3303 0.8874 0.3216
vn -0.2391 0.9567 -0.1658
vn -0.1260 -0.9871 -0.0992
vn -0.7726 -0.3544 0.5268
vn -0.4969 -0.8618 -0.1018
vn -0.3446 -0.9137 -0.2155
vn -0.3674 -0.9256 -0.0906
vn -0.4611 -0.7715 0.4383
vn 0.0059 -0.9910 -0.1337
vn -0.3861 -0.9222 0.0198
vn -0.2336 -0.8767 -0.4204
vn -0.0051 -0.5180 -0.8554
vn 0.3859 0.8410 0.3793
vn -0.5531 0.7375 0.3876
vn 0.9176 -0.1565 0.3654
vn -0.5779 0.6559 0.4857
vn -0.8505 0.4144 0.3238
vn -0.9279 0.3603 0.0953
vn 0.5068 -0.8514 -0.1351
vn 0.7963 -0.5605 0.2276
vn 0.6981 -0.2357 0.6761
vn 0.4841 -0.7717 0.4126
vn 0.3928 -0.9195 -0.0136
vn 0.7799 -0.4635 0.4206
vn 0.6526 -0.3404 0.6769
vn 0.7891 -0.4992 0.3579
vn 0.5668 0.8045 -0.1779
vn -0.8067 0.5908 -0.0142
vn -0.9190 0.3473 -0.1864
vn 0.4054 -0.1830 0.8956
vn 0.4238 -0.7262 0.5414
vn 0.8136 0.5121 -0.2754
vn -0.0665 0.6838 -0.7266
vn -0.4782 0.7766 -0.4101
vn -0.6756 0.7262 -0.1276
vn 0.4494 -0.1781 0.8754
vn 0.3379 -0.4980 0.7986
vn -0.2021 0.4443 0.8728
vn -0.1318 -0.8669 0.4807
vn 0.3393 -0.3482 -0.8739
vn 0.5829 0.1601 -0.7966
vn 0.9498 0.0832 -0.3015
vn 0.2360 -0.0115 -0.9717
vn -0.2539 -0.6154 0.7462
vn 0.5927 0.6136 -0.5218
vn -0.2449 0.2457 -0.9379
vn -0.7258 0.1182 -0.6777
vn 0.3377 0.0346 0.9406
vn 0.7802 0.4485 0.4361
vn -0.7481 0.4834 -0.4547
vn 0.0840 0.0752 0.9936
vn 0.7411 -0.4389 0.5081
vn -0.0908 -0.5318 0.8420
vn -0.1925 -0.9526 -0.2354
vn -0.0733 -0.7670 0.6374
vn -0.2991 -0.5892 0.7506
vn 0.6781 0.3341 0.6546
vn -0.0889 0.7624 0.6409
vn -0.6080 0.6338 0.4782
vn -0.5665 0.6365 -0.5234
vn -0.5144 -0.2358 0.8245
vn -0.5683 -0.1650 0.8061
vn -0.7877 0.6119 -0.0716
vn -0.8605 -0.1066 -0.4982
vn 0.5748 -0.5202 0.6317
vn 0.1362 -0.2664 0.9542
vn 0.1794 -0.3136 0.9325
vn 0.2116 -0.2901 0.9333
vn -0.0746 0.8167 0.5723
vn 0.5132 -0.3368 -0.7894
vn 0.1934 -0.8076 -0.5572
s 1
f 1/1/1 2/2/2 3/3/3
f 6/4/4 7/5/5 8/6/6
f 9/7/7 8/6/6 7/5/5
f 8/6/6 9/7/7 10/8/8
f 11/9/9 10/8/8 9/7/7
f 13/10/10 14/11/11 15/12/12
f 16/13/13 15/12/12 14/11/11
f 14/11/11 17/14/14 16/13/13
f 18/15/15 19/16/16 20/17/17
f 21/18/18 20/17/17 19/16/16
f 21/18/18 19/16/16 22/19/19
f 23/20/20 22/19/19 19/16/16
f 22/19/19 23/20/20 24/21/21
f 25/22/22 24/21/21 23/20/20
f 25/22/22 26/23/23 24/21/21
f 27/24/24 24/21/21 26/23/23
f 28/25/25 29/26/26 30/27/27
f 31/28/28 30/27/27 29/26/26
f 29/26/26 32/29/29 31/28/28
f 33/30/30 31/28/28 32/29/29
f 35/31/31 34/32/32 763/33/33
f 36/34/34 37/35/35 38/36/36
f 39/37/37 38/36/36 37/35/35
f 39/37/37 40/38/38 38/36/36
f 35/31/31 778/39/39 41/40/40
f 761/41/41 42/42/42 43/43/43
f 1/1/1 3/3/3 45/44/44
f 46/45/45 47/46/46 48/47/47
f 49/48/48 48/47/47 47/46/46
f 50/49/49 48/47/47 49/48/48
f 49/48/48 51/50/50 50/49/49
f 45/44/44 50/49/49 51/50/50
f 50/49/49 45/44/44 3/3/3
f 3/3/3 52/51/51 50/49/49
f 52/51/51 3/3/3 53/52/52
f 48/47/47 50/49/49 52/51/51
f 54/53/53 55/54/54 56/55/55
f 57/56/56 56/55/55 55/54/54
f 57/56/56 58/57/57 56/55/55
f 59/58/58 56/55/55 58/57/57
f 59/58/58 58/57/57 60/59/59
f 61/60/60 60/59/59 58/57/57
f 60/59/59 61/60/60 62/61/61
f 63/62/62 64/63/63 65/64/64
f 66/65/65 67/66/66 68/67/67
f 69/68/68 68/67/67 67/66/66
f 69/68/68 67/66/66 70/69/69
f 71/70/70 70/69/69 67/66/66
f 70/69/69 71/70/70 72/71/71
f 73/72/72 72/71/71 71/70/70
f 74/73/73 718/74/74 699/75/75
f 75/76/76 772/77/77 74/73/73
f 74/73/73 76/78/78 75/76/76
f 74/73/73 77/79/79 76/78/78
f 77/79/79 74/73/73 78/80/80
f 80/81/81 76/78/78 77/79/79
f 76/78/78 80/81/81 81/82/82
f 82/83/83 81/82/82 80/81/81
f 83/84/84 84/85/85 85/86/86
f 86/87/87 85/86/86 84/85/85
f 37/35/35 36/34/34 87/88/88
f 88/89/89 87/88/88 36/34/34
f 89/90/90 90/91/91 91/92/92
f 90/91/91 89/90/90 92/93/93
f 93/94/94 92/93/93 89/90/90
f 92/93/93 93/94/94 94/95/95
f 95/96/96 96/97/97 97/98/98
f 96/97/97 98/99/99 97/98/98
f 99/100/100 97/98/98 98/99/99
f 98/99/99 100/101/101 99/100/100
f 101/102/102 65/64/64 64/63/63
f 101/102/102 102/103/103 65/64/64
f 103/104/104 65/64/64 102/103/103
f 102/103/103 104/105/105 103/104/104
f 105/106/106 103/104/104 104/105/105
f 104/105/105 106/107/107 105/106/106
f 107/108/108 105/106/106 106/107/107
f 108/109/109 97/98/98 109/110/110
f 97/98/98 108/109/109 95/96/96
f 110/111/111 95/96/96 108/109/109
f 111/112/112 95/96/96 110/111/111
f 112/113/113 111/112/112 110/111/111
f 113/114/114 99/100/100 100/101/101
f 114/115/115 115/116/116 116/117/117
f 117/118/118 116/117/117 115/116/116
f 118/119/119 119/120/120 120/121/121
f 121/122/122 120/121/121 119/120/120
f 122/123/123 123/124/124 124/125/125
f 125/126/126 124/125/125 123/124/124
f 119/120/120 126/127/127 121/122/122
f 127/128/128 121/122/122 126/127/127
f 128/129/129 129/130/130 130/131/131
f 131/132/132 130/131/131 129/130/130
f 132/133/133 130/131/131 131/132/132
f 133/134/134 134/135/135 135/136/136
f 136/137/137 135/136/136 134/135/135
f 132/133/133 137/138/138 130/131/131
f 128/129/129 130/131/131 137/138/138
f 133/134/134 138/139/139 139/140/140
f 138/139/139 140/141/141 139/140/140
f 141/142/142 142/143/143 143/144/144
f 144/145/145 143/144/144 142/143/143
f 143/144/144 144/145/145 145/146/146
f 146/147/147 145/146/146 144/145/145
f 145/146/146 146/147/147 147/148/148
f 148/149/149 147/148/148 146/147/147
f 132/133/133 131/132/132 149/150/150
f 131/132/132 129/130/130 149/150/150
f 150/151/151 151/152/152 152/153/153
f 153/154/154 152/153/153 151/152/152
f 155/155/155 729/156/156 154/157/157
f 156/158/158 157/159/159 151/152/152
f 158/160/160 151/152/152 157/159/159
f 159/161/161 160/162/162 150/151/151
f 156/158/158 150/151/151 160/162/162
f 161/163/163 162/164/164 163/165/165
f 164/166/166 163/165/165 162/164/164
f 165/167/167 166/168/168 167/169/169
f 168/170/170 167/169/169 166/168/168
f 169/171/171 170/172/172 171/173/173
f 172/174/174 171/173/173 170/172/172
f 173/175/175 171/173/173 172/174/174
f 174/176/176 175/177/177 176/178/178
f 177/179/179 176/178/178 175/177/177
f 97/98/98 99/100/100 109/110/110
f 109/110/110 99/100/100 178/180/180
f 179/181/181 178/180/180 99/100/100
f 99/100/100 113/114/114 179/181/181
f 180/182/182 179/181/181 113/114/114
f 179/181/181 180/182/182 181/183/183
f 181/183/183 180/182/182 182/184/184
f 182/184/184 180/182/182 183/185/185
f 184/186/186 182/184/184 183/185/185
f 178/180/180 179/181/181 185/187/187
f 181/183/183 185/187/187 179/181/181
f 172/174/174 170/172/172 186/188/188
f 173/175/175 172/174/174 186/188/188
f 187/189/189 188/190/190 189/191/191
f 174/176/176 187/189/189 189/191/191
f 169/171/171 171/173/173 190/192/192
f 173/175/175 190/192/192 171/173/173
f 143/144/144 145/146/146 191/193/193
f 191/193/193 145/146/146 192/194/194
f 145/146/146 147/148/148 192/194/194
f 141/142/142 143/144/144 193/195/195
f 191/193/193 193/195/195 143/144/144
f 194/196/196 193/195/195 191/193/193
f 195/197/197 194/196/196 191/193/193
f 191/193/193 192/194/194 195/197/197
f 196/198/198 195/197/197 192/194/194
f 197/199/199 195/197/197 196/198/198
f 198/200/200 197/199/199 196/198/198
f 197/199/199 198/200/200 199/201/201
f 114/115/115 199/201/201 198/200/200
f 200/202/202 199/201/201 114/115/115
f 116/117/117 200/202/202 114/115/115
f 201/203/203 199/201/201 200/202/202
f 194/196/196 195/197/197 202/204/204
f 141/142/142 193/195/195 203/205/205
f 204/206/206 205/207/207 206/208/208
f 207/209/209 206/208/208 205/207/207
f 205/207/207 208/210/210 207/209/209
f 209/211/211 207/209/209 208/210/210
f 209/211/211 208/210/210 6/4/4
f 7/5/5 6/4/4 208/210/210
f 210/212/212 40/38/38 39/37/37
f 210/212/212 211/213/213 40/38/38
f 212/214/214 40/38/38 211/213/213
f 211/213/213 213/215/215 212/214/214
f 214/216/216 212/214/214 213/215/215
f 215/217/217 216/218/218 217/219/219
f 218/220/220 217/219/219 216/218/218
f 219/221/221 220/222/222 221/223/223
f 222/224/224 221/223/223 220/222/222
f 223/225/225 224/226/226 225/227/227
f 226/228/228 225/227/227 224/226/226
f 226/228/228 224/226/226 227/229/229
f 228/230/230 227/229/229 224/226/226
f 227/229/229 228/230/230 219/221/221
f 220/222/222 219/221/221 228/230/230
f 229/231/231 230/232/232 231/233/233
f 232/234/234 231/233/233 230/232/232
f 230/232/232 233/235/235 232/234/234
f 233/235/235 234/236/236 232/234/234
f 235/237/237 234/236/236 233/235/235
f 234/236/236 235/237/237 236/238/238
f 234/236/236 236/238/238 237/239/239
f 238/240/240 202/204/204 195/197/197
f 239/241/241 238/240/240 195/197/197
f 195/197/197 197/199/199 239/241/241
f 240/242/242 239/241/241 197/199/199
f 192/194/194 147/148/148 241/243/243
f 242/244/244 241/243/243 147/148/148
f 243/245/245 231/233/233 232/234/234
f 231/233/233 243/245/245 244/246/246
f 245/247/247 244/246/246 243/245/245
f 243/245/245 246/248/248 245/247/247
f 247/249/249 236/238/238 235/237/237
f 248/250/250 249/251/251 250/252/252
f 250/252/252 249/251/251 251/253/253
f 246/248/248 251/253/253 249/251/251
f 237/239/239 251/253/253 246/248/248
f 251/253/253 237/239/239 252/254/254
f 236/238/238 252/254/254 237/239/239
f 229/231/231 233/235/235 230/232/232
f 253/255/255 254/256/256 255/257/257
f 256/258/258 257/259/259 258/260/260
f 259/261/261 258/260/260 257/259/259
f 259/261/261 260/262/262 258/260/260
f 259/261/261 261/263/263 260/262/262
f 262/264/264 9/7/7 263/265/265
f 7/5/5 263/265/265 9/7/7
f 263/265/265 7/5/5 264/266/266
f 208/210/210 264/266/266 7/5/5
f 235/237/237 233/235/235 247/249/249
f 265/267/267 266/268/268 267/269/269
f 689/270/270 269/271/271 268/272/272
f 270/273/273 771/274/274 737/275/275
f 5/276/276 774/277/277 43/43/43
f 271/278/278 757/279/279 728/280/280
f 155/155/155 749/281/281 702/282/282
f 273/283/283 274/284/284 275/285/285
f 276/286/286 13/10/10 15/12/12
f 276/286/286 277/287/287 13/10/10
f 257/259/259 256/258/258 215/217/217
f 278/288/288 279/289/289 280/290/290
f 216/218/218 215/217/217 256/258/258
f 281/291/291 278/288/288 280/290/290
f 282/292/292 278/288/288 281/291/291
f 283/293/293 284/294/294 285/295/295
f 115/116/116 114/115/115 286/296/296
f 198/200/200 286/296/296 114/115/115
f 198/200/200 196/198/198 286/296/296
f 287/297/297 286/296/296 196/198/198
f 288/298/298 289/299/299 290/300/300
f 291/301/301 290/300/300 289/299/299
f 292/302/302 165/167/167 293/303/303
f 166/168/168 165/167/167 292/302/302
f 294/304/304 295/305/305 82/83/83
f 159/161/161 150/151/151 152/153/153
f 213/215/215 760/306/306 298/307/307
f 158/160/160 153/154/154 151/152/152
f 188/190/190 187/189/189 177/179/179
f 299/308/308 300/309/309 301/310/310
f 302/311/311 303/312/311 304/313/311
f 305/314/312 301/310/310 300/309/309
f 306/315/313 307/316/313 308/317/313
f 309/318/314 310/319/315 311/320/316
f 95/96/96 312/321/317 96/97/97
f 313/322/318 311/320/316 310/319/315
f 311/320/316 313/322/318 314/323/319
f 315/324/320 314/323/319 313/322/318
f 316/325/321 314/323/319 317/326/322
f 318/327/323 317/326/322 319/328/324
f 320/329/325 321/330/326 322/331/327
f 315/324/320 317/326/322 314/323/319
f 315/324/320 319/328/324 317/326/322
f 323/332/328 324/333/329 325/334/330
f 324/333/329 323/332/328 326/335/331
f 327/336/332 326/335/331 323/332/328
f 328/337/333 329/338/334 330/339/335
f 331/340/336 332/341/337 333/342/338
f 334/343/339 335/344/340 336/345/341
f 337/346/342 338/347/343 339/348/344
f 340/349/345 341/350/346 342/351/347
f 343/352/348 344/353/349 345/354/350
f 334/343/339 346/355/351 347/356/352
f 348/357/353 349/358/353 350/359/353
f 340/349/345 351/360/354 341/350/346
f 347/356/352 335/344/340 334/343/339
f 352/361/355 353/362/355 354/363/355
f 340/349/345 355/364/356 351/360/354
f 196/198/198 192/194/194 287/297/297
f 241/243/243 287/297/297 192/194/194
f 356/365/357 357/366/358 315/324/320
f 358/367/359 359/368/360 360/369/361
f 361/370/362 360/369/361 359/368/360
f 361/370/362 362/371/363 360/369/361
f 362/371/363 361/370/362 363/372/364
f 364/373/365 222/224/224 365/374/366
f 220/222/222 365/374/366 222/224/224
f 365/374/366 220/222/222 366/375/367
f 228/230/230 366/375/367 220/222/222
f 366/375/367 228/230/230 367/376/368
f 224/226/226 367/376/368 228/230/230
f 133/134/134 135/136/136 138/139/139
f 135/136/136 136/137/137 138/139/139
f 140/141/141 138/139/139 136/137/137
f 176/178/178 177/179/179 187/189/189
f 174/176/176 176/178/178 187/189/189
f 368/377/369 369/378/370 370/379/371
f 371/380/372 91/92/92 372/381/373
f 331/340/336 373/382/374 374/383/375
f 123/124/124 122/123/123 358/367/359
f 368/377/369 375/384/376 369/378/370
f 359/368/360 358/367/359 122/123/123
f 199/201/201 376/385/377 240/242/242
f 199/201/201 240/242/242 197/199/199
f 377/386/378 378/387/379 379/388/379
f 380/389/380 142/143/143 141/142/142
f 368/377/369 381/390/381 375/384/376
f 382/391/382 383/392/382 384/393/382
f 331/340/336 374/383/375 332/341/337
f 385/394/383 386/395/384 387/396/385
f 388/397/386 389/398/386 390/399/386
f 391/400/387 724/401/388 703/402/389
f 40/38/38 212/214/214 393/403/390
f 394/404/391 393/403/390 212/214/214
f 212/214/214 693/405/392 394/404/391
f 715/406/393 212/214/214 214/216/216
f 396/407/394 397/408/395 55/54/54
f 398/409/396 55/54/54 397/408/395
f 397/408/395 66/65/65 398/409/396
f 68/67/67 398/409/396 66/65/65
f 399/410/397 400/411/398 401/412/399
f 402/413/400 401/412/399 400/411/398
f 400/411/398 403/414/401 402/413/400
f 404/415/402 402/413/400 403/414/401
f 405/416/403 406/417/404 66/65/65
f 66/65/65 397/408/395 405/416/403
f 407/418/405 405/416/403 397/408/395
f 397/408/395 396/407/394 407/418/405
f 408/419/406 407/418/405 396/407/394
f 27/24/24 26/23/23 409/420/407
f 26/23/23 739/421/408 409/420/407
f 162/164/164 161/163/163 411/422/409
f 412/423/410 411/422/409 161/163/163
f 411/422/409 412/423/410 413/424/411
f 414/425/412 413/424/411 412/423/410
f 413/424/411 414/425/412 415/426/413
f 416/427/414 415/426/413 414/425/412
f 417/428/415 415/426/413 416/427/414
f 415/426/413 417/428/415 418/429/416
f 419/430/417 420/431/418 421/432/419
f 422/433/420 421/432/419 420/431/418
f 422/433/420 423/434/421 421/432/419
f 424/435/422 421/432/419 423/434/421
f 288/298/298 424/435/422 423/434/421
f 423/434/421 289/299/299 288/298/298
f 425/436/423 426/437/424 329/338/334
f 426/437/424 425/436/423 427/438/425
f 428/439/426 427/438/425 425/436/423
f 427/438/425 428/439/426 429/440/427
f 425/436/423 430/441/428 428/439/426
f 431/442/429 432/443/430 433/444/431
f 433/444/431 432/443/430 329/338/334
f 432/443/430 430/441/428 329/338/334
f 430/441/428 425/436/423 329/338/334
f 337/346/342 339/348/344 434/445/432
f 67/66/66 66/65/65 406/417/404
f 434/445/432 3/3/3 2/2/2
f 435/446/433 53/52/52 3/3/3
f 3/3/3 434/445/432 435/446/433
f 339/348/344 435/446/433 434/445/432
f 436/447/434 724/401/388 391/400/387
f 436/447/434 391/400/387 437/448/435
f 436/447/434 776/449/436 742/450/437
f 438/451/438 776/449/436 437/448/435
f 211/213/213 705/452/439 213/215/215
f 440/453/440 211/213/213 441/454/441
f 210/212/212 441/454/441 211/213/213
f 441/454/441 210/212/212 442/455/442
f 39/37/37 442/455/442 210/212/212
f 442/455/442 39/37/37 443/456/443
f 37/35/35 443/456/443 39/37/37
f 444/457/444 443/456/443 37/35/35
f 87/88/88 444/457/444 37/35/35
f 445/458/445 443/456/443 444/457/444
f 441/454/441 296/459/446 440/453/440
f 296/459/446 694/460/447 723/461/448
f 76/78/78 446/462/449 447/463/450
f 76/78/78 447/463/450 75/76/76
f 75/76/76 748/464/451 733/465/452
f 446/462/449 709/466/453 775/467/454
f 447/463/450 735/468/455 768/469/456
f 27/24/24 409/420/407 24/21/21
f 24/21/21 409/420/407 448/470/457
f 448/470/457 449/471/458 24/21/21
f 449/471/458 448/470/457 76/78/78
f 76/78/78 81/82/82 449/471/458
f 450/472/459 437/448/435 391/400/387
f 391/400/387 442/455/442 450/472/459
f 451/473/460 450/472/459 442/455/442
f 452/474/461 453/475/462 454/476/463
f 455/477/464 453/475/462 456/478/465
f 457/479/466 458/480/467 295/305/305
f 22/19/19 24/21/21 449/471/458
f 459/481/468 20/17/17 458/480/467
f 458/480/467 20/17/17 295/305/305
f 20/17/17 21/18/18 295/305/305
f 21/18/18 81/82/82 295/305/305
f 21/18/18 22/19/19 81/82/82
f 449/471/458 81/82/82 22/19/19
f 460/482/469 325/334/330 324/333/329
f 461/483/470 462/484/471 463/485/472
f 440/453/440 751/486/473 765/487/474
f 440/453/440 759/488/475 211/213/213
f 296/459/446 722/489/476 694/460/447
f 464/490/477 465/491/478 466/492/479
f 442/455/442 391/400/387 441/454/441
f 296/459/446 441/454/441 391/400/387
f 703/402/389 296/459/446 391/400/387
f 467/493/480 11/9/9 262/264/264
f 40/38/38 393/403/390 38/36/36
f 468/494/481 38/36/36 393/403/390
f 9/7/7 262/264/264 11/9/9
f 469/495/482 701/496/483 758/497/484
f 471/498/485 692/499/486 452/474/487
f 473/500/488 420/431/418 474/501/489
f 419/430/417 474/501/489 420/431/418
f 475/502/490 107/108/108 476/503/491
f 106/107/107 476/503/491 107/108/108
f 477/504/492 478/505/493 479/506/494
f 480/507/495 479/506/494 478/505/493
f 481/508/496 480/507/495 482/509/497
f 478/505/493 482/509/497 480/507/495
f 483/510/498 376/385/377 201/203/203
f 199/201/201 201/203/203 376/385/377
f 484/511/499 485/512/500 486/513/501
f 487/514/502 486/513/501 485/512/500
f 488/515/503 277/287/287 489/516/504
f 276/286/286 489/516/504 277/287/287
f 81/82/82 82/83/83 295/305/305
f 295/305/305 294/304/304 457/479/466
f 490/517/505 457/479/466 294/304/304
f 453/475/462 769/518/506 456/478/465
f 491/519/507 492/520/508 89/90/90
f 93/94/94 89/90/90 492/520/508
f 492/520/508 493/521/509 93/94/94
f 494/522/510 93/94/94 493/521/509
f 493/521/509 495/523/511 494/522/510
f 496/524/512 494/522/510 495/523/511
f 496/524/512 497/525/513 494/522/510
f 496/524/512 498/526/514 497/525/513
f 286/296/296 287/297/297 499/527/515
f 500/528/516 499/527/515 287/297/297
f 501/529/517 502/530/518 10/8/8
f 503/531/519 10/8/8 502/530/518
f 502/530/518 504/532/520 503/531/519
f 505/533/521 503/531/519 504/532/520
f 504/532/520 506/534/522 505/533/521
f 507/535/523 505/533/521 506/534/522
f 506/534/522 508/536/524 507/535/523
f 446/462/449 732/537/525 709/466/453
f 446/462/449 448/470/457 409/420/407
f 446/462/449 76/78/78 448/470/457
f 509/538/526 510/539/527 83/84/84
f 84/85/85 83/84/84 510/539/527
f 511/540/528 512/541/529 445/458/445
f 443/456/443 445/458/445 512/541/529
f 513/542/530 514/543/531 515/544/532
f 516/545/533 515/544/532 514/543/531
f 517/546/534 518/547/535 487/514/502
f 486/513/501 487/514/502 518/547/535
f 519/548/536 223/225/225 520/549/537
f 225/227/227 520/549/537 223/225/225
f 521/550/538 25/22/22 23/20/20
f 25/22/22 521/550/538 26/23/23
f 522/551/539 710/552/540 777/553/541
f 523/554/542 524/555/543 19/16/16
f 23/20/20 19/16/16 524/555/543
f 524/555/543 521/550/538 23/20/20
f 491/519/507 89/90/90 91/92/92
f 525/556/544 491/519/507 91/92/92
f 526/557/545 525/556/544 91/92/92
f 527/558/546 525/556/544 526/557/545
f 497/525/513 528/559/547 494/522/510
f 494/522/510 528/559/547 93/94/94
f 528/559/547 94/95/95 93/94/94
f 497/525/513 498/526/514 529/560/548
f 530/561/549 529/560/548 498/526/514
f 531/562/550 500/528/516 241/243/243
f 287/297/297 241/243/243 500/528/516
f 532/563/551 531/562/550 242/244/244
f 241/243/243 242/244/244 531/562/550
f 20/17/17 459/481/468 18/15/15
f 533/564/552 18/15/15 459/481/468
f 534/565/553 535/566/554 516/545/533
f 515/544/532 516/545/533 535/566/554
f 536/567/555 361/370/362 219/221/221
f 219/221/221 537/568/556 536/567/555
f 538/569/557 536/567/555 537/568/556
f 536/567/555 538/569/557 539/570/558
f 540/571/559 539/570/558 538/569/557
f 539/570/558 540/571/559 541/572/560
f 124/125/125 542/573/561 122/123/123
f 543/574/562 363/372/364 361/370/362
f 361/370/362 536/567/555 543/574/562
f 539/570/558 543/574/562 536/567/555
f 283/293/293 285/295/295 278/288/288
f 279/289/289 278/288/288 285/295/295
f 544/575/563 545/576/564 546/577/565
f 547/578/566 546/577/565 545/576/564
f 548/579/567 546/577/565 547/578/566
f 548/579/567 549/580/568 546/577/565
f 549/580/568 550/581/569 546/577/565
f 551/582/570 546/577/565 550/581/569
f 552/583/571 553/584/572 550/581/569
f 551/582/570 550/581/569 553/584/572
f 553/584/572 554/585/573 551/582/570
f 555/586/574 551/582/570 554/585/573
f 551/582/570 555/586/574 556/587/575
f 556/587/575 555/586/574 557/588/576
f 558/589/577 557/588/576 555/586/574
f 558/589/577 559/590/578 557/588/576
f 558/589/577 560/591/579 559/590/578
f 560/591/579 561/592/580 559/590/578
f 562/593/581 561/592/580 560/591/579
f 557/588/576 563/594/582 556/587/575
f 564/595/583 565/596/584 566/597/585
f 565/596/584 245/247/247 566/597/585
f 62/61/61 700/598/586 756/599/587
f 489/516/504 276/286/286 568/600/588
f 569/601/589 570/602/590 571/603/591
f 6/4/4 8/6/6 571/603/591
f 569/601/589 571/603/591 8/6/6
f 569/601/589 8/6/6 503/531/519
f 570/602/590 569/601/589 503/531/519
f 505/533/521 570/602/590 503/531/519
f 505/533/521 507/535/523 570/602/590
f 10/8/8 503/531/519 8/6/6
f 508/536/524 754/604/592 507/535/523
f 507/535/523 696/605/593 573/606/594
f 507/535/523 573/606/594 574/607/595
f 574/607/595 570/602/590 507/535/523
f 570/602/590 574/607/595 259/261/261
f 259/261/261 571/603/591 570/602/590
f 227/229/229 219/221/221 361/370/362
f 361/370/362 359/368/360 227/229/229
f 226/228/228 227/229/229 359/368/360
f 226/228/228 359/368/360 122/123/123
f 225/227/227 226/228/228 122/123/123
f 542/573/561 225/227/227 122/123/123
f 520/549/537 225/227/227 542/573/561
f 221/223/223 537/568/556 219/221/221
f 217/219/219 575/608/596 215/217/217
f 574/607/595 261/263/263 259/261/261
f 206/208/208 207/209/209 575/608/596
f 575/608/596 207/209/209 215/217/217
f 207/209/209 209/211/211 215/217/217
f 209/211/211 257/259/259 215/217/217
f 209/211/211 6/4/4 257/259/259
f 6/4/4 571/603/591 257/259/259
f 259/261/261 257/259/259 571/603/591
f 576/609/597 577/610/598 578/611/599
f 576/609/597 579/612/600 577/610/598
f 343/352/348 580/613/601 344/353/349
f 581/614/602 344/353/349 580/613/601
f 582/615/603 583/616/604 584/617/605
f 585/618/606 584/617/605 583/616/604
f 586/619/607 587/620/608 588/621/609
f 589/622/610 588/621/609 587/620/608
f 590/623/611 586/619/607 428/439/426
f 588/621/609 428/439/426 586/619/607
f 588/621/609 591/624/612 428/439/426
f 592/625/613 591/624/612 588/621/609
f 589/622/610 592/625/613 588/621/609
f 589/622/610 593/626/614 592/625/613
f 594/627/615 592/625/613 593/626/614
f 591/624/612 429/440/427 428/439/426
f 590/623/611 428/439/426 430/441/428
f 595/628/616 596/629/617 540/571/559
f 434/445/432 2/2/2 337/346/342
f 597/630/618 337/346/342 2/2/2
f 598/631/619 337/346/342 597/630/618
f 599/632/620 598/631/619 597/630/618
f 269/271/271 764/633/621 600/634/622
f 582/615/603 601/635/623 583/616/604
f 602/636/624 583/616/604 601/635/623
f 602/636/624 601/635/623 603/637/625
f 604/638/626 603/637/625 601/635/623
f 605/639/627 603/637/625 604/638/626
f 605/639/627 606/640/628 603/637/625
f 607/641/629 606/640/628 605/639/627
f 606/640/628 607/641/629 608/642/630
f 156/158/158 151/152/152 150/151/151
f 246/248/248 566/597/585 245/247/247
f 566/597/585 246/248/248 609/643/631
f 609/643/631 246/248/248 249/251/251
f 249/251/251 610/644/632 609/643/631
f 611/645/633 609/643/631 610/644/632
f 611/645/633 610/644/632 612/646/634
f 610/644/632 613/647/635 612/646/634
f 614/648/636 612/646/634 613/647/635
f 612/646/634 614/648/636 559/590/578
f 559/590/578 614/648/636 615/649/637
f 616/650/638 559/590/578 615/649/637
f 557/588/576 559/590/578 616/650/638
f 616/650/638 617/651/639 557/588/576
f 563/594/582 557/588/576 617/651/639
f 563/594/582 617/651/639 544/575/563
f 617/651/639 618/652/640 544/575/563
f 581/614/602 578/611/599 577/610/598
f 596/629/617 541/572/560 540/571/559
f 579/612/600 345/354/350 577/610/598
f 344/353/349 577/610/598 345/354/350
f 581/614/602 577/610/598 344/353/349
f 380/389/380 141/142/142 203/205/205
f 566/597/585 609/643/631 619/653/641
f 620/654/642 559/590/578 561/592/580
f 561/592/580 621/655/643 620/654/642
f 619/653/641 620/654/642 621/655/643
f 620/654/642 619/653/641 622/656/644
f 622/656/644 619/653/641 609/643/631
f 609/643/631 611/645/633 622/656/644
f 623/657/645 615/649/637 614/648/636
f 624/658/646 545/576/564 625/659/647
f 544/575/563 625/659/647 545/576/564
f 625/659/647 544/575/563 618/652/640
f 247/249/249 626/660/648 627/661/649
f 628/662/650 629/663/651 630/664/652
f 456/478/465 631/665/653 455/477/464
f 455/477/464 719/666/654 453/475/462
f 454/476/463 741/667/655 773/668/656
f 628/662/650 708/669/657 766/670/658
f 632/671/659 628/662/650 633/672/660
f 630/664/652 633/672/660 628/662/650
f 633/672/660 630/664/652 634/673/661
f 635/674/662 634/673/661 630/664/652
f 635/674/662 630/664/652 636/675/663
f 229/231/231 636/675/663 630/664/652
f 629/663/651 229/231/231 630/664/652
f 229/231/231 629/663/651 233/235/235
f 233/235/235 629/663/651 247/249/249
f 629/663/651 637/676/664 247/249/249
f 229/231/231 638/677/665 636/675/663
f 452/474/461 454/476/463 632/671/659
f 465/491/478 639/678/666 466/492/479
f 465/491/478 640/679/667 639/678/666
f 641/680/668 639/678/666 640/679/667
f 329/338/334 426/437/424 330/339/335
f 643/681/669 644/682/670 221/223/223
f 537/568/556 221/223/223 644/682/670
f 644/682/670 645/683/671 537/568/556
f 538/569/557 537/568/556 645/683/671
f 645/683/671 595/628/616 538/569/557
f 646/684/672 647/685/673 648/686/674
f 637/676/664 648/686/674 647/685/673
f 647/685/673 626/660/648 637/676/664
f 247/249/249 637/676/664 626/660/648
f 649/687/675 637/676/664 629/663/651
f 637/676/664 649/687/675 648/686/674
f 631/665/653 648/686/674 649/687/675
f 650/688/676 266/268/268 651/689/677
f 265/267/267 651/689/677 266/268/268
f 253/255/255 255/257/257 652/690/678
f 650/688/676 652/690/678 255/257/257
f 337/346/342 653/691/679 338/347/343
f 254/256/256 267/269/269 255/257/257
f 266/268/268 255/257/257 267/269/269
f 650/688/676 255/257/257 266/268/268
f 540/571/559 538/569/557 595/628/616
f 654/692/680 655/693/681 656/694/682
f 654/692/680 656/694/682 463/485/472
f 657/695/683 463/485/472 656/694/682
f 657/695/683 461/483/470 463/485/472
f 657/695/683 658/696/684 461/483/470
f 658/696/684 659/697/685 461/483/470
f 461/483/470 659/697/685 273/283/283
f 660/698/686 273/283/283 659/697/685
f 443/456/443 451/473/460 442/455/442
f 443/456/443 512/541/529 451/473/460
f 16/13/13 661/699/687 15/12/12
f 662/700/688 661/699/687 663/701/689
f 16/13/13 663/701/689 661/699/687
f 16/13/13 664/702/690 663/701/689
f 664/702/690 16/13/13 665/703/691
f 17/14/14 665/703/691 16/13/13
f 666/704/692 663/701/689 664/702/690
f 72/71/71 568/600/588 70/69/69
f 568/600/588 276/286/286 70/69/69
f 70/69/69 276/286/286 69/68/68
f 15/12/12 69/68/68 276/286/286
f 69/68/68 15/12/12 68/67/67
f 661/699/687 68/67/67 15/12/12
f 68/67/67 661/699/687 398/409/396
f 662/700/688 398/409/396 661/699/687
f 662/700/688 57/56/56 398/409/396
f 662/700/688 663/701/689 57/56/56
f 58/57/57 57/56/56 663/701/689
f 58/57/57 663/701/689 61/60/60
f 666/704/692 61/60/60 663/701/689
f 717/705/693 61/60/60 666/704/692
f 55/54/54 398/409/396 57/56/56
f 737/275/275 642/706/694 270/273/273
f 667/707/695 757/279/279 271/278/278
f 275/285/285 462/484/471 273/283/283
f 461/483/470 273/283/283 462/484/471
f 660/698/686 668/708/696 273/283/283
f 668/708/696 274/284/284 273/283/283
f 315/324/320 357/366/358 319/328/324
f 669/709/697 319/328/324 357/366/358
f 670/710/698 671/711/699 672/712/700
f 671/711/699 673/713/701 672/712/700
f 671/711/699 670/710/698 321/330/326
f 670/710/698 322/331/327 321/330/326
f 674/714/702 299/308/703 675/715/704
f 676/716/705 675/715/704 299/308/703
f 313/322/318 356/365/357 315/324/320
f 95/96/96 677/717/706 312/321/317
f 678/718/707 679/719/708 680/720/709
f 678/718/707 284/294/294 679/719/708
f 681/721/710 679/719/708 284/294/294
f 681/721/710 284/294/294 283/293/293
f 681/721/710 283/293/293 682/722/711
f 682/722/711 283/293/293 683/723/712
f 283/293/293 278/288/288 683/723/712
f 282/292/292 683/723/712 278/288/288
f 655/693/681 684/724/713 656/694/682
f 657/695/683 656/694/682 684/724/713
f 685/725/714 657/695/683 684/724/713
f 685/725/714 686/726/715 657/695/683
f 658/696/684 657/695/683 686/726/715
f 91/92/92 90/91/91 372/381/373
f 687/727/716 688/728/717 313/322/318
f 356/365/357 313/322/318 688/728/717
f 727/729/718 34/32/719 44/730/720
f 762/731/721 748/464/451 447/463/450
f 774/277/277 761/41/41 43/43/43
f 724/401/388 720/732/722 392/733/723
f 769/518/506 706/734/724 456/478/465
f 758/497/484 470/735/725 456/478/465
f 731/736/726 716/737/727 78/80/80
f 772/77/77 718/74/74 74/73/73
f 726/738/728 698/739/729 436/447/434
f 696/605/593 754/604/592 572/740/730
f 409/420/407 739/421/408 410/741/731
f 736/742/732 453/475/462 452/474/461
f 705/452/439 730/743/733 213/215/215
f 745/744/734 713/745/735 4/746/736
f 752/747/737 715/406/393 395/748/738
f 753/749/739 74/73/73 699/75/75
f 767/750/740 691/751/741 438/451/438
f 738/752/742 712/753/743 667/707/695
f 409/420/407 732/537/525 446/462/449
f 750/754/744 722/489/476 296/459/446
f 452/474/487 692/499/486 472/755/745
f 704/756/746 727/729/718 44/730/720
f 756/599/587 700/598/586 567/757/747
f 719/666/654 690/758/748 453/475/462
f 706/734/724 758/497/484 456/478/465
f 698/739/729 720/732/722 436/447/434
f 742/450/437 726/738/728 436/447/434
f 760/306/306 730/743/733 297/759/749
f 755/760/750 649/687/675 746/761/751
f 713/745/735 5/276/276 4/746/736
f 747/762/752 721/763/753 642/706/694
f 714/764/754 750/754/744 296/459/446
f 707/765/755 770/766/756 42/42/42
f 751/486/473 296/459/446 723/461/448
f 753/749/739 731/736/726 78/80/80
f 691/751/741 734/767/757 438/451/438
f 700/598/586 717/705/693 567/757/747
f 755/760/750 455/477/464 631/665/653
f 778/39/39 743/768/758 41/40/40
f 754/604/592 725/769/759 572/740/730
f 695/770/760 744/771/761 12/772/762
f 693/405/392 752/747/737 395/748/738
f 708/669/657 454/476/463 773/668/656
f 777/553/541 26/23/23 521/550/538
f 690/758/748 741/667/655 453/475/462
f 775/467/454 447/463/450 446/462/449
f 35/31/31 763/33/33 778/39/39
f 761/41/41 707/765/755 42/42/42
f 75/76/76 733/465/452 772/77/77
f 155/155/155 702/282/282 729/156/156
f 689/270/270 711/773/763 269/271/271
f 5/276/276 740/774/764 774/277/277
f 155/155/155 272/775/281 749/281/281
f 213/215/215 730/743/733 760/306/306
f 212/214/214 752/747/737 693/405/392
f 715/406/393 752/747/737 212/214/214
f 436/447/434 720/732/722 724/401/388
f 436/447/434 437/448/435 776/449/436
f 438/451/438 734/767/757 776/449/436
f 211/213/213 759/488/475 705/452/439
f 75/76/76 447/463/450 748/464/451
f 440/453/440 765/487/474 759/488/475
f 703/402/389 714/764/754 296/459/446
f 453/475/462 736/742/732 769/518/506
f 62/61/61 61/60/60 700/598/586
f 508/536/524 725/769/759 754/604/592
f 507/535/523 754/604/592 696/605/593
f 269/271/271 711/773/763 764/633/621
f 455/477/464 697/776/765 719/666/654
f 454/476/463 453/475/462 741/667/655
f 628/662/650 632/671/659 708/669/657
f 717/705/693 700/598/586 61/60/60
f 737/275/275 747/762/752 642/706/694
f 667/707/695 712/753/743 757/279/279
f 758/497/484 701/496/483 470/735/725
f 753/749/739 78/80/80 74/73/73
f 755/760/750 631/665/653 649/687/675
f 713/745/735 740/774/764 5/276/276
f 751/486/473 440/453/440 296/459/446
f 755/760/750 697/776/765 455/477/464
f 708/669/657 632/671/659 454/476/463
f 777/553/541 710/552/540 26/23/23
f 775/467/454 735/468/455 447/463/450
l 716 79
l 767 439
