# Blender 4.1.1
# www.blender.org
mtllib 65mm.mtl
o 65mm
v 1.254827 0.000015 -0.249814
v 1.279419 0.000015 -0.000121
v -0.000462 -0.000000 -0.000121
v 1.181994 0.000015 -0.489911
v 1.253278 0.009817 0.249261
v 1.180536 0.009816 0.489063
v 1.181994 0.000015 0.489668
v 1.254827 0.000015 0.249571
v -1.255750 0.000014 0.249572
v -1.280342 0.000015 -0.000121
v -1.182917 0.000014 0.489668
v 0.685289 0.127601 1.026176
v 0.872332 0.127601 0.872673
v -0.000462 0.127609 -0.000121
v 0.471891 0.127601 1.140239
v -1.211062 0.127601 -0.240924
v -1.234779 0.127601 -0.000121
v -1.140822 0.127601 -0.472473
v -1.211062 0.127601 0.240683
v -1.140822 0.127601 0.472232
v 1.210139 0.127602 0.240682
v 1.233856 0.127602 -0.000121
v 1.139899 0.127602 0.472231
v -1.026758 0.127601 0.685629
v -0.873256 0.127601 0.872673
v 1.210138 0.127602 -0.240925
v 1.139898 0.127602 -0.472474
v 0.240341 0.127602 -1.210721
v -0.000462 0.127602 -1.234438
v 0.471891 0.127602 -1.140481
v -0.686211 0.127601 1.026176
v -0.472814 0.127601 1.140239
v 1.025835 0.127602 -0.685871
v 0.872332 0.127602 -0.872915
v -0.241265 0.127602 -1.210721
v -0.472815 0.127602 -1.140481
v -0.241265 0.127601 1.210479
v -0.000461 0.127601 1.234196
v 0.685288 0.127602 -1.026418
v -0.686212 0.127601 -1.026418
v -0.873256 0.127601 -0.872915
v 0.240342 0.127601 1.210479
v 1.063720 0.000015 0.710943
v 0.904551 0.000015 0.904891
v -1.255750 0.000015 -0.249813
v -1.182917 0.000015 -0.489910
v 0.710602 0.000015 1.064061
v 0.489328 0.000015 1.182335
v -1.064644 0.000015 -0.711185
v -0.905474 0.000015 -0.905133
v 0.249231 0.000015 1.255167
v -0.000461 0.000015 1.279760
v -0.711525 0.000015 -1.064303
v -0.490251 0.000015 -1.182577
v 0.710602 0.000015 -1.064303
v 0.904551 0.000015 -0.905133
v 0.489327 0.000015 -1.182577
v -0.250154 0.000014 1.255167
v -0.490251 0.000014 1.182335
v -0.250154 0.000015 -1.255409
v -0.000462 0.000015 -1.280002
v 1.063720 0.000015 -0.711185
v 0.249230 0.000015 -1.255409
v -1.064644 0.000014 0.710943
v -0.905474 0.000014 0.904891
v 1.025836 0.127601 0.685629
v -1.026759 0.127601 -0.685871
v -0.711525 0.000014 1.064061
v -1.181458 0.009816 0.489065
v -1.254201 0.009816 0.249264
v 0.709725 0.009817 -1.062990
v 0.903434 0.009817 -0.904017
v 1.277840 0.009817 -0.000123
v -1.063330 0.009816 0.710066
v 0.488723 0.009817 -1.181118
v 1.253277 0.009817 -0.249507
v -0.904357 0.009816 0.903775
v 0.248922 0.009817 -1.253861
v 1.180534 0.009817 -0.489308
v -0.710647 0.009816 1.062748
v -0.000462 0.009817 -1.278422
v 1.062406 0.009817 -0.710309
v -0.489646 0.009816 1.180876
v -0.249847 0.009817 -1.253860
v 0.876122 0.120115 -0.876705
v 1.030291 0.120115 -0.688851
v -0.249845 0.009816 1.253619
v -0.489647 0.009816 -1.181117
v -0.000461 0.009816 1.278180
v -0.710649 0.009816 -1.062989
v 0.248923 0.009816 1.253618
v -0.904358 0.009816 -0.904016
v 0.488724 0.009816 1.180875
v -1.063331 0.009816 -0.710307
v 0.709726 0.009816 1.062747
v -1.181458 0.009816 -0.489306
v 0.903435 0.009816 0.903774
v -1.254201 0.009816 -0.249505
v 1.062408 0.009816 0.710064
v -1.278763 0.009816 -0.000120
v 1.144851 0.120114 0.474281
v 1.030293 0.120114 0.688605
v -1.216319 0.120114 0.241729
v -1.240139 0.120114 -0.000120
v -1.216319 0.120114 -0.241969
v 0.876123 0.120114 0.876462
v -1.145774 0.120114 -0.474524
v 0.688267 0.120114 1.030632
v -1.031216 0.120114 -0.688848
v 0.473943 0.120114 1.145191
v -0.877046 0.120114 -0.876705
v 0.241388 0.120114 1.215736
v -0.689190 0.120114 -1.030874
v -0.000461 0.120114 1.239556
v -0.474866 0.120114 -1.145433
v -0.242310 0.120114 1.215736
v -0.242312 0.120114 -1.215978
v -0.474865 0.120114 1.145192
v -0.000462 0.120115 -1.239798
v -0.689189 0.120114 1.030634
v 1.144850 0.120115 -0.474526
v 0.241387 0.120115 -1.215978
v -0.877045 0.120114 0.876464
v 1.215395 0.120115 -0.241972
v 0.473942 0.120115 -1.145433
v -1.031215 0.120114 0.688607
v 1.239215 0.120115 -0.000123
v 0.688265 0.120115 -1.030875
v -1.145774 0.120114 0.474284
v 1.215395 0.120114 0.241726
v 1.222797 0.009840 0.370949
v 1.180706 0.127620 0.358182
v 1.185836 0.120096 0.359737
v 1.224308 -0.000009 0.371409
v 1.227912 0.127620 0.120863
v 1.271685 0.009840 0.125173
v 1.273256 -0.000009 0.125329
v 1.233246 0.120096 0.121387
v 1.273256 -0.000008 -0.125572
v 1.271684 0.009840 -0.125418
v 1.227912 0.127620 -0.121106
v 1.233246 0.120096 -0.121632
v 1.224308 -0.000008 -0.371651
v 1.185835 0.120096 -0.359982
v 1.180706 0.127620 -0.358425
v 1.222796 0.009840 -0.371194
v 1.092835 0.120097 -0.584502
v 1.088109 0.127620 -0.581974
v 1.126899 0.009841 -0.602710
v 1.128292 -0.000008 -0.603453
v 0.953678 0.127620 -0.783163
v 0.957821 0.120097 -0.786564
v 0.988899 -0.000008 -0.812069
v 0.987678 0.009841 -0.811068
v 0.583918 0.120097 -1.093419
v 0.581391 0.127620 -1.088692
v 0.602870 -0.000008 -1.128875
v 0.602125 0.009841 -1.127483
v 0.785981 0.120097 -0.958404
v 0.811486 -0.000008 -0.989482
v 0.810484 0.009841 -0.988261
v 0.782581 0.127620 -0.954261
v 0.371068 -0.000008 -1.224890
v 0.359397 0.120096 -1.186418
v 0.370609 0.009840 -1.223380
v 0.357841 0.127620 -1.181289
v 0.124833 0.009840 -1.272267
v 0.121047 0.120096 -1.233829
v 0.120522 0.127620 -1.228495
v 0.124988 -0.000008 -1.273839
v -0.121446 0.127620 -1.228494
v -0.125758 0.009840 -1.272267
v -0.121972 0.120096 -1.233829
v -0.125912 -0.000009 -1.273839
v -0.371992 -0.000009 -1.224890
v -0.358765 0.127620 -1.181289
v -0.371534 0.009840 -1.223379
v -0.360322 0.120096 -1.186418
v -0.603794 -0.000009 -1.128875
v -0.584842 0.120096 -1.093418
v -0.582315 0.127620 -1.088691
v -0.603050 0.009840 -1.127482
v -0.812410 -0.000009 -0.989482
v -0.811408 0.009840 -0.988261
v -0.786905 0.120096 -0.958404
v -0.783504 0.127619 -0.954261
v -0.989823 -0.000009 -0.812069
v -0.954602 0.127619 -0.783163
v -0.958745 0.120096 -0.786563
v -0.988603 0.009840 -0.811066
v -1.129216 -0.000009 -0.603452
v -1.089032 0.127619 -0.581974
v -1.093760 0.120096 -0.584500
v -1.127823 0.009840 -0.602708
v -1.225231 -0.000009 -0.371651
v -1.186759 0.120096 -0.359980
v -1.181630 0.127619 -0.358424
v -1.223720 0.009840 -0.371192
v -1.234169 0.120096 -0.121630
v -1.274179 -0.000009 -0.125571
v -1.272608 0.009840 -0.125416
v -1.228835 0.127619 -0.121105
v -1.274179 -0.000009 0.125330
v -1.228835 0.127619 0.120864
v -1.272608 0.009840 0.125175
v -1.234169 0.120096 0.121389
v -1.225231 -0.000009 0.371409
v -1.223720 0.009840 0.370951
v -1.181630 0.127619 0.358183
v -1.186758 0.120096 0.359739
v -1.127823 0.009840 0.602467
v -1.093759 0.120096 0.584260
v -1.129216 -0.000009 0.603211
v -1.089032 0.127619 0.581733
v -0.988602 0.009840 0.810826
v -0.958744 0.120096 0.786322
v -0.954602 0.127619 0.782921
v -0.989823 -0.000009 0.811827
v -0.783504 0.127619 0.954019
v -0.812409 -0.000009 0.989241
v -0.811407 0.009840 0.988020
v -0.786904 0.120096 0.958163
v -0.584841 0.120096 1.093177
v -0.582315 0.127619 1.088450
v -0.603793 -0.000009 1.128633
v -0.603048 0.009840 1.127241
v -0.371991 -0.000009 1.224648
v -0.371532 0.009840 1.223137
v -0.358765 0.127619 1.181047
v -0.360320 0.120096 1.186176
v -0.121446 0.127619 1.228252
v -0.121970 0.120096 1.233587
v -0.125756 0.009840 1.272025
v -0.125912 -0.000009 1.273597
v 0.124835 0.009840 1.272025
v 0.120523 0.127619 1.228252
v 0.124989 -0.000009 1.273597
v 0.121049 0.120096 1.233587
v 0.359398 0.120096 1.186176
v 0.357842 0.127619 1.181047
v 0.370611 0.009840 1.223137
v 0.371068 -0.000009 1.224648
v 0.602127 0.009840 1.127240
v 0.602870 -0.000009 1.128633
v 0.581392 0.127619 1.088450
v 0.583919 0.120096 1.093176
v 0.785982 0.120096 0.958162
v 0.810485 0.009840 0.988019
v 0.782581 0.127619 0.954019
v 0.811486 -0.000009 0.989240
v 0.953678 0.127619 0.782921
v 0.987680 0.009840 0.810824
v 0.957822 0.120096 0.786321
v 0.988900 -0.000009 0.811827
v 1.092836 0.120096 0.584258
v 1.126900 0.009840 0.602465
v 1.128292 -0.000009 0.603211
v 1.088109 0.127620 0.581732
vn 0.9622 -0.2555 -0.0947
vn -0.0000 -1.0000 -0.0000
vn 0.9484 -0.2550 -0.1887
vn 0.8975 0.2374 0.3717
vn 0.9252 -0.2555 0.2807
vn 0.9297 0.2370 0.2820
vn -0.9622 -0.2554 0.0947
vn -0.9484 -0.2550 0.1887
vn 0.3545 0.8293 0.4319
vn -0.0000 1.0000 -0.0000
vn 0.3095 0.8304 0.4633
vn -0.5560 0.8293 -0.0547
vn -0.5465 0.8304 -0.1088
vn -0.5347 0.8293 0.1622
vn -0.5465 0.8304 0.1086
vn 0.5561 0.8293 0.0547
vn 0.5466 0.8303 0.1088
vn -0.4319 0.8293 0.3545
vn -0.4633 0.8304 0.3095
vn 0.5347 0.8293 -0.1623
vn 0.5465 0.8304 -0.1086
vn 0.0547 0.8293 -0.5561
vn 0.1088 0.8304 -0.5465
vn -0.2633 0.8294 0.4928
vn -0.3096 0.8304 0.4633
vn 0.4319 0.8293 -0.3545
vn 0.4633 0.8304 -0.3095
vn -0.1623 0.8293 -0.5347
vn -0.1087 0.8304 -0.5465
vn -0.0547 0.8293 0.5561
vn -0.1088 0.8304 0.5465
vn 0.2633 0.8293 -0.4928
vn 0.3096 0.8304 -0.4633
vn -0.3545 0.8293 -0.4319
vn -0.3095 0.8304 -0.4633
vn 0.1622 0.8293 0.5347
vn 0.1086 0.8304 0.5465
vn 0.9484 -0.2550 0.1886
vn 0.7473 -0.2555 0.6134
vn 0.8040 -0.2550 0.5372
vn -0.9252 -0.2555 -0.2807
vn -0.9484 -0.2550 -0.1886
vn 0.4557 -0.2555 0.8527
vn 0.5372 -0.2550 0.8040
vn -0.7473 -0.2554 -0.6134
vn -0.8040 -0.2550 -0.5372
vn 0.0947 -0.2555 0.9622
vn 0.1887 -0.2550 0.9484
vn -0.4557 -0.2555 -0.8527
vn -0.5372 -0.2550 -0.8040
vn 0.6133 -0.2554 -0.7474
vn 0.5372 -0.2550 -0.8040
vn -0.2807 -0.2555 0.9252
vn -0.1886 -0.2550 0.9484
vn -0.0947 -0.2554 -0.9622
vn -0.1887 -0.2550 -0.9484
vn 0.8527 -0.2555 -0.4557
vn 0.8040 -0.2550 -0.5372
vn 0.2807 -0.2555 -0.9252
vn 0.1886 -0.2550 -0.9484
vn -0.8527 -0.2555 0.4557
vn -0.8040 -0.2550 0.5372
vn 0.4928 0.8293 0.2634
vn 0.4633 0.8304 0.3096
vn -0.4928 0.8293 -0.2634
vn -0.4633 0.8304 -0.3096
vn -0.6134 -0.2555 0.7473
vn -0.5372 -0.2550 0.8040
vn -0.9527 0.2374 0.1895
vn -0.9252 -0.2555 0.2806
vn -0.9297 0.2370 0.2820
vn 0.6869 0.2374 -0.6869
vn 0.6163 0.2370 -0.7510
vn 0.9528 0.2374 0.1895
vn 0.9622 -0.2555 0.0948
vn 0.9668 0.2370 0.0953
vn -0.8975 0.2373 0.3718
vn -0.8568 0.2370 0.4580
vn 0.5397 0.2374 -0.8077
vn 0.4558 -0.2555 -0.8526
vn 0.4580 0.2370 -0.8568
vn 0.9714 0.2374 -0.0000
vn 0.9668 0.2370 -0.0952
vn -0.8077 0.2374 0.5397
vn -0.7474 -0.2554 0.6133
vn -0.7510 0.2370 0.6163
vn 0.3717 0.2374 -0.8975
vn 0.2820 0.2370 -0.9297
vn 0.9527 0.2374 -0.1895
vn 0.9252 -0.2555 -0.2806
vn 0.9297 0.2370 -0.2820
vn -0.6869 0.2374 0.6869
vn -0.6163 0.2370 0.7510
vn 0.1895 0.2374 -0.9528
vn 0.0948 -0.2554 -0.9622
vn 0.0952 0.2370 -0.9668
vn 0.8975 0.2374 -0.3718
vn 0.8568 0.2370 -0.4580
vn -0.5397 0.2374 0.8077
vn -0.4558 -0.2555 0.8526
vn -0.4580 0.2370 0.8568
vn -0.0000 0.2374 -0.9714
vn -0.0952 0.2370 -0.9668
vn 0.7466 0.4401 -0.4989
vn 0.6944 0.4394 -0.5699
vn -0.3717 0.2374 0.8975
vn -0.2820 0.2370 0.9297
vn -0.1895 0.2374 -0.9527
vn -0.2806 -0.2554 -0.9252
vn -0.2820 0.2370 -0.9297
vn -0.1895 0.2374 0.9528
vn -0.0948 -0.2555 0.9622
vn -0.0952 0.2370 0.9668
vn -0.3718 0.2374 -0.8975
vn -0.4579 0.2370 -0.8568
vn -0.0000 0.2374 0.9714
vn 0.0952 0.2370 0.9668
vn -0.5397 0.2374 -0.8077
vn -0.6133 -0.2554 -0.7474
vn -0.6163 0.2370 -0.7510
vn 0.1895 0.2374 0.9527
vn 0.2806 -0.2555 0.9252
vn 0.2820 0.2370 0.9297
vn -0.6869 0.2374 -0.6869
vn -0.7510 0.2370 -0.6163
vn 0.3718 0.2374 0.8975
vn 0.4580 0.2370 0.8568
vn -0.8077 0.2374 -0.5397
vn -0.8527 -0.2555 -0.4558
vn -0.8568 0.2370 -0.4580
vn 0.5397 0.2374 0.8077
vn 0.6133 -0.2555 0.7474
vn 0.6163 0.2370 0.7510
vn -0.8975 0.2374 -0.3717
vn -0.9297 0.2370 -0.2820
vn 0.6869 0.2374 0.6869
vn 0.7510 0.2370 0.6163
vn -0.9528 0.2374 -0.1895
vn -0.9622 -0.2555 -0.0948
vn -0.9668 0.2370 -0.0952
vn 0.7466 0.4400 0.4989
vn 0.7922 0.4394 0.4234
vn -0.5561 0.8293 0.0548
vn -0.8980 0.4400 -0.0000
vn -0.8940 0.4394 0.0881
vn -0.9668 0.2370 0.0952
vn -0.9714 0.2374 -0.0000
vn 0.8568 0.2370 0.4580
vn 0.8077 0.2374 0.5397
vn -0.8807 0.4400 -0.1752
vn -0.8940 0.4394 -0.0880
vn 0.4319 0.8294 0.3544
vn 0.6349 0.4401 0.6350
vn 0.6944 0.4394 0.5698
vn -0.5347 0.8294 -0.1621
vn -0.8296 0.4401 -0.3437
vn -0.8596 0.4394 -0.2607
vn 0.4989 0.4400 0.7467
vn 0.5699 0.4394 0.6944
vn -0.7922 0.4394 -0.4235
vn 0.2634 0.8293 0.4927
vn 0.3436 0.4400 0.8296
vn 0.4235 0.4394 0.7922
vn -0.4319 0.8294 -0.3544
vn -0.6350 0.4400 -0.6350
vn -0.6944 0.4394 -0.5699
vn 0.1752 0.4401 0.8807
vn 0.2608 0.4394 0.8596
vn -0.4989 0.4400 -0.7467
vn -0.5699 0.4394 -0.6944
vn 0.0548 0.8294 0.5560
vn -0.0000 0.4400 0.8980
vn 0.0881 0.4394 0.8940
vn -0.2635 0.8293 -0.4928
vn -0.3436 0.4400 -0.8296
vn -0.4235 0.4394 -0.7922
vn -0.1752 0.4400 0.8807
vn -0.0880 0.4394 0.8940
vn -0.1752 0.4400 -0.8807
vn -0.2608 0.4394 -0.8596
vn -0.1621 0.8293 0.5347
vn -0.3437 0.4400 0.8296
vn -0.2607 0.4394 0.8596
vn 0.7510 0.2370 -0.6163
vn 0.8077 0.2374 -0.5397
vn -0.0548 0.8293 -0.5561
vn -0.0000 0.4401 -0.8980
vn -0.0881 0.4394 -0.8940
vn -0.4989 0.4401 0.7466
vn -0.4234 0.4394 0.7923
vn 0.4928 0.8293 -0.2634
vn 0.8296 0.4400 -0.3436
vn 0.7922 0.4394 -0.4235
vn 0.1752 0.4400 -0.8807
vn 0.0880 0.4394 -0.8940
vn -0.3544 0.8293 0.4320
vn -0.6350 0.4400 0.6349
vn -0.5698 0.4394 0.6944
vn 0.8807 0.4401 -0.1752
vn 0.8596 0.4394 -0.2608
vn 0.2132 0.8304 -0.5148
vn 0.2608 0.4394 -0.8596
vn 0.1622 0.8293 -0.5348
vn -0.7467 0.4401 0.4989
vn -0.6944 0.4394 0.5699
vn 0.5561 0.8293 -0.0548
vn 0.8980 0.4400 -0.0000
vn 0.8940 0.4394 -0.0881
vn 0.4989 0.4400 -0.7466
vn 0.4234 0.4394 -0.7922
vn -0.4927 0.8293 0.2634
vn -0.8296 0.4400 0.3436
vn -0.7922 0.4394 0.4235
vn 0.8807 0.4400 0.1752
vn 0.8940 0.4394 0.0880
vn 0.3940 0.8304 -0.3940
vn 0.5699 0.4394 -0.6944
vn 0.3545 0.8293 -0.4319
vn -0.8807 0.4400 0.1752
vn -0.8596 0.4394 0.2608
vn 0.5347 0.8293 0.1622
vn 0.8296 0.4400 0.3437
vn 0.8596 0.4394 0.2607
vn 0.7474 -0.2555 -0.6133
vn 0.8526 -0.2554 0.4558
vn -0.9669 -0.2550 -0.0000
vn 0.6350 0.4401 -0.6350
vn 0.5148 0.8304 -0.2132
vn 0.6837 -0.2550 -0.6837
vn 0.3700 -0.2550 -0.8933
vn -0.0000 -0.2550 -0.9669
vn -0.6837 -0.2550 -0.6837
vn -0.2132 0.8303 -0.5149
vn -0.3940 0.8304 -0.3940
vn -0.8933 -0.2550 -0.3700
vn -0.5148 0.8304 -0.2133
vn -0.5572 0.8304 -0.0001
vn -0.8933 -0.2550 0.3700
vn -0.5148 0.8304 0.2132
vn -0.6837 -0.2550 0.6837
vn -0.3941 0.8304 0.3940
vn -0.3700 -0.2550 0.8933
vn -0.2133 0.8304 0.5148
vn -0.0000 -0.2550 0.9669
vn -0.0001 0.8304 0.5572
vn 0.3701 -0.2550 0.8933
vn 0.2132 0.8304 0.5148
vn 0.6837 -0.2550 0.6837
vn 0.3940 0.8304 0.3940
vn 0.8933 -0.2550 0.3700
vn 0.5148 0.8304 0.2133
vn 0.9669 -0.2550 -0.0000
vn 0.5572 0.8304 0.0001
vn 0.8933 -0.2550 -0.3700
vn -0.3701 -0.2550 -0.8933
vn 0.0001 0.8304 -0.5572
vn 0.3436 0.4400 -0.8296
vn -0.7467 0.4400 -0.4989
vt 0.500004 0.500000
vt 0.500002 0.500000
vt 0.500004 0.500001
vt 0.499996 0.499998
vt 0.499996 0.499999
vt 0.500001 0.500000
vt 0.500001 0.499999
vt 0.499997 0.499997
vt 0.499998 0.500000
vt 0.499997 0.499996
vt 0.499999 0.500001
vt 0.499999 0.499999
vt 0.499999 0.499998
vt 0.499996 0.500001
vt 0.499997 0.500004
vt 0.499998 0.499996
vt 0.499999 0.499997
vt 0.499996 0.500002
vt 0.499998 0.500004
vt 0.499997 0.500003
vt 0.499999 0.500003
vt 0.500004 0.499999
vt 0.500004 0.499997
vt 0.500001 0.500001
vt 0.500003 0.499996
vt 0.500001 0.500003
vt 0.500002 0.500004
vt 0.500004 0.500003
vt 0.500002 0.499996
vt 0.500004 0.500002
vt 0.500003 0.500004
vt 0.500001 0.499998
vt 0.499999 0.500002
vt 0.500001 0.499997
vt 0.499996 0.500003
vt 0.499996 0.500000
vt 0.499996 0.499997
vt 0.499999 0.500000
vt 0.500001 0.500002
s 1
usemtl None.036
f 139/1/1 3/2/2 1/3/3
f 6/4/4 134/5/5 131/5/6
f 203/6/7 3/2/2 9/7/8
f 249/8/9 14/9/10 12/10/11
f 202/11/12 14/9/10 16/11/13
f 209/12/14 14/9/10 19/12/15
f 135/5/16 14/9/10 21/5/17
f 217/13/18 14/9/10 24/13/19
f 145/14/20 14/9/10 26/14/21
f 169/15/22 14/9/10 28/15/23
f 224/16/24 14/9/10 31/17/25
f 151/18/26 14/9/10 33/18/27
f 176/19/28 14/9/10 35/19/29
f 231/16/30 14/9/10 37/16/31
f 156/15/32 14/9/10 39/20/33
f 186/21/34 14/9/10 40/19/35
f 240/10/36 14/9/10 42/10/37
f 134/5/5 3/2/2 8/22/38
f 254/23/39 3/2/2 43/23/40
f 195/24/41 3/2/2 45/24/42
f 244/25/43 3/2/2 47/25/44
f 187/26/45 3/2/2 49/26/46
f 237/25/47 3/2/2 51/25/48
f 179/27/49 3/2/2 53/27/50
f 160/28/51 3/2/2 55/28/52
f 227/29/53 3/2/2 58/29/54
f 174/27/55 3/2/2 60/27/56
f 150/30/57 3/2/2 62/30/58
f 163/31/59 3/2/2 63/31/60
f 213/32/61 3/2/2 64/32/62
f 258/4/63 14/9/10 66/4/64
f 192/33/65 14/9/10 67/33/66
f 220/34/67 3/2/2 68/34/68
f 70/12/69 207/12/70 208/12/71
f 72/35/72 160/28/51 161/35/73
f 5/5/74 137/5/75 136/5/76
f 69/12/77 213/32/61 211/13/78
f 71/20/79 157/15/80 158/15/81
f 73/36/82 139/1/1 140/36/83
f 74/13/84 218/17/85 215/17/86
f 75/15/87 163/31/59 165/15/88
f 76/14/89 143/14/90 146/14/91
f 77/17/92 220/34/67 221/17/93
f 78/15/94 170/15/95 167/15/96
f 79/14/97 150/30/57 149/18/98
f 80/17/99 225/16/100 226/16/101
f 81/15/102 174/27/55 172/19/103
f 151/18/26 86/18/104 152/18/105
f 83/16/106 227/29/53 228/16/107
f 84/19/108 175/19/109 177/19/110
f 87/16/111 234/16/112 233/16/113
f 88/19/114 179/27/49 182/19/115
f 89/16/116 237/25/47 235/10/117
f 90/19/118 183/21/119 184/21/120
f 91/10/121 242/10/122 241/10/123
f 92/21/124 187/26/45 190/21/125
f 93/10/126 244/25/43 243/10/127
f 94/21/128 191/33/129 194/33/130
f 95/10/131 250/8/132 248/8/133
f 96/33/134 195/24/41 198/11/135
f 97/37/136 254/23/39 252/37/137
f 98/11/138 200/11/139 201/11/140
f 258/4/63 102/4/141 255/4/142
f 204/38/143 104/38/144 206/38/145
f 205/38/146 104/38/144 100/38/147
f 256/4/148 102/4/141 99/37/149
f 202/11/12 105/11/150 199/11/151
f 251/37/152 106/37/153 253/37/154
f 197/11/155 107/33/156 196/11/157
f 249/8/9 108/10/158 247/8/159
f 67/33/66 193/33/160 192/33/65
f 245/10/161 110/10/162 246/10/163
f 188/21/164 111/21/165 189/21/166
f 240/10/36 112/10/167 239/10/168
f 186/21/34 113/19/169 185/21/170
f 236/10/171 114/16/172 238/10/173
f 181/19/174 115/19/175 180/19/176
f 231/16/30 116/16/177 232/16/178
f 176/19/28 117/19/179 178/19/180
f 229/16/181 118/16/182 230/16/183
f 154/35/184 86/18/104 82/18/185
f 171/19/186 119/15/187 173/19/188
f 224/16/24 120/17/189 223/16/190
f 148/18/191 121/14/192 147/18/193
f 169/15/22 122/15/194 168/15/195
f 219/17/196 123/17/197 222/17/198
f 145/14/20 124/14/199 144/14/200
f 30/15/201 164/15/202 166/15/203
f 217/13/18 126/13/204 216/13/205
f 141/36/206 127/36/207 142/36/208
f 156/15/32 128/20/209 155/15/210
f 214/13/211 129/12/212 212/13/213
f 135/5/16 130/5/214 138/5/215
f 34/35/216 159/35/217 162/35/218
f 209/12/14 103/12/219 210/12/220
f 132/5/221 101/4/222 133/5/223
f 153/35/224 82/18/185 62/30/58
f 257/4/225 99/37/149 43/23/40
f 203/6/7 100/38/147 10/6/226
f 105/11/150 201/11/140 199/11/151
f 106/37/153 252/37/137 253/37/154
f 107/33/156 198/11/135 196/11/157
f 108/10/158 248/8/133 247/8/159
f 193/33/160 94/21/128 194/33/130
f 110/10/162 243/10/127 246/10/163
f 189/21/166 92/21/124 190/21/125
f 112/10/167 241/10/123 239/10/168
f 113/19/169 184/21/120 185/21/170
f 238/10/173 89/16/116 235/10/117
f 180/19/176 88/19/114 182/19/115
f 116/16/177 233/16/113 232/16/178
f 117/19/179 177/19/110 178/19/180
f 118/16/182 228/16/107 230/16/183
f 119/15/187 172/19/103 173/19/188
f 120/17/189 226/16/101 223/16/190
f 121/14/192 149/18/98 147/18/193
f 122/15/194 167/15/96 168/15/195
f 123/17/197 221/17/93 222/17/198
f 124/14/199 146/14/91 144/14/200
f 164/15/202 75/15/87 165/15/88
f 126/13/204 215/17/86 216/13/205
f 127/36/207 140/36/83 142/36/208
f 128/20/209 158/15/81 155/15/210
f 129/12/212 211/13/78 212/13/213
f 138/5/215 5/5/74 136/5/76
f 85/35/227 161/35/73 159/35/217
f 103/12/219 208/12/71 210/12/220
f 101/4/222 131/5/6 133/5/223
f 148/18/191 14/9/10 27/14/228
f 153/35/224 3/2/2 56/28/229
f 157/15/80 3/2/2 57/31/230
f 162/35/218 14/9/10 34/35/216
f 166/15/203 14/9/10 30/15/201
f 170/15/95 3/2/2 61/31/231
f 183/21/119 3/2/2 50/26/232
f 181/19/174 14/9/10 36/19/233
f 188/21/164 14/9/10 41/21/234
f 191/33/129 3/2/2 46/39/235
f 197/11/155 14/9/10 18/33/236
f 200/11/139 3/2/2 10/6/226
f 204/38/143 14/9/10 17/38/237
f 207/12/70 3/2/2 11/7/238
f 214/13/211 14/9/10 20/12/239
f 218/17/85 3/2/2 65/34/240
f 219/17/196 14/9/10 25/17/241
f 225/16/100 3/2/2 59/29/242
f 229/16/181 14/9/10 32/16/243
f 234/16/112 3/2/2 52/29/244
f 236/10/171 14/9/10 38/16/245
f 242/10/122 3/2/2 48/25/246
f 245/10/161 14/9/10 15/10/247
f 250/8/132 3/2/2 44/23/248
f 251/37/152 14/9/10 13/37/249
f 257/4/225 3/2/2 7/4/250
f 132/5/221 14/9/10 23/4/251
f 137/5/75 3/2/2 2/1/252
f 141/36/206 14/9/10 22/36/253
f 143/14/90 3/2/2 4/3/254
f 175/19/109 3/2/2 54/27/255
f 171/19/186 14/9/10 29/15/256
f 130/5/214 131/5/6 5/5/74
f 21/5/17 133/5/223 130/5/214
f 131/5/6 8/22/38 5/5/74
f 127/36/207 136/5/76 73/36/82
f 22/36/253 138/5/215 127/36/207
f 136/5/76 2/1/252 73/36/82
f 124/14/199 140/36/83 76/14/89
f 26/14/21 142/36/208 124/14/199
f 140/36/83 1/3/3 76/14/89
f 121/14/192 146/14/91 79/14/97
f 27/14/228 144/14/200 121/14/192
f 146/14/91 4/3/254 79/14/97
f 86/18/104 149/18/98 82/18/185
f 33/18/27 147/18/193 86/18/104
f 149/18/98 62/30/58 82/18/185
f 56/28/229 154/35/184 153/35/224
f 85/35/227 154/35/184 72/35/72
f 34/35/216 152/18/105 85/35/227
f 125/15/257 158/15/81 75/15/87
f 30/15/201 155/15/210 125/15/257
f 158/15/81 57/31/230 75/15/87
f 128/20/209 161/35/73 71/20/79
f 39/20/33 159/35/217 128/20/209
f 71/20/79 160/28/51 55/28/52
f 122/15/194 165/15/88 78/15/94
f 28/15/23 164/15/202 122/15/194
f 165/15/88 63/31/60 78/15/94
f 119/15/187 167/15/96 81/15/102
f 29/15/256 168/15/195 119/15/187
f 167/15/96 61/31/231 81/15/102
f 117/19/179 172/19/103 84/19/108
f 35/19/29 173/19/188 117/19/179
f 172/19/103 60/27/56 84/19/108
f 115/19/175 177/19/110 88/19/114
f 36/19/233 178/19/180 115/19/175
f 177/19/110 54/27/255 88/19/114
f 113/19/169 182/19/115 90/19/118
f 40/19/35 180/19/176 113/19/169
f 182/19/115 53/27/50 90/19/118
f 111/21/165 184/21/120 92/21/124
f 41/21/234 185/21/170 111/21/165
f 184/21/120 50/26/232 92/21/124
f 109/33/258 190/21/125 94/21/128
f 67/33/66 189/21/166 109/33/258
f 190/21/125 49/26/46 94/21/128
f 107/33/156 194/33/130 96/33/134
f 18/33/236 193/33/160 107/33/156
f 96/33/134 191/33/129 46/39/235
f 196/11/157 98/11/138 105/11/150
f 16/11/13 196/11/157 105/11/150
f 198/11/135 45/24/42 98/11/138
f 104/38/144 201/11/140 100/38/147
f 17/38/237 199/11/151 104/38/144
f 201/11/140 10/6/226 100/38/147
f 9/7/8 205/38/146 203/6/7
f 103/12/219 205/38/146 70/12/69
f 19/12/15 206/38/145 103/12/219
f 129/12/212 208/12/71 69/12/77
f 20/12/239 210/12/220 129/12/212
f 208/12/71 11/7/238 69/12/77
f 126/13/204 211/13/78 74/13/84
f 24/13/19 212/13/213 126/13/204
f 211/13/78 64/32/62 74/13/84
f 123/17/197 215/17/86 77/17/92
f 25/17/241 216/13/205 123/17/197
f 215/17/86 65/34/240 77/17/92
f 120/17/189 221/17/93 80/17/99
f 31/17/25 222/17/198 120/17/189
f 221/17/93 68/34/68 80/17/99
f 223/16/190 83/16/106 118/16/182
f 32/16/243 223/16/190 118/16/182
f 226/16/101 59/29/242 83/16/106
f 230/16/183 87/16/111 116/16/177
f 37/16/31 230/16/183 116/16/177
f 228/16/107 58/29/54 87/16/111
f 114/16/172 233/16/113 89/16/116
f 38/16/245 232/16/178 114/16/172
f 233/16/113 52/29/244 89/16/116
f 112/10/167 235/10/117 91/10/121
f 42/10/37 238/10/173 112/10/167
f 235/10/117 51/25/48 91/10/121
f 110/10/162 241/10/123 93/10/126
f 15/10/247 239/10/168 110/10/162
f 241/10/123 48/25/246 93/10/126
f 108/10/158 243/10/127 95/10/131
f 12/10/11 246/10/163 108/10/158
f 243/10/127 47/25/44 95/10/131
f 106/37/153 248/8/133 97/37/136
f 13/37/249 247/8/159 106/37/153
f 248/8/133 44/23/248 97/37/136
f 102/4/141 252/37/137 99/37/149
f 66/4/64 253/37/154 102/4/141
f 252/37/137 43/23/40 99/37/149
f 7/4/250 256/4/148 257/4/225
f 101/4/222 256/4/148 6/4/4
f 23/4/251 255/4/142 101/4/222
f 139/1/1 2/1/252 3/2/2
f 6/4/4 7/4/250 134/5/5
f 203/6/7 10/6/226 3/2/2
f 249/8/9 13/37/249 14/9/10
f 202/11/12 17/38/237 14/9/10
f 209/12/14 20/12/239 14/9/10
f 135/5/16 22/36/253 14/9/10
f 217/13/18 25/17/241 14/9/10
f 145/14/20 27/14/228 14/9/10
f 169/15/22 29/15/256 14/9/10
f 224/16/24 32/16/243 14/9/10
f 151/18/26 34/35/216 14/9/10
f 176/19/28 36/19/233 14/9/10
f 231/16/30 38/16/245 14/9/10
f 156/15/32 30/15/201 14/9/10
f 186/21/34 41/21/234 14/9/10
f 240/10/36 15/10/247 14/9/10
f 134/5/5 7/4/250 3/2/2
f 254/23/39 44/23/248 3/2/2
f 195/24/41 46/39/235 3/2/2
f 244/25/43 48/25/246 3/2/2
f 187/26/45 50/26/232 3/2/2
f 237/25/47 52/29/244 3/2/2
f 179/27/49 54/27/255 3/2/2
f 160/28/51 56/28/229 3/2/2
f 227/29/53 59/29/242 3/2/2
f 174/27/55 61/31/231 3/2/2
f 150/30/57 4/3/254 3/2/2
f 163/31/59 57/31/230 3/2/2
f 213/32/61 11/7/238 3/2/2
f 258/4/63 23/4/251 14/9/10
f 192/33/65 18/33/236 14/9/10
f 220/34/67 65/34/240 3/2/2
f 70/12/69 9/7/8 207/12/70
f 72/35/72 56/28/229 160/28/51
f 5/5/74 8/22/38 137/5/75
f 69/12/77 11/7/238 213/32/61
f 71/20/79 55/28/52 157/15/80
f 73/36/82 2/1/252 139/1/1
f 74/13/84 64/32/62 218/17/85
f 75/15/87 57/31/230 163/31/59
f 76/14/89 1/3/3 143/14/90
f 77/17/92 65/34/240 220/34/67
f 78/15/94 63/31/60 170/15/95
f 79/14/97 4/3/254 150/30/57
f 80/17/99 68/34/68 225/16/100
f 81/15/102 61/31/231 174/27/55
f 151/18/26 33/18/27 86/18/104
f 83/16/106 59/29/242 227/29/53
f 84/19/108 60/27/56 175/19/109
f 87/16/111 58/29/54 234/16/112
f 88/19/114 54/27/255 179/27/49
f 89/16/116 52/29/244 237/25/47
f 90/19/118 53/27/50 183/21/119
f 91/10/121 51/25/48 242/10/122
f 92/21/124 50/26/232 187/26/45
f 93/10/126 48/25/246 244/25/43
f 94/21/128 49/26/46 191/33/129
f 95/10/131 47/25/44 250/8/132
f 96/33/134 46/39/235 195/24/41
f 97/37/136 44/23/248 254/23/39
f 98/11/138 45/24/42 200/11/139
f 258/4/63 66/4/64 102/4/141
f 204/38/143 17/38/237 104/38/144
f 205/38/146 206/38/145 104/38/144
f 256/4/148 255/4/142 102/4/141
f 202/11/12 16/11/13 105/11/150
f 251/37/152 13/37/249 106/37/153
f 197/11/155 18/33/236 107/33/156
f 249/8/9 12/10/11 108/10/158
f 67/33/66 109/33/258 193/33/160
f 245/10/161 15/10/247 110/10/162
f 188/21/164 41/21/234 111/21/165
f 240/10/36 42/10/37 112/10/167
f 186/21/34 40/19/35 113/19/169
f 236/10/171 38/16/245 114/16/172
f 181/19/174 36/19/233 115/19/175
f 231/16/30 37/16/31 116/16/177
f 176/19/28 35/19/29 117/19/179
f 229/16/181 32/16/243 118/16/182
f 154/35/184 152/18/105 86/18/104
f 171/19/186 29/15/256 119/15/187
f 224/16/24 31/17/25 120/17/189
f 148/18/191 27/14/228 121/14/192
f 169/15/22 28/15/23 122/15/194
f 219/17/196 25/17/241 123/17/197
f 145/14/20 26/14/21 124/14/199
f 30/15/201 125/15/257 164/15/202
f 217/13/18 24/13/19 126/13/204
f 141/36/206 22/36/253 127/36/207
f 156/15/32 39/20/33 128/20/209
f 214/13/211 20/12/239 129/12/212
f 135/5/16 21/5/17 130/5/214
f 34/35/216 85/35/227 159/35/217
f 209/12/14 19/12/15 103/12/219
f 132/5/221 23/4/251 101/4/222
f 153/35/224 154/35/184 82/18/185
f 257/4/225 256/4/148 99/37/149
f 203/6/7 205/38/146 100/38/147
f 105/11/150 98/11/138 201/11/140
f 106/37/153 97/37/136 252/37/137
f 107/33/156 96/33/134 198/11/135
f 108/10/158 95/10/131 248/8/133
f 193/33/160 109/33/258 94/21/128
f 110/10/162 93/10/126 243/10/127
f 189/21/166 111/21/165 92/21/124
f 112/10/167 91/10/121 241/10/123
f 113/19/169 90/19/118 184/21/120
f 238/10/173 114/16/172 89/16/116
f 180/19/176 115/19/175 88/19/114
f 116/16/177 87/16/111 233/16/113
f 117/19/179 84/19/108 177/19/110
f 118/16/182 83/16/106 228/16/107
f 119/15/187 81/15/102 172/19/103
f 120/17/189 80/17/99 226/16/101
f 121/14/192 79/14/97 149/18/98
f 122/15/194 78/15/94 167/15/96
f 123/17/197 77/17/92 221/17/93
f 124/14/199 76/14/89 146/14/91
f 164/15/202 125/15/257 75/15/87
f 126/13/204 74/13/84 215/17/86
f 127/36/207 73/36/82 140/36/83
f 128/20/209 71/20/79 158/15/81
f 129/12/212 69/12/77 211/13/78
f 138/5/215 130/5/214 5/5/74
f 85/35/227 72/35/72 161/35/73
f 103/12/219 70/12/69 208/12/71
f 101/4/222 6/4/4 131/5/6
f 148/18/191 33/18/27 14/9/10
f 153/35/224 62/30/58 3/2/2
f 157/15/80 55/28/52 3/2/2
f 162/35/218 39/20/33 14/9/10
f 166/15/203 28/15/23 14/9/10
f 170/15/95 63/31/60 3/2/2
f 183/21/119 53/27/50 3/2/2
f 181/19/174 40/19/35 14/9/10
f 188/21/164 67/33/66 14/9/10
f 191/33/129 49/26/46 3/2/2
f 197/11/155 16/11/13 14/9/10
f 200/11/139 45/24/42 3/2/2
f 204/38/143 19/12/15 14/9/10
f 207/12/70 9/7/8 3/2/2
f 214/13/211 24/13/19 14/9/10
f 218/17/85 64/32/62 3/2/2
f 219/17/196 31/17/25 14/9/10
f 225/16/100 68/34/68 3/2/2
f 229/16/181 37/16/31 14/9/10
f 234/16/112 58/29/54 3/2/2
f 236/10/171 42/10/37 14/9/10
f 242/10/122 51/25/48 3/2/2
f 245/10/161 12/10/11 14/9/10
f 250/8/132 47/25/44 3/2/2
f 251/37/152 66/4/64 14/9/10
f 257/4/225 43/23/40 3/2/2
f 132/5/221 21/5/17 14/9/10
f 137/5/75 8/22/38 3/2/2
f 141/36/206 26/14/21 14/9/10
f 143/14/90 1/3/3 3/2/2
f 175/19/109 60/27/56 3/2/2
f 171/19/186 35/19/29 14/9/10
f 130/5/214 133/5/223 131/5/6
f 21/5/17 132/5/221 133/5/223
f 131/5/6 134/5/5 8/22/38
f 127/36/207 138/5/215 136/5/76
f 22/36/253 135/5/16 138/5/215
f 136/5/76 137/5/75 2/1/252
f 124/14/199 142/36/208 140/36/83
f 26/14/21 141/36/206 142/36/208
f 140/36/83 139/1/1 1/3/3
f 121/14/192 144/14/200 146/14/91
f 27/14/228 145/14/20 144/14/200
f 146/14/91 143/14/90 4/3/254
f 86/18/104 147/18/193 149/18/98
f 33/18/27 148/18/191 147/18/193
f 149/18/98 150/30/57 62/30/58
f 56/28/229 72/35/72 154/35/184
f 85/35/227 152/18/105 154/35/184
f 34/35/216 151/18/26 152/18/105
f 125/15/257 155/15/210 158/15/81
f 30/15/201 156/15/32 155/15/210
f 158/15/81 157/15/80 57/31/230
f 128/20/209 159/35/217 161/35/73
f 39/20/33 162/35/218 159/35/217
f 71/20/79 161/35/73 160/28/51
f 122/15/194 164/15/202 165/15/88
f 28/15/23 166/15/203 164/15/202
f 165/15/88 163/31/59 63/31/60
f 119/15/187 168/15/195 167/15/96
f 29/15/256 169/15/22 168/15/195
f 167/15/96 170/15/95 61/31/231
f 117/19/179 173/19/188 172/19/103
f 35/19/29 171/19/186 173/19/188
f 172/19/103 174/27/55 60/27/56
f 115/19/175 178/19/180 177/19/110
f 36/19/233 176/19/28 178/19/180
f 177/19/110 175/19/109 54/27/255
f 113/19/169 180/19/176 182/19/115
f 40/19/35 181/19/174 180/19/176
f 182/19/115 179/27/49 53/27/50
f 111/21/165 185/21/170 184/21/120
f 41/21/234 186/21/34 185/21/170
f 184/21/120 183/21/119 50/26/232
f 109/33/258 189/21/166 190/21/125
f 67/33/66 188/21/164 189/21/166
f 190/21/125 187/26/45 49/26/46
f 107/33/156 193/33/160 194/33/130
f 18/33/236 192/33/65 193/33/160
f 96/33/134 194/33/130 191/33/129
f 196/11/157 198/11/135 98/11/138
f 16/11/13 197/11/155 196/11/157
f 198/11/135 195/24/41 45/24/42
f 104/38/144 199/11/151 201/11/140
f 17/38/237 202/11/12 199/11/151
f 201/11/140 200/11/139 10/6/226
f 9/7/8 70/12/69 205/38/146
f 103/12/219 206/38/145 205/38/146
f 19/12/15 204/38/143 206/38/145
f 129/12/212 210/12/220 208/12/71
f 20/12/239 209/12/14 210/12/220
f 208/12/71 207/12/70 11/7/238
f 126/13/204 212/13/213 211/13/78
f 24/13/19 214/13/211 212/13/213
f 211/13/78 213/32/61 64/32/62
f 123/17/197 216/13/205 215/17/86
f 25/17/241 217/13/18 216/13/205
f 215/17/86 218/17/85 65/34/240
f 120/17/189 222/17/198 221/17/93
f 31/17/25 219/17/196 222/17/198
f 221/17/93 220/34/67 68/34/68
f 223/16/190 226/16/101 83/16/106
f 32/16/243 224/16/24 223/16/190
f 226/16/101 225/16/100 59/29/242
f 230/16/183 228/16/107 87/16/111
f 37/16/31 229/16/181 230/16/183
f 228/16/107 227/29/53 58/29/54
f 114/16/172 232/16/178 233/16/113
f 38/16/245 231/16/30 232/16/178
f 233/16/113 234/16/112 52/29/244
f 112/10/167 238/10/173 235/10/117
f 42/10/37 236/10/171 238/10/173
f 235/10/117 237/25/47 51/25/48
f 110/10/162 239/10/168 241/10/123
f 15/10/247 240/10/36 239/10/168
f 241/10/123 242/10/122 48/25/246
f 108/10/158 246/10/163 243/10/127
f 12/10/11 245/10/161 246/10/163
f 243/10/127 244/25/43 47/25/44
f 106/37/153 247/8/159 248/8/133
f 13/37/249 249/8/9 247/8/159
f 248/8/133 250/8/132 44/23/248
f 102/4/141 253/37/154 252/37/137
f 66/4/64 251/37/152 253/37/154
f 252/37/137 254/23/39 43/23/40
f 7/4/250 6/4/4 256/4/148
f 101/4/222 255/4/142 256/4/148
f 23/4/251 258/4/63 255/4/142
