# Blender 4.3.2
# www.blender.org
o merged_material__spore_mine_relic_material_spore_mine_.002
v 0.023517 2.015621 -0.285941
v 0.033329 1.444870 -0.225765
v 0.052723 1.997537 -0.151946
v 0.117380 1.448929 -0.317121
v 0.028821 1.457602 -0.307755
v 0.059013 0.998861 -0.266164
v 0.054082 0.999414 -0.345565
v 0.109016 0.766722 -0.309096
v 0.103743 0.787943 -0.362517
v 0.216223 0.564662 -0.350750
v 0.163422 0.800676 -0.365438
v 0.163485 0.794032 -0.305174
v 0.137489 1.010855 -0.278231
v 0.115037 1.436197 -0.226702
v 0.132925 1.983328 -0.187598
v 0.062926 2.428968 -0.101797
v 0.188060 2.369918 -0.121626
v 0.139951 2.002704 -0.290946
v 0.182431 2.405902 -0.229176
v 0.008015 2.448713 -0.241194
v 0.132717 1.011409 -0.357725
v 0.032421 0.833153 0.279750
v 0.086129 0.807134 0.266853
v 0.008507 0.607842 0.357906
v 0.108500 1.035213 0.191933
v -0.121685 2.386895 -0.002670
v -0.002939 2.036473 0.167205
v -0.081522 2.432105 0.093466
v 0.104206 2.050497 0.121753
v 0.051338 1.487312 0.225787
v 0.130882 1.496354 0.186042
v 0.139907 1.042779 0.264783
v 0.108446 0.832968 0.313631
v 0.052812 0.844963 0.335736
v 0.038240 1.047208 0.229301
v 0.099308 1.476609 0.111796
v 0.023199 1.466829 0.141247
v 0.031873 2.020603 0.007542
v -0.030634 2.008240 0.069413
v -0.013533 2.445945 -0.068519
v 0.069713 1.054589 0.301901
v 0.084600 2.478238 0.041663
v 0.241120 0.681654 0.223819
v 0.215581 0.682576 0.163348
v 0.240032 0.380501 0.205697
v 0.267676 0.925418 0.086395
v 0.276873 0.674272 0.141812
v 0.300670 0.690880 0.196684
v 0.216495 0.946270 0.214386
v 0.295511 0.941103 0.174093
v 0.251225 1.493770 0.138722
v 0.264829 1.484175 0.043080
v 0.201135 2.059723 0.070051
v 0.239798 2.060277 -0.026847
v 0.139156 2.033336 -0.042467
v 0.175577 1.466091 0.020245
v 0.159867 1.488050 0.167603
v 0.181011 0.930954 0.135579
v 0.114172 1.459448 0.052287
v 0.176978 2.477684 -0.096903
v 0.047702 0.650468 0.026102
v 0.151784 0.447301 0.089383
v 0.125857 0.671689 0.044477
v 0.092300 0.431985 0.074931
v 0.197270 0.166077 0.168167
v 0.021227 1.154419 -0.136746
v 0.009215 0.920436 -0.022844
v -0.005852 1.161801 -0.039716
v 0.034699 0.908810 -0.113413
v 0.118798 1.161801 -0.111682
v 0.125876 0.920436 -0.090199
v 0.089781 1.168813 -0.018008
v 0.098547 0.931876 -0.002826
v 0.149021 0.650468 -0.032395
v 0.169009 0.431985 0.030642
v 0.109526 0.416669 0.016190
v 0.070867 0.629247 -0.050768
v 0.106183 1.467751 -0.133164
v 0.081385 1.470150 -0.032551
v 0.120011 1.712992 -0.142426
v -0.000343 1.714468 -0.169677
v 0.005820 1.465168 -0.163433
v -0.018147 1.467751 -0.061381
v 0.088694 1.711516 -0.015463
v -0.036759 1.712992 -0.051915
v 0.096957 2.372502 0.005123
v -0.039084 2.370841 -0.034165
v -0.004996 2.369365 -0.171465
v 0.130792 2.370841 -0.132244
v -0.253839 0.743656 0.095788
v -0.217607 0.966383 -0.007163
v -0.166152 0.940180 0.014054
v -0.155846 1.405934 -0.077339
v -0.075599 1.398737 -0.051649
v -0.231917 0.986313 0.053303
v -0.170757 0.974134 0.069556
v -0.103589 1.420881 0.026088
v -0.035731 1.966167 -0.082978
v -0.070590 1.976501 0.004267
v 0.043108 2.370841 -0.116563
v -0.000547 2.392800 -0.005064
v -0.159163 1.990525 -0.025140
v -0.113147 2.417896 -0.043608
v -0.124302 1.980191 -0.112385
v -0.069400 2.395937 -0.154949
v -0.183835 1.428077 0.000400
v -0.121475 0.898292 -0.304934
v -0.145878 1.450406 -0.218400
v -0.100344 1.453174 -0.304135
v -0.065271 2.009347 -0.142632
v -0.154900 2.030752 -0.193800
v -0.085482 2.024478 -0.271381
v -0.004582 1.449483 -0.299550
v -0.033610 0.903643 -0.316243
v -0.114865 0.646778 -0.306406
v -0.049401 0.638289 -0.310748
v -0.000749 1.431584 -0.173704
v -0.126292 2.454433 -0.142772
v -0.026975 0.895893 -0.229091
v -0.046227 0.644932 -0.245462
v -0.050034 0.339720 -0.267555
v -0.111048 0.635521 -0.245540
v -0.125226 0.890357 -0.211784
v -0.069513 1.437858 -0.165113
v 0.180952 2.269573 -0.495091
v 0.056004 3.334991 -0.028773
v -0.199361 2.275621 -0.471077
v -0.410315 2.251049 -0.153724
v -0.386629 2.255464 0.226780
v -0.068948 2.277027 0.437544
v 0.311365 2.230756 0.413529
v 0.522319 2.238857 0.096177
v 0.498308 2.290743 -0.284138
v -0.050853 3.392367 0.066407
v 0.141431 3.388704 0.059378
v 0.110982 3.612775 0.023733
v -0.014707 3.615217 0.028267
v 0.106101 3.611249 -0.103170
v -0.019326 3.613691 -0.098787
v 0.134281 3.386262 -0.134951
v -0.058003 3.389925 -0.127922
v -0.060066 3.385346 -0.182780
v 0.132110 3.381683 -0.189391
v 0.098306 3.576142 -0.305939
v -0.027234 3.578279 -0.301141
v 0.093052 3.526993 -0.423108
v -0.032488 3.529435 -0.418310
v 0.124343 3.306891 -0.368912
v -0.067943 3.310554 -0.361882
v -0.070090 3.263542 -0.393076
v 0.122198 3.259879 -0.400102
v 0.082750 3.340166 -0.610683
v -0.042940 3.342608 -0.606148
v 0.078346 3.229351 -0.672648
v -0.047081 3.231793 -0.668265
v 0.115677 3.090146 -0.495039
v -0.076607 3.093810 -0.488011
v -0.077613 3.033976 -0.484258
v 0.114672 3.030313 -0.491287
v 0.072154 2.953689 -0.702915
v -0.053538 2.955826 -0.698379
v 0.070788 2.829138 -0.677804
v -0.054904 2.831274 -0.673267
v 0.112456 2.839517 -0.452993
v -0.079829 2.843180 -0.445967
v -0.528962 2.542180 -0.347752
v -0.505596 2.484788 0.333182
v -0.367715 2.610256 0.251463
v -0.385311 2.653300 -0.255851
v 0.001703 2.560496 -0.707711
v 0.010243 2.667037 -0.524407
v 0.423278 2.638036 -0.285237
v 0.555999 2.521727 -0.386888
v 0.579364 2.464030 0.294046
v 0.441027 2.594992 0.222339
v 0.048700 2.445713 0.654004
v 0.045321 2.581255 0.490633
v -0.433584 2.881339 0.322978
v -0.454238 2.932015 -0.276333
v 0.013080 2.948194 -0.593373
v 0.501206 2.913698 -0.310840
v 0.521861 2.863328 0.288471
v 0.054542 2.846843 0.605511
v -0.414804 3.176844 0.339632
v -0.435088 3.225994 -0.244381
v 0.020000 3.241867 -0.553303
v 0.495519 3.208592 -0.277948
v 0.515651 3.159138 0.305803
v 0.060566 3.143264 0.614724
v -0.233586 3.391146 0.237121
v -0.245853 3.421063 -0.119930
v 0.032483 3.430832 -0.308827
v 0.323091 3.410378 -0.140676
v 0.335356 3.380157 0.216373
v 0.057018 3.370693 0.405272
v 0.046635 3.476928 0.054536
v 0.023435 2.425107 -0.033472
v 0.037793 2.046824 -0.111211
v 0.196157 1.495334 -0.095255
v 0.172960 2.052616 -0.082380
v 0.147787 1.490812 -0.209565
v 0.118598 1.494404 -0.125063
v 0.248893 1.051682 -0.135348
v 0.175624 1.039147 -0.163700
v 0.271624 0.819927 -0.198631
v 0.217865 0.831874 -0.215926
v 0.313500 0.622149 -0.313467
v 0.237304 0.848284 -0.271469
v 0.292511 0.851404 -0.246600
v 0.267919 1.067268 -0.211789
v 0.230111 1.492594 -0.170033
v 0.176162 2.038754 -0.170146
v 0.146139 2.486092 -0.070927
v 0.189709 2.433894 -0.193057
v 0.082987 2.041781 -0.219289
v 0.084693 2.451675 -0.232416
v -0.004627 2.479198 -0.078589
v 0.194632 1.054729 -0.240323
v 0.756498 0.974088 0.114660
v 0.771385 0.950318 0.060427
v 0.856457 0.763074 0.168759
v 0.673211 1.164463 0.009071
v 0.167219 2.447120 0.138153
v 0.429482 2.138026 0.100302
v 0.261777 2.509950 0.141350
v 0.429902 2.152347 -0.016047
v 0.600723 1.610770 0.075116
v 0.595897 1.619093 -0.013744
v 0.749960 1.185869 0.010608
v 0.817851 0.984868 0.059455
v 0.812899 0.996168 0.119251
v 0.675985 1.177144 0.088495
v 0.519973 1.585463 -0.015706
v 0.517101 1.575014 0.065769
v 0.303351 2.099357 0.002570
v 0.335528 2.092549 0.085070
v 0.141846 2.502570 0.012450
v 0.752568 1.198332 0.089868
v 0.274869 2.559155 -0.031323
v 0.818004 0.831182 -0.098485
v 0.753246 0.820543 -0.100245
v 0.854313 0.531746 -0.104990
v 0.662755 1.051058 -0.179503
v 0.760361 0.813380 -0.164955
v 0.816307 0.840252 -0.163926
v 0.752957 1.088365 -0.079967
v 0.749926 1.082575 -0.168572
v 0.602939 1.617727 -0.142882
v 0.524449 1.593948 -0.194827
v 0.421407 2.160201 -0.125681
v 0.350207 2.148036 -0.200960
v 0.299972 2.111687 -0.115791
v 0.470826 1.565992 -0.123012
v 0.592634 1.610074 -0.047760
v 0.670575 1.058079 -0.080256
v 0.475711 1.560117 -0.053852
v 0.188390 2.543133 -0.172742
v 0.567537 0.754728 -0.004166
v 0.702381 0.572445 -0.072753
v 0.612092 0.784250 -0.067722
v 0.667905 0.550723 -0.024574
v 0.840999 0.311543 -0.081580
v 0.322124 1.222798 -0.047417
v 0.460492 1.009840 0.010630
v 0.396762 1.243639 0.017370
v 0.391741 0.985740 -0.050032
v 0.383015 1.241181 -0.125884
v 0.447624 1.007540 -0.123442
v 0.453922 1.260980 -0.060721
v 0.512792 1.030811 -0.062422
v 0.556362 0.752731 -0.120606
v 0.659444 0.549211 -0.112732
v 0.624968 0.527489 -0.064552
v 0.511808 0.723209 -0.057050
v 0.304787 1.537998 -0.123284
v 0.384442 1.554674 -0.059092
v 0.258960 1.778934 -0.139705
v 0.185274 1.767261 -0.041400
v 0.237249 1.523300 -0.044428
v 0.318499 1.540449 0.019603
v 0.360260 1.795542 -0.058678
v 0.276250 1.782025 0.040464
v 0.265758 2.450114 -0.057687
v 0.175448 2.432283 0.049922
v 0.066533 2.411313 -0.037903
v 0.156712 2.428934 -0.145309
v 0.490819 0.835679 0.299196
v 0.374108 1.041074 0.223628
v 0.418685 1.022424 0.185555
v 0.259010 1.467017 0.138371
v 0.315974 1.469889 0.075936
v 0.418966 1.069338 0.261665
v 0.460579 1.064405 0.212704
v 0.370353 1.502105 0.133573
v 0.204277 2.026347 0.026680
v 0.266458 2.047960 0.094503
v 0.135065 2.425064 -0.058991
v 0.213357 2.461366 0.026873
v 0.201572 2.050607 0.162981
v 0.128549 2.471700 0.113447
v 0.139391 2.028994 0.095156
v 0.050437 2.435430 0.027565
v 0.313391 1.499233 0.196008
v 0.158355 0.933335 0.012941
v 0.128818 1.488920 0.070951
v 0.070031 1.481223 -0.005967
v 0.131187 2.057146 0.028900
v 0.045068 2.063496 0.089340
v 0.004904 2.049942 -0.005950
v 0.113781 1.485295 -0.091257
v 0.183053 0.943186 -0.071733
v 0.203987 0.685990 0.006315
v 0.228243 0.681703 -0.055083
v 0.231279 1.488116 -0.042696
v 0.027893 2.490823 0.084399
v 0.265228 0.950002 -0.041727
v 0.286879 0.698934 -0.030970
v 0.319237 0.394667 -0.036642
v 0.262072 0.684939 0.028015
v 0.241709 0.940175 0.054884
v 0.209877 1.490664 0.023465
v -0.367879 2.120708 -0.077934
v -0.446707 1.552208 -0.069640
v -0.239593 2.070243 -0.066501
v -0.506530 1.571235 -0.176814
v -0.520993 1.583760 -0.089410
v -0.584279 1.126810 -0.106056
v -0.659218 1.145975 -0.124661
v -0.665763 0.907851 -0.166462
v -0.711718 0.941118 -0.177110
v -0.722513 0.713744 -0.281175
v -0.694352 0.949928 -0.235015
v -0.640022 0.929602 -0.217378
v -0.570218 1.135679 -0.184616
v -0.426376 1.538228 -0.148021
v -0.253231 2.058988 -0.153637
v -0.086257 2.476710 -0.061527
v -0.083207 2.415113 -0.186966
v -0.342447 2.101088 -0.190703
v -0.175928 2.475194 -0.213170
v -0.226482 2.531848 -0.049974
v -0.645197 1.154855 -0.203399
v -0.125283 0.842185 0.079684
v -0.128206 0.816103 0.024556
v -0.113849 0.607204 0.125496
v -0.136410 1.053134 -0.018830
v -0.057042 2.426112 0.144055
v 0.050018 2.038498 0.080432
v 0.054486 2.445019 0.133896
v 0.041765 2.054995 -0.035336
v -0.012415 1.488175 0.045753
v -0.024439 1.500475 -0.041956
v -0.058048 1.041485 -0.027459
v -0.072224 0.828829 0.016960
v -0.064685 0.839317 0.076633
v -0.118878 1.061142 0.059306
v -0.107078 1.500637 -0.033578
v -0.103802 1.489748 0.047825
v -0.092013 2.057390 0.000267
v -0.055405 2.035568 0.078188
v -0.073088 2.490934 0.021334
v -0.040774 1.049367 0.050540
v 0.064884 2.489971 -0.040114
v -0.154174 0.693261 -0.136239
v -0.217334 0.709883 -0.129585
v -0.243824 0.405220 -0.140521
v -0.215397 0.959608 -0.201981
v -0.221844 0.702447 -0.194498
v -0.160154 0.704251 -0.201131
v -0.106217 0.954002 -0.115470
v -0.122322 0.952674 -0.202834
v -0.034663 1.500350 -0.170888
v -0.121830 1.512093 -0.211980
v 0.023647 2.068997 -0.143174
v -0.055098 2.089107 -0.208589
v -0.104764 2.073673 -0.116972
v -0.172810 1.506110 -0.133370
v -0.035285 1.494611 -0.075078
v -0.193134 0.959788 -0.104694
v -0.162184 1.496629 -0.065262
v -0.037476 2.514799 -0.169112
v -0.400250 0.722189 -0.009414
v -0.360803 0.503072 -0.090322
v -0.355816 0.733028 -0.078726
v -0.394854 0.495741 -0.037706
v -0.342471 0.208772 -0.110666
v -0.437515 1.250669 -0.031930
v -0.391615 0.998200 0.013002
v -0.353434 1.237411 0.022450
v -0.471178 1.005965 -0.037956
v -0.384674 1.245163 -0.117838
v -0.420853 1.005455 -0.118294
v -0.304347 1.232456 -0.062591
v -0.344825 0.998378 -0.066512
v -0.425643 0.728490 -0.123443
v -0.414079 0.500511 -0.124038
v -0.448130 0.493180 -0.071422
v -0.470076 0.717651 -0.054131
v -0.334518 1.547946 -0.112088
v -0.247663 1.528866 -0.058836
v -0.280109 1.787123 -0.128026
v -0.339340 1.803341 -0.020982
v -0.391830 1.559505 -0.025040
v -0.303358 1.540214 0.027841
v -0.171597 1.758677 -0.060804
v -0.240819 1.777374 0.048412
v 0.009042 2.394885 -0.062658
v -0.066585 2.411939 0.055847
v -0.184607 2.439703 -0.017059
v -0.109160 2.422503 -0.135342
v -0.399103 0.817918 0.299296
v -0.430652 1.055228 0.234429
v -0.402612 1.021273 0.191473
v -0.372299 1.493629 0.154781
v -0.327325 1.475054 0.085618
v -0.373833 1.061663 0.265864
v -0.344254 1.041775 0.212174
v -0.257847 1.480630 0.135203
v -0.208373 2.030175 0.038307
v -0.134878 2.022586 0.097250
v -0.119604 2.425095 -0.046919
v -0.023313 2.423827 0.027556
v -0.184028 2.049231 0.173281
v -0.085124 2.465021 0.123871
v -0.257524 2.056821 0.114336
v -0.181241 2.466246 0.049355
v -0.302820 1.499204 0.204366
v -0.695913 1.050892 0.055087
v -0.489620 1.568560 0.103827
v -0.555517 1.587763 0.035123
v -0.261739 2.087907 0.049025
v -0.329603 2.126800 0.119675
v -0.383305 2.133662 0.030535
v -0.524857 1.576353 -0.055070
v -0.680072 1.052475 -0.032224
v -0.755967 0.806651 0.048337
v -0.743381 0.794782 -0.015516
v -0.411319 1.529738 -0.021777
v -0.172072 2.524241 0.107314
v -0.599190 1.024420 -0.012973
v -0.680305 0.785976 0.000622
v -0.775392 0.495102 -0.002226
v -0.701120 0.781444 0.062563
v -0.612471 1.022012 0.086028
v -0.421437 1.538713 0.046479
v -0.147359 2.100377 0.338395
v -0.099709 1.537955 0.442728
v -0.044859 2.060316 0.254587
v -0.220529 1.534835 0.414100
v -0.168974 1.561201 0.482309
v -0.147510 1.105165 0.550543
v -0.214312 1.116388 0.592266
v -0.209435 0.874662 0.586114
v -0.253421 0.902835 0.610679
v -0.298274 0.660811 0.565320
v -0.285208 0.902656 0.558508
v -0.232704 0.888902 0.531489
v -0.196480 1.101326 0.487019
v -0.140559 1.512045 0.376304
v -0.115235 2.033574 0.207284
v -0.006142 2.470060 0.115438
v -0.084738 2.388264 0.033764
v -0.208771 2.063359 0.245620
v -0.175737 2.437378 0.080675
v -0.100756 2.517927 0.223111
v -0.263440 1.112527 0.528652
v 0.341416 0.884175 0.354831
v 0.303858 0.848946 0.322026
v 0.421265 0.661551 0.393663
v 0.227586 1.074193 0.282277
v 0.170724 2.457090 0.234718
v 0.260630 2.071362 0.140458
v 0.234852 2.480582 0.143972
v 0.168511 2.067354 0.068067
v 0.285105 1.520464 0.202650
v 0.211484 1.516889 0.152094
v 0.275704 1.065921 0.219292
v 0.333702 0.863495 0.274577
v 0.380230 0.884435 0.308108
v 0.294586 1.096437 0.320915
v 0.162230 1.513565 0.218895
v 0.225196 1.516932 0.271619
v 0.104389 2.067831 0.190778
v 0.188951 2.061832 0.217261
v 0.060330 2.498964 0.160021
v 0.342454 1.088002 0.258039
v 0.108299 2.495737 0.016838
v 0.190404 0.699158 0.242582
v 0.150202 0.712889 0.292633
v 0.175139 0.409796 0.326602
v 0.057594 0.946276 0.225091
v 0.101398 0.694236 0.253141
v 0.137572 0.698546 0.202883
v 0.194245 0.962004 0.202402
v 0.120406 0.944842 0.156068
v 0.111270 1.494170 0.073551
v 0.021229 1.493531 0.109838
v 0.075948 2.061658 0.008459
v -0.027465 2.065602 0.021666
v 0.008229 2.063093 0.120752
v 0.045053 1.498023 0.200539
v 0.181208 1.504827 0.138420
v 0.142932 0.964368 0.273574
v 0.103072 1.500945 0.238836
v -0.057757 2.492074 0.004730
v 0.112812 0.734616 0.507530
v 0.116981 0.507648 0.439835
v 0.090538 0.736096 0.427544
v 0.133527 0.507387 0.500727
v 0.163374 0.215807 0.433580
v -0.016177 1.248351 0.482538
v 0.089001 1.010425 0.496492
v 0.081676 1.249582 0.457521
v -0.002438 1.004642 0.520839
v -0.042134 1.231425 0.386400
v -0.026874 0.993431 0.429931
v 0.053743 1.233123 0.364704
v 0.062683 0.999820 0.408705
v 0.012176 0.719857 0.449722
v 0.057335 0.496213 0.456960
v 0.073881 0.495952 0.517852
v 0.034452 0.718376 0.529707
v -0.054680 1.533191 0.331570
v 0.045179 1.528668 0.304158
v -0.069529 1.768950 0.263622
v -0.034316 1.799637 0.377850
v -0.031893 1.555999 0.431351
v 0.068813 1.551302 0.402508
v 0.056495 1.758884 0.230165
v 0.086185 1.791786 0.353069
v 0.070391 2.395051 0.049903
v 0.102797 2.427540 0.183872
v -0.033595 2.435400 0.220626
v -0.065935 2.402795 0.086948
v 0.321305 0.881487 0.706092
v 0.213806 1.101957 0.669267
v 0.207090 1.062901 0.622215
v 0.122369 1.523034 0.541683
v 0.105447 1.495642 0.463487
v 0.273528 1.117024 0.647719
v 0.257730 1.090065 0.591357
v 0.186928 1.513711 0.444746
v 0.058602 2.040636 0.304319
v 0.151737 2.047591 0.289788
v -0.009303 2.419803 0.153566
v 0.109285 2.436979 0.132075
v 0.169499 2.083844 0.375092
v 0.130853 2.490249 0.239273
v 0.076363 2.076889 0.389621
v 0.012358 2.473033 0.260610
v 0.203852 1.541103 0.522941
v -0.092876 1.051342 0.746275
v -0.005483 1.581071 0.589229
v -0.102532 1.584325 0.590786
v 0.021073 2.096074 0.346908
v 0.020382 2.142344 0.441609
v -0.081261 2.130699 0.421357
v -0.145455 1.559542 0.508636
v -0.145784 1.038950 0.676105
v -0.097397 0.806398 0.803609
v -0.133258 0.784583 0.752476
v -0.037628 1.526120 0.450083
v 0.050848 2.540504 0.288413
v -0.073061 1.019447 0.631044
v -0.077900 0.782422 0.717158
v -0.095294 0.490194 0.806363
v -0.046208 0.787291 0.774275
v -0.009835 1.033173 0.707185
v 0.003554 1.545986 0.502534
v 0.310537 2.006616 -0.248082
v 0.250162 1.452115 -0.383573
v 0.173912 1.991638 -0.263708
v 0.312443 1.432139 -0.277984
v 0.329792 1.460061 -0.361200
v 0.281112 1.009185 -0.447376
v 0.358398 1.005520 -0.428861
v 0.307263 0.769403 -0.440141
v 0.359840 0.787677 -0.424858
v 0.315209 0.546852 -0.373321
v 0.344912 0.787195 -0.365620
v 0.287346 0.784693 -0.384484
v 0.269336 1.003378 -0.368157
v 0.226797 1.426209 -0.309174
v 0.184144 1.958359 -0.181897
v 0.122995 2.413364 -0.172569
v 0.104778 2.327856 -0.063505
v 0.280747 1.968913 -0.141126
v 0.209150 2.357016 -0.029596
v 0.272410 2.435075 -0.178939
v 0.346663 0.999673 -0.349468
v -0.232290 0.889429 -0.667067
v -0.235920 0.851781 -0.619138
v -0.299822 0.680047 -0.762166
v -0.171020 1.064404 -0.525795
v 0.083150 2.418199 -0.382489
v -0.114321 2.062560 -0.399218
v -0.020576 2.460086 -0.362851
v -0.102730 2.050421 -0.283197
v -0.186377 1.519537 -0.488042
v -0.172041 1.508792 -0.400477
v -0.249911 1.069916 -0.515957
v -0.287215 0.875311 -0.606143
v -0.291805 0.900307 -0.661657
v -0.185844 1.093523 -0.599341
v -0.091768 1.491351 -0.412780
v -0.097294 1.499964 -0.494334
v 0.027807 2.029115 -0.324138
v -0.012716 2.034460 -0.402988
v 0.113919 2.448389 -0.249592
v -0.264514 1.098824 -0.589411
v -0.020430 2.466275 -0.182934
v -0.240844 0.693623 -0.490369
v -0.175517 0.695956 -0.496435
v -0.223216 0.399077 -0.553256
v -0.117501 0.916510 -0.371544
v -0.173150 0.673392 -0.434997
v -0.232613 0.688148 -0.425025
v -0.224525 0.956199 -0.451585
v -0.209509 0.931680 -0.367520
v -0.162584 1.477530 -0.275331
v -0.075294 1.458952 -0.237124
v -0.082138 2.035365 -0.175946
v -0.001088 2.021264 -0.111787
v 0.043708 2.015386 -0.206956
v -0.026990 1.458807 -0.317629
v -0.163039 1.493308 -0.370009
v -0.138736 0.943606 -0.465221
v -0.039356 1.467520 -0.385545
v 0.084461 2.436906 -0.056958
v 0.005384 0.691303 -0.620144
v -0.085945 0.475282 -0.586853
v -0.035367 0.696572 -0.547979
v -0.054485 0.472054 -0.641456
v -0.174682 0.196664 -0.629991
v 0.168749 1.177437 -0.485337
v 0.063550 0.959432 -0.581636
v 0.084134 1.196816 -0.536984
v 0.142469 0.936682 -0.534290
v 0.115846 1.165525 -0.400119
v 0.093231 0.930146 -0.453543
v 0.035011 1.184735 -0.452680
v 0.017911 0.952897 -0.501722
v 0.031161 0.665869 -0.508897
v -0.034968 0.452798 -0.557230
v -0.003507 0.449571 -0.611833
v 0.071910 0.660599 -0.581062
v 0.140105 1.465044 -0.337456
v 0.051392 1.479318 -0.389126
v 0.144844 1.700559 -0.267244
v 0.206599 1.725810 -0.371064
v 0.198807 1.481882 -0.422697
v 0.108473 1.496254 -0.473970
v 0.032904 1.714187 -0.333473
v 0.104959 1.739914 -0.439377
v 0.010793 2.358151 -0.184421
v 0.088700 2.382885 -0.300059
v 0.209688 2.365106 -0.228917
v 0.131920 2.340241 -0.113536
v 0.028367 0.850934 -0.900246
v 0.115919 1.053536 -0.787081
v 0.080382 1.018444 -0.751162
v 0.164594 1.464242 -0.611311
v 0.116237 1.441847 -0.545649
v 0.062428 1.080010 -0.813460
v 0.028749 1.056196 -0.763945
v 0.050315 1.474535 -0.589270
v 0.134316 1.984446 -0.373002
v 0.061355 2.007712 -0.428401
v 0.142979 2.359940 -0.199699
v 0.049469 2.398016 -0.267715
v 0.115733 2.038288 -0.499215
v 0.119707 2.443895 -0.355783
v 0.188694 2.015022 -0.443815
v 0.213038 2.405810 -0.287728
v 0.098670 1.496929 -0.654931
v 0.371722 0.946993 -0.626583
v 0.296334 1.496139 -0.551292
v 0.364685 1.483473 -0.483474
v 0.200051 2.028880 -0.373611
v 0.275522 2.065436 -0.437465
v 0.328995 2.039412 -0.351789
v 0.331874 1.459798 -0.396479
v 0.356433 0.932762 -0.540325
v 0.371164 0.700301 -0.676061
v 0.355875 0.677806 -0.615756
v 0.210565 1.449861 -0.433324
v 0.218302 2.475748 -0.331175
v 0.271241 0.929561 -0.561100
v 0.292590 0.687927 -0.630216
v 0.314818 0.389740 -0.695390
v 0.311910 0.692543 -0.692633
v 0.283886 0.946220 -0.658804
v 0.222777 1.471180 -0.498425
vn -0.0730 0.0716 -0.9948
vn -0.6957 -0.1089 0.7100
vn 0.2382 -0.1034 0.9657
vn 0.6771 0.0431 -0.7346
vn -0.7672 0.0133 -0.6412
vn -0.6271 -0.1713 0.7599
vn -0.7889 -0.0587 -0.6117
vn -0.6694 -0.3869 0.6342
vn -0.6910 -0.2266 -0.6864
vn 0.3403 -0.9379 -0.0674
vn 0.6648 0.1044 -0.7397
vn 0.6954 -0.0120 0.7185
vn 0.7713 0.0019 0.6365
vn 0.6908 -0.0868 0.7178
vn 0.8085 -0.1157 0.5770
vn -0.0503 -0.0960 0.9941
vn 0.7118 -0.1966 0.6743
vn 0.6899 0.0083 -0.7238
vn 0.6464 0.0270 -0.7625
vn -0.2824 0.1339 -0.9499
vn 0.6015 0.1224 -0.7894
vn -0.8973 -0.0844 -0.4332
vn 0.4298 -0.4296 -0.7942
vn -0.2556 -0.9337 0.2507
vn 0.3395 -0.2265 -0.9129
vn -0.8892 -0.2646 -0.3733
vn -0.4026 0.0600 0.9134
vn -0.3496 0.0826 0.9333
vn 0.4040 0.1579 0.9010
vn -0.3873 0.0959 0.9169
vn 0.9383 0.0799 0.3364
vn 0.9508 0.0065 0.3098
vn 0.8924 -0.1558 0.4235
vn -0.3775 0.1579 0.9125
vn -0.9413 -0.0643 -0.3314
vn 0.4170 -0.1587 -0.8949
vn -0.8894 -0.1585 -0.4288
vn -0.5475 -0.1895 -0.8151
vn -0.9507 -0.1769 -0.2547
vn -0.2866 -0.1803 -0.9409
vn -0.3032 0.1805 0.9357
vn 0.5826 0.2195 0.7825
vn -0.3351 -0.0325 0.9416
vn -0.9083 -0.1707 -0.3820
vn -0.0581 -0.9951 0.0802
vn 0.3717 -0.1578 -0.9148
vn 0.4330 -0.2046 -0.8778
vn 0.9295 -0.0485 0.3657
vn -0.3277 0.0233 0.9445
vn 0.9231 0.0471 0.3817
vn 0.7564 0.1309 0.6409
vn 0.8358 0.0056 -0.5490
vn 0.7408 0.1777 0.6478
vn 0.8886 0.0486 -0.4561
vn -0.1063 -0.1461 -0.9835
vn -0.1100 -0.1298 -0.9854
vn -0.4159 0.0306 0.9089
vn -0.9455 -0.1590 -0.2840
vn -0.9202 -0.1666 -0.3543
vn 0.8424 0.1126 -0.5269
vn -0.8654 -0.0457 0.4990
vn 0.4824 0.2647 0.8350
vn 0.4905 0.2113 0.8455
vn -0.8603 -0.1110 0.4977
vn 0.2232 -0.8948 0.3866
vn -0.4974 -0.1040 -0.8613
vn -0.8726 -0.0246 0.4878
vn -0.8584 -0.0116 0.5128
vn -0.4921 -0.1808 -0.8516
vn 0.8734 -0.0114 -0.4869
vn 0.8598 -0.0263 -0.5099
vn 0.4986 0.0752 0.8636
vn 0.4966 0.1361 0.8573
vn 0.8658 -0.0434 -0.4986
vn 0.8613 -0.1107 -0.4958
vn -0.4453 -0.4556 -0.7708
vn -0.4776 -0.2987 -0.8262
vn 0.8589 -0.0302 -0.5112
vn 0.5019 -0.0110 0.8649
vn 0.8482 -0.0403 -0.5282
vn -0.5025 -0.0311 -0.8640
vn -0.4973 -0.0589 -0.8656
vn -0.8718 -0.0391 0.4883
vn 0.4981 -0.0544 0.8654
vn -0.8820 -0.0498 0.4685
vn 0.4982 -0.0335 0.8664
vn -0.8594 -0.0232 0.5109
vn -0.5045 0.0010 -0.8634
vn 0.8738 -0.0068 -0.4862
vn -0.2422 -0.9332 0.2653
vn -0.4914 -0.1611 -0.8559
vn 0.7772 -0.3986 -0.4869
vn -0.4232 -0.0614 -0.9040
vn 0.8858 -0.1543 -0.4376
vn -0.8565 0.1604 0.4906
vn 0.5542 -0.0499 0.8309
vn 0.4591 0.0161 0.8882
vn 0.8932 -0.1452 -0.4255
vn 0.4020 -0.0184 0.9155
vn 0.8842 -0.2065 -0.4189
vn 0.3699 -0.0408 0.9282
vn -0.9056 0.0874 0.4151
vn -0.9040 0.1152 0.4116
vn -0.4450 -0.0338 -0.8949
vn -0.4697 -0.0283 -0.8824
vn -0.8982 0.1030 0.4273
vn -0.7368 -0.0220 -0.6757
vn -0.9734 0.0107 0.2289
vn -0.4921 0.0490 -0.8692
vn -0.2345 -0.0667 0.9698
vn -0.9916 0.0442 0.1213
vn -0.4767 0.0957 -0.8738
vn 0.7018 -0.0200 -0.7121
vn 0.6307 -0.0335 -0.7753
vn -0.7471 -0.1166 -0.6544
vn 0.6386 -0.0888 -0.7644
vn 0.7458 -0.0991 0.6588
vn -0.9737 0.1152 0.1964
vn 0.7942 -0.0955 0.6001
vn 0.7240 -0.1022 0.6822
vn 0.0973 -0.9948 0.0302
vn -0.7050 -0.1567 0.6917
vn -0.6597 -0.1045 0.7443
vn -0.2317 -0.0501 0.9715
vn 0.2227 -0.4722 -0.8529
vn 0.0004 1.0000 0.0042
vn -0.4530 -0.4003 -0.7966
vn -0.8355 -0.5036 -0.2199
vn -0.7574 -0.4737 0.4493
vn -0.2328 -0.4472 0.8636
vn 0.4090 -0.5297 0.7431
vn 0.8245 -0.5183 0.2271
vn 0.8124 -0.3341 -0.4778
vn -0.6613 0.2294 0.7142
vn 0.7200 0.2038 0.6634
vn 0.5668 0.6507 0.5052
vn -0.5030 0.6714 0.5443
vn 0.5269 0.6375 -0.5621
vn -0.5414 0.6576 -0.5238
vn 0.6698 0.1850 -0.7191
vn -0.7129 0.2102 -0.6690
vn -0.6623 0.4709 0.5827
vn 0.7188 0.4454 0.5338
vn 0.5583 0.8000 0.2197
vn -0.5105 0.8194 0.2607
vn 0.5141 0.3873 -0.7653
vn -0.5546 0.4085 -0.7249
vn 0.6639 -0.0880 -0.7426
vn -0.7184 -0.0620 -0.6928
vn -0.6716 0.7185 0.1810
vn 0.7093 0.6927 0.1309
vn 0.5385 0.7752 -0.3301
vn -0.5311 0.7956 -0.2914
vn 0.5017 -0.1567 -0.8507
vn -0.5663 -0.1363 -0.8128
vn 0.6631 -0.5152 -0.5430
vn -0.7194 -0.4898 -0.4925
vn -0.6908 0.6509 -0.3148
vn 0.6902 0.6249 -0.3648
vn 0.5145 0.3851 -0.7661
vn -0.5547 0.4037 -0.7275
vn 0.5036 -0.6620 -0.5551
vn -0.5656 -0.6433 -0.5161
vn 0.6752 -0.7320 -0.0908
vn -0.7074 -0.7056 -0.0404
vn -0.8720 -0.1480 -0.4665
vn -0.8390 -0.2284 0.4940
vn -0.7929 0.3542 0.4959
vn -0.8235 0.4264 -0.3742
vn -0.0379 -0.1099 -0.9932
vn -0.0232 0.4721 -0.8812
vn 0.8094 0.3958 -0.4339
vn 0.8301 -0.1799 -0.5278
vn 0.8629 -0.2615 0.4324
vn 0.8396 0.3228 0.4370
vn 0.0294 -0.2740 0.9613
vn 0.0400 0.3187 0.9470
vn -0.8532 -0.1450 0.5011
vn -0.8863 -0.0639 -0.4588
vn -0.0369 -0.0439 -0.9984
vn 0.8478 -0.0970 -0.5214
vn 0.8809 -0.1776 0.4387
vn 0.0314 -0.2108 0.9770
vn -0.7864 0.3493 0.5095
vn -0.8175 0.4252 -0.3885
vn -0.0236 0.4597 -0.8878
vn 0.8027 0.3949 -0.4469
vn 0.8338 0.3190 0.4506
vn 0.0405 0.3043 0.9517
vn -0.4490 0.8260 0.3407
vn -0.4664 0.8688 -0.1662
vn 0.0004 0.8919 -0.4522
vn 0.4855 0.8510 -0.2004
vn 0.5032 0.8080 0.3064
vn 0.0368 0.8034 0.5942
vn 0.0222 0.9963 0.0831
vn -0.0219 -0.9963 -0.0833
vn -0.9339 -0.0942 -0.3449
vn 0.3722 -0.0441 0.9271
vn 0.9807 0.0702 0.1826
vn -0.3903 -0.0260 -0.9203
vn -0.8894 -0.1455 0.4333
vn 0.4559 -0.0925 0.8852
vn -0.8591 -0.2132 0.4652
vn 0.3639 -0.3279 0.8718
vn -0.8567 -0.3834 0.3452
vn 0.2432 -0.9093 -0.3377
vn -0.4106 0.0326 -0.9112
vn 0.9292 0.1539 -0.3360
vn 0.8842 0.1600 -0.4389
vn 0.9399 0.0799 -0.3320
vn 0.8667 0.0374 -0.4974
vn 0.8874 0.0611 0.4569
vn 0.9288 -0.0336 -0.3692
vn -0.3693 -0.0576 -0.9275
vn -0.4250 -0.0486 -0.9039
vn -0.9899 -0.0410 -0.1358
vn -0.4842 0.0377 -0.8742
vn -0.7387 -0.2178 0.6378
vn -0.4612 -0.5189 -0.7198
vn 0.2849 -0.8976 0.3364
vn -0.6401 -0.3446 -0.6867
vn -0.6500 -0.3850 0.6552
vn 0.6442 0.1761 0.7443
vn 0.6796 0.2053 0.7043
vn 0.9442 0.3292 0.0048
vn 0.6472 0.2131 0.7319
vn 0.6694 0.2009 -0.7152
vn 0.6637 0.1252 -0.7375
vn 0.7703 -0.0206 -0.6373
vn 0.6363 0.2741 0.7211
vn -0.6690 -0.1849 0.7199
vn -0.6043 -0.2693 -0.7498
vn -0.7186 -0.2894 0.6324
vn -0.9201 -0.3570 0.1613
vn -0.5842 -0.2842 0.7602
vn -0.9283 -0.3491 -0.1282
vn 0.6834 0.3055 0.6630
vn 0.8999 0.3839 -0.2068
vn 0.7132 0.0945 0.6946
vn -0.6821 -0.2954 0.6689
vn 0.2233 -0.9709 0.0861
vn -0.6408 -0.2748 -0.7168
vn -0.5745 -0.3105 -0.7574
vn 0.7147 0.0785 -0.6950
vn 0.7089 0.1504 0.6890
vn 0.7097 0.1747 -0.6825
vn 0.8593 0.2866 -0.4236
vn -0.1527 -0.0216 -0.9880
vn 0.8509 0.3326 -0.4066
vn -0.0555 0.0394 -0.9977
vn -0.8991 -0.3092 -0.3100
vn -0.9051 -0.2937 -0.3075
vn 0.6399 0.1455 0.7545
vn -0.6116 -0.2709 0.7434
vn -0.6629 -0.2877 0.6913
vn -0.1490 0.0878 -0.9849
vn 0.1029 -0.0280 0.9943
vn 0.8982 0.4295 -0.0939
vn 0.9203 0.3791 -0.0968
vn 0.1153 -0.0921 0.9891
vn 0.5948 -0.8027 -0.0433
vn -0.9561 -0.2766 0.0966
vn 0.0863 -0.0096 0.9962
vn 0.1121 0.0082 0.9937
vn -0.9318 -0.3502 0.0958
vn -0.0788 -0.0257 -0.9966
vn -0.1023 -0.0450 -0.9937
vn 0.9637 0.2487 -0.0967
vn 0.9465 0.3075 -0.0975
vn -0.0867 -0.0596 -0.9944
vn -0.0742 -0.1257 -0.9893
vn -0.7920 -0.6044 0.0866
vn -0.8824 -0.4612 0.0931
vn -0.1031 -0.0491 -0.9935
vn 0.9814 0.1642 -0.0992
vn -0.1210 -0.0626 -0.9907
vn -0.9735 -0.2056 0.1001
vn -0.9679 -0.2329 0.0948
vn 0.0896 -0.0237 0.9957
vn 0.9880 0.1214 -0.0955
vn 0.0695 -0.0381 0.9969
vn 0.9853 0.1421 -0.0952
vn 0.1120 -0.0036 0.9937
vn -0.9794 -0.1741 0.1022
vn -0.0788 -0.0210 -0.9967
vn 0.3034 -0.8938 0.3303
vn -0.9388 -0.3315 0.0933
vn -0.0498 -0.4138 -0.9090
vn -0.9717 -0.2361 0.0114
vn -0.0043 -0.1576 -0.9875
vn 0.0627 0.1742 0.9827
vn 0.9791 0.1243 -0.1609
vn 0.9802 0.1915 -0.0507
vn 0.0079 -0.1461 -0.9892
vn 0.9874 0.1579 0.0127
vn 0.0209 -0.2060 -0.9783
vn 0.9897 0.1355 0.0472
vn -0.0121 0.0867 0.9962
vn -0.0194 0.1135 0.9933
vn -0.9773 -0.2091 0.0350
vn -0.9771 -0.2034 0.0627
vn -0.0009 0.1045 0.9945
vn -0.9018 -0.1836 0.3913
vn -0.1931 -0.0237 0.9809
vn -0.9880 -0.1268 0.0885
vn 0.7855 0.0727 0.6146
vn -0.3029 -0.0092 0.9530
vn -0.9941 -0.0805 0.0726
vn -0.3489 -0.0827 -0.9335
vn -0.4322 -0.1113 -0.8949
vn -0.8702 -0.2740 0.4095
vn -0.4095 -0.1634 -0.8976
vn 0.9115 0.0622 -0.4065
vn -0.2407 0.0740 0.9678
vn 0.8780 0.0599 -0.4749
vn 0.9242 0.0614 -0.3770
vn 0.2417 -0.9674 -0.0761
vn 0.3605 -0.0947 0.9279
vn 0.4168 -0.0316 0.9084
vn 0.7852 0.0894 0.6128
vn -0.9265 0.3037 -0.2223
vn 0.4342 -0.2200 0.8736
vn 0.9389 -0.3396 0.0559
vn -0.4782 0.1630 -0.8630
vn -0.8104 0.2148 0.5451
vn 0.4850 -0.2968 0.8226
vn -0.8065 0.1397 0.5745
vn 0.3044 -0.4741 0.8262
vn -0.8884 -0.0131 0.4589
vn -0.1914 -0.9189 -0.3450
vn -0.4716 0.2246 -0.8527
vn 0.8619 -0.2262 -0.4538
vn 0.8108 -0.1993 -0.5503
vn 0.8420 -0.2983 -0.4495
vn 0.7379 -0.3023 -0.6034
vn 0.8849 -0.3185 0.3400
vn 0.7812 -0.3963 -0.4824
vn -0.4729 0.1259 -0.8721
vn -0.5167 0.1560 -0.8418
vn -0.9296 0.3686 -0.0090
vn -0.5315 0.2579 -0.8068
vn -0.6780 0.0813 0.7306
vn -0.7178 -0.2646 -0.6441
vn -0.0652 -0.9459 0.3180
vn -0.8048 -0.0337 -0.5926
vn -0.6635 -0.1080 0.7404
vn 0.7471 -0.1236 0.6531
vn 0.7861 -0.1100 0.6082
vn 0.9891 -0.0827 -0.1216
vn 0.7634 -0.0906 0.6395
vn 0.5988 -0.0662 -0.7982
vn 0.5600 -0.1323 -0.8179
vn 0.6097 -0.3118 -0.7287
vn 0.7770 -0.0301 0.6288
vn -0.5913 0.0805 0.8025
vn -0.7496 0.0225 -0.6615
vn -0.6895 0.0078 0.7242
vn -0.9579 0.0424 0.2840
vn -0.5499 -0.0458 0.8340
vn -0.9981 0.0619 -0.0023
vn 0.8252 -0.0188 0.5646
vn 0.9449 -0.0083 -0.3271
vn 0.7703 -0.2246 0.5969
vn -0.6544 -0.0136 0.7560
vn -0.1819 -0.9801 0.0791
vn -0.7808 0.0312 -0.6240
vn -0.7403 -0.0271 -0.6717
vn 0.5925 -0.1970 -0.7811
vn 0.7885 -0.1716 0.5906
vn 0.6286 -0.1075 -0.7703
vn 0.8417 -0.0740 -0.5348
vn -0.2698 0.0727 -0.9602
vn 0.8549 -0.0291 -0.5179
vn -0.1582 0.0893 -0.9834
vn -0.9780 0.0921 -0.1872
vn -0.9769 0.1086 -0.1843
vn 0.7321 -0.1502 0.6644
vn -0.5713 -0.0221 0.8204
vn -0.6311 -0.0151 0.7756
vn -0.2216 0.1710 -0.9600
vn 0.2053 -0.0980 0.9738
vn 0.9759 0.0306 -0.2160
vn 0.9751 -0.0243 -0.2205
vn 0.1898 -0.1614 0.9685
vn 0.2068 -0.9733 -0.0998
vn -0.9659 0.1325 0.2225
vn 0.1980 -0.0745 0.9774
vn 0.2283 -0.0686 0.9712
vn -0.9739 0.0554 0.2203
vn -0.2056 0.0392 -0.9779
vn -0.2344 0.0310 -0.9717
vn 0.9614 -0.1611 -0.2230
vn 0.9697 -0.1004 -0.2229
vn -0.2263 0.0114 -0.9740
vn -0.2411 -0.0543 -0.9690
vn -0.9518 -0.2333 0.1993
vn -0.9746 -0.0659 0.2139
vn -0.2367 0.0276 -0.9712
vn 0.9428 -0.2453 -0.2257
vn -0.2580 0.0225 -0.9659
vn -0.9523 0.2043 0.2266
vn -0.9590 0.1772 0.2212
vn 0.1952 -0.0887 0.9768
vn 0.9318 -0.2872 -0.2220
vn 0.1713 -0.0938 0.9807
vn 0.9378 -0.2672 -0.2218
vn 0.2234 -0.0794 0.9715
vn -0.9446 0.2354 0.2287
vn -0.2036 0.0435 -0.9781
vn -0.0476 -0.9497 0.3095
vn -0.9730 0.0754 0.2183
vn -0.3262 -0.3297 -0.8859
vn -0.9741 0.1785 0.1390
vn -0.1906 -0.1117 -0.9753
vn 0.2496 0.1034 0.9628
vn 0.9168 -0.2789 -0.2857
vn 0.9588 -0.2214 -0.1780
vn -0.1751 -0.1061 -0.9788
vn 0.9595 -0.2570 -0.1154
vn -0.1863 -0.1665 -0.9683
vn 0.9568 -0.2794 -0.0810
vn 0.1480 0.0534 0.9875
vn 0.1520 0.0810 0.9851
vn -0.9652 0.2047 0.1626
vn -0.9593 0.2089 0.1899
vn 0.1652 0.0651 0.9841
vn -0.8423 0.1863 0.5059
vn -0.0625 0.0265 0.9977
vn -0.9348 0.2825 0.2151
vn 0.8169 -0.2714 0.5090
vn -0.1595 0.0852 0.9835
vn -0.9235 0.3278 0.1991
vn -0.4654 0.0949 -0.8800
vn -0.5476 0.1014 -0.8306
vn -0.8482 0.0903 0.5220
vn -0.5486 0.0446 -0.8349
vn 0.7999 -0.3006 -0.5194
vn -0.0676 0.1354 0.9885
vn 0.7601 -0.2870 -0.5830
vn 0.8147 -0.3074 -0.4917
vn -0.1838 -0.9794 -0.0841
vn 0.4031 -0.2614 0.8770
vn 0.4773 -0.2261 0.8492
vn 0.8232 -0.2559 0.5068
vn -0.8314 0.2057 0.5162
vn 0.9598 -0.0416 0.2775
vn 0.7251 -0.2686 -0.6341
vn -0.9722 -0.0152 -0.2339
vn -0.1831 0.2561 0.9492
vn 0.9697 -0.1228 0.2113
vn -0.1467 0.1874 0.9713
vn 0.8808 -0.3073 0.3601
vn -0.2599 0.0126 0.9656
vn -0.2255 -0.9740 -0.0234
vn -0.9705 0.0474 -0.2362
vn 0.2856 -0.2487 -0.9255
vn 0.1770 -0.2417 -0.9541
vn 0.2873 -0.3200 -0.9028
vn 0.1069 -0.3564 -0.9282
vn 0.8912 -0.2027 -0.4057
vn 0.2391 -0.4257 -0.8727
vn -0.9690 -0.0530 -0.2412
vn -0.9814 -0.0208 -0.1906
vn -0.6897 0.3057 0.6563
vn -0.9829 0.0845 -0.1636
vn 0.0621 0.1642 0.9845
vn -0.9029 -0.4127 0.1203
vn 0.3438 -0.8799 0.3279
vn -0.9622 -0.1821 0.2027
vn 0.1103 -0.0194 0.9937
vn 0.9935 0.0342 -0.1084
vn 0.9848 0.0422 -0.1682
vn 0.5875 -0.0433 -0.8081
vn 0.9891 0.0653 -0.1319
vn -0.1665 -0.1657 -0.9720
vn -0.1958 -0.2363 -0.9518
vn -0.0681 -0.3948 -0.9163
vn 0.9804 0.1238 -0.1534
vn 0.1723 0.1809 0.9683
vn -0.9845 -0.1353 0.1119
vn 0.0620 0.0902 0.9940
vn -0.4423 0.0332 0.8963
vn 0.2438 0.0645 0.9677
vn -0.6798 0.0012 0.7334
vn 0.9642 0.1269 -0.2328
vn 0.3967 -0.0078 -0.9179
vn 0.9850 -0.0734 -0.1559
vn 0.1120 0.0767 0.9907
vn 0.0983 -0.9613 0.2572
vn -0.9796 -0.1221 0.1593
vn -0.9774 -0.1852 0.1016
vn -0.1366 -0.2917 -0.9467
vn 0.9839 -0.0212 -0.1773
vn -0.1195 -0.1997 -0.9725
vn 0.1881 -0.1140 -0.9755
vn -0.8881 -0.1083 -0.4467
vn 0.2017 -0.0661 -0.9772
vn -0.8330 -0.0893 -0.5460
vn -0.8053 0.0005 0.5929
vn -0.8052 0.0174 0.5928
vn 0.9961 0.0091 -0.0878
vn 0.2157 0.0842 0.9728
vn 0.1420 0.0799 0.9866
vn -0.8721 -0.0087 -0.4893
vn 0.8590 0.0819 0.5054
vn 0.4915 0.0512 -0.8694
vn 0.4967 -0.0035 -0.8679
vn 0.8553 0.0177 0.5178
vn 0.2277 -0.9620 -0.1507
vn -0.5071 0.1108 0.8547
vn 0.8528 0.1052 0.5115
vn 0.8676 0.1117 0.4845
vn -0.5012 0.0342 0.8646
vn -0.8524 -0.1404 -0.5037
vn -0.8658 -0.1491 -0.4777
vn 0.5085 -0.1393 -0.8497
vn 0.5040 -0.0791 -0.8601
vn -0.8588 -0.1684 -0.4838
vn -0.8542 -0.2329 -0.4648
vn -0.4538 -0.2520 0.8547
vn -0.4862 -0.0863 0.8695
vn -0.8665 -0.1525 -0.4754
vn 0.5081 -0.2237 -0.8318
vn -0.8760 -0.1579 -0.4557
vn -0.5070 0.1830 0.8423
vn -0.5109 0.1551 0.8456
vn 0.8528 0.0909 0.5142
vn 0.5104 -0.2650 -0.8181
vn 0.8406 0.0852 0.5349
vn 0.5112 -0.2449 -0.8238
vn 0.8664 0.1009 0.4891
vn -0.5055 0.2144 0.8358
vn -0.8520 -0.1361 -0.5056
vn 0.3500 -0.8842 0.3095
vn -0.5054 0.0536 0.8612
vn -0.8053 -0.4948 -0.3267
vn -0.5807 0.1413 0.8018
vn -0.8155 -0.2875 -0.5023
vn 0.8473 0.2807 0.4509
vn 0.4528 -0.2686 -0.8502
vn 0.5493 -0.1911 -0.8135
vn -0.8086 -0.2817 -0.5165
vn 0.6011 -0.2154 -0.7696
vn -0.7984 -0.3400 -0.4969
vn 0.6279 -0.2318 -0.7430
vn 0.8055 0.2297 0.5462
vn 0.8018 0.2567 0.5397
vn -0.5621 0.1716 0.8091
vn -0.5391 0.1808 0.8226
vn 0.8126 0.2417 0.5304
vn -0.2281 0.2195 0.9486
vn 0.6765 0.1925 0.7109
vn -0.5166 0.2590 0.8161
vn 0.9603 -0.1316 -0.2458
vn 0.5916 0.2420 0.7691
vn -0.5282 0.3015 0.7938
vn -0.9646 -0.0844 -0.2498
vn -0.9849 -0.0745 -0.1563
vn -0.2044 0.1275 0.9705
vn -0.9793 -0.1311 -0.1545
vn 0.2089 -0.3367 -0.9181
vn 0.6483 0.2978 0.7008
vn 0.1340 -0.3366 -0.9321
vn 0.2400 -0.3378 -0.9101
vn -0.0213 -0.9885 0.1496
vn 0.9484 -0.0836 0.3058
vn 0.9720 -0.0492 0.2297
vn 0.9604 -0.1163 -0.2531
vn 0.9716 0.0195 0.2359
vn -0.4714 0.0889 -0.8774
vn -0.9929 -0.0876 -0.0808
vn 0.5004 -0.1507 0.8526
vn 0.8401 0.1338 -0.5257
vn -0.5395 0.0168 -0.8418
vn 0.8184 0.0702 -0.5704
vn -0.4068 -0.1927 -0.8929
vn 0.8606 -0.1193 -0.4951
vn -0.0366 -0.9912 0.1272
vn 0.5089 -0.0887 0.8562
vn -0.8926 -0.1121 0.4367
vn -0.8368 -0.1202 0.5341
vn -0.8906 -0.1841 0.4160
vn -0.7911 -0.2466 0.5598
vn -0.9344 -0.0171 -0.3559
vn -0.8552 -0.2985 0.4237
vn 0.4863 -0.1866 0.8536
vn 0.5362 -0.1617 0.8284
vn 0.9909 0.1277 0.0419
vn 0.5753 -0.0610 0.8157
vn 0.6801 0.0800 -0.7288
vn 0.6307 -0.5628 0.5342
vn -0.1635 -0.8392 -0.5186
vn 0.7710 -0.3535 0.5298
vn 0.6204 -0.0934 -0.7787
vn -0.7527 0.2046 -0.6258
vn -0.7874 0.2166 -0.5771
vn -0.9803 0.1276 0.1505
vn -0.7606 0.2366 -0.6046
vn -0.5998 -0.0995 0.7940
vn -0.5781 -0.1755 0.7968
vn -0.6693 -0.3138 0.6734
vn -0.7592 0.2946 -0.5803
vn 0.5959 0.1157 -0.7946
vn 0.7307 -0.3027 0.6119
vn 0.6735 0.0064 -0.7391
vn 0.9409 -0.1222 -0.3160
vn 0.5255 0.0130 -0.8507
vn 0.9836 -0.1770 -0.0347
vn -0.8035 0.3024 -0.5128
vn -0.9202 0.1418 0.3648
vn -0.7997 0.1019 -0.5917
vn 0.6344 0.0016 -0.7730
vn -0.0593 -0.9524 -0.2991
vn 0.7632 -0.2934 0.5757
vn 0.7097 -0.3497 0.6116
vn -0.6251 -0.2209 0.7486
vn -0.8046 0.1550 -0.5732
vn -0.6386 -0.1253 0.7593
vn -0.8366 0.0090 0.5478
vn 0.2761 -0.2088 0.9382
vn -0.8385 0.0584 0.5417
vn 0.1717 -0.1719 0.9700
vn 0.9707 -0.1849 0.1531
vn 0.9736 -0.1684 0.1539
vn -0.7445 0.1785 -0.6434
vn 0.5520 0.0274 -0.8334
vn 0.6115 0.0100 -0.7912
vn 0.2530 -0.1044 0.9618
vn -0.2195 0.1726 -0.9602
vn -0.9406 0.2106 0.2664
vn -0.9530 0.1575 0.2590
vn -0.2198 0.1078 -0.9696
vn -0.4354 -0.8942 -0.1036
vn 0.9701 -0.0526 -0.2369
vn -0.2068 0.1940 -0.9590
vn -0.2348 0.2053 -0.9501
vn 0.9593 -0.1279 -0.2519
vn 0.2057 -0.2293 0.9514
vn 0.2316 -0.2424 0.9421
vn -0.9727 0.0243 0.2309
vn -0.9660 0.0837 0.2445
vn 0.2191 -0.2596 0.9405
vn 0.2177 -0.3241 0.9206
vn 0.8683 -0.4004 -0.2930
vn 0.9308 -0.2442 -0.2720
vn 0.2331 -0.2460 0.9408
vn -0.9749 -0.0603 0.2144
vn 0.2526 -0.2548 0.9334
vn 0.9742 0.0195 -0.2246
vn 0.9742 -0.0089 -0.2256
vn -0.2075 0.1798 -0.9616
vn -0.9743 -0.1017 0.2011
vn -0.1855 0.1702 -0.9678
vn -0.9753 -0.0813 0.2055
vn -0.2327 0.1941 -0.9530
vn 0.9743 0.0512 -0.2195
vn 0.2048 -0.2248 0.9526
vn -0.1815 -0.8407 -0.5103
vn 0.9632 -0.1091 -0.2456
vn 0.2342 -0.5862 0.7756
vn 0.9888 -0.0296 -0.1460
vn 0.1548 -0.3679 0.9169
vn -0.2142 0.3711 -0.9035
vn -0.9580 -0.1116 0.2643
vn -0.9845 -0.0233 0.1739
vn 0.1411 -0.3598 0.9223
vn -0.9935 -0.0429 0.1051
vn 0.1375 -0.4172 0.8984
vn -0.9961 -0.0570 0.0666
vn -0.1275 0.3054 -0.9436
vn -0.1247 0.3319 -0.9350
vn 0.9867 0.0025 -0.1628
vn 0.9820 0.0140 -0.1882
vn -0.1413 0.3198 -0.9369
vn 0.8640 0.0906 -0.4952
vn 0.0704 0.2327 -0.9700
vn 0.9761 0.0950 -0.1956
vn -0.8565 0.0491 -0.5139
vn 0.1786 0.2622 -0.9483
vn 0.9760 0.1370 -0.1695
vn 0.4716 -0.2160 0.8550
vn 0.5531 -0.2182 0.8040
vn 0.8467 0.0021 -0.5320
vn 0.5404 -0.2731 0.7959
vn -0.8505 -0.2118 0.4815
vn 0.1016 0.3325 -0.9376
vn -0.8088 -0.2224 0.5444
vn -0.8664 -0.2085 0.4537
vn -0.0577 -0.9885 -0.1399
vn -0.4512 0.0431 -0.8914
vn -0.5148 0.0878 -0.8528
vn -0.8589 0.0647 -0.5081
vt 0.822515 0.952379
vt 0.824153 0.938209
vt 0.825871 0.952300
vt 0.819422 0.938276
vt 0.822209 0.938614
vt 0.822402 0.927542
vt 0.821060 0.927790
vt 0.820901 0.922406
vt 0.820195 0.923171
vt 0.819388 0.916841
vt 0.819070 0.923149
vt 0.817864 0.922812
vt 0.817375 0.927813
vt 0.815805 0.927317
vt 0.815044 0.938051
vt 0.816851 0.938018
vt 0.814372 0.951793
vt 0.816556 0.951523
vt 0.813440 0.962742
vt 0.816260 0.961480
vt 0.819490 0.951816
vt 0.818717 0.962055
vt 0.821993 0.963519
vt 0.816886 0.921843
vt 0.819229 0.927869
vt 0.868871 0.884637
vt 0.869910 0.883608
vt 0.867265 0.878297
vt 0.871070 0.889410
vt 0.870575 0.925704
vt 0.867144 0.915440
vt 0.867978 0.926313
vt 0.863931 0.916037
vt 0.867217 0.901061
vt 0.864258 0.901420
vt 0.865489 0.889924
vt 0.864052 0.889661
vt 0.865647 0.884206
vt 0.866408 0.885020
vt 0.867591 0.884984
vt 0.869391 0.889948
vt 0.871867 0.900822
vt 0.869959 0.900786
vt 0.872592 0.915403
vt 0.870273 0.915117
vt 0.873582 0.927043
vt 0.867434 0.890008
vt 0.864499 0.927868
vt 0.862192 0.900989
vt 0.860381 0.915954
vt 0.850614 0.885307
vt 0.852039 0.884876
vt 0.848863 0.877232
vt 0.846797 0.885379
vt 0.846447 0.891180
vt 0.847885 0.885486
vt 0.849201 0.885845
vt 0.851713 0.891575
vt 0.849153 0.891551
vt 0.849890 0.905559
vt 0.846592 0.905595
vt 0.850313 0.920260
vt 0.847232 0.920571
vt 0.844091 0.920391
vt 0.843850 0.905392
vt 0.852993 0.905522
vt 0.853923 0.891012
vt 0.855989 0.905283
vt 0.855457 0.920822
vt 0.852969 0.920332
vt 0.851436 0.931947
vt 0.847776 0.931900
vt 0.843198 0.932402
vt 0.840963 0.920236
vt 0.841978 0.904972
vt 0.844793 0.891168
vt 0.861373 0.930179
vt 0.861989 0.925358
vt 0.863329 0.930012
vt 0.860612 0.925741
vt 0.858933 0.919916
vt 0.860008 0.940932
vt 0.861952 0.935801
vt 0.862412 0.940777
vt 0.859754 0.935944
vt 0.857616 0.941052
vt 0.857580 0.936052
vt 0.855249 0.941136
vt 0.855394 0.936112
vt 0.857568 0.930406
vt 0.855600 0.930478
vt 0.857870 0.925908
vt 0.856433 0.925693
vt 0.859259 0.925944
vt 0.859452 0.930227
vt 0.857774 0.947512
vt 0.855262 0.947512
vt 0.857689 0.952667
vt 0.860576 0.952572
vt 0.860322 0.947428
vt 0.862846 0.947248
vt 0.854585 0.952644
vt 0.863450 0.952356
vt 0.864151 0.935598
vt 0.864767 0.940598
vt 0.865358 0.946949
vt 0.866518 0.951938
vt 0.868004 0.965611
vt 0.864634 0.965862
vt 0.861265 0.966042
vt 0.857894 0.966245
vt 0.854525 0.966412
vt 0.826112 0.923273
vt 0.827779 0.916658
vt 0.829434 0.917508
vt 0.828069 0.904708
vt 0.830738 0.904803
vt 0.825810 0.916455
vt 0.823866 0.916730
vt 0.822175 0.917723
vt 0.820109 0.905031
vt 0.822730 0.904529
vt 0.818925 0.889445
vt 0.821885 0.889181
vt 0.816824 0.878248
vt 0.820557 0.877614
vt 0.824808 0.888882
vt 0.824337 0.877136
vt 0.827755 0.888918
vt 0.828154 0.877399
vt 0.830702 0.889193
vt 0.831934 0.877901
vt 0.825400 0.904385
vt 0.834999 0.923588
vt 0.837559 0.937631
vt 0.834262 0.937596
vt 0.840059 0.952429
vt 0.836919 0.952608
vt 0.833827 0.952297
vt 0.831157 0.937560
vt 0.832438 0.923611
vt 0.834951 0.917870
vt 0.833537 0.917331
vt 0.842173 0.937009
vt 0.843187 0.952261
vt 0.840953 0.964439
vt 0.836375 0.963936
vt 0.832703 0.963972
vt 0.831181 0.952356
vt 0.828694 0.952847
vt 0.828162 0.937320
vt 0.830227 0.923050
vt 0.832111 0.916901
vt 0.835288 0.909269
vt 0.836267 0.917523
vt 0.837692 0.923217
vt 0.840301 0.937416
vt 0.839359 0.923205
vt 0.837353 0.917415
vt 0.845228 0.882184
vt 0.843513 0.877327
vt 0.839213 0.882949
vt 0.838670 0.876549
vt 0.834128 0.878595
vt 0.833198 0.883727
vt 0.834986 0.888464
vt 0.839733 0.889349
vt 0.844286 0.887327
vt 0.924225 0.991585
vt 0.924225 0.984991
vt 0.926341 0.987213
vt 0.926341 0.989362
vt 0.928481 0.987213
vt 0.928481 0.989362
vt 0.930667 0.984991
vt 0.930667 0.991585
vt 0.934527 0.899090
vt 0.922065 0.898704
vt 0.923719 0.896440
vt 0.932459 0.896432
vt 0.940560 0.889079
vt 0.936503 0.888910
vt 0.932952 0.882496
vt 0.934312 0.879117
vt 0.921825 0.878642
vt 0.923520 0.881814
vt 0.915841 0.889152
vt 0.918929 0.889226
vt 0.968704 0.977057
vt 0.976181 0.986118
vt 0.970700 0.988170
vt 0.964294 0.980174
vt 0.987840 0.991418
vt 0.983952 0.995339
vt 0.982070 0.935002
vt 0.986855 0.938592
vt 0.976181 0.944966
vt 0.970700 0.942939
vt 0.968681 0.954051
vt 0.963999 0.950534
vt 0.964883 0.965555
vt 0.959683 0.965629
vt 0.974763 0.974616
vt 0.982239 0.983724
vt 0.992311 0.986631
vt 0.992047 0.942525
vt 0.982239 0.947384
vt 0.974763 0.956494
vt 0.971349 0.965555
vt 0.981252 0.972149
vt 0.989619 0.978573
vt 0.997240 0.981381
vt 0.987984 0.951829
vt 0.997768 0.946846
vt 0.981252 0.958961
vt 0.978441 0.965555
vt 0.990337 0.965519
vt 0.917667 0.895825
vt 0.927873 0.901456
vt 0.939109 0.895651
vt 0.938916 0.882275
vt 0.928302 0.877118
vt 0.917245 0.882496
s 1
f 1/1/1 2/2/2 3/3/3
f 1/1/1 4/4/4 5/5/5
f 2/2/2 1/1/1 5/5/5
f 5/5/5 6/6/6 2/2/2
f 6/6/6 5/5/5 7/7/7
f 7/7/7 8/8/8 6/6/6
f 8/8/8 7/7/7 9/9/9
f 8/8/8 9/9/9 10/10/10
f 9/9/9 11/11/11 10/10/10
f 11/11/11 12/12/12 10/10/10
f 11/11/11 13/13/13 12/12/12
f 6/14/6 12/12/12 13/13/13
f 13/13/13 2/15/2 6/14/6
f 2/15/2 13/13/13 14/16/14
f 14/16/14 3/17/3 2/15/2
f 3/17/3 14/16/14 15/18/15
f 15/18/15 16/19/16 3/17/3
f 16/19/16 15/18/15 17/20/17
f 18/21/18 17/20/17 15/18/15
f 17/20/17 18/21/18 19/22/19
f 1/1/1 19/22/19 18/21/18
f 19/22/19 1/1/1 20/23/20
f 12/12/12 8/24/8 10/10/10
f 12/12/12 6/14/6 8/24/8
f 4/4/4 1/1/1 18/21/18
f 15/18/15 4/4/4 18/21/18
f 4/4/4 15/18/15 14/16/14
f 14/16/14 21/25/21 4/4/4
f 21/25/21 14/16/14 13/13/13
f 13/13/13 11/11/11 21/25/21
f 9/9/9 21/25/21 11/11/11
f 21/25/21 9/9/9 7/7/7
f 7/7/7 4/4/4 21/25/21
f 4/4/4 7/7/7 5/5/5
f 22/26/22 23/27/23 24/28/24
f 22/26/22 25/29/25 23/27/23
f 26/30/26 27/31/27 28/32/28
f 29/33/29 28/32/28 27/31/27
f 30/34/30 29/33/29 27/31/27
f 29/33/29 30/34/30 31/35/31
f 30/34/30 32/36/32 31/35/31
f 25/37/25 31/35/31 32/36/32
f 32/36/32 23/38/23 25/37/25
f 23/38/23 32/36/32 33/39/33
f 23/38/23 33/39/33 24/28/24
f 33/39/33 34/40/34 24/28/24
f 34/40/34 22/26/22 24/28/24
f 34/40/34 35/41/35 22/26/22
f 25/29/25 22/26/22 35/41/35
f 35/41/35 36/42/36 25/29/25
f 36/42/36 35/41/35 37/43/37
f 37/43/37 38/44/38 36/42/36
f 38/44/38 37/43/37 39/45/39
f 39/45/39 40/46/40 38/44/38
f 40/46/40 39/45/39 26/30/26
f 27/31/27 26/30/26 39/45/39
f 39/45/39 30/34/30 27/31/27
f 30/34/30 39/45/39 37/43/37
f 37/43/37 41/47/41 30/34/30
f 41/47/41 37/43/37 35/41/35
f 35/41/35 34/40/34 41/47/41
f 33/39/33 41/47/41 34/40/34
f 41/47/41 33/39/33 32/36/32
f 32/36/32 30/34/30 41/47/41
f 28/32/28 29/33/29 42/48/42
f 29/33/29 36/49/36 38/50/38
f 36/49/36 29/33/29 31/35/31
f 31/35/31 25/37/25 36/49/36
f 43/51/43 44/52/44 45/53/45
f 44/54/44 46/55/46 47/56/47
f 44/54/44 47/56/47 45/53/45
f 47/56/47 48/57/48 45/53/45
f 48/57/48 43/51/43 45/53/45
f 48/57/48 49/58/49 43/51/43
f 49/58/49 48/57/48 50/59/50
f 51/60/51 49/58/49 50/59/50
f 50/59/50 52/61/52 51/60/51
f 52/61/52 53/62/53 51/60/51
f 53/62/53 52/61/52 54/63/54
f 52/61/52 55/64/55 54/63/54
f 55/64/55 52/61/52 56/65/56
f 56/65/56 52/61/52 46/55/46
f 52/61/52 50/59/50 46/55/46
f 50/59/50 47/56/47 46/55/46
f 47/56/47 50/59/50 48/57/48
f 53/62/53 57/66/57 51/60/51
f 49/58/49 51/60/51 57/66/57
f 43/51/43 58/67/58 44/52/44
f 58/67/58 43/51/43 49/58/49
f 49/58/49 59/68/59 58/67/58
f 59/68/59 49/58/49 57/66/57
f 57/66/57 38/69/38 59/68/59
f 38/69/38 57/66/57 29/70/29
f 57/66/57 53/62/53 29/70/29
f 42/71/42 29/70/29 53/62/53
f 54/63/54 42/71/42 53/62/53
f 42/71/42 54/63/54 60/72/60
f 55/64/55 60/72/60 54/63/54
f 60/72/60 55/64/55 40/73/40
f 40/73/40 55/64/55 38/74/38
f 55/64/55 59/75/59 38/74/38
f 59/75/59 55/64/55 56/65/56
f 56/65/56 58/76/58 59/75/59
f 58/76/58 56/65/56 46/55/46
f 46/55/46 44/54/44 58/76/58
f 61/77/61 62/78/62 63/79/63
f 62/78/62 61/77/61 64/80/64
f 62/78/62 64/80/64 65/81/65
f 66/82/66 67/83/67 68/84/68
f 67/83/67 66/82/66 69/85/69
f 70/86/70 69/85/69 66/82/66
f 69/85/69 70/86/70 71/87/71
f 72/88/72 71/87/71 70/86/70
f 71/87/71 72/88/72 73/89/73
f 73/89/73 74/90/74 71/87/71
f 74/90/74 73/89/73 63/91/63
f 63/91/63 75/92/75 74/90/74
f 75/92/75 63/91/63 62/93/62
f 75/92/75 62/93/62 65/81/65
f 76/94/76 75/92/75 65/81/65
f 64/80/64 76/94/76 65/81/65
f 64/80/64 77/95/77 76/94/76
f 77/95/77 64/80/64 61/77/61
f 61/77/61 69/85/69 77/95/77
f 69/85/69 61/77/61 67/83/67
f 63/79/63 67/83/67 61/77/61
f 71/87/71 77/95/77 69/85/69
f 77/95/77 71/87/71 74/90/74
f 74/90/74 76/94/76 77/95/77
f 76/94/76 74/90/74 75/92/75
f 72/88/72 78/96/78 79/97/79
f 80/98/80 79/97/79 78/96/78
f 78/96/78 81/99/81 80/98/80
f 81/99/81 78/96/78 82/100/82
f 83/101/83 81/99/81 82/100/82
f 82/100/82 68/84/68 83/101/83
f 68/84/68 82/100/82 66/82/66
f 82/100/82 70/86/70 66/82/66
f 70/86/70 82/100/82 78/96/78
f 78/96/78 72/88/72 70/86/70
f 79/97/79 80/98/80 84/102/84
f 81/99/81 83/101/83 85/103/85
f 67/83/67 63/79/63 73/104/73
f 73/104/73 68/84/68 67/83/67
f 68/84/68 73/104/73 72/105/72
f 72/105/72 83/101/83 68/84/68
f 83/101/83 72/105/72 79/106/79
f 79/106/79 85/103/85 83/101/83
f 85/103/85 79/106/79 84/107/84
f 86/108/86 85/103/85 84/107/84
f 85/103/85 86/108/86 87/109/87
f 87/109/87 81/99/81 85/103/85
f 81/99/81 87/109/87 88/110/88
f 88/110/88 80/98/80 81/99/81
f 80/98/80 88/110/88 89/111/89
f 89/111/89 84/102/84 80/98/80
f 84/102/84 89/111/89 86/112/86
f 90/113/90 91/114/91 92/115/92
f 92/115/92 93/116/93 94/117/94
f 93/116/93 92/115/92 91/114/91
f 95/118/95 93/116/93 91/114/91
f 90/113/90 95/118/95 91/114/91
f 90/113/90 96/119/96 95/118/95
f 90/113/90 92/120/92 96/119/96
f 94/121/94 96/119/96 92/120/92
f 96/119/96 94/121/94 97/122/97
f 98/123/98 97/122/97 94/121/94
f 97/122/97 98/123/98 99/124/99
f 100/125/100 99/124/99 98/123/98
f 99/124/99 100/125/100 101/126/101
f 101/126/101 102/127/102 99/124/99
f 102/127/102 101/126/101 103/128/103
f 103/128/103 104/129/104 102/127/102
f 104/129/104 103/128/103 105/130/105
f 105/130/105 98/131/98 104/129/104
f 98/131/98 105/130/105 100/132/100
f 94/117/94 104/129/104 98/131/98
f 104/129/104 94/117/94 93/116/93
f 106/133/106 104/129/104 93/116/93
f 104/129/104 106/133/106 102/127/102
f 106/133/106 99/124/99 102/127/102
f 99/124/99 106/133/106 97/122/97
f 95/118/95 97/122/97 106/133/106
f 97/122/97 95/118/95 96/119/96
f 93/116/93 95/118/95 106/133/106
f 107/134/107 108/135/108 109/136/109
f 108/135/108 110/137/110 111/138/111
f 112/139/112 108/135/108 111/138/111
f 108/135/108 112/139/112 109/136/109
f 112/139/112 113/140/113 109/136/109
f 114/141/114 109/136/109 113/140/113
f 109/136/109 114/141/114 107/134/107
f 114/141/114 115/142/115 107/134/107
f 115/142/115 114/141/114 116/143/116
f 110/137/110 117/144/117 3/145/3
f 16/146/16 110/137/110 3/145/3
f 118/147/118 110/137/110 16/146/16
f 110/137/110 118/147/118 111/138/111
f 20/148/20 111/138/111 118/147/118
f 111/138/111 20/148/20 112/139/112
f 20/148/20 1/149/1 112/139/112
f 113/140/113 112/139/112 1/149/1
f 3/150/3 113/140/113 1/149/1
f 113/140/113 3/150/3 117/151/117
f 117/151/117 114/141/114 113/140/113
f 114/141/114 117/151/117 119/152/119
f 119/152/119 116/143/116 114/141/114
f 116/143/116 119/152/119 120/153/120
f 116/143/116 120/153/120 121/154/121
f 115/142/115 116/143/116 121/154/121
f 122/155/122 115/142/115 121/154/121
f 122/155/122 107/134/107 115/142/115
f 107/134/107 122/155/122 123/156/123
f 108/135/108 107/134/107 123/156/123
f 124/157/124 108/135/108 123/156/123
f 110/137/110 108/135/108 124/157/124
f 117/144/117 110/137/110 124/157/124
f 124/157/124 119/158/119 117/144/117
f 119/158/119 124/157/124 123/156/123
f 123/156/123 120/159/120 119/158/119
f 120/159/120 123/156/123 122/155/122
f 120/159/120 122/155/122 121/154/121
f 125/160/125 127/161/127 126/162/126
f 127/161/127 128/163/128 126/162/126
f 128/163/128 129/164/129 126/162/126
f 129/164/129 130/165/130 126/162/126
f 130/165/130 131/166/131 126/162/126
f 131/166/131 132/167/132 126/162/126
f 132/167/132 133/168/133 126/162/126
f 133/168/133 125/160/125 126/162/126
f 134/169/134 135/170/135 136/171/136
f 137/172/137 134/169/134 136/171/136
f 137/172/137 136/171/136 138/173/138
f 139/174/139 137/172/137 138/173/138
f 140/175/140 141/176/141 139/174/139
f 139/174/139 138/173/138 140/175/140
f 141/176/141 134/169/134 137/172/137
f 139/174/139 141/176/141 137/172/137
f 135/170/135 140/175/140 138/173/138
f 136/171/136 135/170/135 138/173/138
f 142/170/142 143/175/143 144/173/144
f 145/171/145 142/170/142 144/173/144
f 145/171/145 144/173/144 146/174/146
f 147/172/147 145/171/145 146/174/146
f 148/176/148 149/169/149 147/172/147
f 147/172/147 146/174/146 148/176/148
f 149/169/149 142/170/142 145/171/145
f 147/172/147 149/169/149 145/171/145
f 143/175/143 148/176/148 146/174/146
f 144/173/144 143/175/143 146/174/146
f 150/169/150 151/170/151 152/171/152
f 153/172/153 150/169/150 152/171/152
f 153/172/153 152/171/152 154/173/154
f 155/174/155 153/172/153 154/173/154
f 156/175/156 157/176/157 155/174/155
f 155/174/155 154/173/154 156/175/156
f 157/176/157 150/169/150 153/172/153
f 155/174/155 157/176/157 153/172/153
f 151/170/151 156/175/156 154/173/154
f 152/171/152 151/170/151 154/173/154
f 158/169/158 159/170/159 160/171/160
f 161/172/161 158/169/158 160/171/160
f 161/172/161 160/171/160 162/173/162
f 163/174/163 161/172/161 162/173/162
f 164/175/164 165/176/165 163/174/163
f 163/174/163 162/173/162 164/175/164
f 165/176/165 158/169/158 161/172/161
f 163/174/163 165/176/165 161/172/161
f 159/170/159 164/175/164 162/173/162
f 160/171/160 159/170/159 162/173/162
f 166/177/166 167/178/167 168/179/168
f 169/180/169 166/177/166 168/179/168
f 170/181/170 166/177/166 169/180/169
f 171/182/171 170/181/170 169/180/169
f 172/183/172 173/184/173 170/181/170
f 172/183/172 170/181/170 171/182/171
f 174/185/174 173/184/173 172/183/172
f 175/186/175 174/185/174 172/183/172
f 176/187/176 174/185/174 175/186/175
f 177/188/177 176/187/176 175/186/175
f 168/179/168 167/178/167 176/187/176
f 168/179/168 176/187/176 177/188/177
f 178/189/178 179/190/179 169/191/169
f 169/191/169 168/192/168 178/189/178
f 179/190/179 180/193/180 171/194/171
f 171/194/171 169/191/169 179/190/179
f 171/195/171 180/196/180 181/197/181
f 172/198/172 171/195/171 181/197/181
f 181/197/181 182/199/182 175/200/175
f 175/200/175 172/198/172 181/197/181
f 182/199/182 183/201/183 177/202/177
f 177/202/177 175/200/175 182/199/182
f 177/202/177 183/201/183 178/189/178
f 168/192/168 177/202/177 178/189/178
f 179/190/179 178/189/178 184/203/184
f 185/204/185 179/190/179 184/203/184
f 180/193/180 179/190/179 185/204/185
f 186/205/186 180/193/180 185/204/185
f 181/197/181 180/196/180 186/206/186
f 187/207/187 181/197/181 186/206/186
f 182/199/182 181/197/181 187/207/187
f 188/208/188 182/199/182 187/207/187
f 183/201/183 182/199/182 188/208/188
f 189/209/189 183/201/183 188/208/188
f 178/189/178 183/201/183 189/209/189
f 184/203/184 178/189/178 189/209/189
f 185/204/185 184/203/184 190/210/190
f 191/211/191 185/204/185 190/210/190
f 186/205/186 185/204/185 191/211/191
f 192/212/192 186/205/186 191/211/191
f 193/213/193 187/207/187 186/206/186
f 193/213/193 186/206/186 192/214/192
f 188/208/188 187/207/187 193/213/193
f 194/215/194 188/208/188 193/213/193
f 189/209/189 188/208/188 194/215/194
f 195/216/195 189/209/189 194/215/194
f 190/210/190 184/203/184 189/209/189
f 190/210/190 189/209/189 195/216/195
f 191/211/191 190/210/190 196/217/196
f 192/212/192 191/211/191 196/217/196
f 193/213/193 192/214/192 196/217/196
f 194/215/194 193/213/193 196/217/196
f 195/216/195 194/215/194 196/217/196
f 190/210/190 195/216/195 196/217/196
f 176/187/176 167/178/167 197/218/197
f 167/178/167 166/177/166 197/219/197
f 197/220/197 166/177/166 170/181/170
f 170/181/170 173/184/173 197/221/197
f 173/184/173 174/185/174 197/222/197
f 197/223/197 174/185/174 176/187/176
f 125/160/125 130/165/130 128/163/128
f 133/168/133 132/167/132 125/160/125
f 125/160/125 128/163/128 127/161/127
f 128/163/128 130/165/130 129/164/129
f 125/160/125 132/167/132 130/165/130
f 130/165/130 132/167/132 131/166/131
f 198/1/198 199/2/199 200/3/200
f 198/1/198 201/4/201 202/5/202
f 199/2/199 198/1/198 202/5/202
f 202/5/202 203/6/203 199/2/199
f 203/6/203 202/5/202 204/7/204
f 204/7/204 205/8/205 203/6/203
f 205/8/205 204/7/204 206/9/206
f 205/8/205 206/9/206 207/10/207
f 206/9/206 208/11/208 207/10/207
f 208/11/208 209/12/209 207/10/207
f 208/11/208 210/13/210 209/12/209
f 203/14/203 209/12/209 210/13/210
f 210/13/210 199/15/199 203/14/203
f 199/15/199 210/13/210 211/16/211
f 211/16/211 200/17/200 199/15/199
f 200/17/200 211/16/211 212/18/212
f 212/18/212 213/19/213 200/17/200
f 213/19/213 212/18/212 214/20/214
f 215/21/215 214/20/214 212/18/212
f 214/20/214 215/21/215 216/22/216
f 198/1/198 216/22/216 215/21/215
f 216/22/216 198/1/198 217/23/217
f 209/12/209 205/24/205 207/10/207
f 209/12/209 203/14/203 205/24/205
f 201/4/201 198/1/198 215/21/215
f 212/18/212 201/4/201 215/21/215
f 201/4/201 212/18/212 211/16/211
f 211/16/211 218/25/218 201/4/201
f 218/25/218 211/16/211 210/13/210
f 210/13/210 208/11/208 218/25/218
f 206/9/206 218/25/218 208/11/208
f 218/25/218 206/9/206 204/7/204
f 204/7/204 201/4/201 218/25/218
f 201/4/201 204/7/204 202/5/202
f 219/26/219 220/27/220 221/28/221
f 219/26/219 222/29/222 220/27/220
f 223/30/223 224/31/224 225/32/225
f 226/33/226 225/32/225 224/31/224
f 227/34/227 226/33/226 224/31/224
f 226/33/226 227/34/227 228/35/228
f 227/34/227 229/36/229 228/35/228
f 222/37/222 228/35/228 229/36/229
f 229/36/229 220/38/220 222/37/222
f 220/38/220 229/36/229 230/39/230
f 220/38/220 230/39/230 221/28/221
f 230/39/230 231/40/231 221/28/221
f 231/40/231 219/26/219 221/28/221
f 231/40/231 232/41/232 219/26/219
f 222/29/222 219/26/219 232/41/232
f 232/41/232 233/42/233 222/29/222
f 233/42/233 232/41/232 234/43/234
f 234/43/234 235/44/235 233/42/233
f 235/44/235 234/43/234 236/45/236
f 236/45/236 237/46/237 235/44/235
f 237/46/237 236/45/236 223/30/223
f 224/31/224 223/30/223 236/45/236
f 236/45/236 227/34/227 224/31/224
f 227/34/227 236/45/236 234/43/234
f 234/43/234 238/47/238 227/34/227
f 238/47/238 234/43/234 232/41/232
f 232/41/232 231/40/231 238/47/238
f 230/39/230 238/47/238 231/40/231
f 238/47/238 230/39/230 229/36/229
f 229/36/229 227/34/227 238/47/238
f 225/32/225 226/33/226 239/48/239
f 226/33/226 233/49/233 235/50/235
f 233/49/233 226/33/226 228/35/228
f 228/35/228 222/37/222 233/49/233
f 240/51/240 241/52/241 242/53/242
f 241/54/241 243/55/243 244/56/244
f 241/54/241 244/56/244 242/53/242
f 244/56/244 245/57/245 242/53/242
f 245/57/245 240/51/240 242/53/242
f 245/57/245 246/58/246 240/51/240
f 246/58/246 245/57/245 247/59/247
f 248/60/248 246/58/246 247/59/247
f 247/59/247 249/61/249 248/60/248
f 249/61/249 250/62/250 248/60/248
f 250/62/250 249/61/249 251/63/251
f 249/61/249 252/64/252 251/63/251
f 252/64/252 249/61/249 253/65/253
f 253/65/253 249/61/249 243/55/243
f 249/61/249 247/59/247 243/55/243
f 247/59/247 244/56/244 243/55/243
f 244/56/244 247/59/247 245/57/245
f 250/62/250 254/66/254 248/60/248
f 246/58/246 248/60/248 254/66/254
f 240/51/240 255/67/255 241/52/241
f 255/67/255 240/51/240 246/58/246
f 246/58/246 256/68/256 255/67/255
f 256/68/256 246/58/246 254/66/254
f 254/66/254 235/69/235 256/68/256
f 235/69/235 254/66/254 226/70/226
f 254/66/254 250/62/250 226/70/226
f 239/71/239 226/70/226 250/62/250
f 251/63/251 239/71/239 250/62/250
f 239/71/239 251/63/251 257/72/257
f 252/64/252 257/72/257 251/63/251
f 257/72/257 252/64/252 237/73/237
f 237/73/237 252/64/252 235/74/235
f 252/64/252 256/75/256 235/74/235
f 256/75/256 252/64/252 253/65/253
f 253/65/253 255/76/255 256/75/256
f 255/76/255 253/65/253 243/55/243
f 243/55/243 241/54/241 255/76/255
f 258/77/258 259/78/259 260/79/260
f 259/78/259 258/77/258 261/80/261
f 259/78/259 261/80/261 262/81/262
f 263/82/263 264/83/264 265/84/265
f 264/83/264 263/82/263 266/85/266
f 267/86/267 266/85/266 263/82/263
f 266/85/266 267/86/267 268/87/268
f 269/88/269 268/87/268 267/86/267
f 268/87/268 269/88/269 270/89/270
f 270/89/270 271/90/271 268/87/268
f 271/90/271 270/89/270 260/91/260
f 260/91/260 272/92/272 271/90/271
f 272/92/272 260/91/260 259/93/259
f 272/92/272 259/93/259 262/81/262
f 273/94/273 272/92/272 262/81/262
f 261/80/261 273/94/273 262/81/262
f 261/80/261 274/95/274 273/94/273
f 274/95/274 261/80/261 258/77/258
f 258/77/258 266/85/266 274/95/274
f 266/85/266 258/77/258 264/83/264
f 260/79/260 264/83/264 258/77/258
f 268/87/268 274/95/274 266/85/266
f 274/95/274 268/87/268 271/90/271
f 271/90/271 273/94/273 274/95/274
f 273/94/273 271/90/271 272/92/272
f 269/88/269 275/96/275 276/97/276
f 277/98/277 276/97/276 275/96/275
f 275/96/275 278/99/278 277/98/277
f 278/99/278 275/96/275 279/100/279
f 280/101/280 278/99/278 279/100/279
f 279/100/279 265/84/265 280/101/280
f 265/84/265 279/100/279 263/82/263
f 279/100/279 267/86/267 263/82/263
f 267/86/267 279/100/279 275/96/275
f 275/96/275 269/88/269 267/86/267
f 276/97/276 277/98/277 281/102/281
f 278/99/278 280/101/280 282/103/282
f 264/83/264 260/79/260 270/104/270
f 270/104/270 265/84/265 264/83/264
f 265/84/265 270/104/270 269/105/269
f 269/105/269 280/101/280 265/84/265
f 280/101/280 269/105/269 276/106/276
f 276/106/276 282/103/282 280/101/280
f 282/103/282 276/106/276 281/107/281
f 283/108/283 282/103/282 281/107/281
f 282/103/282 283/108/283 284/109/284
f 284/109/284 278/99/278 282/103/282
f 278/99/278 284/109/284 285/110/285
f 285/110/285 277/98/277 278/99/278
f 277/98/277 285/110/285 286/111/286
f 286/111/286 281/102/281 277/98/277
f 281/102/281 286/111/286 283/112/283
f 287/113/287 288/114/288 289/115/289
f 289/115/289 290/116/290 291/117/291
f 290/116/290 289/115/289 288/114/288
f 292/118/292 290/116/290 288/114/288
f 287/113/287 292/118/292 288/114/288
f 287/113/287 293/119/293 292/118/292
f 287/113/287 289/120/289 293/119/293
f 291/121/291 293/119/293 289/120/289
f 293/119/293 291/121/291 294/122/294
f 295/123/295 294/122/294 291/121/291
f 294/122/294 295/123/295 296/124/296
f 297/125/297 296/124/296 295/123/295
f 296/124/296 297/125/297 298/126/298
f 298/126/298 299/127/299 296/124/296
f 299/127/299 298/126/298 300/128/300
f 300/128/300 301/129/301 299/127/299
f 301/129/301 300/128/300 302/130/302
f 302/130/302 295/131/295 301/129/301
f 295/131/295 302/130/302 297/132/297
f 291/117/291 301/129/301 295/131/295
f 301/129/301 291/117/291 290/116/290
f 303/133/303 301/129/301 290/116/290
f 301/129/301 303/133/303 299/127/299
f 303/133/303 296/124/296 299/127/299
f 296/124/296 303/133/303 294/122/294
f 292/118/292 294/122/294 303/133/303
f 294/122/294 292/118/292 293/119/293
f 290/116/290 292/118/292 303/133/303
f 304/134/304 305/135/305 306/136/306
f 305/135/305 307/137/307 308/138/308
f 309/139/309 305/135/305 308/138/308
f 305/135/305 309/139/309 306/136/306
f 309/139/309 310/140/310 306/136/306
f 311/141/311 306/136/306 310/140/310
f 306/136/306 311/141/311 304/134/304
f 311/141/311 312/142/312 304/134/304
f 312/142/312 311/141/311 313/143/313
f 307/137/307 314/144/314 200/145/200
f 213/146/213 307/137/307 200/145/200
f 315/147/315 307/137/307 213/146/213
f 307/137/307 315/147/315 308/138/308
f 217/148/217 308/138/308 315/147/315
f 308/138/308 217/148/217 309/139/309
f 217/148/217 198/149/198 309/139/309
f 310/140/310 309/139/309 198/149/198
f 200/150/200 310/140/310 198/149/198
f 310/140/310 200/150/200 314/151/314
f 314/151/314 311/141/311 310/140/310
f 311/141/311 314/151/314 316/152/316
f 316/152/316 313/143/313 311/141/311
f 313/143/313 316/152/316 317/153/317
f 313/143/313 317/153/317 318/154/318
f 312/142/312 313/143/313 318/154/318
f 319/155/319 312/142/312 318/154/318
f 319/155/319 304/134/304 312/142/312
f 304/134/304 319/155/319 320/156/320
f 305/135/305 304/134/304 320/156/320
f 321/157/321 305/135/305 320/156/320
f 307/137/307 305/135/305 321/157/321
f 314/144/314 307/137/307 321/157/321
f 321/157/321 316/158/316 314/144/314
f 316/158/316 321/157/321 320/156/320
f 320/156/320 317/159/317 316/158/316
f 317/159/317 320/156/320 319/155/319
f 317/159/317 319/155/319 318/154/318
f 322/1/322 323/2/323 324/3/324
f 322/1/322 325/4/325 326/5/326
f 323/2/323 322/1/322 326/5/326
f 326/5/326 327/6/327 323/2/323
f 327/6/327 326/5/326 328/7/328
f 328/7/328 329/8/329 327/6/327
f 329/8/329 328/7/328 330/9/330
f 329/8/329 330/9/330 331/10/331
f 330/9/330 332/11/332 331/10/331
f 332/11/332 333/12/333 331/10/331
f 332/11/332 334/13/334 333/12/333
f 327/14/327 333/12/333 334/13/334
f 334/13/334 323/15/323 327/14/327
f 323/15/323 334/13/334 335/16/335
f 335/16/335 324/17/324 323/15/323
f 324/17/324 335/16/335 336/18/336
f 336/18/336 337/19/337 324/17/324
f 337/19/337 336/18/336 338/20/338
f 339/21/339 338/20/338 336/18/336
f 338/20/338 339/21/339 340/22/340
f 322/1/322 340/22/340 339/21/339
f 340/22/340 322/1/322 341/23/341
f 333/12/333 329/24/329 331/10/331
f 333/12/333 327/14/327 329/24/329
f 325/4/325 322/1/322 339/21/339
f 336/18/336 325/4/325 339/21/339
f 325/4/325 336/18/336 335/16/335
f 335/16/335 342/25/342 325/4/325
f 342/25/342 335/16/335 334/13/334
f 334/13/334 332/11/332 342/25/342
f 330/9/330 342/25/342 332/11/332
f 342/25/342 330/9/330 328/7/328
f 328/7/328 325/4/325 342/25/342
f 325/4/325 328/7/328 326/5/326
f 343/26/343 344/27/344 345/28/345
f 343/26/343 346/29/346 344/27/344
f 347/30/347 348/31/348 349/32/349
f 350/33/350 349/32/349 348/31/348
f 351/34/351 350/33/350 348/31/348
f 350/33/350 351/34/351 352/35/352
f 351/34/351 353/36/353 352/35/352
f 346/37/346 352/35/352 353/36/353
f 353/36/353 344/38/344 346/37/346
f 344/38/344 353/36/353 354/39/354
f 344/38/344 354/39/354 345/28/345
f 354/39/354 355/40/355 345/28/345
f 355/40/355 343/26/343 345/28/345
f 355/40/355 356/41/356 343/26/343
f 346/29/346 343/26/343 356/41/356
f 356/41/356 357/42/357 346/29/346
f 357/42/357 356/41/356 358/43/358
f 358/43/358 359/44/359 357/42/357
f 359/44/359 358/43/358 360/45/360
f 360/45/360 361/46/361 359/44/359
f 361/46/361 360/45/360 347/30/347
f 348/31/348 347/30/347 360/45/360
f 360/45/360 351/34/351 348/31/348
f 351/34/351 360/45/360 358/43/358
f 358/43/358 362/47/362 351/34/351
f 362/47/362 358/43/358 356/41/356
f 356/41/356 355/40/355 362/47/362
f 354/39/354 362/47/362 355/40/355
f 362/47/362 354/39/354 353/36/353
f 353/36/353 351/34/351 362/47/362
f 349/32/349 350/33/350 363/48/363
f 350/33/350 357/49/357 359/50/359
f 357/49/357 350/33/350 352/35/352
f 352/35/352 346/37/346 357/49/357
f 364/51/364 365/52/365 366/53/366
f 365/54/365 367/55/367 368/56/368
f 365/54/365 368/56/368 366/53/366
f 368/56/368 369/57/369 366/53/366
f 369/57/369 364/51/364 366/53/366
f 369/57/369 370/58/370 364/51/364
f 370/58/370 369/57/369 371/59/371
f 372/60/372 370/58/370 371/59/371
f 371/59/371 373/61/373 372/60/372
f 373/61/373 374/62/374 372/60/372
f 374/62/374 373/61/373 375/63/375
f 373/61/373 376/64/376 375/63/375
f 376/64/376 373/61/373 377/65/377
f 377/65/377 373/61/373 367/55/367
f 373/61/373 371/59/371 367/55/367
f 371/59/371 368/56/368 367/55/367
f 368/56/368 371/59/371 369/57/369
f 374/62/374 378/66/378 372/60/372
f 370/58/370 372/60/372 378/66/378
f 364/51/364 379/67/379 365/52/365
f 379/67/379 364/51/364 370/58/370
f 370/58/370 380/68/380 379/67/379
f 380/68/380 370/58/370 378/66/378
f 378/66/378 359/69/359 380/68/380
f 359/69/359 378/66/378 350/70/350
f 378/66/378 374/62/374 350/70/350
f 363/71/363 350/70/350 374/62/374
f 375/63/375 363/71/363 374/62/374
f 363/71/363 375/63/375 381/72/381
f 376/64/376 381/72/381 375/63/375
f 381/72/381 376/64/376 361/73/361
f 361/73/361 376/64/376 359/74/359
f 376/64/376 380/75/380 359/74/359
f 380/75/380 376/64/376 377/65/377
f 377/65/377 379/76/379 380/75/380
f 379/76/379 377/65/377 367/55/367
f 367/55/367 365/54/365 379/76/379
f 382/77/382 383/78/383 384/79/384
f 383/78/383 382/77/382 385/80/385
f 383/78/383 385/80/385 386/81/386
f 387/82/387 388/83/388 389/84/389
f 388/83/388 387/82/387 390/85/390
f 391/86/391 390/85/390 387/82/387
f 390/85/390 391/86/391 392/87/392
f 393/88/393 392/87/392 391/86/391
f 392/87/392 393/88/393 394/89/394
f 394/89/394 395/90/395 392/87/392
f 395/90/395 394/89/394 384/91/384
f 384/91/384 396/92/396 395/90/395
f 396/92/396 384/91/384 383/93/383
f 396/92/396 383/93/383 386/81/386
f 397/94/397 396/92/396 386/81/386
f 385/80/385 397/94/397 386/81/386
f 385/80/385 398/95/398 397/94/397
f 398/95/398 385/80/385 382/77/382
f 382/77/382 390/85/390 398/95/398
f 390/85/390 382/77/382 388/83/388
f 384/79/384 388/83/388 382/77/382
f 392/87/392 398/95/398 390/85/390
f 398/95/398 392/87/392 395/90/395
f 395/90/395 397/94/397 398/95/398
f 397/94/397 395/90/395 396/92/396
f 393/88/393 399/96/399 400/97/400
f 401/98/401 400/97/400 399/96/399
f 399/96/399 402/99/402 401/98/401
f 402/99/402 399/96/399 403/100/403
f 404/101/404 402/99/402 403/100/403
f 403/100/403 389/84/389 404/101/404
f 389/84/389 403/100/403 387/82/387
f 403/100/403 391/86/391 387/82/387
f 391/86/391 403/100/403 399/96/399
f 399/96/399 393/88/393 391/86/391
f 400/97/400 401/98/401 405/102/405
f 402/99/402 404/101/404 406/103/406
f 388/83/388 384/79/384 394/104/394
f 394/104/394 389/84/389 388/83/388
f 389/84/389 394/104/394 393/105/393
f 393/105/393 404/101/404 389/84/389
f 404/101/404 393/105/393 400/106/400
f 400/106/400 406/103/406 404/101/404
f 406/103/406 400/106/400 405/107/405
f 407/108/407 406/103/406 405/107/405
f 406/103/406 407/108/407 408/109/408
f 408/109/408 402/99/402 406/103/406
f 402/99/402 408/109/408 409/110/409
f 409/110/409 401/98/401 402/99/402
f 401/98/401 409/110/409 410/111/410
f 410/111/410 405/102/405 401/98/401
f 405/102/405 410/111/410 407/112/407
f 411/113/411 412/114/412 413/115/413
f 413/115/413 414/116/414 415/117/415
f 414/116/414 413/115/413 412/114/412
f 416/118/416 414/116/414 412/114/412
f 411/113/411 416/118/416 412/114/412
f 411/113/411 417/119/417 416/118/416
f 411/113/411 413/120/413 417/119/417
f 415/121/415 417/119/417 413/120/413
f 417/119/417 415/121/415 418/122/418
f 419/123/419 418/122/418 415/121/415
f 418/122/418 419/123/419 420/124/420
f 421/125/421 420/124/420 419/123/419
f 420/124/420 421/125/421 422/126/422
f 422/126/422 423/127/423 420/124/420
f 423/127/423 422/126/422 424/128/424
f 424/128/424 425/129/425 423/127/423
f 425/129/425 424/128/424 426/130/426
f 426/130/426 419/131/419 425/129/425
f 419/131/419 426/130/426 421/132/421
f 415/117/415 425/129/425 419/131/419
f 425/129/425 415/117/415 414/116/414
f 427/133/427 425/129/425 414/116/414
f 425/129/425 427/133/427 423/127/423
f 427/133/427 420/124/420 423/127/423
f 420/124/420 427/133/427 418/122/418
f 416/118/416 418/122/418 427/133/427
f 418/122/418 416/118/416 417/119/417
f 414/116/414 416/118/416 427/133/427
f 428/134/428 429/135/429 430/136/430
f 429/135/429 431/137/431 432/138/432
f 433/139/433 429/135/429 432/138/432
f 429/135/429 433/139/433 430/136/430
f 433/139/433 434/140/434 430/136/430
f 435/141/435 430/136/430 434/140/434
f 430/136/430 435/141/435 428/134/428
f 435/141/435 436/142/436 428/134/428
f 436/142/436 435/141/435 437/143/437
f 431/137/431 438/144/438 324/145/324
f 337/146/337 431/137/431 324/145/324
f 439/147/439 431/137/431 337/146/337
f 431/137/431 439/147/439 432/138/432
f 341/148/341 432/138/432 439/147/439
f 432/138/432 341/148/341 433/139/433
f 341/148/341 322/149/322 433/139/433
f 434/140/434 433/139/433 322/149/322
f 324/150/324 434/140/434 322/149/322
f 434/140/434 324/150/324 438/151/438
f 438/151/438 435/141/435 434/140/434
f 435/141/435 438/151/438 440/152/440
f 440/152/440 437/143/437 435/141/435
f 437/143/437 440/152/440 441/153/441
f 437/143/437 441/153/441 442/154/442
f 436/142/436 437/143/437 442/154/442
f 443/155/443 436/142/436 442/154/442
f 443/155/443 428/134/428 436/142/436
f 428/134/428 443/155/443 444/156/444
f 429/135/429 428/134/428 444/156/444
f 445/157/445 429/135/429 444/156/444
f 431/137/431 429/135/429 445/157/445
f 438/144/438 431/137/431 445/157/445
f 445/157/445 440/158/440 438/144/438
f 440/158/440 445/157/445 444/156/444
f 444/156/444 441/159/441 440/158/440
f 441/159/441 444/156/444 443/155/443
f 441/159/441 443/155/443 442/154/442
f 446/1/446 447/2/447 448/3/448
f 446/1/446 449/4/449 450/5/450
f 447/2/447 446/1/446 450/5/450
f 450/5/450 451/6/451 447/2/447
f 451/6/451 450/5/450 452/7/452
f 452/7/452 453/8/453 451/6/451
f 453/8/453 452/7/452 454/9/454
f 453/8/453 454/9/454 455/10/455
f 454/9/454 456/11/456 455/10/455
f 456/11/456 457/12/457 455/10/455
f 456/11/456 458/13/458 457/12/457
f 451/14/451 457/12/457 458/13/458
f 458/13/458 447/15/447 451/14/451
f 447/15/447 458/13/458 459/16/459
f 459/16/459 448/17/448 447/15/447
f 448/17/448 459/16/459 460/18/460
f 460/18/460 461/19/461 448/17/448
f 461/19/461 460/18/460 462/20/462
f 463/21/463 462/20/462 460/18/460
f 462/20/462 463/21/463 464/22/464
f 446/1/446 464/22/464 463/21/463
f 464/22/464 446/1/446 465/23/465
f 457/12/457 453/24/453 455/10/455
f 457/12/457 451/14/451 453/24/453
f 449/4/449 446/1/446 463/21/463
f 460/18/460 449/4/449 463/21/463
f 449/4/449 460/18/460 459/16/459
f 459/16/459 466/25/466 449/4/449
f 466/25/466 459/16/459 458/13/458
f 458/13/458 456/11/456 466/25/466
f 454/9/454 466/25/466 456/11/456
f 466/25/466 454/9/454 452/7/452
f 452/7/452 449/4/449 466/25/466
f 449/4/449 452/7/452 450/5/450
f 467/26/467 468/27/468 469/28/469
f 467/26/467 470/29/470 468/27/468
f 471/30/471 472/31/472 473/32/473
f 474/33/474 473/32/473 472/31/472
f 475/34/475 474/33/474 472/31/472
f 474/33/474 475/34/475 476/35/476
f 475/34/475 477/36/477 476/35/476
f 470/37/470 476/35/476 477/36/477
f 477/36/477 468/38/468 470/37/470
f 468/38/468 477/36/477 478/39/478
f 468/38/468 478/39/478 469/28/469
f 478/39/478 479/40/479 469/28/469
f 479/40/479 467/26/467 469/28/469
f 479/40/479 480/41/480 467/26/467
f 470/29/470 467/26/467 480/41/480
f 480/41/480 481/42/481 470/29/470
f 481/42/481 480/41/480 482/43/482
f 482/43/482 483/44/483 481/42/481
f 483/44/483 482/43/482 484/45/484
f 484/45/484 485/46/485 483/44/483
f 485/46/485 484/45/484 471/30/471
f 472/31/472 471/30/471 484/45/484
f 484/45/484 475/34/475 472/31/472
f 475/34/475 484/45/484 482/43/482
f 482/43/482 486/47/486 475/34/475
f 486/47/486 482/43/482 480/41/480
f 480/41/480 479/40/479 486/47/486
f 478/39/478 486/47/486 479/40/479
f 486/47/486 478/39/478 477/36/477
f 477/36/477 475/34/475 486/47/486
f 473/32/473 474/33/474 487/48/487
f 474/33/474 481/49/481 483/50/483
f 481/49/481 474/33/474 476/35/476
f 476/35/476 470/37/470 481/49/481
f 488/51/488 489/52/489 490/53/490
f 489/54/489 491/55/491 492/56/492
f 489/54/489 492/56/492 490/53/490
f 492/56/492 493/57/493 490/53/490
f 493/57/493 488/51/488 490/53/490
f 493/57/493 494/58/494 488/51/488
f 494/58/494 493/57/493 495/59/495
f 496/60/496 494/58/494 495/59/495
f 495/59/495 497/61/497 496/60/496
f 497/61/497 498/62/498 496/60/496
f 498/62/498 497/61/497 499/63/499
f 497/61/497 500/64/500 499/63/499
f 500/64/500 497/61/497 501/65/501
f 501/65/501 497/61/497 491/55/491
f 497/61/497 495/59/495 491/55/491
f 495/59/495 492/56/492 491/55/491
f 492/56/492 495/59/495 493/57/493
f 498/62/498 502/66/502 496/60/496
f 494/58/494 496/60/496 502/66/502
f 488/51/488 503/67/503 489/52/489
f 503/67/503 488/51/488 494/58/494
f 494/58/494 504/68/504 503/67/503
f 504/68/504 494/58/494 502/66/502
f 502/66/502 483/69/483 504/68/504
f 483/69/483 502/66/502 474/70/474
f 502/66/502 498/62/498 474/70/474
f 487/71/487 474/70/474 498/62/498
f 499/63/499 487/71/487 498/62/498
f 487/71/487 499/63/499 505/72/505
f 500/64/500 505/72/505 499/63/499
f 505/72/505 500/64/500 485/73/485
f 485/73/485 500/64/500 483/74/483
f 500/64/500 504/75/504 483/74/483
f 504/75/504 500/64/500 501/65/501
f 501/65/501 503/76/503 504/75/504
f 503/76/503 501/65/501 491/55/491
f 491/55/491 489/54/489 503/76/503
f 506/77/506 507/78/507 508/79/508
f 507/78/507 506/77/506 509/80/509
f 507/78/507 509/80/509 510/81/510
f 511/82/511 512/83/512 513/84/513
f 512/83/512 511/82/511 514/85/514
f 515/86/515 514/85/514 511/82/511
f 514/85/514 515/86/515 516/87/516
f 517/88/517 516/87/516 515/86/515
f 516/87/516 517/88/517 518/89/518
f 518/89/518 519/90/519 516/87/516
f 519/90/519 518/89/518 508/91/508
f 508/91/508 520/92/520 519/90/519
f 520/92/520 508/91/508 507/93/507
f 520/92/520 507/93/507 510/81/510
f 521/94/521 520/92/520 510/81/510
f 509/80/509 521/94/521 510/81/510
f 509/80/509 522/95/522 521/94/521
f 522/95/522 509/80/509 506/77/506
f 506/77/506 514/85/514 522/95/522
f 514/85/514 506/77/506 512/83/512
f 508/79/508 512/83/512 506/77/506
f 516/87/516 522/95/522 514/85/514
f 522/95/522 516/87/516 519/90/519
f 519/90/519 521/94/521 522/95/522
f 521/94/521 519/90/519 520/92/520
f 517/88/517 523/96/523 524/97/524
f 525/98/525 524/97/524 523/96/523
f 523/96/523 526/99/526 525/98/525
f 526/99/526 523/96/523 527/100/527
f 528/101/528 526/99/526 527/100/527
f 527/100/527 513/84/513 528/101/528
f 513/84/513 527/100/527 511/82/511
f 527/100/527 515/86/515 511/82/511
f 515/86/515 527/100/527 523/96/523
f 523/96/523 517/88/517 515/86/515
f 524/97/524 525/98/525 529/102/529
f 526/99/526 528/101/528 530/103/530
f 512/83/512 508/79/508 518/104/518
f 518/104/518 513/84/513 512/83/512
f 513/84/513 518/104/518 517/105/517
f 517/105/517 528/101/528 513/84/513
f 528/101/528 517/105/517 524/106/524
f 524/106/524 530/103/530 528/101/528
f 530/103/530 524/106/524 529/107/529
f 531/108/531 530/103/530 529/107/529
f 530/103/530 531/108/531 532/109/532
f 532/109/532 526/99/526 530/103/530
f 526/99/526 532/109/532 533/110/533
f 533/110/533 525/98/525 526/99/526
f 525/98/525 533/110/533 534/111/534
f 534/111/534 529/102/529 525/98/525
f 529/102/529 534/111/534 531/112/531
f 535/113/535 536/114/536 537/115/537
f 537/115/537 538/116/538 539/117/539
f 538/116/538 537/115/537 536/114/536
f 540/118/540 538/116/538 536/114/536
f 535/113/535 540/118/540 536/114/536
f 535/113/535 541/119/541 540/118/540
f 535/113/535 537/120/537 541/119/541
f 539/121/539 541/119/541 537/120/537
f 541/119/541 539/121/539 542/122/542
f 543/123/543 542/122/542 539/121/539
f 542/122/542 543/123/543 544/124/544
f 545/125/545 544/124/544 543/123/543
f 544/124/544 545/125/545 546/126/546
f 546/126/546 547/127/547 544/124/544
f 547/127/547 546/126/546 548/128/548
f 548/128/548 549/129/549 547/127/547
f 549/129/549 548/128/548 550/130/550
f 550/130/550 543/131/543 549/129/549
f 543/131/543 550/130/550 545/132/545
f 539/117/539 549/129/549 543/131/543
f 549/129/549 539/117/539 538/116/538
f 551/133/551 549/129/549 538/116/538
f 549/129/549 551/133/551 547/127/547
f 551/133/551 544/124/544 547/127/547
f 544/124/544 551/133/551 542/122/542
f 540/118/540 542/122/542 551/133/551
f 542/122/542 540/118/540 541/119/541
f 538/116/538 540/118/540 551/133/551
f 552/134/552 553/135/553 554/136/554
f 553/135/553 555/137/555 556/138/556
f 557/139/557 553/135/553 556/138/556
f 553/135/553 557/139/557 554/136/554
f 557/139/557 558/140/558 554/136/554
f 559/141/559 554/136/554 558/140/558
f 554/136/554 559/141/559 552/134/552
f 559/141/559 560/142/560 552/134/552
f 560/142/560 559/141/559 561/143/561
f 555/137/555 562/144/562 448/145/448
f 461/146/461 555/137/555 448/145/448
f 563/147/563 555/137/555 461/146/461
f 555/137/555 563/147/563 556/138/556
f 465/148/465 556/138/556 563/147/563
f 556/138/556 465/148/465 557/139/557
f 465/148/465 446/149/446 557/139/557
f 558/140/558 557/139/557 446/149/446
f 448/150/448 558/140/558 446/149/446
f 558/140/558 448/150/448 562/151/562
f 562/151/562 559/141/559 558/140/558
f 559/141/559 562/151/562 564/152/564
f 564/152/564 561/143/561 559/141/559
f 561/143/561 564/152/564 565/153/565
f 561/143/561 565/153/565 566/154/566
f 560/142/560 561/143/561 566/154/566
f 567/155/567 560/142/560 566/154/566
f 567/155/567 552/134/552 560/142/560
f 552/134/552 567/155/567 568/156/568
f 553/135/553 552/134/552 568/156/568
f 569/157/569 553/135/553 568/156/568
f 555/137/555 553/135/553 569/157/569
f 562/144/562 555/137/555 569/157/569
f 569/157/569 564/158/564 562/144/562
f 564/158/564 569/157/569 568/156/568
f 568/156/568 565/159/565 564/158/564
f 565/159/565 568/156/568 567/155/567
f 565/159/565 567/155/567 566/154/566
f 570/1/570 571/2/571 572/3/572
f 570/1/570 573/4/573 574/5/574
f 571/2/571 570/1/570 574/5/574
f 574/5/574 575/6/575 571/2/571
f 575/6/575 574/5/574 576/7/576
f 576/7/576 577/8/577 575/6/575
f 577/8/577 576/7/576 578/9/578
f 577/8/577 578/9/578 579/10/579
f 578/9/578 580/11/580 579/10/579
f 580/11/580 581/12/581 579/10/579
f 580/11/580 582/13/582 581/12/581
f 575/14/575 581/12/581 582/13/582
f 582/13/582 571/15/571 575/14/575
f 571/15/571 582/13/582 583/16/583
f 583/16/583 572/17/572 571/15/571
f 572/17/572 583/16/583 584/18/584
f 584/18/584 585/19/585 572/17/572
f 585/19/585 584/18/584 586/20/586
f 587/21/587 586/20/586 584/18/584
f 586/20/586 587/21/587 588/22/588
f 570/1/570 588/22/588 587/21/587
f 588/22/588 570/1/570 589/23/589
f 581/12/581 577/24/577 579/10/579
f 581/12/581 575/14/575 577/24/577
f 573/4/573 570/1/570 587/21/587
f 584/18/584 573/4/573 587/21/587
f 573/4/573 584/18/584 583/16/583
f 583/16/583 590/25/590 573/4/573
f 590/25/590 583/16/583 582/13/582
f 582/13/582 580/11/580 590/25/590
f 578/9/578 590/25/590 580/11/580
f 590/25/590 578/9/578 576/7/576
f 576/7/576 573/4/573 590/25/590
f 573/4/573 576/7/576 574/5/574
f 591/26/591 592/27/592 593/28/593
f 591/26/591 594/29/594 592/27/592
f 595/30/595 596/31/596 597/32/597
f 598/33/598 597/32/597 596/31/596
f 599/34/599 598/33/598 596/31/596
f 598/33/598 599/34/599 600/35/600
f 599/34/599 601/36/601 600/35/600
f 594/37/594 600/35/600 601/36/601
f 601/36/601 592/38/592 594/37/594
f 592/38/592 601/36/601 602/39/602
f 592/38/592 602/39/602 593/28/593
f 602/39/602 603/40/603 593/28/593
f 603/40/603 591/26/591 593/28/593
f 603/40/603 604/41/604 591/26/591
f 594/29/594 591/26/591 604/41/604
f 604/41/604 605/42/605 594/29/594
f 605/42/605 604/41/604 606/43/606
f 606/43/606 607/44/607 605/42/605
f 607/44/607 606/43/606 608/45/608
f 608/45/608 609/46/609 607/44/607
f 609/46/609 608/45/608 595/30/595
f 596/31/596 595/30/595 608/45/608
f 608/45/608 599/34/599 596/31/596
f 599/34/599 608/45/608 606/43/606
f 606/43/606 610/47/610 599/34/599
f 610/47/610 606/43/606 604/41/604
f 604/41/604 603/40/603 610/47/610
f 602/39/602 610/47/610 603/40/603
f 610/47/610 602/39/602 601/36/601
f 601/36/601 599/34/599 610/47/610
f 597/32/597 598/33/598 611/48/611
f 598/33/598 605/49/605 607/50/607
f 605/49/605 598/33/598 600/35/600
f 600/35/600 594/37/594 605/49/605
f 612/51/612 613/52/613 614/53/614
f 613/54/613 615/55/615 616/56/616
f 613/54/613 616/56/616 614/53/614
f 616/56/616 617/57/617 614/53/614
f 617/57/617 612/51/612 614/53/614
f 617/57/617 618/58/618 612/51/612
f 618/58/618 617/57/617 619/59/619
f 620/60/620 618/58/618 619/59/619
f 619/59/619 621/61/621 620/60/620
f 621/61/621 622/62/622 620/60/620
f 622/62/622 621/61/621 623/63/623
f 621/61/621 624/64/624 623/63/623
f 624/64/624 621/61/621 625/65/625
f 625/65/625 621/61/621 615/55/615
f 621/61/621 619/59/619 615/55/615
f 619/59/619 616/56/616 615/55/615
f 616/56/616 619/59/619 617/57/617
f 622/62/622 626/66/626 620/60/620
f 618/58/618 620/60/620 626/66/626
f 612/51/612 627/67/627 613/52/613
f 627/67/627 612/51/612 618/58/618
f 618/58/618 628/68/628 627/67/627
f 628/68/628 618/58/618 626/66/626
f 626/66/626 607/69/607 628/68/628
f 607/69/607 626/66/626 598/70/598
f 626/66/626 622/62/622 598/70/598
f 611/71/611 598/70/598 622/62/622
f 623/63/623 611/71/611 622/62/622
f 611/71/611 623/63/623 629/72/629
f 624/64/624 629/72/629 623/63/623
f 629/72/629 624/64/624 609/73/609
f 609/73/609 624/64/624 607/74/607
f 624/64/624 628/75/628 607/74/607
f 628/75/628 624/64/624 625/65/625
f 625/65/625 627/76/627 628/75/628
f 627/76/627 625/65/625 615/55/615
f 615/55/615 613/54/613 627/76/627
f 630/77/630 631/78/631 632/79/632
f 631/78/631 630/77/630 633/80/633
f 631/78/631 633/80/633 634/81/634
f 635/82/635 636/83/636 637/84/637
f 636/83/636 635/82/635 638/85/638
f 639/86/639 638/85/638 635/82/635
f 638/85/638 639/86/639 640/87/640
f 641/88/641 640/87/640 639/86/639
f 640/87/640 641/88/641 642/89/642
f 642/89/642 643/90/643 640/87/640
f 643/90/643 642/89/642 632/91/632
f 632/91/632 644/92/644 643/90/643
f 644/92/644 632/91/632 631/93/631
f 644/92/644 631/93/631 634/81/634
f 645/94/645 644/92/644 634/81/634
f 633/80/633 645/94/645 634/81/634
f 633/80/633 646/95/646 645/94/645
f 646/95/646 633/80/633 630/77/630
f 630/77/630 638/85/638 646/95/646
f 638/85/638 630/77/630 636/83/636
f 632/79/632 636/83/636 630/77/630
f 640/87/640 646/95/646 638/85/638
f 646/95/646 640/87/640 643/90/643
f 643/90/643 645/94/645 646/95/646
f 645/94/645 643/90/643 644/92/644
f 641/88/641 647/96/647 648/97/648
f 649/98/649 648/97/648 647/96/647
f 647/96/647 650/99/650 649/98/649
f 650/99/650 647/96/647 651/100/651
f 652/101/652 650/99/650 651/100/651
f 651/100/651 637/84/637 652/101/652
f 637/84/637 651/100/651 635/82/635
f 651/100/651 639/86/639 635/82/635
f 639/86/639 651/100/651 647/96/647
f 647/96/647 641/88/641 639/86/639
f 648/97/648 649/98/649 653/102/653
f 650/99/650 652/101/652 654/103/654
f 636/83/636 632/79/632 642/104/642
f 642/104/642 637/84/637 636/83/636
f 637/84/637 642/104/642 641/105/641
f 641/105/641 652/101/652 637/84/637
f 652/101/652 641/105/641 648/106/648
f 648/106/648 654/103/654 652/101/652
f 654/103/654 648/106/648 653/107/653
f 655/108/655 654/103/654 653/107/653
f 654/103/654 655/108/655 656/109/656
f 656/109/656 650/99/650 654/103/654
f 650/99/650 656/109/656 657/110/657
f 657/110/657 649/98/649 650/99/650
f 649/98/649 657/110/657 658/111/658
f 658/111/658 653/102/653 649/98/649
f 653/102/653 658/111/658 655/112/655
f 659/113/659 660/114/660 661/115/661
f 661/115/661 662/116/662 663/117/663
f 662/116/662 661/115/661 660/114/660
f 664/118/664 662/116/662 660/114/660
f 659/113/659 664/118/664 660/114/660
f 659/113/659 665/119/665 664/118/664
f 659/113/659 661/120/661 665/119/665
f 663/121/663 665/119/665 661/120/661
f 665/119/665 663/121/663 666/122/666
f 667/123/667 666/122/666 663/121/663
f 666/122/666 667/123/667 668/124/668
f 669/125/669 668/124/668 667/123/667
f 668/124/668 669/125/669 670/126/670
f 670/126/670 671/127/671 668/124/668
f 671/127/671 670/126/670 672/128/672
f 672/128/672 673/129/673 671/127/671
f 673/129/673 672/128/672 674/130/674
f 674/130/674 667/131/667 673/129/673
f 667/131/667 674/130/674 669/132/669
f 663/117/663 673/129/673 667/131/667
f 673/129/673 663/117/663 662/116/662
f 675/133/675 673/129/673 662/116/662
f 673/129/673 675/133/675 671/127/671
f 675/133/675 668/124/668 671/127/671
f 668/124/668 675/133/675 666/122/666
f 664/118/664 666/122/666 675/133/675
f 666/122/666 664/118/664 665/119/665
f 662/116/662 664/118/664 675/133/675
f 676/134/676 677/135/677 678/136/678
f 677/135/677 679/137/679 680/138/680
f 681/139/681 677/135/677 680/138/680
f 677/135/677 681/139/681 678/136/678
f 681/139/681 682/140/682 678/136/678
f 683/141/683 678/136/678 682/140/682
f 678/136/678 683/141/683 676/134/676
f 683/141/683 684/142/684 676/134/676
f 684/142/684 683/141/683 685/143/685
f 679/137/679 686/144/686 572/145/572
f 585/146/585 679/137/679 572/145/572
f 687/147/687 679/137/679 585/146/585
f 679/137/679 687/147/687 680/138/680
f 589/148/589 680/138/680 687/147/687
f 680/138/680 589/148/589 681/139/681
f 589/148/589 570/149/570 681/139/681
f 682/140/682 681/139/681 570/149/570
f 572/150/572 682/140/682 570/149/570
f 682/140/682 572/150/572 686/151/686
f 686/151/686 683/141/683 682/140/682
f 683/141/683 686/151/686 688/152/688
f 688/152/688 685/143/685 683/141/683
f 685/143/685 688/152/688 689/153/689
f 685/143/685 689/153/689 690/154/690
f 684/142/684 685/143/685 690/154/690
f 691/155/691 684/142/684 690/154/690
f 691/155/691 676/134/676 684/142/684
f 676/134/676 691/155/691 692/156/692
f 677/135/677 676/134/676 692/156/692
f 693/157/693 677/135/677 692/156/692
f 679/137/679 677/135/677 693/157/693
f 686/144/686 679/137/679 693/157/693
f 693/157/693 688/158/688 686/144/686
f 688/158/688 693/157/693 692/156/692
f 692/156/692 689/159/689 688/158/688
f 689/159/689 692/156/692 691/155/691
f 689/159/689 691/155/691 690/154/690
