# Blender 4.1.1
# www.blender.org
mtllib 90mm.mtl
o 90mm
v 1.736832 0.000015 -0.345628
v 1.770857 0.000015 -0.000168
v 0.000091 -0.000000 -0.000167
v 1.636065 0.000015 -0.677811
v 1.734689 0.009817 0.344863
v 1.634048 0.009816 0.676637
v 1.636065 0.000015 0.677475
v 1.736832 0.000015 0.345291
v -1.736649 0.000014 0.345292
v -1.770674 0.000015 -0.000167
v -1.635882 0.000014 0.677475
v 0.951988 0.127601 1.424445
v 1.211625 0.127601 1.211365
v 0.000091 0.127609 -0.000167
v 0.655769 0.127601 1.582777
v -1.680354 0.127601 -0.334429
v -1.713276 0.127601 -0.000167
v -1.582854 0.127601 -0.655845
v -1.680354 0.127601 0.334094
v -1.582854 0.127601 0.655510
v 1.680537 0.127602 0.334093
v 1.713459 0.127602 -0.000168
v 1.583036 0.127602 0.655509
v -1.424521 0.127601 0.951728
v -1.211442 0.127601 1.211366
v 1.680536 0.127602 -0.334430
v 1.583036 0.127602 -0.655846
v 0.334352 0.127602 -1.680613
v 0.000091 0.127602 -1.713535
v 0.655768 0.127602 -1.583112
v -0.951804 0.127601 1.424445
v -0.655586 0.127601 1.582777
v 1.424703 0.127602 -0.952064
v 1.211624 0.127602 -1.211702
v -0.334170 0.127602 -1.680613
v -0.655586 0.127602 -1.583112
v -0.334170 0.127601 1.680277
v 0.000092 0.127601 1.713199
v 0.951987 0.127602 -1.424781
v -0.951805 0.127601 -1.424780
v -1.211442 0.127601 -1.211701
v 0.334353 0.127601 1.680277
v 1.472429 0.000015 0.983617
v 1.252212 0.000015 1.251952
v -1.736649 0.000015 -0.345626
v -1.635883 0.000015 -0.677810
v 0.983876 0.000015 1.472170
v 0.677734 0.000015 1.635806
v -1.472247 0.000015 -0.983952
v -1.252029 0.000015 -1.252288
v 0.345551 0.000015 1.736573
v 0.000092 0.000015 1.770597
v -0.983693 0.000015 -1.472505
v -0.677552 0.000015 -1.636142
v 0.983876 0.000015 -1.472506
v 1.252211 0.000015 -1.252288
v 0.677734 0.000015 -1.636142
v -0.345367 0.000014 1.736573
v -0.677551 0.000014 1.635806
v -0.345369 0.000015 -1.736909
v 0.000091 0.000015 -1.770933
v 1.472428 0.000015 -0.983953
v 0.345550 0.000015 -1.736909
v -1.472246 0.000014 0.983617
v -1.252029 0.000014 1.251952
v 1.424704 0.127601 0.951727
v -1.424522 0.127601 -0.952063
v -0.983693 0.000014 1.472170
v -1.633864 0.009816 0.676640
v -1.734506 0.009816 0.344866
v 0.982662 0.009817 -1.470689
v 1.250666 0.009817 -1.250744
v 1.768672 0.009817 -0.000170
v -1.470429 0.009816 0.982404
v 0.676897 0.009817 -1.634123
v 1.734689 0.009817 -0.345203
v -1.250483 0.009816 1.250408
v 0.345123 0.009817 -1.734766
v 1.634046 0.009817 -0.676977
v -0.982478 0.009816 1.470354
v 0.000091 0.009817 -1.768748
v 1.470610 0.009817 -0.982741
v -0.676714 0.009816 1.633788
v -0.344943 0.009817 -1.734765
v 1.216635 0.120115 -1.216713
v 1.430595 0.120115 -0.956004
v -0.344940 0.009816 1.734430
v -0.676716 0.009816 -1.634123
v 0.000093 0.009816 1.768412
v -0.982480 0.009816 -1.470688
v 0.345125 0.009816 1.734430
v -1.250485 0.009816 -1.250742
v 0.676899 0.009816 1.633787
v -1.470430 0.009816 -0.982738
v 0.982664 0.009816 1.470352
v -1.633864 0.009816 -0.676974
v 1.250668 0.009816 1.250406
v -1.734506 0.009816 -0.345200
v 1.470613 0.009816 0.982401
v -1.768489 0.009816 -0.000167
v 1.589584 0.120114 0.658219
v 1.430597 0.120114 0.955663
v -1.687305 0.120114 0.335477
v -1.720363 0.120114 -0.000167
v -1.687305 0.120114 -0.335811
v 1.216637 0.120114 1.216375
v -1.589401 0.120114 -0.658557
v 0.955926 0.120114 1.430336
v -1.430414 0.120114 -0.956000
v 0.658482 0.120114 1.589324
v -1.216454 0.120114 -1.216712
v 0.335737 0.120114 1.687228
v -0.955742 0.120114 -1.430672
v 0.000092 0.120114 1.720286
v -0.658299 0.120114 -1.589659
v -0.335551 0.120114 1.687228
v -0.335554 0.120114 -1.687564
v -0.658296 0.120114 1.589325
v 0.000091 0.120115 -1.720622
v -0.955741 0.120114 1.430338
v 1.589582 0.120115 -0.658559
v 0.335734 0.120115 -1.687564
v -1.216452 0.120114 1.216378
v 1.687487 0.120115 -0.335814
v 0.658480 0.120115 -1.589660
v -1.430413 0.120114 0.955666
v 1.720545 0.120115 -0.000170
v 0.955923 0.120115 -1.430673
v -1.589400 0.120114 0.658222
v 1.687487 0.120114 0.335474
v 1.692518 0.009840 0.513222
v 1.639682 0.127620 0.497196
v 1.646464 0.120096 0.499252
v 1.694608 -0.000009 0.513858
v 1.705208 0.127620 0.167771
v 1.760156 0.009840 0.173181
v 1.762330 -0.000009 0.173397
v 1.712261 0.120096 0.168464
v 1.762330 -0.000008 -0.173734
v 1.760155 0.009840 -0.173521
v 1.705208 0.127620 -0.168108
v 1.712260 0.120096 -0.168804
v 1.694608 -0.000008 -0.514194
v 1.646462 0.120096 -0.499592
v 1.639681 0.127620 -0.497532
v 1.692517 0.009840 -0.513562
v 1.517395 0.120097 -0.811187
v 1.511146 0.127620 -0.807844
v 1.559839 0.009841 -0.833874
v 1.561767 -0.000008 -0.834902
v 1.324542 0.127620 -1.087116
v 1.330019 0.120097 -1.091613
v 1.368911 -0.000008 -1.123530
v 1.367221 0.009841 -1.122145
v 0.811108 0.120097 -1.517473
v 0.807767 0.127620 -1.511223
v 0.834824 -0.000008 -1.561844
v 0.833794 0.009841 -1.559917
v 1.091535 0.120097 -1.330097
v 1.123453 -0.000008 -1.368988
v 1.122066 0.009841 -1.367299
v 1.087040 0.127620 -1.324619
v 0.514117 -0.000008 -1.694685
v 0.499512 0.120096 -1.646540
v 0.513482 0.009840 -1.692595
v 0.497455 0.127620 -1.639759
v 0.173441 0.009840 -1.760232
v 0.168724 0.120096 -1.712337
v 0.168031 0.127620 -1.705285
v 0.173656 -0.000008 -1.762407
v -0.167848 0.127620 -1.705284
v -0.173261 0.009840 -1.760232
v -0.168543 0.120096 -1.712337
v -0.173474 -0.000009 -1.762407
v -0.513935 -0.000009 -1.694685
v -0.497273 0.127620 -1.639758
v -0.513302 0.009840 -1.692593
v -0.499331 0.120096 -1.646539
v -0.834642 -0.000009 -1.561843
v -0.810926 0.120096 -1.517473
v -0.807585 0.127620 -1.511222
v -0.833613 0.009840 -1.559916
v -1.123271 -0.000009 -1.368988
v -1.121885 0.009840 -1.367298
v -1.091354 0.120096 -1.330096
v -1.086857 0.127619 -1.324618
v -1.368729 -0.000009 -1.123529
v -1.324360 0.127619 -1.087116
v -1.329838 0.120096 -1.091612
v -1.367041 0.009840 -1.122142
v -1.561584 -0.000009 -0.834900
v -1.510964 0.127619 -0.807843
v -1.517214 0.120096 -0.811184
v -1.559658 0.009840 -0.833870
v -1.694426 -0.000009 -0.514194
v -1.646281 0.120096 -0.499589
v -1.639499 0.127619 -0.497532
v -1.692335 0.009840 -0.513559
v -1.712078 0.120096 -0.168801
v -1.762148 -0.000009 -0.173733
v -1.759973 0.009840 -0.173518
v -1.705025 0.127619 -0.168107
v -1.762148 -0.000009 0.173398
v -1.705025 0.127619 0.167772
v -1.759973 0.009840 0.173185
v -1.712078 0.120096 0.168467
v -1.694425 -0.000009 0.513858
v -1.692335 0.009840 0.513225
v -1.639499 0.127619 0.497197
v -1.646280 0.120096 0.499255
v -1.559657 0.009840 0.833537
v -1.517213 0.120096 0.810850
v -1.561584 -0.000009 0.834565
v -1.510963 0.127619 0.807508
v -1.367039 0.009840 1.121809
v -1.329837 0.120096 1.091277
v -1.324360 0.127619 1.086781
v -1.368729 -0.000009 1.123194
v -1.086857 0.127619 1.324283
v -1.123270 -0.000009 1.368653
v -1.121883 0.009840 1.366964
v -1.091352 0.120096 1.329762
v -0.810924 0.120096 1.517138
v -0.807584 0.127619 1.510887
v -0.834641 -0.000009 1.561508
v -0.833611 0.009840 1.559581
v -0.513934 -0.000009 1.694349
v -0.513299 0.009840 1.692258
v -0.497273 0.127619 1.639423
v -0.499329 0.120096 1.646204
v -0.167848 0.127619 1.704949
v -0.168541 0.120096 1.712001
v -0.173259 0.009840 1.759896
v -0.173474 -0.000009 1.762071
v 0.173444 0.009840 1.759896
v 0.168031 0.127619 1.704949
v 0.173657 -0.000009 1.762071
v 0.168726 0.120096 1.712001
v 0.499514 0.120096 1.646204
v 0.497456 0.127619 1.639422
v 0.513484 0.009840 1.692258
v 0.514117 -0.000009 1.694349
v 0.833796 0.009840 1.559580
v 0.834825 -0.000009 1.561508
v 0.807767 0.127619 1.510887
v 0.811109 0.120096 1.517136
v 1.091537 0.120096 1.329760
v 1.122068 0.009840 1.366962
v 1.087040 0.127619 1.324283
v 1.123453 -0.000009 1.368652
v 1.324542 0.127619 1.086780
v 1.367224 0.009840 1.121806
v 1.330021 0.120096 1.091275
v 1.368912 -0.000009 1.123194
v 1.517397 0.120096 0.810847
v 1.559841 0.009840 0.833533
v 1.561767 -0.000009 0.834565
v 1.511146 0.127620 0.807507
vn 0.9343 -0.3444 -0.0920
vn -0.0000 -1.0000 -0.0000
vn 0.9208 -0.3443 -0.1832
vn 0.8802 0.3039 0.3646
vn 0.8984 -0.3443 0.2725
vn 0.9117 0.3038 0.2766
vn -0.9342 -0.3446 0.0920
vn -0.9208 -0.3443 0.1832
vn 0.2861 0.8925 0.3486
vn -0.0000 1.0000 -0.0000
vn 0.2504 0.8927 0.3747
vn -0.4495 0.8922 -0.0442
vn -0.4420 0.8927 -0.0879
vn -0.4318 0.8924 0.1310
vn -0.4416 0.8929 0.0878
vn 0.4491 0.8924 0.0442
vn 0.4421 0.8927 0.0880
vn -0.3491 0.8922 0.2866
vn -0.3750 0.8925 0.2505
vn 0.4316 0.8925 -0.1310
vn 0.4420 0.8927 -0.0879
vn 0.0442 0.8922 -0.4496
vn 0.0879 0.8927 -0.4420
vn -0.2129 0.8922 0.3983
vn -0.2505 0.8926 0.3749
vn 0.3488 0.8924 -0.2863
vn 0.3744 0.8929 -0.2501
vn -0.1312 0.8922 -0.4323
vn -0.0878 0.8929 -0.4416
vn -0.0442 0.8922 0.4495
vn -0.0879 0.8927 0.4420
vn 0.2126 0.8925 -0.3978
vn 0.2505 0.8926 -0.3749
vn -0.2863 0.8924 -0.3488
vn -0.2501 0.8929 -0.3744
vn 0.1309 0.8926 0.4314
vn 0.0879 0.8926 0.4422
vn 0.9208 -0.3443 0.1832
vn 0.7256 -0.3446 0.5956
vn 0.7806 -0.3444 0.5216
vn -0.8983 -0.3446 -0.2725
vn -0.9208 -0.3444 -0.1832
vn 0.4425 -0.3446 0.8279
vn 0.5217 -0.3440 0.7807
vn -0.7256 -0.3446 -0.5956
vn -0.7806 -0.3443 -0.5216
vn 0.0920 -0.3446 0.9342
vn 0.1832 -0.3444 0.9208
vn -0.4425 -0.3446 -0.8279
vn -0.5216 -0.3444 -0.7806
vn 0.5955 -0.3446 -0.7257
vn 0.5217 -0.3441 -0.7807
vn -0.2725 -0.3446 0.8983
vn -0.1832 -0.3441 0.9209
vn -0.0920 -0.3446 -0.9342
vn -0.1832 -0.3443 -0.9208
vn 0.8279 -0.3446 -0.4425
vn 0.7807 -0.3441 -0.5217
vn 0.2725 -0.3446 -0.8983
vn 0.1832 -0.3441 -0.9209
vn -0.8280 -0.3442 0.4426
vn -0.7806 -0.3444 0.5216
vn 0.3984 0.8922 0.2129
vn 0.3743 0.8929 0.2502
vn -0.3976 0.8926 -0.2125
vn -0.3749 0.8926 -0.2505
vn -0.5956 -0.3442 0.7258
vn -0.5216 -0.3445 0.7806
vn -0.9344 0.3039 0.1859
vn -0.8984 -0.3443 0.2725
vn -0.9118 0.3036 0.2766
vn 0.6736 0.3041 -0.6736
vn 0.6044 0.3039 -0.7365
vn 0.9343 0.3041 0.1858
vn 0.9342 -0.3446 0.0921
vn 0.9482 0.3036 0.0934
vn -0.8801 0.3041 0.3646
vn -0.8403 0.3036 0.4491
vn 0.5293 0.3041 -0.7921
vn 0.4426 -0.3444 -0.8280
vn 0.4491 0.3036 -0.8403
vn 0.9526 0.3041 -0.0000
vn 0.9482 0.3036 -0.0934
vn -0.7921 0.3041 0.5293
vn -0.7257 -0.3446 0.5955
vn -0.7365 0.3036 0.6044
vn 0.3645 0.3041 -0.8801
vn 0.2766 0.3036 -0.9118
vn 0.9343 0.3041 -0.1859
vn 0.8983 -0.3446 -0.2725
vn 0.9118 0.3036 -0.2766
vn -0.6737 0.3038 0.6737
vn -0.6045 0.3036 0.7365
vn 0.1858 0.3041 -0.9343
vn 0.0920 -0.3444 -0.9343
vn 0.0934 0.3036 -0.9482
vn 0.8801 0.3041 -0.3646
vn 0.8403 0.3036 -0.4491
vn -0.5293 0.3038 0.7922
vn -0.4426 -0.3444 0.8280
vn -0.4491 0.3040 0.8402
vn -0.0000 0.3038 -0.9527
vn -0.0934 0.3039 -0.9481
vn 0.7035 0.5331 -0.4700
vn 0.6540 0.5332 -0.5367
vn -0.3646 0.3041 0.8801
vn -0.2766 0.3036 0.9118
vn -0.1859 0.3041 -0.9343
vn -0.2725 -0.3443 -0.8984
vn -0.2766 0.3036 -0.9118
vn -0.1859 0.3039 0.9344
vn -0.0920 -0.3443 0.9343
vn -0.0934 0.3036 0.9482
vn -0.3646 0.3041 -0.8801
vn -0.4491 0.3036 -0.8403
vn -0.0000 0.3038 0.9527
vn 0.0934 0.3036 0.9482
vn -0.5293 0.3039 -0.7921
vn -0.5955 -0.3446 -0.7257
vn -0.6044 0.3037 -0.7365
vn 0.1859 0.3038 0.9344
vn 0.2725 -0.3443 0.8984
vn 0.2766 0.3040 0.9117
vn -0.6736 0.3041 -0.6736
vn -0.7365 0.3037 -0.6045
vn 0.3646 0.3038 0.8802
vn 0.4491 0.3036 0.8403
vn -0.7921 0.3041 -0.5292
vn -0.8279 -0.3446 -0.4425
vn -0.8403 0.3036 -0.4492
vn 0.5293 0.3038 0.7922
vn 0.5955 -0.3446 0.7257
vn 0.6044 0.3036 0.7365
vn -0.8802 0.3039 -0.3646
vn -0.9118 0.3036 -0.2766
vn 0.6736 0.3041 0.6736
vn 0.7365 0.3039 0.6044
vn -0.9344 0.3038 -0.1859
vn -0.9342 -0.3446 -0.0920
vn -0.9482 0.3036 -0.0934
vn 0.7032 0.5335 0.4699
vn 0.7461 0.5332 0.3988
vn -0.4495 0.8922 0.0443
vn -0.8458 0.5335 -0.0000
vn -0.8419 0.5332 0.0829
vn -0.9481 0.3039 0.0934
vn -0.9526 0.3041 -0.0000
vn 0.8402 0.3040 0.4491
vn 0.7921 0.3039 0.5293
vn -0.8297 0.5332 -0.1651
vn -0.8420 0.5331 -0.0829
vn 0.3488 0.8924 0.2862
vn 0.5982 0.5332 0.5982
vn 0.6540 0.5331 0.5367
vn -0.4318 0.8924 -0.1310
vn -0.7816 0.5332 -0.3237
vn -0.8098 0.5328 -0.2456
vn 0.4699 0.5335 0.7033
vn 0.5369 0.5328 0.6541
vn -0.7463 0.5328 -0.3989
vn 0.2130 0.8922 0.3983
vn 0.3238 0.5331 0.7816
vn 0.3989 0.5328 0.7463
vn -0.3488 0.8924 -0.2862
vn -0.5981 0.5335 -0.5981
vn -0.6542 0.5328 -0.5368
vn 0.1650 0.5335 0.8295
vn 0.2457 0.5328 0.8098
vn -0.4700 0.5332 -0.7034
vn -0.5369 0.5328 -0.6541
vn 0.0442 0.8925 0.4488
vn -0.0000 0.5335 0.8458
vn 0.0830 0.5328 0.8422
vn -0.2126 0.8925 -0.3978
vn -0.3237 0.5335 -0.7814
vn -0.3989 0.5328 -0.7463
vn -0.1650 0.5335 0.8295
vn -0.0829 0.5328 0.8422
vn -0.1650 0.5335 -0.8296
vn -0.2457 0.5328 -0.8098
vn -0.1311 0.8922 0.4323
vn -0.3238 0.5331 0.7816
vn -0.2456 0.5332 0.8096
vn 0.7365 0.3036 -0.6044
vn 0.7921 0.3041 -0.5293
vn -0.0443 0.8922 -0.4495
vn -0.0000 0.5335 -0.8458
vn -0.0829 0.5332 -0.8419
vn -0.4699 0.5335 0.7032
vn -0.3989 0.5328 0.7464
vn 0.3983 0.8922 -0.2130
vn 0.7816 0.5332 -0.3237
vn 0.7463 0.5328 -0.3990
vn 0.1650 0.5335 -0.8295
vn 0.0829 0.5328 -0.8422
vn -0.2861 0.8925 0.3487
vn -0.5981 0.5335 0.5980
vn -0.5368 0.5328 0.6542
vn 0.8295 0.5335 -0.1650
vn 0.8098 0.5328 -0.2457
vn 0.1723 0.8929 -0.4160
vn 0.2457 0.5328 -0.8098
vn 0.1309 0.8925 -0.4317
vn -0.7034 0.5332 0.4700
vn -0.6540 0.5332 0.5367
vn 0.4489 0.8925 -0.0442
vn 0.8458 0.5335 -0.0000
vn 0.8419 0.5333 -0.0829
vn 0.4701 0.5330 -0.7035
vn 0.3988 0.5332 -0.7461
vn -0.3983 0.8922 0.2130
vn -0.7814 0.5335 0.3236
vn -0.7461 0.5332 0.3988
vn 0.8296 0.5335 0.1650
vn 0.8419 0.5332 0.0829
vn 0.3184 0.8929 -0.3184
vn 0.5369 0.5328 -0.6542
vn 0.2861 0.8925 -0.3487
vn -0.8296 0.5335 0.1650
vn -0.8098 0.5328 0.2457
vn 0.4317 0.8925 0.1309
vn 0.7814 0.5335 0.3237
vn 0.8098 0.5328 0.2456
vn 0.7257 -0.3446 -0.5955
vn 0.8280 -0.3444 0.4426
vn -0.9390 -0.3440 -0.0000
vn 0.5981 0.5335 -0.5981
vn 0.4160 0.8929 -0.1723
vn 0.6639 -0.3444 -0.6638
vn 0.3593 -0.3443 -0.8674
vn -0.0000 -0.3441 -0.9390
vn -0.6639 -0.3443 -0.6639
vn -0.1723 0.8929 -0.4160
vn -0.3183 0.8929 -0.3184
vn -0.8674 -0.3443 -0.3593
vn -0.4163 0.8927 -0.1725
vn -0.4502 0.8929 -0.0000
vn -0.8675 -0.3441 0.3593
vn -0.4166 0.8926 0.1725
vn -0.6639 -0.3443 0.6639
vn -0.3184 0.8929 0.3183
vn -0.3593 -0.3443 0.8674
vn -0.1725 0.8927 0.4163
vn -0.0000 -0.3440 0.9390
vn -0.0000 0.8929 0.4502
vn 0.3593 -0.3440 0.8675
vn 0.1725 0.8926 0.4166
vn 0.6640 -0.3441 0.6639
vn 0.3186 0.8927 0.3187
vn 0.8675 -0.3441 0.3593
vn 0.4164 0.8927 0.1725
vn 0.9389 -0.3443 -0.0000
vn 0.4509 0.8926 -0.0000
vn 0.8675 -0.3441 -0.3593
vn -0.3593 -0.3440 -0.8675
vn -0.0000 0.8926 -0.4509
vn 0.3236 0.5335 -0.7814
vn -0.7035 0.5331 -0.4701
vt 0.500004 0.500000
vt 0.500002 0.500000
vt 0.500004 0.500001
vt 0.499996 0.499998
vt 0.499996 0.499999
vt 0.500001 0.500000
vt 0.500001 0.499999
vt 0.499997 0.499997
vt 0.499998 0.500000
vt 0.499997 0.499996
vt 0.499999 0.500001
vt 0.499999 0.499999
vt 0.499999 0.499998
vt 0.499996 0.500001
vt 0.499997 0.500004
vt 0.499998 0.499996
vt 0.499999 0.499997
vt 0.499996 0.500002
vt 0.499998 0.500004
vt 0.499997 0.500003
vt 0.499999 0.500003
vt 0.500004 0.499999
vt 0.500004 0.499997
vt 0.500001 0.500001
vt 0.500003 0.499996
vt 0.500001 0.500003
vt 0.500002 0.500004
vt 0.500004 0.500003
vt 0.500002 0.499996
vt 0.500004 0.500002
vt 0.500003 0.500004
vt 0.500001 0.499998
vt 0.499999 0.500002
vt 0.500001 0.499997
vt 0.499996 0.500003
vt 0.499996 0.500000
vt 0.499996 0.499997
vt 0.499999 0.500000
vt 0.500001 0.500002
s 1
usemtl None.007
f 139/1/1 3/2/2 1/3/3
f 6/4/4 134/5/5 131/5/6
f 203/6/7 3/2/2 9/7/8
f 249/8/9 14/9/10 12/10/11
f 202/11/12 14/9/10 16/11/13
f 209/12/14 14/9/10 19/12/15
f 135/5/16 14/9/10 21/5/17
f 217/13/18 14/9/10 24/13/19
f 145/14/20 14/9/10 26/14/21
f 169/15/22 14/9/10 28/15/23
f 224/16/24 14/9/10 31/17/25
f 151/18/26 14/9/10 33/18/27
f 176/19/28 14/9/10 35/19/29
f 231/16/30 14/9/10 37/16/31
f 156/15/32 14/9/10 39/20/33
f 186/21/34 14/9/10 40/19/35
f 240/10/36 14/9/10 42/10/37
f 134/5/5 3/2/2 8/22/38
f 254/23/39 3/2/2 43/23/40
f 195/24/41 3/2/2 45/24/42
f 244/25/43 3/2/2 47/25/44
f 187/26/45 3/2/2 49/26/46
f 237/25/47 3/2/2 51/25/48
f 179/27/49 3/2/2 53/27/50
f 160/28/51 3/2/2 55/28/52
f 227/29/53 3/2/2 58/29/54
f 174/27/55 3/2/2 60/27/56
f 150/30/57 3/2/2 62/30/58
f 163/31/59 3/2/2 63/31/60
f 213/32/61 3/2/2 64/32/62
f 258/4/63 14/9/10 66/4/64
f 192/33/65 14/9/10 67/33/66
f 220/34/67 3/2/2 68/34/68
f 70/12/69 207/12/70 208/12/71
f 72/35/72 160/28/51 161/35/73
f 5/5/74 137/5/75 136/5/76
f 69/12/77 213/32/61 211/13/78
f 71/20/79 157/15/80 158/15/81
f 73/36/82 139/1/1 140/36/83
f 74/13/84 218/17/85 215/17/86
f 75/15/87 163/31/59 165/15/88
f 76/14/89 143/14/90 146/14/91
f 77/17/92 220/34/67 221/17/93
f 78/15/94 170/15/95 167/15/96
f 79/14/97 150/30/57 149/18/98
f 80/17/99 225/16/100 226/16/101
f 81/15/102 174/27/55 172/19/103
f 151/18/26 86/18/104 152/18/105
f 83/16/106 227/29/53 228/16/107
f 84/19/108 175/19/109 177/19/110
f 87/16/111 234/16/112 233/16/113
f 88/19/114 179/27/49 182/19/115
f 89/16/116 237/25/47 235/10/117
f 90/19/118 183/21/119 184/21/120
f 91/10/121 242/10/122 241/10/123
f 92/21/124 187/26/45 190/21/125
f 93/10/126 244/25/43 243/10/127
f 94/21/128 191/33/129 194/33/130
f 95/10/131 250/8/132 248/8/133
f 96/33/134 195/24/41 198/11/135
f 97/37/136 254/23/39 252/37/137
f 98/11/138 200/11/139 201/11/140
f 258/4/63 102/4/141 255/4/142
f 204/38/143 104/38/144 206/38/145
f 205/38/146 104/38/144 100/38/147
f 256/4/148 102/4/141 99/37/149
f 202/11/12 105/11/150 199/11/151
f 251/37/152 106/37/153 253/37/154
f 197/11/155 107/33/156 196/11/157
f 249/8/9 108/10/158 247/8/159
f 67/33/66 193/33/160 192/33/65
f 245/10/161 110/10/162 246/10/163
f 188/21/164 111/21/165 189/21/166
f 240/10/36 112/10/167 239/10/168
f 186/21/34 113/19/169 185/21/170
f 236/10/171 114/16/172 238/10/173
f 181/19/174 115/19/175 180/19/176
f 231/16/30 116/16/177 232/16/178
f 176/19/28 117/19/179 178/19/180
f 229/16/181 118/16/182 230/16/183
f 154/35/184 86/18/104 82/18/185
f 171/19/186 119/15/187 173/19/188
f 224/16/24 120/17/189 223/16/190
f 148/18/191 121/14/192 147/18/193
f 169/15/22 122/15/194 168/15/195
f 219/17/196 123/17/197 222/17/198
f 145/14/20 124/14/199 144/14/200
f 30/15/201 164/15/202 166/15/203
f 217/13/18 126/13/204 216/13/205
f 141/36/206 127/36/207 142/36/208
f 156/15/32 128/20/209 155/15/210
f 214/13/211 129/12/212 212/13/213
f 135/5/16 130/5/214 138/5/215
f 34/35/216 159/35/217 162/35/218
f 209/12/14 103/12/219 210/12/220
f 132/5/221 101/4/222 133/5/223
f 153/35/224 82/18/185 62/30/58
f 257/4/225 99/37/149 43/23/40
f 203/6/7 100/38/147 10/6/226
f 105/11/150 201/11/140 199/11/151
f 106/37/153 252/37/137 253/37/154
f 107/33/156 198/11/135 196/11/157
f 108/10/158 248/8/133 247/8/159
f 193/33/160 94/21/128 194/33/130
f 110/10/162 243/10/127 246/10/163
f 189/21/166 92/21/124 190/21/125
f 112/10/167 241/10/123 239/10/168
f 113/19/169 184/21/120 185/21/170
f 238/10/173 89/16/116 235/10/117
f 180/19/176 88/19/114 182/19/115
f 116/16/177 233/16/113 232/16/178
f 117/19/179 177/19/110 178/19/180
f 118/16/182 228/16/107 230/16/183
f 119/15/187 172/19/103 173/19/188
f 120/17/189 226/16/101 223/16/190
f 121/14/192 149/18/98 147/18/193
f 122/15/194 167/15/96 168/15/195
f 123/17/197 221/17/93 222/17/198
f 124/14/199 146/14/91 144/14/200
f 164/15/202 75/15/87 165/15/88
f 126/13/204 215/17/86 216/13/205
f 127/36/207 140/36/83 142/36/208
f 128/20/209 158/15/81 155/15/210
f 129/12/212 211/13/78 212/13/213
f 138/5/215 5/5/74 136/5/76
f 85/35/227 161/35/73 159/35/217
f 103/12/219 208/12/71 210/12/220
f 101/4/222 131/5/6 133/5/223
f 148/18/191 14/9/10 27/14/228
f 153/35/224 3/2/2 56/28/229
f 157/15/80 3/2/2 57/31/230
f 162/35/218 14/9/10 34/35/216
f 166/15/203 14/9/10 30/15/201
f 170/15/95 3/2/2 61/31/231
f 183/21/119 3/2/2 50/26/232
f 181/19/174 14/9/10 36/19/233
f 188/21/164 14/9/10 41/21/234
f 191/33/129 3/2/2 46/39/235
f 197/11/155 14/9/10 18/33/236
f 200/11/139 3/2/2 10/6/226
f 204/38/143 14/9/10 17/38/237
f 207/12/70 3/2/2 11/7/238
f 214/13/211 14/9/10 20/12/239
f 218/17/85 3/2/2 65/34/240
f 219/17/196 14/9/10 25/17/241
f 225/16/100 3/2/2 59/29/242
f 229/16/181 14/9/10 32/16/243
f 234/16/112 3/2/2 52/29/244
f 236/10/171 14/9/10 38/16/245
f 242/10/122 3/2/2 48/25/246
f 245/10/161 14/9/10 15/10/247
f 250/8/132 3/2/2 44/23/248
f 251/37/152 14/9/10 13/37/249
f 257/4/225 3/2/2 7/4/250
f 132/5/221 14/9/10 23/4/251
f 137/5/75 3/2/2 2/1/252
f 141/36/206 14/9/10 22/36/253
f 143/14/90 3/2/2 4/3/254
f 175/19/109 3/2/2 54/27/255
f 171/19/186 14/9/10 29/15/256
f 130/5/214 131/5/6 5/5/74
f 21/5/17 133/5/223 130/5/214
f 131/5/6 8/22/38 5/5/74
f 127/36/207 136/5/76 73/36/82
f 22/36/253 138/5/215 127/36/207
f 136/5/76 2/1/252 73/36/82
f 124/14/199 140/36/83 76/14/89
f 26/14/21 142/36/208 124/14/199
f 140/36/83 1/3/3 76/14/89
f 144/14/200 79/14/97 121/14/192
f 27/14/228 144/14/200 121/14/192
f 146/14/91 4/3/254 79/14/97
f 86/18/104 149/18/98 82/18/185
f 33/18/27 147/18/193 86/18/104
f 149/18/98 62/30/58 82/18/185
f 56/28/229 154/35/184 153/35/224
f 85/35/227 154/35/184 72/35/72
f 34/35/216 152/18/105 85/35/227
f 125/15/257 158/15/81 75/15/87
f 30/15/201 155/15/210 125/15/257
f 75/15/87 157/15/80 57/31/230
f 128/20/209 161/35/73 71/20/79
f 39/20/33 159/35/217 128/20/209
f 71/20/79 160/28/51 55/28/52
f 122/15/194 165/15/88 78/15/94
f 28/15/23 164/15/202 122/15/194
f 165/15/88 63/31/60 78/15/94
f 119/15/187 167/15/96 81/15/102
f 29/15/256 168/15/195 119/15/187
f 167/15/96 61/31/231 81/15/102
f 117/19/179 172/19/103 84/19/108
f 35/19/29 173/19/188 117/19/179
f 172/19/103 60/27/56 84/19/108
f 115/19/175 177/19/110 88/19/114
f 36/19/233 178/19/180 115/19/175
f 177/19/110 54/27/255 88/19/114
f 113/19/169 182/19/115 90/19/118
f 40/19/35 180/19/176 113/19/169
f 182/19/115 53/27/50 90/19/118
f 111/21/165 184/21/120 92/21/124
f 41/21/234 185/21/170 111/21/165
f 184/21/120 50/26/232 92/21/124
f 109/33/258 190/21/125 94/21/128
f 67/33/66 189/21/166 109/33/258
f 190/21/125 49/26/46 94/21/128
f 107/33/156 194/33/130 96/33/134
f 18/33/236 193/33/160 107/33/156
f 96/33/134 191/33/129 46/39/235
f 196/11/157 98/11/138 105/11/150
f 16/11/13 196/11/157 105/11/150
f 198/11/135 45/24/42 98/11/138
f 104/38/144 201/11/140 100/38/147
f 17/38/237 199/11/151 104/38/144
f 201/11/140 10/6/226 100/38/147
f 9/7/8 205/38/146 203/6/7
f 103/12/219 205/38/146 70/12/69
f 19/12/15 206/38/145 103/12/219
f 129/12/212 208/12/71 69/12/77
f 20/12/239 210/12/220 129/12/212
f 208/12/71 11/7/238 69/12/77
f 126/13/204 211/13/78 74/13/84
f 24/13/19 212/13/213 126/13/204
f 211/13/78 64/32/62 74/13/84
f 123/17/197 215/17/86 77/17/92
f 25/17/241 216/13/205 123/17/197
f 215/17/86 65/34/240 77/17/92
f 120/17/189 221/17/93 80/17/99
f 31/17/25 222/17/198 120/17/189
f 221/17/93 68/34/68 80/17/99
f 223/16/190 83/16/106 118/16/182
f 32/16/243 223/16/190 118/16/182
f 226/16/101 59/29/242 83/16/106
f 116/16/177 228/16/107 87/16/111
f 37/16/31 230/16/183 116/16/177
f 228/16/107 58/29/54 87/16/111
f 114/16/172 233/16/113 89/16/116
f 38/16/245 232/16/178 114/16/172
f 233/16/113 52/29/244 89/16/116
f 112/10/167 235/10/117 91/10/121
f 42/10/37 238/10/173 112/10/167
f 235/10/117 51/25/48 91/10/121
f 110/10/162 241/10/123 93/10/126
f 15/10/247 239/10/168 110/10/162
f 241/10/123 48/25/246 93/10/126
f 108/10/158 243/10/127 95/10/131
f 12/10/11 246/10/163 108/10/158
f 243/10/127 47/25/44 95/10/131
f 106/37/153 248/8/133 97/37/136
f 13/37/249 247/8/159 106/37/153
f 248/8/133 44/23/248 97/37/136
f 102/4/141 252/37/137 99/37/149
f 66/4/64 253/37/154 102/4/141
f 252/37/137 43/23/40 99/37/149
f 7/4/250 256/4/148 257/4/225
f 101/4/222 256/4/148 6/4/4
f 23/4/251 255/4/142 101/4/222
f 139/1/1 2/1/252 3/2/2
f 6/4/4 7/4/250 134/5/5
f 203/6/7 10/6/226 3/2/2
f 249/8/9 13/37/249 14/9/10
f 202/11/12 17/38/237 14/9/10
f 209/12/14 20/12/239 14/9/10
f 135/5/16 22/36/253 14/9/10
f 217/13/18 25/17/241 14/9/10
f 145/14/20 27/14/228 14/9/10
f 169/15/22 29/15/256 14/9/10
f 224/16/24 32/16/243 14/9/10
f 151/18/26 34/35/216 14/9/10
f 176/19/28 36/19/233 14/9/10
f 231/16/30 38/16/245 14/9/10
f 156/15/32 30/15/201 14/9/10
f 186/21/34 41/21/234 14/9/10
f 240/10/36 15/10/247 14/9/10
f 134/5/5 7/4/250 3/2/2
f 254/23/39 44/23/248 3/2/2
f 195/24/41 46/39/235 3/2/2
f 244/25/43 48/25/246 3/2/2
f 187/26/45 50/26/232 3/2/2
f 237/25/47 52/29/244 3/2/2
f 179/27/49 54/27/255 3/2/2
f 160/28/51 56/28/229 3/2/2
f 227/29/53 59/29/242 3/2/2
f 174/27/55 61/31/231 3/2/2
f 150/30/57 4/3/254 3/2/2
f 163/31/59 57/31/230 3/2/2
f 213/32/61 11/7/238 3/2/2
f 258/4/63 23/4/251 14/9/10
f 192/33/65 18/33/236 14/9/10
f 220/34/67 65/34/240 3/2/2
f 70/12/69 9/7/8 207/12/70
f 72/35/72 56/28/229 160/28/51
f 5/5/74 8/22/38 137/5/75
f 69/12/77 11/7/238 213/32/61
f 71/20/79 55/28/52 157/15/80
f 73/36/82 2/1/252 139/1/1
f 74/13/84 64/32/62 218/17/85
f 75/15/87 57/31/230 163/31/59
f 76/14/89 1/3/3 143/14/90
f 77/17/92 65/34/240 220/34/67
f 78/15/94 63/31/60 170/15/95
f 79/14/97 4/3/254 150/30/57
f 80/17/99 68/34/68 225/16/100
f 81/15/102 61/31/231 174/27/55
f 151/18/26 33/18/27 86/18/104
f 83/16/106 59/29/242 227/29/53
f 84/19/108 60/27/56 175/19/109
f 87/16/111 58/29/54 234/16/112
f 88/19/114 54/27/255 179/27/49
f 89/16/116 52/29/244 237/25/47
f 90/19/118 53/27/50 183/21/119
f 91/10/121 51/25/48 242/10/122
f 92/21/124 50/26/232 187/26/45
f 93/10/126 48/25/246 244/25/43
f 94/21/128 49/26/46 191/33/129
f 95/10/131 47/25/44 250/8/132
f 96/33/134 46/39/235 195/24/41
f 97/37/136 44/23/248 254/23/39
f 98/11/138 45/24/42 200/11/139
f 258/4/63 66/4/64 102/4/141
f 204/38/143 17/38/237 104/38/144
f 205/38/146 206/38/145 104/38/144
f 256/4/148 255/4/142 102/4/141
f 202/11/12 16/11/13 105/11/150
f 251/37/152 13/37/249 106/37/153
f 197/11/155 18/33/236 107/33/156
f 249/8/9 12/10/11 108/10/158
f 67/33/66 109/33/258 193/33/160
f 245/10/161 15/10/247 110/10/162
f 188/21/164 41/21/234 111/21/165
f 240/10/36 42/10/37 112/10/167
f 186/21/34 40/19/35 113/19/169
f 236/10/171 38/16/245 114/16/172
f 181/19/174 36/19/233 115/19/175
f 231/16/30 37/16/31 116/16/177
f 176/19/28 35/19/29 117/19/179
f 229/16/181 32/16/243 118/16/182
f 154/35/184 152/18/105 86/18/104
f 171/19/186 29/15/256 119/15/187
f 224/16/24 31/17/25 120/17/189
f 148/18/191 27/14/228 121/14/192
f 169/15/22 28/15/23 122/15/194
f 219/17/196 25/17/241 123/17/197
f 145/14/20 26/14/21 124/14/199
f 30/15/201 125/15/257 164/15/202
f 217/13/18 24/13/19 126/13/204
f 141/36/206 22/36/253 127/36/207
f 156/15/32 39/20/33 128/20/209
f 214/13/211 20/12/239 129/12/212
f 135/5/16 21/5/17 130/5/214
f 34/35/216 85/35/227 159/35/217
f 209/12/14 19/12/15 103/12/219
f 132/5/221 23/4/251 101/4/222
f 153/35/224 154/35/184 82/18/185
f 257/4/225 256/4/148 99/37/149
f 203/6/7 205/38/146 100/38/147
f 105/11/150 98/11/138 201/11/140
f 106/37/153 97/37/136 252/37/137
f 107/33/156 96/33/134 198/11/135
f 108/10/158 95/10/131 248/8/133
f 193/33/160 109/33/258 94/21/128
f 110/10/162 93/10/126 243/10/127
f 189/21/166 111/21/165 92/21/124
f 112/10/167 91/10/121 241/10/123
f 113/19/169 90/19/118 184/21/120
f 238/10/173 114/16/172 89/16/116
f 180/19/176 115/19/175 88/19/114
f 116/16/177 87/16/111 233/16/113
f 117/19/179 84/19/108 177/19/110
f 118/16/182 83/16/106 228/16/107
f 119/15/187 81/15/102 172/19/103
f 120/17/189 80/17/99 226/16/101
f 121/14/192 79/14/97 149/18/98
f 122/15/194 78/15/94 167/15/96
f 123/17/197 77/17/92 221/17/93
f 124/14/199 76/14/89 146/14/91
f 164/15/202 125/15/257 75/15/87
f 126/13/204 74/13/84 215/17/86
f 127/36/207 73/36/82 140/36/83
f 128/20/209 71/20/79 158/15/81
f 129/12/212 69/12/77 211/13/78
f 138/5/215 130/5/214 5/5/74
f 85/35/227 72/35/72 161/35/73
f 103/12/219 70/12/69 208/12/71
f 101/4/222 6/4/4 131/5/6
f 148/18/191 33/18/27 14/9/10
f 153/35/224 62/30/58 3/2/2
f 157/15/80 55/28/52 3/2/2
f 162/35/218 39/20/33 14/9/10
f 166/15/203 28/15/23 14/9/10
f 170/15/95 63/31/60 3/2/2
f 183/21/119 53/27/50 3/2/2
f 181/19/174 40/19/35 14/9/10
f 188/21/164 67/33/66 14/9/10
f 191/33/129 49/26/46 3/2/2
f 197/11/155 16/11/13 14/9/10
f 200/11/139 45/24/42 3/2/2
f 204/38/143 19/12/15 14/9/10
f 207/12/70 9/7/8 3/2/2
f 214/13/211 24/13/19 14/9/10
f 218/17/85 64/32/62 3/2/2
f 219/17/196 31/17/25 14/9/10
f 225/16/100 68/34/68 3/2/2
f 229/16/181 37/16/31 14/9/10
f 234/16/112 58/29/54 3/2/2
f 236/10/171 42/10/37 14/9/10
f 242/10/122 51/25/48 3/2/2
f 245/10/161 12/10/11 14/9/10
f 250/8/132 47/25/44 3/2/2
f 251/37/152 66/4/64 14/9/10
f 257/4/225 43/23/40 3/2/2
f 132/5/221 21/5/17 14/9/10
f 137/5/75 8/22/38 3/2/2
f 141/36/206 26/14/21 14/9/10
f 143/14/90 1/3/3 3/2/2
f 175/19/109 60/27/56 3/2/2
f 171/19/186 35/19/29 14/9/10
f 130/5/214 133/5/223 131/5/6
f 21/5/17 132/5/221 133/5/223
f 131/5/6 134/5/5 8/22/38
f 127/36/207 138/5/215 136/5/76
f 22/36/253 135/5/16 138/5/215
f 136/5/76 137/5/75 2/1/252
f 124/14/199 142/36/208 140/36/83
f 26/14/21 141/36/206 142/36/208
f 140/36/83 139/1/1 1/3/3
f 144/14/200 146/14/91 79/14/97
f 27/14/228 145/14/20 144/14/200
f 146/14/91 143/14/90 4/3/254
f 86/18/104 147/18/193 149/18/98
f 33/18/27 148/18/191 147/18/193
f 149/18/98 150/30/57 62/30/58
f 56/28/229 72/35/72 154/35/184
f 85/35/227 152/18/105 154/35/184
f 34/35/216 151/18/26 152/18/105
f 125/15/257 155/15/210 158/15/81
f 30/15/201 156/15/32 155/15/210
f 75/15/87 158/15/81 157/15/80
f 128/20/209 159/35/217 161/35/73
f 39/20/33 162/35/218 159/35/217
f 71/20/79 161/35/73 160/28/51
f 122/15/194 164/15/202 165/15/88
f 28/15/23 166/15/203 164/15/202
f 165/15/88 163/31/59 63/31/60
f 119/15/187 168/15/195 167/15/96
f 29/15/256 169/15/22 168/15/195
f 167/15/96 170/15/95 61/31/231
f 117/19/179 173/19/188 172/19/103
f 35/19/29 171/19/186 173/19/188
f 172/19/103 174/27/55 60/27/56
f 115/19/175 178/19/180 177/19/110
f 36/19/233 176/19/28 178/19/180
f 177/19/110 175/19/109 54/27/255
f 113/19/169 180/19/176 182/19/115
f 40/19/35 181/19/174 180/19/176
f 182/19/115 179/27/49 53/27/50
f 111/21/165 185/21/170 184/21/120
f 41/21/234 186/21/34 185/21/170
f 184/21/120 183/21/119 50/26/232
f 109/33/258 189/21/166 190/21/125
f 67/33/66 188/21/164 189/21/166
f 190/21/125 187/26/45 49/26/46
f 107/33/156 193/33/160 194/33/130
f 18/33/236 192/33/65 193/33/160
f 96/33/134 194/33/130 191/33/129
f 196/11/157 198/11/135 98/11/138
f 16/11/13 197/11/155 196/11/157
f 198/11/135 195/24/41 45/24/42
f 104/38/144 199/11/151 201/11/140
f 17/38/237 202/11/12 199/11/151
f 201/11/140 200/11/139 10/6/226
f 9/7/8 70/12/69 205/38/146
f 103/12/219 206/38/145 205/38/146
f 19/12/15 204/38/143 206/38/145
f 129/12/212 210/12/220 208/12/71
f 20/12/239 209/12/14 210/12/220
f 208/12/71 207/12/70 11/7/238
f 126/13/204 212/13/213 211/13/78
f 24/13/19 214/13/211 212/13/213
f 211/13/78 213/32/61 64/32/62
f 123/17/197 216/13/205 215/17/86
f 25/17/241 217/13/18 216/13/205
f 215/17/86 218/17/85 65/34/240
f 120/17/189 222/17/198 221/17/93
f 31/17/25 219/17/196 222/17/198
f 221/17/93 220/34/67 68/34/68
f 223/16/190 226/16/101 83/16/106
f 32/16/243 224/16/24 223/16/190
f 226/16/101 225/16/100 59/29/242
f 116/16/177 230/16/183 228/16/107
f 37/16/31 229/16/181 230/16/183
f 228/16/107 227/29/53 58/29/54
f 114/16/172 232/16/178 233/16/113
f 38/16/245 231/16/30 232/16/178
f 233/16/113 234/16/112 52/29/244
f 112/10/167 238/10/173 235/10/117
f 42/10/37 236/10/171 238/10/173
f 235/10/117 237/25/47 51/25/48
f 110/10/162 239/10/168 241/10/123
f 15/10/247 240/10/36 239/10/168
f 241/10/123 242/10/122 48/25/246
f 108/10/158 246/10/163 243/10/127
f 12/10/11 245/10/161 246/10/163
f 243/10/127 244/25/43 47/25/44
f 106/37/153 247/8/159 248/8/133
f 13/37/249 249/8/9 247/8/159
f 248/8/133 250/8/132 44/23/248
f 102/4/141 253/37/154 252/37/137
f 66/4/64 251/37/152 253/37/154
f 252/37/137 254/23/39 43/23/40
f 7/4/250 6/4/4 256/4/148
f 101/4/222 255/4/142 256/4/148
f 23/4/251 258/4/63 255/4/142
