# Blender 5.0.1
# www.blender.org
mtllib tongue.mtl
o Jabberslythe
v -1.110131 3.245518 1.454382
v -1.074119 3.315454 1.457530
v -1.087878 3.276827 1.481398
v -1.090143 3.212182 1.504155
v -1.079149 3.154275 1.548751
v -1.160922 3.213570 1.456873
v -1.060880 3.240354 1.539030
v -1.068066 3.266193 1.515787
v -1.063155 3.213639 1.569165
v -1.057534 3.186013 1.592669
v -1.070758 3.265413 1.581319
v -1.075890 3.228821 1.607372
v -1.160815 3.324983 1.419217
v -1.096136 3.375244 1.382841
v -1.172051 3.282513 1.437227
v -1.202656 3.308504 1.440683
v -1.174943 3.146214 1.525867
v -1.195513 3.184743 1.476248
v -1.271598 3.117191 1.473267
v -1.245144 3.190643 1.473139
v -1.293884 3.153908 1.463833
v -1.205310 3.247302 1.452643
v -1.231083 3.272734 1.467415
v -1.275769 3.220418 1.496272
v -1.272002 3.253958 1.502509
v -1.050915 3.040231 1.629826
v -1.081398 2.980315 1.655451
v -1.074138 3.077472 1.611655
v -1.102177 3.030824 1.648936
v -1.072910 3.027326 1.668070
v -1.096401 2.985967 1.660593
v -1.042731 3.118305 1.605189
v -1.034783 3.120683 1.632284
v -1.032081 3.063533 1.648884
v -1.038918 3.062919 1.663979
v -1.066398 3.113655 1.660656
v -1.048482 3.149189 1.640377
v -1.109797 3.115407 1.576791
v -1.101079 3.095675 1.617891
v -1.125098 3.129906 1.606140
v -1.100759 3.104205 1.648010
v -1.086394 3.202081 1.626371
v -1.088000 3.168992 1.645796
v -1.128086 3.179048 1.629568
v -1.118062 3.150740 1.633811
v -1.167175 3.167797 1.599229
v -1.155720 3.197982 1.640442
v -1.196025 3.180040 1.597917
v -1.207635 3.190963 1.632950
v -1.287197 3.082314 1.492334
v -1.320579 3.054311 1.460923
v -1.326742 3.088802 1.452775
v -1.337413 3.038360 1.498036
v -1.359538 3.038812 1.475918
v -1.359771 3.083021 1.468188
v -1.356614 3.043516 1.524705
v -1.363634 2.999494 1.524963
v -1.370270 3.007727 1.495670
v -1.386726 3.034456 1.500553
v -1.379446 2.991499 1.527784
v -1.255041 3.144266 1.547734
v -1.319535 3.119921 1.464187
v -1.308433 3.161962 1.498702
v -1.299674 3.124752 1.521554
v -1.330696 3.074132 1.513950
v -1.236859 3.170576 1.589382
v -1.296306 3.187941 1.514799
v -1.287701 3.170464 1.539576
v -1.310569 3.156352 1.517071
v -1.277612 3.198243 1.563237
v -1.288247 3.233621 1.543900
v -1.347075 3.145438 1.483949
v -1.370525 3.089496 1.500635
v -1.342337 3.146709 1.502025
v -0.971296 3.674914 1.192547
v -0.993290 3.649841 1.248993
v -0.994435 3.607722 1.236155
v -0.997946 3.607341 1.182591
v -1.004423 3.692591 1.243748
v -1.008255 3.574824 1.300394
v -1.013246 3.609427 1.306629
v -1.032251 3.549772 1.238454
v -1.024457 3.527927 1.278615
v -1.048920 3.568513 1.355796
v -1.041326 3.604172 1.328093
v -1.040089 3.468898 1.366617
v -1.057031 3.454795 1.340506
v -1.066496 3.420952 1.368569
v -1.055596 3.423205 1.403893
v -1.055240 3.446948 1.421002
v -1.034559 3.508760 1.367105
v -1.088533 3.537614 1.398211
v -1.066313 3.502103 1.410730
v -1.046332 3.633940 1.154130
v -1.079681 3.574463 1.225817
v -1.084965 3.498072 1.266881
v -1.129336 3.525698 1.279845
v -1.083188 3.619951 1.210061
v -1.058383 3.673180 1.145257
v -1.070224 3.689398 1.186817
v -1.093683 3.631167 1.244272
v -1.108716 3.592683 1.282850
v -1.080779 3.668507 1.247902
v -1.122226 3.436169 1.334535
v -1.128529 3.486911 1.313679
v -1.147940 3.459892 1.374146
v -1.126970 3.550014 1.332967
v -1.107497 3.599659 1.306009
v -1.133959 3.542759 1.372021
v -1.100146 3.567758 1.357824
v -1.140282 3.514750 1.333290
v -1.148257 3.463286 1.415768
v -1.125982 3.512154 1.398552
v -1.133419 3.467654 1.445153
v -1.047434 3.681416 1.254567
v -1.072529 3.703369 1.224591
v -1.061076 3.387306 1.425821
v -1.076003 3.421511 1.467154
v -1.060209 3.386837 1.478859
v -1.066895 3.345306 1.489676
v -1.065070 3.312551 1.513891
v -1.071611 3.333213 1.539906
v -1.094383 3.388955 1.507728
v -1.092885 3.358967 1.555799
v -1.089108 3.458045 1.453305
v -1.139321 3.414387 1.507882
v -1.132746 3.380769 1.562259
v -1.084848 3.300321 1.565593
v -1.096228 3.254661 1.619763
v -1.113102 3.306543 1.595333
v -1.124753 3.276722 1.619729
v -1.141555 3.340660 1.580823
v -1.176425 3.378472 1.554266
v -1.171330 3.303338 1.646128
v -1.202598 3.340901 1.580512
v -1.161110 3.404076 1.393830
v -1.183973 3.358669 1.427083
v -1.176419 3.408031 1.435179
v -1.226830 3.331267 1.463170
v -1.205548 3.373057 1.462379
v -1.170712 3.422940 1.478085
v -1.215420 3.384196 1.511935
v -1.204237 3.365794 1.542601
v -1.247460 3.297235 1.499650
v -1.232449 3.340237 1.487975
v -1.234295 3.332794 1.525605
v -1.270141 3.281541 1.528324
v -1.298210 3.271798 1.571849
v -1.274896 3.287914 1.558184
v -1.252869 3.301465 1.585056
v -1.213779 3.275137 1.664689
v -1.242746 3.270760 1.623268
v -1.136516 3.223260 1.640702
v -1.162076 3.221971 1.679107
v -1.168305 3.248525 1.699980
v -1.190318 3.196202 1.690429
v -1.185899 3.184209 1.724267
v -1.222747 3.213224 1.675353
v -1.224322 3.185105 1.727414
v -1.184599 3.284594 1.699016
v -1.176990 3.258781 1.719842
v -1.221438 3.255923 1.701690
v -1.194380 3.243243 1.766019
v -1.235027 3.211707 1.731462
v -1.215893 3.254259 1.732286
v -1.237912 3.214010 1.786181
v -1.202296 3.147503 1.801551
v -1.246122 3.129585 1.795226
v -1.234504 3.114928 1.822906
v -1.267401 3.099128 1.831667
v -1.185390 3.185445 1.773502
v -1.251280 3.182379 1.789246
v -1.215918 3.191262 1.818660
v -1.217031 3.164615 1.835249
v -1.246616 3.173655 1.827404
v -1.274882 3.117727 1.830926
v -1.261486 3.102613 1.849227
v -1.275883 3.190441 1.619852
v -1.235841 3.216763 1.632625
v -1.254018 3.236718 1.620258
v -1.256575 3.205598 1.623248
v -1.226382 3.248545 1.659545
v -1.300185 3.206094 1.594218
v -1.321404 3.232827 1.602171
v -1.272633 3.273857 1.622196
v -1.305384 3.202333 1.663768
v -1.343729 3.150952 1.667608
v -1.372918 3.152694 1.655593
v -1.357420 3.209143 1.619814
v -1.346046 3.234848 1.616502
v -1.287347 3.286500 1.600274
v -1.324989 3.237941 1.661292
v -1.318928 3.251696 1.631124
v -1.354865 3.231673 1.646142
v -1.357464 3.207745 1.675759
v -1.379602 3.185790 1.659825
v -1.370721 3.108208 1.703907
v -1.338032 3.170685 1.684272
v -1.381477 3.152117 1.713368
v -1.384070 3.103637 1.726832
v -1.398373 3.131160 1.699765
v -0.810926 3.873955 0.740582
v -0.731243 3.904589 0.810257
v -0.758682 3.875243 0.754255
v -0.795089 3.876884 0.745878
v -0.824367 3.887549 0.723360
v -0.708839 3.929340 0.747446
v -0.717368 3.937682 0.768715
v -0.687680 3.927393 0.779512
v -0.700373 3.920990 0.806028
v -0.678888 4.032972 0.687151
v -0.719277 3.962460 0.793118
v -0.745917 3.927571 0.803520
v -0.758940 3.991114 0.820725
v -0.757761 4.037417 0.806866
v -0.788649 4.044823 0.826441
v -0.782426 4.018011 0.881713
v -0.858851 3.997471 0.700228
v -0.876424 3.988859 0.730355
v -0.860462 3.936054 0.732844
v -0.875073 4.029583 0.746315
v -0.879708 3.967432 0.774806
v -0.885153 4.017191 0.801541
v -0.755603 3.894156 0.769674
v -0.756600 3.907552 0.799177
v -0.820711 3.864968 0.816596
v -0.772869 3.926635 0.834080
v -0.821509 3.885909 0.862537
v -0.801050 3.935899 0.876397
v -0.852187 3.858427 0.945742
v -0.843435 3.851947 0.888404
v -0.829174 3.981410 0.874922
v -0.827577 3.932442 0.910611
v -0.849001 3.910633 0.951503
v -0.878972 3.843749 1.000699
v -0.879727 3.812471 1.003920
v -0.892728 3.846520 1.049506
v -0.882104 3.823454 1.033507
v -0.813142 4.021978 0.837827
v -0.845160 4.009592 0.864646
v -0.855691 4.002752 0.893696
v -0.875122 3.950565 0.932166
v -0.892235 3.900156 0.991969
v -0.905992 3.870684 1.022915
v -0.847358 3.908762 0.736729
v -0.844677 3.877899 0.791344
v -0.880349 3.900054 0.805486
v -0.870640 3.879232 0.841138
v -0.910397 3.909302 0.845520
v -0.879291 4.007925 0.840904
v -0.901626 3.966700 0.828242
v -0.928595 3.924320 0.876918
v -0.893986 3.970173 0.858140
v -0.921826 3.941406 0.909798
v -0.902129 3.814233 0.898470
v -0.971817 3.727533 1.019845
v -0.952132 3.787337 0.940936
v -0.957157 3.838185 0.927835
v -0.960718 3.886949 0.936823
v -0.893635 3.761295 1.016772
v -0.984345 3.835211 0.958645
v -0.999399 3.844916 1.009070
v -0.883616 4.037634 0.806511
v -0.855906 3.978518 0.885045
v -0.919482 4.022607 0.828610
v -0.909508 4.013212 0.855755
v -0.878035 3.971833 0.911857
v -0.859413 3.968986 0.917797
v -0.928616 3.895444 1.001060
v -0.963864 3.892539 0.981909
v -0.929376 3.854639 1.053733
v -0.967863 3.847085 1.072140
v -0.910006 3.786825 1.071591
v -0.928054 3.749674 1.074376
v -0.944070 3.730272 1.125609
v -0.947248 3.714721 1.070748
v -0.941541 3.797532 1.110101
v -0.973959 3.730585 1.184218
v -1.017867 3.768379 1.048699
v -1.032418 3.700401 1.077640
v -1.029006 3.787278 1.080967
v -0.969482 3.656626 1.097650
v -1.050238 3.738875 1.122143
v -1.053069 3.737090 1.164375
v -0.997714 3.848518 1.044272
v -0.975100 3.781884 1.151878
v -1.002053 3.814348 1.101592
v -1.029550 3.781776 1.121560
v -1.045280 3.726183 1.200069
vn 0.5102 -0.3996 -0.7616
vn 0.8063 -0.3475 -0.4788
vn 0.8023 -0.4119 -0.4320
vn 0.7144 -0.3803 -0.5873
vn 0.6222 -0.4194 -0.6610
vn 0.1408 -0.4961 -0.8568
vn 0.9799 -0.0752 -0.1849
vn 0.9458 -0.1499 -0.2880
vn 0.9973 -0.0051 -0.0736
vn 0.9703 0.2406 -0.0250
vn 0.8621 0.3145 0.3972
vn 0.8289 0.2097 0.5186
vn -0.1690 -0.3458 -0.9230
vn 0.2868 -0.5991 -0.7475
vn -0.1252 -0.2946 -0.9474
vn -0.5236 -0.0952 -0.8466
vn 0.1332 -0.9502 -0.2818
vn 0.2003 -0.5636 -0.8014
vn 0.5739 -0.4306 -0.6966
vn -0.2393 0.0302 -0.9705
vn -0.1515 0.4012 -0.9034
vn -0.3106 -0.1723 -0.9348
vn -0.6857 0.0565 -0.7257
vn -0.7559 0.2367 -0.6105
vn -0.8709 0.2787 -0.4047
vn -0.0697 -0.5033 -0.8613
vn 0.5602 -0.4751 -0.6786
vn 0.1371 -0.9901 -0.0303
vn -0.9618 -0.1932 -0.1937
vn -0.6722 -0.6972 0.2492
vn 0.0064 -0.1037 0.9946
vn 0.9789 -0.2034 0.0217
vn 0.8237 -0.1551 -0.5454
vn 0.9610 0.1809 0.2090
vn 0.6205 -0.0639 0.7816
vn 0.1001 0.2211 0.9701
vn 0.6959 0.4030 0.5944
vn -0.2723 -0.8421 -0.4655
vn -0.8264 -0.5253 -0.2026
vn -0.7476 -0.6079 0.2674
vn -0.7430 -0.0324 0.6686
vn 0.4698 0.3075 0.8275
vn -0.0476 0.3355 0.9408
vn -0.2457 -0.1777 0.9529
vn -0.6001 -0.1364 0.7882
vn -0.3706 -0.7747 0.5123
vn 0.2677 -0.7197 0.6406
vn -0.1922 -0.8611 0.4707
vn -0.2395 -0.8907 0.3864
vn 0.7389 -0.6313 0.2356
vn 0.3474 -0.6317 -0.6930
vn -0.0569 0.0500 -0.9971
vn 0.7127 -0.6879 0.1373
vn -0.1972 -0.5155 -0.8339
vn -0.6803 0.1194 -0.7232
vn 0.0847 0.0852 0.9928
vn 0.6209 -0.6270 0.4704
vn -0.0996 -0.7294 -0.6768
vn -0.9981 0.0175 -0.0587
vn -0.4275 -0.7624 0.4857
vn -0.1525 -0.7787 0.6085
vn -0.1036 0.2679 -0.9579
vn -0.6002 0.7741 -0.2013
vn -0.2395 -0.2841 0.9284
vn 0.2002 -0.1456 0.9689
vn -0.1966 -0.8485 0.4913
vn -0.9353 0.3416 0.0922
vn -0.7493 -0.1082 0.6533
vn -0.6948 0.3513 0.6276
vn -0.8510 -0.5001 0.1603
vn -0.9509 0.0426 -0.3066
vn -0.6745 0.6396 -0.3688
vn -0.8615 0.3315 0.3846
vn -0.6275 0.6176 0.4742
vn 0.9511 -0.1121 0.2879
vn 0.9145 0.1089 0.3896
vn 0.9478 -0.3160 0.0419
vn 0.5790 -0.7207 -0.3811
vn 0.9506 -0.1109 0.2898
vn 0.7433 0.2699 0.6122
vn 0.4478 0.5761 0.6838
vn 0.3559 -0.6893 -0.6310
vn 0.7734 -0.5557 -0.3049
vn 0.4489 0.5051 0.7371
vn 0.2169 0.6024 0.7682
vn 0.9566 -0.2799 0.0815
vn 0.5909 -0.6551 -0.4709
vn 0.6493 -0.5798 -0.4922
vn 0.9447 -0.3173 -0.0827
vn 0.9065 0.1088 0.4079
vn 0.8794 0.0405 0.4743
vn 0.5169 0.4093 0.7518
vn -0.0085 0.5664 0.8241
vn -0.4722 -0.6089 -0.6374
vn -0.5901 -0.4361 -0.6795
vn -0.0768 -0.5734 -0.8157
vn -0.8269 -0.1155 -0.5504
vn -0.9029 -0.1288 -0.4101
vn -0.9122 -0.1179 -0.3924
vn -0.9394 0.2688 -0.2125
vn -0.9716 0.1348 -0.1944
vn -0.9404 0.2556 -0.2244
vn -0.7427 0.5374 0.3995
vn -0.3912 -0.5597 -0.7305
vn -0.8082 -0.3170 -0.4964
vn -0.9744 0.0995 -0.2017
vn -0.8766 0.4802 0.0313
vn -0.8255 0.5120 0.2373
vn -0.7473 0.5586 0.3600
vn -0.3448 0.7580 0.5536
vn -0.9828 0.1022 -0.1541
vn -0.8882 0.4548 0.0654
vn -0.5876 0.4870 0.6462
vn -0.3604 0.7555 0.5471
vn -0.6761 0.6793 0.2853
vn -0.1555 0.7107 0.6861
vn 0.9581 -0.2079 -0.1971
vn 0.7710 0.3892 0.5040
vn 0.9095 0.1956 0.3669
vn 0.9899 0.0669 0.1252
vn 0.9985 0.0202 0.0500
vn 0.9005 0.2291 0.3696
vn 0.6065 0.5518 0.5724
vn 0.6195 0.4670 0.6310
vn 0.3776 0.5969 0.7079
vn -0.0051 0.7953 0.6062
vn 0.1550 0.6632 0.7322
vn 0.7240 0.4101 0.5546
vn 0.5145 0.4083 0.7540
vn 0.5025 0.5612 0.6577
vn 0.5887 0.4258 0.6871
vn 0.2381 0.5747 0.7830
vn -0.3160 0.7558 0.5736
vn -0.3987 0.7476 0.5311
vn 0.1677 0.8006 0.5752
vn -0.7833 -0.0924 -0.6148
vn -0.7065 0.0330 -0.7069
vn -0.8789 0.3839 -0.2831
vn -0.8343 0.1981 -0.5145
vn -0.8150 0.4057 -0.4138
vn -0.5935 0.7549 0.2789
vn -0.7071 0.6661 0.2373
vn -0.6028 0.6475 0.4663
vn -0.8670 0.2987 -0.3989
vn -0.9788 0.1203 -0.1659
vn -0.8448 0.5279 0.0867
vn -0.8257 0.4249 -0.3710
vn -0.8196 0.4818 -0.3101
vn -0.6561 0.7436 -0.1287
vn -0.4649 0.8030 0.3728
vn -0.6770 0.6561 0.3336
vn -0.5131 0.4894 0.7052
vn 0.5855 -0.1243 0.8011
vn 0.8220 -0.3772 0.4267
vn 0.9136 0.1459 0.3796
vn 0.0911 -0.9901 -0.1068
vn 0.5747 -0.7781 -0.2534
vn -0.8780 -0.4779 0.0287
vn -0.5205 -0.7057 -0.4807
vn 0.1917 0.8673 0.4593
vn 0.7098 0.4999 0.4962
vn -0.8604 0.5029 0.0824
vn 0.3994 0.7040 0.5873
vn -0.9803 0.0044 -0.1973
vn -0.4503 0.8286 0.3326
vn -0.6656 0.6540 0.3595
vn 0.8020 -0.5959 0.0418
vn -0.2567 -0.6292 -0.7336
vn 0.6539 -0.7561 0.0264
vn -0.4347 -0.8846 -0.1687
vn 0.9579 -0.0964 0.2705
vn -0.9748 0.1814 -0.1302
vn 0.3341 0.5767 0.7455
vn 0.4933 0.1297 0.8601
vn -0.5302 0.5288 0.6628
vn -0.9980 0.0093 0.0625
vn -0.1228 -0.5545 0.8231
vn 0.1885 -0.9567 0.2220
vn -0.6541 -0.2903 0.6985
vn -0.2691 0.0327 0.9626
vn 0.1368 -0.3747 0.9170
vn -0.9306 0.1402 0.3381
vn -0.4969 -0.6706 -0.5508
vn -0.7243 0.2002 -0.6598
vn 0.0677 0.6436 0.7624
vn 0.5574 -0.0700 0.8273
vn 0.6037 -0.7770 -0.1781
vn -0.4398 -0.5490 -0.7107
vn -0.7343 0.0125 -0.6787
vn -0.6214 0.5770 -0.5300
vn -0.4465 0.8593 0.2496
vn -0.0165 0.6416 0.7669
vn -0.5113 0.8533 0.1028
vn -0.7016 0.6987 0.1399
vn -0.3249 0.5697 0.7549
vn -0.9517 0.2754 -0.1360
vn 0.2775 -0.9433 -0.1822
vn 0.6877 -0.0660 0.7230
vn -0.1929 -0.7254 0.6608
vn -0.9659 -0.2460 -0.0803
vn -0.2799 0.4658 0.8395
vn -0.2975 -0.6796 0.6705
vn -0.0098 -0.7954 0.6060
vn -0.3352 -0.9420 -0.0126
vn 0.6140 0.7888 0.0298
vn 0.8507 0.2755 0.4476
vn 0.4198 0.5266 0.7393
vn 0.7784 -0.1319 0.6138
vn 0.4333 -0.0144 0.9011
vn 0.9246 0.3512 0.1478
vn 0.8038 0.0263 -0.5944
vn 0.5941 0.1416 0.7919
vn 0.6460 -0.2445 0.7231
vn 0.4636 -0.7618 0.4524
vn -0.7899 -0.0891 -0.6067
vn -0.9403 -0.0591 -0.3351
vn -0.9222 -0.3095 -0.2318
vn -0.9614 -0.0802 -0.2633
vn -0.3506 -0.7675 0.5367
vn 0.0710 -0.6492 0.7573
vn 0.2271 -0.9736 0.0245
vn -0.2657 -0.1352 0.9545
vn 0.7495 -0.3441 0.5655
vn 0.8354 -0.4779 0.2716
vn 0.7896 0.0021 0.6136
vn 0.8799 -0.4077 0.2442
vn 0.6398 -0.7648 -0.0755
vn 0.3889 0.5259 0.7564
vn 0.7157 0.3098 0.6260
vn 0.7484 0.2833 0.5997
vn 0.8944 0.1724 0.4127
vn 0.9702 -0.2387 0.0411
vn 0.6251 0.4445 0.6417
vn 0.9443 -0.0208 0.3284
vn 0.5928 0.0127 0.8052
vn 0.3489 -0.9367 -0.0308
vn 0.1805 -0.7321 0.6568
vn -0.1773 -0.9575 0.2274
vn 0.0522 0.6893 0.7226
vn 0.3923 0.5800 0.7139
vn 0.6427 0.5105 0.5712
vn -0.8277 -0.5530 0.0957
vn -0.3268 -0.8141 0.4800
vn -0.4457 -0.8527 -0.2725
vn -0.7331 -0.5378 -0.4162
vn -0.9605 -0.2465 -0.1292
vn -0.3959 -0.7866 -0.4738
vn -0.7850 -0.2651 -0.5599
vn -0.9709 -0.2233 0.0868
vn -0.8685 -0.4541 0.1988
vn -0.9149 0.3459 -0.2079
vn -0.9037 0.2870 -0.3177
vn -0.7100 0.6655 0.2303
vn 0.0875 -0.7697 -0.6324
vn -0.1791 -0.7973 -0.5764
vn -0.4798 -0.5484 -0.6849
vn -0.7128 -0.1698 -0.6805
vn -0.8926 0.3165 -0.3211
vn 0.7824 -0.6208 -0.0496
vn -0.8649 -0.0167 -0.5017
vn -0.9193 0.3532 -0.1738
vn -0.6258 -0.7586 0.1814
vn 0.0280 0.8237 0.5663
vn -0.1597 -0.9858 -0.0515
vn -0.4239 -0.8938 0.1467
vn -0.2939 0.8607 0.4158
vn -0.6682 0.7295 0.1461
vn 0.3678 0.7045 0.6069
vn -0.1303 0.8402 0.5263
vn -0.6185 0.7682 0.1652
vn 0.2569 0.6573 0.7085
vn -0.0832 0.8053 0.5869
vn 0.7996 -0.0988 0.5924
vn 0.8613 -0.3452 0.3727
vn 0.9525 -0.1416 0.2695
vn 0.6457 -0.7271 -0.2332
vn 0.6981 0.3762 0.6092
vn 0.7988 0.2492 0.5475
vn -0.8670 -0.1018 -0.4877
vn -0.6369 -0.3911 -0.6643
vn -0.9316 0.3449 -0.1147
vn 0.4872 -0.7020 -0.5194
vn -0.9608 0.1964 -0.1957
vn -0.8784 0.4589 0.1335
vn -0.6740 0.7019 0.2305
vn 0.2034 0.6897 0.6950
vn -0.4981 0.7334 0.4627
vn -0.6815 0.6689 0.2968
vn -0.4628 0.7524 0.4688
vt 0.418602 0.119623
vt 0.425477 0.125531
vt 0.419569 0.124849
vt 0.411440 0.123145
vt 0.402334 0.124809
vt 0.415740 0.113337
vt 0.411123 0.128957
vt 0.415608 0.128396
vt 0.405952 0.130282
vt 0.401361 0.131145
vt 0.409280 0.134238
vt 0.403696 0.135096
vt 0.430301 0.114522
vt 0.437666 0.122628
vt 0.424730 0.112634
vt 0.427713 0.108749
vt 0.053677 0.318256
vt 0.041523 0.319398
vt 0.044552 0.308438
vt 0.040445 0.311623
vt 0.029361 0.313185
vt 0.989836 0.395052
vt 0.976784 0.393554
vt 0.984920 0.390447
vt 0.976862 0.388880
vt 0.420591 0.108207
vt 0.423377 0.104110
vt 0.414192 0.103017
vt 0.995982 0.396769
vt 0.416842 0.098269
vt 0.420298 0.097721
vt 0.053874 0.430622
vt 0.052249 0.425947
vt 0.056690 0.418918
vt 0.061985 0.331164
vt 0.059353 0.325285
vt 0.069038 0.333201
vt 0.065336 0.333335
vt 0.063933 0.336389
vt 0.048441 0.424741
vt 0.044841 0.431254
vt 0.043007 0.428605
vt 0.047508 0.423302
vt 0.050459 0.418941
vt 0.040839 0.423486
vt 0.039032 0.428462
vt 0.035338 0.435031
vt 0.042271 0.437618
vt 0.051858 0.324091
vt 0.055553 0.327903
vt 0.050191 0.327947
vt 0.055368 0.332201
vt 0.039548 0.419504
vt 0.031319 0.430506
vt 0.031137 0.435441
vt 0.034124 0.426415
vt 0.029375 0.424348
vt 0.033392 0.421804
vt 0.043288 0.328744
vt 0.047077 0.333351
vt 0.049880 0.332237
vt 0.045175 0.334401
vt 0.994777 0.987181
vt 0.997674 0.990186
vt 0.992726 0.989444
vt 0.024636 0.314645
vt 0.019834 0.310275
vt 0.022816 0.309033
vt 0.016075 0.313200
vt 0.959930 0.395971
vt 0.968316 0.393563
vt 0.964486 0.396230
vt 0.964812 0.391337
vt 0.014585 0.310157
vt 0.013695 0.315874
vt 0.010596 0.312907
vt 0.011567 0.311078
vt 0.010256 0.308935
vt 0.008199 0.312359
vt 0.953891 0.393844
vt 0.948313 0.393685
vt 0.957602 0.391347
vt 0.955885 0.388789
vt 0.032028 0.322423
vt 0.971761 0.391094
vt 0.975809 0.384427
vt 0.025086 0.320308
vt 0.019360 0.316403
vt 0.039687 0.329327
vt 0.034842 0.328230
vt 0.987057 0.983114
vt 0.410883 0.095576
vt 0.976532 0.379216
vt 0.980169 0.375609
vt 0.027542 0.325319
vt 0.024291 0.323777
vt 0.974244 0.378145
vt 0.974093 0.382880
vt 0.976269 0.372390
vt 0.979313 0.370986
vt 0.028684 0.329496
vt 0.970461 0.387198
vt 0.963081 0.387053
vt 0.971016 0.385627
vt 0.015928 0.319484
vt 0.480547 0.147469
vt 0.473286 0.145916
vt 0.470846 0.141929
vt 0.475697 0.141219
vt 0.462265 0.140165
vt 0.464808 0.143629
vt 0.645267 0.170107
vt 0.656865 0.172689
vt 0.648430 0.173839
vt 0.465606 0.135381
vt 0.460354 0.134879
vt 0.456152 0.142164
vt 0.665076 0.170021
vt 0.659885 0.169603
vt 0.447770 0.132316
vt 0.448627 0.129078
vt 0.443124 0.127259
vt 0.440033 0.130227
vt 0.440373 0.133543
vt 0.450820 0.136280
vt 0.445557 0.138347
vt 0.671770 0.166960
vt 0.675031 0.170521
vt 0.646964 0.143711
vt 0.656498 0.145254
vt 0.644115 0.150394
vt 0.655401 0.151292
vt 0.458537 0.128516
vt 0.665078 0.153410
vt 0.664880 0.148059
vt 0.650694 0.154342
vt 0.640783 0.153953
vt 0.643270 0.158564
vt 0.653017 0.158079
vt 0.659274 0.158117
vt 0.650267 0.161634
vt 0.447867 0.121261
vt 0.676143 0.149470
vt 0.670935 0.152529
vt 0.678281 0.155804
vt 0.667274 0.159353
vt 0.660588 0.160765
vt 0.671174 0.161618
vt 0.666821 0.163905
vt 0.670446 0.156456
vt 0.447545 0.114901
vt 0.445487 0.110129
vt 0.450619 0.109393
vt 0.675430 0.163156
vt 0.452545 0.103370
vt 0.446084 0.105611
vt 0.645640 0.162327
vt 0.648637 0.165928
vt 0.434860 0.128797
vt 0.433408 0.135408
vt 0.429615 0.132768
vt 0.424916 0.130937
vt 0.419834 0.130766
vt 0.418889 0.134441
vt 0.426387 0.136983
vt 0.419394 0.137966
vt 0.437443 0.138127
vt 0.448631 0.101154
vt 0.427408 0.142528
vt 0.419687 0.142603
vt 0.442207 0.097460
vt 0.413410 0.135547
vt 0.404288 0.138766
vt 0.410178 0.140544
vt 0.405094 0.141979
vt 0.413908 0.143240
vt 0.437267 0.091521
vt 0.440850 0.088830
vt 0.438114 0.083924
vt 0.432873 0.088153
vt 0.431624 0.077012
vt 0.440337 0.114549
vt 0.433838 0.110899
vt 0.439117 0.108724
vt 0.429816 0.104169
vt 0.434574 0.105122
vt 0.440666 0.102791
vt 0.434984 0.098293
vt 0.434659 0.093439
vt 0.425550 0.099084
vt 0.430613 0.100924
vt 0.429770 0.095860
vt 0.423198 0.094714
vt 0.989546 0.965754
vt 0.986348 0.972412
vt 0.985372 0.964976
vt 0.983381 0.969980
vt 0.424154 0.090903
vt 0.426629 0.087459
vt 0.427270 0.075302
vt 0.425622 0.080918
vt 0.399636 0.137348
vt 0.397941 0.142011
vt 0.023009 0.427484
vt 0.023269 0.424799
vt 0.018358 0.425658
vt 0.016439 0.427343
vt 0.019955 0.419408
vt 0.023744 0.419813
vt 0.017328 0.422951
vt 0.012727 0.421675
vt 0.017396 0.420032
vt 0.103144 0.097780
vt 0.102507 0.093285
vt 0.109162 0.093019
vt 0.395322 0.149031
vt 0.404146 0.147549
vt 0.992953 0.547922
vt 0.987239 0.550675
vt 0.983932 0.547196
vt 0.983534 0.550127
vt 0.990859 0.554348
vt 0.986441 0.556193
vt 0.979006 0.553768
vt 0.104005 0.090033
vt 0.110192 0.088494
vt 0.983199 0.555289
vt 0.976059 0.559278
vt 0.093033 0.097037
vt 0.091880 0.091485
vt 0.088712 0.093399
vt 0.085802 0.090594
vt 0.098050 0.100214
vt 0.972712 0.551340
vt 0.975387 0.546403
vt 0.974578 0.562763
vt 0.982127 0.560777
vt 0.971162 0.557489
vt 0.967460 0.558144
vt 0.096791 0.088021
vt 0.970022 0.561286
vt 0.089379 0.099709
vt 0.966720 0.566750
vt 0.971127 0.567836
vt 0.084347 0.091926
vt 0.963072 0.566121
vt 0.965481 0.568674
vt 0.982093 0.983748
vt 0.986802 0.977789
vt 0.981448 0.599383
vt 0.984828 0.600062
vt 0.981954 0.602242
vt 0.982525 0.594905
vt 0.980582 0.978332
vt 0.979012 0.975940
vt 0.421817 0.087993
vt 0.984403 0.986610
vt 0.987850 0.990086
vt 0.993520 0.992838
vt 0.978509 0.595104
vt 0.989616 0.599564
vt 0.984955 0.608978
vt 0.974129 0.993039
vt 0.973402 0.986066
vt 0.971202 0.982680
vt 0.970298 0.977509
vt 0.996229 0.611130
vt 0.994675 0.608069
vt 0.996147 0.605198
vt 0.423089 0.085090
vt 0.987370 0.596907
vt 0.993061 0.598869
vt 0.983897 0.592173
vt 0.989555 0.608177
vt 0.991997 0.605078
vt 0.997066 0.599415
vt 0.979873 0.590576
vt 0.992499 0.610310
vt 0.989609 0.613634
vt 0.992479 0.616508
vt 0.966615 0.981314
vt 0.969652 0.987329
vt 0.970857 0.992651
vt 0.984816 0.614895
vt 0.967936 0.987583
vt 0.967312 0.985397
vt 0.963239 0.988555
vt 0.986532 0.621087
vt 0.031434 0.189065
vt 0.027043 0.188188
vt 0.025328 0.187013
vt 0.040205 0.201094
vt 0.036890 0.203647
vt 0.037555 0.199215
vt 0.033846 0.206683
vt 0.031712 0.199979
vt 0.039561 0.204395
vt 0.040526 0.212568
vt 0.028476 0.208947
vt 0.029245 0.215677
vt 0.025428 0.216052
vt 0.357514 0.173457
vt 0.356297 0.170114
vt 0.361447 0.169365
vt 0.353844 0.165592
vt 0.031411 0.192519
vt 0.030911 0.196750
vt 0.021363 0.193365
vt 0.034335 0.196944
vt 0.026567 0.200953
vt 0.018958 0.197784
vt 0.021448 0.202662
vt 0.008663 0.199666
vt 0.013426 0.196515
vt 0.019369 0.208742
vt 0.016535 0.203781
vt 0.593636 0.173170
vt 0.599505 0.172932
vt 0.602476 0.178541
vt 0.609104 0.176217
vt 0.611785 0.179502
vt 0.613920 0.173489
vt 0.613752 0.176724
vt 0.022740 0.213445
vt 0.021804 0.222135
vt 0.018672 0.213031
vt 0.004944 0.467150
vt 0.007742 0.476627
vt 0.004150 0.476684
vt 0.596670 0.167512
vt 0.605608 0.169924
vt 0.610593 0.170769
vt 0.019651 0.184163
vt 0.023340 0.184143
vt 0.019535 0.189830
vt 0.014025 0.188224
vt 0.349164 0.170422
vt 0.345400 0.170497
vt 0.010532 0.182092
vt 0.013735 0.191638
vt 0.008285 0.188705
vt 0.359868 0.163336
vt 0.357387 0.160199
vt 0.582730 0.153628
vt 0.593604 0.152533
vt 0.588413 0.156979
vt 0.585062 0.160925
vt 0.596046 0.156547
vt 0.590026 0.160198
vt 0.598105 0.140499
vt 0.604816 0.144584
vt 0.593686 0.146468
vt 0.603417 0.136347
vt 0.623246 0.146738
vt 0.612031 0.148091
vt 0.607151 0.151804
vt 0.604821 0.157409
vt 0.612479 0.135867
vt 0.618093 0.138721
vt 0.611064 0.154381
vt 0.615187 0.158688
vt 0.360593 0.161558
vt 0.016403 0.209803
vt 0.585269 0.165738
vt 0.589577 0.166212
vt 0.003863 0.482459
vt 0.006455 0.488302
vt 0.001169 0.487201
vt 0.007513 0.484989
vt 0.593629 0.165798
vt 0.597432 0.161089
vt 0.593728 0.167793
vt 0.608208 0.166397
vt 0.608299 0.161462
vt 0.615320 0.169563
vt 0.618895 0.166264
vt 0.617211 0.182234
vt 0.620632 0.175930
vt 0.624465 0.178574
vt 0.625470 0.138171
vt 0.631429 0.136740
vt 0.628052 0.142322
vt 0.624555 0.171620
vt 0.630685 0.176501
vt 0.636579 0.171688
vt 0.641114 0.175976
vt 0.624482 0.154663
vt 0.632109 0.151485
vt 0.626089 0.158977
vt 0.635714 0.143945
vt 0.641524 0.135758
vt 0.633695 0.157988
vt 0.637403 0.161010
vt 0.617800 0.161764
vt 0.630371 0.168884
vt 0.624961 0.163894
vt 0.629926 0.161792
vt 0.640776 0.163658
s 1
usemtl Material.003
f 1/1/1 2/2/2 3/3/3
f 4/4/4 5/5/5 6/6/6
f 7/7/7 4/4/4 3/3/3
f 7/7/7 3/3/3 8/8/8
f 1/1/1 3/3/3 4/4/4
f 3/3/3 2/2/2 8/8/8
f 4/4/4 7/7/7 9/9/9
f 9/9/9 5/5/5 4/4/4
f 5/5/5 9/9/9 10/10/10
f 7/7/7 11/11/11 9/9/9
f 9/9/9 12/12/12 10/10/10
f 13/13/13 14/14/14 2/2/2
f 2/2/2 1/1/1 13/13/13
f 13/13/13 1/1/1 15/15/15
f 13/13/13 15/15/15 16/16/16
f 5/17/5 17/18/17 6/19/6
f 6/19/6 17/18/17 18/20/18
f 18/20/18 17/18/17 19/21/19
f 18/22/18 19/23/19 20/24/20
f 21/25/21 20/24/20 19/23/19
f 15/15/15 1/1/1 6/6/6
f 4/4/4 6/6/6 1/1/1
f 22/26/22 15/15/15 6/6/6
f 22/26/22 16/16/16 15/15/15
f 23/27/23 16/16/16 22/26/22
f 20/28/20 22/26/22 6/6/6
f 6/29/6 18/22/18 20/24/20
f 22/26/22 20/28/20 23/27/23
f 20/28/20 24/30/24 23/27/23
f 23/27/23 24/30/24 25/31/25
f 28/32/26 26/33/27 27/34/28
f 29/35/29 28/36/26 27/37/28
f 27/37/28 31/38/30 29/35/29
f 31/38/30 27/37/28 30/39/31
f 34/40/32 32/41/33 33/42/34
f 34/40/32 26/33/27 32/41/33
f 26/33/27 34/40/32 27/34/28
f 34/40/32 35/43/35 27/34/28
f 27/34/28 35/43/35 30/44/31
f 33/42/34 35/43/35 34/40/32
f 33/42/34 36/45/36 35/43/35
f 37/46/37 36/45/36 33/42/34
f 30/44/31 35/43/35 36/45/36
f 33/42/34 32/41/33 10/47/10
f 10/47/10 37/46/37 33/42/34
f 32/41/33 28/32/26 5/48/5
f 28/36/26 38/49/38 5/17/5
f 38/49/38 28/36/26 39/50/39
f 38/49/38 17/18/17 5/17/5
f 40/51/40 17/18/17 38/49/38
f 26/33/27 28/32/26 32/41/33
f 28/36/26 29/35/29 39/50/39
f 29/35/29 41/52/41 39/50/39
f 38/49/38 39/50/39 40/51/40
f 30/44/31 36/45/36 41/53/41
f 10/47/10 32/41/33 5/48/5
f 10/47/10 42/54/42 37/46/37
f 12/55/12 42/54/42 10/47/10
f 42/54/42 43/56/43 37/46/37
f 42/54/42 44/57/44 43/56/43
f 43/56/43 44/57/44 45/58/45
f 40/51/40 46/59/46 17/18/17
f 44/60/44 46/59/46 45/61/45
f 40/51/40 45/61/45 46/59/46
f 44/60/44 47/62/47 46/59/46
f 48/63/48 46/64/46 49/65/49
f 37/46/37 43/56/43 36/45/36
f 36/45/36 45/58/45 41/53/41
f 39/50/39 41/52/41 40/51/40
f 41/52/41 45/61/45 40/51/40
f 36/45/36 43/56/43 45/58/45
f 31/38/30 30/39/31 41/52/41
f 31/38/30 41/52/41 29/35/29
f 19/21/19 50/66/50 51/67/51
f 19/21/19 51/67/51 52/68/52
f 50/66/50 53/69/53 51/67/51
f 54/70/54 52/71/52 51/72/51
f 52/71/52 54/70/54 55/73/55
f 54/74/54 51/67/51 53/69/53
f 53/69/53 56/75/56 57/76/57
f 53/69/53 58/77/58 54/74/54
f 58/77/58 59/78/59 54/74/54
f 53/69/53 57/76/57 58/77/58
f 57/76/57 60/79/60 58/77/58
f 58/80/58 60/81/60 59/82/59
f 57/76/57 56/75/56 60/79/60
f 56/83/56 59/82/59 60/81/60
f 61/84/61 19/21/19 17/18/17
f 19/23/19 62/85/62 21/25/21
f 20/24/20 21/25/21 63/86/63
f 19/21/19 61/84/61 50/66/50
f 64/87/64 50/66/50 61/84/61
f 64/87/64 65/88/65 50/66/50
f 46/59/46 61/84/61 17/18/17
f 46/59/46 48/89/48 61/84/61
f 48/89/48 66/90/66 61/84/61
f 48/63/48 49/65/49 66/91/66
f 20/28/20 63/92/63 24/30/24
f 63/86/63 67/93/67 24/94/24
f 68/95/68 64/87/64 61/84/61
f 68/95/68 69/96/69 64/87/64
f 68/97/68 67/93/67 69/98/69
f 70/99/70 67/93/67 68/97/68
f 67/93/67 71/100/71 24/94/24
f 67/93/67 70/99/70 71/100/71
f 61/84/61 66/90/66 68/95/68
f 66/90/66 70/101/70 68/95/68
f 62/85/62 19/23/19 52/71/52
f 52/71/52 72/102/72 62/85/62
f 55/73/55 72/102/72 52/71/52
f 55/73/55 73/103/73 72/102/72
f 62/85/62 72/102/72 21/25/21
f 21/25/21 72/102/72 63/86/63
f 73/103/73 74/104/74 72/102/72
f 50/66/50 65/88/65 53/69/53
f 65/88/65 73/105/73 56/75/56
f 54/70/54 59/82/59 55/73/55
f 55/73/55 59/82/59 73/103/73
f 65/88/65 56/75/56 53/69/53
f 56/83/56 73/103/73 59/82/59
f 65/88/65 64/87/64 69/96/69
f 69/98/69 74/104/74 73/103/73
f 73/105/73 65/88/65 69/96/69
f 69/98/69 67/93/67 63/86/63
f 63/86/63 74/104/74 69/98/69
f 63/86/63 72/102/72 74/104/74
f 75/106/75 76/107/76 77/108/77
f 75/106/75 77/108/77 78/109/78
f 77/108/77 76/107/76 80/110/79
f 76/107/76 81/111/80 80/110/79
f 79/112/81 81/113/80 76/114/76
f 82/115/82 77/108/77 83/116/83
f 77/108/77 80/110/79 83/116/83
f 81/111/80 84/117/84 80/110/79
f 84/118/84 81/113/80 85/119/85
f 86/120/86 87/121/87 83/116/83
f 86/120/86 88/122/88 87/121/87
f 88/122/88 86/120/86 89/123/89
f 86/120/86 90/124/90 89/123/89
f 83/116/83 80/110/79 86/120/86
f 86/120/86 80/110/79 91/125/91
f 80/110/79 84/117/84 91/125/91
f 86/120/86 93/126/92 90/124/90
f 86/120/86 91/125/91 93/126/92
f 91/125/91 84/117/84 93/126/92
f 84/118/84 92/127/93 93/128/92
f 79/112/81 85/119/85 81/113/80
f 77/108/77 82/115/82 78/109/78
f 78/129/78 82/130/82 94/131/94
f 82/130/82 95/132/95 94/131/94
f 82/115/82 83/116/83 96/133/96
f 95/132/95 82/130/82 97/134/97
f 82/130/82 96/135/96 97/134/97
f 94/131/94 95/132/95 98/136/98
f 94/131/94 98/136/98 99/137/99
f 99/137/99 98/136/98 100/138/100
f 98/136/98 101/139/101 100/138/100
f 95/132/95 97/134/97 102/140/102
f 98/136/98 95/132/95 101/139/101
f 95/132/95 102/140/102 101/139/101
f 101/139/101 102/140/102 103/141/103
f 83/116/83 87/121/87 96/133/96
f 87/121/87 104/142/104 96/133/96
f 96/135/96 104/143/104 105/144/105
f 97/134/97 96/135/96 105/144/105
f 88/122/88 104/142/104 87/121/87
f 104/143/104 106/145/106 105/144/105
f 102/140/102 107/146/107 108/147/108
f 107/146/107 109/148/109 110/149/110
f 97/134/97 111/150/111 107/146/107
f 97/134/97 105/144/105 111/150/111
f 97/134/97 107/146/107 102/140/102
f 111/150/111 109/148/109 107/146/107
f 105/144/105 106/145/106 111/150/111
f 106/151/106 112/152/112 113/153/113
f 113/154/113 93/128/92 92/127/93
f 111/150/111 106/145/106 109/148/109
f 109/148/109 106/145/106 113/154/113
f 92/127/93 109/148/109 113/154/113
f 93/155/92 113/153/113 114/156/114
f 114/156/114 113/153/113 112/152/112
f 116/157/115 103/141/103 115/158/116
f 115/158/116 85/119/85 79/112/81
f 101/139/101 103/141/103 116/157/115
f 85/119/85 115/158/116 110/149/110
f 103/141/103 102/140/102 108/147/108
f 103/141/103 108/147/108 110/149/110
f 103/141/103 110/149/110 115/158/116
f 108/147/108 107/146/107 110/149/110
f 85/119/85 110/149/110 84/118/84
f 84/118/84 110/149/110 92/127/93
f 110/149/110 109/148/109 92/127/93
f 14/14/14 89/123/89 117/159/117
f 89/123/89 14/14/14 88/122/88
f 117/159/117 2/2/2 14/14/14
f 89/123/89 90/124/90 117/159/117
f 117/159/117 118/160/118 119/161/119
f 2/2/2 120/162/120 121/163/121
f 117/159/117 119/161/119 2/2/2
f 2/2/2 119/161/119 120/162/120
f 120/162/120 122/164/122 121/163/121
f 119/161/119 123/165/123 120/162/120
f 120/162/120 124/166/124 122/164/122
f 90/124/90 118/160/118 117/159/117
f 93/126/92 125/167/125 90/124/90
f 125/167/125 118/160/118 90/124/90
f 118/160/118 125/167/125 123/165/123
f 93/155/92 114/156/114 125/168/125
f 118/160/118 123/165/123 119/161/119
f 125/167/125 126/169/126 123/165/123
f 123/165/123 124/166/124 120/162/120
f 123/165/123 126/169/126 127/170/127
f 125/168/125 114/156/114 126/171/126
f 2/2/2 121/163/121 8/8/8
f 8/8/8 11/11/11 7/7/7
f 8/8/8 121/163/121 11/11/11
f 121/163/121 128/172/128 11/11/11
f 122/164/122 128/172/128 121/163/121
f 122/164/122 124/166/124 128/172/128
f 11/11/11 12/12/12 9/9/9
f 11/11/11 129/173/129 12/12/12
f 128/172/128 130/174/130 11/11/11
f 11/11/11 130/174/130 131/175/131
f 129/173/129 11/11/11 131/175/131
f 123/165/123 127/170/127 124/166/124
f 128/172/128 124/166/124 132/176/132
f 124/166/124 127/170/127 132/176/132
f 126/171/126 133/177/133 127/178/127
f 127/178/127 133/177/133 132/179/132
f 128/172/128 132/176/132 130/174/130
f 132/176/132 131/175/131 130/174/130
f 135/180/134 134/181/135 132/179/132
f 88/122/88 14/14/14 104/142/104
f 104/142/104 14/14/14 136/182/136
f 14/14/14 13/13/13 136/182/136
f 104/142/104 136/182/136 106/151/106
f 13/13/13 137/183/137 136/182/136
f 13/13/13 16/16/16 137/183/137
f 137/183/137 138/184/138 136/182/136
f 16/16/16 139/185/139 137/183/137
f 137/183/137 140/186/140 138/184/138
f 139/185/139 140/186/140 137/183/137
f 106/151/106 136/182/136 112/152/112
f 138/184/138 112/152/112 136/182/136
f 112/152/112 141/187/141 114/156/114
f 138/184/138 141/187/141 112/152/112
f 138/184/138 142/188/142 141/187/141
f 114/156/114 141/187/141 126/171/126
f 141/187/141 143/189/143 126/171/126
f 141/187/141 142/188/142 143/189/143
f 16/16/16 23/27/23 139/185/139
f 23/27/23 144/190/144 139/185/139
f 139/185/139 145/191/145 140/186/140
f 139/185/139 144/190/144 146/192/146
f 146/192/146 145/191/145 139/185/139
f 25/31/25 147/193/147 23/27/23
f 23/27/23 147/193/147 144/190/144
f 24/30/24 147/193/147 25/31/25
f 24/194/24 71/195/71 147/196/147
f 147/196/147 71/195/71 148/197/148
f 144/190/144 147/193/147 146/192/146
f 147/193/147 149/198/149 146/192/146
f 138/184/138 140/186/140 142/188/142
f 146/192/146 143/189/143 142/188/142
f 126/171/126 143/189/143 133/177/133
f 132/179/132 133/177/133 135/180/134
f 140/186/140 145/191/145 142/188/142
f 146/192/146 142/188/142 145/191/145
f 135/180/134 143/189/143 146/192/146
f 146/192/146 150/199/150 135/180/134
f 135/180/134 151/200/151 134/181/135
f 135/180/134 152/201/152 151/200/151
f 143/189/143 135/180/134 133/177/133
f 149/198/149 150/199/150 146/192/146
f 42/202/42 12/12/12 129/173/129
f 42/202/42 129/173/129 153/203/153
f 44/57/44 42/54/42 153/204/153
f 129/173/129 131/175/131 153/203/153
f 153/204/153 47/205/47 44/57/44
f 153/204/153 154/206/154 47/205/47
f 153/204/153 155/207/155 154/206/154
f 49/208/49 46/209/46 47/205/47
f 47/205/47 156/210/156 49/208/49
f 47/205/47 154/206/154 156/210/156
f 154/206/154 155/207/155 157/211/157
f 156/210/156 158/212/158 49/208/49
f 157/211/157 156/210/156 154/206/154
f 156/210/156 157/211/157 158/212/158
f 157/213/157 159/214/159 158/215/158
f 131/175/131 155/216/155 153/203/153
f 132/176/132 155/216/155 131/175/131
f 132/176/132 134/217/135 155/216/155
f 134/218/135 160/219/160 155/220/155
f 160/219/160 161/221/161 155/220/155
f 151/222/151 160/219/160 134/218/135
f 160/219/160 151/222/151 162/223/162
f 161/221/161 163/224/163 155/220/155
f 159/214/159 164/225/164 158/215/158
f 158/215/158 164/225/164 162/226/162
f 160/219/160 165/227/165 161/221/161
f 162/223/162 165/227/165 160/219/160
f 161/221/161 165/227/165 163/224/163
f 165/227/165 162/223/162 166/228/166
f 157/213/157 167/229/167 159/214/159
f 167/229/167 168/230/168 159/214/159
f 167/229/167 169/231/169 168/230/168
f 169/231/169 170/232/170 168/230/168
f 167/229/167 157/213/157 171/233/171
f 155/220/155 171/234/171 157/235/157
f 155/220/155 163/224/163 171/234/171
f 172/236/172 166/228/166 164/237/164
f 171/234/171 163/224/163 173/238/173
f 173/238/173 174/239/174 171/234/171
f 159/214/159 172/240/172 164/225/164
f 159/214/159 168/230/168 172/240/172
f 165/227/165 166/228/166 163/224/163
f 162/223/162 164/237/164 166/228/166
f 163/224/163 166/228/166 173/238/173
f 175/241/175 173/238/173 166/228/166
f 166/228/166 172/236/172 175/241/175
f 167/229/167 171/233/171 174/242/174
f 176/243/176 172/236/172 168/244/168
f 172/236/172 176/243/176 175/241/175
f 167/229/167 177/245/177 169/231/169
f 167/229/167 174/242/174 177/245/177
f 174/239/174 175/241/175 177/246/177
f 168/244/168 170/247/170 176/243/176
f 173/238/173 175/241/175 174/239/174
f 178/248/178 70/249/70 66/91/66
f 179/250/179 180/251/180 181/252/181
f 179/250/179 182/253/182 180/251/180
f 71/195/71 70/249/70 183/254/183
f 178/248/178 183/254/183 70/249/70
f 71/195/71 183/254/183 184/255/184
f 147/193/147 148/256/148 149/198/149
f 71/195/71 184/255/184 148/197/148
f 49/65/49 181/257/181 66/91/66
f 66/91/66 181/257/181 178/248/178
f 49/65/49 179/258/179 181/257/181
f 49/65/49 158/259/158 179/258/179
f 158/260/158 182/253/182 179/250/179
f 180/251/180 185/261/185 181/252/181
f 186/262/186 181/252/181 185/261/185
f 178/248/178 181/257/181 186/263/186
f 186/263/186 187/264/187 178/248/178
f 183/254/183 178/248/178 188/265/188
f 183/254/183 188/265/188 189/266/189
f 178/248/178 187/264/187 188/265/188
f 183/254/183 189/266/189 184/255/184
f 189/267/189 190/268/190 184/269/184
f 150/199/150 191/270/191 152/201/152
f 152/271/152 191/272/191 185/261/185
f 152/201/152 135/180/134 150/199/150
f 182/253/182 151/273/151 152/271/152
f 182/253/182 152/271/152 180/251/180
f 152/271/152 185/261/185 180/251/180
f 191/270/191 150/199/150 149/198/149
f 148/256/148 191/270/191 149/198/149
f 185/261/185 192/274/192 186/262/186
f 191/272/191 193/275/193 185/261/185
f 185/261/185 193/275/193 192/274/192
f 148/276/148 193/275/193 191/272/191
f 148/276/148 184/269/184 193/275/193
f 158/260/158 162/277/162 182/253/182
f 182/253/182 162/277/162 151/273/151
f 184/269/184 190/268/190 193/275/193
f 190/268/190 194/278/194 193/275/193
f 193/275/193 194/278/194 192/274/192
f 195/279/195 186/262/186 192/274/192
f 194/278/194 195/279/195 192/274/192
f 190/268/190 189/267/189 194/278/194
f 194/278/194 196/280/196 195/279/195
f 188/265/188 196/281/196 189/266/189
f 189/267/189 196/280/196 194/278/194
f 187/264/187 197/282/197 188/265/188
f 186/263/186 198/283/198 187/264/187
f 198/284/198 186/262/186 195/279/195
f 187/264/187 198/283/198 197/282/197
f 197/282/197 198/283/198 200/285/199
f 197/282/197 200/285/199 188/265/188
f 188/265/188 200/285/199 201/286/200
f 198/283/198 199/287/201 200/285/199
f 201/286/200 200/285/199 199/287/201
f 195/279/195 199/288/201 198/284/198
f 195/279/195 196/280/196 199/288/201
f 188/265/188 201/286/200 196/281/196
f 199/287/201 196/281/196 201/286/200
f 169/231/169 177/245/177 170/232/170
f 176/243/176 177/246/177 175/241/175
f 177/246/177 176/243/176 170/247/170
f 204/289/202 205/290/203 202/291/204
f 209/292/205 208/293/206 210/294/207
f 208/293/206 212/295/208 213/296/209
f 207/297/210 212/295/208 208/293/206
f 207/297/210 211/298/211 212/295/208
f 212/295/208 214/299/212 213/296/209
f 215/300/213 216/301/214 214/299/212
f 218/302/215 219/303/216 221/304/217
f 219/303/216 222/305/218 221/304/217
f 204/289/202 224/306/219 205/290/203
f 224/306/219 225/307/220 205/290/203
f 226/308/221 205/290/203 225/307/220
f 226/308/221 225/307/220 213/296/209
f 213/296/209 225/307/220 203/309/222
f 208/293/206 213/296/209 210/294/207
f 210/294/207 213/296/209 203/309/222
f 213/296/209 227/310/223 226/308/221
f 227/310/223 228/311/224 226/308/221
f 213/296/209 214/299/212 227/310/223
f 229/312/225 227/310/223 214/299/212
f 229/312/225 228/311/224 227/310/223
f 229/312/225 230/313/226 228/311/224
f 228/311/224 230/313/226 231/314/227
f 229/312/225 214/299/212 232/315/228
f 230/313/226 229/312/225 233/316/229
f 233/317/229 234/318/230 230/319/226
f 230/319/226 234/318/230 235/320/231
f 230/319/226 235/320/231 236/321/232
f 235/320/231 237/322/233 238/323/234
f 214/299/212 216/301/214 239/324/235
f 217/325/236 240/326/237 216/301/214
f 217/327/236 241/328/238 240/329/237
f 232/315/228 233/316/229 229/312/225
f 233/317/229 242/330/239 234/318/230
f 243/331/240 235/320/231 234/318/230
f 243/331/240 244/332/241 235/320/231
f 235/320/231 244/332/241 237/322/233
f 245/333/242 206/334/243 202/291/204
f 205/290/203 246/335/244 202/291/204
f 246/335/244 205/290/203 226/308/221
f 245/333/242 202/291/204 246/335/244
f 245/333/242 246/335/244 247/336/245
f 220/337/246 245/338/242 222/305/218
f 245/333/242 247/336/245 222/339/218
f 248/340/247 247/336/245 246/335/244
f 228/311/224 231/314/227 226/308/221
f 231/314/227 248/340/247 226/308/221
f 246/335/244 226/308/221 248/340/247
f 219/303/216 220/337/246 222/305/218
f 247/336/245 249/341/248 222/339/218
f 222/305/218 223/342/249 221/304/217
f 250/343/250 223/342/249 222/305/218
f 222/344/218 249/345/248 251/346/251
f 222/344/218 251/346/251 250/347/250
f 248/340/247 249/341/248 247/336/245
f 249/345/248 252/348/252 251/346/251
f 251/346/251 252/348/252 253/349/253
f 231/350/227 255/351/254 248/352/247
f 255/351/254 231/350/227 230/353/226
f 255/351/254 256/354/255 257/355/256
f 255/351/254 258/356/257 249/345/248
f 249/345/248 248/352/247 255/351/254
f 258/356/257 252/348/252 249/345/248
f 258/356/257 259/357/258 252/348/252
f 255/351/254 257/355/256 258/356/257
f 255/351/254 230/353/226 236/358/232
f 255/351/254 236/358/232 260/359/259
f 258/356/257 261/360/260 259/357/258
f 261/360/260 262/361/261 259/357/258
f 240/326/237 239/324/235 216/301/214
f 263/362/262 223/342/249 250/343/250
f 214/299/212 239/324/235 232/315/228
f 239/324/235 264/363/263 232/315/228
f 240/326/237 264/363/263 239/324/235
f 240/364/237 253/349/253 264/365/263
f 253/349/253 240/364/237 250/347/250
f 250/347/250 251/346/251 253/349/253
f 250/366/250 265/367/264 263/368/262
f 250/366/250 266/369/265 265/367/264
f 232/315/228 264/363/263 233/316/229
f 264/365/263 253/349/253 267/370/266
f 267/370/266 253/349/253 254/371/267
f 233/317/229 264/365/263 268/372/268
f 233/317/229 268/372/268 242/330/239
f 264/365/263 267/370/266 268/372/268
f 268/372/268 267/370/266 242/330/239
f 252/348/252 254/371/267 253/349/253
f 267/370/266 254/371/267 242/330/239
f 242/330/239 254/371/267 269/373/269
f 234/318/230 242/330/239 243/331/240
f 242/330/239 269/373/269 243/331/240
f 254/371/267 270/374/270 269/373/269
f 252/348/252 270/374/270 254/371/267
f 252/348/252 259/357/258 270/374/270
f 243/331/240 271/375/271 244/332/241
f 243/331/240 269/373/269 271/375/271
f 269/373/269 270/374/270 272/376/272
f 259/357/258 262/361/261 270/374/270
f 236/321/232 235/320/231 238/323/234
f 236/321/232 238/323/234 260/377/259
f 260/377/259 238/323/234 273/378/273
f 238/323/234 237/322/233 273/378/273
f 260/377/259 273/378/273 274/379/274
f 274/380/274 275/381/275 276/382/276
f 274/379/274 277/383/277 275/384/275
f 275/384/275 278/385/278 75/386/75
f 75/386/75 79/112/81 76/114/76
f 273/378/273 237/322/233 271/375/271
f 274/379/274 273/378/273 277/383/277
f 275/384/275 277/383/277 278/385/278
f 75/386/75 278/385/278 79/112/81
f 260/359/259 256/354/255 255/351/254
f 276/382/276 256/354/255 260/359/259
f 257/355/256 261/360/260 258/356/257
f 257/355/256 279/387/279 261/360/260
f 256/354/255 279/387/279 257/355/256
f 261/360/260 279/387/279 262/361/261
f 274/380/274 276/382/276 260/359/259
f 276/382/276 280/388/280 256/354/255
f 280/388/280 279/387/279 256/354/255
f 279/387/279 280/388/280 281/389/281
f 276/382/276 282/390/282 280/388/280
f 75/391/75 78/129/78 282/390/282
f 78/129/78 94/131/94 282/390/282
f 280/388/280 282/390/282 94/131/94
f 282/390/282 276/382/276 275/381/275
f 282/390/282 275/381/275 75/391/75
f 280/388/280 99/137/99 283/392/283
f 280/388/280 283/392/283 281/389/281
f 280/388/280 94/131/94 99/137/99
f 99/137/99 284/393/284 283/392/283
f 99/137/99 100/138/100 284/393/284
f 271/375/271 237/322/233 244/332/241
f 271/375/271 277/383/277 273/378/273
f 271/375/271 269/373/269 272/376/272
f 272/376/272 270/374/270 285/394/285
f 262/361/261 285/394/285 270/374/270
f 277/383/277 272/376/272 286/395/286
f 277/383/277 286/395/286 278/385/278
f 277/383/277 271/375/271 272/376/272
f 272/376/272 285/394/285 287/396/287
f 272/376/272 287/396/287 286/395/286
f 279/387/279 281/389/281 262/361/261
f 262/361/261 281/389/281 285/394/285
f 285/394/285 281/389/281 287/396/287
f 281/389/281 288/397/288 287/396/287
f 278/385/278 286/395/286 79/112/81
f 287/396/287 288/397/288 286/395/286
f 288/397/288 289/398/289 286/395/286
f 286/395/286 289/398/289 79/112/81
f 288/397/288 284/393/284 289/398/289
f 281/389/281 283/392/283 288/397/288
f 283/392/283 284/393/284 288/397/288
f 79/112/81 289/398/289 115/158/116
f 115/158/116 289/398/289 116/157/115
f 100/138/100 289/398/289 284/393/284
f 100/138/100 101/139/101 116/157/115
f 100/138/100 116/157/115 289/398/289
