# Blender 4.3.2
# www.blender.org
o Mesh_0022
v -0.130374 1.195100 0.150399
v 0.011126 1.240800 0.105527
v -0.006557 1.295800 0.105504
v -0.148204 1.250400 0.150097
v -0.024091 1.289800 0.043520
v -0.178071 1.240000 0.093202
v -0.183199 1.238500 0.026197
v -0.041552 1.283600 -0.018396
v -0.024011 1.227800 -0.018370
v -0.165507 1.182000 0.026643
v -0.006477 1.234400 0.043614
v -0.160310 1.184100 0.093577
v 0.080289 1.296600 0.105088
v 0.063174 1.241400 0.105194
v 0.206175 1.199300 0.148204
v 0.223367 1.252900 0.148450
v 0.252837 1.242800 0.091268
v 0.097266 1.290800 0.042885
v 0.257256 1.241400 0.024259
v 0.114102 1.285000 -0.019313
v 0.239988 1.187500 0.023802
v 0.096919 1.229300 -0.019136
v 0.235640 1.189500 0.090881
v 0.080083 1.235400 0.043063
v 0.145073 1.181000 -0.063303
v 0.165539 1.216400 -0.055917
v 0.166534 1.218700 0.090681
v 0.144485 1.183400 0.072793
v 0.114012 1.185900 -0.138490
v 0.035674 1.184000 -0.187070
v 0.035597 1.220100 -0.137486
v 0.094064 1.221300 -0.101258
v 0.037722 1.218300 0.189728
v 0.037963 1.183200 0.150538
v 0.173589 1.295000 -0.068973
v 0.174411 1.296200 0.104295
v 0.035631 1.300000 -0.164011
v 0.104504 1.300700 -0.121157
v 0.037267 1.295800 0.191506
v 0.169527 1.380200 -0.067182
v 0.170315 1.381300 0.101488
v 0.035083 1.385200 -0.160109
v 0.102306 1.385900 -0.118278
v 0.036659 1.381000 0.186498
v 0.117653 1.440800 0.068593
v 0.117221 1.440100 -0.034591
v 0.034935 1.445700 -0.094964
v 0.076045 1.446200 -0.069374
v 0.035361 1.461900 0.017202
v 0.035115 1.457100 -0.043477
v 0.036008 1.440600 0.120452
v 0.035181 1.450600 -0.034284
v 0.076112 1.439700 -0.060181
v 0.120857 1.181455 -0.006177
v 0.037230 1.175900 0.034064
v 0.094803 1.177702 -0.102905
v 0.114152 1.179400 -0.129227
v 0.038622 1.174100 -0.144417
v 0.102373 1.379400 -0.109085
v 0.104499 1.294100 -0.112033
v 0.094130 1.214800 -0.092065
v -0.092294 1.215300 0.092457
v -0.093147 1.213200 -0.054145
v -0.071958 1.178000 -0.061700
v -0.069649 1.180400 0.074261
v -0.042131 1.183800 -0.137349
v -0.022338 1.219900 -0.100453
v -0.100699 1.294300 0.105449
v -0.101448 1.293100 -0.067749
v -0.033049 1.299700 -0.120509
v -0.098437 1.378400 -0.065978
v -0.097649 1.379500 0.102692
v -0.031640 1.385100 -0.117642
v -0.046137 1.439700 0.069341
v -0.046571 1.439000 -0.033842
v -0.005781 1.445600 -0.069002
v -0.031487 1.178600 0.010587
v -0.029262 1.174000 -0.106378
v -0.005786 1.439100 -0.059877
v -0.031572 1.378600 -0.108448
v -0.032985 1.293100 -0.111458
v -0.022270 1.213400 -0.091261
v -0.041922 1.177300 -0.128159
v 0.073101 1.033500 0.087570
v 0.059738 0.744900 0.059723
v 0.039889 1.024300 0.026648
v 0.031946 0.747000 0.116018
v 0.073499 0.751300 0.098877
v 0.053050 0.519300 0.082932
v 0.066642 0.519600 0.120817
v 0.034800 0.402000 0.110860
v 0.044992 0.412800 0.136092
v -0.011288 0.299900 0.146351
v 0.016430 0.419200 0.146006
v 0.007914 0.415800 0.116705
v 0.016587 0.525400 0.099957
v 0.020262 0.740500 0.071794
v 0.005955 1.017100 0.055356
v 0.027842 1.242400 0.003793
v -0.030101 1.212600 0.031137
v 0.017231 1.027000 0.106520
v -0.012170 1.230800 0.082574
v 0.074183 1.252400 0.063567
v 0.030178 0.525700 0.137842
v -0.011612 0.435600 -0.185642
v -0.035842 0.422400 -0.171866
v -0.011067 0.321700 -0.227032
v -0.036005 0.537800 -0.132325
v 0.103319 1.221100 -0.070559
v 0.021553 1.043900 -0.136107
v 0.070136 1.244000 -0.111536
v -0.023927 1.051100 -0.098791
v -0.013150 0.766300 -0.156820
v -0.046053 0.770900 -0.126297
v -0.061601 0.541600 -0.163147
v -0.053189 0.435500 -0.191347
v -0.029422 0.441600 -0.209993
v -0.007219 0.543800 -0.160421
v -0.020227 0.760900 -0.094702
v 0.012515 0.756000 -0.119847
v 0.027315 1.035900 -0.053697
v 0.048925 1.029700 -0.092523
v 0.060118 1.251000 -0.023181
v -0.032816 0.547600 -0.191244
v -0.003163 1.267400 -0.062766
v -0.104890 0.359000 -0.128993
v -0.083933 0.359500 -0.103157
v -0.101795 0.206700 -0.120364
v -0.098267 0.482200 -0.058485
v -0.110590 0.355300 -0.084092
v -0.130003 0.363600 -0.107346
v -0.091637 0.492800 -0.127808
v -0.124254 0.490200 -0.097149
v -0.097765 0.769600 -0.086222
v -0.090726 0.764800 -0.037862
v -0.063716 1.055800 -0.060047
v -0.068677 1.056100 -0.007524
v -0.017621 1.042400 -0.014200
v -0.044223 0.755600 -0.039483
v -0.057495 0.766700 -0.113165
v -0.063300 0.485000 -0.094643
v -0.018958 0.752200 -0.063751
v -0.028358 1.267000 0.017588
v 0.017046 0.343200 -0.060466
v -0.042517 0.240500 -0.076443
v -0.023575 0.353900 -0.058343
v -0.011570 0.232800 -0.077853
v -0.075774 0.098300 -0.108223
v 0.052917 0.598100 0.014752
v 0.042571 0.479700 -0.042161
v 0.052257 0.601800 -0.036086
v 0.043084 0.473900 0.005356
v 0.002031 0.601800 0.016474
v -0.004477 0.479700 0.007074
v 0.002887 0.605400 -0.033056
v -0.003548 0.485600 -0.039204
v -0.023853 0.343200 -0.017667
v -0.042521 0.232800 -0.045464
v -0.011645 0.225100 -0.046943
v 0.016694 0.332500 -0.019861
v 0.011209 0.756400 0.025106
v 0.009032 0.757700 -0.027183
v 0.005840 0.880500 0.031594
v 0.068136 0.881200 0.027775
v 0.064267 0.755100 0.025599
v 0.061367 0.756400 -0.027382
v 0.002996 0.879700 -0.034473
v 0.069124 0.880500 -0.034630
v 0.005373 1.171454 -0.072614
v 0.067649 1.213100 -0.043508
v 0.070616 1.212300 0.027931
v 0.153442 0.390400 -0.137051
v 0.150449 0.503000 -0.081956
v 0.122512 0.489700 -0.084999
v 0.130487 0.725200 -0.039065
v 0.087881 0.721500 -0.040220
v 0.148819 0.513100 -0.113252
v 0.116866 0.506900 -0.112527
v 0.090400 0.732700 -0.081936
v 0.073006 1.008500 -0.019441
v 0.077522 1.013700 -0.066579
v 0.039469 1.213100 0.008127
v 0.044892 1.224200 -0.052116
v 0.124595 1.020800 -0.064889
v 0.128688 1.185200 -0.074671
v 0.120150 1.015600 -0.017683
v 0.099579 1.225700 0.010793
v 0.133074 0.736400 -0.080855
v 0.146048 0.468500 0.076223
v 0.145580 0.747700 0.030684
v 0.135709 0.749100 0.078792
v 0.095778 1.030300 0.005362
v 0.146553 1.041100 0.017506
v 0.123867 1.038000 0.064985
v 0.088579 0.747200 0.090188
v 0.105008 0.471300 0.094130
v 0.143041 0.341400 0.077776
v 0.111898 0.337100 0.089235
v 0.068885 0.738200 0.029597
v 0.125430 1.255300 -0.003232
v 0.089497 0.467300 0.052752
v 0.101074 0.340400 0.058006
v 0.106115 0.186100 0.068217
v 0.132553 0.335700 0.048804
v 0.134683 0.464500 0.030507
v 0.101036 0.741400 0.015782
v 0.050960 1.178500 0.074987
v 0.032445 1.197600 -0.008406
v 0.134520 1.169093 0.065961
vn -0.1083 -0.6465 0.7552
vn 0.4116 -0.6058 0.6809
vn -0.0231 0.7379 0.6745
vn -0.4729 0.4727 0.7436
vn -0.3070 0.9517 -0.0064
vn -0.8861 0.4105 0.2151
vn -0.8136 0.3588 -0.4575
vn -0.4080 0.6096 -0.6797
vn 0.0256 -0.7377 -0.6747
vn -0.4547 -0.7685 -0.4502
vn 0.3117 -0.9501 0.0115
vn -0.4756 -0.8499 0.2268
vn 0.0209 0.7367 0.6759
vn -0.3877 -0.6184 0.6836
vn 0.1240 -0.6505 0.7493
vn 0.4753 0.4726 0.7421
vn 0.8871 0.4122 0.2075
vn 0.2949 0.9555 -0.0087
vn 0.8089 0.3654 -0.4607
vn 0.3949 0.6120 -0.6851
vn 0.4582 -0.7587 -0.4630
vn -0.0150 -0.7437 -0.6683
vn 0.4888 -0.8457 0.2143
vn -0.2860 -0.9581 0.0150
vn 0.5713 -0.8097 -0.1341
vn 0.8966 -0.2381 -0.3734
vn 0.8340 -0.3777 0.4023
vn 0.4918 -0.8422 0.2212
vn 0.8283 0.0466 -0.5584
vn -0.0069 -0.1488 -0.9888
vn -0.0140 0.3887 -0.9213
vn 0.9222 0.1536 -0.3548
vn 0.0086 -0.3871 0.9220
vn 0.0162 -0.8771 0.4800
vn 0.8660 -0.0575 -0.4968
vn 0.8770 -0.0403 0.4788
vn -0.0020 -0.1295 -0.9916
vn 0.8571 -0.0804 -0.5089
vn 0.0044 0.0178 0.9998
vn 0.8063 0.3760 -0.4566
vn 0.8104 0.3818 0.4443
vn -0.0067 0.3776 -0.9259
vn 0.8294 0.3410 -0.4425
vn 0.0014 0.3898 0.9209
vn 0.4716 0.8466 0.2467
vn 0.4696 0.8431 -0.2620
vn -0.0088 0.8472 -0.5313
vn 0.6416 0.7646 -0.0602
vn -0.0068 1.0000 -0.0065
vn -0.0055 0.9531 0.3026
vn -0.0032 0.8548 0.5190
vn -0.0070 0.9983 0.0585
vn 0.5617 0.8263 -0.0422
vn 0.0353 -0.9990 0.0256
vn 0.0197 -0.9979 0.0624
vn 0.0681 -0.9977 -0.0044
vn 0.7443 -0.6078 -0.2767
vn 0.0403 -0.9939 -0.1023
vn 0.8962 0.2776 -0.3460
vn 0.8567 -0.1137 -0.5032
vn 0.8039 0.2807 -0.5243
vn -0.8229 -0.3872 0.4160
vn -0.8989 -0.2481 -0.3610
vn -0.5683 -0.8134 -0.1239
vn -0.4713 -0.8512 0.2308
vn -0.8379 0.0250 -0.5452
vn -0.9280 0.1474 -0.3423
vn -0.8721 -0.0466 0.4871
vn -0.8694 -0.0641 -0.4899
vn -0.8589 -0.0862 -0.5049
vn -0.8152 0.3655 -0.4493
vn -0.8112 0.3711 0.4519
vn -0.8370 0.3316 -0.4353
vn -0.4807 0.8402 0.2510
vn -0.4830 0.8370 -0.2574
vn -0.6513 0.7568 -0.0555
vn -0.1863 -0.9679 0.1684
vn -0.0747 -0.9970 -0.0201
vn -0.5735 0.8182 -0.0404
vn -0.9020 0.2681 -0.3384
vn -0.8600 -0.1173 -0.4966
vn -0.8141 0.2670 -0.5158
vn -0.7373 -0.6043 -0.3019
vn 0.3498 0.0717 0.9341
vn 0.4687 -0.1089 -0.8766
vn -0.4997 -0.1033 -0.8600
vn -0.4431 0.0430 0.8954
vn 0.9164 0.0132 0.4001
vn 0.3896 -0.1715 -0.9049
vn 0.9284 -0.0586 0.3670
vn 0.4636 -0.3871 -0.7970
vn 0.8562 -0.2264 0.4645
vn -0.3079 -0.9378 0.1604
vn -0.4311 0.1043 0.8963
vn -0.8687 -0.0123 -0.4952
vn -0.9189 0.0018 -0.3945
vn -0.8646 -0.0866 -0.4949
vn -0.9379 -0.1156 -0.3270
vn -0.2310 -0.0959 -0.9682
vn -0.8722 -0.1966 -0.4479
vn -0.4591 0.0084 0.8883
vn -0.4066 0.0271 0.9132
vn 0.5378 0.1342 0.8324
vn -0.3565 0.1224 0.9263
vn 0.9824 -0.0854 0.1661
vn -0.1920 -0.4301 0.8821
vn 0.1749 -0.9337 -0.3125
vn -0.0690 -0.2263 0.9716
vn 0.9583 -0.2644 0.1082
vn 0.1295 0.0598 -0.9898
vn 0.0727 0.0823 -0.9940
vn -0.6401 0.1578 -0.7519
vn 0.1138 0.0961 -0.9888
vn -0.9950 0.0800 -0.0602
vn -0.9996 0.0062 -0.0287
vn -0.9754 -0.1557 -0.1562
vn 0.1059 0.1573 -0.9818
vn 0.9964 -0.0644 0.0543
vn -0.1491 -0.1589 0.9760
vn 0.9742 -0.1581 0.1608
vn 0.7538 -0.1896 0.6292
vn 0.9839 -0.1773 -0.0215
vn 0.5390 -0.1801 0.8228
vn 0.0275 0.1803 -0.9832
vn -0.7789 0.2191 -0.5876
vn 0.0589 -0.0323 -0.9977
vn 0.9787 -0.1709 0.1138
vn 0.0334 -0.9951 -0.0935
vn -0.0994 -0.1577 0.9825
vn -0.1689 -0.2045 0.9642
vn -0.9948 -0.0486 -0.0893
vn 0.0503 0.0234 -0.9985
vn -0.9930 0.0471 -0.1081
vn -0.9059 0.1308 -0.4027
vn -0.6474 0.0054 0.7621
vn -0.8926 0.1776 -0.4144
vn -0.7248 0.0485 0.6872
vn 0.3779 -0.1461 0.9142
vn 0.3823 -0.1299 0.9149
vn 0.1443 0.0305 -0.9891
vn 0.9873 -0.1587 0.0069
vn 0.9826 -0.1667 0.0816
vn -0.6615 0.1124 0.7415
vn 0.6913 -0.0459 -0.7211
vn -0.6973 0.2648 -0.6660
vn -0.7080 0.2115 -0.6738
vn 0.6865 -0.1115 -0.7185
vn -0.3227 -0.8949 -0.3083
vn 0.7196 -0.1043 0.6865
vn 0.7006 -0.0241 -0.7132
vn 0.6798 -0.0118 -0.7333
vn 0.7119 -0.1803 0.6788
vn -0.7019 -0.0115 0.7122
vn -0.6822 -0.0262 0.7307
vn -0.7205 0.0753 -0.6894
vn -0.7168 0.1361 -0.6839
vn -0.6903 -0.0437 0.7222
vn -0.6869 -0.1113 0.7182
vn 0.6436 -0.4558 0.6148
vn 0.6902 -0.2989 0.6590
vn -0.6818 -0.0301 0.7310
vn -0.7245 -0.0110 -0.6892
vn -0.6512 -0.0711 0.7556
vn 0.7245 -0.0312 0.6886
vn 0.7203 -0.0592 0.6911
vn 0.6990 -0.0392 -0.7141
vn -0.7175 -0.1229 -0.6857
vn 0.7262 -0.0810 -0.6827
vn -0.1935 -0.9662 -0.1703
vn 0.8947 -0.0145 -0.4464
vn 0.7667 0.0206 0.6417
vn 0.1581 -0.9332 -0.3228
vn 0.7114 -0.1613 0.6840
vn -0.6096 -0.3987 0.6851
vn 0.6590 -0.0616 0.7496
vn -0.7277 -0.1544 0.6683
vn 0.6851 0.1604 -0.7105
vn -0.7646 -0.0497 -0.6425
vn -0.6903 0.0160 -0.7234
vn -0.7383 -0.1451 0.6587
vn -0.6429 -0.0183 -0.7657
vn -0.7318 -0.2067 0.6495
vn -0.8211 -0.1165 -0.5588
vn 0.7426 0.0377 -0.6687
vn 0.3876 -0.8099 -0.4402
vn 0.6683 -0.0610 0.7414
vn 0.4668 -0.0739 0.8813
vn 0.7423 0.1028 -0.6621
vn 0.8964 -0.0222 0.4426
vn 0.8692 0.0104 -0.4943
vn 0.7169 0.0490 0.6955
vn -0.0472 -0.0667 -0.9967
vn 0.9179 0.0441 -0.3943
vn 0.7032 0.0959 0.7045
vn -0.4738 -0.0200 0.8804
vn -0.3888 -0.0337 0.9207
vn 0.9012 -0.1163 0.4175
vn -0.3974 -0.0886 0.9134
vn -0.8999 -0.0993 -0.4246
vn 0.8795 0.1155 -0.4616
vn -0.9301 -0.0955 -0.3546
vn -0.8867 -0.1017 -0.4509
vn -0.1015 -0.9948 -0.0013
vn 0.4819 -0.1565 -0.8622
vn 0.4252 -0.1043 -0.8991
vn -0.0496 -0.0503 -0.9975
vn -0.0320 -0.9758 -0.2164
vn 0.0695 -0.9968 -0.0402
vn -0.1671 -0.9753 -0.1445
vt 0.911592 0.919183
vt 0.917410 0.931052
vt 0.911592 0.933299
vt 0.911592 0.922309
vt 0.907193 0.933837
vt 0.907193 0.922309
vt 0.902601 0.922309
vt 0.902601 0.933299
vt 0.897649 0.931297
vt 0.902601 0.919183
vt 0.907193 0.907607
vt 0.907193 0.919183
vt 0.902601 0.908290
vt 0.911592 0.908290
vt 0.940481 0.923474
vt 0.943607 0.925892
vt 0.930264 0.936859
vt 0.928318 0.934881
vt 0.896077 0.919235
vt 0.888073 0.920579
vt 0.888073 0.915131
vt 0.895526 0.912641
vt 0.928991 0.948263
vt 0.925120 0.948239
vt 0.947646 0.930435
vt 0.935770 0.937738
vt 0.888073 0.903531
vt 0.897208 0.903067
vt 0.934328 0.948263
vt 0.953295 0.936394
vt 0.942116 0.940301
vt 0.888073 0.893689
vt 0.897039 0.891392
vt 0.939279 0.948263
vt 0.946685 0.943233
vt 0.953704 0.940643
vt 0.888073 0.886460
vt 0.893313 0.882698
vt 0.950723 0.948263
vt 0.888073 0.879670
vt 0.942741 0.948263
vt 0.888073 0.878473
vt 0.893987 0.881746
vt 0.925674 0.932047
vt 0.920481 0.948214
vt 0.942260 0.918077
vt 0.897184 0.919235
vt 0.893410 0.924363
vt 0.888073 0.920701
vt 0.954713 0.948263
vt 0.956709 0.945113
vt 0.958391 0.938323
vt 0.952045 0.928481
vt 0.946828 0.923278
vt 0.946011 0.918737
vt 0.896655 0.912713
vt 0.898241 0.903849
vt 0.898410 0.891710
vt 0.930264 0.959669
vt 0.943607 0.970634
vt 0.940457 0.973028
vt 0.928341 0.961524
vt 0.880043 0.919235
vt 0.880596 0.912641
vt 0.935770 0.958790
vt 0.947646 0.966093
vt 0.878914 0.903067
vt 0.953295 0.960109
vt 0.942116 0.956225
vt 0.879081 0.891392
vt 0.946685 0.953295
vt 0.953704 0.955884
vt 0.882809 0.882698
vt 0.925674 0.964407
vt 0.942213 0.978426
vt 0.956709 0.951413
vt 0.958391 0.958203
vt 0.952045 0.968046
vt 0.946828 0.973248
vt 0.946011 0.977790
vt 0.882712 0.924363
vt 0.878937 0.919235
vt 0.879467 0.912713
vt 0.877880 0.903849
vt 0.877736 0.891710
vt 0.882135 0.881746
vt 0.823289 0.953055
vt 0.824893 0.938750
vt 0.826565 0.952976
vt 0.820264 0.938818
vt 0.822994 0.939155
vt 0.823187 0.927981
vt 0.821867 0.928229
vt 0.821709 0.922789
vt 0.821015 0.923566
vt 0.820229 0.917179
vt 0.819923 0.923532
vt 0.818739 0.923206
vt 0.818262 0.928252
vt 0.816727 0.927745
vt 0.815988 0.938592
vt 0.817750 0.938558
vt 0.815328 0.952458
vt 0.817454 0.952188
vt 0.814418 0.963519
vt 0.817170 0.962247
vt 0.820332 0.952492
vt 0.819570 0.962833
vt 0.822766 0.964308
vt 0.817784 0.922226
vt 0.820071 0.928308
vt 0.868678 0.884709
vt 0.869705 0.883668
vt 0.867108 0.878309
vt 0.870829 0.889529
vt 0.870345 0.926170
vt 0.866987 0.915811
vt 0.867796 0.926792
vt 0.863859 0.916409
vt 0.867072 0.901288
vt 0.864173 0.901647
vt 0.865369 0.890044
vt 0.863968 0.889781
vt 0.865538 0.884266
vt 0.866274 0.885092
vt 0.867434 0.885056
vt 0.869186 0.890068
vt 0.871601 0.901049
vt 0.869741 0.901013
vt 0.872314 0.915775
vt 0.870043 0.915488
vt 0.873280 0.927533
vt 0.867277 0.890140
vt 0.864403 0.928359
vt 0.862156 0.901217
vt 0.860381 0.916325
vt 0.850820 0.885379
vt 0.852208 0.884948
vt 0.849116 0.877232
vt 0.847087 0.885462
vt 0.846749 0.891324
vt 0.848150 0.885570
vt 0.849443 0.885929
vt 0.851894 0.891718
vt 0.849382 0.891695
vt 0.850107 0.905846
vt 0.846894 0.905870
vt 0.850530 0.920679
vt 0.847510 0.920990
vt 0.844442 0.920822
vt 0.844212 0.905666
vt 0.853138 0.905798
vt 0.854057 0.891144
vt 0.856073 0.905559
vt 0.855554 0.921241
vt 0.853127 0.920750
vt 0.851629 0.932474
vt 0.848054 0.932438
vt 0.843573 0.932940
vt 0.841386 0.920655
vt 0.842376 0.905247
vt 0.845131 0.891300
vt 0.861349 0.930681
vt 0.861952 0.925813
vt 0.863269 0.930514
vt 0.860600 0.926207
vt 0.858957 0.920322
vt 0.860008 0.941531
vt 0.861904 0.936351
vt 0.862351 0.941387
vt 0.859767 0.936495
vt 0.857664 0.941662
vt 0.857640 0.936614
vt 0.855370 0.941746
vt 0.855503 0.936663
vt 0.857616 0.930921
vt 0.855708 0.930981
vt 0.857918 0.926375
vt 0.856517 0.926147
vt 0.859271 0.926398
vt 0.859476 0.930729
vt 0.857834 0.948182
vt 0.855370 0.948182
vt 0.857749 0.953397
vt 0.860564 0.953290
vt 0.860310 0.948098
vt 0.862786 0.947918
vt 0.854706 0.953361
vt 0.863378 0.953075
vt 0.864066 0.936148
vt 0.864658 0.941196
vt 0.865238 0.947608
vt 0.866385 0.952644
vt 0.867823 0.966460
vt 0.864537 0.966711
vt 0.861240 0.966891
vt 0.857943 0.967094
vt 0.854657 0.967261
vt 0.826849 0.923740
vt 0.828479 0.917053
vt 0.830110 0.917902
vt 0.828769 0.904983
vt 0.831378 0.905091
vt 0.826559 0.916850
vt 0.824663 0.917113
vt 0.823009 0.918118
vt 0.820991 0.905306
vt 0.823551 0.904803
vt 0.819831 0.889576
vt 0.822718 0.889301
vt 0.817778 0.878260
vt 0.821438 0.877626
vt 0.825581 0.889002
vt 0.825122 0.877147
vt 0.828468 0.889050
vt 0.828854 0.877399
vt 0.831354 0.889313
vt 0.832550 0.877925
vt 0.826172 0.904660
vt 0.835554 0.924030
vt 0.838054 0.938194
vt 0.834841 0.938170
vt 0.840494 0.953146
vt 0.837438 0.953325
vt 0.834418 0.953015
vt 0.831798 0.938134
vt 0.833041 0.924042
vt 0.835506 0.918253
vt 0.834129 0.917714
vt 0.842571 0.937583
vt 0.843562 0.952979
vt 0.841376 0.965276
vt 0.836895 0.964761
vt 0.833319 0.964809
vt 0.831822 0.953075
vt 0.829394 0.953577
vt 0.828875 0.937895
vt 0.830892 0.923480
vt 0.832740 0.917272
vt 0.835832 0.909568
vt 0.836786 0.917894
vt 0.838187 0.923647
vt 0.840735 0.937991
vt 0.839818 0.923635
vt 0.837861 0.917786
vt 0.845554 0.882244
vt 0.839672 0.883009
vt 0.843876 0.877339
vt 0.836930 0.877578
vt 0.833790 0.883798
vt 0.835542 0.888583
vt 0.840179 0.889469
vt 0.844624 0.887423
s 1
f 1/1/1 2/2/2 3/3/3
f 4/4/4 1/1/1 3/3/3
f 5/5/5 6/6/6 4/4/4
f 4/4/4 3/3/3 5/5/5
f 7/7/7 6/6/6 5/5/5
f 7/7/7 5/5/5 8/8/8
f 7/7/7 8/8/8 9/9/9
f 10/10/10 7/7/7 9/9/9
f 11/11/11 12/12/12 10/10/10
f 10/10/10 9/13/9 11/11/11
f 1/1/1 12/12/12 11/11/11
f 1/1/1 11/11/11 2/14/2
f 10/10/10 12/12/12 6/6/6
f 7/7/7 10/10/10 6/6/6
f 6/6/6 12/12/12 1/1/1
f 6/6/6 1/1/1 4/4/4
f 13/8/13 14/9/14 15/10/15
f 16/7/16 13/8/13 15/10/15
f 16/7/16 17/6/17 18/5/18
f 18/5/18 13/8/13 16/7/16
f 18/5/18 17/6/17 19/4/19
f 20/3/20 18/5/18 19/4/19
f 21/1/21 22/2/22 19/4/19
f 21/1/21 23/12/23 24/11/24
f 24/11/24 22/14/22 21/1/21
f 24/11/24 23/12/23 15/10/15
f 14/13/14 24/11/24 15/10/15
f 17/6/17 23/12/23 21/1/21
f 19/4/19 17/6/17 21/1/21
f 17/6/17 16/7/16 15/10/15
f 17/6/17 15/10/15 23/12/23
f 22/2/22 20/3/20 19/4/19
f 25/15/25 26/16/26 27/17/27
f 27/17/27 28/18/28 25/15/25
f 29/19/29 30/20/30 31/21/31
f 32/22/32 29/19/29 31/21/31
f 28/18/28 27/17/27 33/23/33
f 33/23/33 34/24/34 28/18/28
f 26/16/26 35/25/35 36/26/36
f 36/26/36 27/17/27 26/16/26
f 31/21/31 37/27/37 38/28/38
f 38/28/38 32/22/32 31/21/31
f 36/26/36 39/29/39 33/23/33
f 36/26/36 33/23/33 27/17/27
f 36/26/36 35/25/35 40/30/40
f 41/31/41 36/26/36 40/30/40
f 42/32/42 43/33/43 38/28/38
f 42/32/42 38/28/38 37/27/37
f 44/34/44 39/29/39 36/26/36
f 41/31/41 44/34/44 36/26/36
f 45/35/45 41/31/41 40/30/40
f 46/36/46 45/35/45 40/30/40
f 43/33/43 42/32/42 47/37/47
f 48/38/48 43/33/43 47/37/47
f 44/34/44 41/31/41 45/35/45
f 49/39/49 45/35/45 46/36/46
f 50/40/50 48/38/48 47/37/47
f 49/39/49 51/41/51 45/35/45
f 50/40/50 52/42/52 53/43/53
f 51/41/51 44/34/44 45/35/45
f 54/44/54 28/18/28 34/24/34
f 34/24/34 55/45/55 54/44/54
f 25/15/25 28/18/28 54/44/54
f 25/15/25 54/44/54 56/46/56
f 57/47/57 56/48/56 58/49/58
f 30/20/30 29/19/29 57/47/57
f 57/47/57 58/49/58 30/20/30
f 52/50/52 49/39/49 46/36/46
f 52/50/52 46/36/46 53/51/53
f 40/30/40 59/52/59 53/51/53
f 46/36/46 40/30/40 53/51/53
f 35/25/35 60/53/60 59/52/59
f 40/30/40 35/25/35 59/52/59
f 26/16/26 61/54/61 60/53/60
f 35/25/35 26/16/26 60/53/60
f 57/55/57 61/54/61 26/16/26
f 26/16/26 25/15/25 57/55/57
f 29/19/29 32/22/32 61/56/61
f 29/19/29 61/56/61 57/47/57
f 32/22/32 38/28/38 60/57/60
f 32/22/32 60/57/60 61/56/61
f 38/28/38 43/33/43 59/58/59
f 38/28/38 59/58/59 60/57/60
f 48/38/48 53/43/53 59/58/59
f 43/33/43 48/38/48 59/58/59
f 48/38/48 50/40/50 53/43/53
f 25/15/25 56/46/56 57/55/57
f 62/59/62 63/60/63 64/61/64
f 64/61/64 65/62/65 62/59/62
f 31/21/31 30/20/30 66/63/66
f 31/21/31 66/63/66 67/64/67
f 33/23/33 62/59/62 65/62/65
f 65/62/65 34/24/34 33/23/33
f 68/65/68 69/66/69 63/60/63
f 63/60/63 62/59/62 68/65/68
f 70/67/70 37/27/37 31/21/31
f 31/21/31 67/64/67 70/67/70
f 68/65/68 62/59/62 33/23/33
f 68/65/68 33/23/33 39/29/39
f 71/68/71 69/66/69 68/65/68
f 71/68/71 68/65/68 72/69/72
f 42/32/42 37/27/37 70/67/70
f 42/32/42 70/67/70 73/70/73
f 68/65/68 39/29/39 44/34/44
f 72/69/72 68/65/68 44/34/44
f 71/68/71 72/69/72 74/71/74
f 75/72/75 71/68/71 74/71/74
f 47/37/47 42/32/42 73/70/73
f 47/37/47 73/70/73 76/73/76
f 74/71/74 72/69/72 44/34/44
f 74/71/74 44/34/44 51/41/51
f 75/72/75 74/71/74 49/39/49
f 47/37/47 76/73/76 50/40/50
f 74/71/74 51/41/51 49/39/49
f 34/24/34 65/62/65 77/74/77
f 77/74/77 55/45/55 34/24/34
f 77/74/77 65/62/65 64/61/64
f 78/75/78 77/74/77 64/61/64
f 75/72/75 49/39/49 52/50/52
f 79/76/79 75/72/75 52/50/52
f 79/76/79 80/77/80 71/68/71
f 79/76/79 71/68/71 75/72/75
f 80/77/80 81/78/81 69/66/69
f 80/77/80 69/66/69 71/68/71
f 81/78/81 82/79/82 63/60/63
f 81/78/81 63/60/63 69/66/69
f 63/60/63 82/79/82 83/80/83
f 83/80/83 64/61/64 63/60/63
f 58/49/58 78/81/78 83/82/83
f 83/82/83 66/63/66 30/20/30
f 30/20/30 58/49/58 83/82/83
f 66/63/66 83/82/83 82/83/82
f 66/63/66 82/83/82 67/64/67
f 67/64/67 82/83/82 81/84/81
f 67/64/67 81/84/81 70/67/70
f 70/67/70 81/84/81 80/85/80
f 70/67/70 80/85/80 73/70/73
f 80/85/80 79/86/79 76/73/76
f 73/70/73 80/85/80 76/73/76
f 79/86/79 52/42/52 50/40/50
f 76/73/76 79/86/79 50/40/50
f 83/80/83 78/75/78 64/61/64
f 84/87/84 85/88/85 86/89/86
f 84/87/84 87/90/87 88/91/88
f 85/88/85 84/87/84 88/91/88
f 88/91/88 89/92/89 85/88/85
f 89/92/89 88/91/88 90/93/90
f 90/93/90 91/94/91 89/92/89
f 91/94/91 90/93/90 92/95/92
f 91/94/91 92/95/92 93/96/93
f 92/95/92 94/97/94 93/96/93
f 94/97/94 95/98/95 93/96/93
f 94/97/94 96/99/96 95/98/95
f 89/100/89 95/98/95 96/99/96
f 96/99/96 85/101/85 89/100/89
f 85/101/85 96/99/96 97/102/97
f 97/102/97 86/103/86 85/101/85
f 86/103/86 97/102/97 98/104/98
f 98/104/98 99/105/99 86/103/86
f 99/105/99 98/104/98 100/106/100
f 101/107/101 100/106/100 98/104/98
f 100/106/100 101/107/101 102/108/102
f 84/87/84 102/108/102 101/107/101
f 102/108/102 84/87/84 103/109/103
f 95/98/95 91/110/91 93/96/93
f 95/98/95 89/100/89 91/110/91
f 87/90/87 84/87/84 101/107/101
f 98/104/98 87/90/87 101/107/101
f 87/90/87 98/104/98 97/102/97
f 97/102/97 104/111/104 87/90/87
f 104/111/104 97/102/97 96/99/96
f 96/99/96 94/97/94 104/111/104
f 92/95/92 104/111/104 94/97/94
f 104/111/104 92/95/92 90/93/90
f 90/93/90 87/90/87 104/111/104
f 87/90/87 90/93/90 88/91/88
f 105/112/105 106/113/106 107/114/107
f 105/112/105 108/115/108 106/113/106
f 109/116/109 110/117/110 111/118/111
f 112/119/112 111/118/111 110/117/110
f 113/120/113 112/119/112 110/117/110
f 112/119/112 113/120/113 114/121/114
f 113/120/113 115/122/115 114/121/114
f 108/123/108 114/121/114 115/122/115
f 115/122/115 106/124/106 108/123/108
f 106/124/106 115/122/115 116/125/116
f 106/124/106 116/125/116 107/114/107
f 116/125/116 117/126/117 107/114/107
f 117/126/117 105/112/105 107/114/107
f 117/126/117 118/127/118 105/112/105
f 108/115/108 105/112/105 118/127/118
f 118/127/118 119/128/119 108/115/108
f 119/128/119 118/127/118 120/129/120
f 120/129/120 121/130/121 119/128/119
f 121/130/121 120/129/120 122/131/122
f 122/131/122 123/132/123 121/130/121
f 123/132/123 122/131/122 109/116/109
f 110/117/110 109/116/109 122/131/122
f 122/131/122 113/120/113 110/117/110
f 113/120/113 122/131/122 120/129/120
f 120/129/120 124/133/124 113/120/113
f 124/133/124 120/129/120 118/127/118
f 118/127/118 117/126/117 124/133/124
f 116/125/116 124/133/124 117/126/117
f 124/133/124 116/125/116 115/122/115
f 115/122/115 113/120/113 124/133/124
f 111/118/111 112/119/112 125/134/125
f 112/119/112 119/135/119 121/136/121
f 119/135/119 112/119/112 114/121/114
f 114/121/114 108/123/108 119/135/119
f 126/137/126 127/138/127 128/139/128
f 127/140/127 129/141/129 130/142/130
f 127/140/127 130/142/130 128/139/128
f 130/142/130 131/143/131 128/139/128
f 131/143/131 126/137/126 128/139/128
f 131/143/131 132/144/132 126/137/126
f 132/144/132 131/143/131 133/145/133
f 134/146/134 132/144/132 133/145/133
f 133/145/133 135/147/135 134/146/134
f 135/147/135 136/148/136 134/146/134
f 136/148/136 135/147/135 137/149/137
f 135/147/135 138/150/138 137/149/137
f 138/150/138 135/147/135 139/151/139
f 139/151/139 135/147/135 129/141/129
f 135/147/135 133/145/133 129/141/129
f 133/145/133 130/142/130 129/141/129
f 130/142/130 133/145/133 131/143/131
f 136/148/136 140/152/140 134/146/134
f 132/144/132 134/146/134 140/152/140
f 126/137/126 141/153/141 127/138/127
f 141/153/141 126/137/126 132/144/132
f 132/144/132 142/154/142 141/153/141
f 142/154/142 132/144/132 140/152/140
f 140/152/140 121/155/121 142/154/142
f 121/155/121 140/152/140 112/156/112
f 140/152/140 136/148/136 112/156/112
f 125/157/125 112/156/112 136/148/136
f 137/149/137 125/157/125 136/148/136
f 125/157/125 137/149/137 143/158/143
f 138/150/138 143/158/143 137/149/137
f 143/158/143 138/150/138 123/159/123
f 123/159/123 138/150/138 121/160/121
f 138/150/138 142/161/142 121/160/121
f 142/161/142 138/150/138 139/151/139
f 139/151/139 141/162/141 142/161/142
f 141/162/141 139/151/139 129/141/129
f 129/141/129 127/140/127 141/162/141
f 144/163/144 145/164/145 146/165/146
f 145/164/145 144/163/144 147/166/147
f 145/164/145 147/166/147 148/167/148
f 149/168/149 150/169/150 151/170/151
f 150/169/150 149/168/149 152/171/152
f 153/172/153 152/171/152 149/168/149
f 152/171/152 153/172/153 154/173/154
f 155/174/155 154/173/154 153/172/153
f 154/173/154 155/174/155 156/175/156
f 156/175/156 157/176/157 154/173/154
f 157/176/157 156/175/156 146/177/146
f 146/177/146 158/178/158 157/176/157
f 158/178/158 146/177/146 145/179/145
f 158/178/158 145/179/145 148/167/148
f 159/180/159 158/178/158 148/167/148
f 147/166/147 159/180/159 148/167/148
f 147/166/147 160/181/160 159/180/159
f 160/181/160 147/166/147 144/163/144
f 144/163/144 152/171/152 160/181/160
f 152/171/152 144/163/144 150/169/150
f 146/165/146 150/169/150 144/163/144
f 154/173/154 160/181/160 152/171/152
f 160/181/160 154/173/154 157/176/157
f 157/176/157 159/180/159 160/181/160
f 159/180/159 157/176/157 158/178/158
f 155/174/155 161/182/161 162/183/162
f 163/184/163 162/183/162 161/182/161
f 161/182/161 164/185/164 163/184/163
f 164/185/164 161/182/161 165/186/165
f 166/187/166 164/185/164 165/186/165
f 165/186/165 151/170/151 166/187/166
f 151/170/151 165/186/165 149/168/149
f 165/186/165 153/172/153 149/168/149
f 153/172/153 165/186/165 161/182/161
f 161/182/161 155/174/155 153/172/153
f 162/183/162 163/184/163 167/188/167
f 164/185/164 166/187/166 168/189/168
f 150/169/150 146/165/146 156/190/156
f 156/190/156 151/170/151 150/169/150
f 151/170/151 156/190/156 155/191/155
f 155/191/155 166/187/166 151/170/151
f 166/187/166 155/191/155 162/192/162
f 162/192/162 168/189/168 166/187/166
f 168/189/168 162/192/162 167/193/167
f 169/194/169 168/189/168 167/193/167
f 168/189/168 169/194/169 170/195/170
f 170/195/170 164/185/164 168/189/168
f 164/185/164 170/195/170 171/196/171
f 171/196/171 163/184/163 164/185/164
f 163/184/163 171/196/171 77/197/77
f 77/197/77 167/188/167 163/184/163
f 167/188/167 77/197/77 169/198/169
f 172/199/172 173/200/173 174/201/174
f 174/201/174 175/202/175 176/203/176
f 175/202/175 174/201/174 173/200/173
f 177/204/177 175/202/175 173/200/173
f 172/199/172 177/204/177 173/200/173
f 172/199/172 178/205/178 177/204/177
f 172/199/172 174/206/174 178/205/178
f 176/207/176 178/205/178 174/206/174
f 178/205/178 176/207/176 179/208/179
f 180/209/180 179/208/179 176/207/176
f 179/208/179 180/209/180 181/210/181
f 182/211/182 181/210/181 180/209/180
f 181/210/181 182/211/182 183/212/183
f 183/212/183 184/213/184 181/210/181
f 184/213/184 183/212/183 185/214/185
f 185/214/185 186/215/186 184/213/184
f 186/215/186 185/214/185 187/216/187
f 187/216/187 180/217/180 186/215/186
f 180/217/180 187/216/187 182/218/182
f 176/203/176 186/215/186 180/217/180
f 186/215/186 176/203/176 175/202/175
f 188/219/188 186/215/186 175/202/175
f 186/215/186 188/219/188 184/213/184
f 188/219/188 181/210/181 184/213/184
f 181/210/181 188/219/188 179/208/179
f 177/204/177 179/208/179 188/219/188
f 179/208/179 177/204/177 178/205/178
f 175/202/175 177/204/177 188/219/188
f 189/220/189 190/221/190 191/222/191
f 190/221/190 192/223/192 193/224/193
f 194/225/194 190/221/190 193/224/193
f 190/221/190 194/225/194 191/222/191
f 194/225/194 195/226/195 191/222/191
f 196/227/196 191/222/191 195/226/195
f 191/222/191 196/227/196 189/220/189
f 196/227/196 197/228/197 189/220/189
f 197/228/197 196/227/196 198/229/198
f 192/223/192 199/230/199 86/231/86
f 99/232/99 192/223/192 86/231/86
f 200/233/200 192/223/192 99/232/99
f 192/223/192 200/233/200 193/224/193
f 103/234/103 193/224/193 200/233/200
f 193/224/193 103/234/103 194/225/194
f 103/234/103 84/235/84 194/225/194
f 195/226/195 194/225/194 84/235/84
f 86/236/86 195/226/195 84/235/84
f 195/226/195 86/236/86 199/237/199
f 199/237/199 196/227/196 195/226/195
f 196/227/196 199/237/199 201/238/201
f 201/238/201 198/229/198 196/227/196
f 198/229/198 201/238/201 202/239/202
f 198/229/198 202/239/202 203/240/203
f 197/228/197 198/229/198 203/240/203
f 204/241/204 197/228/197 203/240/203
f 204/241/204 189/220/189 197/228/197
f 189/220/189 204/241/204 205/242/205
f 190/221/190 189/220/189 205/242/205
f 206/243/206 190/221/190 205/242/205
f 192/223/192 190/221/190 206/243/206
f 199/230/199 192/223/192 206/243/206
f 206/243/206 201/244/201 199/230/199
f 201/244/201 206/243/206 205/242/205
f 205/242/205 202/245/202 201/244/201
f 202/245/202 205/242/205 204/241/204
f 202/245/202 204/241/204 203/240/203
f 207/246/207 208/247/208 209/248/209
f 209/248/209 208/247/208 185/249/185
f 185/249/185 208/247/208 58/250/58
f 58/250/58 208/247/208 169/251/169
f 169/251/169 208/247/208 78/252/78
f 78/252/78 208/247/208 77/253/77
f 77/253/77 208/247/208 207/246/207
f 78/252/78 58/250/58 169/251/169
l 5 11
l 18 24
