# Blender v2.82 (sub 7) OBJ File: 'BASE_120-92.blend'
# www.blender.org
mtllib BASE_120-92.mtl
o Circle
v 0.000000 0.000000 -1.803200
v -0.458852 0.000000 -1.768552
v -0.900072 0.000000 -1.665940
v -1.306701 0.000000 -1.499306
v -1.663115 0.000000 -1.275055
v -1.955617 0.000000 -1.001804
v -2.172965 0.000000 -0.690055
v -2.306807 0.000000 -0.351787
v -2.352000 0.000000 -0.000000
v -2.306807 0.000000 0.351787
v -2.172965 0.000000 0.690054
v -1.955617 0.000000 1.001804
v -1.663115 0.000000 1.275055
v -1.306701 0.000000 1.499306
v -0.900071 0.000000 1.665940
v -0.458852 0.000000 1.768552
v 0.000001 0.000000 1.803200
v 0.458853 0.000000 1.768552
v 0.900072 0.000000 1.665939
v 1.306702 0.000000 1.499305
v 1.663116 0.000000 1.275054
v 1.955617 0.000000 1.001803
v 2.172966 0.000000 0.690053
v 2.306807 0.000000 0.351785
v 2.352000 0.000000 -0.000002
v 2.306807 0.000000 -0.351789
v 2.172964 0.000000 -0.690057
v 1.955615 0.000000 -1.001806
v 1.663113 0.000000 -1.275057
v 1.306699 0.000000 -1.499307
v 0.900068 0.000000 -1.665941
v 0.458849 0.000000 -1.768553
v 0.000000 0.127400 -1.752470
v -0.449100 0.127400 -1.718796
v -0.880940 0.127400 -1.619071
v -1.278927 0.127400 -1.457125
v -1.627765 0.127400 -1.239183
v -1.914050 0.127400 -0.973620
v -2.126778 0.127400 -0.670641
v -2.257776 0.127400 -0.341890
v -2.302008 0.127400 -0.000000
v -2.257776 0.127400 0.341890
v -2.126778 0.127400 0.670641
v -1.914050 0.127400 0.973620
v -1.627765 0.127400 1.239183
v -1.278927 0.127400 1.457125
v -0.880940 0.127400 1.619071
v -0.449099 0.127400 1.718796
v 0.000001 0.127400 1.752470
v 0.449100 0.127400 1.718796
v 0.880941 0.127400 1.619071
v 1.278928 0.127400 1.457125
v 1.627766 0.127400 1.239182
v 1.914051 0.127400 0.973619
v 2.126779 0.127400 0.670640
v 2.257776 0.127400 0.341888
v 2.302008 0.127400 -0.000002
v 2.257775 0.127400 -0.341892
v 2.126777 0.127400 -0.670643
v 1.914048 0.127400 -0.973622
v 1.627763 0.127400 -1.239184
v 1.278925 0.127400 -1.457127
v 0.880937 0.127400 -1.619072
v 0.449096 0.127400 -1.718797
v -0.000000 0.127400 -0.000000
v -0.000000 0.000000 -0.000000
v 2.129486 0.119928 -0.671781
v -1.280556 0.119928 1.459599
v 0.000000 0.119928 -1.755445
v 1.916486 0.119928 -0.975275
v -0.882062 0.119928 1.621820
v -0.449672 0.119928 -1.721714
v 1.629836 0.119928 -1.241288
v -0.449671 0.119928 1.721714
v -0.882062 0.119928 -1.621820
v 1.280553 0.119928 -1.459600
v 0.000001 0.119928 1.755445
v -1.280556 0.119928 -1.459599
v 0.882059 0.119928 -1.621821
v 0.449672 0.119928 1.721714
v -1.629838 0.119928 -1.241287
v 0.449668 0.119928 -1.721715
v 0.882063 0.119928 1.621819
v -1.916488 0.119928 -0.975273
v 1.280557 0.119928 1.459598
v -2.129487 0.119928 -0.671780
v 1.629839 0.119928 1.241286
v -2.260651 0.119928 -0.342470
v 1.916489 0.119928 0.975272
v -2.304940 0.119928 -0.000000
v 2.129488 0.119928 0.671778
v -2.260651 0.119928 0.342470
v 2.260651 0.119928 0.342469
v -2.129487 0.119928 0.671779
v 2.304940 0.119928 -0.000002
v -1.916488 0.119928 0.975273
v 2.260651 0.119928 -0.342472
v -1.629838 0.119928 1.241287
v 2.169352 0.009962 -0.688539
v -1.304529 0.009962 1.496008
v 0.000000 0.009962 -1.799233
v 1.952365 0.009962 -0.999602
v -0.898575 0.009962 1.662275
v -0.458090 0.009962 -1.764661
v 1.660349 0.009962 -1.272252
v -0.458089 0.009962 1.764662
v -0.898576 0.009962 -1.662275
v 1.304527 0.009962 -1.496009
v 0.000001 0.009962 1.799233
v -1.304530 0.009962 -1.496008
v 0.898572 0.009962 -1.662276
v 0.458091 0.009962 1.764661
v -1.660351 0.009962 -1.272250
v 0.458086 0.009962 -1.764662
v 0.898577 0.009962 1.662274
v -1.952366 0.009962 -0.999600
v 1.304531 0.009962 1.496007
v -2.169353 0.009962 -0.688537
v 1.660352 0.009962 1.272249
v -2.302973 0.009962 -0.351013
v 1.952367 0.009962 0.999599
v -2.348091 0.009962 -0.000000
v 2.169354 0.009962 0.688535
v -2.302973 0.009962 0.351013
v 2.302974 0.009962 0.351011
v -2.169353 0.009962 0.688536
v 2.348091 0.009962 -0.000002
v -1.952366 0.009962 0.999600
v 2.302973 0.009962 -0.351015
v -1.660351 0.009962 1.272250
vt 0.228586 0.507117
vt 0.179599 0.497373
vt 0.253559 0.253558
vt 0.278532 0.507117
vt 0.676225 0.496716
vt 0.673950 0.538145
vt 0.668474 0.537893
vt 0.670753 0.496371
vt 0.278532 0.000000
vt 0.327519 0.009744
vt 0.228585 0.000000
vt 0.729286 0.000067
vt 0.777831 0.000000
vt 0.753559 0.248186
vt 0.681674 0.009669
vt 0.596461 0.441155
vt 0.562135 0.406637
vt 0.636825 0.468256
vt 0.535165 0.366031
vt 0.516588 0.320895
vt 0.910656 0.055217
vt 0.944982 0.089735
vt 0.870292 0.028115
vt 0.507117 0.272966
vt 0.507117 0.224084
vt 0.971952 0.130341
vt 0.990529 0.175476
vt 0.944982 0.406110
vt 0.910656 0.440722
vt 0.971952 0.365429
vt 0.516587 0.176129
vt 0.535165 0.130942
vt 1.000000 0.223406
vt 1.000000 0.272287
vt 0.870292 0.467935
vt 0.825443 0.486703
vt 0.562135 0.090261
vt 0.596461 0.055649
vt 0.990529 0.320243
vt 0.777831 0.496305
vt 0.729286 0.496371
vt 0.636825 0.028437
vt 0.133454 0.478259
vt 0.091925 0.450510
vt 0.056607 0.415193
vt 0.028858 0.373664
vt 0.373663 0.028858
vt 0.415193 0.056607
vt 0.009744 0.327519
vt 0.000000 0.278532
vt 0.450510 0.091924
vt 0.478259 0.133453
vt 0.000000 0.228585
vt 0.009744 0.179598
vt 0.497373 0.179598
vt 0.507117 0.228585
vt 0.415193 0.450510
vt 0.373663 0.478259
vt 0.450510 0.415193
vt 0.028858 0.133454
vt 0.056607 0.091924
vt 0.507117 0.278532
vt 0.497373 0.327519
vt 0.327519 0.497373
vt 0.478259 0.373663
vt 0.179598 0.009744
vt 0.133453 0.028858
vt 0.825443 0.009471
vt 0.681674 0.486901
vt 0.091924 0.056607
vt 0.513622 0.767195
vt 0.515597 0.813256
vt 0.510112 0.813445
vt 0.508132 0.767306
vt 0.593103 0.619521
vt 0.592101 0.668429
vt 0.586607 0.668374
vt 0.587612 0.619385
vt 0.597954 0.854707
vt 0.601600 0.889954
vt 0.596129 0.890275
vt 0.592474 0.854966
vt 0.512613 0.718292
vt 0.507120 0.718321
vt 0.595072 0.573447
vt 0.589585 0.573235
vt 0.595088 0.813256
vt 0.589602 0.813445
vt 0.512610 0.668429
vt 0.507117 0.668374
vt 0.597933 0.531978
vt 0.592452 0.531699
vt 0.593112 0.767194
vt 0.587622 0.767305
vt 0.513612 0.619521
vt 0.508121 0.619385
vt 0.601575 0.496708
vt 0.596101 0.496371
vt 0.592104 0.718292
vt 0.586611 0.718321
vt 0.515582 0.573447
vt 0.510094 0.573235
vt 0.748581 0.777828
vt 0.750851 0.819275
vt 0.745377 0.819640
vt 0.743103 0.778103
vt 0.652739 0.669031
vt 0.656858 0.669072
vt 0.656859 0.717953
vt 0.652739 0.717975
vt 0.518442 0.531978
vt 0.512961 0.531699
vt 0.747017 0.731778
vt 0.741537 0.731953
vt 0.522084 0.496708
vt 0.516611 0.496371
vt 0.746222 0.682896
vt 0.740741 0.682963
vt 0.673938 0.777828
vt 0.676208 0.819275
vt 0.670734 0.819640
vt 0.668460 0.778103
vt 0.746224 0.633059
vt 0.740744 0.633017
vt 0.672374 0.731778
vt 0.666894 0.731953
vt 0.747025 0.584182
vt 0.741546 0.584033
vt 0.671579 0.682896
vt 0.666098 0.682964
vt 0.748593 0.538145
vt 0.743117 0.537893
vt 0.671582 0.633059
vt 0.666101 0.633017
vt 0.750868 0.496716
vt 0.745396 0.496371
vt 0.672382 0.584182
vt 0.666903 0.584033
vt 0.518463 0.854707
vt 0.522110 0.889955
vt 0.516639 0.890275
vt 0.512984 0.854967
vt 0.734405 0.540928
vt 0.738512 0.541117
vt 0.736978 0.585949
vt 0.732868 0.585836
vt 0.576154 0.811172
vt 0.580269 0.811030
vt 0.583058 0.851648
vt 0.578948 0.851843
vt 0.586607 0.886180
vt 0.582504 0.886420
vt 0.736195 0.633552
vt 0.732084 0.633520
vt 0.815383 0.500780
vt 0.813155 0.541117
vt 0.809048 0.540928
vt 0.811279 0.500521
vt 0.736195 0.682096
vt 0.732084 0.682147
vt 0.811621 0.585949
vt 0.807511 0.585836
vt 0.736978 0.729718
vt 0.732868 0.729849
vt 0.810838 0.633552
vt 0.806727 0.633520
vt 0.738512 0.774585
vt 0.734404 0.774791
vt 0.810838 0.682096
vt 0.806727 0.682147
vt 0.740741 0.814975
vt 0.736635 0.815248
vt 0.811620 0.729717
vt 0.807510 0.729849
vt 0.586607 0.500675
vt 0.583058 0.535272
vt 0.578947 0.535063
vt 0.582502 0.500423
vt 0.813155 0.774585
vt 0.809047 0.774791
vt 0.580269 0.575942
vt 0.576153 0.575783
vt 0.815383 0.814974
vt 0.811278 0.815248
vt 0.578347 0.621121
vt 0.574229 0.621019
vt 0.657838 0.765887
vt 0.653720 0.765970
vt 0.666098 0.500675
vt 0.662548 0.535272
vt 0.658437 0.535063
vt 0.661993 0.500423
vt 0.577368 0.669072
vt 0.573248 0.669031
vt 0.659759 0.811030
vt 0.655645 0.811172
vt 0.659759 0.575942
vt 0.655644 0.575783
vt 0.577368 0.717954
vt 0.573248 0.717975
vt 0.662548 0.851648
vt 0.658438 0.851842
vt 0.657838 0.621121
vt 0.653719 0.621019
vt 0.578347 0.765887
vt 0.574230 0.765971
vt 0.666098 0.886180
vt 0.661994 0.886420
vt 0.740741 0.500780
vt 0.736636 0.500521
vn 0.3859 -0.5427 -0.7460
vn 0.5149 -0.5413 -0.6647
vn 0.0000 -1.0000 0.0000
vn 0.2562 -0.5435 -0.7993
vn 0.7031 0.3647 -0.6105
vn 0.8198 0.3651 -0.4411
vn 0.7443 -0.5367 -0.3973
vn 0.6380 -0.5392 -0.5498
vn -0.3859 -0.5427 0.7460
vn -0.5149 -0.5413 0.6647
vn -0.2562 -0.5435 0.7993
vn 0.5730 0.8057 0.1496
vn 0.5928 0.8054 0.0000
vn 0.0000 1.0000 0.0000
vn 0.5188 0.8069 0.2822
vn -0.4422 0.8086 0.3881
vn -0.3547 0.8104 0.4661
vn -0.5188 0.8069 0.2822
vn -0.2644 0.8123 0.5199
vn -0.1747 0.8137 0.5543
vn 0.4422 0.8086 -0.3881
vn 0.3547 0.8104 -0.4661
vn 0.5188 0.8069 -0.2822
vn -0.0868 0.8147 0.5733
vn 0.0000 0.8150 0.5794
vn 0.2644 0.8123 -0.5199
vn 0.1747 0.8137 -0.5543
vn -0.2644 0.8123 -0.5199
vn -0.3547 0.8104 -0.4661
vn -0.1747 0.8137 -0.5543
vn 0.0868 0.8147 0.5733
vn 0.1747 0.8137 0.5543
vn 0.0867 0.8147 -0.5733
vn 0.0000 0.8150 -0.5794
vn -0.4422 0.8086 -0.3881
vn -0.5188 0.8069 -0.2822
vn 0.2644 0.8123 0.5199
vn 0.3547 0.8104 0.4661
vn -0.0868 0.8147 -0.5733
vn -0.5730 0.8057 -0.1496
vn -0.5928 0.8054 0.0000
vn 0.4422 0.8086 0.3881
vn 0.8187 -0.5345 -0.2097
vn 0.8457 -0.5336 0.0000
vn -0.6380 -0.5392 0.5498
vn -0.7443 -0.5367 0.3973
vn 0.8187 -0.5345 0.2097
vn 0.7443 -0.5367 0.3973
vn -0.8187 -0.5345 0.2097
vn -0.8457 -0.5336 0.0000
vn 0.6380 -0.5392 0.5498
vn 0.5149 -0.5413 0.6647
vn -0.8187 -0.5345 -0.2097
vn -0.7443 -0.5367 -0.3973
vn -0.1276 -0.5438 -0.8294
vn 0.0000 -0.5439 -0.8391
vn -0.2562 -0.5435 -0.7993
vn 0.3859 -0.5427 0.7460
vn 0.2562 -0.5435 0.7993
vn -0.6379 -0.5392 -0.5498
vn -0.5149 -0.5413 -0.6647
vn 0.1276 -0.5438 -0.8294
vn -0.3859 -0.5427 -0.7460
vn -0.1276 -0.5438 0.8294
vn 0.0000 -0.5439 0.8391
vn 0.5730 0.8058 -0.1496
vn -0.5730 0.8058 0.1496
vn 0.1276 -0.5438 0.8294
vn -0.2821 0.3677 0.8861
vn -0.4252 0.3663 0.8277
vn -0.1404 0.3688 -0.9188
vn 0.0000 0.3692 -0.9293
vn 0.5676 0.3651 -0.7379
vn -0.1404 0.3688 0.9188
vn -0.2821 0.3677 -0.8861
vn 0.4252 0.3663 -0.8277
vn 0.0000 0.3692 0.9293
vn -0.4252 0.3663 -0.8277
vn 0.2821 0.3677 -0.8861
vn 0.1404 0.3688 0.9188
vn -0.5676 0.3651 -0.7379
vn 0.1404 0.3688 -0.9188
vn 0.2821 0.3677 0.8861
vn -0.7031 0.3647 -0.6105
vn 0.1400 0.3688 -0.9189
vn 0.4252 0.3663 0.8277
vn -0.8198 0.3651 -0.4411
vn 0.5676 0.3651 0.7379
vn -0.9011 0.3659 -0.2327
vn 0.7031 0.3647 0.6105
vn -0.9305 0.3663 0.0000
vn 0.8198 0.3651 0.4411
vn -0.9011 0.3659 0.2327
vn 0.9011 0.3659 0.2327
vn -0.8198 0.3651 0.4411
vn 0.9305 0.3663 0.0000
vn -0.7031 0.3647 0.6105
vn 0.9011 0.3659 -0.2327
vn -0.5676 0.3651 0.7379
vn 0.8192 0.3651 -0.4422
vn 0.9009 0.3659 -0.2334
vn -0.4241 0.3662 0.8282
vn -0.5664 0.3651 0.7388
vn -0.7021 0.3646 0.6116
vn -0.8193 0.3651 0.4422
vn 0.9009 0.3659 0.2334
vn -0.9009 0.3659 0.2334
vn 0.8193 0.3651 0.4422
vn 0.7021 0.3646 0.6116
vn -0.9009 0.3659 -0.2334
vn 0.5664 0.3651 0.7388
vn -0.8193 0.3651 -0.4422
vn 0.4241 0.3662 0.8282
vn -0.7021 0.3646 -0.6116
vn 0.2813 0.3676 0.8864
vn -0.5664 0.3651 -0.7388
vn 0.1400 0.3688 0.9189
vn 0.2813 0.3676 -0.8864
vn -0.4241 0.3662 -0.8282
vn 0.4241 0.3662 -0.8282
vn -0.2813 0.3676 -0.8864
vn -0.1400 0.3688 0.9189
vn 0.5664 0.3651 -0.7388
vn -0.1400 0.3688 -0.9189
vn -0.2813 0.3676 0.8864
vn 0.7021 0.3646 -0.6116
usemtl None
s 1
f 30/1/1 29/2/2 66/3/3 31/4/4
f 102/5/5 99/6/6 27/7/7 28/8/8
f 14/9/9 13/10/10 66/3/3 15/11/11
f 56/12/12 57/13/13 65/14/14 55/15/15
f 44/16/16 45/17/17 65/14/14 43/18/18
f 46/19/19 47/20/20 65/14/14 45/17/17
f 60/21/21 61/22/22 65/14/14 59/23/23
f 48/24/24 49/25/25 65/14/14 47/20/20
f 62/26/26 63/27/27 65/14/14 61/22/22
f 36/28/28 37/29/29 65/14/14 35/30/30
f 50/31/31 51/32/32 65/14/14 49/25/25
f 64/33/33 33/34/34 65/14/14 63/27/27
f 38/35/35 39/36/36 65/14/14 37/29/29
f 52/37/37 53/38/38 65/14/14 51/32/32
f 34/39/39 35/30/30 65/14/14 33/34/34
f 39/36/36 40/40/40 41/41/41 65/14/14
f 53/38/38 54/42/42 55/15/15 65/14/14
f 29/2/2 28/43/8 27/44/7 66/3/3
f 27/44/7 26/45/43 25/46/44 66/3/3
f 12/47/45 11/48/46 66/3/3 13/10/10
f 24/49/47 23/50/48 66/3/3 25/46/44
f 10/51/49 9/52/50 66/3/3 11/48/46
f 22/53/51 21/54/52 66/3/3 23/50/48
f 8/55/53 7/56/54 66/3/3 9/52/50
f 2/57/55 1/58/56 66/3/3 3/59/57
f 20/60/58 19/61/59 66/3/3 21/54/52
f 6/62/60 5/63/61 66/3/3 7/56/54
f 32/64/62 31/4/4 66/3/3 1/58/56
f 4/65/63 3/59/57 66/3/3 5/63/61
f 16/66/64 15/11/11 66/3/3 17/67/65
f 58/68/66 59/23/23 65/14/14 57/13/13
f 42/69/67 43/18/18 65/14/14 41/41/41
f 18/70/68 17/67/65 66/3/3 19/61/59
f 103/71/69 100/72/70 14/73/9 15/74/11
f 104/75/71 101/76/72 1/77/56 2/78/55
f 105/79/73 102/80/5 28/81/8 29/82/2
f 106/83/74 103/71/69 15/74/11 16/84/64
f 107/85/75 104/75/71 2/78/55 3/86/57
f 108/87/76 105/79/73 29/82/2 30/88/1
f 109/89/77 106/83/74 16/84/64 17/90/65
f 110/91/78 107/85/75 3/86/57 4/92/63
f 111/93/79 108/87/76 30/88/1 31/94/4
f 112/95/80 109/89/77 17/90/65 18/96/68
f 113/97/81 110/91/78 4/92/63 5/98/61
f 114/99/82 111/93/79 31/94/4 32/100/62
f 115/101/83 112/95/80 18/96/68 19/102/59
f 116/103/84 113/104/81 5/105/61 6/106/60
f 69/107/72 33/108/34 64/109/33 82/110/85
f 117/111/86 115/101/83 19/102/59 20/112/58
f 118/113/87 116/103/84 6/106/60 7/114/54
f 119/115/88 117/111/86 20/112/58 21/116/52
f 120/117/89 118/113/87 7/114/54 8/118/53
f 121/119/90 119/120/88 21/121/52 22/122/51
f 122/123/91 120/117/89 8/118/53 9/124/50
f 123/125/92 121/119/90 22/122/51 23/126/48
f 124/127/93 122/123/91 9/124/50 10/128/49
f 125/129/94 123/125/92 23/126/48 24/130/47
f 126/131/95 124/127/93 10/128/49 11/132/46
f 127/133/96 125/129/94 24/130/47 25/134/44
f 128/135/97 126/131/95 11/132/46 12/136/45
f 129/137/98 127/133/96 25/134/44 26/138/43
f 130/139/99 128/140/97 12/141/45 13/142/10
f 67/143/100 59/144/23 58/145/66 97/146/101
f 68/147/102 46/148/19 45/149/17 98/150/103
f 100/72/70 68/147/102 98/150/103 130/139/99
f 99/6/6 67/143/100 97/146/101 129/137/98
f 45/149/17 44/151/16 96/152/104 98/150/103
f 58/145/66 57/153/13 95/154/96 97/146/101
f 44/155/16 43/156/18 94/157/105 96/158/104
f 57/153/13 56/159/12 93/160/106 95/154/96
f 43/156/18 42/161/67 92/162/107 94/157/105
f 56/159/12 55/163/15 91/164/108 93/160/106
f 42/161/67 41/165/41 90/166/91 92/162/107
f 55/163/15 54/167/42 89/168/109 91/164/108
f 41/165/41 40/169/40 88/170/110 90/166/91
f 54/167/42 53/171/38 87/172/111 89/168/109
f 40/169/40 39/173/36 86/174/112 88/170/110
f 53/175/38 52/176/37 85/177/113 87/178/111
f 39/173/36 38/179/35 84/180/114 86/174/112
f 52/176/37 51/181/32 83/182/115 85/177/113
f 101/76/72 69/107/72 82/110/85 114/99/82
f 38/179/35 37/183/29 81/184/116 84/180/114
f 51/181/32 50/185/31 80/186/117 83/182/115
f 64/109/33 63/187/27 79/188/118 82/110/85
f 37/189/29 36/190/28 78/191/119 81/192/116
f 50/185/31 49/193/25 77/194/77 80/186/117
f 63/187/27 62/195/26 76/196/120 79/188/118
f 36/190/28 35/197/30 75/198/121 78/191/119
f 49/193/25 48/199/24 74/200/122 77/194/77
f 62/195/26 61/201/22 73/202/123 76/196/120
f 35/197/30 34/203/39 72/204/124 75/198/121
f 48/199/24 47/205/20 71/206/125 74/200/122
f 61/201/22 60/207/21 70/208/126 73/202/123
f 34/203/39 33/108/34 69/107/72 72/204/124
f 47/205/20 46/148/19 68/147/102 71/206/125
f 60/209/21 59/144/23 67/143/100 70/210/126
f 1/77/56 101/76/72 114/99/82 32/100/62
f 27/7/7 99/6/6 129/137/98 26/138/43
f 14/73/9 100/72/70 130/139/99 13/142/10
f 98/150/103 96/152/104 128/140/97 130/139/99
f 97/146/101 95/154/96 127/133/96 129/137/98
f 96/158/104 94/157/105 126/131/95 128/135/97
f 95/154/96 93/160/106 125/129/94 127/133/96
f 94/157/105 92/162/107 124/127/93 126/131/95
f 93/160/106 91/164/108 123/125/92 125/129/94
f 92/162/107 90/166/91 122/123/91 124/127/93
f 91/164/108 89/168/109 121/119/90 123/125/92
f 90/166/91 88/170/110 120/117/89 122/123/91
f 89/168/109 87/172/111 119/120/88 121/119/90
f 88/170/110 86/174/112 118/113/87 120/117/89
f 87/178/111 85/177/113 117/111/86 119/115/88
f 86/174/112 84/180/114 116/103/84 118/113/87
f 85/177/113 83/182/115 115/101/83 117/111/86
f 84/180/114 81/184/116 113/104/81 116/103/84
f 83/182/115 80/186/117 112/95/80 115/101/83
f 82/110/85 79/188/118 111/93/79 114/99/82
f 81/192/116 78/191/119 110/91/78 113/97/81
f 80/186/117 77/194/77 109/89/77 112/95/80
f 79/188/118 76/196/120 108/87/76 111/93/79
f 78/191/119 75/198/121 107/85/75 110/91/78
f 77/194/77 74/200/122 106/83/74 109/89/77
f 76/196/120 73/202/123 105/79/73 108/87/76
f 75/198/121 72/204/124 104/75/71 107/85/75
f 74/200/122 71/206/125 103/71/69 106/83/74
f 73/202/123 70/208/126 102/80/5 105/79/73
f 72/204/124 69/107/72 101/76/72 104/75/71
f 71/206/125 68/147/102 100/72/70 103/71/69
f 70/210/126 67/143/100 99/6/6 102/5/5
