v 0.057455 0.13 2.305969
v 0.114371 0.142679 2.29496
v 0.0 0.142679 2.299884
v 0.17212 0.13 2.296095
v 0.056801 0.15 2.28598
v 0.17016 0.15 2.276191
v 0.228252 0.142679 2.280208
v 0.286048 0.13 2.276388
v 0.28279 0.15 2.256655
v 0.341155 0.142679 2.255693
v 0.398751 0.13 2.246934
v 0.39421 0.15 2.227456
v 0.452598 0.142679 2.221518
v 0.509747 0.13 2.207857
v 0.503941 0.15 2.188718
v 0.562102 0.142679 2.17783
v 0.618559 0.13 2.159327
v 0.611514 0.15 2.140608
v 0.6692 0.142679 2.124816
v 0.724723 0.13 2.101549
v 0.716469 0.15 2.083332
v 0.773432 0.142679 2.062703
v 0.827784 0.13 2.034773
v 0.818356 0.15 2.017134
v 0.874352 0.142679 1.991758
v 0.9273 0.13 1.959283
v 0.916738 0.15 1.942299
v 0.971527 0.142679 1.912284
v 1.022845 0.13 1.875404
v 1.011195 0.15 1.859147
v 1.064543 0.142679 1.824621
v 1.11401 0.13 1.783493
v 1.101322 0.15 1.768033
v 1.153 0.142679 1.729145
v 1.200404 0.13 1.683946
v 1.186732 0.15 1.669349
v 1.23652 0.142679 1.626264
v 1.281659 0.13 1.577187
v 1.267061 0.15 1.563516
v 1.314745 0.142679 1.516419
v 1.357425 0.13 1.463675
v 1.341964 0.15 1.450987
v 1.387339 0.142679 1.400081
v 1.427378 0.13 1.343895
v 1.411121 0.15 1.332246
v 1.453994 0.142679 1.277747
v 1.491219 0.13 1.218361
v 1.474235 0.15 1.207799
v 1.514421 0.142679 1.149942
v 1.548675 0.13 1.087609
v 1.531036 0.15 1.078181
v 1.568364 0.142679 1.017213
v 1.599498 0.13 0.9522
v 1.581281 0.15 0.943945
v 1.615591 0.142679 0.880128
v 1.643473 0.13 0.812713
v 1.624755 0.15 0.805668
v 1.6559 0.142679 0.739274
v 1.68041 0.13 0.669746
v 1.661271 0.15 0.66394
v 1.689118 0.142679 0.595254
v 1.710151 0.13 0.523911
v 1.690673 0.15 0.51937
v 1.715102 0.142679 0.448685
v 1.732569 0.13 0.375833
v 1.712836 0.15 0.372575
v 1.733743 0.142679 0.300195
v 1.747568 0.13 0.226146
v 1.727664 0.15 0.224185
v 1.744959 0.142679 0.15042
v 1.755083 0.13 0.07549
v 1.735094 0.15 0.074835
v 1.748703 0.142679 0.0
v 1.755083 0.13 -0.07549
v 1.735094 0.15 -0.074835
v 1.744959 0.142679 -0.15042
v 1.747568 0.13 -0.226146
v 1.727664 0.15 -0.224185
v 1.733743 0.142679 -0.300195
v 1.732569 0.13 -0.375833
v 1.712836 0.15 -0.372575
v 1.715102 0.142679 -0.448685
v 1.710151 0.13 -0.523911
v 1.690673 0.15 -0.51937
v 1.689118 0.142679 -0.595254
v 1.68041 0.13 -0.669746
v 1.661271 0.15 -0.66394
v 1.6559 0.142679 -0.739274
v 1.643473 0.13 -0.812713
v 1.624755 0.15 -0.805668
v 1.615591 0.142679 -0.880128
v 1.599498 0.13 -0.9522
v 1.581281 0.15 -0.943945
v 1.568364 0.142679 -1.017213
v 1.548675 0.13 -1.087609
v 1.531036 0.15 -1.078181
v 1.514421 0.142679 -1.149942
v 1.491219 0.13 -1.218361
v 1.474235 0.15 -1.207799
v 1.453994 0.142679 -1.277747
v 1.427378 0.13 -1.343895
v 1.411121 0.15 -1.332246
v 1.387339 0.142679 -1.400081
v 1.357425 0.13 -1.463675
v 1.341964 0.15 -1.450987
v 1.314745 0.142679 -1.516419
v 1.281659 0.13 -1.577187
v 1.267061 0.15 -1.563516
v 1.23652 0.142679 -1.626264
v 1.200404 0.13 -1.683946
v 1.186732 0.15 -1.669349
v 1.153 0.142679 -1.729145
v 1.11401 0.13 -1.783493
v 1.101322 0.15 -1.768033
v 1.064543 0.142679 -1.824621
v 1.022845 0.13 -1.875404
v 1.011195 0.15 -1.859147
v 0.971527 0.142679 -1.912284
v 0.9273 0.13 -1.959283
v 0.916738 0.15 -1.942299
v 0.874352 0.142679 -1.991758
v 0.827784 0.13 -2.034773
v 0.818356 0.15 -2.017134
v 0.773432 0.142679 -2.062703
v 0.724723 0.13 -2.101549
v 0.716469 0.15 -2.083332
v 0.6692 0.142679 -2.124816
v 0.618559 0.13 -2.159327
v 0.611514 0.15 -2.140608
v 0.562102 0.142679 -2.17783
v 0.509747 0.13 -2.207857
v 0.503941 0.15 -2.188718
v 0.452598 0.142679 -2.221518
v 0.398751 0.13 -2.246934
v 0.39421 0.15 -2.227456
v 0.341155 0.142679 -2.255693
v 0.286048 0.13 -2.276388
v 0.28279 0.15 -2.256655
v 0.228252 0.142679 -2.280208
v 0.17212 0.13 -2.296095
v 0.17016 0.15 -2.276191
v 0.114371 0.142679 -2.29496
v 0.057455 0.13 -2.305969
v 0.056801 0.15 -2.28598
v 0.0 0.142679 -2.299884
v -0.057455 0.13 -2.305969
v -0.056801 0.15 -2.28598
v -0.114371 0.142679 -2.29496
v -0.17212 0.13 -2.296095
v -0.17016 0.15 -2.276191
v -0.228252 0.142679 -2.280208
v -0.286048 0.13 -2.276388
v -0.28279 0.15 -2.256655
v -0.341155 0.142679 -2.255693
v -0.398751 0.13 -2.246934
v -0.39421 0.15 -2.227456
v -0.452598 0.142679 -2.221518
v -0.509747 0.13 -2.207857
v -0.503941 0.15 -2.188718
v -0.562102 0.142679 -2.17783
v -0.618559 0.13 -2.159327
v -0.611514 0.15 -2.140608
v -0.6692 0.142679 -2.124816
v -0.724723 0.13 -2.101549
v -0.716469 0.15 -2.083332
v -0.773432 0.142679 -2.062703
v -0.827784 0.13 -2.034773
v -0.818356 0.15 -2.017134
v -0.874352 0.142679 -1.991758
v -0.9273 0.13 -1.959283
v -0.916738 0.15 -1.942299
v -0.971527 0.142679 -1.912284
v -1.022845 0.13 -1.875404
v -1.011195 0.15 -1.859147
v -1.064543 0.142679 -1.824621
v -1.11401 0.13 -1.783493
v -1.101322 0.15 -1.768033
v -1.153 0.142679 -1.729145
v -1.200404 0.13 -1.683946
v -1.186732 0.15 -1.669349
v -1.23652 0.142679 -1.626264
v -1.281659 0.13 -1.577187
v -1.267061 0.15 -1.563516
v -1.314745 0.142679 -1.516419
v -1.357425 0.13 -1.463675
v -1.341964 0.15 -1.450987
v -1.387339 0.142679 -1.400081
v -1.427378 0.13 -1.343895
v -1.411121 0.15 -1.332246
v -1.453994 0.142679 -1.277747
v -1.491219 0.13 -1.218361
v -1.474235 0.15 -1.207799
v -1.514421 0.142679 -1.149942
v -1.548675 0.13 -1.087609
v -1.531036 0.15 -1.078181
v -1.568364 0.142679 -1.017213
v -1.599498 0.13 -0.9522
v -1.581281 0.15 -0.943945
v -1.615591 0.142679 -0.880128
v -1.643473 0.13 -0.812713
v -1.624755 0.15 -0.805668
v -1.6559 0.142679 -0.739274
v -1.68041 0.13 -0.669746
v -1.661271 0.15 -0.66394
v -1.689118 0.142679 -0.595254
v -1.710151 0.13 -0.523911
v -1.690673 0.15 -0.51937
v -1.715102 0.142679 -0.448685
v -1.732569 0.13 -0.375833
v -1.712836 0.15 -0.372575
v -1.733743 0.142679 -0.300195
v -1.747568 0.13 -0.226146
v -1.727664 0.15 -0.224185
v -1.744959 0.142679 -0.15042
v -1.755083 0.13 -0.07549
v -1.735094 0.15 -0.074835
v -1.748703 0.142679 -0.0
v -1.755083 0.13 0.07549
v -1.735094 0.15 0.074835
v -1.744959 0.142679 0.15042
v -1.747568 0.13 0.226146
v -1.727664 0.15 0.224185
v -1.733743 0.142679 0.300195
v -1.732569 0.13 0.375833
v -1.712836 0.15 0.372575
v -1.715102 0.142679 0.448685
v -1.710151 0.13 0.523911
v -1.690673 0.15 0.51937
v -1.689118 0.142679 0.595254
v -1.68041 0.13 0.669746
v -1.661271 0.15 0.66394
v -1.6559 0.142679 0.739274
v -1.643473 0.13 0.812713
v -1.624755 0.15 0.805668
v -1.615591 0.142679 0.880128
v -1.599498 0.13 0.9522
v -1.581281 0.15 0.943945
v -1.568364 0.142679 1.017213
v -1.548675 0.13 1.087609
v -1.531036 0.15 1.078181
v -1.514421 0.142679 1.149942
v -1.491219 0.13 1.218361
v -1.474235 0.15 1.207799
v -1.453994 0.142679 1.277747
v -1.427378 0.13 1.343895
v -1.411121 0.15 1.332246
v -1.387339 0.142679 1.400081
v -1.357425 0.13 1.463675
v -1.341964 0.15 1.450987
v -1.314745 0.142679 1.516419
v -1.281659 0.13 1.577187
v -1.267061 0.15 1.563516
v -1.23652 0.142679 1.626264
v -1.200404 0.13 1.683946
v -1.186732 0.15 1.669349
v -1.153 0.142679 1.729145
v -1.11401 0.13 1.783493
v -1.101322 0.15 1.768033
v -1.064543 0.142679 1.824621
v -1.022845 0.13 1.875404
v -1.011195 0.15 1.859147
v -0.971527 0.142679 1.912284
v -0.9273 0.13 1.959283
v -0.916738 0.15 1.942299
v -0.874352 0.142679 1.991758
v -0.827784 0.13 2.034773
v -0.818356 0.15 2.017134
v -0.773432 0.142679 2.062703
v -0.724723 0.13 2.101549
v -0.716469 0.15 2.083332
v -0.6692 0.142679 2.124816
v -0.618559 0.13 2.159327
v -0.611514 0.15 2.140608
v -0.562102 0.142679 2.17783
v -0.509747 0.13 2.207857
v -0.503941 0.15 2.188718
v -0.452598 0.142679 2.221518
v -0.398751 0.13 2.246934
v -0.39421 0.15 2.227456
v -0.341155 0.142679 2.255693
v -0.286048 0.13 2.276388
v -0.28279 0.15 2.256655
v -0.228252 0.142679 2.280208
v -0.17212 0.13 2.296095
v -0.17016 0.15 2.276191
v -0.114371 0.142679 2.29496
v -0.057455 0.13 2.305969
v -0.056801 0.15 2.28598

vt 0.512467 0.000268
vt 0.524714 0.004224
vt 0.5 0.00316
vt 0.537348 0.002408
vt 0.51226 0.006585
vt 0.536728 0.008698
vt 0.549322 0.007411
vt 0.562068 0.006678
vt 0.561039 0.012914
vt 0.573719 0.012707
vt 0.586523 0.013062
vt 0.585088 0.019217
vt 0.5978 0.02009
vt 0.610607 0.02153
vt 0.608773 0.027578
vt 0.621463 0.029527
vt 0.634218 0.032047
vt 0.631992 0.037962
vt 0.644605 0.04098
vt 0.657254 0.044568
vt 0.654646 0.050325
vt 0.667128 0.054398
vt 0.679617 0.059039
vt 0.676637 0.064613
vt 0.688935 0.069724
vt 0.70121 0.075399
vt 0.697873 0.080766
vt 0.709934 0.086893
vt 0.721942 0.093577
vt 0.71826 0.098714
vt 0.730033 0.10583
vt 0.741723 0.113495
vt 0.737714 0.11838
vt 0.749147 0.126456
vt 0.76047 0.135068
vt 0.756149 0.139681
vt 0.767195 0.148681
vt 0.778101 0.158204
vt 0.773488 0.162524
vt 0.784098 0.172411
vt 0.794541 0.182803
vt 0.789655 0.186813
vt 0.799785 0.197543
vt 0.80972 0.208761
vt 0.804582 0.212443
vt 0.814188 0.223971
vt 0.823572 0.235966
vt 0.818205 0.239304
vt 0.827246 0.25158
vt 0.836039 0.264302
vt 0.830465 0.267281
vt 0.838902 0.280253
vt 0.847067 0.293646
vt 0.84131 0.296255
vt 0.849107 0.309868
vt 0.856609 0.323875
vt 0.850694 0.326101
vt 0.857817 0.340296
vt 0.864624 0.354858
vt 0.858576 0.356692
vt 0.864995 0.371408
vt 0.871077 0.386462
vt 0.864922 0.387897
vt 0.87061 0.403071
vt 0.875942 0.418552
vt 0.869706 0.419582
vt 0.874638 0.435149
vt 0.879196 0.450991
vt 0.872906 0.451611
vt 0.877062 0.467505
vt 0.880827 0.48364
vt 0.87451 0.483847
vt 0.877871 0.5
vt 0.880827 0.51636
vt 0.87451 0.516153
vt 0.877062 0.532495
vt 0.879196 0.549009
vt 0.872906 0.548389
vt 0.874638 0.564851
vt 0.875942 0.581448
vt 0.869706 0.580418
vt 0.87061 0.596929
vt 0.871077 0.613538
vt 0.864922 0.612103
vt 0.864995 0.628592
vt 0.864624 0.645142
vt 0.858576 0.643308
vt 0.857817 0.659704
vt 0.856609 0.676125
vt 0.850694 0.673899
vt 0.849107 0.690132
vt 0.847067 0.706354
vt 0.84131 0.703745
vt 0.838902 0.719747
vt 0.836039 0.735698
vt 0.830465 0.732719
vt 0.827246 0.74842
vt 0.823572 0.764034
vt 0.818205 0.760696
vt 0.814188 0.776029
vt 0.80972 0.791239
vt 0.804582 0.787557
vt 0.799785 0.802457
vt 0.794541 0.817197
vt 0.789655 0.813187
vt 0.784098 0.827589
vt 0.778101 0.841796
vt 0.773488 0.837476
vt 0.767195 0.851319
vt 0.76047 0.864932
vt 0.756149 0.860319
vt 0.749147 0.873544
vt 0.741723 0.886505
vt 0.737714 0.88162
vt 0.730033 0.89417
vt 0.721942 0.906423
vt 0.71826 0.901286
vt 0.709934 0.913107
vt 0.70121 0.924601
vt 0.697873 0.919234
vt 0.688935 0.930276
vt 0.679617 0.940961
vt 0.676637 0.935387
vt 0.667128 0.945602
vt 0.657254 0.955432
vt 0.654646 0.949675
vt 0.644605 0.95902
vt 0.634218 0.967953
vt 0.631992 0.962038
vt 0.621463 0.970473
vt 0.610607 0.97847
vt 0.608773 0.972422
vt 0.5978 0.97991
vt 0.586523 0.986938
vt 0.585088 0.980783
vt 0.573719 0.987293
vt 0.562068 0.993322
vt 0.561039 0.987086
vt 0.549322 0.992589
vt 0.537348 0.997592
vt 0.536728 0.991302
vt 0.524714 0.995776
vt 0.512467 0.999732
vt 0.51226 0.993415
vt 0.5 0.99684
vt 0.487533 0.999732
vt 0.48774 0.993415
vt 0.475286 0.995776
vt 0.462652 0.997592
vt 0.463272 0.991302
vt 0.450678 0.992589
vt 0.437932 0.993322
vt 0.438961 0.987086
vt 0.426281 0.987293
vt 0.413477 0.986938
vt 0.414912 0.980783
vt 0.4022 0.97991
vt 0.389393 0.97847
vt 0.391227 0.972422
vt 0.378537 0.970473
vt 0.365782 0.967953
vt 0.368008 0.962038
vt 0.355395 0.95902
vt 0.342746 0.955432
vt 0.345354 0.949675
vt 0.332872 0.945602
vt 0.320383 0.940961
vt 0.323363 0.935387
vt 0.311065 0.930276
vt 0.29879 0.924601
vt 0.302127 0.919234
vt 0.290066 0.913107
vt 0.278058 0.906423
vt 0.28174 0.901286
vt 0.269967 0.89417
vt 0.258277 0.886505
vt 0.262286 0.88162
vt 0.250853 0.873544
vt 0.23953 0.864932
vt 0.243851 0.860319
vt 0.232805 0.851319
vt 0.221899 0.841796
vt 0.226512 0.837476
vt 0.215902 0.827589
vt 0.205459 0.817197
vt 0.210345 0.813187
vt 0.200215 0.802457
vt 0.19028 0.791239
vt 0.195418 0.787557
vt 0.185812 0.776029
vt 0.176428 0.764034
vt 0.181795 0.760696
vt 0.172754 0.74842
vt 0.163961 0.735698
vt 0.169535 0.732719
vt 0.161098 0.719747
vt 0.152933 0.706354
vt 0.15869 0.703745
vt 0.150893 0.690132
vt 0.143391 0.676125
vt 0.149306 0.673899
vt 0.142183 0.659704
vt 0.135376 0.645142
vt 0.141424 0.643308
vt 0.135005 0.628592
vt 0.128923 0.613538
vt 0.135078 0.612103
vt 0.12939 0.596929
vt 0.124058 0.581448
vt 0.130294 0.580418
vt 0.125362 0.564851
vt 0.120804 0.549009
vt 0.127094 0.548389
vt 0.122938 0.532495
vt 0.119173 0.51636
vt 0.12549 0.516153
vt 0.122129 0.5
vt 0.119173 0.48364
vt 0.12549 0.483847
vt 0.122938 0.467505
vt 0.120804 0.450991
vt 0.127094 0.451611
vt 0.125362 0.435149
vt 0.124058 0.418552
vt 0.130294 0.419582
vt 0.12939 0.403071
vt 0.128923 0.386462
vt 0.135078 0.387897
vt 0.135005 0.371408
vt 0.135376 0.354858
vt 0.141424 0.356692
vt 0.142183 0.340296
vt 0.143391 0.323875
vt 0.149306 0.326101
vt 0.150893 0.309868
vt 0.152933 0.293646
vt 0.15869 0.296255
vt 0.161098 0.280253
vt 0.163961 0.264302
vt 0.169535 0.267281
vt 0.172754 0.25158
vt 0.176428 0.235966
vt 0.181795 0.239304
vt 0.185812 0.223971
vt 0.19028 0.208761
vt 0.195418 0.212443
vt 0.200215 0.197543
vt 0.205459 0.182803
vt 0.210345 0.186813
vt 0.215902 0.172411
vt 0.221899 0.158204
vt 0.226512 0.162524
vt 0.232805 0.148681
vt 0.23953 0.135068
vt 0.243851 0.139681
vt 0.250853 0.126456
vt 0.258277 0.113495
vt 0.262286 0.11838
vt 0.269967 0.10583
vt 0.278058 0.093577
vt 0.28174 0.098714
vt 0.290066 0.086893
vt 0.29879 0.075399
vt 0.302127 0.080766
vt 0.311065 0.069724
vt 0.320383 0.059039
vt 0.323363 0.064613
vt 0.332872 0.054398
vt 0.342746 0.044568
vt 0.345354 0.050325
vt 0.355395 0.04098
vt 0.365782 0.032047
vt 0.368008 0.037962
vt 0.378537 0.029527
vt 0.389393 0.02153
vt 0.391227 0.027578
vt 0.4022 0.02009
vt 0.413477 0.013062
vt 0.414912 0.019217
vt 0.426281 0.012707
vt 0.437932 0.006678
vt 0.438961 0.012914
vt 0.450678 0.007411
vt 0.462652 0.002408
vt 0.463272 0.008698
vt 0.475286 0.004224
vt 0.487533 0.000268
vt 0.48774 0.006585

vn 0.0 1.0 0.0
vn 0.060729 0.707107 0.704494
vn 0.0 0.707107 0.707107
vn 0.0 1.0 0.0
vn 0.0 1.0 0.0
vn 0.0 1.0 0.0
vn 0.120639 0.707107 0.69674
vn 0.0 1.0 0.0
vn 0.0 1.0 0.0
vn 0.178962 0.707107 0.684085
vn 0.0 1.0 0.0
vn 0.0 1.0 0.0
vn 0.235021 0.707107 0.666907
vn 0.0 1.0 0.0
vn 0.0 1.0 0.0
vn 0.288263 0.707107 0.645681
vn 0.0 1.0 0.0
vn 0.0 1.0 0.0
vn 0.338273 0.707107 0.620944
vn 0.0 1.0 0.0
vn 0.0 1.0 0.0
vn 0.384773 0.707107 0.593253
vn 0.0 1.0 0.0
vn 0.0 1.0 0.0
vn 0.427618 0.707107 0.563154
vn 0.0 1.0 0.0
vn 0.0 1.0 0.0
vn 0.466771 0.707107 0.531155
vn 0.0 1.0 0.0
vn 0.0 1.0 0.0
vn 0.50228 0.707107 0.497709
vn 0.0 1.0 0.0
vn 0.0 1.0 0.0
vn 0.534263 0.707107 0.463209
vn 0.0 1.0 0.0
vn 0.0 1.0 0.0
vn 0.562878 0.707107 0.427981
vn 0.0 1.0 0.0
vn 0.0 1.0 0.0
vn 0.588311 0.707107 0.392288
vn 0.0 1.0 0.0
vn 0.0 1.0 0.0
vn 0.610758 0.707107 0.356336
vn 0.0 1.0 0.0
vn 0.0 1.0 0.0
vn 0.630414 0.707107 0.320279
vn 0.0 1.0 0.0
vn 0.0 1.0 0.0
vn 0.647468 0.707107 0.284228
vn 0.0 1.0 0.0
vn 0.0 1.0 0.0
vn 0.662093 0.707107 0.248259
vn 0.0 1.0 0.0
vn 0.0 1.0 0.0
vn 0.674448 0.707107 0.212414
vn 0.0 1.0 0.0
vn 0.0 1.0 0.0
vn 0.684669 0.707107 0.176715
vn 0.0 1.0 0.0
vn 0.0 1.0 0.0
vn 0.692873 0.707107 0.141162
vn 0.0 1.0 0.0
vn 0.0 1.0 0.0
vn 0.699156 0.707107 0.105742
vn 0.0 1.0 0.0
vn 0.0 1.0 0.0
vn 0.70359 0.707107 0.07043
vn 0.0 1.0 0.0
vn 0.0 1.0 0.0
vn 0.70623 0.707107 0.035195
vn 0.0 1.0 0.0
vn 0.0 1.0 0.0
vn 0.707107 0.707107 0.0
vn 0.0 1.0 -0.0
vn 0.0 1.0 -0.0
vn 0.70623 0.707107 -0.035195
vn 0.0 1.0 -0.0
vn 0.0 1.0 -0.0
vn 0.70359 0.707107 -0.07043
vn 0.0 1.0 -0.0
vn 0.0 1.0 -0.0
vn 0.699156 0.707107 -0.105742
vn 0.0 1.0 -0.0
vn 0.0 1.0 -0.0
vn 0.692873 0.707107 -0.141162
vn 0.0 1.0 -0.0
vn 0.0 1.0 -0.0
vn 0.684669 0.707107 -0.176715
vn 0.0 1.0 -0.0
vn 0.0 1.0 -0.0
vn 0.674448 0.707107 -0.212414
vn 0.0 1.0 -0.0
vn 0.0 1.0 -0.0
vn 0.662093 0.707107 -0.248259
vn 0.0 1.0 -0.0
vn 0.0 1.0 -0.0
vn 0.647468 0.707107 -0.284228
vn 0.0 1.0 -0.0
vn 0.0 1.0 -0.0
vn 0.630414 0.707107 -0.320279
vn 0.0 1.0 -0.0
vn 0.0 1.0 -0.0
vn 0.610758 0.707107 -0.356336
vn 0.0 1.0 -0.0
vn 0.0 1.0 -0.0
vn 0.588311 0.707107 -0.392288
vn 0.0 1.0 -0.0
vn 0.0 1.0 -0.0
vn 0.562878 0.707107 -0.427981
vn 0.0 1.0 -0.0
vn 0.0 1.0 -0.0
vn 0.534263 0.707107 -0.463209
vn 0.0 1.0 -0.0
vn 0.0 1.0 -0.0
vn 0.50228 0.707107 -0.497709
vn 0.0 1.0 -0.0
vn 0.0 1.0 -0.0
vn 0.466771 0.707107 -0.531155
vn 0.0 1.0 -0.0
vn 0.0 1.0 -0.0
vn 0.427618 0.707107 -0.563154
vn 0.0 1.0 -0.0
vn 0.0 1.0 -0.0
vn 0.384773 0.707107 -0.593253
vn 0.0 1.0 -0.0
vn 0.0 1.0 -0.0
vn 0.338273 0.707107 -0.620944
vn 0.0 1.0 -0.0
vn 0.0 1.0 -0.0
vn 0.288263 0.707107 -0.645681
vn 0.0 1.0 -0.0
vn 0.0 1.0 -0.0
vn 0.235021 0.707107 -0.666907
vn 0.0 1.0 -0.0
vn 0.0 1.0 -0.0
vn 0.178962 0.707107 -0.684085
vn 0.0 1.0 -0.0
vn 0.0 1.0 -0.0
vn 0.120639 0.707107 -0.69674
vn 0.0 1.0 -0.0
vn 0.0 1.0 -0.0
vn 0.060729 0.707107 -0.704494
vn 0.0 1.0 -0.0
vn 0.0 1.0 -0.0
vn 0.0 0.707107 -0.707107
vn -0.0 1.0 -0.0
vn -0.0 1.0 -0.0
vn -0.060729 0.707107 -0.704494
vn -0.0 1.0 -0.0
vn -0.0 1.0 -0.0
vn -0.120639 0.707107 -0.69674
vn -0.0 1.0 -0.0
vn -0.0 1.0 -0.0
vn -0.178962 0.707107 -0.684085
vn -0.0 1.0 -0.0
vn -0.0 1.0 -0.0
vn -0.235021 0.707107 -0.666907
vn -0.0 1.0 -0.0
vn -0.0 1.0 -0.0
vn -0.288263 0.707107 -0.645681
vn -0.0 1.0 -0.0
vn -0.0 1.0 -0.0
vn -0.338273 0.707107 -0.620944
vn -0.0 1.0 -0.0
vn -0.0 1.0 -0.0
vn -0.384773 0.707107 -0.593253
vn -0.0 1.0 -0.0
vn -0.0 1.0 -0.0
vn -0.427618 0.707107 -0.563154
vn -0.0 1.0 -0.0
vn -0.0 1.0 -0.0
vn -0.466771 0.707107 -0.531155
vn -0.0 1.0 -0.0
vn -0.0 1.0 -0.0
vn -0.50228 0.707107 -0.497709
vn -0.0 1.0 -0.0
vn -0.0 1.0 -0.0
vn -0.534263 0.707107 -0.463209
vn -0.0 1.0 -0.0
vn -0.0 1.0 -0.0
vn -0.562878 0.707107 -0.427981
vn -0.0 1.0 -0.0
vn -0.0 1.0 -0.0
vn -0.588311 0.707107 -0.392288
vn -0.0 1.0 -0.0
vn -0.0 1.0 -0.0
vn -0.610758 0.707107 -0.356336
vn -0.0 1.0 -0.0
vn -0.0 1.0 -0.0
vn -0.630414 0.707107 -0.320279
vn -0.0 1.0 -0.0
vn -0.0 1.0 -0.0
vn -0.647468 0.707107 -0.284228
vn -0.0 1.0 -0.0
vn -0.0 1.0 -0.0
vn -0.662093 0.707107 -0.248259
vn -0.0 1.0 -0.0
vn -0.0 1.0 -0.0
vn -0.674448 0.707107 -0.212414
vn -0.0 1.0 -0.0
vn -0.0 1.0 -0.0
vn -0.684669 0.707107 -0.176715
vn -0.0 1.0 -0.0
vn -0.0 1.0 -0.0
vn -0.692873 0.707107 -0.141162
vn -0.0 1.0 -0.0
vn -0.0 1.0 -0.0
vn -0.699156 0.707107 -0.105742
vn -0.0 1.0 -0.0
vn -0.0 1.0 -0.0
vn -0.70359 0.707107 -0.07043
vn -0.0 1.0 -0.0
vn -0.0 1.0 -0.0
vn -0.70623 0.707107 -0.035195
vn -0.0 1.0 -0.0
vn -0.0 1.0 -0.0
vn -0.707107 0.707107 -0.0
vn -0.0 1.0 0.0
vn -0.0 1.0 0.0
vn -0.70623 0.707107 0.035195
vn -0.0 1.0 0.0
vn -0.0 1.0 0.0
vn -0.70359 0.707107 0.07043
vn -0.0 1.0 0.0
vn -0.0 1.0 0.0
vn -0.699156 0.707107 0.105742
vn -0.0 1.0 0.0
vn -0.0 1.0 0.0
vn -0.692873 0.707107 0.141162
vn -0.0 1.0 0.0
vn -0.0 1.0 0.0
vn -0.684669 0.707107 0.176715
vn -0.0 1.0 0.0
vn -0.0 1.0 0.0
vn -0.674448 0.707107 0.212414
vn -0.0 1.0 0.0
vn -0.0 1.0 0.0
vn -0.662093 0.707107 0.248259
vn -0.0 1.0 0.0
vn -0.0 1.0 0.0
vn -0.647468 0.707107 0.284228
vn -0.0 1.0 0.0
vn -0.0 1.0 0.0
vn -0.630414 0.707107 0.320279
vn -0.0 1.0 0.0
vn -0.0 1.0 0.0
vn -0.610758 0.707107 0.356336
vn -0.0 1.0 0.0
vn -0.0 1.0 0.0
vn -0.588311 0.707107 0.392288
vn -0.0 1.0 0.0
vn -0.0 1.0 0.0
vn -0.562878 0.707107 0.427981
vn -0.0 1.0 0.0
vn -0.0 1.0 0.0
vn -0.534263 0.707107 0.463209
vn -0.0 1.0 0.0
vn -0.0 1.0 0.0
vn -0.50228 0.707107 0.497709
vn -0.0 1.0 0.0
vn -0.0 1.0 0.0
vn -0.466771 0.707107 0.531155
vn -0.0 1.0 0.0
vn -0.0 1.0 0.0
vn -0.427618 0.707107 0.563154
vn -0.0 1.0 0.0
vn -0.0 1.0 0.0
vn -0.384773 0.707107 0.593253
vn -0.0 1.0 0.0
vn -0.0 1.0 0.0
vn -0.338273 0.707107 0.620944
vn -0.0 1.0 0.0
vn -0.0 1.0 0.0
vn -0.288263 0.707107 0.645681
vn -0.0 1.0 0.0
vn -0.0 1.0 0.0
vn -0.235021 0.707107 0.666907
vn -0.0 1.0 0.0
vn -0.0 1.0 0.0
vn -0.178962 0.707107 0.684085
vn -0.0 1.0 0.0
vn -0.0 1.0 0.0
vn -0.120639 0.707107 0.69674
vn -0.0 1.0 0.0
vn -0.0 1.0 0.0
vn -0.060729 0.707107 0.704494
vn -0.0 1.0 0.0
vn -0.0 1.0 0.0

f 1/1/1 2/2/2 3/3/3
f 1/1/1 4/4/4 2/2/2
f 5/5/5 3/3/3 2/2/2
f 5/5/5 2/2/2 6/6/6
f 4/4/4 7/7/7 2/2/2
f 4/4/4 8/8/8 7/7/7
f 6/6/6 2/2/2 7/7/7
f 6/6/6 7/7/7 9/9/9
f 6/6/6 9/9/9 5/5/5
f 8/8/8 10/10/10 7/7/7
f 8/8/8 11/11/11 10/10/10
f 9/9/9 7/7/7 10/10/10
f 9/9/9 10/10/10 12/12/12
f 9/9/9 12/12/12 5/5/5
f 11/11/11 13/13/13 10/10/10
f 11/11/11 14/14/14 13/13/13
f 12/12/12 10/10/10 13/13/13
f 12/12/12 13/13/13 15/15/15
f 12/12/12 15/15/15 5/5/5
f 14/14/14 16/16/16 13/13/13
f 14/14/14 17/17/17 16/16/16
f 15/15/15 13/13/13 16/16/16
f 15/15/15 16/16/16 18/18/18
f 15/15/15 18/18/18 5/5/5
f 17/17/17 19/19/19 16/16/16
f 17/17/17 20/20/20 19/19/19
f 18/18/18 16/16/16 19/19/19
f 18/18/18 19/19/19 21/21/21
f 18/18/18 21/21/21 5/5/5
f 20/20/20 22/22/22 19/19/19
f 20/20/20 23/23/23 22/22/22
f 21/21/21 19/19/19 22/22/22
f 21/21/21 22/22/22 24/24/24
f 21/21/21 24/24/24 5/5/5
f 23/23/23 25/25/25 22/22/22
f 23/23/23 26/26/26 25/25/25
f 24/24/24 22/22/22 25/25/25
f 24/24/24 25/25/25 27/27/27
f 24/24/24 27/27/27 5/5/5
f 26/26/26 28/28/28 25/25/25
f 26/26/26 29/29/29 28/28/28
f 27/27/27 25/25/25 28/28/28
f 27/27/27 28/28/28 30/30/30
f 27/27/27 30/30/30 5/5/5
f 29/29/29 31/31/31 28/28/28
f 29/29/29 32/32/32 31/31/31
f 30/30/30 28/28/28 31/31/31
f 30/30/30 31/31/31 33/33/33
f 30/30/30 33/33/33 5/5/5
f 32/32/32 34/34/34 31/31/31
f 32/32/32 35/35/35 34/34/34
f 33/33/33 31/31/31 34/34/34
f 33/33/33 34/34/34 36/36/36
f 33/33/33 36/36/36 5/5/5
f 35/35/35 37/37/37 34/34/34
f 35/35/35 38/38/38 37/37/37
f 36/36/36 34/34/34 37/37/37
f 36/36/36 37/37/37 39/39/39
f 36/36/36 39/39/39 5/5/5
f 38/38/38 40/40/40 37/37/37
f 38/38/38 41/41/41 40/40/40
f 39/39/39 37/37/37 40/40/40
f 39/39/39 40/40/40 42/42/42
f 39/39/39 42/42/42 5/5/5
f 41/41/41 43/43/43 40/40/40
f 41/41/41 44/44/44 43/43/43
f 42/42/42 40/40/40 43/43/43
f 42/42/42 43/43/43 45/45/45
f 42/42/42 45/45/45 5/5/5
f 44/44/44 46/46/46 43/43/43
f 44/44/44 47/47/47 46/46/46
f 45/45/45 43/43/43 46/46/46
f 45/45/45 46/46/46 48/48/48
f 45/45/45 48/48/48 5/5/5
f 47/47/47 49/49/49 46/46/46
f 47/47/47 50/50/50 49/49/49
f 48/48/48 46/46/46 49/49/49
f 48/48/48 49/49/49 51/51/51
f 48/48/48 51/51/51 5/5/5
f 50/50/50 52/52/52 49/49/49
f 50/50/50 53/53/53 52/52/52
f 51/51/51 49/49/49 52/52/52
f 51/51/51 52/52/52 54/54/54
f 51/51/51 54/54/54 5/5/5
f 53/53/53 55/55/55 52/52/52
f 53/53/53 56/56/56 55/55/55
f 54/54/54 52/52/52 55/55/55
f 54/54/54 55/55/55 57/57/57
f 54/54/54 57/57/57 5/5/5
f 56/56/56 58/58/58 55/55/55
f 56/56/56 59/59/59 58/58/58
f 57/57/57 55/55/55 58/58/58
f 57/57/57 58/58/58 60/60/60
f 57/57/57 60/60/60 5/5/5
f 59/59/59 61/61/61 58/58/58
f 59/59/59 62/62/62 61/61/61
f 60/60/60 58/58/58 61/61/61
f 60/60/60 61/61/61 63/63/63
f 60/60/60 63/63/63 5/5/5
f 62/62/62 64/64/64 61/61/61
f 62/62/62 65/65/65 64/64/64
f 63/63/63 61/61/61 64/64/64
f 63/63/63 64/64/64 66/66/66
f 63/63/63 66/66/66 5/5/5
f 65/65/65 67/67/67 64/64/64
f 65/65/65 68/68/68 67/67/67
f 66/66/66 64/64/64 67/67/67
f 66/66/66 67/67/67 69/69/69
f 66/66/66 69/69/69 5/5/5
f 68/68/68 70/70/70 67/67/67
f 68/68/68 71/71/71 70/70/70
f 69/69/69 67/67/67 70/70/70
f 69/69/69 70/70/70 72/72/72
f 69/69/69 72/72/72 5/5/5
f 71/71/71 73/73/73 70/70/70
f 71/71/71 74/74/74 73/73/73
f 72/72/72 70/70/70 73/73/73
f 72/72/72 73/73/73 75/75/75
f 72/72/72 75/75/75 5/5/5
f 74/74/74 76/76/76 73/73/73
f 74/74/74 77/77/77 76/76/76
f 75/75/75 73/73/73 76/76/76
f 75/75/75 76/76/76 78/78/78
f 75/75/75 78/78/78 5/5/5
f 77/77/77 79/79/79 76/76/76
f 77/77/77 80/80/80 79/79/79
f 78/78/78 76/76/76 79/79/79
f 78/78/78 79/79/79 81/81/81
f 78/78/78 81/81/81 5/5/5
f 80/80/80 82/82/82 79/79/79
f 80/80/80 83/83/83 82/82/82
f 81/81/81 79/79/79 82/82/82
f 81/81/81 82/82/82 84/84/84
f 81/81/81 84/84/84 5/5/5
f 83/83/83 85/85/85 82/82/82
f 83/83/83 86/86/86 85/85/85
f 84/84/84 82/82/82 85/85/85
f 84/84/84 85/85/85 87/87/87
f 84/84/84 87/87/87 5/5/5
f 86/86/86 88/88/88 85/85/85
f 86/86/86 89/89/89 88/88/88
f 87/87/87 85/85/85 88/88/88
f 87/87/87 88/88/88 90/90/90
f 87/87/87 90/90/90 5/5/5
f 89/89/89 91/91/91 88/88/88
f 89/89/89 92/92/92 91/91/91
f 90/90/90 88/88/88 91/91/91
f 90/90/90 91/91/91 93/93/93
f 90/90/90 93/93/93 5/5/5
f 92/92/92 94/94/94 91/91/91
f 92/92/92 95/95/95 94/94/94
f 93/93/93 91/91/91 94/94/94
f 93/93/93 94/94/94 96/96/96
f 93/93/93 96/96/96 5/5/5
f 95/95/95 97/97/97 94/94/94
f 95/95/95 98/98/98 97/97/97
f 96/96/96 94/94/94 97/97/97
f 96/96/96 97/97/97 99/99/99
f 96/96/96 99/99/99 5/5/5
f 98/98/98 100/100/100 97/97/97
f 98/98/98 101/101/101 100/100/100
f 99/99/99 97/97/97 100/100/100
f 99/99/99 100/100/100 102/102/102
f 99/99/99 102/102/102 5/5/5
f 101/101/101 103/103/103 100/100/100
f 101/101/101 104/104/104 103/103/103
f 102/102/102 100/100/100 103/103/103
f 102/102/102 103/103/103 105/105/105
f 102/102/102 105/105/105 5/5/5
f 104/104/104 106/106/106 103/103/103
f 104/104/104 107/107/107 106/106/106
f 105/105/105 103/103/103 106/106/106
f 105/105/105 106/106/106 108/108/108
f 105/105/105 108/108/108 5/5/5
f 107/107/107 109/109/109 106/106/106
f 107/107/107 110/110/110 109/109/109
f 108/108/108 106/106/106 109/109/109
f 108/108/108 109/109/109 111/111/111
f 108/108/108 111/111/111 5/5/5
f 110/110/110 112/112/112 109/109/109
f 110/110/110 113/113/113 112/112/112
f 111/111/111 109/109/109 112/112/112
f 111/111/111 112/112/112 114/114/114
f 111/111/111 114/114/114 5/5/5
f 113/113/113 115/115/115 112/112/112
f 113/113/113 116/116/116 115/115/115
f 114/114/114 112/112/112 115/115/115
f 114/114/114 115/115/115 117/117/117
f 114/114/114 117/117/117 5/5/5
f 116/116/116 118/118/118 115/115/115
f 116/116/116 119/119/119 118/118/118
f 117/117/117 115/115/115 118/118/118
f 117/117/117 118/118/118 120/120/120
f 117/117/117 120/120/120 5/5/5
f 119/119/119 121/121/121 118/118/118
f 119/119/119 122/122/122 121/121/121
f 120/120/120 118/118/118 121/121/121
f 120/120/120 121/121/121 123/123/123
f 120/120/120 123/123/123 5/5/5
f 122/122/122 124/124/124 121/121/121
f 122/122/122 125/125/125 124/124/124
f 123/123/123 121/121/121 124/124/124
f 123/123/123 124/124/124 126/126/126
f 123/123/123 126/126/126 5/5/5
f 125/125/125 127/127/127 124/124/124
f 125/125/125 128/128/128 127/127/127
f 126/126/126 124/124/124 127/127/127
f 126/126/126 127/127/127 129/129/129
f 126/126/126 129/129/129 5/5/5
f 128/128/128 130/130/130 127/127/127
f 128/128/128 131/131/131 130/130/130
f 129/129/129 127/127/127 130/130/130
f 129/129/129 130/130/130 132/132/132
f 129/129/129 132/132/132 5/5/5
f 131/131/131 133/133/133 130/130/130
f 131/131/131 134/134/134 133/133/133
f 132/132/132 130/130/130 133/133/133
f 132/132/132 133/133/133 135/135/135
f 132/132/132 135/135/135 5/5/5
f 134/134/134 136/136/136 133/133/133
f 134/134/134 137/137/137 136/136/136
f 135/135/135 133/133/133 136/136/136
f 135/135/135 136/136/136 138/138/138
f 135/135/135 138/138/138 5/5/5
f 137/137/137 139/139/139 136/136/136
f 137/137/137 140/140/140 139/139/139
f 138/138/138 136/136/136 139/139/139
f 138/138/138 139/139/139 141/141/141
f 138/138/138 141/141/141 5/5/5
f 140/140/140 142/142/142 139/139/139
f 140/140/140 143/143/143 142/142/142
f 141/141/141 139/139/139 142/142/142
f 141/141/141 142/142/142 144/144/144
f 141/141/141 144/144/144 5/5/5
f 143/143/143 145/145/145 142/142/142
f 143/143/143 146/146/146 145/145/145
f 144/144/144 142/142/142 145/145/145
f 144/144/144 145/145/145 147/147/147
f 144/144/144 147/147/147 5/5/5
f 146/146/146 148/148/148 145/145/145
f 146/146/146 149/149/149 148/148/148
f 147/147/147 145/145/145 148/148/148
f 147/147/147 148/148/148 150/150/150
f 147/147/147 150/150/150 5/5/5
f 149/149/149 151/151/151 148/148/148
f 149/149/149 152/152/152 151/151/151
f 150/150/150 148/148/148 151/151/151
f 150/150/150 151/151/151 153/153/153
f 150/150/150 153/153/153 5/5/5
f 152/152/152 154/154/154 151/151/151
f 152/152/152 155/155/155 154/154/154
f 153/153/153 151/151/151 154/154/154
f 153/153/153 154/154/154 156/156/156
f 153/153/153 156/156/156 5/5/5
f 155/155/155 157/157/157 154/154/154
f 155/155/155 158/158/158 157/157/157
f 156/156/156 154/154/154 157/157/157
f 156/156/156 157/157/157 159/159/159
f 156/156/156 159/159/159 5/5/5
f 158/158/158 160/160/160 157/157/157
f 158/158/158 161/161/161 160/160/160
f 159/159/159 157/157/157 160/160/160
f 159/159/159 160/160/160 162/162/162
f 159/159/159 162/162/162 5/5/5
f 161/161/161 163/163/163 160/160/160
f 161/161/161 164/164/164 163/163/163
f 162/162/162 160/160/160 163/163/163
f 162/162/162 163/163/163 165/165/165
f 162/162/162 165/165/165 5/5/5
f 164/164/164 166/166/166 163/163/163
f 164/164/164 167/167/167 166/166/166
f 165/165/165 163/163/163 166/166/166
f 165/165/165 166/166/166 168/168/168
f 165/165/165 168/168/168 5/5/5
f 167/167/167 169/169/169 166/166/166
f 167/167/167 170/170/170 169/169/169
f 168/168/168 166/166/166 169/169/169
f 168/168/168 169/169/169 171/171/171
f 168/168/168 171/171/171 5/5/5
f 170/170/170 172/172/172 169/169/169
f 170/170/170 173/173/173 172/172/172
f 171/171/171 169/169/169 172/172/172
f 171/171/171 172/172/172 174/174/174
f 171/171/171 174/174/174 5/5/5
f 173/173/173 175/175/175 172/172/172
f 173/173/173 176/176/176 175/175/175
f 174/174/174 172/172/172 175/175/175
f 174/174/174 175/175/175 177/177/177
f 174/174/174 177/177/177 5/5/5
f 176/176/176 178/178/178 175/175/175
f 176/176/176 179/179/179 178/178/178
f 177/177/177 175/175/175 178/178/178
f 177/177/177 178/178/178 180/180/180
f 177/177/177 180/180/180 5/5/5
f 179/179/179 181/181/181 178/178/178
f 179/179/179 182/182/182 181/181/181
f 180/180/180 178/178/178 181/181/181
f 180/180/180 181/181/181 183/183/183
f 180/180/180 183/183/183 5/5/5
f 182/182/182 184/184/184 181/181/181
f 182/182/182 185/185/185 184/184/184
f 183/183/183 181/181/181 184/184/184
f 183/183/183 184/184/184 186/186/186
f 183/183/183 186/186/186 5/5/5
f 185/185/185 187/187/187 184/184/184
f 185/185/185 188/188/188 187/187/187
f 186/186/186 184/184/184 187/187/187
f 186/186/186 187/187/187 189/189/189
f 186/186/186 189/189/189 5/5/5
f 188/188/188 190/190/190 187/187/187
f 188/188/188 191/191/191 190/190/190
f 189/189/189 187/187/187 190/190/190
f 189/189/189 190/190/190 192/192/192
f 189/189/189 192/192/192 5/5/5
f 191/191/191 193/193/193 190/190/190
f 191/191/191 194/194/194 193/193/193
f 192/192/192 190/190/190 193/193/193
f 192/192/192 193/193/193 195/195/195
f 192/192/192 195/195/195 5/5/5
f 194/194/194 196/196/196 193/193/193
f 194/194/194 197/197/197 196/196/196
f 195/195/195 193/193/193 196/196/196
f 195/195/195 196/196/196 198/198/198
f 195/195/195 198/198/198 5/5/5
f 197/197/197 199/199/199 196/196/196
f 197/197/197 200/200/200 199/199/199
f 198/198/198 196/196/196 199/199/199
f 198/198/198 199/199/199 201/201/201
f 198/198/198 201/201/201 5/5/5
f 200/200/200 202/202/202 199/199/199
f 200/200/200 203/203/203 202/202/202
f 201/201/201 199/199/199 202/202/202
f 201/201/201 202/202/202 204/204/204
f 201/201/201 204/204/204 5/5/5
f 203/203/203 205/205/205 202/202/202
f 203/203/203 206/206/206 205/205/205
f 204/204/204 202/202/202 205/205/205
f 204/204/204 205/205/205 207/207/207
f 204/204/204 207/207/207 5/5/5
f 206/206/206 208/208/208 205/205/205
f 206/206/206 209/209/209 208/208/208
f 207/207/207 205/205/205 208/208/208
f 207/207/207 208/208/208 210/210/210
f 207/207/207 210/210/210 5/5/5
f 209/209/209 211/211/211 208/208/208
f 209/209/209 212/212/212 211/211/211
f 210/210/210 208/208/208 211/211/211
f 210/210/210 211/211/211 213/213/213
f 210/210/210 213/213/213 5/5/5
f 212/212/212 214/214/214 211/211/211
f 212/212/212 215/215/215 214/214/214
f 213/213/213 211/211/211 214/214/214
f 213/213/213 214/214/214 216/216/216
f 213/213/213 216/216/216 5/5/5
f 215/215/215 217/217/217 214/214/214
f 215/215/215 218/218/218 217/217/217
f 216/216/216 214/214/214 217/217/217
f 216/216/216 217/217/217 219/219/219
f 216/216/216 219/219/219 5/5/5
f 218/218/218 220/220/220 217/217/217
f 218/218/218 221/221/221 220/220/220
f 219/219/219 217/217/217 220/220/220
f 219/219/219 220/220/220 222/222/222
f 219/219/219 222/222/222 5/5/5
f 221/221/221 223/223/223 220/220/220
f 221/221/221 224/224/224 223/223/223
f 222/222/222 220/220/220 223/223/223
f 222/222/222 223/223/223 225/225/225
f 222/222/222 225/225/225 5/5/5
f 224/224/224 226/226/226 223/223/223
f 224/224/224 227/227/227 226/226/226
f 225/225/225 223/223/223 226/226/226
f 225/225/225 226/226/226 228/228/228
f 225/225/225 228/228/228 5/5/5
f 227/227/227 229/229/229 226/226/226
f 227/227/227 230/230/230 229/229/229
f 228/228/228 226/226/226 229/229/229
f 228/228/228 229/229/229 231/231/231
f 228/228/228 231/231/231 5/5/5
f 230/230/230 232/232/232 229/229/229
f 230/230/230 233/233/233 232/232/232
f 231/231/231 229/229/229 232/232/232
f 231/231/231 232/232/232 234/234/234
f 231/231/231 234/234/234 5/5/5
f 233/233/233 235/235/235 232/232/232
f 233/233/233 236/236/236 235/235/235
f 234/234/234 232/232/232 235/235/235
f 234/234/234 235/235/235 237/237/237
f 234/234/234 237/237/237 5/5/5
f 236/236/236 238/238/238 235/235/235
f 236/236/236 239/239/239 238/238/238
f 237/237/237 235/235/235 238/238/238
f 237/237/237 238/238/238 240/240/240
f 237/237/237 240/240/240 5/5/5
f 239/239/239 241/241/241 238/238/238
f 239/239/239 242/242/242 241/241/241
f 240/240/240 238/238/238 241/241/241
f 240/240/240 241/241/241 243/243/243
f 240/240/240 243/243/243 5/5/5
f 242/242/242 244/244/244 241/241/241
f 242/242/242 245/245/245 244/244/244
f 243/243/243 241/241/241 244/244/244
f 243/243/243 244/244/244 246/246/246
f 243/243/243 246/246/246 5/5/5
f 245/245/245 247/247/247 244/244/244
f 245/245/245 248/248/248 247/247/247
f 246/246/246 244/244/244 247/247/247
f 246/246/246 247/247/247 249/249/249
f 246/246/246 249/249/249 5/5/5
f 248/248/248 250/250/250 247/247/247
f 248/248/248 251/251/251 250/250/250
f 249/249/249 247/247/247 250/250/250
f 249/249/249 250/250/250 252/252/252
f 249/249/249 252/252/252 5/5/5
f 251/251/251 253/253/253 250/250/250
f 251/251/251 254/254/254 253/253/253
f 252/252/252 250/250/250 253/253/253
f 252/252/252 253/253/253 255/255/255
f 252/252/252 255/255/255 5/5/5
f 254/254/254 256/256/256 253/253/253
f 254/254/254 257/257/257 256/256/256
f 255/255/255 253/253/253 256/256/256
f 255/255/255 256/256/256 258/258/258
f 255/255/255 258/258/258 5/5/5
f 257/257/257 259/259/259 256/256/256
f 257/257/257 260/260/260 259/259/259
f 258/258/258 256/256/256 259/259/259
f 258/258/258 259/259/259 261/261/261
f 258/258/258 261/261/261 5/5/5
f 260/260/260 262/262/262 259/259/259
f 260/260/260 263/263/263 262/262/262
f 261/261/261 259/259/259 262/262/262
f 261/261/261 262/262/262 264/264/264
f 261/261/261 264/264/264 5/5/5
f 263/263/263 265/265/265 262/262/262
f 263/263/263 266/266/266 265/265/265
f 264/264/264 262/262/262 265/265/265
f 264/264/264 265/265/265 267/267/267
f 264/264/264 267/267/267 5/5/5
f 266/266/266 268/268/268 265/265/265
f 266/266/266 269/269/269 268/268/268
f 267/267/267 265/265/265 268/268/268
f 267/267/267 268/268/268 270/270/270
f 267/267/267 270/270/270 5/5/5
f 269/269/269 271/271/271 268/268/268
f 269/269/269 272/272/272 271/271/271
f 270/270/270 268/268/268 271/271/271
f 270/270/270 271/271/271 273/273/273
f 270/270/270 273/273/273 5/5/5
f 272/272/272 274/274/274 271/271/271
f 272/272/272 275/275/275 274/274/274
f 273/273/273 271/271/271 274/274/274
f 273/273/273 274/274/274 276/276/276
f 273/273/273 276/276/276 5/5/5
f 275/275/275 277/277/277 274/274/274
f 275/275/275 278/278/278 277/277/277
f 276/276/276 274/274/274 277/277/277
f 276/276/276 277/277/277 279/279/279
f 276/276/276 279/279/279 5/5/5
f 278/278/278 280/280/280 277/277/277
f 278/278/278 281/281/281 280/280/280
f 279/279/279 277/277/277 280/280/280
f 279/279/279 280/280/280 282/282/282
f 279/279/279 282/282/282 5/5/5
f 281/281/281 283/283/283 280/280/280
f 281/281/281 284/284/284 283/283/283
f 282/282/282 280/280/280 283/283/283
f 282/282/282 283/283/283 285/285/285
f 282/282/282 285/285/285 5/5/5
f 284/284/284 286/286/286 283/283/283
f 284/284/284 287/287/287 286/286/286
f 285/285/285 283/283/283 286/286/286
f 285/285/285 286/286/286 288/288/288
f 285/285/285 288/288/288 5/5/5
f 287/287/287 3/3/3 286/286/286
f 287/287/287 1/1/1 3/3/3
f 288/288/288 286/286/286 3/3/3
f 288/288/288 3/3/3 5/5/5
