v 0.040391 0.13 1.41943
v 0.079907 0.142679 1.406311
v 0.0 0.142679 1.414057
v 0.120732 0.13 1.403878
v 0.039345 0.15 1.399457
v 0.117603 0.15 1.384125
v 0.158938 0.142679 1.383157
v 0.199749 0.13 1.372946
v 0.194573 0.15 1.353627
v 0.236228 0.142679 1.344849
v 0.276578 0.13 1.326971
v 0.269411 0.15 1.308299
v 0.31093 0.142679 1.291806
v 0.350377 0.13 1.266457
v 0.341297 0.15 1.248637
v 0.382226 0.142679 1.22461
v 0.420337 0.13 1.192068
v 0.409444 0.15 1.175294
v 0.449333 0.142679 1.143997
v 0.485692 0.13 1.104618
v 0.473105 0.15 1.089075
v 0.511518 0.142679 1.050849
v 0.545725 0.13 1.005066
v 0.531583 0.15 0.990924
v 0.568098 0.142679 0.946189
v 0.599779 0.13 0.894502
v 0.584236 0.15 0.881916
v 0.618454 0.142679 0.831162
v 0.647262 0.13 0.774138
v 0.630489 0.15 0.763245
v 0.662034 0.142679 0.707029
v 0.687654 0.13 0.645292
v 0.669833 0.15 0.636212
v 0.698361 0.142679 0.575149
v 0.720511 0.13 0.509376
v 0.701839 0.15 0.502209
v 0.727036 0.142679 0.436968
v 0.745474 0.13 0.36788
v 0.726156 0.15 0.362703
v 0.747746 0.142679 0.293999
v 0.76227 0.13 0.222352
v 0.742516 0.15 0.219224
v 0.760263 0.142679 0.147809
v 0.770714 0.13 0.074389
v 0.750741 0.15 0.073342
v 0.764451 0.142679 0.0
v 0.770714 0.13 -0.074389
v 0.750741 0.15 -0.073342
v 0.760263 0.142679 -0.147809
v 0.76227 0.13 -0.222352
v 0.742516 0.15 -0.219224
v 0.747746 0.142679 -0.293999
v 0.745474 0.13 -0.36788
v 0.726156 0.15 -0.362703
v 0.727036 0.142679 -0.436968
v 0.720511 0.13 -0.509376
v 0.701839 0.15 -0.502209
v 0.698361 0.142679 -0.575149
v 0.687654 0.13 -0.645292
v 0.669833 0.15 -0.636212
v 0.662034 0.142679 -0.707029
v 0.647262 0.13 -0.774138
v 0.630489 0.15 -0.763245
v 0.618454 0.142679 -0.831162
v 0.599779 0.13 -0.894502
v 0.584236 0.15 -0.881916
v 0.568098 0.142679 -0.946189
v 0.545725 0.13 -1.005066
v 0.531583 0.15 -0.990924
v 0.511518 0.142679 -1.050849
v 0.485692 0.13 -1.104618
v 0.473105 0.15 -1.089075
v 0.449333 0.142679 -1.143997
v 0.420337 0.13 -1.192068
v 0.409444 0.15 -1.175294
v 0.382226 0.142679 -1.22461
v 0.350377 0.13 -1.266457
v 0.341297 0.15 -1.248637
v 0.31093 0.142679 -1.291806
v 0.276578 0.13 -1.326971
v 0.269411 0.15 -1.308299
v 0.236228 0.142679 -1.344849
v 0.199749 0.13 -1.372946
v 0.194573 0.15 -1.353627
v 0.158938 0.142679 -1.383157
v 0.120732 0.13 -1.403878
v 0.117603 0.15 -1.384125
v 0.079907 0.142679 -1.406311
v 0.040391 0.13 -1.41943
v 0.039345 0.15 -1.399457
v 0.0 0.142679 -1.414057
v -0.040391 0.13 -1.41943
v -0.039345 0.15 -1.399457
v -0.079907 0.142679 -1.406311
v -0.120732 0.13 -1.403878
v -0.117603 0.15 -1.384125
v -0.158938 0.142679 -1.383157
v -0.199749 0.13 -1.372946
v -0.194573 0.15 -1.353627
v -0.236228 0.142679 -1.344849
v -0.276578 0.13 -1.326971
v -0.269411 0.15 -1.308299
v -0.31093 0.142679 -1.291806
v -0.350377 0.13 -1.266457
v -0.341297 0.15 -1.248637
v -0.382226 0.142679 -1.22461
v -0.420337 0.13 -1.192068
v -0.409444 0.15 -1.175294
v -0.449333 0.142679 -1.143997
v -0.485692 0.13 -1.104618
v -0.473105 0.15 -1.089075
v -0.511518 0.142679 -1.050849
v -0.545725 0.13 -1.005066
v -0.531583 0.15 -0.990924
v -0.568098 0.142679 -0.946189
v -0.599779 0.13 -0.894502
v -0.584236 0.15 -0.881916
v -0.618454 0.142679 -0.831162
v -0.647262 0.13 -0.774138
v -0.630489 0.15 -0.763245
v -0.662034 0.142679 -0.707029
v -0.687654 0.13 -0.645292
v -0.669833 0.15 -0.636212
v -0.698361 0.142679 -0.575149
v -0.720511 0.13 -0.509376
v -0.701839 0.15 -0.502209
v -0.727036 0.142679 -0.436968
v -0.745474 0.13 -0.36788
v -0.726156 0.15 -0.362703
v -0.747746 0.142679 -0.293999
v -0.76227 0.13 -0.222352
v -0.742516 0.15 -0.219224
v -0.760263 0.142679 -0.147809
v -0.770714 0.13 -0.074389
v -0.750741 0.15 -0.073342
v -0.764451 0.142679 -0.0
v -0.770714 0.13 0.074389
v -0.750741 0.15 0.073342
v -0.760263 0.142679 0.147809
v -0.76227 0.13 0.222352
v -0.742516 0.15 0.219224
v -0.747746 0.142679 0.293999
v -0.745474 0.13 0.36788
v -0.726156 0.15 0.362703
v -0.727036 0.142679 0.436968
v -0.720511 0.13 0.509376
v -0.701839 0.15 0.502209
v -0.698361 0.142679 0.575149
v -0.687654 0.13 0.645292
v -0.669833 0.15 0.636212
v -0.662034 0.142679 0.707029
v -0.647262 0.13 0.774138
v -0.630489 0.15 0.763245
v -0.618454 0.142679 0.831162
v -0.599779 0.13 0.894502
v -0.584236 0.15 0.881916
v -0.568098 0.142679 0.946189
v -0.545725 0.13 1.005066
v -0.531583 0.15 0.990924
v -0.511518 0.142679 1.050849
v -0.485692 0.13 1.104618
v -0.473105 0.15 1.089075
v -0.449333 0.142679 1.143997
v -0.420337 0.13 1.192068
v -0.409444 0.15 1.175294
v -0.382226 0.142679 1.22461
v -0.350377 0.13 1.266457
v -0.341297 0.15 1.248637
v -0.31093 0.142679 1.291806
v -0.276578 0.13 1.326971
v -0.269411 0.15 1.308299
v -0.236228 0.142679 1.344849
v -0.199749 0.13 1.372946
v -0.194573 0.15 1.353627
v -0.158938 0.142679 1.383157
v -0.120732 0.13 1.403878
v -0.117603 0.15 1.384125
v -0.079907 0.142679 1.406311
v -0.040391 0.13 1.41943
v -0.039345 0.15 1.399457

vt 0.514286 0.000685
vt 0.527998 0.007828
vt 0.5 0.005117
vt 0.542702 0.006156
vt 0.513751 0.010905
vt 0.541101 0.016264
vt 0.55569 0.015931
vt 0.57065 0.017037
vt 0.568001 0.026922
vt 0.582771 0.029338
vt 0.597824 0.03321
vt 0.594156 0.042764
vt 0.608946 0.047902
vt 0.623926 0.054497
vt 0.61928 0.063615
vt 0.633926 0.071419
vt 0.64867 0.080665
vt 0.643096 0.089247
vt 0.65744 0.099631
vt 0.671785 0.111427
vt 0.665345 0.11938
vt 0.679229 0.13223
vt 0.693019 0.146447
vt 0.685782 0.153683
vt 0.699053 0.168859
vt 0.712137 0.18534
vt 0.704184 0.19178
vt 0.716697 0.209115
vt 0.728932 0.22768
vt 0.720349 0.233254
vt 0.731967 0.252558
vt 0.743218 0.273005
vt 0.734099 0.277651
vt 0.744696 0.298713
vt 0.754839 0.320816
vt 0.745285 0.324483
vt 0.754743 0.347073
vt 0.763668 0.37059
vt 0.753783 0.373239
vt 0.762 0.397108
vt 0.769609 0.421783
vt 0.759501 0.423384
vt 0.766386 0.448271
vt 0.772596 0.473832
vt 0.762376 0.474368
vt 0.767853 0.5
vt 0.772596 0.526168
vt 0.762376 0.525632
vt 0.766386 0.551729
vt 0.769609 0.578217
vt 0.759501 0.576616
vt 0.762 0.602892
vt 0.763668 0.62941
vt 0.753783 0.626761
vt 0.754743 0.652927
vt 0.754839 0.679184
vt 0.745285 0.675517
vt 0.744696 0.701287
vt 0.743218 0.726995
vt 0.734099 0.722349
vt 0.731967 0.747442
vt 0.728932 0.77232
vt 0.720349 0.766746
vt 0.716697 0.790885
vt 0.712137 0.81466
vt 0.704184 0.80822
vt 0.699053 0.831141
vt 0.693019 0.853553
vt 0.685782 0.846317
vt 0.679229 0.86777
vt 0.671785 0.888573
vt 0.665345 0.88062
vt 0.65744 0.900369
vt 0.64867 0.919335
vt 0.643096 0.910753
vt 0.633926 0.928581
vt 0.623926 0.945503
vt 0.61928 0.936385
vt 0.608946 0.952098
vt 0.597824 0.96679
vt 0.594156 0.957236
vt 0.582771 0.970662
vt 0.57065 0.982963
vt 0.568001 0.973078
vt 0.55569 0.984069
vt 0.542702 0.993844
vt 0.541101 0.983736
vt 0.527998 0.992172
vt 0.514286 0.999315
vt 0.513751 0.989095
vt 0.5 0.994883
vt 0.485714 0.999315
vt 0.486249 0.989095
vt 0.472002 0.992172
vt 0.457298 0.993844
vt 0.458899 0.983736
vt 0.44431 0.984069
vt 0.42935 0.982963
vt 0.431999 0.973078
vt 0.417229 0.970662
vt 0.402176 0.96679
vt 0.405844 0.957236
vt 0.391054 0.952098
vt 0.376074 0.945503
vt 0.38072 0.936385
vt 0.366074 0.928581
vt 0.35133 0.919335
vt 0.356904 0.910753
vt 0.34256 0.900369
vt 0.328215 0.888573
vt 0.334655 0.88062
vt 0.320771 0.86777
vt 0.306981 0.853553
vt 0.314218 0.846317
vt 0.300947 0.831141
vt 0.287863 0.81466
vt 0.295816 0.80822
vt 0.283303 0.790885
vt 0.271068 0.77232
vt 0.279651 0.766746
vt 0.268033 0.747442
vt 0.256782 0.726995
vt 0.265901 0.722349
vt 0.255304 0.701287
vt 0.245161 0.679184
vt 0.254715 0.675517
vt 0.245257 0.652927
vt 0.236332 0.62941
vt 0.246217 0.626761
vt 0.238 0.602892
vt 0.230391 0.578217
vt 0.240499 0.576616
vt 0.233614 0.551729
vt 0.227404 0.526168
vt 0.237624 0.525632
vt 0.232147 0.5
vt 0.227404 0.473832
vt 0.237624 0.474368
vt 0.233614 0.448271
vt 0.230391 0.421783
vt 0.240499 0.423384
vt 0.238 0.397108
vt 0.236332 0.37059
vt 0.246217 0.373239
vt 0.245257 0.347073
vt 0.245161 0.320816
vt 0.254715 0.324483
vt 0.255304 0.298713
vt 0.256782 0.273005
vt 0.265901 0.277651
vt 0.268033 0.252558
vt 0.271068 0.22768
vt 0.279651 0.233254
vt 0.283303 0.209115
vt 0.287863 0.18534
vt 0.295816 0.19178
vt 0.300947 0.168859
vt 0.306981 0.146447
vt 0.314218 0.153683
vt 0.320771 0.13223
vt 0.328215 0.111427
vt 0.334655 0.11938
vt 0.34256 0.099631
vt 0.35133 0.080665
vt 0.356904 0.089247
vt 0.366074 0.071419
vt 0.376074 0.054497
vt 0.38072 0.063615
vt 0.391054 0.047902
vt 0.402176 0.03321
vt 0.405844 0.042764
vt 0.417229 0.029338
vt 0.42935 0.017037
vt 0.431999 0.026922
vt 0.44431 0.015931
vt 0.457298 0.006156
vt 0.458899 0.016264
vt 0.472002 0.007828
vt 0.485714 0.000685
vt 0.486249 0.010905

vn 0.0 1.0 0.0
vn 0.134948 0.707107 0.69411
vn 0.0 0.707107 0.707107
vn 0.0 1.0 0.0
vn 0.0 1.0 0.0
vn 0.0 1.0 0.0
vn 0.25874 0.707107 0.658068
vn 0.0 1.0 0.0
vn 0.0 1.0 0.0
vn 0.364261 0.707107 0.606065
vn 0.0 1.0 0.0
vn 0.0 1.0 0.0
vn 0.449526 0.707107 0.545826
vn 0.0 1.0 0.0
vn 0.0 1.0 0.0
vn 0.516154 0.707107 0.483306
vn 0.0 1.0 0.0
vn 0.0 1.0 0.0
vn 0.567292 0.707107 0.422113
vn 0.0 1.0 0.0
vn 0.0 1.0 0.0
vn 0.60623 0.707107 0.363985
vn 0.0 1.0 0.0
vn 0.0 1.0 0.0
vn 0.635785 0.707107 0.309479
vn 0.0 1.0 0.0
vn 0.0 1.0 0.0
vn 0.658159 0.707107 0.258508
vn 0.0 1.0 0.0
vn 0.0 1.0 0.0
vn 0.674992 0.707107 0.210679
vn 0.0 1.0 0.0
vn 0.0 1.0 0.0
vn 0.687473 0.707107 0.165471
vn 0.0 1.0 0.0
vn 0.0 1.0 0.0
vn 0.696444 0.707107 0.122333
vn 0.0 1.0 0.0
vn 0.0 1.0 0.0
vn 0.702484 0.707107 0.080722
vn 0.0 1.0 0.0
vn 0.0 1.0 0.0
vn 0.705968 0.707107 0.040113
vn 0.0 1.0 0.0
vn 0.0 1.0 0.0
vn 0.707107 0.707107 0.0
vn 0.0 1.0 -0.0
vn 0.0 1.0 -0.0
vn 0.705968 0.707107 -0.040113
vn 0.0 1.0 -0.0
vn 0.0 1.0 -0.0
vn 0.702484 0.707107 -0.080722
vn 0.0 1.0 -0.0
vn 0.0 1.0 -0.0
vn 0.696444 0.707107 -0.122333
vn 0.0 1.0 -0.0
vn 0.0 1.0 -0.0
vn 0.687473 0.707107 -0.165471
vn 0.0 1.0 -0.0
vn 0.0 1.0 -0.0
vn 0.674992 0.707107 -0.210679
vn 0.0 1.0 -0.0
vn 0.0 1.0 -0.0
vn 0.658159 0.707107 -0.258508
vn 0.0 1.0 -0.0
vn 0.0 1.0 -0.0
vn 0.635785 0.707107 -0.309479
vn 0.0 1.0 -0.0
vn 0.0 1.0 -0.0
vn 0.60623 0.707107 -0.363985
vn 0.0 1.0 -0.0
vn 0.0 1.0 -0.0
vn 0.567292 0.707107 -0.422113
vn 0.0 1.0 -0.0
vn 0.0 1.0 -0.0
vn 0.516154 0.707107 -0.483306
vn 0.0 1.0 -0.0
vn 0.0 1.0 -0.0
vn 0.449526 0.707107 -0.545826
vn 0.0 1.0 -0.0
vn 0.0 1.0 -0.0
vn 0.364261 0.707107 -0.606065
vn 0.0 1.0 -0.0
vn 0.0 1.0 -0.0
vn 0.25874 0.707107 -0.658068
vn 0.0 1.0 -0.0
vn 0.0 1.0 -0.0
vn 0.134948 0.707107 -0.69411
vn 0.0 1.0 -0.0
vn 0.0 1.0 -0.0
vn 0.0 0.707107 -0.707107
vn -0.0 1.0 -0.0
vn -0.0 1.0 -0.0
vn -0.134948 0.707107 -0.69411
vn -0.0 1.0 -0.0
vn -0.0 1.0 -0.0
vn -0.25874 0.707107 -0.658068
vn -0.0 1.0 -0.0
vn -0.0 1.0 -0.0
vn -0.364261 0.707107 -0.606065
vn -0.0 1.0 -0.0
vn -0.0 1.0 -0.0
vn -0.449526 0.707107 -0.545826
vn -0.0 1.0 -0.0
vn -0.0 1.0 -0.0
vn -0.516154 0.707107 -0.483306
vn -0.0 1.0 -0.0
vn -0.0 1.0 -0.0
vn -0.567292 0.707107 -0.422113
vn -0.0 1.0 -0.0
vn -0.0 1.0 -0.0
vn -0.60623 0.707107 -0.363985
vn -0.0 1.0 -0.0
vn -0.0 1.0 -0.0
vn -0.635785 0.707107 -0.309479
vn -0.0 1.0 -0.0
vn -0.0 1.0 -0.0
vn -0.658159 0.707107 -0.258508
vn -0.0 1.0 -0.0
vn -0.0 1.0 -0.0
vn -0.674992 0.707107 -0.210679
vn -0.0 1.0 -0.0
vn -0.0 1.0 -0.0
vn -0.687473 0.707107 -0.165471
vn -0.0 1.0 -0.0
vn -0.0 1.0 -0.0
vn -0.696444 0.707107 -0.122333
vn -0.0 1.0 -0.0
vn -0.0 1.0 -0.0
vn -0.702484 0.707107 -0.080722
vn -0.0 1.0 -0.0
vn -0.0 1.0 -0.0
vn -0.705968 0.707107 -0.040113
vn -0.0 1.0 -0.0
vn -0.0 1.0 -0.0
vn -0.707107 0.707107 -0.0
vn -0.0 1.0 0.0
vn -0.0 1.0 0.0
vn -0.705968 0.707107 0.040113
vn -0.0 1.0 0.0
vn -0.0 1.0 0.0
vn -0.702484 0.707107 0.080722
vn -0.0 1.0 0.0
vn -0.0 1.0 0.0
vn -0.696444 0.707107 0.122333
vn -0.0 1.0 0.0
vn -0.0 1.0 0.0
vn -0.687473 0.707107 0.165471
vn -0.0 1.0 0.0
vn -0.0 1.0 0.0
vn -0.674992 0.707107 0.210679
vn -0.0 1.0 0.0
vn -0.0 1.0 0.0
vn -0.658159 0.707107 0.258508
vn -0.0 1.0 0.0
vn -0.0 1.0 0.0
vn -0.635785 0.707107 0.309479
vn -0.0 1.0 0.0
vn -0.0 1.0 0.0
vn -0.60623 0.707107 0.363985
vn -0.0 1.0 0.0
vn -0.0 1.0 0.0
vn -0.567292 0.707107 0.422113
vn -0.0 1.0 0.0
vn -0.0 1.0 0.0
vn -0.516154 0.707107 0.483306
vn -0.0 1.0 0.0
vn -0.0 1.0 0.0
vn -0.449526 0.707107 0.545826
vn -0.0 1.0 0.0
vn -0.0 1.0 0.0
vn -0.364261 0.707107 0.606065
vn -0.0 1.0 0.0
vn -0.0 1.0 0.0
vn -0.25874 0.707107 0.658068
vn -0.0 1.0 0.0
vn -0.0 1.0 0.0
vn -0.134948 0.707107 0.69411
vn -0.0 1.0 0.0
vn -0.0 1.0 0.0

f 1/1/1 2/2/2 3/3/3
f 1/1/1 4/4/4 2/2/2
f 5/5/5 3/3/3 2/2/2
f 5/5/5 2/2/2 6/6/6
f 4/4/4 7/7/7 2/2/2
f 4/4/4 8/8/8 7/7/7
f 6/6/6 2/2/2 7/7/7
f 6/6/6 7/7/7 9/9/9
f 6/6/6 9/9/9 5/5/5
f 8/8/8 10/10/10 7/7/7
f 8/8/8 11/11/11 10/10/10
f 9/9/9 7/7/7 10/10/10
f 9/9/9 10/10/10 12/12/12
f 9/9/9 12/12/12 5/5/5
f 11/11/11 13/13/13 10/10/10
f 11/11/11 14/14/14 13/13/13
f 12/12/12 10/10/10 13/13/13
f 12/12/12 13/13/13 15/15/15
f 12/12/12 15/15/15 5/5/5
f 14/14/14 16/16/16 13/13/13
f 14/14/14 17/17/17 16/16/16
f 15/15/15 13/13/13 16/16/16
f 15/15/15 16/16/16 18/18/18
f 15/15/15 18/18/18 5/5/5
f 17/17/17 19/19/19 16/16/16
f 17/17/17 20/20/20 19/19/19
f 18/18/18 16/16/16 19/19/19
f 18/18/18 19/19/19 21/21/21
f 18/18/18 21/21/21 5/5/5
f 20/20/20 22/22/22 19/19/19
f 20/20/20 23/23/23 22/22/22
f 21/21/21 19/19/19 22/22/22
f 21/21/21 22/22/22 24/24/24
f 21/21/21 24/24/24 5/5/5
f 23/23/23 25/25/25 22/22/22
f 23/23/23 26/26/26 25/25/25
f 24/24/24 22/22/22 25/25/25
f 24/24/24 25/25/25 27/27/27
f 24/24/24 27/27/27 5/5/5
f 26/26/26 28/28/28 25/25/25
f 26/26/26 29/29/29 28/28/28
f 27/27/27 25/25/25 28/28/28
f 27/27/27 28/28/28 30/30/30
f 27/27/27 30/30/30 5/5/5
f 29/29/29 31/31/31 28/28/28
f 29/29/29 32/32/32 31/31/31
f 30/30/30 28/28/28 31/31/31
f 30/30/30 31/31/31 33/33/33
f 30/30/30 33/33/33 5/5/5
f 32/32/32 34/34/34 31/31/31
f 32/32/32 35/35/35 34/34/34
f 33/33/33 31/31/31 34/34/34
f 33/33/33 34/34/34 36/36/36
f 33/33/33 36/36/36 5/5/5
f 35/35/35 37/37/37 34/34/34
f 35/35/35 38/38/38 37/37/37
f 36/36/36 34/34/34 37/37/37
f 36/36/36 37/37/37 39/39/39
f 36/36/36 39/39/39 5/5/5
f 38/38/38 40/40/40 37/37/37
f 38/38/38 41/41/41 40/40/40
f 39/39/39 37/37/37 40/40/40
f 39/39/39 40/40/40 42/42/42
f 39/39/39 42/42/42 5/5/5
f 41/41/41 43/43/43 40/40/40
f 41/41/41 44/44/44 43/43/43
f 42/42/42 40/40/40 43/43/43
f 42/42/42 43/43/43 45/45/45
f 42/42/42 45/45/45 5/5/5
f 44/44/44 46/46/46 43/43/43
f 44/44/44 47/47/47 46/46/46
f 45/45/45 43/43/43 46/46/46
f 45/45/45 46/46/46 48/48/48
f 45/45/45 48/48/48 5/5/5
f 47/47/47 49/49/49 46/46/46
f 47/47/47 50/50/50 49/49/49
f 48/48/48 46/46/46 49/49/49
f 48/48/48 49/49/49 51/51/51
f 48/48/48 51/51/51 5/5/5
f 50/50/50 52/52/52 49/49/49
f 50/50/50 53/53/53 52/52/52
f 51/51/51 49/49/49 52/52/52
f 51/51/51 52/52/52 54/54/54
f 51/51/51 54/54/54 5/5/5
f 53/53/53 55/55/55 52/52/52
f 53/53/53 56/56/56 55/55/55
f 54/54/54 52/52/52 55/55/55
f 54/54/54 55/55/55 57/57/57
f 54/54/54 57/57/57 5/5/5
f 56/56/56 58/58/58 55/55/55
f 56/56/56 59/59/59 58/58/58
f 57/57/57 55/55/55 58/58/58
f 57/57/57 58/58/58 60/60/60
f 57/57/57 60/60/60 5/5/5
f 59/59/59 61/61/61 58/58/58
f 59/59/59 62/62/62 61/61/61
f 60/60/60 58/58/58 61/61/61
f 60/60/60 61/61/61 63/63/63
f 60/60/60 63/63/63 5/5/5
f 62/62/62 64/64/64 61/61/61
f 62/62/62 65/65/65 64/64/64
f 63/63/63 61/61/61 64/64/64
f 63/63/63 64/64/64 66/66/66
f 63/63/63 66/66/66 5/5/5
f 65/65/65 67/67/67 64/64/64
f 65/65/65 68/68/68 67/67/67
f 66/66/66 64/64/64 67/67/67
f 66/66/66 67/67/67 69/69/69
f 66/66/66 69/69/69 5/5/5
f 68/68/68 70/70/70 67/67/67
f 68/68/68 71/71/71 70/70/70
f 69/69/69 67/67/67 70/70/70
f 69/69/69 70/70/70 72/72/72
f 69/69/69 72/72/72 5/5/5
f 71/71/71 73/73/73 70/70/70
f 71/71/71 74/74/74 73/73/73
f 72/72/72 70/70/70 73/73/73
f 72/72/72 73/73/73 75/75/75
f 72/72/72 75/75/75 5/5/5
f 74/74/74 76/76/76 73/73/73
f 74/74/74 77/77/77 76/76/76
f 75/75/75 73/73/73 76/76/76
f 75/75/75 76/76/76 78/78/78
f 75/75/75 78/78/78 5/5/5
f 77/77/77 79/79/79 76/76/76
f 77/77/77 80/80/80 79/79/79
f 78/78/78 76/76/76 79/79/79
f 78/78/78 79/79/79 81/81/81
f 78/78/78 81/81/81 5/5/5
f 80/80/80 82/82/82 79/79/79
f 80/80/80 83/83/83 82/82/82
f 81/81/81 79/79/79 82/82/82
f 81/81/81 82/82/82 84/84/84
f 81/81/81 84/84/84 5/5/5
f 83/83/83 85/85/85 82/82/82
f 83/83/83 86/86/86 85/85/85
f 84/84/84 82/82/82 85/85/85
f 84/84/84 85/85/85 87/87/87
f 84/84/84 87/87/87 5/5/5
f 86/86/86 88/88/88 85/85/85
f 86/86/86 89/89/89 88/88/88
f 87/87/87 85/85/85 88/88/88
f 87/87/87 88/88/88 90/90/90
f 87/87/87 90/90/90 5/5/5
f 89/89/89 91/91/91 88/88/88
f 89/89/89 92/92/92 91/91/91
f 90/90/90 88/88/88 91/91/91
f 90/90/90 91/91/91 93/93/93
f 90/90/90 93/93/93 5/5/5
f 92/92/92 94/94/94 91/91/91
f 92/92/92 95/95/95 94/94/94
f 93/93/93 91/91/91 94/94/94
f 93/93/93 94/94/94 96/96/96
f 93/93/93 96/96/96 5/5/5
f 95/95/95 97/97/97 94/94/94
f 95/95/95 98/98/98 97/97/97
f 96/96/96 94/94/94 97/97/97
f 96/96/96 97/97/97 99/99/99
f 96/96/96 99/99/99 5/5/5
f 98/98/98 100/100/100 97/97/97
f 98/98/98 101/101/101 100/100/100
f 99/99/99 97/97/97 100/100/100
f 99/99/99 100/100/100 102/102/102
f 99/99/99 102/102/102 5/5/5
f 101/101/101 103/103/103 100/100/100
f 101/101/101 104/104/104 103/103/103
f 102/102/102 100/100/100 103/103/103
f 102/102/102 103/103/103 105/105/105
f 102/102/102 105/105/105 5/5/5
f 104/104/104 106/106/106 103/103/103
f 104/104/104 107/107/107 106/106/106
f 105/105/105 103/103/103 106/106/106
f 105/105/105 106/106/106 108/108/108
f 105/105/105 108/108/108 5/5/5
f 107/107/107 109/109/109 106/106/106
f 107/107/107 110/110/110 109/109/109
f 108/108/108 106/106/106 109/109/109
f 108/108/108 109/109/109 111/111/111
f 108/108/108 111/111/111 5/5/5
f 110/110/110 112/112/112 109/109/109
f 110/110/110 113/113/113 112/112/112
f 111/111/111 109/109/109 112/112/112
f 111/111/111 112/112/112 114/114/114
f 111/111/111 114/114/114 5/5/5
f 113/113/113 115/115/115 112/112/112
f 113/113/113 116/116/116 115/115/115
f 114/114/114 112/112/112 115/115/115
f 114/114/114 115/115/115 117/117/117
f 114/114/114 117/117/117 5/5/5
f 116/116/116 118/118/118 115/115/115
f 116/116/116 119/119/119 118/118/118
f 117/117/117 115/115/115 118/118/118
f 117/117/117 118/118/118 120/120/120
f 117/117/117 120/120/120 5/5/5
f 119/119/119 121/121/121 118/118/118
f 119/119/119 122/122/122 121/121/121
f 120/120/120 118/118/118 121/121/121
f 120/120/120 121/121/121 123/123/123
f 120/120/120 123/123/123 5/5/5
f 122/122/122 124/124/124 121/121/121
f 122/122/122 125/125/125 124/124/124
f 123/123/123 121/121/121 124/124/124
f 123/123/123 124/124/124 126/126/126
f 123/123/123 126/126/126 5/5/5
f 125/125/125 127/127/127 124/124/124
f 125/125/125 128/128/128 127/127/127
f 126/126/126 124/124/124 127/127/127
f 126/126/126 127/127/127 129/129/129
f 126/126/126 129/129/129 5/5/5
f 128/128/128 130/130/130 127/127/127
f 128/128/128 131/131/131 130/130/130
f 129/129/129 127/127/127 130/130/130
f 129/129/129 130/130/130 132/132/132
f 129/129/129 132/132/132 5/5/5
f 131/131/131 133/133/133 130/130/130
f 131/131/131 134/134/134 133/133/133
f 132/132/132 130/130/130 133/133/133
f 132/132/132 133/133/133 135/135/135
f 132/132/132 135/135/135 5/5/5
f 134/134/134 136/136/136 133/133/133
f 134/134/134 137/137/137 136/136/136
f 135/135/135 133/133/133 136/136/136
f 135/135/135 136/136/136 138/138/138
f 135/135/135 138/138/138 5/5/5
f 137/137/137 139/139/139 136/136/136
f 137/137/137 140/140/140 139/139/139
f 138/138/138 136/136/136 139/139/139
f 138/138/138 139/139/139 141/141/141
f 138/138/138 141/141/141 5/5/5
f 140/140/140 142/142/142 139/139/139
f 140/140/140 143/143/143 142/142/142
f 141/141/141 139/139/139 142/142/142
f 141/141/141 142/142/142 144/144/144
f 141/141/141 144/144/144 5/5/5
f 143/143/143 145/145/145 142/142/142
f 143/143/143 146/146/146 145/145/145
f 144/144/144 142/142/142 145/145/145
f 144/144/144 145/145/145 147/147/147
f 144/144/144 147/147/147 5/5/5
f 146/146/146 148/148/148 145/145/145
f 146/146/146 149/149/149 148/148/148
f 147/147/147 145/145/145 148/148/148
f 147/147/147 148/148/148 150/150/150
f 147/147/147 150/150/150 5/5/5
f 149/149/149 151/151/151 148/148/148
f 149/149/149 152/152/152 151/151/151
f 150/150/150 148/148/148 151/151/151
f 150/150/150 151/151/151 153/153/153
f 150/150/150 153/153/153 5/5/5
f 152/152/152 154/154/154 151/151/151
f 152/152/152 155/155/155 154/154/154
f 153/153/153 151/151/151 154/154/154
f 153/153/153 154/154/154 156/156/156
f 153/153/153 156/156/156 5/5/5
f 155/155/155 157/157/157 154/154/154
f 155/155/155 158/158/158 157/157/157
f 156/156/156 154/154/154 157/157/157
f 156/156/156 157/157/157 159/159/159
f 156/156/156 159/159/159 5/5/5
f 158/158/158 160/160/160 157/157/157
f 158/158/158 161/161/161 160/160/160
f 159/159/159 157/157/157 160/160/160
f 159/159/159 160/160/160 162/162/162
f 159/159/159 162/162/162 5/5/5
f 161/161/161 163/163/163 160/160/160
f 161/161/161 164/164/164 163/163/163
f 162/162/162 160/160/160 163/163/163
f 162/162/162 163/163/163 165/165/165
f 162/162/162 165/165/165 5/5/5
f 164/164/164 166/166/166 163/163/163
f 164/164/164 167/167/167 166/166/166
f 165/165/165 163/163/163 166/166/166
f 165/165/165 166/166/166 168/168/168
f 165/165/165 168/168/168 5/5/5
f 167/167/167 169/169/169 166/166/166
f 167/167/167 170/170/170 169/169/169
f 168/168/168 166/166/166 169/169/169
f 168/168/168 169/169/169 171/171/171
f 168/168/168 171/171/171 5/5/5
f 170/170/170 172/172/172 169/169/169
f 170/170/170 173/173/173 172/172/172
f 171/171/171 169/169/169 172/172/172
f 171/171/171 172/172/172 174/174/174
f 171/171/171 174/174/174 5/5/5
f 173/173/173 175/175/175 172/172/172
f 173/173/173 176/176/176 175/175/175
f 174/174/174 172/172/172 175/175/175
f 174/174/174 175/175/175 177/177/177
f 174/174/174 177/177/177 5/5/5
f 176/176/176 178/178/178 175/175/175
f 176/176/176 179/179/179 178/178/178
f 177/177/177 175/175/175 178/178/178
f 177/177/177 178/178/178 180/180/180
f 177/177/177 180/180/180 5/5/5
f 179/179/179 3/3/3 178/178/178
f 179/179/179 1/1/1 3/3/3
f 180/180/180 178/178/178 3/3/3
f 180/180/180 3/3/3 5/5/5
