# Blender 5.0.1
# www.blender.org
mtllib flmae 3.mtl
o Flamewraith_with_Brazier-staff
v 0.203943 2.566705 -0.634205
v 0.169045 2.545036 -0.642484
v 0.209737 2.592479 -0.633143
v 0.188395 2.575625 -0.658843
v 0.187853 2.588763 -0.659649
v 0.177943 2.559864 -0.655642
v 0.154334 2.562411 -0.680705
v 0.127286 2.560529 -0.637265
v 0.124017 2.601477 -0.646995
v 0.136328 2.577787 -0.674390
v 0.127626 2.571732 -0.655931
v 0.128860 2.602230 -0.666494
v 0.122635 2.594287 -0.612482
v 0.204662 2.656041 -0.623356
v 0.207548 2.669845 -0.621823
v 0.196530 2.655535 -0.625915
v 0.203291 2.701872 -0.642552
v 0.202709 2.689782 -0.640505
v 0.203826 2.676149 -0.604681
v 0.195803 2.700227 -0.593290
v 0.184803 2.716506 -0.597220
v 0.183267 2.720214 -0.608527
v 0.198429 2.701252 -0.619138
v 0.188265 2.728594 -0.623627
v 0.193603 2.719092 -0.636437
v 0.186793 2.735325 -0.654525
v 0.173199 2.738157 -0.611519
v 0.184304 2.750376 -0.640272
v 0.179711 2.749682 -0.624421
v 0.107342 2.680333 -0.572792
v 0.126089 2.719311 -0.589218
v 0.114344 2.703099 -0.578804
v 0.154111 2.733832 -0.597643
v 0.137795 2.726475 -0.585068
v 0.147182 2.728959 -0.586183
v 0.136190 2.732194 -0.599427
v 0.143731 2.744616 -0.613422
v 0.168121 2.769347 -0.633925
v 0.191060 2.620111 -0.622136
v 0.180491 2.605405 -0.650463
v 0.189172 2.657276 -0.634552
v 0.185179 2.681514 -0.647941
v 0.175768 2.622599 -0.640801
v 0.186873 2.634360 -0.632547
v 0.176527 2.646943 -0.637662
v 0.160319 2.631990 -0.642254
v 0.154367 2.652156 -0.639153
v 0.143744 2.635149 -0.629972
v 0.130527 2.652183 -0.616226
v 0.171141 2.659571 -0.644705
v 0.151919 2.664469 -0.642461
v 0.145562 2.687532 -0.657118
v 0.141839 2.706361 -0.664357
v 0.183383 2.585836 -0.676989
v 0.175681 2.605855 -0.668848
v 0.156998 2.632962 -0.693453
v 0.170851 2.605716 -0.694118
v 0.165768 2.623633 -0.703007
v 0.142699 2.608705 -0.707458
v 0.151702 2.618352 -0.650373
v 0.155512 2.618764 -0.668328
v 0.134702 2.612432 -0.679675
v 0.133654 2.599408 -0.686378
v 0.142406 2.628816 -0.686949
v 0.198684 2.708444 -0.659431
v 0.194659 2.722997 -0.676418
v 0.193275 2.710130 -0.677598
v 0.192389 2.722767 -0.698774
v 0.198483 2.717192 -0.652924
v 0.170499 2.696278 -0.681700
v 0.136811 2.702812 -0.646770
v 0.133632 2.724027 -0.657007
v 0.180211 2.761001 -0.657396
v 0.174056 2.781451 -0.657008
v 0.179625 2.758004 -0.684407
v 0.164488 2.765528 -0.696001
v 0.173590 2.771622 -0.685064
v 0.168503 2.788437 -0.686739
v 0.150067 2.790652 -0.697693
v 0.156020 2.772991 -0.691674
v 0.194355 2.732328 -0.729765
v 0.189227 2.718458 -0.735314
v 0.197324 2.746711 -0.746850
v 0.181964 2.748738 -0.707833
v 0.137746 2.719373 -0.674152
v 0.134856 2.728529 -0.694407
v 0.142313 2.713541 -0.688880
v 0.149943 2.702804 -0.730198
v 0.130074 2.728050 -0.715274
v 0.151742 2.759050 -0.699556
v 0.143934 2.752665 -0.691510
v 0.162068 2.761896 -0.716505
v 0.141128 2.756302 -0.678055
v 0.138337 2.740190 -0.693053
v 0.135558 2.745391 -0.708653
v 0.132330 2.751191 -0.727488
v 0.143748 2.761305 -0.721399
v 0.126660 2.658870 -0.606440
v 0.116556 2.638026 -0.594858
v 0.127007 2.619871 -0.622636
v 0.135922 2.672441 -0.630389
v 0.128434 2.687864 -0.616274
v 0.127051 2.707067 -0.625037
v 0.129870 2.671336 -0.583670
v 0.125818 2.693340 -0.600157
v 0.120345 2.707479 -0.594057
v 0.136758 2.688731 -0.639768
v 0.130992 2.708893 -0.638783
v 0.151230 2.757994 -0.623107
v 0.122269 2.724227 -0.610997
v 0.120647 2.724231 -0.622585
v 0.122094 2.742265 -0.617941
v 0.129794 2.718772 -0.643846
v 0.122077 2.725541 -0.643817
v 0.119037 2.743184 -0.651195
v 0.114619 2.738279 -0.631986
v 0.134457 2.787300 -0.650187
v 0.149045 2.777719 -0.639299
v 0.121288 2.764779 -0.653813
v 0.127457 2.774999 -0.670325
v 0.128281 2.786285 -0.664864
v 0.133702 2.792350 -0.680454
v 0.129457 2.761363 -0.634879
v 0.139544 2.626748 -0.709792
v 0.189758 2.732571 -0.762918
v 0.177979 2.750533 -0.782189
v 0.142458 2.757653 -0.774383
v 0.154131 2.739546 -0.769906
v 0.140644 2.726559 -0.748347
v 0.131760 2.732898 -0.728108
v 0.130914 2.748258 -0.742038
v 0.132360 2.760186 -0.738073
v 0.144321 2.771310 -0.738294
v 0.163334 2.794917 -0.660509
v 0.155464 2.802246 -0.665170
v 0.170306 2.798690 -0.678501
v 0.139203 2.807626 -0.679333
v 0.150031 2.815217 -0.695581
v 0.179456 2.784991 -0.747143
v 0.187076 2.810085 -0.769326
v 0.164557 2.805867 -0.768362
v 0.161690 2.785167 -0.745079
v 0.161015 2.804319 -0.702902
v 0.158216 2.795182 -0.761284
v 0.148422 2.790933 -0.762593
v 0.153560 2.801819 -0.782298
v 0.162653 2.773854 -0.798215
v 0.157870 2.800037 -0.794541
v 0.145749 2.782995 -0.781981
v 0.175298 2.833082 -0.802492
v 0.988612 2.708201 -0.419130
v 0.977702 2.686415 -0.404494
v 1.032481 2.717040 -0.470436
v 1.014862 2.723938 -0.434860
v 0.996400 2.707951 -0.443451
v 1.017045 2.692640 -0.446786
v 1.034788 2.706429 -0.437028
v 1.002740 2.697446 -0.402832
v 1.021039 2.692568 -0.413317
v 0.980965 2.650446 -0.399357
v 0.976929 2.667382 -0.390101
v 0.974419 2.638458 -0.379722
v 0.962025 2.551006 -0.385803
v 0.967927 2.562657 -0.387814
v 0.988140 2.577345 -0.397081
v 0.955641 2.556112 -0.369085
v 0.950077 2.550001 -0.353271
v 0.947523 2.540087 -0.349196
v 0.975757 2.576238 -0.374072
v 0.988755 2.581455 -0.368209
v 0.963734 2.569512 -0.364047
v 0.983843 2.544681 -0.398465
v 0.954320 2.537516 -0.362506
v 0.953600 2.530920 -0.345688
v 0.982483 2.673208 -0.419827
v 1.012378 2.657273 -0.411567
v 1.024114 2.663992 -0.396751
v 1.010857 2.621978 -0.396178
v 0.997653 2.588009 -0.365175
v 1.009694 2.606360 -0.369867
v 1.004664 2.562037 -0.389582
v 0.994809 2.573095 -0.379857
v 0.996834 2.571748 -0.359806
v 1.000372 2.561990 -0.363887
v 0.997499 2.545608 -0.363742
v 0.866346 2.552472 -0.219932
v 0.910744 2.605255 -0.235535
v 0.897217 2.592955 -0.219982
v 0.914439 2.609298 -0.216036
v 0.894305 2.576073 -0.226156
v 0.876062 2.559308 -0.219250
v 0.882723 2.577204 -0.210106
v 0.908068 2.592819 -0.237474
v 0.909260 2.570912 -0.230258
v 0.905535 2.558689 -0.223517
v 0.906149 2.545805 -0.218155
v 0.868903 2.597416 -0.165968
v 0.864089 2.579961 -0.173202
v 0.859018 2.578559 -0.161762
v 0.877314 2.595900 -0.147032
v 0.865474 2.586071 -0.147005
v 0.875810 2.609959 -0.171135
v 0.893390 2.628046 -0.187319
v 0.916832 2.628831 -0.193388
v 0.910161 2.636790 -0.194662
v 0.916976 2.612155 -0.192934
v 0.882376 2.620116 -0.172525
v 0.904964 2.641272 -0.178155
v 0.923793 2.628882 -0.175674
v 0.898482 2.598456 -0.196526
v 0.877543 2.599898 -0.179303
v 0.878125 2.574937 -0.186533
v 0.898357 2.607653 -0.187896
v 0.888903 2.611177 -0.153197
v 0.918605 2.605626 -0.157533
v 0.997683 2.676073 -0.381178
v 0.988416 2.643842 -0.358724
v 0.966906 2.612323 -0.349724
v 0.966333 2.601470 -0.354924
v 0.976715 2.630026 -0.364205
v 0.976286 2.622314 -0.353159
v 0.985105 2.616552 -0.379396
v 0.978413 2.591339 -0.361164
v 0.976482 2.608292 -0.363562
v 0.981453 2.618237 -0.330215
v 0.958004 2.603885 -0.334763
v 0.968665 2.610058 -0.310150
v 0.995024 2.635395 -0.345755
v 0.942333 2.617099 -0.268749
v 0.954432 2.620052 -0.276258
v 0.998408 2.619916 -0.328705
v 1.000121 2.610072 -0.314490
v 0.964906 2.632628 -0.281335
v 0.969230 2.642593 -0.277758
v 0.974154 2.617484 -0.282131
v 0.946453 2.564151 -0.327138
v 0.948217 2.592306 -0.326280
v 0.938426 2.543289 -0.332914
v 0.940632 2.510546 -0.317294
v 0.929262 2.532922 -0.318361
v 0.936643 2.523297 -0.323579
v 0.921028 2.526614 -0.303605
v 0.920937 2.530075 -0.287959
v 0.934482 2.536998 -0.283708
v 0.940490 2.550353 -0.314963
v 0.936097 2.544707 -0.298315
v 0.973060 2.583252 -0.360031
v 0.960724 2.584705 -0.348614
v 0.958901 2.567717 -0.347123
v 0.997914 2.569070 -0.313644
v 0.947062 2.521405 -0.329573
v 0.957802 2.505196 -0.326117
v 0.998768 2.526613 -0.328244
v 0.975915 2.501476 -0.300447
v 0.188908 2.835474 -0.790726
v 0.932735 2.575149 -0.278326
v 0.937594 2.593337 -0.290533
v 0.923038 2.579300 -0.262227
v 0.936030 2.602374 -0.274772
v 0.955598 2.612040 -0.280963
v 0.938895 2.562726 -0.304791
v 0.944363 2.557645 -0.294329
v 0.945502 2.564979 -0.277085
v 0.950655 2.533159 -0.273285
v 0.955837 2.570965 -0.263327
v 0.953118 2.600724 -0.307657
v 0.967122 2.612098 -0.291979
v 0.984514 2.612339 -0.303094
v 0.995884 2.601999 -0.284892
v 0.989086 2.568109 -0.294654
v 0.976323 2.573478 -0.277286
v 0.980756 2.591978 -0.252000
v 0.997033 2.606562 -0.297871
v 0.989054 2.607887 -0.274920
v 0.990304 2.588284 -0.272471
v 0.969044 2.533187 -0.282226
v 0.947476 2.550431 -0.284244
v 0.973306 2.552960 -0.288402
v 0.997997 2.554147 -0.303596
v 0.990084 2.539023 -0.288315
v 0.981295 2.526531 -0.278174
v 0.997521 2.539214 -0.300138
v 1.008251 2.656636 -0.366722
v 1.017738 2.665190 -0.384147
v 1.027160 2.634982 -0.371011
v 1.015161 2.639648 -0.355503
v 1.022577 2.606428 -0.348178
v 1.008978 2.627236 -0.340294
v 1.003110 2.583074 -0.352699
v 1.003695 2.569352 -0.337626
v 1.002682 2.551491 -0.347787
v 1.013313 2.593311 -0.325889
v 1.012408 2.608671 -0.331112
v 1.006652 2.601177 -0.313891
v 1.003893 2.550462 -0.318448
v 1.005194 2.580446 -0.323422
v 1.002044 2.543731 -0.334910
v 0.999361 2.588670 -0.298067
v 0.948919 2.639718 -0.274103
v 0.963006 2.642158 -0.244541
v 0.976092 2.637170 -0.267365
v 0.922076 2.610944 -0.248665
v 0.919197 2.617719 -0.236002
v 0.940804 2.638627 -0.253529
v 0.929536 2.620824 -0.219218
v 0.964063 2.614860 -0.219152
v 0.915919 2.580441 -0.241772
v 0.931015 2.569491 -0.237830
v 0.952516 2.575195 -0.205527
v 0.978459 2.617891 -0.239391
v 0.983210 2.617319 -0.256152
v 0.972909 2.602163 -0.230093
v 0.964441 2.569566 -0.230715
v 0.940670 2.624098 -0.217903
v 0.925096 2.611885 -0.199165
v 0.934680 2.604841 -0.189172
v 0.939909 2.611331 -0.204059
v 0.952682 2.613207 -0.210258
v 0.963053 2.598026 -0.211101
v 0.923535 2.611718 -0.178021
v 0.932052 2.583523 -0.166365
v 0.945414 2.576047 -0.186083
v 0.955909 2.596081 -0.199588
v 0.904728 2.619299 -0.154689
v 0.887702 2.595319 -0.134871
v 0.904603 2.601532 -0.145263
v 0.908493 2.500763 -0.296320
v 0.880812 2.496779 -0.280665
v 0.920000 2.527845 -0.273277
v 0.928568 2.498694 -0.308690
v 0.926024 2.514127 -0.306553
v 0.137521 2.774497 -0.760722
v 0.908306 2.521025 -0.287749
v 0.979808 2.511184 -0.328102
v 0.965669 2.521181 -0.270475
v 0.979229 2.508781 -0.271842
v 0.189396 2.830149 -0.826272
v 0.202805 2.825298 -0.794620
v 0.200121 2.810309 -0.810201
v 0.203582 2.835587 -0.826313
v 0.176547 2.798187 -0.810170
v 0.190772 2.773031 -0.784563
v 0.197003 2.838227 -0.804915
v 0.199084 2.788513 -0.776568
vn -0.9749 -0.1946 0.1084
vn -0.6812 -0.1393 0.7187
vn -0.5255 -0.0414 0.8498
vn -0.5255 -0.0415 0.8498
vn -0.9798 -0.0116 0.1995
vn -0.9469 -0.1068 0.3034
vn -0.9468 -0.1068 0.3035
vn -0.9468 -0.1068 0.3034
vn -0.9987 -0.0214 -0.0471
vn -0.9987 -0.0214 -0.0472
vn -0.6665 0.1127 -0.7370
vn -0.6664 0.1126 -0.7370
vn -0.4776 0.5437 -0.6901
vn -0.4733 0.5425 -0.6940
vn -0.4846 -0.3101 0.8179
vn -0.4845 -0.3101 0.8180
vn -0.9569 -0.2232 0.1856
vn -0.4438 -0.3377 0.8300
vn -0.4439 -0.3377 0.8300
vn -0.4438 -0.3377 0.8301
vn -0.9965 -0.0536 -0.0645
vn -0.3506 -0.2858 0.8918
vn -0.3506 -0.2858 0.8919
vn -0.4044 -0.2523 0.8791
vn -0.4043 -0.2523 0.8791
vn -0.7394 0.5221 -0.4251
vn -0.7394 0.5220 -0.4252
vn 0.3410 0.8970 -0.2814
vn 0.3409 0.8970 -0.2814
vn 0.3351 0.9417 -0.0292
vn 0.4089 0.9056 0.1126
vn 0.4088 0.9056 0.1127
vn 0.5455 0.0328 0.8375
vn 0.5454 0.0328 0.8375
vn -0.8745 0.0710 0.4798
vn -0.7318 -0.2962 0.6138
vn -0.7319 -0.2962 0.6137
vn -0.8277 0.2314 0.5112
vn -0.9783 0.1748 0.1115
vn -0.9783 0.1747 0.1115
vn -0.8001 0.5989 -0.0354
vn -0.8001 0.5989 -0.0355
vn 0.2287 -0.8152 0.5322
vn 0.2287 -0.8152 0.5321
vn -0.7109 -0.2810 0.6447
vn -0.7108 -0.2810 0.6448
vn -0.6962 -0.4184 0.5833
vn -0.8139 0.5782 0.0564
vn -0.8139 0.5782 0.0565
vn -0.8139 0.5783 0.0566
vn -0.5602 -0.1431 0.8159
vn -0.5601 -0.1431 0.8159
vn -0.5920 -0.5205 0.6154
vn -0.5920 -0.5205 0.6153
vn 0.5334 -0.4653 0.7064
vn 0.5335 -0.4653 0.7064
vn 0.5081 -0.3742 0.7758
vn 0.5080 -0.3741 0.7758
vn 0.5081 -0.3741 0.7758
vn 0.4893 -0.5831 0.6485
vn 0.4894 -0.5831 0.6485
vn 0.7909 -0.3948 0.4675
vn 0.7909 -0.3949 0.4674
vn 0.8603 0.4545 0.2307
vn 0.7665 0.5115 0.3884
vn 0.7755 0.5034 0.3810
vn 0.9384 0.2070 0.2768
vn 0.9384 0.2070 0.2766
vn 0.8954 -0.2461 0.3710
vn 0.6773 -0.2899 0.6761
vn 0.6772 -0.2899 0.6762
vn 0.6773 -0.2899 0.6762
vn 0.7529 -0.1833 0.6321
vn 0.7529 -0.1833 0.6320
vn 0.7530 -0.1833 0.6320
vn 0.7754 -0.0193 0.6312
vn 0.7754 -0.0192 0.6312
vn -0.8683 0.0467 0.4938
vn -0.4143 0.1394 0.8994
vn -0.4228 -0.2854 0.8601
vn -0.8074 0.1673 0.5658
vn -0.6504 -0.2586 0.7142
vn -0.6504 -0.2586 0.7143
vn -0.9122 0.3337 -0.2379
vn -0.9482 0.0166 -0.3173
vn -0.9034 0.3097 -0.2966
vn -0.9036 0.3096 -0.2962
vn -0.9036 0.3097 -0.2960
vn -0.7159 0.6009 -0.3555
vn -0.7332 0.5967 -0.3262
vn -0.7333 0.5967 -0.3260
vn -0.7332 0.5967 -0.3261
vn -0.9034 0.3096 -0.2966
vn -0.8025 0.4327 -0.4108
vn -0.8025 0.4327 -0.4109
vn -0.8006 0.4213 -0.4261
vn -0.8006 0.4213 -0.4262
vn -0.9542 0.2983 0.0209
vn -0.9542 0.2983 0.0210
vn -0.8592 0.3955 -0.3244
vn -0.8592 0.3955 -0.3245
vn -0.8593 0.3955 -0.3244
vn -0.6970 0.2994 -0.6515
vn -0.6971 0.2994 -0.6515
vn -0.6971 0.2995 -0.6515
vn -0.8754 0.3221 -0.3605
vn -0.8754 0.3221 -0.3604
vn -0.7278 0.5432 -0.4187
vn -0.9246 0.3723 -0.0802
vn -0.9246 0.3723 -0.0803
vn -0.8060 0.3571 -0.4721
vn -0.8060 0.3570 -0.4722
vn -0.8060 0.3570 -0.4721
vn -0.9364 0.3343 -0.1069
vn -0.9364 0.3343 -0.1070
vn -0.5974 0.3892 -0.7012
vn -0.5973 0.3892 -0.7013
vn -0.5982 0.1867 -0.7793
vn -0.0745 0.4661 -0.8816
vn -0.0746 0.4661 -0.8816
vn -0.0416 0.2840 -0.9579
vn -0.0417 0.2840 -0.9579
vn -0.6740 0.5532 -0.4895
vn -0.6741 0.5533 -0.4894
vn -0.6789 0.5919 -0.4345
vn -0.6789 0.5918 -0.4346
vn -0.8142 0.2280 -0.5340
vn -0.0762 0.6875 -0.7222
vn -0.0763 0.6875 -0.7222
vn 0.3940 -0.4204 0.8173
vn 0.3941 -0.4204 0.8173
vn 0.3843 -0.4179 0.8232
vn 0.8263 -0.1342 0.5470
vn 0.8769 0.4507 0.1672
vn 0.8012 0.1867 0.5685
vn 0.8012 0.1867 0.5686
vn -0.3465 0.2116 -0.9139
vn -0.3465 0.2117 -0.9139
vn -0.0057 0.7074 -0.7068
vn -0.0058 0.7074 -0.7068
vn 0.2841 0.5653 -0.7744
vn 0.2840 0.5653 -0.7744
vn 0.0809 0.3185 -0.9445
vn 0.0808 0.3185 -0.9445
vn 0.2596 0.8002 -0.5405
vn 0.2596 0.8003 -0.5405
vn 0.2596 0.8003 -0.5406
vn 0.3358 0.7467 -0.5742
vn 0.3357 0.7467 -0.5742
vn 0.6915 0.5587 -0.4579
vn 0.6915 0.5587 -0.4578
vn 0.6915 0.5588 -0.4579
vn 0.7432 0.5600 -0.3661
vn 0.7432 0.5601 -0.3661
vn 0.0897 0.4087 -0.9083
vn -0.6947 0.6640 0.2767
vn -0.8174 -0.0029 0.5760
vn -0.8145 0.1151 0.5686
vn -0.4409 0.8810 -0.1717
vn -0.4408 0.8810 -0.1718
vn -0.4409 0.8810 -0.1716
vn -0.7997 0.0036 0.6004
vn -0.9800 0.0697 0.1863
vn -0.6549 -0.3001 0.6936
vn -0.8823 -0.3566 0.3073
vn -0.8822 -0.3566 0.3075
vn -0.6367 -0.4714 0.6102
vn -0.6368 -0.4714 0.6102
vn -0.5977 0.3621 0.7153
vn -0.4295 0.1720 0.8866
vn -0.2488 0.3953 0.8842
vn -0.4025 0.7454 0.5314
vn -0.4026 0.7454 0.5313
vn 0.3781 0.7613 0.5267
vn 0.3782 0.7613 0.5267
vn -0.2236 0.6545 0.7223
vn -0.2235 0.6545 0.7223
vn -0.2864 0.8751 -0.3901
vn -0.2864 0.8751 -0.3900
vn -0.5894 0.0160 0.8077
vn -0.5893 0.0160 0.8077
vn 0.5067 0.1118 0.8549
vn 0.2383 0.2714 0.9325
vn 0.6423 0.5225 0.5608
vn 0.6422 0.5225 0.5609
vn 0.5272 0.7788 0.3400
vn 0.5271 0.7788 0.3401
vn 0.5572 0.1416 0.8182
vn 0.5572 0.1417 0.8182
vn 0.5441 -0.1728 0.8211
vn 0.5441 -0.1727 0.8211
vn 0.5440 -0.1727 0.8211
vn -0.5567 -0.0057 0.8307
vn -0.5384 -0.1122 0.8352
vn -0.5384 -0.1123 0.8352
vn -0.7867 -0.2927 0.5436
vn 0.0520 -0.0383 0.9979
vn 0.1023 -0.4983 0.8609
vn 0.1023 -0.4983 0.8610
vn 0.4476 -0.2283 0.8646
vn 0.4477 -0.2283 0.8646
vn 0.3322 -0.3952 0.8564
vn 0.3323 -0.3952 0.8564
vn 0.5529 -0.1601 0.8177
vn 0.5536 -0.2096 0.8060
vn 0.7023 -0.4086 0.5830
vn 0.7986 -0.1606 0.5801
vn 0.7985 -0.1606 0.5801
vn 0.8214 -0.2786 0.4977
vn 0.8264 -0.2678 0.4953
vn 0.8214 -0.2779 0.4982
vn -0.8520 0.5205 -0.0568
vn -0.9516 0.3073 0.0060
vn -0.9516 0.3073 0.0061
vn -0.3961 0.7471 -0.5338
vn -0.3962 0.7471 -0.5338
vn -0.7348 0.4306 -0.5241
vn 0.1800 0.6999 -0.6912
vn 0.1802 0.6999 -0.6911
vn -0.4834 -0.1230 0.8667
vn -0.4859 -0.1224 0.8654
vn -0.4982 -0.0430 0.8660
vn -0.4983 -0.0430 0.8660
vn -0.1994 0.9338 0.2970
vn -0.1995 0.9338 0.2970
vn -0.3453 0.2028 0.9163
vn 0.3964 0.9037 -0.1617
vn 0.3964 0.9037 -0.1618
vn 0.3965 0.9037 -0.1616
vn 0.3784 0.9081 -0.1793
vn 0.7678 0.5484 -0.3312
vn 0.7678 0.5484 -0.3311
vn 0.6089 0.7912 -0.0566
vn 0.6089 0.7912 -0.0567
vn 0.6474 0.2935 -0.7034
vn 0.6473 0.2935 -0.7035
vn 0.6473 0.2935 -0.7034
vn 0.9305 0.1885 0.3139
vn 0.9306 0.1885 0.3139
vn 0.9802 0.0659 0.1868
vn 0.9802 0.0658 0.1868
vn 0.9392 0.3362 -0.0694
vn 0.9392 0.3362 -0.0695
vn -0.9806 0.0876 0.1752
vn -0.9716 0.2343 -0.0328
vn -0.7676 0.5920 -0.2456
vn -0.7676 0.5920 -0.2457
vn -0.6456 -0.5258 0.5537
vn -0.6455 -0.5258 0.5539
vn -0.6456 -0.5258 0.5538
vn -0.9998 0.0184 -0.0072
vn -0.9998 0.0184 -0.0071
vn -0.8774 0.4638 -0.1224
vn -0.8774 0.4638 -0.1225
vn -0.8846 0.4357 -0.1666
vn -0.8846 0.4356 -0.1666
vn -0.8382 0.4461 -0.3137
vn -0.8382 0.4461 -0.3136
vn 0.8271 -0.2679 0.4942
vn 0.7851 -0.2724 0.5563
vn 0.7831 -0.2710 0.5598
vn -0.9337 0.3289 -0.1419
vn -0.9161 0.3729 -0.1475
vn -0.8648 0.4969 -0.0723
vn -0.8648 0.4969 -0.0722
vn -0.9675 0.2317 -0.1014
vn -0.9675 0.2318 -0.1014
vn -0.8737 0.4043 0.2705
vn -0.5458 0.5584 -0.6247
vn -0.5457 0.5584 -0.6248
vn -0.5457 0.5584 -0.6249
vn -0.2927 0.3529 -0.8887
vn -0.6979 0.4967 0.5160
vn -0.5051 0.8623 -0.0365
vn -0.5246 0.8477 -0.0785
vn -0.5246 0.8477 -0.0786
vn -0.7604 0.3888 0.5201
vn -0.7605 0.3888 0.5200
vn -0.5659 0.4981 0.6570
vn 0.5572 -0.3099 0.7704
vn 0.5616 -0.3114 0.7666
vn 0.5634 -0.3119 0.7651
vn -0.5036 -0.3196 0.8026
vn 0.4994 0.0567 0.8645
vn 0.4794 -0.0689 0.8749
vn 0.4794 -0.0688 0.8749
vn 0.5558 -0.3095 0.7716
vn -0.8373 -0.5438 0.0568
vn -0.8373 -0.5438 0.0570
vn -0.8373 -0.5438 0.0569
vn -0.4564 -0.7719 0.4426
vn -0.4564 -0.7719 0.4427
vn -0.9742 -0.2257 0.0049
vn -0.9742 -0.2257 0.0048
vn -0.4252 -0.6792 0.5983
vn -0.4251 -0.6792 0.5983
vn -0.8088 0.4294 -0.4018
vn -0.8384 0.1988 -0.5075
vn -0.8384 0.1987 -0.5075
vn -0.9803 -0.1907 0.0515
vn -0.7689 0.3742 -0.5185
vn -0.7689 0.3741 -0.5185
vn -0.0796 0.5786 -0.8117
vn -0.0797 0.5787 -0.8117
vn -0.0795 0.5786 -0.8117
vn 0.0697 0.5301 -0.8451
vn 0.0698 0.5301 -0.8451
vn 0.4870 0.5047 -0.7128
vn 0.4869 0.5047 -0.7129
vn 0.4481 -0.8770 0.1736
vn 0.4481 -0.8769 0.1736
vn 0.3246 -0.7858 0.5264
vn 0.8441 -0.4125 0.3426
vn 0.8513 -0.4088 0.3291
vn 0.8513 -0.4088 0.3290
vn 0.8046 -0.5015 0.3179
vn 0.8047 -0.5016 0.3177
vn 0.8053 -0.5023 0.3149
vn 0.9370 0.0443 0.3466
vn 0.9961 -0.0298 -0.0831
vn 0.8675 0.4098 0.2820
vn 0.8675 0.4098 0.2821
vn 0.9521 0.2448 0.1834
vn 0.9521 0.2448 0.1833
vn 0.6998 -0.6710 0.2450
vn 0.6998 -0.6711 0.2450
vn 0.6998 -0.6711 0.2449
vn 0.8714 -0.4905 0.0059
vn 0.8714 -0.4905 0.0060
vn 0.9878 0.0714 -0.1381
vn 0.7324 -0.4525 0.5088
vn 0.7324 -0.4525 0.5087
vn 0.7324 -0.4526 0.5087
vn 0.5149 0.8541 -0.0733
vn 0.5149 0.8541 -0.0734
vn -0.0218 0.7084 0.7054
vn -0.0218 0.7085 0.7054
vn -0.0219 0.7085 0.7054
vn 0.7951 0.4874 0.3608
vn 0.7951 0.4874 0.3609
vn 0.7215 0.6846 -0.1039
vn 0.7215 0.6846 -0.1038
vn 0.1934 0.9093 -0.3685
vn 0.1933 0.9093 -0.3685
vn 0.1933 0.9093 -0.3686
vn 0.8365 0.4770 0.2696
vn 0.8365 0.4771 0.2696
vn 0.8365 0.4770 0.2695
vn 0.9787 0.0922 -0.1834
vn 0.9787 0.0922 -0.1835
vn 0.9486 0.1973 -0.2473
vn 0.9486 0.1973 -0.2472
vn 0.9866 0.0613 -0.1513
vn 0.9866 0.0613 -0.1514
vn 0.8105 0.4499 -0.3750
vn 0.8132 0.4492 -0.3700
vn 0.8074 0.4508 -0.3807
vn 0.8137 0.4491 -0.3691
vn 0.9727 -0.0197 0.2311
vn 0.8139 0.3289 -0.4789
vn 0.8140 0.3289 -0.4789
vn 0.8140 0.3289 -0.4788
vn 0.3089 0.6677 -0.6773
vn 0.3090 0.6677 -0.6772
vn 0.3088 0.6678 -0.6773
vn 0.7364 0.4955 -0.4607
vn 0.7363 0.4954 -0.4608
vn 0.9328 0.3038 0.1937
vn 0.9329 0.3038 0.1937
vn 0.9328 0.3039 0.1935
vn 0.7830 0.3376 0.5225
vn 0.7830 0.3376 0.5224
vn 0.8893 -0.0435 0.4552
vn 0.6558 0.5357 0.5320
vn 0.6209 0.2443 0.7448
vn 0.6209 0.2443 0.7449
vn 0.9996 -0.0218 0.0182
vn 0.9216 -0.2883 0.2598
vn 0.9216 -0.2884 0.2597
vn 0.8452 -0.0147 0.5342
vn 0.9469 -0.1719 0.2718
vn 0.8470 -0.1974 0.4935
vn 0.8470 -0.1974 0.4936
vn 0.8757 -0.2925 0.3842
vn 0.8757 -0.2925 0.3843
vn 0.8592 -0.3311 0.3901
vn 0.9907 0.1176 -0.0687
vn 0.9618 0.1880 -0.1987
vn 0.9618 0.1880 -0.1988
vn 0.8687 -0.1281 0.4785
vn 0.8513 -0.2372 0.4679
vn 0.8513 -0.2372 0.4680
vn 0.7780 -0.1645 0.6063
vn 0.7884 -0.0006 -0.6152
vn 0.3558 0.5762 -0.7358
vn 0.9966 -0.0802 -0.0164
vn 0.9071 -0.2565 -0.3337
vn 0.3669 0.4601 -0.8086
vn 0.3668 0.4601 -0.8086
vn 0.8759 0.3814 -0.2954
vn 0.7785 -0.2619 0.5704
vn 0.7785 -0.2619 0.5703
vn 0.4423 -0.5434 0.7135
vn 0.4424 -0.5434 0.7134
vn 0.8452 -0.2508 0.4719
vn 0.8782 -0.3814 0.2887
vn 0.8782 -0.3814 0.2888
vn 0.8469 -0.2672 0.4598
vn 0.4619 -0.5770 0.6736
vn 0.4618 -0.5770 0.6737
vn 0.6079 -0.2569 0.7513
vn 0.6079 -0.2570 0.7513
vn 0.6079 -0.2570 0.7512
vn 0.5497 -0.1534 0.8212
vn 0.8217 -0.4762 0.3131
vn 0.8217 -0.4762 0.3132
vn 0.8357 0.3308 -0.4383
vn 0.8358 0.3308 -0.4383
vn 0.9522 0.0457 0.3020
vn 0.4204 0.4202 -0.8042
vn 0.4203 0.4202 -0.8042
vn 0.4560 0.3268 -0.8278
vn 0.3984 0.2645 -0.8782
vn 0.3985 0.2645 -0.8782
vn 0.8909 0.2053 -0.4052
vn -0.0663 0.4817 -0.8739
vn -0.0662 0.4816 -0.8739
vn 0.1799 0.5121 -0.8399
vn 0.1855 0.5115 -0.8390
vn 0.1854 0.5115 -0.8390
vn 0.9127 0.2614 -0.3142
vn 0.9127 0.2614 -0.3141
vn 0.5912 -0.0917 0.8013
vn 0.9103 0.0624 0.4093
vn 0.9384 0.1620 0.3052
vn 0.3463 0.6222 -0.7021
vn 0.3462 0.6222 -0.7021
vn 0.8508 0.4160 -0.3212
vn 0.8508 0.4160 -0.3210
vn 0.8508 0.4160 -0.3211
vn 0.9329 0.1723 0.3162
vn 0.9304 0.3023 0.2071
vn 0.9305 0.3023 0.2071
vn 0.9304 0.3023 0.2072
vn 0.7795 -0.1502 0.6081
vn 0.7795 -0.1502 0.6082
vn -0.1446 -0.5201 0.8418
vn -0.1442 -0.5216 0.8409
vn -0.1443 -0.5208 0.8414
vn -0.1440 -0.5218 0.8408
vn 0.2575 -0.4833 0.8367
vn 0.2574 -0.4833 0.8368
vn 0.1335 -0.1616 0.9778
vn 0.1335 -0.1615 0.9778
vn 0.1339 -0.4726 0.8710
vn 0.1338 -0.4726 0.8711
vn 0.1340 -0.4726 0.8710
vn 0.4168 -0.3652 0.8324
vn 0.7931 -0.2354 0.5618
vn 0.7931 -0.2353 0.5618
vn 0.7931 -0.2353 0.5619
vn 0.8957 0.0080 0.4446
vn 0.7527 -0.4875 0.4424
vn 0.7528 -0.4875 0.4424
vn 0.8228 -0.3018 0.4816
vn 0.8227 -0.3018 0.4817
vn 0.9960 -0.0830 0.0337
vn 0.9960 -0.0831 0.0337
vn 0.9995 -0.0153 0.0292
vn 0.7518 0.5377 -0.3817
vn 0.7519 0.5377 -0.3816
vn 0.9740 0.1023 0.2023
vn 0.9739 0.1021 0.2028
vn 0.9740 0.1023 0.2022
vn -0.3777 0.6931 -0.6140
vn -0.9478 0.2690 0.1714
vn -0.3211 0.7743 -0.5453
vn -0.3213 0.7743 -0.5452
vn 0.1909 0.7667 -0.6129
vn 0.1910 0.7667 -0.6129
vn -0.5869 0.7860 -0.1944
vn -0.5869 0.7859 -0.1945
vn 0.8362 0.3599 0.4139
vn 0.8362 0.3599 0.4138
vn -0.6501 0.2592 -0.7142
vn -0.6502 0.2592 -0.7142
vn -0.6949 0.1591 -0.7012
vn -0.6949 0.1591 -0.7013
vn 0.2472 0.4414 -0.8626
vn 0.2471 0.4414 -0.8626
vn 0.2412 0.4420 -0.8640
vn 0.0848 0.6866 -0.7221
vn 0.0847 0.6866 -0.7221
vn 0.5244 0.5381 -0.6598
vn 0.5299 0.5319 -0.6605
vn 0.5313 0.5302 -0.6607
vn 0.5239 0.5386 -0.6599
vn 0.3516 0.3743 -0.8581
vn -0.4247 0.3607 -0.8304
vn -0.4247 0.3607 -0.8303
vn 0.2399 0.4061 -0.8818
vn 0.2398 0.4061 -0.8818
vn 0.4167 0.2608 0.8708
vn 0.6492 0.1811 0.7387
vn 0.6492 0.1811 0.7388
vn 0.7671 0.4996 -0.4024
vn 0.7670 0.4996 -0.4025
vn 0.8613 0.3759 -0.3419
vn 0.8613 0.3759 -0.3418
vn 0.8888 0.0304 0.4573
vn 0.8895 0.4389 -0.1270
vn 0.8893 0.4389 -0.1284
vn 0.9180 0.3343 0.2134
vn 0.9180 0.3343 0.2135
vn 0.5112 0.4193 -0.7502
vn 0.5112 0.4193 -0.7503
vn 0.5111 0.4193 -0.7503
vn 0.7118 0.6005 -0.3643
vn 0.7118 0.6006 -0.3643
vn 0.7117 0.6006 -0.3644
vn 0.8599 0.3609 0.3609
vn 0.8599 0.3609 0.3610
vn 0.6278 0.0166 0.7782
vn 0.6161 0.1066 0.7804
vn 0.5556 0.1432 0.8190
vn 0.6314 0.5532 -0.5434
vn 0.6315 0.5532 -0.5433
vn 0.8557 0.3752 0.3565
vn 0.8556 0.3752 0.3565
vn 0.8557 0.3752 0.3564
vn 0.9690 0.2275 -0.0965
vn 0.9658 0.2580 0.0264
vn 0.9658 0.2580 0.0263
vn -0.1715 0.3387 -0.9251
vn -0.1716 0.3387 -0.9251
vn 0.7199 -0.2182 0.6589
vn 0.7199 -0.2181 0.6589
vn 0.5315 0.8463 -0.0356
vn 0.5316 0.8463 -0.0357
vn 0.5316 0.8462 -0.0358
vn -0.7380 0.6579 -0.1500
vn -0.7381 0.6579 -0.1498
vn -0.7381 0.6579 -0.1499
vn 0.6976 -0.1410 0.7025
vn 0.6975 -0.1411 0.7026
vn 0.6975 -0.1411 0.7025
vn 0.5576 0.7924 -0.2476
vn 0.5575 0.7923 -0.2477
vn -0.4971 -0.5595 0.6632
vn -0.4973 -0.5596 0.6630
vn -0.4972 -0.5596 0.6630
vn -0.4496 -0.3756 0.8104
vn -0.4496 -0.3756 0.8105
vn -0.1637 0.5683 -0.8064
vn -0.1636 0.5683 -0.8064
vn -0.7691 0.2518 -0.5874
vn -0.7676 0.3470 -0.5389
vn -0.7675 0.3470 -0.5389
vn -0.7484 0.3474 -0.5650
vn -0.9583 -0.2857 0.0006
vn -0.9583 -0.2858 0.0006
vn 0.9906 -0.0784 -0.1123
vn 0.9906 -0.0752 -0.1141
vn 0.9906 -0.0747 -0.1145
vn 0.9905 -0.0788 -0.1123
vn 0.4328 -0.4127 0.8015
vn 0.4327 -0.4127 0.8015
vn 0.9993 0.0374 -0.0055
vn 0.9254 -0.2438 0.2901
vn 0.9678 -0.0254 0.2506
vn 0.5542 -0.2636 0.7895
vn 0.9441 -0.2784 0.1767
vn 0.9441 -0.2784 0.1768
vn 0.8992 0.4376 -0.0020
vn 0.8992 0.4376 -0.0019
vn 0.9997 0.0244 0.0039
vn 0.9996 0.0240 0.0124
vn 0.9997 0.0246 0.0030
vn 0.7280 0.3403 0.5952
vn 0.7327 0.3336 0.5931
vn 0.7307 0.3366 0.5939
vn 0.6610 0.7381 -0.1352
vn 0.6610 0.7381 -0.1351
vn -0.3217 0.8811 -0.3466
vn -0.3216 0.8811 -0.3468
vn 0.7334 0.3328 0.5927
vn 0.7022 0.6789 -0.2148
vn 0.7022 0.6788 -0.2148
vn 0.7472 0.6645 -0.0081
vn 0.7472 0.6646 -0.0079
vn 0.7472 0.6646 -0.0080
vn 0.9996 0.0241 0.0137
vn 0.9836 0.1501 0.1002
vn 0.7790 0.5612 -0.2797
vn 0.7790 0.5613 -0.2796
vn 0.8226 0.4685 -0.3221
vn 0.8226 0.4686 -0.3220
vn 0.8227 0.4686 -0.3219
vn 0.1847 0.9383 0.2923
vn 0.1848 0.9383 0.2923
vn 0.4144 0.9070 0.0750
vn 0.4145 0.9070 0.0750
vn 0.6938 0.4087 0.5929
vn 0.6938 0.4087 0.5930
vn 0.6910 0.4108 0.5947
vn 0.8186 0.5571 0.1398
vn 0.8187 0.5570 0.1397
vn 0.8187 0.5570 0.1396
vn 0.2201 0.9683 0.1184
vn 0.2200 0.9683 0.1185
vn 0.3266 0.7408 0.5870
vn 0.7141 -0.4812 0.5084
vn 0.8428 -0.5150 0.1563
vn 0.8429 -0.5150 0.1561
vn 0.8428 -0.5151 0.1562
vn 0.7647 -0.4110 0.4963
vn 0.7647 -0.4110 0.4964
vn 0.7647 -0.4109 0.4963
vn 0.2624 0.6953 -0.6691
vn 0.2623 0.6953 -0.6691
vn 0.8512 -0.4271 0.3051
vn 0.8512 -0.4271 0.3050
vn 0.8511 -0.4272 0.3053
vn 0.4962 -0.6972 0.5174
vn 0.4963 -0.6972 0.5174
vn 0.4963 -0.6972 0.5173
vn -0.3998 -0.5955 0.6968
vn 0.1459 -0.5016 0.8527
vn 0.1460 -0.5016 0.8527
vn 0.4467 -0.4492 0.7738
vn 0.4468 -0.4491 0.7737
vn 0.5716 -0.1046 0.8138
vn -0.5658 -0.0358 0.8238
vn -0.5658 -0.0359 0.8238
vn -0.5684 -0.0764 0.8192
vn -0.6538 -0.1215 0.7468
vn -0.6538 -0.1214 0.7469
vn 0.6661 -0.2629 0.6980
vn 0.6659 -0.2629 0.6981
vn 0.3786 -0.6629 0.6459
vn 0.3785 -0.6630 0.6459
vn 0.1406 -0.0754 0.9872
vn 0.1405 -0.0755 0.9872
vn -0.6414 -0.3875 0.6622
vn -0.6415 -0.3876 0.6620
vn -0.6414 -0.3875 0.6621
vn -0.0734 0.2661 0.9611
vn -0.0734 0.2662 0.9611
vn -0.6804 0.7226 0.1218
vn -0.6804 0.7226 0.1219
vn -0.5041 -0.5673 0.6513
vn -0.5041 -0.5673 0.6512
vn -0.5042 -0.5673 0.6511
vn -0.7721 0.6235 0.1232
vn -0.7721 0.6235 0.1231
vn -0.8778 0.3935 0.2732
vn -0.8778 0.3935 0.2730
vn -0.1722 -0.0283 0.9847
vn -0.9515 0.2173 -0.2179
vn -0.6864 -0.0058 0.7272
vn -0.8018 -0.0645 0.5942
vn -0.8018 -0.0645 0.5941
vn -0.6162 -0.3791 0.6903
vn -0.6162 -0.3792 0.6903
vn -0.7914 -0.2047 0.5761
vn -0.7913 -0.2046 0.5761
vn 0.9213 0.3741 0.1061
vn 0.9213 0.3741 0.1060
vn 0.7203 0.5037 -0.4769
vn 0.7203 0.5037 -0.4770
vn 0.6812 0.6503 -0.3363
vn 0.6812 0.6503 -0.3362
vn 0.5224 0.7601 -0.3864
vn 0.5224 0.7602 -0.3863
vn 0.7690 0.6326 0.0920
vn 0.7689 0.6327 0.0921
vn 0.5163 0.7242 0.4571
vn 0.5163 0.7242 0.4572
vn 0.5162 0.7242 0.4572
vn 0.9199 -0.0700 0.3858
vn 0.9199 -0.0701 0.3858
vn 0.8692 0.4692 0.1560
vn 0.8692 0.4693 0.1560
vn 0.8969 0.4342 0.0841
vn 0.8969 0.4341 0.0840
vn 0.6459 -0.0452 0.7621
vn 0.6459 -0.0452 0.7620
vn 0.6524 -0.1040 0.7507
vn 0.4725 0.0507 0.8799
vn 0.4176 0.5455 0.7267
vn 0.4175 0.5456 0.7267
vn 0.6285 -0.1130 0.7695
vn 0.6272 -0.1132 0.7706
vn 0.6275 -0.1131 0.7704
vn 0.7055 0.6194 -0.3443
vn 0.7055 0.6194 -0.3444
vn 0.8938 0.4372 -0.0996
vn 0.8938 0.4373 -0.0995
vn 0.8938 0.4373 -0.0994
vn 0.8683 0.4960 0.0099
vn 0.8682 0.4961 0.0100
vn 0.9260 0.3677 0.0849
vn 0.9261 0.3677 0.0848
vn 0.5280 0.4068 -0.7455
vn 0.5279 0.4067 -0.7456
vn 0.4029 0.5837 -0.7050
vn 0.4030 0.5837 -0.7049
vn 0.7325 0.4004 -0.5506
vn 0.7324 0.4003 -0.5507
vn 0.7325 0.4004 -0.5507
vn 0.9000 0.4358 0.0086
vn 0.9000 0.4358 0.0087
vn 0.8336 0.5153 0.1989
vn 0.8337 0.5152 0.1988
vn 0.6531 0.2057 0.7288
vn 0.6531 0.2056 0.7288
vn 0.5415 -0.0572 0.8388
vn 0.5414 -0.0572 0.8388
vn 0.5045 0.7655 -0.3994
vn 0.5045 0.7655 -0.3993
vn 0.5619 0.2503 0.7884
vn 0.5583 0.2465 0.7921
vn 0.5603 0.2485 0.7901
vn 0.4998 0.8057 0.3178
vn 0.4998 0.8057 0.3179
vn 0.4997 0.8057 0.3179
vn 0.5625 0.2507 0.7879
vn 0.6459 0.6968 -0.3121
vn 0.6459 0.6968 -0.3120
vn 0.6459 0.6967 -0.3121
vn 0.4640 0.3392 -0.8183
vn 0.2746 0.5011 -0.8207
vn 0.2747 0.5012 -0.8206
vn 0.2745 0.5011 -0.8207
vn 0.0096 0.4680 -0.8837
vn 0.0095 0.4680 -0.8837
vn 0.5869 0.8072 -0.0630
vn 0.5868 0.8073 -0.0629
vn 0.5868 0.8073 -0.0630
vn -0.7852 0.6190 0.0167
vn -0.7852 0.6190 0.0165
vn -0.7852 0.6190 0.0166
vn -0.5112 0.8448 0.1584
vn -0.6049 0.4695 -0.6431
vn -0.6049 0.4695 -0.6432
vn -0.7982 0.2132 -0.5634
vn -0.7982 0.2132 -0.5635
vn -0.7981 0.2132 -0.5635
vn 0.8344 0.5487 0.0522
vn 0.8344 0.5487 0.0524
vn 0.7069 0.6082 -0.3610
vn 0.7069 0.6081 -0.3612
vn 0.7069 0.6082 -0.3611
vn 0.6867 0.4712 0.5535
vn 0.6866 0.4713 0.5535
vn 0.6866 0.4713 0.5536
vn 0.8297 0.3951 0.3945
vn 0.8297 0.3950 0.3945
vn 0.8297 0.3950 0.3944
vn 0.4071 0.4814 -0.7762
vn 0.4072 0.4814 -0.7761
vn 0.2312 0.3640 -0.9022
vn 0.2316 0.3609 -0.9034
vn 0.2318 0.3671 -0.9008
vn -0.0734 0.4878 -0.8699
vn -0.0733 0.4878 -0.8699
vn -0.8092 0.3043 -0.5027
vn -0.8091 0.3043 -0.5027
vn 0.2307 0.3609 -0.9036
vn 0.6017 0.0715 -0.7955
vn 0.6017 0.0716 -0.7955
vn -0.2712 0.3134 -0.9101
vn -0.2713 0.3134 -0.9101
vn 0.9476 0.3190 -0.0148
vn 0.9476 0.3190 -0.0149
vn 0.9083 -0.4097 -0.0841
vn 0.9711 0.1786 0.1586
vn 0.9711 0.1785 0.1585
vn 0.3257 0.5072 -0.7979
vn 0.3256 0.5072 -0.7980
vn 0.5603 0.3454 -0.7528
vn 0.5604 0.3455 -0.7527
vn 0.9714 -0.0091 0.2373
vn 0.9714 -0.0090 0.2372
vn 0.8607 0.4695 0.1969
vn 0.8608 0.4694 0.1968
vn 0.8607 0.4694 0.1969
vn 0.8126 0.0521 0.5805
vn 0.8126 0.0520 0.5805
vn 0.4982 0.7096 -0.4983
vn 0.4983 0.7097 -0.4980
vn 0.4983 0.7096 -0.4981
vn 0.3368 0.8149 -0.4716
vn 0.3368 0.8149 -0.4717
vn 0.4419 0.1535 -0.8838
vn 0.3590 0.6051 -0.7106
vn 0.3589 0.6051 -0.7106
vn 0.3589 0.6051 -0.7107
vn 0.6838 0.3142 -0.6585
vn 0.6839 0.3143 -0.6583
vn -0.3718 0.3851 -0.8447
vn -0.3717 0.3851 -0.8447
vn 0.4690 0.5782 -0.6676
vn 0.4689 0.5782 -0.6677
vn -0.0959 0.7135 -0.6941
vn -0.0961 0.7135 -0.6941
vn 0.7740 0.1888 0.6044
vn 0.0753 0.8263 -0.5582
vn -0.0397 0.8558 -0.5158
vn -0.0398 0.8558 -0.5158
vn -0.6403 0.5970 -0.4833
vn -0.6405 0.5970 -0.4831
vn 0.4665 0.6484 0.6016
vn 0.4666 0.6483 0.6016
vn 0.6964 0.2394 0.6766
vn 0.6047 0.1436 0.7834
vn 0.0359 0.4901 0.8710
vn 0.0359 0.4900 0.8710
vn 0.5609 0.7904 -0.2463
vn 0.5609 0.7904 -0.2462
vn 0.9892 0.1343 -0.0582
vn 0.9892 0.1344 -0.0582
vn 0.9845 0.1483 -0.0941
vn 0.7727 -0.0898 0.6284
vn 0.9246 -0.0514 0.3774
vn 0.9247 -0.0514 0.3773
vn 0.7722 0.5447 -0.3272
vn 0.7722 0.5447 -0.3271
vn 0.7722 0.5447 -0.3270
vn 0.8578 0.3388 -0.3865
vn 0.8578 0.3388 -0.3866
vn 0.8578 0.3387 -0.3866
vn 0.9776 0.1944 -0.0802
vn 0.9776 0.1944 -0.0801
vn 0.7410 -0.2863 0.6074
vn 0.9377 -0.1353 0.3201
vn 0.9377 -0.1352 0.3201
vn 0.8037 -0.3037 0.5116
vn 0.8037 -0.3038 0.5117
vn 0.8037 -0.3038 0.5116
vn 0.9509 -0.0165 0.3091
vn 0.9172 0.3628 0.1647
vn 0.7612 0.2426 0.6015
vn 0.5387 0.8009 -0.2616
vn 0.5387 0.8008 -0.2617
vn 0.5386 0.8008 -0.2617
vn 0.7568 0.5106 -0.4081
vn 0.7568 0.5104 -0.4083
vn 0.7569 0.5105 -0.4081
vn 0.4990 0.5433 -0.6752
vn 0.4989 0.5432 -0.6753
vn 0.7654 -0.4475 -0.4625
vn 0.7655 -0.4476 -0.4623
vn 0.7654 -0.4476 -0.4624
vn 0.7569 0.5104 -0.4080
vn 0.5529 0.1706 -0.8156
vn 0.5528 0.1706 -0.8156
vn 0.5529 0.1707 -0.8156
vn 0.6913 0.6478 -0.3200
vn 0.6913 0.6478 -0.3201
vn 0.6147 0.4730 -0.6312
vn 0.6147 0.4730 -0.6311
vn 0.3694 0.9052 -0.2101
vn 0.3694 0.9052 -0.2102
vn 0.3694 0.9052 -0.2103
vn 0.8008 0.4938 0.3389
vn 0.8007 0.4939 0.3391
vn 0.8007 0.4939 0.3390
vn 0.7938 0.1045 0.5991
vn 0.9853 0.1297 -0.1108
vn 0.9853 0.1296 -0.1108
vn 0.9054 0.4028 0.1343
vn 0.9053 0.4028 0.1344
vn 0.9705 0.1753 0.1658
vn 0.9704 0.1753 0.1658
vn 0.9711 0.1928 0.1409
vn 0.9711 0.1928 0.1408
vn 0.9711 0.1927 0.1408
vn 0.9706 0.2407 -0.0000
vn 0.9706 0.2408 0.0001
vn 0.8082 0.5857 -0.0620
vn 0.9800 0.1436 0.1378
vn 0.9800 0.1435 0.1378
vn 0.8723 0.4792 -0.0976
vn 0.8723 0.4792 -0.0975
vn 0.8722 0.4793 -0.0974
vn 0.7157 0.5864 -0.3794
vn 0.7157 0.5865 -0.3792
vn -0.9719 0.1719 -0.1606
vn -0.9719 0.1720 -0.1606
vn 0.7483 -0.2780 0.6022
vn 0.7547 -0.2751 0.5956
vn -0.9244 -0.3652 -0.1103
vn -0.9243 -0.3653 -0.1103
vn -0.9244 -0.3653 -0.1103
vn 0.4819 0.8206 -0.3072
vn 0.4819 0.8207 -0.3070
vn 0.4819 0.8207 -0.3071
vn 0.5635 0.8223 0.0792
vn 0.5634 0.8224 0.0793
vn 0.9848 0.1298 -0.1151
vn 0.9848 0.1299 -0.1151
vn 0.7757 0.6233 0.0992
vn 0.7756 0.6233 0.0993
vn 0.9836 0.0268 0.1783
vn 0.9818 0.1825 -0.0528
vn 0.9818 0.1825 -0.0529
vn 0.9082 0.3927 -0.1447
vn 0.9086 0.3899 -0.1493
vn 0.9421 0.3138 0.1184
vn 0.9421 0.3138 0.1183
vn 0.5745 0.8176 0.0390
vn 0.5745 0.8176 0.0389
vn 0.7421 0.5508 0.3819
vn 0.7422 0.5508 0.3819
vn 0.6491 0.6782 0.3445
vn 0.6492 0.6782 0.3444
vn 0.6490 0.6783 0.3446
vn 0.4535 0.7342 -0.5052
vn 0.4536 0.7342 -0.5051
vn 0.3484 0.7913 -0.5025
vn 0.3483 0.7913 -0.5026
vn 0.3483 0.7913 -0.5025
vn 0.7447 -0.6411 -0.1858
vn 0.7447 -0.6411 -0.1857
vn 0.8746 -0.2660 -0.4054
vn 0.5095 -0.8026 -0.3104
vn 0.5096 -0.8026 -0.3102
vn 0.0899 0.1665 -0.9819
vn 0.0898 0.1664 -0.9820
vn 0.0899 0.1664 -0.9819
vn -0.1048 0.6370 -0.7637
vn -0.1047 0.6370 -0.7637
vn -0.6361 0.3088 -0.7071
vn 0.6831 -0.7119 0.1633
vn 0.6831 -0.7119 0.1632
vn 0.6594 -0.7386 0.1400
vn 0.6594 -0.7387 0.1399
vn 0.6594 -0.7386 0.1398
vn -0.2492 -0.9527 0.1738
vn -0.2492 -0.9527 0.1737
vn 0.4145 0.8043 -0.4258
vn 0.4145 0.8043 -0.4259
vn 0.4145 0.8042 -0.4259
vn 0.4761 0.8290 -0.2935
vn 0.4760 0.8289 -0.2937
vn 0.0484 0.9777 -0.2045
vn 0.0473 0.9774 -0.2061
vn -0.4518 0.8076 -0.3790
vn -0.4519 0.8076 -0.3789
vn -0.9778 0.1075 0.1801
vn -0.8983 -0.4361 0.0545
vn -0.6065 -0.7801 -0.1535
vn -0.6066 -0.7801 -0.1535
vn -0.6026 -0.7820 -0.1592
vn 0.2967 0.9504 -0.0934
vn 0.2967 0.9504 -0.0933
vn 0.2558 0.9660 -0.0361
vn 0.2559 0.9660 -0.0361
vn 0.4302 0.7020 0.5676
vn 0.4301 0.7020 0.5676
vn -0.5010 -0.8624 -0.0723
vn -0.5009 -0.8624 -0.0724
vn -0.4637 0.8624 -0.2033
vn -0.4637 0.8624 -0.2034
vn -0.5742 0.8114 -0.1095
vn -0.5741 0.8114 -0.1097
vn -0.5741 0.8114 -0.1096
vn -0.8924 0.4405 -0.0978
vn -0.8924 0.4405 -0.0979
vn -0.5540 0.8161 0.1643
vn -0.5541 0.8161 0.1642
vn -0.5540 0.8161 0.1644
vn -0.9788 -0.0160 -0.2043
vn -0.6410 -0.7665 0.0391
vn -0.6411 -0.7665 0.0391
vn -0.9873 -0.1520 0.0458
vn -0.8903 -0.4349 0.1348
vn -0.4193 -0.7132 -0.5617
vn -0.4192 -0.7133 -0.5617
vn 0.4032 -0.5974 -0.6932
vn 0.4115 -0.5995 -0.6865
vn 0.4114 -0.5995 -0.6865
vn -0.4570 -0.0190 -0.8893
vn -0.4570 -0.0190 -0.8892
vn -0.6115 0.3749 -0.6968
vn -0.6114 0.3750 -0.6969
vn -0.6113 0.3750 -0.6969
vn -0.4122 0.4347 -0.8007
vn -0.4122 0.4346 -0.8007
vn -0.5252 -0.0329 -0.8504
vn -0.5252 -0.0328 -0.8504
vn -0.4989 -0.0725 -0.8636
vn -0.4990 -0.0726 -0.8636
vn -0.9502 -0.0480 -0.3078
vn -0.9502 -0.0481 -0.3078
vn -0.9731 0.0034 -0.2305
vn -0.7906 -0.5765 -0.2064
vn -0.7906 -0.5765 -0.2063
vn -0.9474 -0.2690 -0.1735
vn -0.3704 0.3419 -0.8636
vn -0.3702 0.3420 -0.8637
vn -0.3703 0.3420 -0.8637
vn 0.7770 0.3583 0.5175
vn 0.7770 0.3584 0.5175
vn -0.5415 -0.8328 -0.1154
vn -0.5414 -0.8328 -0.1155
vn -0.5807 0.7818 -0.2271
vn -0.5808 0.7818 -0.2269
vn -0.5808 0.7818 -0.2268
vn -0.6706 0.4882 -0.5585
vn -0.9330 0.3127 -0.1780
vn -0.8544 0.2861 -0.4338
vn -0.8544 0.2861 -0.4339
vn -0.8598 0.4354 -0.2666
vn -0.8599 0.4354 -0.2665
vn -0.3057 0.2757 -0.9114
vn -0.3056 0.2757 -0.9114
vn -0.3058 0.2756 -0.9113
vn -0.5249 -0.3065 0.7940
vn -0.5250 -0.3065 0.7940
vn -0.5249 -0.3065 0.7941
vn -0.9469 0.1463 -0.2864
vn -0.3047 0.6631 -0.6837
vn -0.3046 0.6631 -0.6838
vn -0.4332 0.5060 -0.7458
vn -0.4334 0.5060 -0.7458
vn -0.9372 0.1389 -0.3200
vn -0.9443 0.2440 -0.2209
vn -0.7453 0.2317 -0.6252
vn -0.7627 0.5493 -0.3414
vn -0.7627 0.5493 -0.3413
vn -0.4042 -0.3682 0.8373
vn -0.4042 -0.3682 0.8372
vn -0.6497 -0.0290 0.7597
vn -0.6497 -0.0291 0.7597
vn -0.7199 -0.1753 0.6716
vn -0.7199 -0.1753 0.6715
vn -0.5038 -0.3564 0.7868
vn -0.5039 -0.3565 0.7868
vn -0.5038 -0.3564 0.7869
vn -0.4731 -0.3188 0.8213
vn -0.4730 -0.3188 0.8213
vn -0.7846 0.4858 0.3851
vn -0.8901 0.0811 0.4485
vn -0.9223 0.0071 0.3865
vn -0.8534 -0.4166 0.3134
vn -0.8534 -0.4166 0.3133
vn -0.9759 0.0845 -0.2011
vn -0.8420 -0.5132 0.1665
vn -0.8523 0.3986 -0.3387
vn -0.8505 -0.4808 -0.2133
vn -0.8505 -0.4808 -0.2134
vn -0.9925 0.0860 -0.0874
vn -0.9924 0.0860 -0.0875
vn -0.9118 -0.0070 0.4105
vn -0.9118 -0.0071 0.4105
vn -0.9324 -0.1002 -0.3473
vn -0.9900 0.1381 -0.0285
vn -0.9900 0.1380 -0.0284
vn -0.8695 -0.1592 0.4676
vn -0.8695 -0.1593 0.4676
vn -0.8999 -0.1118 0.4216
vn -0.8962 -0.1561 0.4154
vn -0.8962 -0.1562 0.4153
vn -0.8962 -0.1561 0.4153
vn -0.9994 -0.0305 -0.0183
vn -0.9252 -0.2827 0.2530
vn -0.9253 -0.2827 0.2530
vn -0.9319 -0.2545 0.2586
vn -0.8555 0.4977 -0.1431
vn -0.9618 -0.2439 0.1246
vn -0.9618 -0.2440 0.1245
vn -0.9852 -0.0176 -0.1705
vn -0.9852 -0.0175 -0.1705
vn -0.9236 -0.3645 0.1184
vn -0.9236 -0.3645 0.1185
vn 0.8254 0.5428 -0.1550
vn 0.8254 0.5428 -0.1549
vn 0.8254 0.5429 -0.1549
vn 0.0570 0.9431 -0.3275
vn 0.0571 0.9432 -0.3274
vn 0.0570 0.9431 -0.3274
vn 0.0709 0.9450 -0.3194
vn 0.0710 0.9450 -0.3193
vn -0.6838 0.3873 0.6184
vn -0.6838 0.3872 0.6185
vn -0.6837 0.3872 0.6185
vn -0.5820 0.7962 -0.1653
vn -0.5820 0.7962 -0.1651
vn -0.9063 0.3810 -0.1827
vn -0.9064 0.3810 -0.1826
vn 0.8418 0.5396 -0.0179
vn 0.8418 0.5396 -0.0180
vn 0.8418 0.5395 -0.0180
vn 0.8141 0.5807 -0.0062
vn 0.8141 0.5807 -0.0063
vn 0.9049 0.3915 0.1670
vn 0.9049 0.3916 0.1671
vn 0.9049 0.3915 0.1671
vn 0.8088 0.1587 0.5662
vn 0.8975 0.2271 0.3780
vn 0.8976 0.2270 0.3779
vn 0.4174 0.6698 -0.6141
vn 0.4173 0.6698 -0.6142
vn 0.0968 0.7304 -0.6762
vn 0.0969 0.7304 -0.6761
vn 0.4049 0.6889 -0.6012
vn 0.4049 0.6890 -0.6011
vn 0.4048 0.6889 -0.6012
vn 0.3878 0.6782 -0.6242
vn 0.0820 0.7343 -0.6739
vn 0.0819 0.7343 -0.6739
vn -0.5593 0.4307 -0.7083
vn -0.5592 0.4307 -0.7083
vn 0.6339 -0.7529 0.1771
vn 0.6339 -0.7529 0.1770
vn 0.5538 -0.4207 0.7185
vn 0.6235 -0.1138 0.7735
vn 0.0808 -0.9405 0.3301
vn 0.0807 -0.9405 0.3301
vn 0.0468 -0.9951 0.0867
vn -0.9245 -0.3782 -0.0478
vn -0.9245 -0.3782 -0.0479
vn -0.7818 0.2643 0.5648
vn -0.9903 -0.1018 0.0946
vn -0.9903 -0.1019 0.0945
vn -0.9903 -0.1018 0.0945
vn -0.5177 -0.5861 0.6233
vn -0.5198 -0.5874 0.6203
vn -0.9450 -0.3268 -0.0145
vn -0.9450 -0.3268 -0.0146
vn -0.9965 0.0391 0.0737
vn -0.9965 0.0392 0.0737
vn -0.9905 -0.1190 -0.0686
vn -0.9593 -0.0939 -0.2662
vn -0.9588 -0.0984 -0.2664
vn -0.8682 0.4909 -0.0729
vn -0.8682 0.4908 -0.0727
vn -0.8334 0.3635 -0.4164
vn -0.8334 0.3635 -0.4163
vn -0.9828 -0.1847 0.0039
vn -0.9828 -0.1847 0.0038
vn -0.9797 0.0516 -0.1939
vn -0.9463 -0.3234 0.0032
vn -0.9463 -0.3233 0.0033
vn 0.0153 0.9802 -0.1975
vn 0.1052 0.7487 -0.6545
vn 0.1050 0.7486 -0.6546
vn 0.1051 0.7487 -0.6546
vn -0.5060 0.4851 -0.7132
vn -0.5059 0.4851 -0.7132
vn -0.1195 0.9524 -0.2805
vn -0.6047 0.7914 -0.0892
vn -0.6047 0.7914 -0.0891
vn -0.3845 0.7114 -0.5882
vn -0.3847 0.7114 -0.5882
vn -0.3845 0.7114 -0.5883
vn -0.7108 0.5345 -0.4573
vn -0.7108 0.5345 -0.4572
vn -0.7109 0.5345 -0.4571
vn -0.4829 0.4884 -0.7268
vn -0.5549 0.5673 -0.6085
vn -0.5548 0.5673 -0.6085
vn -0.5547 0.5674 -0.6086
vn -0.5841 0.2974 -0.7552
vn -0.5840 0.2975 -0.7553
vn -0.7969 0.1071 -0.5945
vn -0.8831 0.3050 -0.3564
vn -0.8832 0.3050 -0.3564
vn -0.7535 0.1298 0.6445
vn -0.7303 0.1809 0.6587
vn -0.9859 -0.0829 0.1456
vn -0.9859 -0.0828 0.1456
vn -0.9481 -0.3092 0.0739
vn -0.9477 -0.3111 0.0714
vn -0.9241 -0.3769 -0.0630
vn -0.9242 -0.3768 -0.0629
vn -0.9505 0.2352 -0.2029
vn -0.9505 0.2353 -0.2029
vn -0.7734 0.0403 -0.6326
vn -0.9078 0.2875 -0.3054
vn -0.9078 0.2875 -0.3055
vn -0.9466 0.3030 -0.1105
vn 0.3142 0.4447 -0.8388
vn 0.3142 0.4447 -0.8387
vn -0.1786 0.1824 -0.9669
vn -0.1786 0.1825 -0.9669
vn -0.1787 0.1824 -0.9669
vn -0.3944 0.5235 -0.7553
vn -0.3945 0.5235 -0.7552
vn -0.7844 0.1688 -0.5969
vn -0.7843 0.1688 -0.5969
vn 0.7097 0.5409 0.4513
vn 0.7712 0.2680 0.5775
vn 0.7712 0.2680 0.5774
vn 0.7534 0.1146 0.6475
vn 0.6698 -0.1810 0.7201
vn 0.8215 0.2363 0.5189
vn 0.2459 -0.2844 0.9266
vn 0.2458 -0.2844 0.9267
vn -0.5035 -0.6974 0.5100
vn -0.5034 -0.6974 0.5101
vn -0.6438 0.0121 -0.7651
vn -0.9885 -0.0723 0.1325
vt 0.284353 0.913247
vt 0.283844 0.918798
vt 0.274158 0.916001
vt 0.298689 0.914929
vt 0.292197 0.909440
vt 0.298705 0.901953
vt 0.205943 0.869898
vt 0.192565 0.882329
vt 0.201790 0.869375
vt 0.214008 0.860953
vt 0.210539 0.857256
vt 0.211217 0.870874
vt 0.217694 0.857873
vt 0.217243 0.862413
vt 0.307520 0.904089
vt 0.313295 0.913020
vt 0.218810 0.849549
vt 0.316577 0.902080
vt 0.321081 0.906166
vt 0.221462 0.861919
vt 0.316862 0.890700
vt 0.303017 0.894553
vt 0.511802 0.891645
vt 0.508930 0.904800
vt 0.506518 0.894653
vt 0.500800 0.904953
vt 0.506575 0.888618
vt 0.504580 0.891380
vt 0.501757 0.884133
vt 0.502293 0.880927
vt 0.497238 0.900124
vt 0.490326 0.911590
vt 0.476785 0.903245
vt 0.500869 0.889425
vt 0.481642 0.898589
vt 0.485976 0.896090
vt 0.494273 0.891141
vt 0.477348 0.893981
vt 0.477836 0.887584
vt 0.471981 0.891827
vt 0.473018 0.882853
vt 0.483223 0.887823
vt 0.487730 0.891318
vt 0.499517 0.870992
vt 0.503003 0.876839
vt 0.497797 0.875007
vt 0.502124 0.870750
vt 0.495116 0.865001
vt 0.502841 0.867941
vt 0.500981 0.863316
vt 0.426957 0.335765
vt 0.434363 0.340943
vt 0.425734 0.341428
vt 0.168901 0.915567
vt 0.168466 0.924189
vt 0.165649 0.916215
vt 0.431130 0.330192
vt 0.435861 0.336314
vt 0.422493 0.330212
vt 0.425588 0.328397
vt 0.174074 0.918176
vt 0.173330 0.911824
vt 0.170672 0.909030
vt 0.176626 0.924155
vt 0.174350 0.930031
vt 0.183280 0.918977
vt 0.180069 0.912127
vt 0.182998 0.925790
vt 0.187544 0.913823
vt 0.180845 0.931466
vt 0.191006 0.933513
vt 0.189709 0.924727
vt 0.192971 0.916693
vt 0.195967 0.928044
vt 0.287336 0.001233
vt 0.285540 0.009657
vt 0.279992 0.001808
vt 0.198659 0.951627
vt 0.203740 0.952758
vt 0.197081 0.956688
vt 0.191876 0.950694
vt 0.278716 0.009372
vt 0.183039 0.941184
vt 0.189397 0.938928
vt 0.188913 0.945470
vt 0.182779 0.946839
vt 0.185726 0.949601
vt 0.198549 0.945861
vt 0.496576 0.877856
vt 0.496289 0.870558
vt 0.495657 0.882109
vt 0.500874 0.858147
vt 0.158742 0.906928
vt 0.172065 0.903225
vt 0.164691 0.898267
vt 0.492567 0.873189
vt 0.488120 0.876761
vt 0.477867 0.877343
vt 0.488389 0.879456
vt 0.489921 0.869966
vt 0.482275 0.872955
vt 0.465457 0.878405
vt 0.228986 0.909427
vt 0.239076 0.911929
vt 0.235842 0.915261
vt 0.149347 0.904809
vt 0.239664 0.918170
vt 0.254467 0.913033
vt 0.250213 0.900861
vt 0.245828 0.906095
vt 0.235998 0.906375
vt 0.240780 0.902749
vt 0.244672 0.899779
vt 0.497436 0.886776
vt 0.495417 0.885654
vt 0.492246 0.885503
vt 0.492554 0.888457
vt 0.488504 0.884969
vt 0.176631 0.904033
vt 0.179154 0.896236
vt 0.190562 0.903132
vt 0.192358 0.896229
vt 0.248972 0.893887
vt 0.244515 0.894640
vt 0.195016 0.905681
vt 0.198243 0.912767
vt 0.198757 0.907411
vt 0.197463 0.919209
vt 0.200325 0.902770
vt 0.201334 0.896196
vt 0.205510 0.911269
vt 0.208522 0.911095
vt 0.202095 0.912105
vt 0.211418 0.918147
vt 0.213906 0.913412
vt 0.208324 0.917140
vt 0.181364 0.885094
vt 0.268650 0.905449
vt 0.186209 0.887804
vt 0.204559 0.882546
vt 0.207264 0.886252
vt 0.209652 0.891757
vt 0.257278 0.900231
vt 0.254074 0.895794
vt 0.260926 0.894304
vt 0.248623 0.885935
vt 0.215135 0.907421
vt 0.218339 0.911197
vt 0.212915 0.908715
vt 0.210259 0.908718
vt 0.266721 0.896410
vt 0.267459 0.891617
vt 0.271166 0.896676
vt 0.204747 0.903952
vt 0.210913 0.905253
vt 0.207966 0.898219
vt 0.273657 0.892755
vt 0.273729 0.888986
vt 0.278014 0.892230
vt 0.279916 0.889031
vt 0.469703 0.866718
vt 0.463341 0.872783
vt 0.473210 0.869329
vt 0.227381 0.906285
vt 0.233972 0.900242
vt 0.223298 0.900815
vt 0.230341 0.897139
vt 0.238634 0.895727
vt 0.206222 0.945430
vt 0.203114 0.943700
vt 0.242638 0.897037
vt 0.198164 0.941013
vt 0.206650 0.938147
vt 0.202383 0.933803
vt 0.244169 0.892158
vt 0.213713 0.936967
vt 0.214260 0.929743
vt 0.219281 0.931697
vt 0.211377 0.928017
vt 0.204216 0.926443
vt 0.200480 0.920787
vt 0.208224 0.923292
vt 0.205009 0.918889
vt 0.284930 0.903154
vt 0.276344 0.900848
vt 0.288557 0.898218
vt 0.277263 0.894860
vt 0.286588 0.892500
vt 0.203260 0.915039
vt 0.214223 0.876043
vt 0.212053 0.880460
vt 0.213879 0.881508
vt 0.219075 0.876475
vt 0.290084 0.889176
vt 0.295187 0.894758
vt 0.297717 0.890414
vt 0.816128 0.962538
vt 0.810373 0.970629
vt 0.802090 0.968248
vt 0.817845 0.967387
vt 0.825508 0.966713
vt 0.745326 0.742311
vt 0.746853 0.736036
vt 0.760257 0.743638
vt 0.803685 0.977427
vt 0.793055 0.983257
vt 0.804630 0.985436
vt 0.735104 0.736621
vt 0.745742 0.747865
vt 0.729510 0.743753
vt 0.815949 0.975699
vt 0.824160 0.984963
vt 0.813914 0.982400
vt 0.735265 0.748822
vt 0.724628 0.736902
vt 0.728185 0.733543
vt 0.719129 0.733143
vt 0.710985 0.737481
vt 0.051744 0.594375
vt 0.050394 0.588360
vt 0.056638 0.594073
vt 0.058112 0.586968
vt 0.072849 0.611458
vt 0.074186 0.605295
vt 0.080825 0.611418
vt 0.071816 0.591481
vt 0.069465 0.597399
vt 0.068787 0.589758
vt 0.076356 0.599332
vt 0.066268 0.582291
vt 0.074218 0.582367
vt 0.063078 0.591734
vt 0.062546 0.584730
vt 0.064488 0.597208
vt 0.071125 0.603133
vt 0.064057 0.603247
vt 0.059666 0.589213
vt 0.058339 0.601824
vt 0.059181 0.595745
vt 0.686592 0.718850
vt 0.670046 0.720401
vt 0.676928 0.717391
vt 0.077601 0.605425
vt 0.087139 0.611864
vt 0.662652 0.734120
vt 0.671450 0.737732
vt 0.654317 0.729418
vt 0.714480 0.743141
vt 0.724914 0.748092
vt 0.711486 0.749893
vt 0.704779 0.741651
vt 0.700386 0.736079
vt 0.694969 0.726038
vt 0.689398 0.726076
vt 0.693305 0.729350
vt 0.682343 0.730643
vt 0.696257 0.733649
vt 0.691290 0.735590
vt 0.687887 0.732951
vt 0.682724 0.736102
vt 0.342505 0.920474
vt 0.347658 0.925011
vt 0.339746 0.923596
vt 0.335310 0.925622
vt 0.341009 0.930207
vt 0.349812 0.932294
vt 0.359899 0.919114
vt 0.355776 0.924835
vt 0.351152 0.920252
vt 0.363782 0.918402
vt 0.342463 0.915642
vt 0.348426 0.915629
vt 0.352632 0.913510
vt 0.355580 0.910106
vt 0.362787 0.941341
vt 0.365798 0.935846
vt 0.368720 0.939138
vt 0.358547 0.937424
vt 0.358631 0.942007
vt 0.364135 0.949170
vt 0.368227 0.946112
vt 0.350995 0.941318
vt 0.355582 0.943073
vt 0.350297 0.936016
vt 0.347042 0.942514
vt 0.344818 0.941152
vt 0.342370 0.937686
vt 0.347855 0.945993
vt 0.357749 0.950115
vt 0.348179 0.951990
vt 0.342864 0.945133
vt 0.344003 0.953731
vt 0.360999 0.930699
vt 0.825182 0.974442
vt 0.837463 0.971532
vt 0.834761 0.964050
vt 0.832620 0.977868
vt 0.053260 0.598873
vt 0.051532 0.606212
vt 0.049576 0.599998
vt 0.715439 0.731103
vt 0.046094 0.593436
vt 0.046090 0.597756
vt 0.839898 0.965823
vt 0.044751 0.612925
vt 0.042479 0.605115
vt 0.842247 0.973722
vt 0.039466 0.597801
vt 0.035644 0.600638
vt 0.037385 0.604975
vt 0.319286 0.920226
vt 0.319309 0.915422
vt 0.324627 0.916511
vt 0.038712 0.613850
vt 0.034654 0.609721
vt 0.314177 0.922263
vt 0.313931 0.919079
vt 0.309045 0.916539
vt 0.054243 0.622631
vt 0.050430 0.615433
vt 0.055442 0.610474
vt 0.065064 0.611347
vt 0.065153 0.619200
vt 0.079837 0.614851
vt 0.076815 0.617214
vt 0.069579 0.616537
vt 0.084861 0.616326
vt 0.080424 0.622329
vt 0.084027 0.621191
vt 0.085572 0.627871
vt 0.090736 0.626963
vt 0.080557 0.626670
vt 0.072572 0.622177
vt 0.076059 0.626877
vt 0.070392 0.626554
vt 0.067622 0.622855
vt 0.675810 0.756690
vt 0.674438 0.750301
vt 0.680860 0.750279
vt 0.666176 0.752666
vt 0.663334 0.744329
vt 0.669480 0.748534
vt 0.042909 0.618496
vt 0.044804 0.623084
vt 0.060877 0.626974
vt 0.327439 0.912741
vt 0.334068 0.920971
vt 0.325409 0.908066
vt 0.331809 0.907072
vt 0.336247 0.911540
vt 0.319375 0.913542
vt 0.377260 0.883864
vt 0.379523 0.887512
vt 0.374249 0.887324
vt 0.652059 0.780576
vt 0.657131 0.774888
vt 0.654442 0.781655
vt 0.066088 0.628168
vt 0.656653 0.767470
vt 0.662319 0.769992
vt 0.660506 0.759837
vt 0.332790 0.903490
vt 0.343832 0.910194
vt 0.336138 0.902402
vt 0.033437 0.614172
vt 0.030881 0.617778
vt 0.027387 0.615545
vt 0.683405 0.758166
vt 0.016197 0.622072
vt 0.019725 0.618028
vt 0.025087 0.621187
vt 0.038718 0.620766
vt 0.023516 0.625702
vt 0.012975 0.626563
vt 0.032532 0.620171
vt 0.030772 0.624912
vt 0.667194 0.760382
vt 0.672359 0.764880
vt 0.007042 0.628135
vt 0.005053 0.625765
vt 0.655129 0.760297
vt 0.659670 0.754407
vt 0.654092 0.746811
vt 0.826994 0.981447
vt 0.836435 0.986179
vt 0.838879 0.980185
vt 0.701174 0.746785
vt 0.847971 0.986107
vt 0.845076 0.978335
vt 0.696779 0.752491
vt 0.701398 0.754670
vt 0.032021 0.605047
vt 0.694320 0.739032
vt 0.686689 0.742010
vt 0.677155 0.744796
vt 0.691833 0.750161
vt 0.686934 0.748618
vt 0.031095 0.610215
vt 0.690611 0.755578
vt 0.677811 0.738613
vt 0.324216 0.924310
vt 0.319390 0.930144
vt 0.312023 0.926328
vt 0.307380 0.932845
vt 0.334885 0.932112
vt 0.331660 0.934211
vt 0.339515 0.937226
vt 0.325133 0.939236
vt 0.305943 0.952822
vt 0.317140 0.950082
vt 0.316636 0.958818
vt 0.327563 0.951598
vt 0.325700 0.944077
vt 0.314695 0.936471
vt 0.309828 0.942756
vt 0.319058 0.941717
vt 0.334389 0.939073
vt 0.339918 0.944716
vt 0.336156 0.943984
vt 0.329749 0.945424
vt 0.329582 0.939360
vt 0.332691 0.952696
vt 0.339569 0.953934
vt 0.361980 0.955441
vt 0.351383 0.955853
vt 0.233222 0.041675
vt 0.238232 0.051052
vt 0.227773 0.044922
vt 0.088976 0.621410
vt 0.644557 0.732025
vt 0.647108 0.725485
vt 0.653292 0.753476
s 1
f 125/1/1 83/2/1 82/3/1
f 342/4/2 125/1/2 126/5/2
f 342/4/3 126/5/4 147/6/4
f 83/2/5 125/1/5 342/4/5
f 344/7/6 83/8/7 342/9/8
f 338/10/9 344/7/9 339/11/10
f 338/10/11 140/12/12 344/7/12
f 338/10/13 343/13/14 255/14/14
f 341/15/15 342/4/16 147/6/15
f 339/11/17 344/7/17 342/9/17
f 339/16/18 342/4/19 341/15/20
f 340/17/21 338/10/21 339/11/21
f 339/16/22 337/18/23 340/19/23
f 337/18/24 339/16/25 341/15/24
f 338/10/26 340/17/26 343/13/27
f 150/20/28 255/14/29 343/13/29
f 150/20/30 343/13/30 340/17/30
f 150/21/31 340/19/32 337/18/32
f 337/18/33 341/15/33 148/22/34
f 3/23/35 1/24/35 4/25/35
f 4/25/36 1/24/37 6/26/37
f 3/23/38 4/25/38 5/27/38
f 54/28/39 5/27/39 4/25/40
f 55/29/41 40/30/42 5/27/42
f 7/31/43 2/32/44 8/33/44
f 7/31/45 4/25/45 6/26/46
f 54/28/47 4/25/47 7/31/47
f 54/28/48 55/29/49 5/27/50
f 57/34/51 54/28/52 7/31/51
f 6/26/53 2/32/53 7/31/54
f 7/31/55 11/35/56 10/36/56
f 7/31/57 10/36/58 59/37/59
f 11/35/60 7/31/60 8/33/61
f 8/33/62 13/38/62 11/35/63
f 9/39/64 13/40/65 100/41/66
f 12/42/67 13/38/68 9/39/68
f 10/36/69 12/42/69 63/43/69
f 63/43/70 59/37/71 10/36/72
f 11/35/73 13/38/74 10/36/75
f 10/36/76 13/38/77 12/42/77
f 16/44/78 39/45/78 44/46/78
f 14/47/79 39/45/79 16/44/79
f 14/47/80 16/44/80 42/48/80
f 15/49/81 14/47/81 42/48/81
f 18/50/82 15/49/83 42/48/83
f 23/51/84 15/52/84 18/53/84
f 17/54/85 23/55/85 18/56/85
f 23/51/86 20/57/87 19/58/88
f 22/59/89 20/57/89 23/51/89
f 20/57/90 22/59/91 21/60/92
f 23/51/86 19/58/88 15/52/93
f 23/55/94 17/54/95 25/61/94
f 69/62/96 25/61/97 17/54/97
f 69/62/98 17/54/99 65/63/99
f 24/64/100 23/55/101 25/61/102
f 24/64/103 22/65/104 23/55/105
f 28/66/106 24/64/107 25/61/107
f 26/67/108 25/61/108 69/62/108
f 28/66/109 25/61/110 26/67/110
f 29/68/111 24/64/112 28/66/113
f 28/66/114 26/67/115 73/69/114
f 27/70/116 22/65/116 24/64/117
f 27/70/118 24/64/118 29/68/118
f 29/68/119 109/71/119 27/70/120
f 29/68/121 38/72/122 109/71/121
f 29/68/123 28/66/124 38/72/124
f 28/66/125 73/69/126 38/72/126
f 74/73/127 38/72/127 73/69/127
f 38/72/128 74/73/129 118/74/129
f 104/75/130 30/76/131 105/77/132
f 106/78/133 105/79/133 32/80/133
f 106/78/134 32/80/134 31/81/134
f 32/82/135 105/77/136 30/76/136
f 33/83/137 22/65/137 27/70/138
f 33/83/139 27/70/140 37/84/139
f 36/85/141 33/83/142 37/84/141
f 27/70/143 109/71/144 37/84/144
f 35/86/145 33/83/146 36/85/147
f 36/85/148 34/87/149 35/86/148
f 31/81/150 34/87/151 36/85/152
f 31/81/153 36/85/154 110/88/154
f 109/71/155 38/72/155 118/74/155
f 43/89/156 39/45/156 40/30/156
f 44/46/157 39/45/157 43/89/157
f 41/90/158 16/44/158 44/46/158
f 61/91/159 40/30/160 55/29/161
f 42/48/162 16/44/162 41/90/162
f 65/63/163 17/54/163 18/56/163
f 65/92/164 18/50/164 42/48/164
f 42/93/165 67/94/165 65/63/166
f 70/95/167 67/94/167 42/93/168
f 43/89/169 45/96/169 44/46/169
f 41/90/170 44/46/170 45/96/170
f 45/96/171 43/89/171 46/97/171
f 46/97/172 43/89/172 40/30/173
f 48/98/174 46/97/174 60/99/175
f 60/99/176 46/97/177 40/30/177
f 60/99/178 40/30/179 61/91/179
f 45/96/180 46/97/181 50/100/181
f 48/98/182 47/101/182 46/97/182
f 50/100/183 46/97/183 47/101/183
f 48/98/184 60/99/184 100/41/185
f 9/39/186 100/41/187 60/99/186
f 47/101/188 48/98/189 13/102/189
f 49/103/190 51/104/191 47/105/192
f 41/90/193 45/96/193 50/100/193
f 42/48/194 41/90/195 50/100/195
f 42/93/196 50/106/196 70/95/196
f 51/104/197 50/107/197 47/105/197
f 70/108/198 50/107/198 51/104/199
f 53/109/200 70/108/201 52/110/200
f 52/110/202 70/108/202 51/104/203
f 101/111/204 51/104/204 49/103/204
f 107/112/205 51/104/205 101/111/205
f 51/104/206 107/112/206 52/110/206
f 71/113/207 52/110/208 107/112/207
f 52/110/209 71/113/210 53/109/211
f 57/34/212 55/29/212 54/28/212
f 57/34/213 58/114/214 55/29/213
f 55/29/215 58/114/215 61/91/216
f 56/115/217 61/91/217 58/114/217
f 56/115/218 64/116/219 61/91/218
f 57/34/220 7/31/221 59/37/221
f 59/37/222 58/114/223 57/34/222
f 124/117/224 56/115/225 58/114/225
f 124/117/226 58/114/226 59/37/226
f 64/116/227 56/115/228 124/117/229
f 61/91/230 62/118/230 60/99/230
f 62/118/231 12/42/231 60/99/232
f 12/42/233 9/39/234 60/99/233
f 62/118/235 61/91/236 64/116/237
f 62/118/238 63/43/238 12/42/239
f 63/43/240 62/118/240 124/117/241
f 62/118/242 64/116/242 124/117/243
f 66/119/244 65/63/244 67/94/244
f 66/119/245 69/62/245 65/63/245
f 66/119/246 26/67/247 69/62/247
f 68/120/248 67/94/249 70/95/250
f 66/119/251 67/94/251 68/120/252
f 75/121/253 66/119/254 68/120/253
f 68/120/255 84/122/255 75/121/256
f 75/121/257 26/67/257 66/119/258
f 71/113/210 72/123/259 53/109/211
f 113/124/260 72/123/261 71/113/260
f 73/69/262 26/67/262 75/121/262
f 74/73/263 73/69/263 75/121/263
f 77/125/264 74/73/265 75/121/265
f 136/126/266 74/73/267 77/125/267
f 78/127/268 136/126/268 77/125/268
f 134/128/269 74/73/270 136/126/271
f 118/74/272 74/73/272 134/128/272
f 76/129/273 77/125/273 75/121/273
f 76/129/274 75/121/274 84/122/274
f 76/129/275 84/122/276 92/130/275
f 78/127/277 77/125/278 76/129/278
f 76/129/279 79/131/279 78/127/279
f 80/132/280 79/131/281 76/129/282
f 143/133/283 78/127/283 79/131/283
f 120/134/284 80/132/284 93/135/284
f 122/136/285 80/132/286 120/134/285
f 79/131/281 80/132/280 122/136/287
f 70/95/288 82/137/289 68/120/290
f 88/138/291 82/3/292 70/108/291
f 81/139/293 68/120/293 82/137/294
f 88/138/295 125/1/295 82/3/296
f 84/122/297 68/120/297 81/139/297
f 84/122/298 81/139/299 83/8/299
f 81/139/300 82/137/300 83/8/300
f 139/140/301 84/122/302 83/8/302
f 92/130/303 84/122/304 142/141/305
f 142/141/306 84/122/307 139/140/307
f 142/141/308 133/142/309 92/130/308
f 88/138/310 70/108/310 87/143/311
f 70/108/312 53/109/312 87/143/312
f 85/144/313 87/143/313 53/109/313
f 53/109/314 72/123/315 85/144/315
f 87/143/316 85/144/317 86/145/318
f 93/146/319 85/144/319 72/123/319
f 86/147/320 85/148/320 93/135/320
f 94/149/321 93/135/322 91/150/321
f 86/147/323 93/135/324 94/149/323
f 89/151/325 88/138/326 87/143/327
f 87/143/328 86/145/329 89/151/328
f 89/151/330 86/145/330 95/152/330
f 88/138/331 89/151/332 130/153/333
f 90/154/334 76/129/335 92/130/334
f 80/132/336 76/129/337 90/154/338
f 91/150/339 80/132/340 90/154/340
f 91/150/341 90/154/341 95/155/342
f 97/156/343 90/154/344 92/130/345
f 91/150/346 93/135/347 80/132/348
f 95/155/349 86/147/350 94/149/349
f 95/155/351 94/149/352 91/150/352
f 96/157/353 89/151/354 95/152/354
f 97/156/355 95/155/356 90/154/357
f 96/157/358 95/152/356 97/158/355
f 130/153/359 89/151/359 96/157/359
f 96/157/360 97/158/361 132/159/362
f 97/156/363 92/130/364 133/142/365
f 97/158/366 133/160/366 132/159/367
f 98/161/368 13/102/369 99/162/370
f 98/161/371 49/163/372 13/102/371
f 49/103/373 98/164/373 102/165/373
f 13/102/65 48/98/374 100/41/66
f 13/102/375 49/163/376 47/101/375
f 102/165/377 98/164/377 104/166/377
f 102/165/378 104/166/379 105/167/379
f 102/165/380 101/111/380 49/103/380
f 105/167/381 103/168/381 102/165/381
f 107/112/382 102/165/382 103/168/383
f 103/169/384 105/79/385 106/78/384
f 103/169/386 106/78/386 111/170/386
f 110/88/387 111/170/387 106/78/387
f 110/88/388 106/78/388 31/81/389
f 107/112/390 101/111/390 102/165/390
f 107/112/391 103/168/392 108/171/391
f 108/171/393 71/113/393 107/112/393
f 112/172/394 110/88/394 36/85/394
f 37/84/395 112/172/395 36/85/395
f 111/170/396 110/88/396 112/172/396
f 111/170/397 112/172/397 116/173/397
f 112/172/398 37/84/399 123/174/399
f 116/173/400 112/172/400 123/174/400
f 113/124/401 71/113/402 108/171/401
f 103/168/403 114/175/403 113/124/404
f 108/171/405 103/168/405 113/124/405
f 111/170/406 114/176/407 103/169/407
f 114/176/408 116/173/408 115/177/408
f 72/123/409 113/124/410 114/175/409
f 72/178/411 114/176/412 115/177/413
f 93/135/414 72/178/414 115/177/414
f 116/173/415 114/176/416 111/170/416
f 119/179/417 116/173/418 123/174/417
f 119/179/419 115/177/419 116/173/419
f 37/84/420 109/71/421 123/174/420
f 118/74/422 123/174/422 109/71/422
f 118/74/423 117/180/423 123/174/424
f 119/179/425 123/174/425 117/180/425
f 118/74/426 134/128/427 135/181/427
f 118/74/428 135/181/429 117/180/430
f 121/182/431 119/179/432 117/180/432
f 120/134/433 93/135/433 115/177/433
f 120/134/434 115/177/434 119/179/434
f 121/182/435 120/134/435 119/179/435
f 117/180/436 135/181/437 137/183/437
f 121/182/438 117/180/439 137/183/440
f 122/136/441 120/134/441 121/182/441
f 137/183/442 122/136/443 121/182/444
f 124/117/445 59/37/446 63/43/446
f 88/138/447 128/184/448 125/1/449
f 125/1/449 128/184/448 126/5/450
f 88/138/451 129/185/451 128/184/452
f 127/186/453 126/5/453 128/184/454
f 147/6/455 126/5/456 127/186/457
f 127/186/458 128/184/458 129/185/458
f 131/187/459 127/186/460 129/185/461
f 332/188/462 127/186/462 131/187/462
f 130/153/463 129/185/463 88/138/464
f 129/185/465 130/153/465 131/187/466
f 96/157/467 131/187/468 130/153/468
f 132/159/469 131/187/469 96/157/469
f 133/160/470 332/188/470 132/159/471
f 332/188/472 131/187/473 132/159/474
f 135/181/475 134/128/475 136/126/475
f 136/126/476 78/127/476 143/133/476
f 135/181/477 136/126/478 138/189/477
f 137/183/479 135/181/480 138/189/479
f 138/189/481 136/126/481 143/133/482
f 122/136/483 137/183/484 138/189/483
f 83/8/485 344/7/486 139/140/486
f 139/140/487 344/7/487 140/12/488
f 140/12/489 141/190/490 139/140/491
f 139/140/492 144/191/493 142/141/493
f 145/192/494 142/141/495 144/191/496
f 145/192/494 133/142/497 142/141/495
f 144/191/498 139/140/498 141/190/498
f 255/14/499 140/12/499 338/10/500
f 255/14/501 141/190/501 140/12/502
f 138/189/503 143/133/503 79/131/503
f 138/189/504 79/131/505 122/136/504
f 146/193/506 141/190/506 150/20/507
f 332/188/508 133/160/509 145/194/509
f 149/195/510 127/186/510 332/188/510
f 146/196/511 332/188/512 145/194/511
f 146/196/513 149/195/513 332/188/514
f 145/192/515 144/191/516 141/190/517
f 146/193/518 145/192/519 141/190/520
f 149/195/521 146/196/522 148/22/522
f 149/195/523 147/6/523 127/186/523
f 148/22/524 147/6/524 149/195/524
f 148/22/525 341/15/525 147/6/525
f 150/20/526 141/190/527 255/14/527
f 148/22/528 146/196/529 150/21/530
f 175/197/531 151/198/531 155/199/531
f 175/197/532 152/200/532 151/198/533
f 161/201/534 151/198/535 152/200/534
f 156/202/536 155/203/536 153/204/537
f 155/199/538 154/205/539 153/206/540
f 157/207/541 153/206/542 154/205/543
f 155/203/544 156/202/545 175/208/546
f 151/198/547 154/205/548 155/199/548
f 156/202/549 153/204/550 157/209/551
f 157/209/552 176/210/553 156/202/552
f 151/198/554 158/211/555 154/205/555
f 158/211/556 177/212/556 159/213/556
f 159/213/557 157/207/557 154/205/558
f 154/205/559 158/211/559 159/213/559
f 157/209/560 159/214/561 176/210/561
f 175/197/562 161/201/563 152/200/564
f 160/215/565 161/216/563 175/208/562
f 160/215/566 175/208/567 176/210/566
f 162/217/568 161/216/568 160/215/568
f 160/215/569 222/218/569 162/217/569
f 224/219/570 222/220/570 223/221/570
f 222/220/571 179/222/571 223/221/571
f 238/223/572 168/224/573 251/225/572
f 163/226/574 166/227/575 164/228/574
f 173/229/576 166/227/577 163/226/578
f 165/230/579 172/231/580 164/228/581
f 164/228/582 169/232/583 165/230/583
f 169/232/584 182/233/585 165/230/584
f 164/228/581 172/231/580 163/226/586
f 164/228/587 166/227/588 169/232/588
f 169/232/589 166/227/590 171/234/591
f 166/227/577 173/229/576 167/235/592
f 167/235/593 173/229/593 168/224/593
f 166/227/594 249/236/595 171/234/594
f 167/235/596 249/236/597 166/227/598
f 169/232/599 170/237/600 182/233/600
f 248/238/601 247/239/601 169/232/602
f 223/221/603 170/237/604 247/239/605
f 171/234/606 248/238/607 169/232/608
f 169/232/609 247/239/610 170/237/610
f 223/221/611 179/222/611 170/237/611
f 172/240/612 173/241/612 163/242/612
f 174/243/613 168/224/614 173/229/615
f 168/224/616 174/243/617 251/225/618
f 174/243/619 173/229/620 251/225/619
f 173/229/621 252/244/622 251/225/623
f 334/245/624 173/241/625 172/240/626
f 172/240/627 253/246/627 334/245/627
f 252/247/628 173/241/629 334/245/628
f 175/208/630 156/202/631 176/210/630
f 176/210/632 178/248/632 160/215/632
f 159/214/633 177/249/634 176/210/633
f 176/210/635 177/249/635 178/248/635
f 177/249/636 285/250/637 178/248/636
f 160/215/638 178/248/639 222/218/639
f 178/248/640 180/251/640 222/218/641
f 222/218/642 180/251/643 179/252/642
f 180/251/644 178/248/645 285/250/646
f 172/240/647 165/253/648 181/254/648
f 181/254/649 165/253/649 182/255/650
f 181/254/651 185/256/652 172/240/653
f 170/257/654 183/258/655 182/255/655
f 182/255/656 183/258/656 184/259/657
f 183/258/658 170/257/658 179/252/658
f 182/255/659 185/256/659 181/254/659
f 182/255/660 184/259/660 185/256/660
f 184/259/661 291/260/662 185/256/662
f 172/240/663 185/256/663 253/246/664
f 185/256/665 291/260/665 253/246/666
f 193/261/667 188/262/668 187/263/668
f 303/264/669 187/263/670 189/265/669
f 187/263/671 188/262/672 210/266/671
f 210/266/673 189/265/674 187/263/673
f 191/267/675 192/268/676 190/269/676
f 191/267/677 186/270/678 192/268/679
f 307/271/680 194/272/680 193/261/681
f 188/262/682 190/269/683 192/268/683
f 193/261/684 190/269/685 188/262/684
f 193/261/686 194/272/686 190/269/687
f 195/273/688 190/269/688 194/272/688
f 190/269/689 195/273/689 191/267/689
f 191/267/690 195/273/691 186/270/690
f 195/273/692 194/272/693 196/274/694
f 188/262/695 192/268/696 210/266/695
f 197/275/697 198/276/698 199/277/699
f 198/276/700 197/275/701 211/278/701
f 197/275/702 202/279/703 211/278/702
f 197/275/704 200/280/705 202/279/704
f 201/281/706 200/280/707 197/275/707
f 199/277/708 201/281/709 197/275/710
f 203/282/711 211/278/711 207/283/712
f 202/279/713 207/283/714 211/278/713
f 203/282/715 213/284/715 211/278/716
f 205/285/717 204/286/718 203/282/717
f 210/266/719 206/287/720 189/265/719
f 213/284/721 203/282/722 204/286/723
f 210/266/724 213/284/725 206/287/726
f 213/284/721 204/286/723 206/287/727
f 203/282/728 207/283/729 208/288/730
f 202/279/731 214/289/731 207/283/731
f 207/283/732 214/289/733 208/288/734
f 214/289/735 324/290/735 208/288/736
f 205/285/737 203/282/738 208/288/739
f 208/288/740 204/286/741 205/285/742
f 208/288/743 209/291/743 204/286/743
f 208/288/744 324/290/745 209/291/744
f 324/290/746 215/292/747 209/291/748
f 210/266/749 212/293/750 213/284/749
f 212/293/751 210/266/752 192/268/753
f 212/293/754 211/278/755 213/284/756
f 212/293/757 198/276/758 211/278/759
f 214/289/760 202/279/761 200/280/761
f 161/201/762 216/294/763 151/198/764
f 151/198/765 216/294/766 158/211/765
f 158/211/767 216/294/768 177/212/768
f 216/294/763 161/201/762 217/295/769
f 161/201/770 162/296/771 217/295/771
f 217/295/772 283/297/773 216/294/772
f 219/298/774 226/299/775 218/300/774
f 162/217/776 222/218/776 220/301/776
f 218/300/777 220/302/778 222/220/778
f 220/302/779 218/300/780 221/303/780
f 162/296/781 220/304/782 217/295/781
f 218/300/783 222/220/783 224/219/784
f 224/219/785 219/298/786 218/300/787
f 224/219/788 223/221/788 219/298/789
f 218/300/790 226/299/791 227/305/792
f 218/300/793 227/305/793 225/306/794
f 220/304/795 228/307/795 217/295/795
f 225/306/796 228/308/797 220/302/798
f 225/306/799 220/302/799 221/303/800
f 225/306/801 288/309/802 228/308/801
f 221/303/803 218/300/803 225/306/804
f 225/306/805 231/310/806 288/309/805
f 299/311/807 230/312/807 229/313/807
f 227/305/808 268/314/808 225/306/808
f 268/314/809 231/310/810 225/306/810
f 268/314/811 232/315/812 231/310/811
f 299/311/813 234/316/813 233/317/814
f 233/317/815 230/312/815 299/311/815
f 233/317/816 235/318/816 230/312/816
f 234/316/817 235/318/817 233/317/818
f 257/319/819 266/320/820 237/321/819
f 236/322/821 261/323/822 237/321/822
f 237/321/823 261/323/823 257/319/823
f 251/225/824 241/324/824 238/223/824
f 241/324/825 240/325/826 238/223/826
f 238/223/827 240/325/828 245/326/829
f 238/223/830 245/326/831 236/322/832
f 245/326/833 261/323/834 236/322/834
f 241/324/835 251/225/835 239/327/835
f 241/324/836 242/328/836 240/325/837
f 239/327/838 331/329/839 241/324/840
f 241/324/841 331/329/841 242/328/841
f 333/330/842 242/328/842 327/331/842
f 242/328/843 331/329/843 327/331/843
f 333/330/844 243/332/845 242/328/846
f 240/325/847 246/333/848 245/326/849
f 246/333/850 244/334/851 277/335/850
f 261/323/852 245/326/853 262/336/854
f 245/326/849 246/333/848 262/336/855
f 246/333/856 277/335/857 262/336/858
f 240/325/859 242/328/860 246/333/860
f 244/334/861 246/333/861 242/328/862
f 243/332/863 244/334/864 242/328/865
f 247/239/866 248/238/867 223/221/868
f 219/298/869 223/221/869 248/238/869
f 171/234/870 249/236/870 248/238/871
f 237/321/872 226/299/873 248/238/872
f 249/236/874 236/322/875 248/238/874
f 236/322/876 237/321/877 248/238/878
f 248/238/879 226/299/880 219/298/880
f 167/235/881 236/322/881 249/236/881
f 168/224/882 238/223/883 167/235/883
f 238/223/884 236/322/885 167/235/886
f 237/321/887 266/320/888 226/299/888
f 270/337/889 279/338/890 250/339/889
f 251/225/891 252/244/892 239/327/892
f 280/340/893 254/341/894 282/342/895
f 266/320/896 257/319/897 267/343/898
f 267/343/899 257/319/900 260/344/899
f 257/319/901 261/323/902 256/345/901
f 259/346/903 302/347/904 229/313/903
f 257/348/905 256/349/905 258/350/905
f 302/347/906 258/350/907 307/271/907
f 257/348/908 258/350/909 259/346/908
f 258/350/910 302/347/911 259/346/910
f 257/348/912 259/346/913 260/351/913
f 260/351/914 229/313/914 230/312/915
f 229/313/916 260/351/917 259/346/918
f 243/352/919 333/353/919 329/354/920
f 329/355/921 244/356/922 243/357/923
f 262/336/924 256/345/925 261/323/924
f 263/358/926 262/336/926 277/335/926
f 256/345/927 262/336/928 263/358/928
f 264/359/929 277/360/930 244/356/931
f 329/355/932 264/359/933 244/356/932
f 264/359/934 276/361/934 277/360/934
f 263/362/935 258/350/936 256/349/936
f 258/350/937 263/362/938 308/363/939
f 263/362/940 265/364/941 308/363/940
f 266/320/942 227/305/943 226/299/944
f 266/320/945 267/343/946 227/305/945
f 267/343/947 268/314/948 227/305/948
f 273/365/949 232/315/949 268/314/950
f 269/366/951 298/367/951 273/365/951
f 298/368/952 270/337/952 250/339/952
f 271/369/953 270/370/954 275/371/955
f 260/344/956 235/372/956 267/343/957
f 267/343/958 235/372/959 268/314/959
f 260/351/960 230/312/961 235/318/960
f 272/373/962 265/374/963 271/369/962
f 273/365/964 268/314/965 274/375/964
f 268/314/966 235/372/967 274/375/968
f 269/366/969 273/365/969 274/375/970
f 235/372/971 311/376/972 274/375/973
f 274/375/974 275/371/974 269/366/974
f 271/369/975 275/371/975 272/373/976
f 269/366/977 275/371/977 298/367/977
f 298/367/978 275/371/978 270/370/978
f 277/360/979 278/377/980 271/378/979
f 263/379/981 277/380/982 265/374/983
f 278/377/984 277/360/985 276/361/984
f 335/381/986 276/361/987 264/359/988
f 335/381/989 281/382/990 276/361/990
f 276/361/991 280/340/992 278/377/991
f 278/377/993 280/340/993 270/337/994
f 270/337/995 282/342/995 279/338/996
f 270/337/997 280/340/997 282/342/997
f 270/337/998 271/378/999 278/377/998
f 280/340/1000 281/382/1000 254/383/1000
f 281/382/1001 280/340/1002 276/361/1003
f 150/21/1004 337/18/1005 148/22/1004
f 277/380/1006 271/369/1006 265/374/1007
f 284/384/1008 177/212/1009 216/294/1010
f 216/294/1011 283/297/1011 284/384/1011
f 284/384/1012 285/385/1012 177/212/1012
f 284/384/1013 283/297/1013 285/385/1014
f 283/297/1015 286/386/1016 285/385/1016
f 217/295/1017 286/386/1018 283/297/1019
f 285/250/1020 287/387/1021 180/251/1022
f 286/386/1023 287/388/1023 285/385/1023
f 228/307/1024 286/386/1025 217/295/1025
f 228/307/1026 288/389/1027 286/386/1026
f 288/389/1028 287/388/1028 286/386/1028
f 293/390/1029 287/387/1029 288/391/1029
f 231/310/1030 293/392/1030 288/309/1030
f 232/315/1031 293/392/1032 231/310/1032
f 289/393/1033 179/252/1033 180/251/1034
f 179/252/1035 289/393/1036 183/258/1035
f 289/393/1037 290/394/1038 183/258/1038
f 287/387/1039 289/393/1040 180/251/1041
f 287/387/1042 290/394/1043 289/393/1042
f 184/259/1044 183/258/1044 290/394/1044
f 184/259/1045 290/394/1045 291/260/1045
f 290/394/1046 295/395/1046 291/260/1046
f 287/387/1047 292/396/1048 290/394/1048
f 292/396/1049 287/387/1049 293/390/1049
f 292/396/1050 296/397/1050 290/394/1050
f 232/315/1051 294/398/1051 293/392/1051
f 292/396/1052 294/399/1053 296/397/1053
f 293/390/1054 294/399/1054 292/396/1055
f 296/397/1056 295/395/1056 290/394/1057
f 295/395/1058 296/397/1058 250/339/1058
f 250/339/1059 279/338/1060 295/395/1059
f 291/260/1061 297/400/1062 253/246/1062
f 291/260/1063 295/395/1063 297/400/1063
f 297/400/1064 295/395/1065 253/246/1066
f 295/395/1067 279/338/1067 282/342/1067
f 295/395/1068 282/342/1069 253/246/1068
f 253/246/1070 282/342/1070 254/341/1070
f 273/365/1071 294/398/1071 232/315/1071
f 294/399/1072 298/368/1072 296/397/1073
f 294/398/1074 273/365/1074 298/367/1075
f 250/339/1076 296/397/1077 298/368/1076
f 304/401/1078 299/311/1079 302/347/1080
f 299/311/1081 304/401/1082 234/316/1083
f 304/401/1084 300/402/1084 234/316/1085
f 235/318/1086 234/316/1087 301/403/1088
f 234/316/1089 300/402/1089 301/403/1090
f 311/404/1091 301/403/1092 300/402/1092
f 304/401/1093 302/347/1094 303/264/1095
f 187/263/1096 303/264/1097 302/347/1096
f 193/261/1098 187/263/1099 302/347/1100
f 307/271/1101 193/261/1101 302/347/1101
f 302/347/1102 299/311/1103 229/313/1103
f 304/401/1104 303/264/1105 305/405/1105
f 305/405/1106 314/406/1106 304/401/1107
f 189/265/1108 305/405/1109 303/264/1110
f 189/265/1111 315/407/1111 305/405/1111
f 314/406/1112 300/402/1113 304/401/1113
f 306/408/1114 300/402/1115 314/406/1114
f 308/363/1116 307/271/1116 258/350/1117
f 307/271/1118 308/363/1118 194/272/1118
f 196/274/694 194/272/693 308/363/1119
f 265/409/1120 313/410/1121 308/411/1121
f 313/410/1122 309/412/1122 308/411/1122
f 309/412/1123 313/410/1124 319/413/1123
f 235/318/1125 301/403/1125 311/404/1125
f 311/404/1126 310/414/1127 272/415/1128
f 272/415/1129 313/410/1130 265/409/1130
f 313/410/1131 272/415/1132 312/416/1132
f 274/375/1133 311/376/1133 275/371/1134
f 311/376/1135 272/373/1135 275/371/1135
f 306/408/1136 312/416/1136 310/414/1137
f 300/402/1138 310/414/1139 311/404/1139
f 306/408/1140 310/414/1141 300/402/1141
f 310/414/1142 312/416/1143 272/415/1143
f 306/408/1144 319/413/1144 312/416/1144
f 312/416/1145 319/413/1145 313/410/1146
f 206/287/1147 315/407/1147 189/265/1147
f 315/407/1148 314/406/1149 305/405/1150
f 315/407/1151 317/417/1151 314/406/1152
f 206/287/1153 320/418/1153 315/407/1153
f 320/418/1154 316/419/1155 315/407/1155
f 315/407/1156 316/419/1157 317/417/1158
f 317/417/1159 316/419/1160 323/420/1161
f 317/417/1162 318/421/1162 314/406/1162
f 314/406/1163 318/421/1164 306/408/1165
f 317/417/1166 323/420/1167 318/421/1167
f 306/408/1168 318/421/1168 319/413/1168
f 323/420/1169 319/413/1170 318/421/1170
f 204/286/1171 209/291/1171 206/287/1171
f 209/291/1172 320/418/1172 206/287/1172
f 209/291/1173 215/292/1173 320/418/1174
f 323/420/1175 322/422/1176 309/412/1176
f 309/412/1177 319/413/1177 323/420/1178
f 316/419/1179 321/423/1180 322/422/1180
f 316/419/1181 322/422/1181 323/420/1181
f 316/419/1182 320/418/1183 321/423/1183
f 215/292/1184 321/423/1184 320/418/1184
f 214/289/1185 200/280/1186 325/424/1185
f 214/289/1187 326/425/1188 324/290/1189
f 214/289/1190 325/424/1191 326/425/1191
f 324/290/1192 326/425/1193 215/292/1193
f 327/426/1194 328/427/1194 333/428/1194
f 331/329/1195 330/429/1196 327/331/1196
f 239/327/1197 252/244/1197 330/429/1197
f 252/247/1198 254/430/1198 330/431/1198
f 331/329/1199 239/327/1199 330/429/1199
f 254/430/1200 252/247/1201 334/245/1201
f 254/341/1202 334/245/1202 253/246/1203
f 335/381/1204 336/432/1204 281/382/1204
f 281/382/1205 336/432/1205 254/383/1205
